<?xml version="1.0" standalone="no"?>
<!DOCTYPE svg PUBLIC "-//W3C//DTD SVG 20010904//EN"
 "http://www.w3.org/TR/2001/REC-SVG-20010904/DTD/svg10.dtd">
<svg version="1.0" xmlns="http://www.w3.org/2000/svg"
 width="1234.000000pt" height="739.000000pt" viewBox="0 0 1234.000000 739.000000"
 preserveAspectRatio="xMidYMid meet">
<metadata>
Created by potrace 1.15, written by Peter Selinger 2001-2017
</metadata>
<g transform="translate(0.000000,739.000000) scale(0.100000,-0.100000)"
fill="#000000" stroke="none">
<g>
<path d="M9670 6940 c-25 -9 -61 -24 -80 -32 -123 -55 -455 -188 -468 -188 -5
0 -23 -11 -42 -25 -19 -14 -39 -25 -46 -25 -7 0 -41 -13 -76 -30 -36 -16 -85
-34 -111 -39 -25 -6 -67 -23 -94 -39 -65 -37 -118 -60 -283 -122 -47 -18 -98
-38 -115 -45 -94 -40 -114 -49 -159 -71 -28 -13 -58 -24 -67 -24 -10 0 -21 -4
-24 -10 -3 -5 -13 -10 -21 -10 -8 0 -56 -20 -107 -44 -51 -24 -110 -51 -132
-60 -22 -10 -57 -26 -78 -38 -60 -32 -67 -23 -49 69 8 44 12 91 9 104 -9 34
-47 53 -91 45 -34 -6 -35 -8 -41 -64 -8 -73 -27 -144 -37 -134 -4 4 -9 81 -11
172 -4 151 -19 265 -40 298 -17 26 -58 12 -110 -37 -77 -73 -136 -101 -213
-101 -54 0 -64 3 -69 21 -9 27 -37 21 -52 -12 -10 -21 -10 -38 1 -90 25 -115
37 -134 81 -123 26 6 35 40 16 59 -6 6 -13 29 -17 53 -5 35 -4 42 10 42 9 0
16 -4 16 -9 0 -12 86 -41 122 -41 16 0 46 9 68 20 22 11 45 20 53 20 19 0 39
-70 31 -109 -4 -19 -2 -31 4 -31 6 0 14 16 18 35 3 19 10 35 15 35 12 0 11 -7
-3 -91 -9 -59 -9 -78 6 -127 31 -106 32 -103 -54 -140 -71 -30 -114 -42 -121
-34 -8 8 -29 114 -29 144 0 39 20 15 26 -32 4 -27 10 -50 14 -50 4 0 10 40 14
90 5 72 4 96 -9 121 -9 17 -20 49 -23 72 -10 59 -38 58 -34 0 l4 -43 -64 -1
c-35 -1 -76 -3 -93 -5 -30 -4 -188 -4 -375 0 -52 1 -105 -1 -117 -5 -13 -5
-23 -4 -25 2 -6 19 -92 23 -125 6 -31 -17 -95 -21 -178 -13 -27 2 -76 5 -107
5 l-58 1 5 88 c2 48 1 92 -3 98 -4 5 -21 20 -39 32 -35 24 -75 29 -91 9 -6 -7
-23 -62 -38 -124 -24 -100 -29 -112 -51 -116 -13 -2 -26 0 -29 5 -6 9 -44 7
-109 -7 -16 -4 -105 -7 -197 -8 -91 -1 -170 -5 -174 -9 -13 -13 -24 -9 -24 9
0 15 -1 15 -14 -2 -8 -12 -19 -16 -31 -11 -15 6 -17 15 -12 69 3 34 12 84 19
110 9 35 9 53 2 65 -15 23 -84 34 -101 16 -7 -7 -22 -15 -32 -19 -20 -6 -31
-49 -31 -121 0 -45 -18 -67 -63 -78 -15 -4 -39 -16 -53 -29 -25 -22 -102 -38
-126 -27 -7 3 -105 3 -218 -1 -386 -14 -635 -18 -713 -12 -66 5 -77 8 -72 23
14 45 -80 82 -170 67 -27 -4 -86 -10 -130 -13 -105 -7 -152 -20 -182 -50 -19
-20 -24 -31 -18 -52 3 -15 10 -47 14 -72 4 -25 10 -50 14 -57 12 -19 38 -298
42 -458 12 -376 16 -502 20 -535 11 -97 27 -214 40 -295 18 -118 27 -272 17
-310 -7 -26 -17 -33 -68 -49 -32 -11 -82 -30 -111 -43 -28 -13 -61 -23 -72
-23 -11 0 -23 -4 -26 -10 -3 -6 -14 -10 -24 -10 -9 0 -27 -9 -39 -20 -12 -11
-26 -20 -31 -20 -6 0 -25 -7 -43 -14 -18 -8 -69 -28 -113 -45 -44 -16 -102
-40 -130 -54 -45 -22 -92 -41 -235 -96 -25 -10 -61 -25 -80 -34 -19 -8 -69
-26 -110 -38 -41 -13 -82 -28 -90 -35 -15 -12 -103 -44 -121 -44 -5 0 -32 -10
-60 -22 -36 -17 -48 -28 -45 -40 2 -9 -2 -19 -9 -22 -19 -7 -27 5 -14 21 17
20 -1 16 -67 -13 -54 -23 -86 -38 -214 -96 -25 -12 -52 -27 -60 -34 -17 -14
-98 -44 -121 -44 -10 0 -23 -18 -34 -45 l-17 -46 27 -40 c14 -23 28 -48 30
-57 2 -10 11 -35 19 -57 8 -22 15 -46 16 -54 0 -8 18 -51 39 -96 21 -45 42
-92 46 -105 4 -12 18 -38 31 -57 13 -20 24 -42 24 -50 0 -7 11 -36 25 -63 24
-48 24 -50 6 -60 -11 -5 -29 -10 -41 -10 -33 0 -94 -36 -130 -77 -33 -37 -34
-38 -11 -41 14 -2 31 5 42 17 11 12 24 21 29 21 17 0 11 -19 -10 -30 -16 -9
-18 -15 -10 -30 11 -21 56 -26 95 -11 18 7 17 9 -10 24 l-30 16 37 -6 c26 -4
38 -2 38 6 0 8 12 11 33 9 28 -3 36 -10 63 -63 18 -33 37 -80 44 -105 7 -25
18 -49 24 -55 14 -12 39 -72 41 -98 1 -10 -7 -29 -17 -42 -10 -13 -18 -28 -18
-34 0 -14 23 -14 37 0 24 24 37 1 92 -161 45 -130 54 -150 68 -150 24 0 13
-38 -16 -59 -15 -11 -49 -26 -74 -33 -44 -11 -48 -11 -72 12 -33 31 -32 37 10
44 55 11 46 36 -12 36 -69 0 -84 7 -123 55 -19 24 -44 46 -55 49 -25 7 -43
-10 -27 -26 17 -17 15 -28 -7 -28 -40 0 -30 -19 19 -35 27 -9 50 -20 50 -25 0
-4 13 -12 28 -18 16 -5 53 -33 82 -62 49 -46 58 -51 88 -45 18 3 51 19 75 34
38 26 97 51 118 51 5 0 9 -34 9 -75 0 -73 -1 -76 -27 -86 -176 -71 -256 -93
-306 -85 -50 8 -216 87 -216 103 -1 7 -11 18 -23 24 -64 34 -93 111 -85 225 6
85 7 87 52 135 25 26 45 53 45 59 0 22 -32 8 -69 -31 -58 -59 -74 -109 -69
-216 5 -117 32 -163 136 -230 82 -52 102 -81 102 -146 0 -33 11 -66 41 -123
65 -127 69 -133 112 -180 38 -42 45 -45 77 -40 76 14 81 13 101 -23 23 -43 55
-77 96 -102 31 -19 45 -49 23 -49 -5 0 -17 -12 -26 -26 -15 -21 -15 -27 -4
-34 9 -6 19 -2 28 11 17 24 39 25 47 0 3 -10 29 -31 57 -46 l51 -28 -34 -29
c-19 -16 -77 -57 -129 -90 -102 -65 -140 -98 -140 -122 0 -9 -9 -20 -20 -26
-11 -6 -19 -19 -18 -28 2 -14 -4 -16 -33 -14 -54 5 -114 28 -117 46 -4 20 42
63 77 71 43 9 121 75 172 145 50 69 59 94 34 104 -8 3 -15 1 -15 -4 0 -15 -78
-132 -98 -145 -9 -7 -50 -30 -90 -52 -46 -25 -80 -52 -92 -71 -14 -23 -27 -32
-46 -32 -14 0 -34 -5 -45 -10 -21 -12 -26 -45 -8 -56 6 -3 9 -17 6 -30 -5 -26
7 -41 18 -24 4 7 19 8 37 4 31 -6 42 -8 136 -20 36 -4 57 -13 65 -25 7 -11 19
-19 27 -19 9 0 31 -13 50 -28 46 -37 108 -56 156 -48 22 3 56 8 77 10 45 4 97
48 97 83 0 44 -104 123 -163 123 -13 0 -33 12 -46 26 -19 22 -28 25 -59 20
-20 -4 -44 -2 -51 3 -12 8 -8 13 18 28 18 10 52 33 74 51 23 19 61 43 84 54
24 11 58 38 77 59 18 22 60 52 92 69 63 31 130 101 143 148 4 15 9 51 10 80 1
38 11 72 33 113 17 32 35 59 39 59 5 0 34 -12 65 -26 52 -24 55 -27 49 -52 -4
-15 -9 -84 -10 -154 -3 -121 -13 -180 -41 -223 -6 -11 -18 -46 -25 -79 -12
-57 -12 -59 12 -77 13 -10 30 -19 37 -19 26 0 10 -20 -17 -20 -21 0 -36 -9
-57 -37 -15 -21 -29 -40 -31 -43 -2 -2 -8 2 -12 9 -10 16 -31 6 -31 -15 0 -14
10 -15 145 -19 28 -1 66 3 86 8 27 7 45 5 70 -6 19 -8 53 -20 77 -26 24 -7 67
-25 96 -40 52 -27 58 -27 147 -20 111 9 99 6 99 23 0 7 7 19 15 26 25 21 19
73 -12 102 -48 46 -127 63 -155 34 -16 -15 -48 -4 -48 17 0 7 -9 21 -21 30
-11 10 -25 30 -30 45 -5 15 -18 33 -28 39 -17 11 -24 8 -48 -21 l-29 -32 -26
28 c-37 40 -41 69 -19 135 10 32 35 112 55 178 21 66 41 127 47 135 31 49 49
105 55 178 l7 81 -48 71 c-27 38 -52 70 -56 70 -4 0 -21 13 -37 28 -20 19 -59
37 -111 52 -78 22 -93 31 -70 45 6 4 9 28 7 54 -3 43 -1 47 27 61 57 29 120
78 178 139 37 38 67 61 80 61 12 0 55 16 94 35 40 19 77 35 82 35 5 0 11 3 13
8 2 4 18 16 37 26 24 14 36 16 39 8 6 -19 20 -14 50 17 15 17 38 31 52 33 23
3 25 0 23 -37 -1 -22 -5 -58 -8 -80 -15 -90 -16 -558 -1 -677 11 -87 13 -139
6 -205 -5 -48 -10 -114 -10 -145 0 -76 -24 -147 -61 -179 -28 -24 -29 -28 -14
-43 20 -19 45 -21 45 -3 0 7 22 33 49 56 39 34 50 51 55 84 4 22 11 46 16 52
13 16 15 161 1 157 -6 -1 -11 2 -11 8 0 5 5 10 10 10 7 0 10 141 9 438 -1 422
8 590 32 616 14 15 22 -1 10 -21 -20 -38 -29 -157 -19 -268 11 -130 16 -150
30 -115 5 15 7 67 3 127 -4 56 -4 124 0 150 8 48 8 48 18 18 5 -16 11 -118 12
-225 2 -107 4 -212 4 -232 1 -25 6 -38 14 -38 11 0 13 40 11 217 -4 258 -10
399 -19 413 -3 5 1 10 9 10 10 0 16 -9 16 -24 0 -14 5 -28 10 -31 10 -6 15 13
12 47 -1 9 5 22 13 28 13 11 15 5 15 -38 0 -68 17 -76 26 -12 4 27 10 50 15
50 13 0 20 -102 12 -180 -10 -90 -6 -120 13 -120 11 0 14 17 14 75 0 43 4 75
10 75 6 0 11 -17 11 -37 1 -21 3 -47 5 -58 7 -46 7 -113 -1 -150 -5 -22 -10
-104 -12 -182 -3 -111 -1 -147 10 -165 8 -13 18 -40 21 -60 4 -21 15 -42 25
-48 19 -10 34 -76 21 -95 -6 -10 2 -183 18 -340 7 -78 23 -125 42 -125 13 0
13 11 -1 65 -12 48 -5 100 12 89 6 -3 9 -25 7 -48 -8 -72 29 -156 69 -156 7 0
13 -7 13 -15 0 -21 13 -19 38 8 28 29 28 41 1 34 -15 -4 -28 2 -45 21 -19 22
-23 38 -24 91 0 64 -8 121 -34 251 -11 52 -11 84 -2 164 12 95 11 100 -12 148
-22 46 -23 55 -13 112 15 92 26 325 26 567 l0 216 56 27 c30 14 61 26 67 26 7
0 20 4 30 10 9 5 62 24 117 41 55 18 140 52 189 76 49 24 117 53 150 64 34 11
81 32 104 46 64 37 68 28 53 -119 -9 -87 -9 -124 -2 -126 6 -2 11 -10 11 -18
0 -9 -4 -13 -9 -10 -10 7 -24 -40 -16 -53 2 -5 0 -33 -5 -62 -16 -89 -37 -270
-39 -334 -2 -65 -22 -228 -46 -365 -35 -202 -46 -277 -55 -392 -6 -68 -15
-139 -20 -158 -4 -19 -11 -60 -15 -90 -13 -106 -36 -265 -41 -279 -3 -11 -7
-12 -16 -3 -19 19 -38 14 -38 -9 0 -22 -8 -22 -53 -4 -14 6 -20 2 -24 -14 -3
-12 -13 -21 -24 -21 -22 0 -25 -22 -6 -39 14 -11 115 -9 136 3 6 4 23 0 38 -9
37 -24 116 -31 132 -11 18 21 37 20 61 -4 16 -16 32 -19 97 -18 104 1 127 10
118 46 -10 40 -15 42 -93 45 -63 2 -72 4 -72 21 0 15 -3 16 -15 6 -8 -7 -15
-19 -15 -26 0 -8 -4 -14 -10 -14 -5 0 -10 5 -10 11 0 6 -7 8 -16 5 -14 -5 -15
-4 -4 9 7 8 10 22 6 30 -5 13 12 158 31 260 2 17 7 46 10 65 2 19 8 44 13 55
13 28 30 154 30 216 0 49 1 51 23 44 12 -4 141 -11 287 -15 146 -5 271 -9 279
-9 20 -1 6 -460 -19 -579 -12 -63 -14 -89 -6 -94 7 -5 4 -12 -8 -21 -19 -14
-19 -15 2 -26 11 -6 30 -11 42 -11 12 0 30 -5 41 -10 13 -8 31 -7 59 0 37 10
40 14 40 45 0 19 4 36 9 39 21 13 42 204 51 476 6 157 12 303 14 325 3 22 7
204 11 405 4 201 8 403 10 450 2 47 4 129 4 182 1 94 2 98 27 115 32 21 108
21 155 1 159 -69 242 -84 347 -64 38 7 41 6 35 -11 -3 -10 -18 -29 -32 -43
l-26 -24 29 -6 c42 -7 43 -26 4 -62 l-33 -31 29 5 c22 5 30 2 33 -13 7 -26 11
-24 49 16 18 19 35 35 38 35 3 0 3 -14 -1 -31 -5 -27 -3 -31 13 -27 11 2 22
17 29 40 5 20 13 40 17 43 4 4 4 21 1 38 -4 21 -3 28 5 23 7 -4 12 -13 12 -20
0 -8 21 -32 48 -56 77 -69 122 -113 122 -120 0 -4 9 -17 20 -30 26 -30 25 -48
-3 -59 -25 -10 -57 -65 -57 -98 0 -11 -8 -28 -18 -39 -20 -22 -103 -190 -121
-246 -7 -21 -26 -49 -43 -63 -38 -32 -59 -74 -89 -179 -23 -79 -23 -80 -6
-180 9 -56 17 -122 17 -147 0 -42 4 -50 45 -88 24 -22 51 -41 59 -41 7 0 17
-6 20 -12 3 -7 14 -25 24 -40 9 -14 31 -50 49 -80 17 -29 44 -66 60 -83 34
-36 83 -101 83 -110 0 -3 11 -23 25 -43 14 -20 25 -48 25 -61 0 -27 -37 -111
-49 -111 -10 0 -41 -72 -43 -101 -1 -13 2 -34 6 -46 5 -14 3 -23 -3 -23 -6 0
-11 -9 -11 -19 0 -16 10 -21 56 -27 55 -6 56 -6 95 35 22 22 47 41 55 41 17 0
53 38 54 57 0 6 32 43 72 82 69 67 72 70 55 89 -9 10 -17 24 -17 31 0 17 -80
111 -95 111 -12 0 -31 26 -86 115 -26 41 -56 112 -104 245 -15 41 -38 85 -52
98 l-25 22 21 33 c12 17 26 44 33 58 11 25 13 26 106 24 75 -1 97 -5 107 -18
23 -31 147 -115 179 -121 19 -4 52 -25 82 -54 102 -100 194 -199 194 -210 0
-26 -24 -61 -49 -70 -14 -6 -35 -13 -46 -18 -30 -11 -159 -12 -166 -1 -12 17
-36 0 -42 -30 -5 -24 -14 -32 -53 -44 -95 -29 -55 -58 47 -34 79 18 84 18 70
2 -15 -19 -7 -24 34 -19 34 4 45 15 25 27 -18 11 -10 25 15 25 13 0 41 9 62
20 21 10 60 20 86 21 41 2 51 7 65 31 22 37 42 36 42 -2 0 -16 -4 -30 -10 -30
-5 0 -10 5 -10 11 0 8 -5 8 -15 -1 -8 -7 -12 -16 -9 -21 3 -5 -10 -9 -28 -9
-27 0 -37 -6 -52 -32 -11 -18 -27 -41 -37 -51 -25 -24 -35 -66 -20 -89 6 -10
9 -23 6 -28 -3 -5 -2 -11 3 -14 8 -4 165 22 252 43 85 21 155 31 211 31 30 0
60 5 66 11 9 9 19 9 40 1 42 -16 108 -2 108 23 0 19 -6 20 -103 17 l-104 -3 7
23 c10 32 10 30 3 65 -5 22 -21 41 -53 64 -25 18 -45 37 -45 43 0 5 -12 23
-27 38 -26 27 -30 42 -32 116 -1 42 -21 32 -21 -10 0 -25 -3 -28 -14 -19 -21
17 -27 51 -10 58 20 8 17 34 -5 40 -25 6 -36 86 -32 243 2 118 33 276 52 264
5 -3 7 -9 4 -13 -2 -5 -11 -66 -18 -137 -16 -145 -12 -304 8 -304 8 0 11 22 9
78 -2 71 10 227 37 477 6 55 13 123 14 150 2 28 12 82 23 122 10 39 16 77 12
83 -5 8 -10 2 -14 -14 -3 -14 -11 -26 -16 -26 -10 0 -7 41 9 120 7 32 -1 181
-15 305 l-6 51 49 12 c26 6 74 14 105 18 60 7 65 4 72 -42 2 -10 8 -20 15 -22
9 -3 11 7 6 42 -5 28 -3 46 2 46 16 0 31 -128 26 -212 -3 -47 -1 -78 5 -78 10
0 22 45 23 89 0 26 0 26 10 3 5 -13 11 -50 14 -83 6 -76 14 -109 27 -109 7 0
9 22 5 60 -5 55 2 75 18 50 13 -20 15 -211 3 -233 -16 -32 -57 -181 -69 -257
-5 -36 -13 -72 -15 -80 -14 -38 -12 -297 2 -360 23 -98 23 -100 13 -100 -5 0
-9 9 -9 19 0 11 -4 23 -10 26 -16 10 -12 -25 16 -163 15 -70 30 -145 34 -167
20 -96 31 -120 77 -153 54 -40 82 -30 33 11 -17 15 -37 30 -44 34 -8 5 -21 42
-31 83 -10 41 -24 102 -32 135 -27 111 -30 135 -23 140 5 3 13 -12 20 -32 6
-21 16 -56 23 -78 6 -22 21 -54 33 -72 12 -17 24 -50 28 -73 8 -54 42 -103 86
-126 19 -11 51 -29 70 -42 29 -20 46 -23 110 -21 57 1 83 -2 102 -15 24 -16
38 -16 123 -1 11 2 23 4 27 4 4 1 5 8 1 17 -5 14 -17 16 -70 11 -49 -4 -67 -1
-79 10 -8 9 -35 16 -62 17 -44 1 -47 3 -50 29 -3 26 -1 28 25 27 42 -3 53 -1
53 10 0 6 -11 10 -24 10 -13 0 -27 7 -30 16 -10 27 -105 12 -131 -21 -21 -25
-45 -34 -45 -16 0 5 8 12 19 16 26 8 54 42 46 55 -5 8 -11 8 -19 1 -9 -7 -16
-7 -23 0 -8 8 -16 2 -29 -20 -22 -37 -25 -38 -44 -9 -17 25 -23 48 -45 158
-14 70 -47 189 -66 235 -12 30 -17 226 -7 292 4 32 12 100 18 152 6 52 17 108
26 125 9 17 29 71 45 119 28 84 29 93 24 235 -5 158 -18 318 -29 342 -5 12 13
21 77 42 46 16 93 28 104 28 52 0 69 88 38 200 -8 30 -20 82 -26 115 -26 153
-30 183 -33 225 -4 52 -26 100 -66 143 -23 25 -36 29 -86 32 -36 2 -62 -2 -66
-9 -19 -30 -42 47 -58 199 -5 44 -13 100 -19 125 -5 25 -10 78 -11 117 0 71 0
73 28 78 15 3 45 14 67 24 22 10 56 24 75 32 19 7 42 18 50 24 29 22 116 62
185 84 39 13 83 29 98 37 16 8 47 17 70 20 23 4 51 14 62 24 11 9 58 32 105
50 47 18 108 43 135 55 28 12 76 32 108 44 31 11 83 31 115 43 31 11 96 38
144 60 94 42 174 61 198 48 9 -6 21 -3 31 6 15 13 17 10 22 -33 3 -26 2 -52
-3 -58 -13 -18 -39 -108 -60 -210 -10 -55 -28 -138 -39 -185 -22 -91 -27 -205
-11 -215 6 -3 10 -14 10 -23 0 -17 85 -100 133 -129 15 -10 27 -21 27 -25 0
-4 8 -8 18 -8 9 -1 37 -25 61 -55 27 -33 58 -59 77 -65 51 -17 56 -30 32 -79
-32 -64 -34 -163 -8 -291 51 -242 54 -324 17 -465 -15 -60 -35 -144 -43 -185
-27 -133 -46 -183 -86 -231 -29 -34 -38 -54 -38 -81 0 -38 21 -68 46 -68 8 0
14 -7 14 -15 0 -8 -4 -15 -9 -15 -22 0 -60 -122 -81 -255 -26 -174 -47 -264
-71 -311 -16 -31 -16 -40 -5 -56 15 -21 12 -38 -28 -160 -40 -125 -84 -176
-167 -197 -26 -7 -53 -19 -60 -27 -14 -17 -49 -18 -83 -3 -32 15 -66 6 -105
-27 -39 -33 -39 -58 0 -95 l31 -29 -25 0 c-14 0 -29 4 -32 10 -8 13 -92 13
-100 -1 -4 -6 2 -13 14 -16 12 -3 21 -11 21 -19 0 -11 23 -13 123 -10 67 3
158 9 201 15 64 8 81 8 90 -3 6 -8 36 -17 66 -20 105 -12 280 -19 280 -11 0 5
-7 16 -15 26 -11 11 4 7 44 -13 36 -18 66 -26 73 -22 7 5 52 7 100 6 65 -1 87
2 91 12 5 11 -17 14 -114 13 -73 -1 -123 3 -130 10 -7 7 3 12 35 17 32 5 46
12 46 23 0 14 -10 15 -66 10 -55 -5 -65 -4 -60 8 8 22 -31 38 -80 32 -43 -4
-44 -4 -44 26 0 17 -9 50 -21 74 l-20 42 35 32 c20 17 36 35 36 40 0 6 10 20
21 32 56 58 139 203 139 242 0 7 17 24 38 36 20 13 39 26 42 29 3 4 15 12 27
19 12 6 30 27 39 46 11 24 23 35 38 35 28 0 85 21 119 43 14 9 33 17 40 17 8
0 31 11 51 25 43 29 54 31 62 10 3 -8 22 -17 41 -21 19 -4 37 -14 40 -23 26
-82 114 -224 173 -279 19 -18 70 -122 70 -143 0 -7 -8 -9 -22 -4 -109 34 -185
26 -206 -20 -17 -36 -15 -56 8 -85 37 -47 23 -70 -43 -70 -49 -1 -140 -25
-145 -38 -5 -15 20 -16 34 -2 16 16 144 25 153 11 5 -7 52 -14 129 -18 109 -5
122 -4 122 10 0 25 19 21 31 -7 10 -21 20 -24 86 -30 64 -6 78 -4 107 13 27
17 42 19 77 13 24 -4 81 -6 127 -4 79 3 83 5 80 25 -3 21 -7 22 -123 22 l-120
0 -1 61 c-2 83 -31 134 -77 134 -26 0 -42 22 -51 70 -4 19 -14 50 -22 68 -16
34 -37 111 -48 173 -3 19 -15 53 -26 74 -24 47 -25 61 -5 68 12 5 11 14 -5 63
-11 31 -20 70 -20 86 0 16 -18 68 -41 115 -22 46 -38 91 -35 99 3 8 19 14 36
14 35 0 48 21 32 53 -31 67 -42 125 -51 272 -15 232 -42 370 -90 462 -41 76
-49 212 -22 338 6 28 15 68 19 90 5 22 8 94 8 160 -1 113 -3 123 -29 170 -16
28 -42 62 -58 77 -36 34 -36 44 1 63 16 8 40 27 54 41 31 34 60 142 51 191 -3
21 -7 63 -9 93 -3 59 -24 115 -43 115 -7 0 -18 6 -24 13 -18 17 -39 15 -39 -3
0 -8 5 -15 10 -15 6 0 10 -5 10 -12 0 -7 -6 -6 -17 3 -10 8 -31 21 -46 29 -26
13 -27 17 -22 59 4 25 11 60 15 76 5 17 12 53 16 80 3 28 13 60 20 72 8 13 30
62 50 110 19 48 43 97 52 108 28 31 70 98 80 125 5 14 5 40 0 64 -8 35 -6 42
13 57 31 23 32 62 3 90 -13 12 -24 28 -24 36 0 7 -4 13 -10 13 -5 0 -10 7 -10
15 0 9 -16 47 -35 85 -20 39 -44 92 -54 118 -11 26 -37 85 -59 132 -57 121
-102 227 -102 239 0 6 -16 46 -36 88 -19 43 -39 87 -43 98 -5 11 -29 63 -55
116 -25 53 -46 99 -46 103 0 4 -9 28 -21 54 -28 66 -32 74 -79 192 -39 97
-103 240 -133 300 -16 31 -54 35 -117 10z m-2190 -348 c0 -37 -20 -85 -42
-101 -78 -55 -163 -76 -187 -47 -14 17 1 31 47 41 21 4 57 29 95 66 64 61 87
72 87 41z m1480 -10 c0 -13 -12 -22 -22 -16 -10 6 -1 24 13 24 5 0 9 -4 9 -8z
m705 -64 c15 -40 33 -87 41 -105 26 -57 74 -178 74 -185 0 -3 18 -45 40 -92
22 -47 40 -88 40 -91 0 -3 17 -42 39 -88 21 -45 46 -104 55 -132 10 -27 21
-54 25 -60 4 -5 18 -37 31 -70 12 -33 29 -74 36 -92 8 -17 14 -36 14 -43 0 -7
9 -29 19 -49 29 -54 52 -121 46 -131 -3 -5 -25 -12 -50 -16 -24 -3 -49 -12
-55 -19 -6 -7 -48 -28 -93 -46 -45 -18 -95 -41 -112 -51 -16 -10 -38 -18 -48
-18 -11 0 -31 -8 -45 -19 -15 -10 -42 -21 -61 -25 -19 -3 -42 -12 -50 -19 -9
-7 -56 -28 -106 -46 -49 -18 -103 -38 -120 -46 -16 -7 -64 -25 -105 -39 -41
-15 -90 -34 -108 -42 -18 -8 -37 -14 -43 -14 -6 0 -25 -11 -43 -25 -18 -14
-38 -25 -43 -25 -6 0 -16 -7 -24 -16 -7 -9 -21 -13 -35 -10 -21 6 -105 -22
-154 -51 -14 -8 -33 -17 -42 -20 -10 -3 -18 -9 -18 -14 0 -5 -8 -9 -18 -9 -9
0 -34 -9 -55 -20 -20 -11 -42 -20 -48 -20 -6 0 -23 -8 -37 -18 -15 -10 -46
-24 -70 -32 -24 -7 -48 -22 -53 -32 -6 -10 -14 -16 -19 -13 -8 5 -59 -11 -127
-41 -17 -8 -34 -14 -39 -14 -4 0 -15 -6 -23 -14 -9 -8 -45 -23 -81 -35 -100
-31 -134 -45 -163 -64 -15 -10 -41 -20 -57 -24 -17 -3 -33 -10 -36 -14 -3 -5
-15 -9 -28 -9 -12 0 -26 -3 -29 -7 -7 -6 -56 -25 -157 -60 -25 -8 -53 -22 -62
-30 -16 -14 -19 -14 -37 8 l-20 24 -12 -33 c-7 -22 -16 -31 -26 -28 -7 3 -16
-1 -19 -9 -4 -8 -14 -15 -23 -15 -9 0 -28 -11 -43 -24 -14 -14 -28 -23 -31
-20 -2 3 -27 -4 -56 -15 -28 -12 -51 -18 -51 -14 0 3 -8 0 -17 -8 -10 -8 -31
-21 -48 -29 -16 -8 -34 -16 -39 -19 -5 -2 -6 1 -2 7 11 19 -9 14 -38 -9 -14
-11 -26 -17 -26 -14 0 4 -7 1 -17 -6 -9 -8 -24 -13 -35 -11 -10 2 -18 -1 -18
-6 0 -12 -69 -44 -81 -37 -5 4 -9 2 -9 -4 0 -13 -87 -56 -131 -66 -19 -4 -50
-16 -69 -26 -19 -11 -40 -19 -47 -19 -8 0 -21 -4 -31 -9 -91 -47 -142 -70
-172 -76 -19 -4 -51 -17 -70 -28 -32 -20 -138 -61 -187 -74 -14 -3 -23 -1 -23
6 0 6 -4 11 -10 11 -5 0 -10 -8 -10 -18 0 -18 -35 -35 -195 -96 -33 -13 -81
-33 -107 -45 -26 -11 -52 -21 -57 -21 -10 0 -75 -27 -131 -55 -14 -7 -62 -25
-107 -40 -46 -14 -83 -30 -83 -34 0 -4 -31 -17 -70 -30 -38 -12 -70 -26 -70
-30 0 -9 -39 -26 -160 -71 -47 -17 -107 -42 -135 -55 -27 -13 -75 -34 -105
-48 -30 -14 -81 -37 -113 -52 -53 -25 -121 -47 -187 -62 -14 -3 -27 -9 -30
-12 -9 -11 -49 -31 -62 -31 -7 0 -35 -11 -63 -25 -27 -13 -58 -25 -67 -25 -9
0 -20 -4 -23 -10 -9 -14 -52 -12 -59 3 -3 6 -4 4 -3 -7 2 -18 -19 -29 -153
-76 -19 -7 -57 -23 -85 -36 -27 -13 -86 -35 -130 -50 -73 -24 -184 -70 -227
-94 -10 -6 -27 -10 -38 -10 -11 0 -20 -4 -20 -10 0 -5 -9 -10 -19 -10 -11 0
-23 -4 -26 -10 -3 -5 -25 -14 -47 -21 -23 -6 -64 -22 -92 -35 -27 -13 -56 -24
-65 -24 -8 0 -42 -13 -75 -28 -216 -102 -327 -152 -334 -152 -7 0 -140 -52
-177 -70 -95 -45 -217 -100 -221 -100 -2 0 -42 -18 -89 -40 -121 -57 -127 -56
-160 35 -10 28 -30 75 -44 105 -15 30 -37 84 -50 120 -13 36 -32 84 -42 107
-11 24 -19 49 -19 57 0 8 -4 18 -10 21 -5 3 -15 25 -21 48 -6 23 -14 44 -18
47 -12 10 -31 50 -31 67 0 10 -7 31 -15 47 -8 15 -12 32 -9 37 3 5 1 9 -4 9
-5 0 -12 19 -16 42 -4 22 -10 46 -14 52 -3 6 -14 31 -23 56 -38 103 -128 295
-145 307 -16 12 -16 13 -1 13 11 0 20 11 23 30 9 42 31 54 247 134 38 14 109
46 159 71 49 25 100 45 112 45 12 0 30 6 41 14 11 7 52 23 91 35 38 12 79 27
90 34 10 8 42 21 69 31 28 10 64 24 80 31 17 7 55 23 85 35 30 12 78 32 105
44 74 34 147 64 175 72 14 3 31 11 39 17 7 6 27 17 45 23 120 46 171 66 246
98 116 49 168 75 175 87 4 5 19 9 34 9 15 0 36 7 47 15 10 8 29 15 40 15 12 0
27 7 34 15 7 8 20 15 29 15 24 0 78 22 161 64 132 68 149 76 160 76 5 0 29 9
53 19 23 11 58 24 77 29 80 23 201 72 269 111 40 22 81 41 91 41 10 0 22 5 25
10 3 6 16 10 29 10 12 0 31 7 42 15 10 8 38 15 62 15 23 0 42 4 42 8 0 15 92
43 105 32 16 -13 43 -3 50 20 5 16 111 70 138 70 7 0 48 18 92 39 44 22 115
52 158 67 44 15 81 33 84 41 3 7 18 13 33 13 34 0 231 81 290 120 30 19 111
51 160 62 47 11 52 10 74 -11 l24 -22 22 33 c31 44 49 58 78 58 13 0 36 7 50
15 44 23 142 65 155 65 7 0 21 7 31 15 11 8 25 15 32 15 7 0 65 25 128 55 63
30 126 55 140 55 14 0 27 4 31 9 3 5 29 17 58 27 46 15 110 43 263 115 22 10
46 19 52 19 7 0 29 7 50 17 20 9 64 26 97 38 81 30 141 54 260 105 99 41 202
82 260 102 17 6 50 19 75 30 76 33 81 36 206 88 67 27 125 50 128 50 3 0 40
16 82 35 41 19 83 35 93 35 9 0 53 17 97 38 43 21 105 46 136 56 32 10 60 22
64 27 3 5 13 9 22 9 16 0 182 68 310 126 29 13 56 24 60 24 4 0 50 18 102 39
52 21 140 56 195 76 55 20 104 41 110 46 25 24 44 8 70 -63z m-4365 -94 c0
-32 -9 -77 -27 -134 -3 -8 -6 -46 -7 -85 -1 -38 -6 -70 -11 -70 -9 0 -8 134 1
171 3 12 1 25 -4 28 -7 4 -7 18 -1 41 6 20 7 44 4 55 -5 17 3 24 38 29 4 0 7
-15 7 -35z m779 19 c0 -10 -4 -36 -8 -58 -9 -40 -9 -39 -10 18 0 32 3 57 9 57
6 0 10 -8 9 -17z m1408 -21 c3 -23 0 -32 -10 -32 -15 0 -30 48 -20 63 10 17
27 0 30 -31z m-1437 -22 c0 -10 -4 -21 -9 -24 -12 -8 -22 20 -15 39 8 19 24 9
24 -15z m1080 -36 c0 -8 -4 -12 -10 -9 -5 3 -10 10 -10 16 0 5 5 9 10 9 6 0
10 -7 10 -16z m-1080 -12 c0 -13 -12 -22 -22 -16 -10 6 -1 24 13 24 5 0 9 -4
9 -8z m2490 -23 c0 -5 -4 -9 -10 -9 -5 0 -10 7 -10 16 0 8 5 12 10 9 6 -3 10
-10 10 -16z m-852 -9 c10 -17 9 -23 -8 -40 -23 -23 -25 -36 -7 -43 8 -3 5 -10
-10 -23 -13 -11 -28 -42 -36 -72 -13 -51 -31 -81 -43 -70 -3 4 -1 15 5 26 5
10 18 63 27 118 9 54 21 105 26 112 15 18 31 15 46 -8z m-1632 -98 c-11 -10
-14 3 -8 33 l7 30 3 -28 c2 -16 1 -31 -2 -35z m-2176 34 c0 -9 -20 -16 -62
-20 -35 -4 -67 -11 -73 -15 -38 -28 -211 -49 -232 -28 -16 16 22 31 93 38 41
4 81 12 87 17 7 5 43 10 82 11 38 2 72 4 74 7 10 9 31 3 31 -10z m1285 -6 c4
-6 2 -16 -3 -23 -33 -42 -17 -102 32 -122 28 -12 33 -18 29 -40 -3 -15 -1 -25
6 -25 6 0 11 8 11 17 0 17 37 63 52 63 4 0 -3 -18 -17 -40 -14 -23 -23 -45
-20 -49 19 -32 -36 -59 -82 -39 -39 17 -61 41 -83 94 -29 67 -26 92 17 136 39
40 48 44 58 28z m985 -46 c0 -8 -9 -14 -20 -14 -18 0 -19 3 -10 20 12 22 30
18 30 -6z m-520 6 c0 -5 -4 -10 -10 -10 -5 0 -10 5 -10 10 0 6 5 10 10 10 6 0
10 -4 10 -10z m-1730 -10 c0 -5 -7 -10 -15 -10 -8 0 -15 5 -15 10 0 6 7 10 15
10 8 0 15 -4 15 -10z m2059 -4 c14 -17 -5 -26 -58 -26 -20 0 -42 -5 -49 -12
-9 -9 -15 -9 -23 -1 -8 8 0 17 32 32 52 24 82 26 98 7z m-2151 -21 c-16 -13
-28 -29 -28 -35 0 -5 -4 -10 -10 -10 -5 0 -10 13 -10 29 0 30 11 38 55 40 18
0 17 -2 -7 -24z m1682 15 c0 -5 -7 -10 -15 -10 -8 0 -15 -7 -15 -15 0 -19 14
-19 30 0 7 8 16 12 21 9 14 -8 10 -24 -6 -24 -8 0 -15 -4 -15 -10 0 -14 -27
-13 -32 1 -2 7 -30 11 -71 11 -37 0 -67 4 -67 9 0 5 19 9 43 9 23 1 56 7 72
15 37 16 55 18 55 5z m624 -15 c17 -13 18 -15 2 -21 -16 -6 -46 11 -46 27 0
13 23 10 44 -6z m900 0 c-4 -8 -10 -15 -15 -15 -4 0 -6 7 -3 15 4 8 10 15 15
15 4 0 6 -7 3 -15z m176 0 c0 -8 -99 -11 -160 -5 -3 0 1 4 8 8 19 13 152 10
152 -3z m-3445 -65 c10 -30 20 -86 21 -125 2 -38 9 -92 15 -119 7 -27 9 -75 5
-110 -3 -33 -2 -78 3 -99 7 -30 6 -39 -7 -46 -13 -7 -14 -26 -7 -137 4 -71 9
-211 10 -311 2 -100 6 -186 10 -192 14 -24 25 -9 25 36 0 37 3 44 12 35 8 -8
13 -53 14 -135 2 -134 11 -217 24 -231 13 -13 23 18 18 49 -3 14 -2 25 2 25
10 0 22 -143 14 -163 -3 -9 -10 -14 -15 -11 -5 3 -7 -1 -4 -8 3 -8 -15 -23
-48 -39 l-52 -26 0 83 c0 74 -7 106 -19 93 -3 -3 -6 -46 -7 -97 -2 -62 -7 -96
-16 -103 -16 -14 -14 -24 -19 105 -2 60 -8 114 -13 120 -6 7 -10 44 -9 83 0
72 -5 93 -23 93 -7 0 -8 -33 -4 -92 3 -51 8 -139 10 -195 3 -93 2 -103 -14
-103 -9 0 -22 -12 -28 -27 -11 -27 -11 -27 -12 14 -1 37 1 41 20 36 22 -6 22
-5 15 133 -6 134 -12 202 -36 454 -7 63 -13 146 -15 184 l-4 68 31 -6 c17 -3
41 -6 53 -6 16 0 25 -8 29 -25 8 -33 25 -24 19 9 -6 31 -73 66 -126 66 l-37 0
-2 58 c-4 141 -3 344 3 348 12 7 21 -100 19 -228 -1 -76 2 -128 8 -128 11 0
22 80 22 158 0 28 4 52 9 52 12 0 16 -16 31 -107 7 -40 16 -73 21 -73 12 0 11
34 -1 85 -30 120 -45 357 -36 557 1 41 19 53 23 16 5 -40 24 -162 29 -180 3
-10 10 -18 16 -18 7 0 9 28 4 88 -4 48 -7 94 -8 102 0 8 -5 20 -10 27 -11 14
0 39 12 26 4 -4 16 -33 25 -63z m1825 49 c0 -11 -27 -12 -34 0 -3 4 -3 11 0
14 8 8 34 -3 34 -14z m639 12 c7 -5 9 -11 5 -14 -10 -5 -54 9 -54 18 0 8 34 6
49 -4z m726 0 c3 -5 1 -12 -5 -16 -5 -3 -10 1 -10 9 0 18 6 21 15 7z m-2935
-11 c12 -8 11 -10 -7 -10 -13 0 -23 5 -23 10 0 13 11 13 30 0z m2838 3 c-10
-2 -26 -2 -35 0 -10 3 -2 5 17 5 19 0 27 -2 18 -5z m-592 -38 c13 -7 39 -10
57 -7 54 10 151 3 162 -11 6 -7 17 -16 26 -19 21 -8 31 -73 20 -133 -10 -52
-3 -203 10 -210 16 -11 36 24 32 57 -6 51 -3 191 4 213 4 15 9 10 24 -28 14
-35 16 -53 9 -73 -16 -42 -12 -71 11 -77 11 -3 27 -3 35 0 13 5 12 8 -2 24
-16 18 -16 20 -1 37 19 21 22 63 6 79 -11 11 -14 69 -8 119 3 22 7 22 190 22
102 0 196 3 208 7 12 3 39 4 61 0 l39 -7 19 -80 c20 -89 13 -138 -24 -165 -26
-19 -32 -16 -39 17 -4 17 -24 49 -45 71 l-38 41 -47 -17 c-27 -11 -54 -30 -67
-49 -12 -17 -23 -33 -24 -35 -2 -2 -14 -5 -27 -6 -14 -2 -35 -9 -48 -16 -34
-18 -129 -116 -129 -133 0 -18 -63 -39 -101 -34 -16 3 -27 2 -24 0 7 -7 -45
-33 -54 -27 -4 2 -14 -5 -21 -16 -8 -10 -20 -19 -28 -19 -14 0 -112 -97 -112
-111 0 -16 -34 -9 -60 11 -14 11 -31 20 -39 20 -8 0 -31 5 -50 11 -110 34
-134 68 -80 109 18 14 43 35 55 48 12 12 31 22 42 22 45 0 48 65 5 113 -13 13
-14 22 -5 40 17 35 21 76 10 114 -11 41 -3 54 16 27 21 -28 33 -8 14 24 -21
35 -63 46 -94 25 l-24 -15 30 -35 c36 -40 42 -88 10 -78 -12 4 -20 2 -20 -5 0
-7 9 -14 20 -17 28 -7 19 -29 -10 -25 -19 2 -21 -1 -16 -20 3 -13 6 -33 6 -46
0 -20 2 -21 20 -10 17 11 22 10 30 -2 6 -8 9 -26 8 -40 -3 -20 -8 -25 -30 -23
-23 1 -29 -4 -40 -33 -12 -35 -26 -42 -45 -23 -12 12 -33 4 -33 -12 0 -5 8 -9
18 -9 14 -1 12 -5 -10 -25 -16 -13 -28 -29 -28 -35 0 -6 23 -33 50 -60 42 -41
55 -49 75 -44 15 4 43 -1 68 -11 91 -38 141 -54 146 -49 3 3 -2 12 -12 19 -17
12 -16 15 11 41 16 16 48 42 73 59 24 16 46 32 49 35 3 3 18 14 34 24 25 16
33 17 68 5 52 -17 74 -56 58 -104 -6 -19 -14 -35 -18 -37 -5 -2 -23 -24 -41
-50 -19 -26 -42 -50 -52 -53 -10 -4 -27 -17 -37 -29 -10 -13 -33 -31 -52 -41
-19 -10 -45 -26 -58 -36 -36 -28 -178 -25 -281 6 -45 13 -94 31 -109 39 -15 8
-57 29 -95 46 -37 17 -79 43 -93 58 l-26 27 6 -35 c3 -19 18 -45 32 -58 36
-32 8 -39 -47 -13 -23 12 -44 19 -46 17 -8 -8 10 -36 33 -51 32 -21 30 -29 -8
-47 -18 -9 -64 -31 -103 -49 -38 -19 -71 -37 -73 -41 -2 -5 -13 -6 -25 -3 -15
4 -32 -3 -51 -20 -16 -14 -36 -26 -45 -26 -9 -1 -28 -3 -43 -5 -27 -3 -28 -1
-29 44 0 26 -2 80 -3 120 -2 65 -1 72 16 72 11 0 16 5 12 11 -4 7 2 9 16 7 37
-5 34 20 -4 39 -40 19 -44 34 -21 98 8 22 15 43 15 48 0 15 -31 6 -37 -10 -4
-10 -22 -33 -40 -52 l-32 -33 -93 5 c-206 13 -215 19 -201 135 6 43 17 94 26
113 8 19 18 57 21 84 7 54 36 103 58 96 7 -3 39 -7 71 -9 l58 -4 -7 -41 c-4
-23 -6 -54 -6 -69 1 -25 -23 -57 -72 -96 -19 -15 -22 -66 -3 -59 6 2 10 13 9
23 -3 15 2 12 21 -10 25 -29 57 -31 57 -4 0 27 41 50 76 45 19 -3 34 -2 34 2
0 5 23 11 51 14 28 4 56 10 63 15 14 12 104 24 181 25 44 1 74 -5 112 -23 29
-13 55 -21 58 -18 14 14 -12 39 -51 49 -50 13 -63 24 -35 32 24 6 168 -65 187
-92 9 -12 23 -21 33 -21 11 0 21 -7 25 -15 6 -17 26 -20 26 -4 0 15 -45 57
-117 107 -34 24 -42 46 -20 56 10 5 10 7 0 12 -8 3 -13 25 -13 51 l0 46 41 -6
41 -5 -6 30 c-5 24 -1 35 15 49 19 17 20 19 5 25 -13 5 -14 9 -5 20 17 20 -7
18 -60 -6 -78 -36 -62 -6 18 33 54 26 54 26 68 7 15 -21 77 -28 88 -10 3 6 15
10 26 10 23 0 61 20 72 38 10 15 51 9 93 -13z m-471 5 c21 0 26 -3 15 -9 -19
-10 -102 -2 -94 10 3 5 15 7 27 5 12 -3 36 -5 52 -6z m-2157 -85 c-2 -90 -11
-110 -22 -47 -11 70 -7 132 9 132 12 0 15 -15 13 -85z m1197 60 c6 -2 -11 -4
-37 -4 -27 -1 -48 3 -48 7 0 7 62 5 85 -3z m105 -5 c11 -7 4 -10 -27 -10 -23
0 -45 5 -48 10 -8 13 55 13 75 0z m110 0 c0 -5 -11 -10 -24 -10 -14 0 -28 5
-31 10 -4 6 7 10 24 10 17 0 31 -4 31 -10z m-1140 -16 c0 -8 -5 -12 -10 -9 -6
4 -8 11 -5 16 9 14 15 11 15 -7z m560 7 c0 -14 -113 -29 -227 -31 -71 -1 -103
2 -103 10 0 7 21 11 58 11 95 0 234 8 240 14 9 8 32 6 32 -4z m1286 -7 c-3 -9
-13 -64 -22 -122 -9 -59 -22 -111 -28 -117 -7 -5 -15 -18 -19 -27 -5 -13 -14
-16 -34 -12 -15 3 -47 -1 -70 -10 -23 -8 -50 -12 -61 -9 -10 2 -37 -5 -58 -16
-28 -15 -57 -21 -107 -21 l-69 0 8 43 c4 23 7 85 8 137 1 82 4 100 23 123 21
28 23 28 185 36 262 13 251 13 244 -5z m84 -5 c0 -5 -4 -9 -10 -9 -5 0 -10 7
-10 16 0 8 5 12 10 9 6 -3 10 -10 10 -16z m1439 -31 c-1 -37 -2 -39 -9 -18
-12 36 -12 60 0 60 6 0 10 -19 9 -42z m-3209 12 c0 -5 -2 -10 -4 -10 -3 0 -8
5 -11 10 -3 6 -1 10 4 10 6 0 11 -4 11 -10z m3159 -57 c14 -69 14 -83 1 -83
-5 0 -10 15 -10 33 0 17 -4 49 -9 70 -5 20 -5 37 -1 37 4 0 12 -26 19 -57z
m-2162 -35 c-8 -13 -22 -59 -31 -103 -10 -44 -26 -107 -37 -141 -19 -59 -23
-174 -6 -174 4 0 7 -6 7 -14 0 -8 15 -23 34 -34 l35 -20 -15 -54 c-7 -29 -14
-73 -14 -98 0 -66 -14 -103 -52 -141 -44 -45 -50 -102 -17 -156 13 -21 24 -43
25 -50 2 -12 -63 -40 -141 -62 -22 -6 -53 -20 -70 -31 -33 -22 -71 -26 -77 -9
-2 7 -18 -2 -35 -20 -31 -31 -50 -41 -37 -20 4 7 2 10 -5 8 -7 -3 -11 -8 -9
-12 10 -22 -154 -85 -176 -68 -6 4 -22 4 -36 0 l-25 -7 25 -1 c20 -1 22 -3 10
-11 -8 -5 -26 -10 -40 -10 -14 0 -36 -7 -48 -16 -13 -9 -30 -13 -38 -10 -8 3
-26 -4 -39 -16 -29 -25 -121 -65 -162 -70 -22 -2 -28 2 -34 27 -10 36 -3 194
16 332 14 110 6 163 -34 208 -9 11 -22 43 -29 70 -6 28 -20 91 -31 140 -18 78
-34 280 -41 485 0 30 -5 59 -11 64 -19 20 -10 56 17 66 29 11 214 13 459 3
l170 -6 18 -91 c20 -104 21 -133 7 -138 -6 -2 -13 -42 -17 -90 -5 -78 -4 -88
12 -94 35 -14 45 7 51 106 8 132 8 138 -1 204 -7 48 -6 58 6 54 18 -6 28 -62
29 -158 0 -80 15 -123 42 -128 15 -3 17 6 11 85 -3 48 -9 106 -14 128 -16 67
-19 118 -10 129 6 7 73 12 183 14 95 2 175 6 178 9 12 12 10 -58 -3 -79z m763
46 c0 -8 -5 -12 -10 -9 -6 4 -8 11 -5 16 9 14 15 11 15 -7z m1457 -56 c-3 -7
-5 -2 -5 12 0 14 2 19 5 13 2 -7 2 -19 0 -25z m-3442 -39 c-9 -29 -25 -6 -25
36 l0 29 16 -22 c9 -13 13 -31 9 -43z m3822 45 c-3 -3 -12 -4 -19 -1 -8 3 -5
6 6 6 11 1 17 -2 13 -5z m-4030 -91 c-3 -10 -5 -2 -5 17 0 19 2 27 5 18 2 -10
2 -26 0 -35z m250 5 c-3 -7 -5 -2 -5 12 0 14 2 19 5 13 2 -7 2 -19 0 -25z
m3145 7 c8 -19 8 -31 -1 -52 l-12 -27 -24 30 c-33 40 -33 74 0 74 17 0 29 -8
37 -25z m-125 -37 c37 -22 72 -56 73 -70 0 -5 -15 -8 -32 -8 -59 0 -111 -25
-137 -64 -23 -34 -29 -37 -65 -34 -49 4 -56 20 -22 51 14 14 26 29 26 36 0 6
9 16 20 23 11 7 20 16 20 19 0 13 55 69 67 69 6 0 29 -10 50 -22z m-3260 -35
c-3 -10 -5 -4 -5 12 0 17 2 24 5 18 2 -7 2 -21 0 -30z m261 -123 c0 -61 -2
-68 -8 -40 -12 50 -20 187 -12 195 10 10 21 -69 20 -155z m-245 58 c3 -21 2
-38 -4 -38 -5 0 -9 19 -9 42 0 49 5 47 13 -4z m6407 22 c0 -5 -5 -10 -11 -10
-5 0 -7 5 -4 10 3 6 8 10 11 10 2 0 4 -4 4 -10z m-6520 -30 c0 -5 -5 -10 -11
-10 -5 0 -7 5 -4 10 3 6 8 10 11 10 2 0 4 -4 4 -10z m340 -294 c6 -65 9 -120
7 -123 -8 -8 -26 96 -33 182 -9 129 14 78 26 -59z m-60 72 c-1 -26 -3 -30 -10
-16 -6 9 -7 23 -4 32 9 25 14 19 14 -16z m6528 -30 c-3 -7 -11 -13 -18 -13 -7
0 -15 6 -17 13 -3 7 4 12 17 12 13 0 20 -5 18 -12z m-5036 -78 c-2 -41 -6 -78
-10 -82 -6 -6 -80 8 -89 16 -4 3 18 129 23 138 3 5 22 8 42 6 l37 -3 -3 -75z
m-1472 0 c0 -30 26 -139 35 -148 2 -3 8 6 13 19 8 21 10 20 16 -16 9 -52 28
-105 37 -105 10 0 53 -90 46 -96 -3 -3 -17 11 -32 30 -33 43 -40 44 -53 8 -8
-22 -5 -38 9 -70 14 -31 17 -47 9 -66 -10 -29 -3 -59 13 -53 6 2 16 24 24 50
7 26 17 47 21 47 4 0 6 -34 4 -75 -3 -53 -1 -75 8 -75 7 0 5 -6 -5 -16 -10
-11 -15 -32 -14 -63 2 -68 0 -86 -9 -75 -12 13 -32 87 -32 119 0 23 -2 25 -14
15 -8 -6 -17 -26 -19 -43 -2 -18 -5 18 -5 79 -1 72 -8 127 -18 158 -16 47 -16
140 1 179 6 16 4 18 -16 15 -23 -3 -24 1 -30 62 -11 105 -10 162 1 155 6 -3
10 -19 10 -35z m110 -128 c0 -20 -4 -31 -10 -27 -5 3 -10 25 -10 48 0 31 3 38
10 27 5 -8 10 -30 10 -48z m1270 18 c0 -5 -4 -10 -9 -10 -6 0 -13 5 -16 10 -3
6 1 10 9 10 9 0 16 -4 16 -10z m5135 -60 c-21 -23 -31 -110 -12 -110 23 0 55
43 68 93 14 52 25 60 35 23 5 -22 -7 -54 -38 -98 -16 -22 -3 -35 17 -18 37 31
-8 -45 -53 -89 -23 -22 -31 -24 -125 -22 -111 2 -121 6 -113 59 4 25 1 35 -12
39 -18 7 -32 22 -32 36 0 17 21 4 65 -40 38 -37 50 -45 64 -36 9 5 45 54 81
107 35 54 66 92 68 86 2 -6 -3 -19 -13 -30z m-5205 -10 c0 -5 -4 -10 -10 -10
-5 0 -10 5 -10 10 0 6 5 10 10 10 6 0 10 -4 10 -10z m-1549 -123 c4 -45 12
-127 18 -182 6 -55 13 -125 16 -155 3 -30 7 -67 11 -82 3 -16 1 -28 -4 -28
-10 0 -13 19 -38 210 -18 134 -28 338 -17 326 4 -4 11 -44 14 -89z m1709 60
c0 -5 -9 -20 -20 -34 -11 -14 -20 -23 -20 -19 0 3 -9 -2 -20 -11 -11 -10 -20
-23 -20 -30 0 -22 -19 -14 -24 10 -12 57 -15 85 -9 90 9 10 113 4 113 -6z
m-330 -87 c0 -5 -4 -10 -10 -10 -5 0 -10 5 -10 10 0 6 5 10 10 10 6 0 10 -4
10 -10z m5109 -45 c2 -10 -20 -88 -47 -174 -60 -184 -82 -278 -82 -345 0 -40
-3 -47 -16 -42 -23 9 -63 -4 -74 -23 -5 -11 -5 -33 2 -59 9 -36 8 -46 -6 -60
-9 -11 -16 -36 -16 -58 0 -151 -2 -184 -10 -184 -26 0 -63 24 -109 71 -46 49
-53 52 -77 44 -41 -15 -40 -33 1 -41 26 -5 54 -23 92 -60 30 -30 61 -54 69
-54 8 0 32 -9 54 -20 47 -24 98 -26 107 -5 7 20 -23 53 -63 70 -30 12 -31 15
-31 69 0 58 6 67 27 41 17 -21 30 -19 30 5 0 12 -11 32 -25 46 -34 34 -32 47
10 67 35 17 54 42 41 54 -3 4 -12 1 -18 -5 -26 -26 -51 32 -29 67 8 12 13 12
35 -2 32 -21 64 -22 86 -2 20 18 113 35 151 28 16 -3 32 1 41 11 15 14 18 13
32 -9 21 -31 21 -32 -10 -39 -20 -5 -25 -12 -22 -34 2 -15 9 -28 16 -28 6 -1
16 -2 21 -3 6 0 16 -13 23 -28 11 -22 20 -27 40 -25 32 3 43 -11 22 -29 -12
-10 -22 -10 -45 -2 -24 9 -31 9 -35 -1 -3 -8 -15 -11 -31 -8 -33 6 -53 -20
-21 -28 30 -8 32 -22 7 -51 l-21 -24 8 29 c5 22 4 28 -7 24 -8 -3 -13 -18 -13
-37 1 -19 -3 -31 -11 -31 -15 0 -28 28 -19 42 4 6 -4 8 -17 6 -19 -2 -25 -10
-27 -35 -3 -35 4 -39 77 -41 40 -2 49 -8 33 -24 -7 -7 -12 -29 -12 -49 0 -44
-8 -47 -135 -54 -76 -4 -100 -14 -74 -31 7 -4 52 -7 99 -6 58 1 80 -1 70 -8
-8 -5 -30 -10 -47 -10 -23 0 -33 -5 -33 -15 0 -22 53 -19 102 6 52 26 81 16
103 -38 23 -55 32 -286 14 -366 -8 -34 -14 -111 -13 -172 0 -106 2 -115 48
-240 38 -104 48 -144 49 -200 1 -38 6 -73 11 -76 5 -4 11 -49 13 -100 5 -100
28 -203 62 -283 12 -27 19 -51 16 -54 -3 -3 -16 0 -30 6 -36 16 -127 15 -205
-4 -60 -14 -66 -14 -77 2 -7 10 -13 26 -13 36 0 9 -7 38 -15 62 -9 25 -17 76
-18 113 -2 60 -4 68 -21 65 -15 -3 -17 1 -12 15 8 20 9 23 7 41 0 6 -7 12 -15
12 -17 0 -41 -61 -60 -155 -8 -39 -19 -82 -24 -95 -5 -14 -7 -39 -5 -56 4 -23
-2 -38 -27 -66 -29 -33 -34 -35 -78 -30 -26 2 -60 12 -77 20 -20 11 -61 16
-125 17 -52 0 -101 4 -108 9 -16 10 -15 36 2 36 7 0 26 18 41 40 15 22 31 40
35 40 4 0 10 21 13 48 13 106 28 181 52 262 54 181 57 193 50 258 -6 53 -4 62
10 62 8 0 18 7 22 15 6 18 -23 119 -43 150 -17 26 -64 207 -64 243 1 15 7 49
14 76 l13 49 6 -32 c5 -24 15 -35 42 -47 69 -29 73 2 9 76 -45 53 -46 77 -2
46 32 -23 50 -20 46 7 -2 14 -11 23 -27 25 -30 5 -155 89 -224 152 -30 27 -59
50 -65 50 -14 0 -62 65 -62 84 0 19 -16 21 -23 4 -4 -10 -7 -10 -18 0 -11 10
-10 12 4 12 25 0 21 15 -14 44 -28 24 -31 30 -26 74 11 99 29 209 43 252 7 25
18 70 24 100 5 30 15 74 21 98 l12 44 61 -7 c33 -4 70 -14 81 -23 20 -15 20
-19 8 -146 -13 -132 -37 -251 -55 -273 -21 -26 -2 -32 29 -11 25 17 33 31 33
54 0 17 7 53 15 80 15 52 31 176 34 261 2 44 -1 52 -19 58 -30 9 -25 27 20 69
46 42 78 89 131 191 l36 70 99 36 c54 20 104 36 109 34 6 -1 12 -10 14 -20z
m-309 -20 c0 -14 -4 -25 -10 -25 -11 0 -14 33 -3 43 11 11 13 8 13 -18z m539
-38 c11 -14 -9 -77 -53 -166 -28 -55 -36 -89 -47 -201 -5 -47 -9 -91 -10 -97
-2 -8 -19 -13 -48 -13 -58 0 -124 -18 -134 -36 -4 -8 -17 -14 -27 -14 -23 0
-24 3 -11 28 5 9 15 44 21 77 25 125 38 181 53 225 9 25 24 79 35 120 18 73
19 75 53 81 65 12 156 10 168 -4z m-559 -4 c0 -3 -7 -14 -15 -23 -8 -9 -18
-31 -21 -50 -7 -30 -5 -33 14 -28 13 4 22 1 22 -6 0 -13 -77 -109 -91 -114 -5
-2 -9 -9 -9 -15 0 -7 -8 -22 -18 -34 -15 -20 -22 -22 -52 -14 -19 5 -46 12
-60 15 -25 5 -26 7 -22 73 3 46 11 76 23 92 11 13 19 31 19 40 0 10 6 26 14
37 12 15 17 16 27 7 8 -8 9 -16 2 -25 -13 -17 -1 -62 18 -66 15 -3 89 57 89
72 0 15 32 46 47 46 7 0 13 -3 13 -7z m25 -63 c-4 -12 -9 -19 -12 -17 -3 3 -2
15 2 27 4 12 9 19 12 17 3 -3 2 -15 -2 -27z m-5813 -290 c-2 -16 -6 -30 -8
-30 -2 0 -4 14 -4 30 0 17 4 30 8 30 5 0 7 -13 4 -30z m-332 -230 c0 -5 -7
-10 -15 -10 -8 0 -15 5 -15 10 0 6 7 10 15 10 8 0 15 -4 15 -10z m-392 -262
c-6 -18 -28 -21 -28 -4 0 9 7 16 16 16 9 0 14 -5 12 -12z m4555 -22 c3 -7 8
-35 12 -62 11 -83 15 -96 30 -90 10 4 16 -7 21 -42 3 -26 13 -55 22 -64 8 -10
17 -40 20 -68 4 -46 3 -50 -17 -50 -26 0 -72 23 -90 44 -21 26 -43 19 -84 -26
-40 -44 -57 -43 -59 3 0 13 -6 44 -14 69 -17 57 -33 222 -23 234 15 17 29 -6
29 -49 0 -29 5 -45 15 -49 8 -3 15 -18 15 -33 0 -15 5 -35 10 -43 7 -10 10 8
10 61 0 62 -4 81 -20 102 l-20 26 52 24 c61 29 84 32 91 13z m136 -164 c-1
-42 -2 -44 -9 -17 -11 45 -11 77 0 70 6 -3 9 -27 9 -53z m-501 -21 c6 -27 24
-78 41 -113 54 -116 49 -228 -10 -228 -14 0 -39 -4 -55 -9 -16 -5 -41 -12 -56
-15 -35 -8 -45 -50 -25 -114 16 -52 31 -118 72 -322 27 -131 68 -272 88 -298
7 -9 22 -11 48 -7 24 4 40 2 44 -6 20 -31 21 -295 2 -394 -21 -106 -37 -219
-37 -255 0 -16 -11 -84 -24 -152 -53 -275 -56 -325 -23 -435 8 -29 14 -53 12
-53 -10 0 -52 48 -65 73 -8 16 -31 44 -52 63 -30 27 -37 39 -32 58 15 63 11
154 -13 246 -14 52 -29 100 -33 105 -17 23 -19 65 -5 99 22 52 18 113 -11 181
-14 33 -35 83 -45 110 -13 33 -29 54 -46 62 -15 7 -28 12 -29 10 -1 -1 4 -27
12 -57 16 -56 14 -168 -4 -275 -7 -48 -44 -112 -81 -142 -8 -7 -11 -13 -7 -13
17 0 -67 -60 -100 -72 -19 -6 -34 -16 -34 -21 0 -4 -8 -7 -17 -6 -18 2 -43 -5
-73 -20 -40 -20 -87 -47 -101 -59 -9 -7 -23 -12 -30 -10 -8 2 -15 -7 -17 -20
-4 -23 -3 -23 27 -7 17 8 31 13 31 10 0 -12 -60 -126 -71 -135 -4 -3 -14 -22
-22 -42 -9 -21 -36 -52 -66 -75 -28 -21 -53 -48 -57 -60 -3 -12 -19 -26 -37
-33 -27 -9 -34 -8 -53 13 -42 46 -62 99 -66 180 -2 57 0 77 9 77 18 0 16 25
-2 40 -17 14 -20 56 -5 65 6 4 17 -10 26 -31 11 -27 18 -34 27 -25 8 8 8 14
-1 23 -7 7 -12 22 -12 34 0 12 -8 25 -17 29 -17 6 -17 7 0 16 9 6 17 15 17 22
0 14 66 83 105 111 19 13 26 25 23 41 -3 15 0 22 10 21 8 0 22 11 31 25 57 92
121 169 140 169 9 0 -2 111 -13 129 -6 10 -3 18 9 28 15 10 16 16 7 25 -7 7
-12 19 -12 27 0 8 -7 23 -17 33 -9 11 -11 18 -5 18 7 0 12 7 12 15 0 8 -6 15
-13 15 -7 0 -17 10 -22 21 -9 20 -69 62 -107 75 -9 3 -19 13 -22 22 -2 10 -19
41 -36 71 -17 30 -29 60 -26 66 2 7 28 18 56 24 58 12 100 37 100 57 0 23 -27
28 -63 12 -65 -30 -95 -39 -130 -41 -19 -1 -33 -5 -31 -9 8 -12 -36 -20 -79
-14 -27 3 -33 3 -17 -2 22 -7 18 -10 -35 -24 -46 -13 -76 -15 -131 -9 -79 9
-231 56 -254 78 -13 13 -13 16 6 32 23 18 79 19 264 5 52 -4 101 -7 109 -5 8
2 40 22 70 45 84 63 130 89 175 97 23 4 55 13 72 20 26 10 40 10 78 -1 26 -7
54 -19 62 -27 22 -22 37 -11 19 14 -9 12 -34 27 -56 33 -48 13 -42 32 10 29
76 -5 122 -45 162 -141 17 -40 37 -80 45 -89 8 -8 23 -42 34 -75 11 -32 24
-68 30 -79 5 -11 19 -48 31 -83 l21 -64 -23 -24 c-22 -23 -57 -43 -100 -57
-24 -8 -32 -47 -10 -47 9 0 21 4 27 8 17 15 64 32 64 23 0 -16 -74 -54 -110
-57 -60 -4 -120 -16 -120 -24 0 -12 68 -22 100 -15 16 3 31 2 34 -4 8 -13 97
44 117 74 7 11 15 35 18 54 7 39 28 52 37 24 4 -10 16 -26 28 -35 l21 -18 -22
0 c-30 0 -29 -14 3 -35 27 -17 46 -13 26 7 -8 8 -7 14 3 25 19 18 4 57 -23 61
-16 2 -23 13 -28 40 -4 20 -24 76 -45 123 -22 48 -39 96 -39 107 0 12 -27 77
-60 145 -55 115 -63 126 -110 155 -40 25 -63 32 -101 32 -37 0 -49 4 -49 15 0
8 -6 14 -12 12 -8 -1 -15 16 -18 49 -7 66 -64 154 -120 186 -22 13 -40 29 -40
36 0 25 -33 62 -54 62 -12 0 -31 6 -41 14 -17 12 -15 15 28 31 26 10 52 24 58
31 6 8 20 14 30 14 10 0 47 15 81 34 97 53 335 128 379 119 19 -3 31 1 40 14
17 23 87 58 234 118 143 58 149 58 163 -4z m143 -61 c2 -26 -1 -44 -6 -43 -6
2 -11 29 -13 60 -3 69 14 53 19 -17z m2789 -37 c0 -21 -3 -24 -9 -14 -5 8 -7
20 -4 28 8 21 13 15 13 -14z m-2739 -88 c3 -38 1 -50 -10 -50 -8 0 -19 20 -27
50 -16 61 -17 68 -5 60 5 -3 13 0 17 6 11 18 21 -9 25 -66z m332 34 c3 -13 1
-19 -6 -16 -15 5 -22 37 -9 37 5 0 12 -9 15 -21z m-53 -95 c0 -7 -56 -22 -134
-38 -74 -14 -140 -27 -147 -28 -29 -7 -15 22 29 59 44 37 53 41 89 36 22 -3
48 -1 58 4 20 12 105 -15 105 -33z m226 -13 c-3 -5 -28 -14 -56 -21 -62 -15
-80 -35 -24 -27 22 3 54 9 72 13 21 4 32 2 32 -5 0 -6 -8 -11 -19 -11 -10 0
-24 -7 -31 -15 -11 -13 -7 -15 29 -15 30 0 41 -4 41 -15 0 -10 -11 -15 -30
-16 -37 -2 -32 -1 -110 -26 -36 -12 -81 -25 -100 -28 -88 -17 -180 -49 -180
-63 0 -10 6 -12 23 -8 12 4 30 9 40 11 9 2 22 7 27 10 6 4 25 9 43 11 61 7 97
16 97 24 0 4 17 10 38 13 20 3 45 8 55 12 12 5 17 2 17 -8 0 -9 5 -19 11 -23
7 -4 9 2 7 17 -2 19 3 24 32 30 41 9 47 5 54 -36 19 -101 19 -123 0 -128 -99
-28 -179 -47 -229 -56 -33 -6 -109 -22 -170 -36 -60 -14 -155 -35 -210 -46
-91 -19 -126 -32 -114 -42 6 -6 180 21 209 32 14 6 75 22 135 36 61 14 126 30
145 35 19 5 58 14 85 21 28 6 69 18 93 25 82 26 92 18 97 -78 3 -56 -4 -63
-80 -71 -46 -5 -48 -4 -25 9 27 14 19 18 -18 8 -13 -4 -21 -12 -18 -20 5 -13
-18 -20 -158 -49 -38 -8 -74 -19 -80 -25 -5 -5 -22 -10 -37 -10 -15 0 -40 -7
-55 -15 -16 -8 -37 -15 -46 -15 -10 0 -18 -4 -18 -10 0 -5 13 -10 28 -10 35 0
135 29 143 41 3 5 52 21 110 35 57 14 139 34 182 45 42 11 82 17 87 14 17 -11
11 -43 -12 -59 l-22 -16 22 0 c32 0 27 -17 -10 -34 -40 -18 -344 -95 -396
-101 -20 -2 -50 -9 -67 -15 -16 -7 -41 -14 -55 -15 -35 -4 -174 -23 -185 -25
-22 -5 -32 1 -43 25 -17 36 -15 55 6 56 12 0 10 3 -8 10 -25 10 -25 11 -5 25
19 14 19 15 -3 20 -12 4 -22 14 -22 24 0 9 -9 50 -19 91 -10 41 -20 99 -22
129 -4 55 -4 55 31 67 19 6 54 12 78 12 29 1 41 5 36 12 -6 11 -71 8 -135 -7
-24 -5 -27 -3 -32 32 -4 21 -5 40 -3 42 2 2 32 7 66 12 66 9 79 15 64 29 -5 5
-36 3 -74 -5 -67 -14 -84 -9 -78 22 2 12 16 21 38 26 19 4 49 10 65 13 89 19
291 54 400 69 70 10 143 26 180 40 45 17 89 21 81 7z m-1936 -201 c72 -26 89
-45 47 -55 -41 -11 -50 -57 -32 -175 9 -57 13 -111 10 -120 -5 -15 -23 -19
-108 -25 -61 -4 -112 -3 -127 3 -47 19 -158 125 -119 115 5 -2 9 2 9 7 0 6 -4
10 -10 10 -5 0 -10 9 -10 19 0 11 5 23 10 26 6 3 10 33 10 65 0 36 5 62 13 67
28 18 126 56 177 68 60 14 77 13 130 -5z m351 -33 c23 -15 35 -32 37 -51 3
-27 2 -28 -25 -20 -15 4 -45 8 -65 9 -20 0 -40 4 -44 8 -15 14 -46 7 -51 -13
-4 -15 -9 -18 -18 -10 -8 6 -25 8 -42 4 l-28 -7 26 34 c22 28 36 35 79 42 28
4 59 11 68 17 23 13 25 13 63 -13z m-770 -114 c0 -21 2 -48 3 -60 2 -14 -5
-25 -21 -32 -20 -9 -23 -18 -24 -63 -1 -45 -2 -49 -9 -25 -5 16 -14 34 -20 41
-7 9 -7 22 -1 38 5 14 7 44 4 67 -4 27 -2 41 6 41 6 0 11 -16 11 -36 0 -54 24
-37 28 19 4 56 22 63 23 10z m634 -30 c7 -43 22 -66 49 -76 12 -5 17 -14 13
-27 -6 -22 17 -28 27 -7 3 6 3 -1 0 -18 -8 -41 -13 -44 -34 -17 -18 22 -19 22
-25 2 -4 -12 -1 -28 6 -36 10 -12 5 -20 -27 -49 -22 -19 -50 -34 -64 -34 -35
-1 -105 25 -104 38 4 42 3 42 23 29 16 -10 25 -9 45 2 34 18 33 27 -4 35 -44
10 -47 25 -5 25 47 0 42 16 -13 44 -40 20 -42 23 -36 56 10 58 23 71 24 23 0
-34 3 -41 15 -37 8 4 15 12 15 19 0 11 5 11 28 -1 45 -23 53 -19 46 26 -4 25
-3 40 4 40 6 0 13 -17 17 -37z m-775 -52 c0 -33 -4 -62 -9 -66 -18 -10 -317
-23 -326 -13 -7 6 107 58 127 58 15 0 80 28 138 60 61 34 70 28 70 -39z m864
3 c17 -7 22 -44 6 -44 -5 0 -10 5 -10 11 0 7 -8 18 -17 25 -19 14 -6 18 21 8z
m-675 -62 c17 -10 44 -36 61 -57 39 -49 89 -64 221 -65 95 0 97 -1 103 -25 5
-20 13 -25 36 -25 21 0 30 -5 30 -16 0 -14 -7 -15 -37 -10 -21 3 -83 8 -138
12 -55 3 -120 10 -145 16 -42 10 -110 60 -110 81 0 6 -13 32 -30 58 -16 27
-28 49 -25 49 2 0 18 -8 34 -18z m845 -1 c21 -23 7 -36 -29 -27 -14 4 -43 2
-65 -3 -22 -5 -40 -5 -40 -1 0 14 23 25 45 22 11 -2 29 4 40 12 26 20 29 20
49 -3z m1646 -11 c0 -5 -7 -7 -15 -4 -8 4 -15 8 -15 10 0 2 7 4 15 4 8 0 15
-4 15 -10z m-2702 -41 c-10 -5 -18 -16 -18 -23 0 -10 -24 -15 -87 -18 -49 -3
-89 -1 -91 3 -2 4 -14 3 -28 -3 -18 -8 -28 -8 -36 0 -8 8 -1 12 26 17 20 4 43
4 52 1 9 -3 21 -3 27 1 14 9 99 27 142 30 25 2 27 0 13 -8z m-368 -9 c0 -5 -4
-10 -10 -10 -5 0 -10 5 -10 10 0 6 5 10 10 10 6 0 10 -4 10 -10z m87 -36 c-3
-3 -12 -4 -19 -1 -8 3 -5 6 6 6 11 1 17 -2 13 -5z m487 -24 c18 -10 42 -38 55
-60 27 -49 23 -57 -47 -84 -75 -28 -153 3 -137 55 5 14 2 24 -6 30 -25 15 -1
21 28 6 36 -19 93 -11 93 12 0 9 -7 27 -16 39 -19 27 -11 28 30 2z m-279 -20
l62 0 4 -57 c10 -165 -6 -583 -23 -583 -4 0 -8 -13 -8 -30 0 -17 -5 -30 -12
-31 -7 0 -2 -5 11 -10 36 -14 22 -17 -39 -9 -30 4 -60 4 -66 -1 -7 -6 -21 -6
-35 -1 l-23 9 21 12 c12 6 44 11 72 11 42 0 51 3 51 18 0 16 -10 16 -157 5
-87 -6 -202 -12 -255 -12 l-98 -1 0 33 c0 17 5 61 11 97 5 36 12 96 14 134 2
38 9 83 14 100 5 17 17 78 25 136 23 146 27 170 29 171 5 4 314 15 325 12 8
-2 42 -3 77 -3z m-495 -30 c0 -5 -5 -10 -11 -10 -5 0 -7 5 -4 10 3 6 8 10 11
10 2 0 4 -4 4 -10z m31 -53 c-1 -28 -5 -54 -7 -56 -11 -12 -15 13 -9 64 9 69
20 64 16 -8z m2954 -37 c8 -26 -4 -48 -16 -29 -12 19 -11 49 0 49 5 0 12 -9
16 -20z m-55 -41 c0 -24 -4 -38 -10 -34 -5 3 -10 22 -10 41 0 19 5 34 10 34 6
0 10 -18 10 -41z m-5890 16 c0 -8 -4 -15 -10 -15 -5 0 -10 7 -10 15 0 8 5 15
10 15 6 0 10 -7 10 -15z m5560 -55 c0 -5 -4 -10 -10 -10 -5 0 -10 5 -10 10 0
6 5 10 10 10 6 0 10 -4 10 -10z m427 -57 c-3 -10 -5 -2 -5 17 0 19 2 27 5 18
2 -10 2 -26 0 -35z m-4162 17 c3 -5 -1 -10 -10 -10 -9 0 -13 5 -10 10 3 6 8
10 10 10 2 0 7 -4 10 -10z m1806 -96 c-12 -54 -21 -120 -21 -147 0 -31 -4 -46
-11 -42 -12 8 -4 192 11 244 9 31 29 56 38 46 2 -2 -6 -47 -17 -101z m-691
-29 c-5 -39 -14 -105 -20 -149 -5 -43 -8 -82 -5 -86 2 -4 0 -47 -6 -96 -6 -49
-12 -96 -13 -104 -1 -8 -6 -15 -11 -15 -6 0 -9 29 -7 68 3 48 0 67 -9 67 -14
0 -7 73 16 172 8 34 22 95 31 133 10 39 19 74 21 78 11 18 11 -2 3 -68z m3000
63 c0 -7 3 -24 7 -38 6 -22 5 -24 -10 -11 -18 15 -23 61 -7 61 6 0 10 -6 10
-12z m-2290 -108 c0 -5 -5 -10 -11 -10 -5 0 -7 5 -4 10 3 6 8 10 11 10 2 0 4
-4 4 -10z m-1764 -77 c-10 -10 -19 5 -10 18 6 11 8 11 12 0 2 -7 1 -15 -2 -18z
m1733 -155 c0 -10 -3 -18 -9 -18 -5 0 -9 21 -9 48 1 42 2 44 9 17 4 -16 8 -38
9 -47z m-2634 52 c3 -5 1 -10 -4 -10 -6 0 -11 5 -11 10 0 6 2 10 4 10 3 0 8
-4 11 -10z m7000 0 c3 -5 1 -10 -4 -10 -6 0 -11 5 -11 10 0 6 2 10 4 10 3 0 8
-4 11 -10z m-6036 -53 c1 -5 -3 -5 -9 -2 -5 3 -10 16 -9 28 0 21 1 21 9 2 5
-11 9 -24 9 -28z m-1110 -8 c-25 -16 -32 -9 -13 12 12 13 20 16 22 9 3 -7 -2
-16 -9 -21z m3753 -69 c-19 -19 -33 -45 -37 -71 -4 -22 -13 -43 -20 -46 -8 -2
-17 -18 -20 -34 -4 -16 -11 -31 -16 -34 -14 -9 -11 33 6 65 8 16 22 50 31 77
20 57 77 121 82 91 2 -10 -10 -31 -26 -48z m-2642 35 c0 -14 -4 -25 -10 -25
-5 0 -10 11 -10 25 0 14 5 25 10 25 6 0 10 -11 10 -25z m6240 -50 c0 -61 -22
-118 -74 -189 -27 -39 -37 -46 -42 -33 -5 15 -8 15 -30 0 -38 -25 -31 6 15 65
41 51 88 148 78 158 -3 4 -18 -19 -33 -49 -24 -48 -49 -75 -60 -65 -2 3 46
150 52 157 6 6 78 18 87 14 4 -2 7 -28 7 -58z m-504 47 c27 -25 133 -56 189
-57 67 0 72 -7 60 -72 -7 -39 -100 -144 -150 -170 -16 -9 -36 -24 -43 -34 -16
-22 -66 -41 -154 -55 -21 -3 -38 -10 -38 -15 0 -12 16 -11 63 2 57 16 56 4 -2
-25 -28 -15 -51 -31 -51 -36 0 -10 98 31 138 59 15 10 48 30 73 44 25 14 64
46 87 71 23 25 45 46 47 46 14 0 2 -29 -24 -61 -17 -20 -33 -48 -36 -62 -7
-26 -100 -127 -117 -127 -4 0 -26 -11 -48 -25 -22 -14 -46 -25 -54 -25 -8 0
-44 -13 -80 -30 -69 -31 -95 -30 -128 4 -14 13 -12 26 12 123 16 59 38 157 51
218 17 86 30 122 58 165 20 30 40 58 46 62 14 10 89 10 101 0z m679 -77 c14
-31 25 -62 25 -70 0 -7 4 -16 9 -19 5 -3 11 -23 14 -43 3 -21 10 -55 15 -76
10 -36 9 -39 -16 -49 -32 -12 -142 -11 -197 3 -55 14 -69 19 -64 23 2 3 31 -2
64 -10 33 -7 72 -14 87 -14 42 0 24 26 -22 34 -49 8 -102 51 -98 80 3 21 11
22 63 14 30 -5 31 30 1 43 -34 16 -33 36 4 109 l30 60 30 -15 c20 -10 38 -34
55 -70z m-4763 -80 c-4 -77 -3 -241 1 -365 4 -124 9 -259 10 -300 2 -62 -7
-129 -20 -149 -9 -13 -33 27 -33 56 0 19 -4 42 -9 51 -4 9 -11 29 -15 44 -5
21 -3 26 7 22 11 -4 16 19 22 108 4 62 8 124 8 138 0 14 -1 115 -3 225 -2 185
1 216 26 304 11 35 12 -5 6 -134z m1582 123 c9 -36 7 -102 -5 -139 -19 -61
-88 -193 -119 -228 -16 -18 -30 -37 -30 -40 0 -4 -25 -33 -55 -65 -41 -43 -61
-57 -75 -53 -13 3 -18 1 -13 -6 4 -6 -2 -8 -18 -4 -13 4 -35 7 -49 7 -24 0
-24 1 7 19 17 11 55 30 84 42 60 26 99 59 99 83 0 9 11 29 25 44 14 15 25 32
25 39 0 7 5 13 11 13 6 0 8 9 4 20 -3 11 -3 20 2 20 5 0 24 28 42 62 28 49 35
76 39 135 5 73 14 93 26 51z m-1994 -3 c0 -5 -28 -11 -62 -13 -41 -2 -60 0
-53 7 20 19 116 24 115 6z m94 5 c-13 -13 -67 -16 -71 -5 -1 6 16 11 38 12 23
0 37 -3 33 -7z m266 6 c0 -3 -4 -8 -10 -11 -5 -3 -10 -1 -10 4 0 6 5 11 10 11
6 0 10 -2 10 -4z m-2635 -46 c9 -28 45 -46 56 -29 6 10 11 11 19 3 15 -15 -15
-70 -48 -92 -15 -9 -29 -19 -32 -22 -3 -3 -22 -16 -43 -29 -36 -22 -39 -22
-56 -7 -11 10 -17 25 -14 36 3 11 0 33 -5 50 -12 33 -6 37 24 15 24 -18 34
-19 34 -1 0 9 7 12 18 9 29 -7 47 22 33 53 -13 30 -14 34 -2 34 5 0 13 -9 16
-20z m1035 -11 c0 -17 -4 -28 -10 -24 -5 3 -8 16 -6 28 6 28 5 27 11 27 3 0 5
-14 5 -31z m-1102 -18 c4 -27 -12 -21 -29 10 -9 18 -8 20 8 17 10 -2 19 -14
21 -27z m2651 -73 c-4 -46 -11 -167 -15 -270 l-7 -188 -154 0 c-84 0 -153 -4
-153 -9 0 -20 83 -22 204 -7 21 3 43 3 47 0 18 -10 -17 -31 -61 -36 -25 -3
-49 -7 -55 -8 -5 -1 -48 -2 -94 -1 -70 1 -82 3 -77 16 3 8 8 21 11 28 4 9 -21
13 -102 14 -122 3 -148 6 -148 19 0 5 5 45 9 89 5 44 10 125 11 180 1 79 13
222 19 226 2 1 268 17 406 25 69 4 132 10 140 15 23 12 26 -3 19 -93z m-2992
46 c-3 -3 -12 -4 -19 -1 -8 3 -5 6 6 6 11 1 17 -2 13 -5z m5016 -15 c-1 -8 -9
-58 -17 -112 -8 -54 -17 -101 -20 -104 -15 -15 -19 11 -8 55 6 26 14 78 17
115 5 45 11 67 18 64 7 -2 11 -10 10 -18z m-3573 -9 c0 -5 -2 -10 -4 -10 -3 0
-8 5 -11 10 -3 6 -1 10 4 10 6 0 11 -4 11 -10z m-1305 -19 c7 -12 -12 -24 -25
-16 -11 7 -4 25 10 25 5 0 11 -4 15 -9z m2245 -5 c0 -15 -18 -31 -26 -23 -7 7
7 37 17 37 5 0 9 -6 9 -14z m-944 -58 c-10 -72 -17 -99 -25 -93 -11 6 10 145
22 145 6 0 7 -20 3 -52z m6062 3 c-13 -22 -28 -28 -28 -12 0 12 31 43 37 37 2
-2 -2 -13 -9 -25z m-6427 -113 c13 -179 10 -714 -5 -781 -13 -62 -32 -78 -30
-24 7 154 10 606 4 747 -3 96 -4 179 -2 183 13 25 25 -24 33 -125z m-1187 97
c-9 -14 -20 -22 -25 -19 -5 3 -9 -4 -9 -16 0 -11 8 -24 18 -27 9 -4 24 -15 32
-24 9 -10 35 -19 63 -22 42 -4 50 -2 68 21 14 18 23 22 30 15 36 -36 -71 -100
-150 -89 -65 9 -91 29 -91 71 0 18 -5 37 -12 41 -13 8 56 74 78 74 12 0 12 -4
-2 -25z m2480 -57 c-8 -100 -24 -127 -24 -41 0 72 9 123 21 123 6 0 7 -36 3
-82z m-2098 35 c25 -33 46 -92 38 -104 -9 -16 -55 -10 -81 11 -14 11 -31 20
-38 20 -6 0 -20 9 -30 20 -17 19 -17 20 1 27 11 3 21 9 24 12 7 9 54 40 61 40
3 1 14 -11 25 -26z m4444 -98 c0 -13 4 -34 9 -47 5 -13 5 -58 1 -100 -7 -75
-17 -98 -82 -197 -10 -14 -21 -32 -24 -38 -11 -22 -68 -15 -93 11 -12 13 -39
32 -59 42 -42 22 -72 44 -72 54 0 13 134 139 142 134 13 -8 -34 -63 -59 -70
-29 -8 -30 -24 -2 -24 24 0 79 30 79 43 0 5 19 41 43 80 23 40 49 90 56 112 8
22 18 51 23 65 l10 25 14 -34 c8 -18 14 -44 14 -56z m2822 53 c-6 -6 -15 -8
-19 -4 -4 4 -1 11 7 16 19 12 27 3 12 -12z m-6062 -38 c0 -22 -4 -40 -10 -40
-5 0 -10 18 -10 40 0 22 5 40 10 40 6 0 10 -18 10 -40z m-1292 -15 c32 -9 27
-27 -23 -81 -25 -27 -45 -55 -45 -61 0 -12 -92 -113 -103 -113 -3 0 -16 -4
-29 -9 -13 -5 -27 -10 -33 -12 -5 -1 -27 -24 -47 -49 -20 -26 -55 -59 -78 -74
-22 -14 -40 -31 -40 -36 0 -20 -46 -62 -89 -81 -25 -11 -75 -22 -113 -24 -63
-5 -68 -4 -68 14 0 11 -4 22 -9 25 -18 11 -93 128 -106 165 -7 21 -15 60 -16
87 -3 40 -1 49 14 52 23 5 47 -15 47 -39 0 -25 49 -99 65 -99 23 0 24 13 4 61
-10 28 -19 53 -19 57 0 4 15 13 33 20 17 8 46 20 62 27 17 7 69 25 117 40 48
15 89 32 90 37 2 6 40 12 83 14 122 5 178 24 228 76 10 10 26 17 35 14 9 -2
27 -7 40 -11z m1246 -98 c-3 -15 -10 -25 -15 -21 -11 6 -12 84 -2 111 10 25
24 -52 17 -90z m6524 26 c11 -27 26 -72 31 -101 16 -78 68 -222 92 -255 23
-31 19 -41 -23 -51 -25 -6 -30 -1 -68 65 -23 38 -48 73 -56 76 -8 3 -14 13
-14 23 0 11 -4 22 -10 25 -5 3 -10 22 -10 41 0 38 -15 46 -23 12 -5 -18 -8
-19 -21 -8 -9 7 -16 19 -16 26 0 8 -4 14 -9 14 -10 0 -67 113 -76 153 l-7 27
94 0 95 0 21 -47z m-5632 -10 c-10 -74 -24 -356 -18 -371 6 -17 -14 -179 -38
-312 -11 -58 -22 -127 -25 -154 -8 -69 -15 -96 -27 -96 -7 0 -8 14 -5 36 4 20
2 45 -3 54 -9 17 18 210 31 220 3 3 9 15 13 28 6 17 3 22 -11 23 -17 1 -17 2
0 6 10 3 17 14 17 28 0 13 4 34 9 47 4 13 11 40 15 60 6 33 4 37 -16 40 -15 2
-21 9 -19 18 2 8 7 38 11 65 26 186 56 355 63 355 5 0 6 -21 3 -47z m-1945 -9
l83 -26 -32 -14 c-18 -7 -32 -20 -32 -29 0 -13 6 -15 33 -10 17 4 38 12 45 18
26 21 95 -32 131 -99 24 -44 27 -143 7 -209 -10 -35 -16 -40 -46 -43 -31 -3
-147 20 -197 39 -33 12 -29 39 5 41 15 0 32 2 37 3 6 2 16 3 23 4 6 0 12 6 12
11 0 6 -36 10 -89 10 -62 0 -90 4 -94 13 -3 9 6 11 32 9 41 -4 95 13 86 27 -3
6 -27 7 -54 4 -61 -7 -124 25 -120 61 2 11 -2 31 -9 43 -16 29 -15 44 3 37 17
-7 21 21 4 31 -10 7 -4 78 8 98 9 15 84 6 164 -19z m4014 16 c-3 -5 -10 -10
-16 -10 -5 0 -9 5 -9 10 0 6 7 10 16 10 8 0 12 -4 9 -10z m-2029 -69 c-7 -51
-8 -51 -15 -6 -8 44 -5 58 10 49 6 -3 8 -22 5 -43z m-939 -33 c-3 -7 -5 -2 -5
12 0 14 2 19 5 13 2 -7 2 -19 0 -25z m2829 13 c-3 -5 4 -11 16 -14 17 -5 19
-9 9 -20 -10 -12 -4 -16 34 -21 48 -8 67 -23 38 -32 -10 -3 -29 -12 -43 -19
-21 -11 -106 -11 -119 1 -9 8 26 64 41 64 23 0 33 19 14 26 -21 8 -21 24 0 24
8 0 13 -4 10 -9z m-1902 -65 c-3 -15 -8 -25 -11 -23 -2 3 -1 17 3 31 3 15 8
25 11 23 2 -3 1 -17 -3 -31z m-2205 -38 c17 -56 32 -118 37 -155 2 -19 7 -39
9 -44 8 -11 -23 -69 -36 -69 -13 0 -19 18 -23 71 -4 47 -22 95 -56 144 -25 37
-25 40 2 65 32 30 55 25 67 -12z m6944 -31 c-49 -82 -101 -159 -128 -187 -19
-19 -46 -62 -62 -95 -28 -60 -28 -60 -76 -63 -53 -3 -71 15 -45 46 20 23 52
89 68 137 7 22 24 64 38 92 21 44 31 55 61 63 20 5 43 10 51 10 8 1 26 7 40
14 28 16 66 4 53 -17z m-4593 -4 c0 -11 7 -14 25 -11 14 3 33 -1 42 -8 16 -12
11 -13 -34 -14 -41 0 -53 4 -53 15 0 10 -10 15 -30 15 -27 0 -38 9 -25 21 2 3
20 3 40 1 23 -3 35 -9 35 -19z m510 3 c0 -25 -12 -46 -26 -46 -8 0 -14 7 -14
15 0 8 -8 15 -17 15 -21 0 -6 16 22 23 33 8 35 8 35 -7z m-1500 -71 c0 -37 -4
-65 -10 -65 -11 0 -13 51 -4 99 10 48 14 37 14 -34z m3265 29 c8 -9 25 -35 37
-58 11 -22 39 -61 61 -86 21 -25 43 -54 48 -65 9 -21 74 -117 131 -193 18 -25
50 -52 73 -63 43 -20 69 -57 59 -84 -3 -8 -21 -20 -40 -27 -19 -6 -34 -15 -34
-19 0 -3 -20 -7 -45 -7 -25 -1 -54 -6 -66 -12 -11 -6 -39 -11 -62 -12 -23 0
-46 -3 -51 -6 -5 -2 -25 -6 -45 -7 -20 -1 -46 -6 -58 -10 -15 -5 -23 -3 -23 4
0 6 11 13 25 17 25 6 36 34 14 34 -26 0 15 30 50 36 20 4 53 16 73 27 31 17
40 18 53 7 25 -21 20 18 -18 123 -5 16 -52 72 -103 125 -52 53 -94 100 -94
105 0 4 -7 7 -15 7 -8 0 -15 7 -15 15 0 9 -6 18 -14 21 -27 10 -26 36 0 90 29
59 34 62 59 38z m-1865 -10 c0 -2 -7 -4 -15 -4 -8 0 -15 4 -15 10 0 5 7 7 15
4 8 -4 15 -8 15 -10z m-2910 -46 c42 -45 113 -160 126 -206 23 -75 6 -124 -64
-187 -37 -33 -50 -38 -84 -36 -42 2 -89 22 -121 50 -18 15 -18 16 5 22 21 5
19 8 -27 38 -77 49 -148 121 -119 121 12 0 54 -45 54 -57 0 -7 5 -13 10 -13
20 0 9 33 -26 76 -20 25 -34 48 -30 52 4 4 32 6 62 5 30 -2 54 2 54 7 0 6 -13
10 -30 10 -38 0 -40 23 -2 39 15 6 37 26 48 44 14 22 34 36 60 44 57 16 61 15
84 -9z m70 -4 c0 -8 -5 -12 -10 -9 -6 4 -8 11 -5 16 9 14 15 11 15 -7z m4040
-102 c0 -16 15 -52 75 -177 23 -49 50 -113 60 -142 11 -31 23 -49 30 -47 7 3
20 -10 29 -29 9 -20 26 -37 39 -41 29 -7 73 -54 80 -86 6 -28 -14 -62 -33 -58
-13 3 -30 -19 -80 -101 -13 -23 -28 -41 -33 -41 -11 0 -78 -50 -94 -70 -6 -8
-15 -12 -19 -7 -4 4 8 24 27 45 37 39 71 129 71 186 0 18 -7 49 -16 70 -9 21
-16 45 -16 53 0 7 -5 19 -11 26 -31 35 -99 155 -110 193 -5 18 -27 49 -50 70
-39 38 -69 90 -69 121 0 12 3 13 14 4 9 -7 17 -8 20 -3 3 6 -2 13 -12 17 -14
6 -11 12 23 41 l40 33 17 -22 c10 -12 18 -28 18 -35z m-2600 38 c0 -5 -4 -10
-10 -10 -5 0 -10 5 -10 10 0 6 5 10 10 10 6 0 10 -4 10 -10z m746 -68 c-12
-11 -18 7 -10 30 l8 23 4 -23 c2 -13 1 -26 -2 -30z m5604 40 c0 -4 -9 -13 -20
-20 -11 -7 -20 -19 -20 -27 0 -8 -3 -15 -7 -15 -15 1 -43 27 -43 40 0 7 3 11
6 7 3 -3 20 1 37 8 37 16 47 18 47 7z m-6350 -63 c0 -31 -4 -48 -10 -44 -5 3
-10 26 -10 51 0 24 5 44 10 44 6 0 10 -23 10 -51z m6426 27 c11 -8 37 -17 57
-21 20 -4 37 -12 37 -17 0 -11 60 -6 93 7 9 4 17 3 17 -3 0 -6 -9 -13 -19 -17
-12 -4 -18 -12 -14 -21 4 -11 -4 -14 -34 -14 -21 0 -45 6 -51 12 -10 10 -15
10 -23 -2 -8 -13 -13 -11 -34 13 -27 31 -35 33 -35 12 0 -23 -29 -6 -36 21 -6
23 1 44 14 44 4 0 17 -6 28 -14z m-7423 -13 c48 -6 54 -21 28 -64 -30 -50 -87
-316 -76 -356 3 -13 21 -41 40 -62 23 -25 33 -45 29 -55 -3 -9 -10 -16 -15
-16 -5 0 -9 -6 -9 -14 0 -20 -96 -56 -151 -56 -42 0 -49 3 -49 20 0 22 17 25
68 11 24 -7 42 -6 70 6 24 10 32 18 22 20 -30 10 -161 76 -166 84 -3 5 6 30
20 57 42 78 48 101 60 252 10 117 16 150 32 168 13 16 25 21 39 16 11 -3 37
-9 58 -11z m7593 2 c-11 -8 -31 -15 -45 -14 -24 0 -23 2 9 14 46 18 59 18 36
0z m-5056 -15 c0 -5 -4 -10 -10 -10 -5 0 -10 5 -10 10 0 6 5 10 10 10 6 0 10
-4 10 -10z m-800 -40 c0 -16 -4 -30 -10 -30 -5 0 -10 14 -10 30 0 17 5 30 10
30 6 0 10 -13 10 -30z m5884 -41 c-3 -5 -10 -7 -15 -3 -5 3 -7 10 -3 15 3 5
10 7 15 3 5 -3 7 -10 3 -15z m-311 1 c36 0 11 -10 -36 -15 -39 -4 -47 -2 -47
11 0 13 7 15 31 10 17 -3 41 -6 52 -6z m-4726 -81 c1 -41 5 -91 9 -113 5 -28
3 -40 -7 -47 -21 -13 -29 -11 -23 9 3 9 -3 5 -12 -10 -20 -30 -40 -38 -30 -12
3 9 10 65 16 125 10 115 14 133 33 126 8 -2 13 -32 14 -78z m3613 39 c25 -18
33 -20 55 -10 31 14 114 16 100 3 -6 -5 -19 -11 -30 -14 -18 -4 -18 -5 5 -14
22 -10 23 -12 7 -18 -14 -6 -15 -10 -6 -21 9 -11 8 -15 -4 -20 -9 -3 -19 -14
-22 -25 -8 -25 -31 -24 -45 1 -6 11 -25 23 -43 28 -25 6 -33 14 -35 35 -4 34
-22 36 -22 3 0 -26 -21 -47 -28 -28 -2 7 -10 12 -18 12 -8 0 -11 -6 -8 -15 10
-26 -22 -17 -36 10 -18 33 -43 34 -34 1 5 -21 1 -24 -28 -29 -19 -3 -39 0 -48
8 -8 7 -24 15 -35 17 -12 2 -20 11 -20 22 0 18 9 20 90 23 77 3 95 7 125 28
42 30 44 30 80 3z m1410 18 c0 -3 -4 -8 -10 -11 -5 -3 -10 -1 -10 4 0 6 5 11
10 11 6 0 10 -2 10 -4z m-2490 -56 c0 -5 -2 -10 -4 -10 -3 0 -8 5 -11 10 -3 6
-1 10 4 10 6 0 11 -4 11 -10z m100 -80 c0 -5 -9 -10 -21 -10 -11 0 -17 5 -14
10 3 6 13 10 21 10 8 0 14 -4 14 -10z m-2700 -250 c0 -11 -7 -20 -15 -20 -17
0 -18 2 -9 24 9 23 24 20 24 -4z m-572 -52 c7 -7 12 -16 12 -20 0 -11 -118
-10 -125 1 -15 26 89 43 113 19z m-2763 -48 c3 -5 2 -10 -4 -10 -5 0 -13 5
-16 10 -3 6 -2 10 4 10 5 0 13 -4 16 -10z m70 0 c3 -5 1 -10 -4 -10 -6 0 -11
5 -11 10 0 6 2 10 4 10 3 0 8 -4 11 -10z m950 0 c3 -5 -1 -10 -10 -10 -9 0
-13 5 -10 10 3 6 8 10 10 10 2 0 7 -4 10 -10z m-1285 -34 c15 -19 1 -21 -35
-4 -25 11 -30 19 -19 31 8 8 36 -7 54 -27z m1225 -1 c-30 -24 -30 -25 -7 -31
12 -3 22 -12 22 -20 0 -9 -12 -7 -45 9 -47 23 -57 37 -27 37 9 0 31 8 47 19
40 25 46 16 10 -14z m3545 19 c0 -8 -4 -12 -10 -9 -5 3 -10 10 -10 16 0 5 5 9
10 9 6 0 10 -7 10 -16z m-4590 -54 c0 -5 -4 -10 -10 -10 -5 0 -10 5 -10 10 0
6 5 10 10 10 6 0 10 -4 10 -10z m180 0 c0 -5 -7 -10 -16 -10 -8 0 -12 5 -9 10
3 6 10 10 16 10 5 0 9 -4 9 -10z m4370 -25 c0 -8 -4 -15 -10 -15 -5 0 -10 7
-10 15 0 8 5 15 10 15 6 0 10 -7 10 -15z m-4447 -11 c3 -3 1 -14 -5 -24 -9
-14 -9 -22 1 -34 12 -15 11 -15 -10 -8 -30 12 -39 72 -10 72 10 0 20 -3 24 -6z
m1127 -4 c-20 -13 -87 -13 -95 0 -4 6 16 10 52 10 41 0 54 -3 43 -10z m-913
-66 c-3 -3 -12 -4 -19 -1 -8 3 -5 6 6 6 11 1 17 -2 13 -5z"/>
<g>
<path d="M9440 6375 c-19 -14 -39 -25 -45 -25 -6 0 -35 -11 -63 -25 -29 -14
-57 -25 -62 -25 -6 0 -22 -8 -37 -17 l-25 -17 26 -21 c26 -21 26 -22 16 -91
-5 -38 -10 -117 -10 -176 0 -106 -5 -123 -30 -93 -7 8 -16 15 -21 15 -5 0 -52
43 -104 95 -52 52 -99 95 -103 95 -13 0 -72 -120 -72 -146 0 -15 -5 -22 -13
-19 -15 6 -92 -149 -82 -165 4 -7 19 -9 37 -5 l30 7 -51 -68 c-30 -39 -51 -76
-49 -87 2 -14 23 -27 75 -46 39 -14 75 -29 79 -34 4 -4 16 -7 26 -7 20 0 24
-24 9 -63 -5 -14 -7 -34 -5 -44 6 -22 82 -63 117 -63 12 0 39 -9 60 -20 20
-11 52 -20 69 -20 31 1 35 5 61 68 16 37 33 74 38 82 14 23 49 101 49 109 0 4
-19 13 -42 20 -24 7 -50 19 -58 27 -17 15 -134 54 -163 54 -11 0 -21 -9 -24
-20 -3 -11 -9 -20 -14 -20 -5 0 -9 -8 -9 -17 0 -9 -10 -27 -21 -39 l-21 -23
-24 47 c-28 54 -55 165 -44 182 5 8 63 15 170 21 120 6 165 12 174 23 9 12 27
9 116 -21 58 -19 110 -40 117 -46 8 -9 6 -31 -9 -91 -20 -79 -17 -96 14 -102
7 -1 49 -12 93 -24 79 -20 176 -39 225 -43 35 -3 38 31 6 86 -14 24 -26 50
-26 58 0 8 -11 37 -24 65 -13 27 -35 74 -47 104 -13 30 -26 57 -30 60 -4 3
-13 25 -20 50 -7 25 -16 49 -21 54 -4 6 -8 27 -8 48 0 40 -33 118 -50 118 -9
0 -33 47 -43 85 -3 11 -18 54 -34 95 -33 86 -48 94 -103 55z m-9 -180 c34 -10
146 -59 155 -69 6 -6 -26 -210 -34 -218 -11 -11 -47 22 -92 86 -14 19 -29 36
-35 36 -18 1 -125 160 -125 185 0 8 70 -2 131 -20z"/>
</g>
<g>
<path d="M8576 5888 c-3 -13 -12 -55 -21 -95 -22 -105 -20 -118 19 -142 18
-12 53 -41 77 -66 24 -25 49 -45 56 -45 17 0 17 -58 -1 -112 -17 -53 -27 -140
-18 -155 4 -6 26 -19 50 -27 23 -9 60 -23 83 -31 22 -9 53 -25 69 -36 49 -37
65 -6 30 59 -30 57 -70 148 -70 160 0 7 -4 12 -9 12 -4 0 -23 32 -42 70 -18
39 -39 70 -46 70 -8 0 -13 13 -13 33 0 56 -79 263 -118 310 -21 24 -41 21 -46
-5z"/>
</g>
<g>
<path d="M8331 5861 c-19 -19 -71 -122 -71 -140 0 -4 -11 -18 -25 -31 -14 -13
-25 -30 -25 -37 0 -8 -11 -29 -25 -47 -14 -18 -25 -36 -25 -39 0 -3 -11 -18
-25 -33 -14 -15 -25 -31 -25 -36 0 -8 -8 -21 -58 -95 -33 -48 -29 -73 11 -73
17 0 46 -7 62 -16 17 -9 72 -27 124 -40 52 -13 99 -28 105 -34 5 -5 16 -10 23
-10 8 0 26 -8 41 -18 46 -32 135 -84 184 -110 27 -13 50 -28 54 -33 3 -5 12
-9 21 -9 30 0 -2 125 -44 174 -12 13 -24 34 -28 47 -4 13 -21 45 -37 71 -28
44 -30 53 -25 117 3 39 11 80 17 91 6 12 9 27 7 34 -6 15 -118 93 -153 106
-21 8 -23 13 -14 30 6 11 17 20 25 20 25 0 115 43 115 55 0 22 -35 43 -80 48
-25 3 -58 10 -73 16 -36 14 -34 14 -56 -8z m39 -201 c36 -67 120 -263 120
-279 0 -15 -64 -51 -90 -51 -6 0 -19 -5 -30 -12 -10 -7 -22 -10 -25 -6 -3 3
-8 92 -11 198 -6 204 -2 221 36 150z"/>
</g>
<g>
<path d="M7926 5631 c-10 -10 -40 -63 -67 -117 -27 -54 -53 -102 -57 -108 -5
-6 -15 -31 -22 -56 -18 -56 -44 -102 -54 -93 -4 4 -4 0 -1 -9 4 -9 2 -19 -4
-23 -6 -3 -11 -15 -11 -25 0 -38 22 -67 60 -80 21 -7 50 -23 65 -36 16 -13 33
-24 39 -24 10 0 81 -45 103 -67 7 -6 37 -23 66 -37 30 -14 60 -32 67 -41 31
-38 48 -38 133 -4 97 40 131 70 122 108 -22 93 -96 179 -129 152 -8 -7 -39
-18 -71 -26 -31 -8 -64 -22 -72 -31 -8 -8 -20 -13 -27 -11 -18 6 -55 67 -67
109 -5 22 -30 78 -55 126 -44 86 -55 132 -31 132 22 0 187 84 187 96 0 16 -28
38 -81 62 -56 27 -71 27 -93 3z"/>
</g>
<g>
<path d="M7405 5373 c-36 -41 -72 -89 -79 -103 -4 -8 -13 -26 -21 -40 -20 -33
-19 -70 1 -70 8 0 32 9 52 19 20 10 51 23 67 29 17 5 37 13 46 16 17 8 17 9
39 -369 4 -82 8 -151 9 -151 1 -1 12 -5 26 -8 34 -9 100 11 153 46 24 15 51
28 61 28 10 0 26 9 35 19 17 18 16 22 -9 68 -15 26 -33 55 -39 63 -7 8 -25 36
-39 62 -15 26 -33 53 -40 60 -6 7 -24 31 -39 53 -15 22 -39 52 -53 67 -14 15
-25 30 -25 33 0 4 -10 15 -21 24 l-22 17 34 13 c19 7 42 17 51 22 10 5 25 9
34 9 32 0 10 35 -26 40 -20 4 -41 10 -48 14 -6 4 -22 9 -34 11 -12 3 -24 8
-27 12 -6 8 -57 33 -66 33 -3 0 -12 -8 -20 -17z"/>
</g>
<g>
<path d="M6935 5240 c-3 -5 -13 -10 -21 -10 -25 0 -114 -116 -114 -149 0 -24
30 -111 39 -111 4 0 13 -16 19 -35 18 -47 62 -95 88 -95 13 0 33 14 49 33 65
80 136 180 131 185 -3 3 -1 11 5 18 6 8 17 31 24 51 l14 38 16 -40 c22 -56 36
-87 46 -108 20 -38 62 -155 79 -217 9 -35 22 -66 28 -68 32 -10 72 123 75 250
2 60 0 67 -28 92 -76 69 -206 136 -229 117 -8 -7 -20 -6 -37 2 -13 7 -40 14
-59 15 -47 4 -100 21 -100 33 0 12 -17 12 -25 -1z"/>
</g>
<g>
<path d="M6565 4991 c-3 -11 5 -44 20 -76 14 -32 25 -61 25 -66 0 -5 15 -42
33 -82 19 -39 44 -96 57 -124 16 -36 29 -53 42 -53 10 0 18 3 18 8 3 53 23
160 35 178 8 12 18 42 21 66 4 24 12 49 18 57 8 11 5 17 -13 29 -13 9 -31 17
-40 18 -9 2 -38 9 -66 17 -34 10 -44 16 -30 19 11 2 -2 4 -28 4 -26 1 -53 6
-59 12 -17 17 -26 15 -33 -7z"/>
</g>
<g>
<path d="M6272 4943 c-6 -32 -13 -75 -15 -95 -3 -35 -1 -38 23 -37 41 1 125
51 125 74 0 12 -8 21 -20 24 -23 4 -44 29 -45 52 0 12 -37 39 -54 39 -2 0 -8
-26 -14 -57z"/>
</g>
<g>
<path d="M7236 4845 c-8 -8 -19 -15 -25 -15 -22 0 -147 -63 -171 -86 -15 -14
-47 -28 -75 -33 -27 -5 -54 -16 -60 -25 -7 -9 -15 -13 -18 -10 -3 4 -14 3 -24
0 -10 -4 -20 -7 -22 -6 -2 1 -8 -5 -13 -14 -5 -9 -16 -16 -23 -16 -8 0 -15 -9
-15 -20 0 -21 0 -21 115 -26 33 -1 132 -6 220 -12 88 -5 177 -7 198 -4 36 4
38 6 32 31 -3 14 -22 64 -40 111 -19 47 -37 97 -41 113 -7 31 -16 34 -38 12z"/>
</g>
<g>
<path d="M5950 4822 c-6 -15 -21 -52 -32 -82 -12 -30 -22 -57 -24 -59 -1 -2
-16 6 -32 18 -17 11 -40 23 -53 25 -13 2 -23 9 -21 15 1 6 -2 11 -8 11 -5 0
-10 -8 -10 -17 -1 -16 -2 -16 -15 1 -8 11 -15 14 -15 8 0 -7 -9 -12 -20 -12
-11 0 -20 5 -20 12 0 8 -4 8 -14 -2 -17 -18 -116 -188 -116 -200 0 -5 -3 -10
-7 -12 -14 -6 -41 -63 -48 -100 -6 -31 -4 -38 9 -38 11 0 16 -9 16 -29 0 -28
19 -58 72 -116 16 -16 30 -37 33 -46 13 -39 102 -24 152 24 15 15 44 38 63 50
39 25 50 59 26 83 -9 8 -17 23 -17 32 -1 9 -2 24 -3 32 0 8 -11 20 -24 26 -13
6 -30 21 -38 33 -8 11 -26 21 -39 21 -13 0 -25 6 -28 13 -2 7 -10 0 -17 -15
-7 -15 -21 -30 -31 -33 -11 -4 -25 -12 -32 -18 -18 -16 -99 -58 -104 -53 -2 2
20 18 49 36 29 18 73 52 98 76 46 44 153 124 165 124 4 0 4 -16 1 -35 -4 -20
-5 -39 -2 -44 9 -15 216 90 305 155 45 31 78 44 69 27 -93 -194 -149 -362
-130 -389 13 -20 48 -33 163 -63 132 -34 208 -44 228 -32 11 7 11 16 -4 55
-10 25 -21 46 -26 46 -15 0 -57 84 -75 150 -9 36 -23 72 -31 81 -7 8 -13 22
-13 30 0 33 -46 140 -62 145 -10 3 -18 11 -18 17 0 22 -44 51 -80 53 -85 3
-212 14 -219 19 -5 2 -14 -8 -21 -23z"/>
</g>
<g>
<path d="M5080 4613 c-40 -15 -94 -90 -84 -116 2 -7 14 -17 27 -23 12 -5 20
-16 18 -24 -2 -8 -12 -97 -24 -196 l-20 -182 45 -43 c25 -24 73 -69 106 -100
34 -31 62 -60 62 -64 0 -19 -96 62 -234 197 -67 66 -69 68 -64 110 3 24 17 68
32 99 14 31 26 62 26 68 0 7 7 28 16 47 9 19 13 42 9 51 -6 15 -15 9 -56 -37
-27 -30 -49 -59 -49 -64 0 -9 -67 -105 -85 -121 -6 -5 -19 -31 -28 -56 -10
-25 -26 -55 -36 -65 -38 -41 -102 -144 -96 -154 3 -6 11 -8 16 -4 5 3 15 1 22
-4 7 -6 44 -17 82 -26 39 -8 115 -25 170 -37 55 -12 114 -24 130 -26 17 -3 48
-13 70 -23 77 -34 112 -34 106 3 0 4 2 7 5 7 8 0 78 -53 82 -62 2 -5 10 -8 18
-8 26 0 15 49 -20 86 -18 19 -46 68 -61 107 -15 40 -43 106 -62 147 -19 41
-38 84 -43 95 -4 11 -16 40 -28 65 -11 25 -23 56 -27 70 -7 26 -17 53 -37 95
-6 14 -9 27 -7 30 5 5 70 -10 104 -24 62 -26 78 -31 95 -31 38 0 27 57 -15 80
-12 6 -46 41 -76 76 -54 63 -60 67 -89 57z"/>
</g>
<g>
<path d="M5325 4517 c-14 -75 -21 -409 -10 -471 10 -57 12 -60 45 -68 19 -5
49 -16 67 -24 17 -7 35 -14 40 -14 11 0 126 -45 161 -62 41 -21 44 8 6 71 -19
31 -34 64 -34 73 0 10 -9 34 -19 55 -10 21 -47 97 -80 168 -34 72 -77 160 -96
197 -19 37 -35 74 -35 82 0 9 -8 20 -19 25 -16 9 -19 5 -26 -32z m220 -447 c3
-5 -3 -10 -15 -10 -12 0 -18 5 -15 10 3 6 10 10 15 10 5 0 12 -4 15 -10z"/>
</g>
<g>
<path d="M4678 4402 c-16 -10 -28 -22 -28 -28 0 -15 -35 -46 -43 -37 -4 3 -7
0 -7 -8 0 -8 -9 -20 -20 -27 -11 -7 -20 -17 -20 -24 0 -6 -7 -20 -17 -30 -9
-10 -14 -19 -12 -21 2 -1 66 -1 142 1 l137 4 0 27 c0 62 -56 162 -89 160 -9 0
-28 -8 -43 -17z"/>
</g>
<g>
<path d="M4560 4196 c0 -9 7 -16 16 -16 17 0 14 22 -4 28 -7 2 -12 -3 -12 -12z"/>
</g>
<g>
<path d="M4495 4172 c-41 -29 -166 -296 -179 -382 -7 -45 15 -71 114 -135 41
-27 81 -55 88 -62 25 -24 117 -36 132 -18 10 12 6 21 -23 48 -27 24 -44 55
-68 122 -40 114 -39 112 -43 283 -1 78 -5 144 -7 146 -3 3 -9 2 -14 -2z"/>
</g>
<g>
<path d="M4005 4000 c-11 -4 -56 -23 -100 -41 -44 -18 -84 -36 -90 -39 -5 -4
-34 -13 -63 -21 -53 -13 -97 -43 -87 -59 3 -4 35 -6 72 -3 62 5 66 4 58 -13
-10 -26 -35 -191 -35 -237 0 -36 2 -38 63 -67 102 -48 128 -39 97 35 -10 23
-21 55 -24 72 -4 18 -16 49 -26 70 -10 21 -21 60 -25 87 l-8 49 64 -7 c35 -4
70 -11 79 -16 8 -4 44 -10 80 -12 l65 -3 -1 36 c-1 20 -8 51 -18 69 -9 18 -16
37 -16 42 0 17 -41 68 -53 67 -7 0 -21 -4 -32 -9z"/>
</g>
<g>
<path d="M4644 3827 c-15 -32 -29 -83 -32 -112 l-4 -53 40 -21 c52 -27 57 -35
38 -73 -20 -40 -20 -67 0 -75 17 -6 231 72 254 93 12 12 12 20 -3 66 -9 29
-24 82 -33 117 -20 74 -34 83 -159 104 l-73 13 -28 -59z"/>
</g>
<g>
<path d="M3193 3785 c-31 -30 -64 -66 -72 -79 -9 -13 -49 -59 -89 -101 -52
-55 -71 -82 -67 -94 4 -9 8 -29 10 -46 3 -38 30 -94 79 -167 33 -50 43 -58 70
-58 46 0 142 25 171 44 39 25 87 106 80 134 -6 25 -145 172 -163 172 -7 0 -41
-29 -76 -65 -35 -36 -67 -65 -71 -65 -4 0 -20 11 -36 24 -28 24 -28 36 0 36 9
0 48 18 86 41 38 22 82 43 97 46 16 3 28 9 28 13 0 5 14 12 32 15 17 4 61 23
97 41 36 19 73 34 81 34 8 0 25 9 38 18 19 15 21 20 10 28 -18 14 -211 84
-232 84 -9 0 -42 -25 -73 -55z"/>
</g>
<g>
<path d="M4090 3664 c0 -61 5 -114 12 -127 14 -27 34 -47 46 -47 5 0 16 -8 25
-17 22 -25 124 -79 133 -71 3 4 1 52 -6 108 -11 94 -15 104 -52 150 -22 28
-44 50 -49 50 -5 0 -22 14 -37 30 -16 17 -39 30 -51 30 -20 0 -21 -4 -21 -106z"/>
</g>
<g>
<path d="M3526 3691 c-25 -64 -82 -270 -96 -346 -6 -38 -25 -113 -42 -165 -17
-52 -31 -108 -32 -125 -2 -35 6 -34 -136 -6 -187 38 -253 53 -340 78 -131 37
-153 43 -175 47 -21 4 -88 20 -172 42 -89 24 -120 12 -95 -39 74 -156 92 -195
92 -204 0 -6 9 -22 21 -37 24 -31 55 -33 180 -12 88 16 154 23 255 31 127 9
399 46 402 56 2 5 10 9 17 9 7 0 28 19 46 43 19 23 53 62 76 87 24 25 43 50
43 57 0 7 6 16 14 20 8 4 33 25 55 46 50 46 52 68 17 182 -13 44 -35 118 -47
165 -33 123 -54 141 -83 71z"/>
</g>
<g>
<path d="M3650 3558 c0 -25 24 -124 35 -145 8 -16 15 -44 15 -63 l0 -35 103
-2 c56 -1 153 -8 215 -14 61 -7 114 -10 117 -7 13 12 -10 38 -50 57 -24 11
-46 25 -50 31 -3 5 -14 10 -23 11 -9 0 -44 18 -77 39 -102 66 -208 120 -247
126 -21 4 -38 5 -38 2z"/>
</g>
<g>
<path d="M4268 2993 c7 -3 16 -2 19 1 4 3 -2 6 -13 5 -11 0 -14 -3 -6 -6z"/>
</g>
<g>
<path d="M4175 2960 c-3 -5 -2 -10 4 -10 5 0 13 5 16 10 3 6 2 10 -4 10 -5 0
-13 -4 -16 -10z"/>
</g>
<g>
<path d="M4125 2940 c-13 -6 -15 -9 -5 -9 8 0 22 4 30 9 18 12 2 12 -25 0z"/>
</g>
<g>
<path d="M4030 2910 c-13 -9 -13 -10 0 -9 8 1 26 5 40 9 l25 8 -25 1 c-14 0
-32 -4 -40 -9z"/>
</g>
<g>
<path d="M3870 2840 c-23 -7 -23 -8 -3 -9 12 -1 25 4 28 9 3 6 5 10 3 9 -2 -1
-14 -5 -28 -9z"/>
</g>
<g>
<path d="M3575 2720 c-3 -5 -16 -11 -28 -11 -17 -1 -18 -2 -5 -6 10 -2 28 3
40 11 12 9 17 16 11 16 -7 0 -15 -4 -18 -10z"/>
</g>
<g>
<path d="M3647 5283 c-15 -14 -5 -45 30 -98 50 -75 56 -74 54 10 -2 30 -9 47
-32 68 -30 28 -41 32 -52 20z"/>
</g>
<g>
<path d="M5440 5700 c0 -5 5 -10 10 -10 6 0 10 5 10 10 0 6 -4 10 -10 10 -5 0
-10 -4 -10 -10z"/>
</g>
<g>
<path d="M4777 5881 c-17 -6 -16 -8 7 -21 30 -15 47 -6 25 14 -8 8 -22 11 -32
7z"/>
</g>
<g>
<path d="M4060 4970 c0 -5 7 -10 15 -10 8 0 15 5 15 10 0 6 -7 10 -15 10 -8 0
-15 -4 -15 -10z"/>
</g>
<g>
<path d="M10053 4419 c-34 -21 -51 -65 -33 -83 8 -8 15 -6 24 7 13 16 14 16
29 -5 12 -19 18 -21 28 -11 10 11 9 18 -9 43 -28 38 -6 42 28 5 21 -23 40 -25
40 -5 0 14 -51 70 -63 70 -7 0 -26 -9 -44 -21z"/>
</g>
<g>
<path d="M10132 4321 c4 -13 18 -16 19 -4 0 4 -5 9 -11 12 -7 2 -11 -2 -8 -8z"/>
</g>
<g>
<path d="M9730 3539 c0 -6 15 -41 34 -79 25 -49 31 -71 23 -79 -6 -6 -9 -12
-6 -14 2 -1 29 -21 59 -43 70 -52 144 -88 164 -81 18 7 11 37 -8 37 -7 0 -35
15 -63 33 -53 33 -114 105 -160 190 -25 44 -43 60 -43 36z"/>
</g>
<g>
<path d="M9810 3281 c0 -18 20 -54 66 -120 16 -22 22 -23 82 -18 36 3 68 10
72 18 12 19 0 39 -24 39 -12 0 -26 4 -31 9 -6 5 -34 16 -62 26 -29 9 -59 24
-65 34 -22 29 -38 34 -38 12z"/>
</g>
<g>
<path d="M10096 3004 c-17 -128 -1 -216 38 -201 13 5 16 23 16 107 0 56 -5
110 -10 121 -18 34 -37 22 -44 -27z"/>
</g>
<g>
<path d="M9700 2483 c0 -24 19 -43 42 -43 27 0 22 16 -12 40 -28 20 -30 20
-30 3z"/>
</g>
<g>
<path d="M7017 2334 c-10 -11 -8 -54 2 -54 14 0 25 40 14 51 -5 5 -12 6 -16 3z"/>
</g>
<g>
<path d="M6662 2133 c2 -9 9 -18 16 -21 18 -6 15 25 -4 32 -11 4 -14 1 -12
-11z"/>
</g>
<g>
<path d="M6590 2060 c0 -5 5 -10 10 -10 6 0 10 5 10 10 0 6 -4 10 -10 10 -5 0
-10 -4 -10 -10z"/>
</g>
<g>
<path d="M6440 1596 c0 -15 18 -31 26 -23 7 7 -7 37 -17 37 -5 0 -9 -6 -9 -14z"/>
</g>
<g>
<path d="M8055 3480 c-3 -5 -1 -10 4 -10 6 0 11 5 11 10 0 6 -2 10 -4 10 -3 0
-8 -4 -11 -10z"/>
</g>
<g>
<path d="M7878 3391 c-77 -16 -122 -36 -57 -26 93 15 155 29 169 36 23 13 -23
9 -112 -10z"/>
</g>
<g>
<path d="M7475 3281 c-6 -11 9 -23 19 -14 9 9 7 23 -3 23 -6 0 -12 -4 -16 -9z"/>
</g>
<g>
<path d="M8128 3262 c-51 -20 -48 -32 4 -20 48 10 55 15 42 27 -5 4 -26 1 -46
-7z"/>
</g>
<g>
<path d="M8195 3140 c-8 -13 15 -24 27 -12 6 6 4 11 -6 15 -8 3 -18 2 -21 -3z"/>
</g>
<g>
<path d="M7620 3034 c-25 -7 -57 -13 -72 -13 -18 -1 -28 -6 -28 -16 0 -18 18
-19 57 -4 15 6 45 14 66 17 21 4 38 11 38 17 1 14 -11 14 -61 -1z"/>
</g>
<g>
<path d="M7130 1735 c-7 -9 -19 -14 -26 -11 -22 8 -21 -17 0 -42 21 -24 67
-52 86 -52 21 0 9 16 -25 34 -41 22 -43 31 -13 63 17 18 18 23 6 23 -9 0 -21
-7 -28 -15z"/>
</g>
<g>
<path d="M2878 1799 c-25 -10 -47 -44 -35 -55 8 -8 86 18 98 32 24 29 -11 42
-63 23z"/>
</g>
</g>
<g>
<path d="M7166 6392 c-8 -13 3 -42 15 -42 11 0 11 21 0 39 -5 8 -11 9 -15 3z"/>
</g>
<g>
<path d="M7397 6392 c-4 -5 -21 -165 -22 -206 0 -5 5 -11 11 -13 11 -4 22 58
30 170 4 50 -5 73 -19 49z"/>
</g>
<g>
<path d="M7437 6206 c-4 -10 -5 -21 -2 -24 9 -9 17 6 13 25 -3 17 -4 17 -11
-1z"/>
</g>
<g>
<path d="M7384 6145 c-3 -8 -3 -19 1 -25 11 -18 25 -11 25 15 0 27 -17 34 -26
10z"/>
</g>
<g>
<path d="M7460 6074 c0 -8 5 -12 10 -9 6 3 10 10 10 16 0 5 -4 9 -10 9 -5 0
-10 -7 -10 -16z"/>
</g>
<g>
<path d="M10670 5066 c0 -16 27 -29 42 -20 7 5 4 12 -7 21 -24 17 -35 17 -35
-1z"/>
</g>
<g>
<path d="M9278 4193 c7 -3 16 -2 19 1 4 3 -2 6 -13 5 -11 0 -14 -3 -6 -6z"/>
</g>
<g>
<path d="M1637 2843 c-4 -3 -7 -11 -7 -17 0 -6 5 -5 12 2 6 6 9 14 7 17 -3 3
-9 2 -12 -2z"/>
</g>
<g>
<path d="M1606 2779 c-44 -49 -58 -79 -36 -79 6 0 13 7 16 15 5 12 10 13 19 5
10 -9 17 -5 27 16 7 15 20 30 28 32 11 4 10 -1 -5 -17 -16 -18 -17 -25 -7 -41
16 -26 15 -31 -3 -24 -21 8 -20 -39 1 -71 21 -32 44 -32 44 0 0 16 6 25 15 25
18 0 18 7 4 49 -9 25 -9 38 2 57 10 19 10 27 1 36 -7 7 -12 20 -12 30 0 37
-46 21 -94 -33z"/>
</g>
<g>
<path d="M1953 2730 c-23 -9 -51 -50 -34 -50 19 0 81 42 75 51 -6 11 -12 11
-41 -1z"/>
</g>
<g>
<path d="M7723 2609 c3 -34 11 -66 17 -73 10 -8 11 -2 6 29 -3 22 -6 55 -6 73
0 17 -5 32 -11 32 -8 0 -10 -19 -6 -61z"/>
</g>
<g>
<path d="M1755 2636 c-16 -14 -36 -25 -42 -26 -23 0 -13 -31 22 -67 23 -23 35
-46 35 -63 0 -16 12 -41 30 -61 16 -19 32 -42 35 -51 11 -32 93 -35 183 -7 44
14 44 41 0 28 -85 -24 -166 10 -208 89 -13 23 -21 43 -19 45 58 33 65 34 72 6
5 -19 11 -21 52 -17 45 6 78 30 71 53 -5 17 -36 18 -36 1 0 -23 -46 -32 -65
-13 -8 9 -15 20 -15 26 0 6 -16 11 -35 11 -27 0 -38 -5 -43 -21 -8 -19 -9 -20
-22 -4 -13 15 -12 20 9 36 13 11 37 19 53 19 23 0 29 4 26 18 -5 29 -67 27
-103 -2z"/>
</g>
<g>
<path d="M1964 2645 c-9 -23 5 -36 34 -29 42 10 47 16 27 31 -25 17 -54 17
-61 -2z"/>
</g>
<g>
<path d="M7778 2640 c-3 -8 -9 -73 -12 -145 -3 -71 -8 -141 -12 -154 -5 -18
-4 -23 7 -19 8 3 17 27 22 59 9 63 5 281 -5 259z"/>
</g>
<g>
<path d="M7903 2470 c2 -62 12 -78 23 -35 7 30 -3 95 -15 95 -5 0 -8 -27 -8
-60z"/>
</g>
<g>
<path d="M1950 2492 c-30 -24 -18 -42 25 -42 39 0 46 8 38 38 -7 27 -33 28
-63 4z"/>
</g>
<g>
<path d="M7816 2433 c-3 -16 -8 -55 -12 -87 -8 -72 10 -70 20 1 4 27 10 63 13
81 6 39 -13 44 -21 5z"/>
</g>
<g>
<path d="M7967 2393 c-11 -10 -8 -43 3 -43 6 0 10 11 10 25 0 26 -2 29 -13 18z"/>
</g>
<g>
<path d="M7878 2350 c-4 -8 -12 -37 -18 -65 -24 -106 -29 -150 -20 -159 5 -5
11 0 14 15 3 13 7 35 10 49 3 14 10 46 16 72 12 48 10 117 -2 88z"/>
</g>
<g>
<path d="M7914 2248 c-17 -56 -45 -198 -47 -243 -2 -27 -4 -114 -5 -192 -1
-97 -6 -143 -13 -143 -8 0 -10 31 -7 100 4 112 -12 134 -25 34 -14 -108 12
-357 45 -418 6 -11 12 -30 13 -41 3 -38 27 -115 36 -115 15 0 11 33 -17 142
-34 132 -55 261 -44 271 12 13 22 -10 25 -62 7 -92 69 -310 96 -335 9 -8 10
-3 5 19 -3 17 -9 48 -12 70 -3 22 -14 58 -24 80 -11 22 -26 78 -34 123 -9 46
-18 87 -20 91 -7 11 21 474 30 501 8 23 17 140 11 140 -3 0 -9 -10 -13 -22z"/>
</g>
<g>
<path d="M7727 2003 c-13 -13 -7 -53 8 -53 8 0 15 8 15 18 0 22 -14 44 -23 35z"/>
</g>
<g>
<path d="M7706 1823 c-12 -81 -11 -146 2 -150 8 -3 12 10 12 45 0 27 3 70 6
96 4 29 3 46 -4 46 -6 0 -13 -17 -16 -37z"/>
</g>
<g>
<path d="M3884 1842 c-7 -5 -8 -32 -2 -87 5 -44 9 -124 9 -179 0 -104 10 -146
33 -146 49 0 64 143 22 214 -22 38 -43 114 -49 178 -1 17 -6 25 -13 20z m46
-242 c0 -5 -4 -10 -10 -10 -5 0 -10 5 -10 10 0 6 5 10 10 10 6 0 10 -4 10 -10z
m-3 -77 c-3 -10 -5 -4 -5 12 0 17 2 24 5 18 2 -7 2 -21 0 -30z"/>
</g>
<g>
<path d="M3744 1696 c-6 -16 -10 -248 -6 -331 2 -33 0 -96 -3 -140 -6 -64 -5
-78 5 -68 7 6 15 44 18 83 5 78 21 78 23 0 0 -25 4 -56 9 -70 l7 -25 12 28 c6
16 11 35 11 43 0 8 10 18 23 23 19 7 23 16 21 42 -1 18 -10 36 -19 42 -14 7
-16 22 -14 76 4 93 0 151 -10 151 -4 0 -11 -21 -15 -46 -3 -26 -10 -52 -15
-58 -6 -6 -11 -34 -13 -61 -3 -47 -4 -46 -17 38 -9 59 -11 119 -6 187 7 91 3
122 -11 86z"/>
</g>
<g>
<path d="M7696 1555 c-8 -22 -7 -139 2 -189 12 -66 27 -36 22 44 -2 41 -4 91
-4 112 -1 41 -10 57 -20 33z"/>
</g>
<g>
<path d="M10212 1408 c-13 -13 -16 -37 -4 -39 40 -6 73 -5 78 2 3 5 0 10 -5
10 -6 1 -15 2 -21 3 -5 0 -15 9 -22 19 -11 14 -16 15 -26 5z"/>
</g>
<g>
<path d="M10160 1390 c0 -5 5 -10 11 -10 5 0 7 5 4 10 -3 6 -8 10 -11 10 -2 0
-4 -4 -4 -10z"/>
</g>
<g>
<path d="M7784 1347 c-6 -16 12 -152 22 -169 16 -26 20 16 9 90 -13 86 -20
106 -31 79z"/>
</g>
<g>
<path d="M11098 1353 c-19 -3 -28 -10 -28 -23 0 -15 11 -19 59 -25 66 -7 104
5 99 33 -2 13 -15 17 -53 18 -28 1 -62 -1 -77 -3z"/>
</g>
<g>
<path d="M8620 1291 c0 -16 27 -31 44 -25 28 11 19 34 -14 34 -16 0 -30 -4
-30 -9z"/>
</g>
<g>
<path d="M8707 1294 c-12 -12 4 -24 34 -24 19 0 29 5 29 15 0 15 -50 22 -63 9z"/>
</g>
<g>
<path d="M8480 1270 c-14 -26 -1 -44 26 -38 13 2 19 12 19 28 0 32 -30 38 -45
10z"/>
</g>
<g>
<path d="M8560 1270 c0 -11 7 -20 15 -20 8 0 15 9 15 20 0 11 -7 20 -15 20 -8
0 -15 -9 -15 -20z"/>
</g>
<g>
<path d="M9705 1220 c4 -6 11 -8 16 -5 14 9 11 15 -7 15 -8 0 -12 -5 -9 -10z"/>
</g>
<g>
<path d="M9855 1201 c-3 -5 -2 -12 2 -14 14 -8 133 5 133 14 0 12 -127 12
-135 0z"/>
</g>
<g>
<path d="M7930 1181 c0 -11 8 -27 18 -37 16 -17 17 -17 21 1 2 11 -2 21 -8 23
-6 2 -11 10 -11 18 0 8 -4 14 -10 14 -5 0 -10 -9 -10 -19z"/>
</g>
<g>
<path d="M8711 1151 c-26 -16 -1 -30 55 -30 46 0 55 3 52 17 -2 13 -15 18 -48
19 -25 1 -51 -2 -59 -6z"/>
</g>
<g>
<path d="M3677 1091 c-38 -43 -47 -64 -23 -55 20 8 68 72 64 85 -2 6 -20 -7
-41 -30z"/>
</g>
<g>
<path d="M3860 1120 c0 -22 30 -80 41 -80 7 0 8 7 4 18 -4 9 -12 29 -17 45
-10 26 -28 37 -28 17z"/>
</g>
<g>
<path d="M3463 1084 c3 -16 0 -28 -9 -31 -23 -8 -16 -33 9 -33 44 0 52 14 33
54 -20 42 -41 48 -33 10z"/>
</g>
<g>
<path d="M3754 1055 c-76 -75 -94 -89 -102 -80 -4 3 1 11 11 17 28 15 87 69
87 79 0 17 -19 9 -47 -21 -15 -17 -47 -43 -71 -58 -23 -15 -40 -32 -38 -39 3
-6 -2 -14 -10 -17 -18 -7 -19 -36 -1 -36 7 0 19 6 25 13 9 8 54 13 132 16 96
2 118 6 113 17 -3 8 -14 14 -24 14 -10 0 -19 4 -19 9 0 5 9 7 20 4 23 -6 25 0
8 30 -7 12 -15 42 -18 67 l-5 45 -61 -60z"/>
</g>
<g>
<path d="M3247 1069 c-6 -23 1 -49 13 -49 5 0 22 -12 39 -26 22 -18 31 -22 31
-11 0 8 -7 20 -14 27 -11 8 -12 18 -6 35 6 15 6 27 0 30 -6 4 -13 -1 -16 -9
-3 -9 -10 -14 -15 -11 -4 3 -6 12 -2 20 3 9 -1 15 -10 15 -8 0 -17 -9 -20 -21z"/>
</g>
<g>
<path d="M4343 1069 c-25 -9 -31 -29 -10 -29 19 0 52 26 41 32 -5 3 -19 2 -31
-3z"/>
</g>
<g>
<path d="M3350 1049 c0 -15 4 -19 16 -15 11 4 18 -1 21 -14 3 -11 12 -20 19
-20 17 0 17 1 4 34 -6 17 -14 24 -25 20 -8 -3 -15 -1 -15 5 0 6 -4 11 -10 11
-5 0 -10 -9 -10 -21z"/>
</g>
<g>
<path d="M3999 1066 c-2 -3 -2 -31 1 -63 6 -70 26 -69 23 1 -2 46 -13 73 -24
62z"/>
</g>
<g>
<path d="M4260 1044 c0 -14 4 -23 10 -19 6 3 10 15 10 26 0 10 -4 19 -10 19
-5 0 -10 -12 -10 -26z"/>
</g>
<g>
<path d="M4450 1060 c-14 -4 -38 -11 -54 -15 -20 -4 -26 -9 -19 -16 7 -7 24
-7 53 1 35 9 48 9 76 -5 38 -18 65 -17 72 3 2 8 -7 12 -26 12 -16 0 -35 7 -42
15 -14 17 -23 17 -60 5z"/>
</g>
<g>
<path d="M4080 1046 c1 -21 39 -58 57 -54 33 6 21 39 -19 53 -27 9 -38 9 -38
1z"/>
</g>
<g>
<path d="M7202 1028 c5 -15 28 -18 29 -3 0 6 -7 12 -17 13 -10 3 -15 -1 -12
-10z"/>
</g>
<g>
<path d="M3880 982 c0 -44 18 -58 27 -22 5 19 6 20 19 3 12 -17 13 -16 14 10
0 19 -5 27 -18 27 -10 0 -23 5 -30 12 -9 9 -12 3 -12 -30z"/>
</g>
<g>
<path d="M7140 1010 c0 -5 -9 -10 -20 -10 -35 0 -21 -15 25 -28 50 -13 78 -7
73 17 -2 10 -13 16 -31 16 -15 -1 -27 3 -27 7 0 4 -4 8 -10 8 -5 0 -10 -4 -10
-10z"/>
</g>
<g>
<path d="M5788 951 c-15 -35 -28 -51 -45 -54 -12 -2 -23 0 -23 4 0 5 -4 9 -9
9 -4 0 -8 -12 -7 -27 1 -32 34 -45 48 -18 8 13 13 14 24 4 21 -17 130 -7 151
14 13 12 14 20 6 28 -8 8 -13 8 -17 0 -4 -6 -20 -11 -36 -11 -30 0 -32 4 -45
68 -9 45 -23 40 -47 -17z"/>
</g>
<g>
<path d="M3350 980 c0 -5 5 -10 10 -10 6 0 10 5 10 10 0 6 -4 10 -10 10 -5 0
-10 -4 -10 -10z"/>
</g>
<g>
<path d="M3970 974 c0 -8 5 -12 10 -9 6 4 8 11 5 16 -9 14 -15 11 -15 -7z"/>
</g>
<g>
<path d="M4042 978 c7 -19 38 -22 38 -4 0 10 -9 16 -21 16 -12 0 -19 -5 -17
-12z"/>
</g>
<g>
<path d="M1108 966 c-30 -22 -23 -79 12 -114 17 -17 30 -35 30 -41 0 -21 -28
-11 -45 16 -17 25 -18 26 -31 8 -35 -47 1 -85 79 -85 67 1 87 16 87 67 0 41
-14 63 -40 63 -22 0 -57 27 -47 36 4 5 17 3 27 -4 26 -16 37 -15 44 3 9 25 -4
43 -37 50 -18 4 -39 8 -47 10 -8 2 -23 -2 -32 -9z m72 -130 c0 -3 -4 -8 -10
-11 -5 -3 -10 -1 -10 4 0 6 5 11 10 11 6 0 10 -2 10 -4z"/>
</g>
<g>
<path d="M1303 964 c-42 -18 -48 -31 -24 -46 18 -11 20 -19 14 -68 -3 -30 -12
-63 -21 -72 -16 -19 -10 -48 11 -48 24 0 41 29 47 79 7 61 32 67 57 14 22 -46
60 -62 150 -62 50 -1 64 3 72 17 9 16 3 18 -59 20 -115 3 -143 26 -120 97 15
44 1 70 -41 79 -41 8 -48 7 -86 -10z m72 -44 c-3 -5 -13 -10 -21 -10 -8 0 -12
5 -9 10 3 6 13 10 21 10 8 0 12 -4 9 -10z"/>
</g>
<g>
<path d="M5982 933 l-24 -37 24 -18 c30 -23 51 -19 58 12 5 22 -17 80 -30 80
-3 -1 -15 -17 -28 -37z"/>
</g>
<g>
<path d="M7240 946 c0 -9 7 -16 16 -16 9 0 14 5 12 12 -6 18 -28 21 -28 4z"/>
</g>
<g>
<path d="M5317 905 c-71 -20 -77 -23 -71 -40 10 -25 80 -39 114 -21 17 8 32
10 36 5 8 -13 27 -11 49 5 19 14 19 15 -8 40 -31 29 -49 30 -120 11z"/>
</g>
<g>
<path d="M3570 839 c0 -18 2 -19 15 -9 15 12 12 30 -6 30 -5 0 -9 -10 -9 -21z"/>
</g>
<g>
<path d="M1656 818 c-9 -12 -16 -28 -16 -35 0 -26 17 -20 48 18 l33 39 -25 0
c-14 0 -31 -9 -40 -22z"/>
</g>
<g>
<path d="M1733 803 c-23 -9 -14 -24 11 -17 17 4 27 1 34 -11 7 -14 11 -15 17
-5 14 23 -30 46 -62 33z"/>
</g>
<g>
<path d="M2730 784 c0 -9 5 -14 12 -12 18 6 21 28 4 28 -9 0 -16 -7 -16 -16z"/>
</g>
<g>
<path d="M7075 750 c-11 -4 -36 -5 -56 -2 -30 3 -37 1 -42 -17 -3 -14 -13 -21
-29 -20 l-23 1 25 8 25 8 -27 1 c-18 1 -28 -4 -28 -13 0 -8 -15 -17 -35 -20
-76 -15 -26 -21 170 -23 181 -1 206 1 218 15 17 23 57 45 57 32 0 -5 -5 -10
-11 -10 -5 0 -7 -5 -3 -11 6 -11 34 -9 151 7 48 7 62 28 31 45 -26 14 -128 5
-139 -12 -6 -10 -13 -10 -34 -1 -32 15 -115 16 -115 2 0 -5 -7 -10 -16 -10 -8
0 -13 4 -9 9 3 6 -9 7 -30 4 -19 -3 -40 -1 -47 4 -7 6 -22 7 -33 3z"/>
</g>
<g>
<path d="M6551 737 c-8 -11 -5 -17 13 -26 13 -7 29 -24 35 -37 12 -28 36 -32
45 -7 8 21 -13 85 -25 77 -6 -3 -8 -12 -5 -20 3 -7 1 -16 -4 -19 -9 -6 -12 2
-9 21 1 7 -22 24 -32 24 -4 0 -12 -6 -18 -13z"/>
</g>
<g>
<path d="M7558 739 c-30 -17 -20 -34 22 -37 30 -2 42 2 47 14 11 29 -34 44
-69 23z"/>
</g>
<g>
<path d="M1345 730 c-9 -14 -6 -17 25 -22 17 -2 25 2 25 12 0 18 -40 26 -50
10z"/>
</g>
<g>
<path d="M6480 690 c0 -31 4 -40 17 -40 9 0 31 -5 50 -12 18 -6 36 -9 39 -5
11 11 -29 49 -46 44 -11 -3 -21 6 -29 24 -18 41 -31 36 -31 -11z"/>
</g>
<g>
<path d="M1208 709 c-16 -10 0 -29 25 -29 31 0 67 11 67 20 0 10 -78 18 -92 9z"/>
</g>
</g>
</svg>
