<?xml version="1.0" encoding="UTF-8" standalone="no"?>
<svg
   xmlns:dc="http://purl.org/dc/elements/1.1/"
   xmlns:cc="http://creativecommons.org/ns#"
   xmlns:rdf="http://www.w3.org/1999/02/22-rdf-syntax-ns#"
   xmlns:svg="http://www.w3.org/2000/svg"
   xmlns="http://www.w3.org/2000/svg"
   xmlns:sodipodi="http://sodipodi.sourceforge.net/DTD/sodipodi-0.dtd"
   xmlns:inkscape="http://www.inkscape.org/namespaces/inkscape"
   version="1.0"
   width="450.000000pt"
   height="1343.000000pt"
   viewBox="0 0 450.000000 1343.000000"
   preserveAspectRatio="xMidYMid meet"
   id="svg934"
   sodipodi:docname="ahladi.svg"
   inkscape:version="0.92.4 (5da689c313, 2019-01-14)">
  <defs
     id="defs938" />
  <sodipodi:namedview
     pagecolor="#ffffff"
     bordercolor="#666666"
     borderopacity="1"
     objecttolerance="10"
     gridtolerance="10"
     guidetolerance="10"
     inkscape:pageopacity="0"
     inkscape:pageshadow="2"
     inkscape:window-width="1920"
     inkscape:window-height="1015"
     id="namedview936"
     showgrid="false"
     inkscape:zoom="0.37277111"
     inkscape:cx="-151.21711"
     inkscape:cy="801.04714"
     inkscape:window-x="0"
     inkscape:window-y="0"
     inkscape:window-maximized="1"
     inkscape:current-layer="g932" />
  <metadata
     id="metadata2">
Created by potrace 1.15, written by Peter Selinger 2001-2017
<rdf:RDF>
  <cc:Work
     rdf:about="">
    <dc:format>image/svg+xml</dc:format>
    <dc:type
       rdf:resource="http://purl.org/dc/dcmitype/StillImage" />
  </cc:Work>
</rdf:RDF>
</metadata>
  <g
     transform="translate(0.000000,1343.000000) scale(0.100000,-0.100000)"
     fill="#000000"
     stroke="none"
     id="g932">
    <g
       id="g14"
       transform="translate(420,840)">
      <path
         d="m 1730,11903 c -14,-2 -50,-11 -80,-20 -37,-10 -91,-15 -162,-14 -97,1 -109,-1 -126,-20 -12,-12 -22,-16 -26,-10 -4,5 -2,12 4,16 21,13 0,22 -42,18 -85,-7 -111,-14 -99,-26 16,-16 14,-27 -4,-21 -8,4 -15,12 -15,19 0,18 -43,27 -100,19 -33,-4 -50,-11 -50,-20 0,-8 -4,-14 -10,-14 -5,0 -10,5 -10,11 0,5 -4,8 -8,5 -4,-2 -14,-1 -22,5 -11,6 -11,9 -2,10 27,3 31,4 37,10 3,4 -34,9 -82,13 -223,16 -316,7 -273,-27 8,-7 15,-23 15,-37 0,-29 30,-38 73,-22 37,14 172,25 151,12 -9,-5 -38,-14 -65,-20 -110,-24 -133,-50 -53,-61 36,-5 40,-8 22,-14 -20,-6 -39,-33 -30,-42 2,-2 17,1 32,7 36,14 42,7 16,-21 -29,-31 -11,-48 26,-24 55,36 195,106 201,101 7,-8 10,-6 -73,-51 -89,-49 -125,-75 -125,-92 0,-19 20,-16 55,7 41,27 49,25 18,-6 -18,-18 -22,-29 -15,-36 8,-8 26,0 64,25 29,19 55,33 57,31 2,-2 -20,-25 -48,-52 -28,-27 -51,-54 -51,-60 0,-19 17,-23 30,-7 19,22 32,18 19,-6 -17,-33 3,-43 32,-17 14,13 34,30 44,38 17,14 18,14 5,-10 -7,-13 -19,-31 -27,-38 -15,-15 -17,-38 -4,-46 10,-7 43,28 36,37 -3,4 -2,5 1,2 8,-5 85,52 97,72 4,7 13,13 19,13 11,0 -77,-109 -99,-123 -7,-4 -13,-24 -13,-42 0,-45 21,-46 51,-3 26,36 37,23 16,-19 -8,-15 -17,-41 -21,-57 -7,-27 -5,-28 19,-22 25,6 25,6 25,-52 0,-38 6,-66 17,-81 17,-24 27,-171 12,-171 -30,0 -10,-91 23,-105 13,-6 22,-14 22,-20 -2,-16 72,-120 105,-147 43,-36 44,-60 3,-73 -18,-6 -39,-23 -46,-36 -27,-52 -27,-77 -1,-145 40,-107 39,-108 -70,-119 -128,-12 -145,-16 -154,-34 -8,-15 -34,-124 -74,-319 -15,-75 -9,-79 105,-59 51,9 107,18 123,21 57,8 160,27 178,32 15,5 17,-3 17,-73 0,-57 7,-98 25,-151 14,-41 25,-84 25,-96 0,-32 25,-109 53,-161 6,-11 26,-47 44,-79 l 34,-59 -33,-36 c -18,-20 -38,-39 -44,-43 -28,-19 -75,-110 -99,-194 -24,-84 -33,-184 -26,-294 2,-45 53,-68 149,-68 46,0 85,-2 88,-5 13,-13 -113,-97 -245,-163 -66,-34 -78,-130 -23,-181 27,-25 28,-25 156,-18 120,6 142,11 241,50 22,9 31,11 93,21 49,8 53,-2 12,-34 -29,-23 -29,-24 -13,-56 19,-40 98,-80 183,-95 59,-9 76,-8 215,15 78,13 130,27 311,84 17,6 38,10 48,10 10,0 38,14 63,31 l 46,32 -7,58 c -7,69 -26,119 -61,161 -19,22 -25,40 -23,62 4,40 4,40 -217,-6 -70,-14 -387,-6 -393,10 -2,7 2,11 9,10 15,-3 13,50 -3,91 -6,14 -12,87 -14,161 -3,132 -2,137 33,240 40,119 56,152 90,195 33,42 36,46 57,80 10,17 32,42 47,57 16,15 29,32 29,37 0,64 -197,-185 -270,-341 -18,-38 -36,-70 -40,-73 -16,-10 -190,98 -258,159 -18,16 -51,55 -74,87 -24,32 -45,57 -48,57 -18,-1 -23,4 -10,12 12,8 12,12 2,18 -7,5 -17,33 -22,63 -6,30 -14,76 -20,103 -12,58 -2,76 37,68 22,-4 25,-2 20,12 -5,13 -3,16 12,11 13,-4 25,5 45,34 24,34 27,48 24,95 l -3,56 94,-6 c 96,-5 173,5 249,33 64,24 48,39 -34,33 -99,-7 -291,-6 -299,2 -4,3 -7,52 -7,108 0,72 -3,100 -11,97 -16,-5 -21,-65 -19,-235 3,-182 -2,-192 -93,-192 -56,0 -63,2 -73,25 -7,14 -15,56 -18,93 l -5,67 63,94 c 98,146 104,155 124,172 26,22 68,28 112,17 20,-5 49,-9 65,-9 27,1 27,0 21,-40 l -7,-42 33,7 c 42,8 44,10 31,34 -18,35 -13,38 60,40 39,1 75,4 79,7 4,3 18,-3 30,-13 22,-18 22,-22 13,-113 -5,-52 -6,-133 -3,-181 4,-72 9,-90 28,-111 27,-29 67,-39 108,-28 25,7 26,8 9,14 -11,3 -36,8 -56,11 -55,9 -64,36 -63,180 2,148 10,196 33,196 9,0 21,-4 26,-9 11,-10 141,-48 197,-56 67,-11 214,50 255,104 45,60 37,58 73,25 67,-60 147,-144 158,-166 19,-40 60,-152 67,-183 4,-16 14,-46 23,-65 33,-73 12,-336 -32,-390 -7,-8 -17,-28 -24,-43 -16,-37 -101,-127 -120,-127 -12,0 -13,-3 -4,-12 9,-9 20,-7 46,7 20,11 37,17 40,14 3,-2 -22,-45 -56,-94 -113,-166 -150,-267 -145,-392 2,-54 18,-96 31,-82 3,2 12,49 21,104 11,64 29,126 49,170 18,39 39,87 45,108 7,21 28,61 47,90 18,28 45,74 58,102 49,101 71,149 71,154 1,3 8,22 16,41 30,67 40,110 40,167 -1,32 -1,65 -1,73 0,43 -23,175 -31,178 -5,2 -7,7 -4,12 9,14 -34,113 -61,141 -13,14 -24,32 -24,40 0,22 -165,203 -192,209 -14,4 -27,17 -33,36 -19,56 -177,254 -203,254 -4,0 -28,18 -52,40 -24,22 -48,40 -52,40 -5,0 -4,8 1,18 75,142 151,307 148,317 -5,12 -147,54 -196,58 -20,2 -26,-4 -31,-28 -11,-51 -89,-195 -106,-195 -8,0 -21,-13 -27,-30 -11,-25 -13,-9 -12,118 0,133 -2,151 -22,192 -26,52 -188,230 -210,230 -11,0 -10,-6 6,-29 25,-34 26,-54 6,-71 -25,-21 -40,-7 -37,34 3,30 -3,48 -29,84 -22,30 -34,59 -35,86 -2,23 -3,44 -3,49 -1,4 -5,7 -11,7 -16,0 -11,-88 7,-123 25,-49 27,-116 3,-149 -14,-19 -16,-28 -8,-28 8,0 6,-5 -4,-11 -27,-15 -86,0 -108,28 -26,33 -25,59 4,124 14,30 31,78 40,107 14,50 14,53 -2,50 -11,-2 -19,-16 -22,-43 -6,-45 -9,-50 -61,-120 -50,-67 -56,-100 -21,-118 15,-7 36,-19 47,-25 11,-7 33,-17 49,-22 22,-8 26,-14 18,-22 -21,-21 -13,-28 27,-28 51,0 71,8 64,26 -3,10 0,12 10,9 8,-4 17,1 21,10 4,10 2,14 -6,9 -7,-4 -8,-3 -4,4 4,7 13,12 21,12 16,0 79,32 83,43 8,17 29,4 52,-33 14,-22 27,-40 31,-40 11,0 37,-74 44,-120 3,-25 8,-101 11,-170 4,-69 11,-128 16,-131 13,-9 1,-62 -26,-112 -25,-48 -82,-82 -153,-91 -26,-4 -69,-9 -94,-12 -25,-4 -71,-1 -102,6 -46,9 -62,18 -87,48 -16,20 -30,47 -30,59 0,12 -4,24 -9,27 -4,3 -11,23 -15,44 -3,21 -16,61 -28,88 -18,40 -22,67 -22,151 0,56 5,107 11,115 12,15 43,105 43,125 0,7 -6,13 -14,13 -9,0 -19,-20 -26,-52 -7,-29 -16,-57 -20,-63 -13,-17 -23,-96 -21,-165 1,-45 10,-90 31,-145 16,-44 30,-88 30,-98 0,-10 9,-36 19,-57 19,-39 19,-40 0,-40 -23,0 -40,26 -74,115 -57,150 -72,179 -125,243 -32,38 -66,69 -80,72 -22,5 -26,13 -30,58 -5,46 -2,58 23,94 15,23 25,48 22,56 -3,7 -5,18 -5,23 0,5 -7,9 -15,9 -8,0 -15,-4 -15,-10 0,-5 -6,-10 -13,-10 -18,0 -77,-59 -77,-76 0,-8 -4,-14 -10,-14 -19,0 -10,25 23,60 31,33 32,37 32,125 0,129 25,177 171,323 62,61 120,112 128,112 9,0 16,5 16,11 0,6 -7,8 -16,5 -9,-3 -12,-2 -9,5 4,5 15,7 26,4 11,-4 26,0 35,10 10,9 30,16 48,15 17,-1 33,-1 36,0 9,4 133,12 200,14 45,1 76,-4 100,-17 21,-11 36,-14 38,-7 2,5 10,10 19,10 10,0 12,-6 8,-20 -8,-25 2,-26 28,-2 19,16 19,16 13,-3 -5,-16 1,-25 27,-40 41,-23 187,-165 187,-180 0,-7 9,-20 20,-30 11,-10 20,-22 20,-26 0,-4 15,-40 34,-81 47,-104 73,-293 50,-370 -4,-13 0,-18 16,-18 32,0 42,42 44,182 0,71 4,128 8,128 4,0 12,-9 19,-21 8,-15 14,-18 22,-10 11,11 7,18 -61,109 -13,17 -21,32 -17,32 12,0 64,-60 71,-82 6,-21 44,-25 44,-3 0,8 -20,36 -44,62 -108,117 -109,138 -1,38 38,-36 71,-65 72,-65 1,0 -2,12 -7,26 -15,37 -58,88 -108,123 -23,17 -42,36 -42,41 0,6 40,-21 89,-60 80,-63 111,-81 111,-64 0,3 -20,26 -45,52 -52,54 -51,68 3,26 52,-42 62,-47 62,-32 0,7 -16,24 -35,38 -56,41 -49,54 11,20 l 57,-32 -8,29 c -3,15 -7,28 -8,29 -1,1 -27,15 -57,31 -87,47 -120,67 -120,76 0,9 41,-1 50,-12 6,-7 145,-70 173,-78 34,-10 16,18 -28,45 -61,37 -59,60 3,28 41,-20 82,-28 82,-15 0,17 -23,35 -65,50 -22,7 -46,17 -52,22 -9,6 -13,5 -13,-4 0,-10 -3,-10 -12,-1 -20,20 -65,15 -71,-8 -3,-13 -10,-18 -21,-14 -14,5 -14,7 0,21 9,9 13,24 11,34 -6,21 11,26 19,6 3,-9 25,-13 69,-12 40,0 65,-4 65,-11 0,-17 110,-48 123,-35 14,14 0,28 -32,33 -14,1 -27,9 -29,17 -4,11 2,12 29,6 57,-13 84,-11 84,5 0,8 7,20 15,27 13,10 13,14 -1,28 -19,20 -35,20 -479,14 -320,-4 -339,-3 -432,19 -90,20 -191,26 -268,15 z m -836,-57 c -15,-11 -104,-9 -104,3 0,3 27,7 60,7 45,1 56,-2 44,-10 z m 396,10 c 0,-11 -19,-15 -25,-6 -3,5 1,10 9,10 9,0 16,-2 16,-4 z m 185,-17 c 5,-6 4,-9 -4,-9 -7,0 -10,-4 -7,-9 3,-5 -8,-11 -24,-13 -19,-3 -29,-1 -27,6 2,6 11,10 21,8 9,-2 16,2 16,8 0,5 -16,10 -35,10 -19,0 -35,5 -35,10 0,12 80,2 95,-11 z m 555,11 c 0,-5 -5,-10 -11,-10 -5,0 -7,5 -4,10 3,6 8,10 11,10 2,0 4,-4 4,-10 z m -905,-10 c 3,-5 1,-10 -4,-10 -6,0 -11,5 -11,10 0,6 2,10 4,10 3,0 8,-4 11,-10 z m 963,-4 c -7,-7 -19,-11 -25,-9 -22,9 -14,23 12,23 21,0 24,-2 13,-14 z m -763,-6 c 3,-5 2,-10 -4,-10 -5,0 -13,5 -16,10 -3,6 -2,10 4,10 5,0 13,-4 16,-10 z m 248,3 c -13,-2 -23,-9 -23,-14 0,-5 -8,-9 -17,-9 -15,0 -14,2 3,15 10,8 28,14 39,13 17,-1 17,-1 -2,-5 z m 622,-20 c 11,-27 21,-29 29,-8 3,8 0,15 -6,15 -6,0 -9,3 -5,6 3,3 18,-3 34,-13 15,-11 36,-23 46,-26 22,-8 22,-43 1,-51 -14,-5 -15,-4 -4,9 11,13 10,18 -6,30 -17,14 -40,14 -76,0 -9,-4 -14,2 -15,16 -2,27 -11,35 -23,23 -26,-26 33,-85 61,-60 9,8 9,6 0,-7 -10,-12 -17,-14 -26,-7 -9,8 -14,7 -18,-2 -3,-9 -11,-7 -26,10 -12,12 -17,22 -11,22 6,0 9,4 5,9 -3,6 -14,8 -25,6 -13,-2 -20,2 -20,11 0,8 5,14 10,14 6,0 10,7 10,16 0,25 53,14 65,-13 z m 660,17 c 4,-6 -5,-10 -19,-10 -14,0 -26,5 -26,10 0,6 9,10 19,10 11,0 23,-4 26,-10 z m -1757,-18 c 4,-14 0,-15 -22,-6 -9,3 -16,10 -16,14 0,12 33,5 38,-8 z m 288,4 c 8,-8 14,-19 14,-25 0,-6 7,-11 16,-11 9,0 12,-5 8,-11 -4,-7 -17,-1 -35,19 -16,17 -29,33 -29,36 0,10 11,6 26,-8 z m 944,3 c 0,-15 -15,-16 -45,-3 l -30,13 38,-1 c 20,-1 37,-5 37,-9 z m 75,1 c -3,-5 -13,-10 -21,-10 -8,0 -12,5 -9,10 3,6 13,10 21,10 8,0 12,-4 9,-10 z m -898,-7 c -4,-3 -2,-12 4,-20 7,-8 8,-13 1,-13 -12,0 -23,26 -15,34 4,3 9,6 11,6 3,0 2,-3 -1,-7 z m 1021,-6 c 17,-11 15,-34 -4,-41 -11,-4 -15,-2 -11,8 3,8 0,17 -8,20 -16,6 -27,-17 -19,-39 4,-8 1,-15 -7,-15 -7,0 -9,3 -6,7 4,3 0,15 -10,25 -9,10 -13,18 -8,18 4,0 2,6 -4,14 -9,11 -4,13 26,12 21,-1 44,-5 51,-9 z m -144,-19 c 4,-10 8,-10 11,-2 3,7 15,10 26,7 19,-5 19,-6 2,-18 -10,-7 -30,-15 -45,-19 -16,-3 -28,-11 -28,-17 0,-6 -4,-7 -10,-4 -16,10 -12,23 9,30 12,4 18,12 14,21 -6,17 13,19 21,2 z m -1344,-18 c 0,-5 -5,-10 -11,-10 -5,0 -7,5 -4,10 3,6 8,10 11,10 2,0 4,-4 4,-10 z m 460,-10 c 0,-4 -9,-6 -21,-3 -15,4 -17,8 -8,14 14,8 29,3 29,-11 z m 770,0 c 0,-5 -2,-10 -4,-10 -3,0 -8,5 -11,10 -3,6 -1,10 4,10 6,0 11,-4 11,-10 z m -875,-10 c 3,-5 2,-10 -4,-10 -5,0 -13,5 -16,10 -3,6 -2,10 4,10 5,0 13,-4 16,-10 z m 1055,0 c 0,-5 -2,-10 -4,-10 -3,0 -8,5 -11,10 -3,6 -1,10 4,10 6,0 11,-4 11,-10 z m -145,-78 c -3,-3 -11,0 -18,7 -9,10 -8,11 6,5 10,-3 15,-9 12,-12 z m 80,-32 c 3,-5 1,-10 -4,-10 -6,0 -11,5 -11,10 0,6 2,10 4,10 3,0 8,-4 11,-10 z m -1255,-70 c -36,-32 -46,-37 -34,-18 18,28 39,48 53,48 9,0 1,-12 -19,-30 z m 1282,-553 c 63,-17 74,-29 48,-52 -11,-10 -20,-24 -20,-31 0,-6 -24,-62 -52,-122 -38,-80 -60,-114 -79,-124 -106,-54 -180,-88 -189,-88 -14,0 -12,16 4,29 8,7 18,25 21,41 4,16 15,47 26,69 10,22 19,44 19,49 0,5 16,29 35,53 19,24 35,51 35,60 0,8 5,20 11,26 6,6 11,17 12,24 2,8 9,29 16,47 15,36 34,40 113,19 z m -1042,-133 c 0,-8 3,-14 8,-14 4,0 18,-18 32,-40 13,-22 28,-40 32,-40 4,0 8,-9 8,-20 0,-10 9,-24 20,-30 11,-6 20,-17 20,-25 0,-7 9,-34 20,-59 l 19,-46 -27,6 c -15,4 -29,10 -32,14 -3,4 -15,12 -27,19 -13,6 -23,20 -23,30 0,11 -7,21 -15,25 -8,3 -15,16 -15,30 0,24 -96,134 -113,128 -4,-1 -2,7 5,18 7,11 20,20 30,20 9,0 20,5 23,10 9,14 35,-7 35,-26 z m 10,-294 c 0,-5 -4,-10 -10,-10 -5,0 -10,-6 -10,-14 0,-8 -6,-16 -14,-19 -11,-5 -12,0 -3,24 11,27 37,41 37,19 z m 900,3 c 0,-14 -19,-38 -25,-32 -8,8 5,39 16,39 5,0 9,-3 9,-7 z m 30,-8 c 0,-8 -4,-15 -10,-15 -5,0 -7,7 -4,15 4,8 8,15 10,15 2,0 4,-7 4,-15 z m 28,-45 c -17,-40 -43,-50 -34,-14 10,37 40,77 44,58 2,-8 -2,-28 -10,-44 z m -928,37 c -9,-7 -26,-29 -39,-50 -13,-21 -25,-36 -28,-33 -10,10 54,96 71,96 6,0 4,-6 -4,-13 z m 971,-21 c -6,-14 -15,-26 -21,-26 -14,0 -13,7 6,36 21,31 28,26 15,-10 z m -153,12 c -2,-6 -10,-14 -16,-16 -7,-2 -10,2 -6,12 7,18 28,22 22,4 z m -40,-10 c -3,-7 -12,-14 -21,-16 -12,-2 -15,1 -11,12 7,19 38,22 32,4 z m -718,-7 c 0,-12 -31,-43 -37,-37 -6,6 20,46 29,46 5,0 8,-4 8,-9 z m 40,-2 c 0,-6 9,-8 21,-4 19,6 18,2 -10,-39 -37,-53 -45,-57 -37,-18 3,15 3,21 0,15 -3,-7 -12,-13 -19,-13 -11,0 -9,8 6,35 20,34 39,46 39,24 z m 625,1 c -3,-5 -11,-10 -16,-10 -6,0 -7,5 -4,10 3,6 11,10 16,10 6,0 7,-4 4,-10 z m -537,-22 c 8,-8 15,-8 27,2 19,15 30,7 18,-13 -14,-26 -73,-87 -83,-87 -16,0 -12,20 11,48 14,18 17,28 8,31 -6,2 -23,-11 -36,-28 -14,-17 -28,-29 -33,-26 -7,5 58,85 70,85 3,0 11,-5 18,-12 z m 837,-17 c -3,-6 -11,-11 -17,-11 -6,0 -6,6 2,15 14,17 26,13 15,-4 z m -780,-41 c -21,-22 -41,-37 -44,-35 -2,3 13,23 34,45 21,22 41,37 44,35 2,-3 -13,-23 -34,-45 z m 825,40 c 0,-5 -4,-10 -10,-10 -5,0 -10,5 -10,10 0,6 5,10 10,10 6,0 10,-4 10,-10 z m -330,-20 c -11,-20 -30,-28 -30,-12 0,11 22,32 32,32 5,0 4,-9 -2,-20 z m 36,-6 c -4,-9 -9,-15 -11,-12 -3,3 -3,13 1,22 4,9 9,15 11,12 3,-3 3,-13 -1,-22 z m -363,-75 c -26,-39 -55,-81 -63,-95 -22,-36 -33,-29 -14,9 19,37 94,140 106,145 4,2 8,11 9,20 0,11 2,13 6,4 3,-7 -17,-45 -44,-83 z m 79,69 c -7,-7 -12,-8 -12,-2 0,14 12,26 19,19 2,-3 -1,-11 -7,-17 z m 39,5 c -17,-32 -40,-58 -41,-47 0,6 7,17 15,24 8,7 15,19 15,26 0,8 5,14 10,14 7,0 7,-6 1,-17 z m -176,-53 c -15,-23 -29,-40 -32,-37 -6,6 12,41 35,67 27,32 25,15 -3,-30 z m -408,18 c -3,-8 -6,-5 -6,6 -1,11 2,17 5,13 3,-3 4,-12 1,-19 z m 88,-47 c -30,-28 -29,-26 0,33 18,35 20,37 23,16 3,-15 -6,-32 -23,-49 z m 245,65 c 0,-3 -4,-8 -10,-11 -5,-3 -10,-1 -10,4 0,6 5,11 10,11 6,0 10,-2 10,-4 z m 94,-53 c -39,-62 -54,-82 -54,-70 0,14 77,127 86,127 3,0 -12,-26 -32,-57 z m 191,27 c -9,-16 -18,-30 -21,-30 -2,0 2,14 11,30 9,17 18,30 21,30 2,0 -2,-13 -11,-30 z m 361,-67 c -15,-31 -29,-54 -32,-51 -2,3 7,31 21,61 14,31 26,64 26,74 1,13 3,12 6,-5 2,-12 -7,-48 -21,-79 z m -362,-7 c -20,-41 -40,-73 -45,-71 -4,3 11,41 34,85 52,101 61,89 11,-14 z m 456,67 c -13,-47 -48,-120 -59,-127 -5,-4 3,22 18,56 15,35 31,71 34,81 10,28 16,19 7,-10 z m -490,-13 c -6,-12 -14,-19 -17,-17 -2,3 1,15 7,27 6,12 14,19 17,17 2,-3 -1,-15 -7,-27 z m 359,-45 c -32,-77 -54,-72 -28,6 14,40 42,76 47,60 2,-6 -6,-36 -19,-66 z m -44,6 c -17,-34 -28,-41 -19,-13 19,56 29,76 32,60 2,-9 -4,-30 -13,-47 z m -771,9 c -15,-22 -31,-40 -35,-40 -14,0 -11,9 17,46 36,47 50,43 18,-6 z m 206,34 c 0,-10 -73,-95 -77,-90 -6,5 59,96 69,96 4,0 8,-3 8,-6 z m 400,-2 c 0,-11 -22,-32 -32,-32 -5,0 -4,9 2,20 11,20 30,28 30,12 z m 30,-3 c 0,-16 -33,-69 -43,-69 -5,0 -7,3 -5,8 3,4 11,22 18,40 14,31 30,43 30,21 z m 110,5 c 0,-25 -26,-84 -36,-84 -10,0 -9,10 4,45 9,25 20,45 24,45 4,0 8,-3 8,-6 z m 135,-70 c -15,-31 -29,-54 -32,-51 -2,3 8,33 23,67 16,33 30,56 32,51 2,-6 -8,-36 -23,-67 z m -226,28 c -6,-18 -15,-32 -20,-32 -5,0 -1,16 8,35 20,42 27,40 12,-3 z m 48,20 c -10,-10 -17,-26 -17,-35 0,-9 -4,-19 -10,-22 -15,-9 -12,12 5,45 9,17 21,30 27,30 6,0 4,-8 -5,-18 z m -647,-10 c 0,-4 -16,-25 -35,-47 -19,-22 -35,-44 -35,-49 0,-10 -31,-35 -44,-36 -5,0 -2,8 7,18 10,10 17,23 17,29 0,18 71,104 81,98 5,-4 9,-9 9,-13 z m 58,-34 c -24,-29 -45,-55 -48,-58 -3,-3 -16,-18 -28,-34 -12,-16 -22,-25 -22,-21 0,4 25,41 56,81 48,63 64,79 82,83 2,1 -16,-23 -40,-51 z m 255,39 c -35,-55 -59,-87 -67,-87 -5,0 -2,8 6,18 9,9 23,32 32,50 9,17 21,32 27,32 6,0 7,-5 2,-13 z m 167,-7 c 0,-5 -5,-10 -11,-10 -5,0 -7,5 -4,10 3,6 8,10 11,10 2,0 4,-4 4,-10 z m 461,-12 c -13,-36 -61,-148 -82,-196 -11,-23 -24,-40 -29,-37 -5,3 8,41 29,83 21,42 46,98 56,125 10,26 21,47 26,47 5,0 5,-10 0,-22 z m -932,-33 c -34,-47 -69,-83 -69,-71 0,12 84,116 93,116 5,0 -6,-20 -24,-45 z m 301,-5 c -30,-42 -36,-31 -8,12 13,20 24,31 26,27 2,-5 -6,-23 -18,-39 z m 38,-4 c -21,-43 -38,-59 -38,-35 0,12 53,89 58,84 2,-1 -7,-23 -20,-49 z m 508,-71 c -26,-52 -51,-95 -56,-95 -5,0 13,43 40,97 28,53 51,103 51,112 1,13 2,12 6,-2 3,-10 -16,-60 -41,-112 z m -716,97 c 0,-12 -102,-133 -108,-128 -3,3 7,20 22,38 14,18 36,48 49,65 21,31 37,42 37,25 z m 235,-42 c -9,-18 -19,-30 -22,-27 -3,3 3,19 13,36 23,39 30,32 9,-9 z m 105,19 c -7,-11 -14,-19 -16,-16 -7,7 7,37 17,37 6,0 5,-9 -1,-21 z m -626,-13 c -6,-16 -24,-23 -24,-8 0,10 22,33 27,28 2,-2 1,-11 -3,-20 z m 1086,-53 c -33,-75 -38,-87 -44,-105 -3,-10 -10,-18 -15,-18 -10,0 21,91 55,164 27,55 30,19 4,-41 z m -509,30 c -8,-15 -10,-15 -11,-2 0,17 10,32 18,25 2,-3 -1,-13 -7,-23 z m 549,-44 c -22,-60 -59,-114 -60,-88 0,8 4,19 9,25 5,5 19,37 31,72 14,37 27,59 32,54 5,-5 0,-31 -12,-63 z m -1109,28 c -16,-16 -26,0 -10,19 9,11 15,12 17,4 2,-6 -1,-17 -7,-23 z m 685,-4 c -10,-10 -19,5 -10,18 6,11 8,11 12,0 2,-7 1,-15 -2,-18 z m 44,10 c 0,-5 -4,-15 -10,-23 -11,-18 -25,-7 -17,15 6,15 27,21 27,8 z m 40,-6 c 0,-18 -27,-53 -35,-46 -7,8 15,59 27,59 4,0 8,-6 8,-13 z m 371,-53 c -24,-53 -39,-56 -18,-3 8,19 17,43 22,54 4,12 9,15 12,8 2,-7 -5,-33 -16,-59 z m -1390,-6 c -28,-29 -51,-47 -51,-41 0,17 88,108 96,100 4,-4 -16,-30 -45,-59 z m 70,10 c -16,-18 -33,-29 -37,-25 -4,4 8,23 27,43 42,43 52,27 10,-18 z m 549,43 c 0,-12 -20,-25 -27,-18 -7,7 6,27 18,27 5,0 9,-4 9,-9 z m 427,-26 c -6,-19 -14,-35 -19,-35 -10,0 -10,1 3,39 15,43 30,40 16,-4 z m 38,14 c -5,-14 -2,-25 6,-30 11,-6 11,-11 1,-21 -9,-9 -12,-9 -12,1 0,11 -3,11 -15,1 -19,-16 -19,-9 2,35 19,39 28,46 18,14 z m -996,-68 c -69,-75 -94,-89 -37,-19 57,69 89,101 95,95 3,-3 -23,-37 -58,-76 z m 1051,24 c -12,-19 -26,-35 -31,-35 -11,0 9,48 30,73 24,29 25,1 1,-38 z m -750,26 c -5,-11 -15,-23 -22,-27 -7,-5 -8,-2 -3,7 21,37 44,55 25,20 z m 1037,-3 c -3,-8 -6,-5 -6,6 -1,11 2,17 5,13 3,-3 4,-12 1,-19 z m -1457,8 c 0,-3 -4,-8 -10,-11 -5,-3 -10,-1 -10,4 0,6 5,11 10,11 6,0 10,-2 10,-4 z m 1199,-48 c -12,-23 -24,-37 -27,-30 -2,7 2,21 10,30 8,9 18,26 22,36 3,10 9,16 12,13 3,-3 -5,-25 -17,-49 z m -999,31 c 0,-15 -138,-179 -151,-179 -19,0 -8,27 26,60 19,19 35,39 35,44 0,11 72,86 83,86 4,0 7,-5 7,-11 z m 90,7 c 0,-3 -4,-8 -10,-11 -5,-3 -10,-1 -10,4 0,6 5,11 10,11 6,0 10,-2 10,-4 z m 61,-39 c -8,-8 -11,-7 -11,4 0,20 13,34 18,19 3,-7 -1,-17 -7,-23 z m -167,-78 c -27,-34 -63,-81 -81,-104 -36,-49 -42,-53 -84,-65 l -29,-9 22,29 c 13,16 28,29 35,29 7,1 20,17 29,36 9,20 24,41 33,48 9,7 36,36 60,65 29,35 47,50 54,43 6,-6 -8,-31 -39,-72 z m 146,-29 c -33,-49 -65,-90 -70,-90 -17,0 -11,13 30,74 22,32 40,65 40,72 0,14 27,33 48,34 7,0 -15,-40 -48,-90 z m -71,61 c -20,-28 -61,-88 -93,-138 -25,-37 -60,-62 -71,-51 -6,6 157,208 168,208 5,0 3,-9 -4,-19 z m -256,-35 c -18,-26 -33,-33 -33,-17 0,4 10,21 22,36 27,34 37,16 11,-19 z m 307,35 c 0,-5 -10,-22 -23,-38 -13,-15 -35,-49 -50,-75 -15,-26 -37,-53 -49,-59 -22,-12 -22,-10 12,41 10,14 34,51 55,83 36,53 55,70 55,48 z m -310,-88 c 0,-5 -17,-28 -37,-53 -38,-47 -38,-29 0,27 21,31 37,42 37,26 z m 0,-62 c 0,-5 -7,-12 -16,-15 -14,-5 -15,-4 -4,9 14,17 20,19 20,6 z m -30,-41 c 0,-5 -5,-10 -11,-10 -5,0 -7,5 -4,10 3,6 8,10 11,10 2,0 4,-4 4,-10 z m 590,-699 c 28,-28 53,-46 88,-61 12,-5 22,-13 22,-17 0,-5 10,-13 23,-19 12,-6 48,-26 80,-44 58,-32 59,-33 53,-69 -23,-129 -17,-223 21,-343 18,-58 44,-78 99,-78 38,0 42,-3 46,-27 6,-46 0,-57 -52,-86 -28,-16 -50,-35 -50,-44 0,-13 -3,-13 -15,-3 -21,17 -19,34 10,86 29,52 30,54 11,54 -20,0 -72,-69 -81,-107 -3,-18 -10,-33 -13,-34 -4,0 -24,-1 -44,-3 -21,-2 -55,-10 -75,-19 -21,-9 -64,-23 -95,-32 -32,-8 -58,-19 -58,-23 0,-8 -276,0 -283,8 -2,3 -7,18 -11,33 -6,23 -1,33 25,58 23,22 37,28 53,22 11,-3 32,-7 46,-8 33,-1 55,-12 112,-52 48,-33 68,-40 68,-25 0,28 -106,92 -168,101 l -47,7 32,17 c 40,21 70,21 119,1 38,-16 40,-16 92,12 28,16 52,34 52,40 0,7 8,15 18,18 10,4 32,24 48,46 25,34 34,40 67,40 26,0 37,4 34,13 -3,9 -51,11 -209,9 l -206,-4 -19,28 c -32,50 -18,251 26,349 12,26 21,52 21,57 0,5 16,28 35,51 19,22 33,42 31,45 -2,2 3,12 12,22 21,22 48,16 82,-19 z m 120,-558 c -1,-15 -25,-40 -89,-91 -62,-50 -91,-63 -91,-42 0,5 -16,12 -35,16 -41,7 -45,19 -11,28 13,3 43,24 67,45 34,32 51,41 88,44 25,2 52,4 59,5 6,1 12,-1 12,-5 z m 784,-51 c 3,-9 22,-42 42,-72 41,-62 51,-102 35,-143 -16,-40 -105,-78 -307,-128 -148,-37 -182,-43 -269,-41 -117,2 -205,25 -205,54 0,10 6,21 14,24 8,3 17,16 20,30 4,13 20,31 37,39 19,10 29,22 25,30 -3,9 0,12 10,8 8,-3 22,1 32,10 31,27 106,60 135,59 16,0 37,-8 47,-17 17,-15 21,-15 62,3 25,11 64,43 93,75 34,39 58,57 75,58 14,0 45,6 70,13 64,19 78,18 84,-2 z m -275,-78 -56,-56 -38,17 -39,16 27,25 c 15,14 27,29 27,34 0,10 34,16 95,19 l 40,1 z m -120,20 c -22,-23 -24,-24 -36,-8 -20,28 -16,34 24,34 h 36 z"
         id="path4"
         inkscape:connector-curvature="0" />
      <g
         id="g8">
        <path
           d="m 2595,8578 c -25,-78 -50,-140 -61,-149 -16,-13 -19,-39 -4,-39 5,0 17,11 26,25 17,26 64,148 64,165 0,14 -20,12 -25,-2 z"
           id="path6"
           inkscape:connector-curvature="0" />
      </g>
      <g
         id="g12">
        <path
           d="m 2060,8470 c -17,-10 -17,-10 34,-35 21,-11 57,-41 81,-67 24,-27 48,-48 54,-48 24,0 9,28 -41,77 -62,59 -108,86 -128,73 z"
           id="path10"
           inkscape:connector-curvature="0" />
      </g>
    </g>
    <g
       id="g18"
       transform="translate(420,840)">
      <path
         d="m 1925,11724 c -32,-16 -97,-75 -91,-82 6,-5 66,27 66,36 0,4 8,9 18,10 57,8 100,8 121,0 16,-6 28,-4 38,4 13,11 12,15 -7,30 -28,23 -104,24 -145,2 z"
         id="path16"
         inkscape:connector-curvature="0" />
    </g>
    <g
       id="g22"
       transform="translate(420,840)">
      <path
         d="m 1566,11711 c -10,-16 5,-39 29,-45 12,-3 37,-22 54,-41 35,-41 52,-28 27,20 -28,55 -93,93 -110,66 z"
         id="path20"
         inkscape:connector-curvature="0" />
    </g>
    <g
       id="g30"
       transform="translate(420,840)">
      <path
         d="m 1994,11620 c -47,-11 -73,-40 -80,-92 -9,-63 15,-107 59,-110 64,-3 92,3 118,28 35,33 40,64 19,111 -26,59 -59,77 -116,63 z m 86,-46 c 4,-5 12,-26 15,-46 6,-33 3,-41 -23,-67 -17,-18 -37,-28 -48,-26 -11,2 -31,6 -45,9 -39,8 -57,71 -34,116 16,32 18,32 71,28 30,-3 59,-9 64,-14 z"
         id="path24"
         inkscape:connector-curvature="0" />
      <g
         id="g28">
        <path
           d="m 2030,11535 c 0,-8 -10,-25 -22,-37 -20,-20 -20,-22 -3,-34 16,-12 22,-12 39,0 29,19 33,62 7,76 -17,9 -21,8 -21,-5 z"
           id="path26"
           inkscape:connector-curvature="0" />
      </g>
    </g>
    <g
       id="g38"
       transform="translate(420,840)">
      <path
         d="m 1444,11573 c -54,-50 -69,-78 -58,-107 10,-26 21,-18 30,22 7,34 8,35 14,12 15,-55 23,-67 55,-84 73,-39 155,9 155,90 0,61 -39,104 -100,111 -43,4 -48,2 -96,-44 z m 153,-19 c 16,-22 17,-65 1,-100 -11,-24 -16,-26 -61,-21 -57,5 -66,12 -74,60 -4,26 0,44 12,63 15,24 22,26 63,21 28,-3 51,-12 59,-23 z"
         id="path32"
         inkscape:connector-curvature="0" />
      <g
         id="g36">
        <path
           d="m 1552,11521 c -7,-4 -10,-15 -6,-24 5,-14 1,-16 -24,-11 -27,6 -30,4 -25,-14 6,-25 71,-41 84,-20 21,33 -1,86 -29,69 z"
           id="path34"
           inkscape:connector-curvature="0" />
      </g>
    </g>
    <g
       id="g42"
       transform="translate(420,840)">
      <path
         d="m 2146,11524 c -3,-9 -6,-28 -6,-42 1,-26 1,-26 15,-8 16,22 20,66 6,66 -5,0 -12,-7 -15,-16 z"
         id="path40"
         inkscape:connector-curvature="0" />
    </g>
    <g
       id="g46"
       transform="translate(420,840)">
      <path
         d="m 2155,11118 c 4,-18 12,-44 17,-58 10,-24 11,-24 20,-5 6,14 4,32 -7,58 -19,47 -39,50 -30,5 z"
         id="path44"
         inkscape:connector-curvature="0" />
    </g>
    <g
       id="g50"
       transform="translate(420,840)">
      <path
         d="m 1470,11103 c 0,-4 -11,-20 -24,-36 -20,-23 -22,-33 -16,-63 5,-20 11,-38 14,-41 10,-11 36,19 36,42 0,13 4,25 10,27 5,2 11,19 12,38 2,26 -1,35 -14,38 -10,2 -18,0 -18,-5 z"
         id="path48"
         inkscape:connector-curvature="0" />
    </g>
    <g
       id="g54"
       transform="translate(420,840)">
      <path
         d="m 1860,11084 c -48,-9 -74,-10 -102,-2 -20,6 -44,8 -53,4 -42,-16 -53,-147 -20,-246 12,-35 25,-51 60,-73 40,-26 51,-28 98,-22 104,14 129,47 147,192 11,86 7,138 -11,149 -19,11 -56,11 -119,-2 z m 56,-52 c -8,-23 -46,-42 -87,-42 -30,0 -89,27 -89,42 0,7 57,17 130,21 55,3 53,3 46,-21 z m -2,-224 c -9,-31 -7,-30 -58,-35 -49,-6 -109,12 -103,31 2,6 19,10 38,8 19,-1 50,2 69,7 57,15 62,13 54,-11 z"
         id="path52"
         inkscape:connector-curvature="0" />
    </g>
    <g
       id="g58"
       transform="translate(420,840)">
      <path
         d="m 1812,10710 c -40,-9 -72,-37 -72,-62 0,-10 -4,-18 -10,-18 -10,0 -14,13 -11,43 1,9 -2,17 -8,17 -18,0 -23,-22 -10,-46 17,-33 56,-32 69,1 10,25 62,55 96,55 10,0 32,-11 50,-25 54,-42 75,-27 29,20 -27,26 -66,31 -133,15 z"
         id="path56"
         inkscape:connector-curvature="0" />
    </g>
    <g
       id="g62"
       transform="translate(420,840)">
      <path
         d="m 1696,10129 c -17,-25 -11,-49 13,-49 30,0 44,16 37,44 -8,31 -30,34 -50,5 z"
         id="path60"
         inkscape:connector-curvature="0" />
    </g>
    <g
       id="g66"
       transform="translate(420,840)">
      <path
         d="m 2002,10108 c -28,-14 -25,-42 4,-46 26,-4 55,23 48,43 -7,17 -20,18 -52,3 z"
         id="path64"
         inkscape:connector-curvature="0" />
    </g>
    <g
       id="g70"
       transform="translate(420,840)">
      <path
         d="m 2307,10103 c -2,-5 -4,-53 -5,-108 -1,-99 -12,-144 -40,-177 -8,-10 -11,-18 -5,-18 16,0 53,45 62,77 12,42 14,220 2,227 -5,4 -11,3 -14,-1 z"
         id="path68"
         inkscape:connector-curvature="0" />
    </g>
    <g
       id="g74"
       transform="translate(420,840)">
      <path
         d="m 1872,10048 c -20,-20 -14,-47 12,-54 44,-11 62,19 30,50 -19,19 -26,20 -42,4 z"
         id="path72"
         inkscape:connector-curvature="0" />
    </g>
    <g
       id="g78"
       transform="translate(420,840)">
      <path
         d="m 2169,9978 c -23,-19 -49,-65 -49,-86 0,-25 41,-62 68,-62 33,0 75,42 75,76 0,63 -54,104 -94,72 z m 60,-49 c 15,-43 14,-46 -13,-64 -49,-32 -91,23 -54,70 27,35 54,32 67,-6 z"
         id="path76"
         inkscape:connector-curvature="0" />
    </g>
    <g
       id="g82"
       transform="translate(420,840)">
      <path
         d="m 1501,9926 c -15,-16 -25,-40 -26,-63 -3,-47 1,-58 30,-77 18,-12 29,-13 53,-4 35,13 52,44 52,92 0,41 -17,62 -55,70 -25,5 -36,2 -54,-18 z m 79,-59 c 0,-48 -13,-67 -46,-67 -23,0 -34,17 -34,55 0,43 10,55 46,55 33,0 34,-1 34,-43 z"
         id="path80"
         inkscape:connector-curvature="0" />
    </g>
    <g
       id="g110"
       transform="translate(-4530,-1410)">
      <path
         d="m 5678,9856 c -10,-7 -18,-18 -18,-25 0,-6 8,-11 18,-11 13,-1 12,-4 -7,-14 -14,-8 -19,-16 -13,-20 13,-8 187,-9 243,-1 81,11 109,12 109,6 0,-4 -44,-12 -97,-19 -178,-24 -175,-23 -161,-39 10,-12 27,-14 75,-10 89,7 86,-10 -4,-28 -36,-7 -44,-30 -15,-39 10,-4 39,1 63,9 69,25 113,33 134,24 18,-7 17,-8 -5,-9 -32,-2 -133,-51 -138,-67 -5,-17 38,-17 63,0 11,7 42,26 68,41 45,25 48,26 37,7 -6,-12 -14,-21 -19,-21 -19,0 -79,-57 -72,-69 9,-15 53,1 89,33 30,26 28,11 -3,-26 -24,-29 -32,-48 -19,-48 7,0 136,102 162,127 17,17 22,16 22,-1 0,-8 -8,-17 -18,-20 -22,-7 -142,-121 -142,-135 0,-27 21,-12 133,92 51,47 43,20 -11,-37 -35,-37 -52,-63 -52,-80 0,-25 1,-25 35,13 19,21 35,44 35,50 0,6 7,11 15,11 21,0 19,-6 -14,-53 -36,-51 -48,-87 -29,-87 7,0 35,36 62,80 45,73 66,96 66,70 0,-5 -4,-10 -8,-10 -11,0 -82,-142 -82,-164 0,-11 5,-16 13,-13 11,4 13,-9 10,-66 -3,-51 1,-93 15,-146 l 20,-73 -38,5 c -73,10 -77,-22 -15,-117 24,-37 47,-76 50,-87 4,-10 10,-19 16,-19 5,0 12,-18 15,-40 4,-22 12,-40 19,-40 6,0 22,-11 35,-25 18,-19 21,-28 12,-37 -15,-15 -42,7 -42,33 0,11 -5,19 -11,19 -8,0 -10,-16 -5,-50 4,-27 4,-72 0,-98 l -6,-49 -73,5 -73,4 -33,-35 c -42,-45 -88,-108 -124,-170 -15,-26 -38,-56 -52,-67 -26,-20 -28,-48 -3,-60 34,-17 123,-30 254,-36 l 138,-7 -6,-36 c -3,-20 -8,-75 -12,-121 -6,-79 -4,-87 18,-121 21,-30 26,-51 31,-145 8,-131 16,-163 73,-277 24,-49 44,-94 44,-100 0,-7 -13,-25 -28,-42 -82,-88 -119,-187 -133,-348 -17,-194 10,-297 84,-328 15,-7 26,-17 24,-23 -3,-10 -100,-76 -137,-93 -8,-4 -19,-11 -25,-15 -5,-5 -31,-25 -57,-45 -27,-19 -48,-42 -48,-49 0,-8 -4,-14 -10,-14 -18,0 -11,-36 10,-55 13,-12 36,-19 58,-19 20,1 29,-1 20,-3 -26,-6 -22,-23 5,-24 12,0 40,-2 62,-4 22,-1 77,-3 121,-4 l 82,-1 6,-34 c 6,-31 14,-38 71,-65 65,-31 101,-39 90,-21 -4,6 1,7 11,3 11,-4 13,-8 6,-11 -22,-7 -12,-19 16,-19 15,1 32,-1 37,-2 6,-2 27,-3 48,-2 26,1 37,6 37,16 0,11 7,14 26,11 36,-7 43,-16 13,-17 -19,-1 -16,-3 11,-10 19,-4 42,-6 50,-3 30,11 166,34 198,34 33,0 39,2 107,37 51,26 66,62 42,102 -9,16 -17,36 -17,45 0,9 -4,16 -9,16 -9,0 -37,69 -47,117 -6,30 -4,32 32,42 22,6 47,11 57,11 56,0 76,35 87,152 13,138 83,282 230,472 25,32 63,84 84,115 22,31 42,58 46,61 9,7 80,153 80,165 0,6 12,28 26,48 24,36 26,46 27,170 4,256 -22,328 -159,460 -46,44 -84,87 -84,95 0,15 -30,46 -135,134 -110,93 -166,150 -177,177 -11,31 -4,75 22,129 11,23 20,52 20,65 0,14 7,30 15,37 8,7 15,20 15,29 0,9 7,29 15,45 20,38 19,89 -2,108 -10,9 -53,22 -96,28 -73,12 -79,12 -92,-6 -8,-10 -17,-35 -20,-54 -4,-19 -12,-46 -19,-60 -8,-14 -24,-58 -36,-98 -13,-40 -27,-75 -31,-78 -5,-3 -9,-14 -9,-24 0,-21 -79,-64 -137,-76 -25,-5 -31,-2 -36,16 -5,20 -7,20 -52,-14 -36,-28 -56,-36 -88,-36 -47,0 -109,26 -147,60 -21,18 -26,19 -28,6 -2,-9 -5,-16 -6,-16 -9,0 -125,63 -142,77 -21,17 -59,112 -89,221 -18,63 -34,82 -69,82 -23,0 -26,4 -27,38 0,20 -3,63 -6,96 -8,86 5,189 23,182 8,-3 21,-9 29,-12 10,-4 15,0 15,10 0,9 -5,16 -10,16 -6,0 -15,11 -22,24 -9,20 -7,31 11,61 11,20 21,42 21,49 0,7 11,25 25,40 26,28 33,42 15,31 -5,-3 -19,2 -30,12 -12,10 -31,26 -43,36 -13,11 -23,14 -25,8 -4,-13 -22,-5 -22,10 0,19 43,8 62,-16 11,-14 24,-22 30,-19 6,4 14,0 19,-7 7,-11 9,-10 9,4 0,9 -4,17 -10,17 -16,0 -12,17 6,24 8,3 13,2 10,-3 -3,-4 6,-14 20,-21 20,-11 27,-11 37,0 10,10 8,12 -10,7 -13,-3 -23,-1 -23,4 0,5 8,9 18,10 35,1 54,8 73,25 23,21 36,13 14,-9 -22,-23 -19,-27 20,-27 19,0 35,5 35,11 0,8 5,7 15,-1 9,-7 38,-23 65,-36 46,-21 50,-22 50,-5 0,33 -73,81 -125,81 -19,0 -35,2 -35,5 0,2 11,15 24,28 19,19 40,26 98,32 126,13 296,6 362,-16 32,-11 61,-18 63,-15 3,3 12,-1 20,-9 8,-8 27,-15 43,-15 20,0 28,-4 24,-13 -5,-14 39,-57 59,-57 8,0 20,-12 27,-27 8,-19 14,-23 18,-14 2,7 0,16 -4,20 -5,3 -10,17 -10,31 -2,23 1,25 31,22 24,-3 35,-10 39,-25 5,-20 4,-21 -8,-4 -18,23 -46,22 -46,-3 0,-16 7,-20 33,-21 21,-1 25,-3 11,-6 -32,-6 -36,-40 -11,-82 25,-40 50,-91 52,-106 0,-5 6,-21 12,-35 27,-63 25,-198 -3,-297 -5,-18 -2,-23 14,-23 25,0 47,72 40,135 -5,43 6,62 18,30 4,-8 10,-13 14,-10 7,5 -5,88 -15,106 -4,5 -2,9 4,9 6,0 15,-8 20,-19 11,-20 60,-55 67,-48 3,2 -4,28 -15,58 -21,53 -19,77 2,48 13,-17 67,-55 67,-46 0,18 -34,79 -57,104 -30,32 -58,83 -45,83 4,0 31,-27 60,-60 51,-57 82,-75 82,-47 0,20 -49,86 -105,141 -28,28 -54,59 -58,69 -11,29 -42,17 -41,-16 1,-22 -3,-27 -21,-27 -28,0 -39,34 -19,55 11,11 29,13 66,9 56,-5 88,-22 67,-35 -14,-8 136,-169 157,-169 23,0 25,19 5,39 -11,11 -25,29 -31,42 -9,16 -14,18 -20,9 -4,-7 -13,-9 -21,-5 -9,6 -6,11 11,17 19,7 32,3 66,-22 51,-36 54,-37 54,-6 0,18 -15,33 -65,66 -36,23 -65,46 -65,51 0,5 -6,9 -14,9 -8,0 -18,5 -21,11 -14,22 5,20 50,-5 26,-15 52,-26 58,-25 27,3 36,-2 31,-16 -4,-9 -1,-15 7,-15 8,0 27,-7 43,-15 16,-9 31,-13 34,-10 8,8 -20,35 -37,35 -9,0 -22,10 -29,21 -13,21 -13,21 24,14 21,-4 51,-13 67,-22 38,-19 62,-11 47,17 -6,11 -19,20 -30,20 -18,0 -36,17 -28,26 3,2 27,-3 54,-11 27,-8 50,-15 52,-15 1,0 2,9 2,19 0,11 -9,22 -20,26 -15,5 -18,12 -14,34 3,16 2,31 -4,35 -5,3 -40,2 -78,-3 -38,-5 -116,-5 -174,0 -126,9 -292,19 -415,25 -107,4 -212,17 -325,38 -67,13 -95,14 -149,5 -88,-15 -913,-10 -996,6 -11,2 -28,-2 -37,-9 z m 192,-41 c 10,-13 9,-15 -8,-15 -15,0 -20,5 -16,15 4,8 7,15 9,15 1,0 8,-7 15,-15 z m 370,-25 c 0,-5 -5,-10 -11,-10 -5,0 -7,5 -4,10 3,6 8,10 11,10 2,0 4,-4 4,-10 z m -60,-20 c 0,-5 -7,-10 -16,-10 -8,0 -12,5 -9,10 3,6 10,10 16,10 5,0 9,-4 9,-10 z m 1460,-35 c 0,-8 -7,-15 -15,-15 -26,0 -18,20 13,29 1,1 2,-6 2,-14 z m -455,-25 c -3,-5 -13,-6 -21,-3 -12,4 -13,8 -3,14 15,9 32,2 24,-11 z m -1105,-15 c 0,-14 -4,-25 -9,-25 -4,0 -6,11 -3,25 2,14 6,25 8,25 2,0 4,-11 4,-25 z m 55,15 c 3,-5 2,-10 -4,-10 -5,0 -13,5 -16,10 -3,6 -2,10 4,10 5,0 13,-4 16,-10 z m -29,-35 c -3,-9 0,-15 9,-15 8,0 15,-4 15,-10 0,-14 -17,-12 -27,3 -12,19 -12,37 -1,37 6,0 8,-7 4,-15 z m 118,-30 c -4,-8 -10,-15 -15,-15 -5,0 -9,7 -9,15 0,8 7,15 15,15 9,0 12,-6 9,-15 z m 1326,-5 c 0,-5 -4,-10 -10,-10 -5,0 -10,5 -10,10 0,6 5,10 10,10 6,0 10,-4 10,-10 z m 30,-16 c 0,-8 3,-13 8,-13 17,3 32,-2 32,-10 0,-5 -15,-5 -36,-1 -36,8 -57,20 -36,20 7,0 12,7 12,16 0,8 5,12 10,9 6,-3 10,-13 10,-21 z m -1330,-6 c 0,-18 -2,-20 -9,-8 -6,8 -7,18 -5,22 9,14 14,9 14,-14 z m 1186,-143 c -11,-8 -22,-12 -25,-9 -6,6 19,24 34,24 6,-1 1,-7 -9,-15 z m 29,-35 c 3,-5 1,-10 -4,-10 -6,0 -11,5 -11,10 0,6 2,10 4,10 3,0 8,-4 11,-10 z m -45,-50 c 0,-5 -2,-10 -4,-10 -3,0 -8,5 -11,10 -3,6 -1,10 4,10 6,0 11,-4 11,-10 z M 6350,8927 c 24,-72 51,-140 61,-151 21,-22 25,-41 7,-29 -7,5 -30,19 -50,32 -21,12 -38,28 -38,35 0,6 -10,22 -23,36 -12,14 -34,41 -47,60 -13,19 -33,44 -43,55 -23,26 -33,65 -18,75 7,4 23,5 37,2 17,-3 24,0 24,10 0,11 7,14 23,11 20,-4 30,-23 67,-136 z m 907,127 c 9,-8 25,-14 37,-13 82,6 89,-3 57,-74 -11,-23 -25,-60 -32,-82 -13,-42 -51,-109 -69,-120 -17,-10 -12,-38 6,-31 11,4 14,1 12,-11 -2,-13 -13,-18 -38,-19 -19,0 -67,-4 -106,-8 -47,-6 -74,-5 -78,2 -3,6 2,13 12,16 21,7 25,15 72,131 51,123 70,178 70,197 0,15 12,25 33,27 5,1 15,-6 24,-15 z m -717,-368 c 70,-10 84,-15 82,-29 -5,-30 -56,-105 -79,-118 -13,-7 -23,-18 -23,-25 0,-6 -20,-17 -45,-23 -25,-6 -45,-16 -45,-21 0,-17 88,-12 102,5 49,59 58,59 58,0 0,-65 -25,-79 -135,-73 -109,6 -120,15 -130,111 -13,123 -12,168 5,178 21,12 111,10 210,-5 z m 711,-33 c 5,-14 8,-31 6,-36 -6,-20 -347,-6 -347,14 0,5 -4,9 -9,9 -4,0 -9,-28 -10,-62 -1,-54 -6,-126 -10,-150 -2,-13 -66,-28 -120,-28 -33,0 -70,7 -91,18 -38,19 -37,8 -27,152 5,81 13,88 61,54 37,-25 118,-14 158,23 18,16 86,18 194,7 31,-4 69,0 100,9 70,22 83,21 95,-10 z m -258,-70 c 16,-15 38,-18 139,-17 116,1 120,1 146,-25 16,-14 52,-49 82,-77 71,-66 119,-125 114,-138 -7,-19 -87,-64 -144,-81 -30,-9 -63,-21 -72,-26 -37,-19 -73,-8 -167,53 -53,34 -113,75 -133,92 -37,29 -38,31 -38,95 0,104 9,141 33,141 11,0 29,-8 40,-17 z m -779,-38 c 17,-2 32,-4 34,-5 3,-3 19,-7 36,-9 9,-1 16,-20 21,-55 3,-30 15,-66 26,-80 10,-13 19,-27 19,-31 0,-8 -106,-1 -137,10 -13,4 -23,3 -23,-2 0,-6 18,-15 40,-22 47,-14 145,-7 207,16 52,19 76,8 42,-18 -13,-10 -31,-19 -40,-19 -8,0 -24,-8 -35,-18 -11,-10 -37,-22 -59,-27 -46,-8 -153,-10 -175,-2 -8,3 -52,8 -98,11 -90,5 -110,12 -93,29 6,6 11,19 11,28 0,10 6,24 14,31 14,15 47,74 46,83 -1,3 20,26 45,51 36,35 51,43 68,38 11,-4 35,-8 51,-9 z m 406,-122 c 0,-5 -5,-15 -10,-23 -8,-12 -10,-11 -10,8 0,12 5,22 10,22 6,0 10,-3 10,-7 z m 108,-41 c 34,-2 83,1 109,7 42,11 48,10 66,-7 19,-20 19,-20 -4,-32 -29,-16 -232,-8 -254,10 -22,18 -20,44 3,35 9,-5 45,-10 80,-13 z m -343,-2 c 3,-5 -1,-10 -10,-10 -9,0 -13,5 -10,10 3,6 8,10 10,10 2,0 7,-4 10,-10 z m 156,-221 -7,-207 -30,-26 c -25,-22 -35,-25 -74,-20 -53,8 -68,15 -95,44 -16,17 -19,35 -19,93 2,88 11,151 24,155 6,2 17,10 24,18 8,8 17,14 21,14 3,0 18,14 32,30 13,17 30,30 37,30 6,0 29,18 51,39 22,22 41,38 41,38 1,-1 -1,-95 -5,-208 z m 1006,155 c -4,-4 3,-16 16,-26 77,-67 136,-132 162,-178 55,-100 58,-112 63,-241 4,-119 2,-130 -26,-215 -37,-108 -65,-173 -103,-235 -16,-25 -29,-52 -29,-59 0,-8 -24,-45 -54,-84 -30,-39 -62,-85 -72,-102 -21,-35 -82,-116 -141,-186 -48,-59 -69,-117 -84,-233 -16,-131 -16,-130 -94,-145 -96,-18 -375,-9 -432,15 -53,21 -58,41 -49,208 15,275 35,378 93,474 10,17 33,55 50,84 18,30 75,99 127,154 56,59 91,104 86,109 -16,16 -65,-22 -112,-86 -15,-20 -33,-42 -40,-50 -15,-16 -126,-143 -153,-175 -27,-32 -71,-151 -96,-257 -16,-67 -22,-125 -23,-238 -1,-144 -2,-149 -21,-143 -11,4 -60,10 -109,16 -66,6 -95,14 -110,28 -20,19 -44,88 -66,195 -18,84 11,225 62,306 19,30 38,65 42,78 4,12 19,30 32,39 25,16 26,15 62,-26 34,-38 41,-42 77,-39 28,2 41,8 43,21 2,9 -2,17 -10,17 -23,0 -112,94 -138,145 -14,28 -33,56 -42,63 -9,6 -20,27 -23,45 -4,17 -12,37 -17,44 -17,21 -63,222 -53,231 3,3 29,5 58,3 42,-2 59,2 87,23 60,44 80,49 130,36 111,-29 285,-33 333,-8 13,7 17,5 17,-11 0,-10 14,-31 31,-45 26,-22 40,-26 94,-26 59,0 65,2 94,35 35,40 40,57 45,135 2,30 4,60 5,67 0,6 11,15 22,18 32,10 111,66 134,95 11,14 30,35 42,46 13,12 23,26 23,32 0,11 49,51 64,52 5,0 6,-3 3,-6 z m -469,-63 c 31,-21 76,-49 99,-62 l 43,-24 v -88 c 0,-129 -29,-178 -118,-198 -29,-6 -38,-3 -64,20 -34,30 -35,39 -38,251 -2,142 -2,140 10,140 6,0 36,-17 68,-39 z m -328,-241 c 0,-5 -5,-10 -11,-10 -5,0 -7,5 -4,10 3,6 8,10 11,10 2,0 4,-4 4,-10 z m -110,-20 c 0,-5 -7,-10 -16,-10 -8,0 -12,5 -9,10 3,6 10,10 16,10 5,0 9,-4 9,-10 z m -3,-1324 c 4,-3 15,-6 26,-6 12,0 17,-5 14,-14 -4,-9 8,-25 29,-41 67,-51 36,-103 -101,-170 -68,-34 -90,-40 -144,-40 -45,0 -66,4 -69,14 -5,15 -18,28 -86,88 -27,23 -45,46 -41,52 3,6 20,18 36,27 28,14 33,14 70,-5 22,-12 44,-21 49,-21 17,0 -2,30 -29,45 l -26,14 33,13 c 18,7 31,17 28,23 -2,5 6,11 18,12 11,0 37,5 56,10 37,10 127,9 137,-1 z m 233,-94 c 0,-12 -50,-33 -61,-27 -23,15 -8,35 26,35 19,0 35,-4 35,-8 z m 268,-7 c 6,-3 12,-16 12,-30 0,-33 -1,-33 -153,9 -32,9 -67,16 -77,16 -11,0 -20,4 -20,9 0,8 210,4 238,-4 z m -122,-51 c 39,-13 82,-24 97,-24 35,0 38,-8 18,-56 -22,-57 -97,-140 -145,-163 -46,-22 -210,-30 -321,-17 -66,9 -165,51 -165,71 0,7 24,29 53,48 88,58 88,58 122,31 17,-13 34,-24 39,-24 8,0 33,-26 66,-67 6,-7 10,-17 10,-23 0,-5 5,-10 10,-10 13,0 13,23 -1,52 -10,23 -64,66 -116,93 l -27,14 35,15 c 39,16 74,12 102,-12 16,-15 20,-14 45,1 15,10 42,25 60,34 17,9 32,20 32,25 0,14 -16,9 -54,-17 -42,-29 -44,-29 -94,-13 l -37,11 60,33 c 69,37 96,36 211,-2 z m -719,-46 c 29,-29 53,-56 53,-62 0,-13 -167,-1 -185,14 -8,7 -15,20 -15,30 0,20 57,70 79,70 9,0 39,-23 68,-52 z m 902,-75 c 21,-44 11,-83 -21,-83 -10,0 -31,-6 -46,-14 -15,-7 -40,-16 -57,-20 l -30,-8 26,29 c 14,15 42,52 63,81 21,28 39,52 42,52 2,0 12,-17 23,-37 z m -819,-23 c 0,-5 -4,-10 -10,-10 -5,0 -10,5 -10,10 0,6 5,10 10,10 6,0 10,-4 10,-10 z"
         id="path84"
         inkscape:connector-curvature="0" />
      <g
         id="g88">
        <path
           d="m 6490,8430 c -34,-7 -34,-7 13,-9 30,0 46,3 42,9 -3,6 -9,9 -13,9 -4,-1 -23,-5 -42,-9 z"
           id="path86"
           inkscape:connector-curvature="0" />
      </g>
      <g
         id="g92">
        <path
           d="m 6965,8480 c -3,-5 1,-10 9,-10 9,0 16,-7 16,-15 0,-8 -4,-15 -10,-15 -23,0 -8,-21 28,-38 20,-10 63,-33 96,-51 39,-22 61,-30 68,-23 7,7 -2,17 -28,29 -22,11 -38,24 -37,30 1,6 -7,19 -17,28 -11,10 -20,24 -20,31 0,28 -91,57 -105,34 z m 105,-72 c 0,-15 -28,-8 -34,8 -10,26 5,39 21,19 7,-11 13,-22 13,-27 z"
           id="path90"
           inkscape:connector-curvature="0" />
      </g>
      <g
         id="g96">
        <path
           d="m 7205,8300 c 3,-5 10,-10 16,-10 5,0 9,5 9,10 0,6 -7,10 -16,10 -8,0 -12,-4 -9,-10 z"
           id="path94"
           inkscape:connector-curvature="0" />
      </g>
      <g
         id="g100">
        <path
           d="m 6386,8059 c -50,-60 -26,-129 46,-129 29,0 38,5 53,33 21,40 15,77 -17,107 -30,28 -52,25 -82,-11 z m 84,-48 c 0,-41 -22,-65 -52,-58 -37,10 -46,62 -17,93 20,21 23,22 45,7 16,-10 24,-25 24,-42 z"
           id="path98"
           inkscape:connector-curvature="0" />
      </g>
      <g
         id="g104">
        <path
           d="m 7092,8063 c -16,-6 -42,-57 -42,-83 0,-54 88,-81 126,-39 22,24 25,89 5,113 -13,15 -61,20 -89,9 z m 63,-30 c 12,-11 15,-25 11,-47 -9,-43 -18,-48 -54,-30 -36,17 -43,52 -16,78 20,20 38,20 59,-1 z"
           id="path102"
           inkscape:connector-curvature="0" />
      </g>
      <g
         id="g108">
        <path
           d="m 6553,6648 c -4,-7 -19,-19 -33,-26 -40,-21 -85,-60 -77,-68 3,-4 32,10 62,32 66,45 80,60 66,68 -5,4 -13,1 -18,-6 z"
           id="path106"
           inkscape:connector-curvature="0" />
      </g>
    </g>
    <g
       id="g114"
       transform="translate(-4530,-1410)">
      <path
         d="m 6904,9730 c -52,-24 -114,-81 -96,-88 7,-2 21,3 30,11 31,26 75,34 152,26 41,-4 77,-5 78,-4 12,11 -14,45 -42,59 -44,21 -71,20 -122,-4 z"
         id="path112"
         inkscape:connector-curvature="0" />
    </g>
    <g
       id="g118"
       transform="translate(-4530,-1410)">
      <path
         d="m 6360,9650 c 0,-5 5,-10 11,-10 5,0 7,5 4,10 -3,6 -8,10 -11,10 -2,0 -4,-4 -4,-10 z"
         id="path116"
         inkscape:connector-curvature="0" />
    </g>
    <g
       id="g122"
       transform="translate(-4530,-1410)">
      <path
         d="m 7360,9653 c 0,-5 5,-15 10,-23 8,-12 10,-11 10,8 0,12 -4,22 -10,22 -5,0 -10,-3 -10,-7 z"
         id="path120"
         inkscape:connector-curvature="0" />
    </g>
    <g
       id="g130"
       transform="translate(-4530,-1410)">
      <path
         d="m 6920,9622 c -39,-19 -54,-52 -47,-109 6,-60 41,-93 95,-92 60,2 85,13 105,47 24,41 15,101 -19,135 -30,30 -93,39 -134,19 z m 75,-16 c 36,-15 55,-42 55,-75 0,-18 -3,-20 -19,-9 -16,10 -23,9 -38,-3 -10,-9 -26,-19 -35,-22 -26,-9 -22,-26 7,-33 27,-7 34,-24 10,-24 -9,0 -29,7 -45,15 -52,27 -50,101 4,147 26,21 20,21 61,4 z"
         id="path124"
         inkscape:connector-curvature="0" />
      <g
         id="g128">
        <path
           d="m 6926,9575 c -20,-20 -21,-55 -2,-55 8,0 17,4 20,9 3,4 20,11 37,15 22,4 30,11 27,23 -4,24 -60,29 -82,8 z"
           id="path126"
           inkscape:connector-curvature="0" />
      </g>
    </g>
    <g
       id="g138"
       transform="translate(-4530,-1410)">
      <path
         d="m 6426,9597 c -45,-45 -47,-127 -4,-167 25,-23 91,-27 132,-9 36,17 60,68 52,110 -11,58 -39,82 -101,87 -47,4 -57,1 -79,-21 z m 132,-35 c 18,-19 22,-32 18,-56 -8,-37 -56,-90 -69,-77 -7,7 1,21 22,40 27,26 31,33 21,51 -13,25 -35,26 -52,1 -7,-10 -22,-20 -33,-22 -10,-2 -22,-15 -26,-29 l -6,-25 -11,27 c -13,30 -7,74 12,99 25,35 88,31 124,-9 z"
         id="path132"
         inkscape:connector-curvature="0" />
      <g
         id="g136">
        <path
           d="m 6457,9562 c -16,-17 -14,-32 4,-32 14,0 39,31 34,41 -9,14 -20,11 -38,-9 z"
           id="path134"
           inkscape:connector-curvature="0" />
      </g>
    </g>
    <g
       id="g142"
       transform="translate(-4530,-1410)">
      <path
         d="m 6655,9493 c -22,-37 -45,-79 -51,-94 -7,-15 -23,-29 -37,-33 -14,-3 -29,-15 -32,-27 -4,-11 -50,-62 -102,-113 -106,-103 -106,-103 -78,-208 25,-95 40,-88 38,16 -1,67 2,89 15,104 9,11 33,40 52,63 19,24 47,57 62,72 15,16 30,38 33,48 9,29 28,23 22,-6 -7,-37 29,-84 86,-112 l 47,-24 47,23 c 26,13 65,41 88,64 64,62 67,62 136,-9 84,-85 113,-130 105,-162 -4,-15 -2,-25 4,-25 6,0 8,-5 5,-10 -4,-6 -10,-8 -14,-5 -10,6 -24,-72 -16,-86 10,-15 25,-11 32,9 3,9 14,35 24,57 35,78 34,88 -12,139 -23,25 -48,46 -56,46 -7,0 -13,6 -13,14 0,7 -10,20 -23,29 -13,8 -43,34 -68,57 -74,70 -119,92 -88,42 11,-17 9,-24 -12,-49 -29,-36 -117,-93 -143,-93 -10,0 -36,14 -57,31 -29,23 -39,38 -39,59 0,16 4,31 9,35 5,3 15,22 21,43 15,49 30,82 52,111 18,24 24,61 11,61 -5,0 -26,-30 -48,-67 z m 5,-263 c 0,-5 -5,-10 -11,-10 -5,0 -7,5 -4,10 3,6 8,10 11,10 2,0 4,-4 4,-10 z"
         id="path140"
         inkscape:connector-curvature="0" />
    </g>
    <g
       id="g146"
       transform="translate(-4530,-1410)">
      <path
         d="m 7215,9188 c -9,-22 -2,-68 10,-71 14,-3 19,63 6,76 -7,7 -12,5 -16,-5 z"
         id="path144"
         inkscape:connector-curvature="0" />
    </g>
    <g
       id="g150"
       transform="translate(-4530,-1410)">
      <path
         d="m 6488,9133 c -14,-3 -18,-15 -18,-47 0,-49 7,-61 27,-44 11,8 12,7 7,-5 -3,-10 4,-26 18,-40 25,-25 172,-87 206,-87 35,0 127,32 148,51 11,10 24,19 30,19 5,1 29,18 53,39 36,32 43,43 38,63 -11,43 -46,50 -277,53 -118,2 -223,1 -232,-2 z m 434,-39 c 16,-10 -6,-25 -64,-46 -74,-26 -246,-24 -300,3 -36,19 -47,37 -30,54 8,8 379,-2 394,-11 z m -182,-154 c -19,-13 -30,-13 -30,0 0,6 10,10 23,10 18,0 19,-2 7,-10 z"
         id="path148"
         inkscape:connector-curvature="0" />
    </g>
    <g
       id="g154"
       transform="translate(-4530,-1410)">
      <path
         d="m 6440,9050 c 0,-36 11,-70 22,-70 5,0 6,16 2,38 -8,45 -24,66 -24,32 z"
         id="path152"
         inkscape:connector-curvature="0" />
    </g>
    <g
       id="g158"
       transform="translate(-4530,-1410)">
      <path
         d="m 6995,8988 c -20,-24 -23,-33 -13,-39 16,-10 58,28 58,53 0,27 -15,22 -45,-14 z"
         id="path156"
         inkscape:connector-curvature="0" />
    </g>
    <g
       id="g162"
       transform="translate(-4530,-1410)">
      <path
         d="m 6970,8930 c 0,-5 5,-10 10,-10 6,0 10,5 10,10 0,6 -4,10 -10,10 -5,0 -10,-4 -10,-10 z"
         id="path160"
         inkscape:connector-curvature="0" />
    </g>
    <g
       id="g166"
       transform="translate(-4530,-1410)">
      <path
         d="m 6708,8843 c -27,-7 -22,-21 14,-39 31,-16 32,-16 50,6 10,12 15,26 12,31 -5,9 -45,10 -76,2 z"
         id="path164"
         inkscape:connector-curvature="0" />
    </g>
    <g
       id="g170"
       transform="translate(420,840)">
      <path
         d="m 3450,8640 c 0,-5 5,-10 10,-10 6,0 10,5 10,10 0,6 -4,10 -10,10 -5,0 -10,-4 -10,-10 z"
         id="path168"
         inkscape:connector-curvature="0" />
    </g>
    <g
       id="g174"
       transform="translate(-4530,-1410)">
      <path
         d="m 5856,8553 c -7,-7 13,-33 25,-33 5,0 9,6 9,14 0,15 -24,28 -34,19 z"
         id="path172"
         inkscape:connector-curvature="0" />
    </g>
    <g
       id="g178"
       transform="translate(420,840)">
      <path
         d="m 2655,8330 c 3,-5 10,-10 16,-10 5,0 9,5 9,10 0,6 -7,10 -16,10 -8,0 -12,-4 -9,-10 z"
         id="path176"
         inkscape:connector-curvature="0" />
    </g>
    <g
       id="g622"
       transform="translate(-4680,90)">
      <path
         d="m 6808,4334 c -14,-13 -198,-24 -393,-23 -121,1 -229,1 -240,1 -64,-2 -201,-1 -346,3 -178,5 -222,-1 -227,-30 -4,-16 1,-17 42,-11 46,7 66,-6 25,-17 -26,-7 -19,-33 7,-29 10,1 50,7 88,13 83,13 97,6 24,-11 -57,-14 -97,-37 -98,-57 0,-21 58,-16 69,5 7,13 32,22 88,31 131,22 156,24 150,13 -4,-5 -30,-12 -59,-15 -63,-8 -167,-43 -188,-63 -27,-27 7,-34 57,-13 25,10 52,19 62,19 9,0 21,4 26,9 11,11 126,33 133,26 2,-2 -9,-7 -24,-10 -74,-17 -188,-62 -210,-84 -29,-29 -31,-45 -5,-36 16,5 18,2 14,-15 -7,-28 29,-27 70,2 32,23 128,60 136,52 2,-2 -14,-12 -35,-21 -68,-31 -120,-83 -83,-83 11,0 93,45 119,65 22,17 149,69 155,63 4,-4 -46,-32 -183,-104 -24,-12 -51,-43 -52,-57 0,-5 10,-6 23,-2 41,12 66,28 60,39 -3,6 -3,8 2,4 5,-5 22,3 39,15 42,32 146,87 146,78 0,-4 -10,-12 -23,-18 -26,-12 -153,-107 -180,-135 -19,-19 -15,-38 6,-38 14,0 87,68 87,81 0,5 5,9 11,9 6,0 31,14 55,32 24,17 47,29 50,26 3,-3 -15,-20 -39,-37 -24,-16 -66,-54 -91,-82 -41,-45 -45,-54 -31,-62 9,-5 30,-7 46,-5 28,4 30,3 24,-24 -9,-40 4,-34 49,22 22,28 41,48 43,46 3,-2 -7,-27 -21,-55 -14,-28 -26,-55 -26,-61 0,-18 29,-10 35,10 3,11 11,20 17,20 6,0 7,-8 3,-17 -12,-30 -13,-48 -3,-60 5,-7 10,-54 11,-105 1,-92 1,-93 -26,-106 -27,-13 -34,-26 -18,-36 5,-3 12,-21 15,-40 4,-19 19,-56 34,-81 15,-26 35,-61 45,-78 10,-18 43,-57 73,-87 30,-31 54,-59 54,-62 0,-4 -17,-16 -38,-28 -53,-30 -60,-59 -57,-225 1,-77 3,-143 4,-147 0,-4 16,-14 35,-23 34,-16 94,-16 206,0 25,4 41,3 35,-2 -5,-4 -17,-21 -25,-38 -12,-23 -24,-31 -49,-33 -27,-3 -32,-7 -28,-23 7,-25 -17,-36 -38,-19 -15,13 -15,13 -29,-34 -10,-31 -215,-72 -231,-46 -4,7 -2,16 6,21 11,6 10,9 -5,15 -11,4 -21,2 -27,-7 -23,-38 -65,88 -50,149 23,90 39,129 67,159 27,28 38,33 79,33 33,0 45,4 42,13 -3,8 -22,11 -53,10 -43,-1 -53,-6 -81,-40 -44,-52 -73,-137 -80,-236 l -6,-83 36,-31 c 61,-54 197,-57 281,-8 24,14 46,22 49,18 4,-3 4,-41 1,-83 -6,-66 -4,-81 15,-118 12,-23 24,-69 27,-103 8,-107 42,-215 91,-299 39,-65 40,-73 12,-99 -11,-10 -54,-85 -95,-166 -81,-162 -85,-183 -59,-285 8,-32 17,-81 20,-110 3,-28 9,-60 15,-70 5,-10 10,-30 10,-43 0,-14 7,-30 15,-37 8,-7 15,-22 15,-34 0,-29 9,-38 54,-59 36,-17 37,-19 22,-36 -9,-10 -41,-31 -71,-46 -70,-37 -165,-124 -165,-152 0,-32 16,-69 40,-91 27,-25 136,-47 190,-38 26,4 40,2 43,-7 4,-8 8,-9 14,-1 7,9 72,26 150,38 31,5 32,4 35,-36 3,-36 7,-43 42,-61 34,-18 56,-20 200,-19 131,1 163,4 172,17 13,17 39,21 28,4 -5,-9 1,-10 22,-5 16,3 61,11 99,16 119,16 197,36 263,69 55,28 62,35 62,62 0,16 -16,60 -36,97 -54,98 -84,161 -84,172 0,5 12,12 28,15 42,9 73,27 95,57 17,22 22,56 33,192 13,159 29,226 54,226 6,0 10,11 10,24 0,14 8,31 18,38 21,15 97,142 107,178 4,14 13,32 20,40 25,28 72,195 79,275 9,107 -19,282 -56,355 -4,8 -21,47 -39,85 -68,152 -81,174 -124,214 -45,41 -65,51 -65,30 0,-6 29,-51 65,-100 36,-48 65,-93 65,-99 0,-6 13,-35 29,-65 27,-51 50,-116 72,-205 5,-19 11,-80 14,-136 5,-84 2,-112 -16,-170 -31,-101 -101,-237 -157,-302 -58,-67 -72,-92 -72,-126 0,-14 -9,-54 -19,-88 -11,-35 -24,-106 -31,-158 -21,-182 -26,-195 -70,-215 -22,-10 -40,-21 -40,-26 0,-12 -168,-47 -263,-54 -99,-7 -270,10 -303,31 -36,22 -48,119 -48,379 1,249 4,311 15,294 4,-7 10,-2 14,12 4,13 17,35 30,49 13,14 37,54 55,90 17,36 38,72 46,81 8,8 14,22 14,29 0,8 8,23 18,34 28,32 43,74 31,82 -6,4 -14,2 -18,-3 -62,-96 -96,-143 -103,-143 -4,0 -8,-9 -8,-19 0,-11 -4,-21 -8,-23 -18,-7 -104,-150 -118,-195 -27,-86 -21,-469 10,-648 6,-37 44,-64 108,-79 52,-11 52,-11 55,-54 2,-32 -1,-42 -12,-42 -18,0 -19,12 -3,28 24,24 -20,13 -50,-13 -17,-14 -33,-25 -37,-25 -3,0 -26,-13 -50,-30 -24,-16 -48,-30 -53,-30 -6,0 -12,-7 -16,-15 -3,-9 -18,-15 -35,-15 -16,0 -33,-4 -36,-10 -3,-5 -22,-10 -40,-10 -19,0 -52,-6 -72,-14 -21,-8 -76,-20 -121,-26 -73,-10 -90,-9 -132,6 -46,16 -70,43 -70,78 0,19 66,86 85,86 9,0 29,-6 43,-14 15,-7 40,-19 55,-27 15,-7 42,-27 60,-45 17,-18 34,-31 38,-28 15,9 -4,44 -35,63 -54,36 -68,45 -94,68 l -25,23 47,21 47,20 49,-41 50,-42 44,23 c 50,24 121,87 111,97 -3,3 -16,0 -28,-8 -12,-7 -44,-27 -70,-44 l -48,-30 -32,19 c -91,52 -81,74 32,76 116,2 205,20 209,43 3,16 0,18 -19,12 -85,-27 -227,-34 -290,-14 -52,15 -71,39 -76,95 -2,26 -13,79 -25,118 -11,38 -22,77 -23,85 -1,8 -5,23 -10,33 -11,27 2,132 25,201 22,65 67,163 85,186 7,8 15,27 19,41 4,21 12,26 33,26 16,0 22,-2 15,-4 -10,-4 -10,-8 -1,-19 6,-8 15,-11 20,-8 5,3 9,-1 9,-8 0,-15 60,-68 78,-68 6,0 12,-6 12,-14 0,-8 9,-17 20,-21 47,-15 55,30 10,63 -16,12 -35,22 -41,22 -22,0 -125,118 -152,172 -25,53 -59,128 -61,138 -1,3 -7,15 -14,26 -6,12 -9,23 -7,26 2,2 -2,22 -10,43 -8,22 -14,56 -15,76 v 36 l 58,6 c 47,5 61,11 79,34 12,15 25,40 28,55 8,33 21,44 38,30 42,-35 350,-42 372,-8 8,12 12,7 25,-27 22,-60 70,-90 134,-84 43,4 55,10 89,47 l 40,42 -7,72 c -3,39 -9,86 -12,104 -6,28 -4,32 16,32 23,0 23,0 4,-22 l -19,-21 35,8 c 19,4 72,6 117,5 79,-1 85,0 129,32 71,51 130,186 89,202 -8,3 -15,11 -15,17 0,18 -80,113 -118,140 -19,13 -41,31 -50,39 -9,9 -35,28 -57,43 -87,59 -83,49 -40,114 22,32 54,75 72,96 18,20 33,41 33,45 0,5 16,26 35,48 19,21 35,47 35,57 0,19 -44,41 -70,34 -12,-3 -16,4 -17,32 -7,255 -10,285 -43,349 -17,35 -30,66 -28,68 3,2 23,-30 47,-71 23,-41 47,-75 53,-75 19,0 1,68 -28,105 -15,20 -24,39 -20,42 4,4 10,3 14,-4 18,-27 84,-94 89,-89 12,12 -22,68 -69,112 -27,25 -46,49 -43,52 4,4 32,-21 64,-56 54,-57 81,-75 81,-53 0,5 -23,32 -51,60 -66,66 -57,78 13,17 48,-42 78,-57 78,-38 -1,10 -53,65 -75,78 -10,6 -21,16 -23,24 -4,11 51,-20 68,-40 3,-3 15,-14 28,-24 43,-37 25,9 -23,57 -25,26 -45,49 -45,52 0,13 19,2 70,-40 52,-42 80,-55 80,-37 0,12 -61,64 -95,82 -18,9 -23,16 -14,18 22,4 82,-23 103,-47 22,-24 46,-28 46,-7 0,7 -30,29 -67,49 -100,51 -133,71 -133,80 0,10 4,9 58,-18 28,-14 54,-25 58,-25 5,0 27,-14 48,-30 38,-29 76,-39 76,-21 0,14 -20,27 -115,75 -87,44 -105,63 -28,30 21,-9 47,-20 58,-24 11,-5 36,-15 57,-24 40,-18 68,-21 68,-7 0,12 -51,37 -92,46 -34,7 -123,54 -116,61 7,6 118,-35 182,-67 35,-18 62,-27 68,-21 10,10 -31,40 -71,52 -23,7 -24,8 -8,15 10,4 28,3 40,-3 32,-16 70,-19 74,-5 3,7 -14,17 -39,24 -24,7 -47,16 -53,21 -13,11 0,10 70,-7 52,-12 61,-12 71,0 6,8 16,15 23,15 20,0 12,29 -13,45 -20,13 -65,16 -283,17 -142,0 -268,5 -280,9 -12,5 -134,9 -270,9 -136,1 -264,5 -283,10 -60,14 -97,19 -102,14 z m -989,-48 c -11,-9 -69,-15 -64,-6 3,6 20,10 37,10 17,0 29,-2 27,-4 z m 621,-6 c 0,-5 -2,-10 -4,-10 -3,0 -8,5 -11,10 -3,6 -1,10 4,10 6,0 11,-4 11,-10 z m 500,-26 c 115,-9 234,-42 252,-70 4,-6 30,-33 57,-60 72,-71 128,-158 161,-249 4,-11 15,-38 24,-60 21,-54 56,-235 56,-295 0,-56 -5,-60 -83,-55 -49,3 -59,1 -72,-18 -8,-12 -15,-28 -15,-36 0,-8 -6,-22 -13,-30 -8,-9 -20,-32 -27,-51 -8,-19 -24,-52 -37,-72 -13,-21 -23,-45 -23,-53 0,-9 -16,-29 -35,-46 -19,-17 -35,-37 -35,-44 0,-14 -75,-85 -89,-85 -5,0 -18,-3 -28,-7 -16,-6 -16,-5 -4,11 10,12 11,20 3,28 -8,8 -18,3 -36,-19 -50,-59 -137,-79 -209,-49 -18,7 -50,33 -70,56 -36,42 -64,49 -39,10 17,-28 15,-32 -10,-24 -32,10 -196,183 -210,222 -7,17 -15,32 -19,32 -17,0 -82,146 -92,208 -5,32 -28,62 -46,62 -15,0 -20,11 -27,53 -15,100 1,162 88,342 66,137 161,247 228,265 22,6 42,15 45,20 3,6 21,10 38,11 18,0 41,5 52,10 11,5 52,6 90,3 39,-3 95,-8 125,-10 z m 920,1 c 10,-12 10,-15 -4,-15 -9,0 -16,7 -16,15 0,8 2,15 4,15 2,0 9,-7 16,-15 z m -1770,-5 c 0,-5 -4,-10 -10,-10 -5,0 -10,5 -10,10 0,6 5,10 10,10 6,0 10,-4 10,-10 z m 285,-10 c -3,-5 -10,-10 -16,-10 -5,0 -9,5 -9,10 0,6 7,10 16,10 8,0 12,-4 9,-10 z m 1418,-35 c -3,-9 -8,-14 -10,-11 -3,3 -2,9 2,15 9,16 15,13 8,-4 z m -1419,-14 c 4,-5 -3,-7 -14,-4 -23,6 -26,13 -6,13 8,0 17,-4 20,-9 z m -335,-44 c -12,-8 -127,-57 -148,-63 -16,-4 -21,-3 -17,5 4,6 15,11 24,12 9,0 44,13 77,28 33,16 62,27 64,25 2,-2 2,-5 0,-7 z m 1501,-7 c 0,-5 -2,-10 -4,-10 -3,0 -8,5 -11,10 -3,6 -1,10 4,10 6,0 11,-4 11,-10 z m -1490,-30 c -20,-13 -33,-13 -25,0 3,6 14,10 23,10 15,0 15,-2 2,-10 z m 1470,-50 c 0,-5 -4,-10 -10,-10 -5,0 -10,5 -10,10 0,6 5,10 10,10 6,0 10,-4 10,-10 z m 27,-46 c -3,-3 -12,-4 -19,-1 -8,3 -5,6 6,6 11,1 17,-2 13,-5 z m -1352,-49 c -61,-53 -95,-77 -95,-67 0,12 109,102 124,102 6,0 -7,-16 -29,-35 z m 112,-447 c 6,-7 23,-49 38,-93 40,-116 81,-196 126,-245 21,-23 39,-46 39,-51 0,-21 -38,-6 -75,29 -36,34 -105,125 -105,138 0,3 -12,21 -27,40 -28,37 -83,142 -83,159 0,12 37,32 61,34 9,0 21,-5 26,-11 z m 1231,-102 c 31,-7 42,-28 22,-41 -6,-4 -44,-52 -85,-108 -40,-56 -83,-113 -93,-127 -13,-17 -47,-35 -101,-53 -111,-37 -134,-35 -93,9 19,20 69,108 138,244 l 44,85 h 67 c 38,-1 83,-4 101,-9 z M 6468,3099 c 2,-5 12,-9 22,-9 19,0 92,-28 100,-39 3,-4 24,-15 48,-25 23,-11 42,-24 42,-30 0,-16 -40,-119 -50,-130 -5,-5 -23,-9 -39,-8 -47,1 -46,-16 1,-29 55,-14 57,-16 51,-38 -7,-27 -174,-66 -242,-56 -68,9 -86,31 -76,92 11,75 11,94 -1,150 -8,34 -9,55 -2,59 5,3 13,16 18,28 16,43 116,70 128,35 z m 958,-53 c 22,-18 28,-32 28,-65 1,-36 4,-41 21,-39 13,2 21,12 23,31 2,15 7,27 11,27 12,0 144,-130 170,-167 18,-26 19,-33 7,-33 -8,0 -18,4 -21,10 -7,12 -98,55 -180,85 -47,18 -60,28 -61,44 -2,30 -14,39 -25,18 -9,-15 -23,-16 -133,-11 -84,4 -126,2 -131,-5 -9,-16 9,-20 130,-25 114,-5 116,-5 295,-84 25,-10 60,-32 78,-47 21,-17 40,-25 52,-22 11,3 20,3 20,1 0,-10 -39,-66 -79,-112 -44,-52 -45,-52 -103,-52 -32,0 -75,7 -95,15 -20,8 -61,17 -92,19 -31,2 -63,6 -71,8 -8,3 -37,11 -65,17 -60,15 -59,14 -45,40 9,17 8,21 -4,21 -8,0 -17,-4 -21,-9 -3,-5 -21,-7 -40,-4 -34,5 -48,-8 -24,-23 7,-4 7,-10 1,-16 -14,-14 -32,-1 -32,24 0,13 -5,18 -14,15 -10,-4 -13,-1 -10,7 3,7 -7,18 -21,24 -14,6 -25,16 -25,22 0,15 -42,8 -47,-7 -3,-7 7,-15 22,-19 18,-4 24,-11 20,-22 -3,-8 0,-19 7,-23 23,-15 1,-20 -85,-20 -153,-1 -217,35 -217,121 0,84 31,210 52,210 5,0 8,-4 8,-9 0,-13 104,-51 138,-51 15,1 52,9 82,20 30,10 58,16 61,12 4,-4 2,-45 -2,-91 -8,-73 -6,-87 8,-103 9,-10 19,-18 23,-18 6,0 4,183 -3,211 -3,15 17,24 113,49 47,12 103,28 125,35 65,22 120,19 151,-9 z m -762,-335 c 14,-30 15,-43 7,-59 -6,-12 -11,-72 -11,-139 0,-117 0,-119 -29,-151 -25,-27 -37,-32 -73,-32 -73,0 -88,24 -88,144 0,92 3,97 65,136 38,23 95,98 95,124 0,28 16,17 34,-23 z m 94,-58 c 18,-4 22,-12 22,-44 0,-40 -4,-43 -50,-39 -41,3 -51,20 -39,63 8,31 14,37 27,32 9,-4 27,-10 40,-12 z m 125,-41 c 3,-14 3,-31 0,-38 -5,-13 -82,-24 -88,-13 -3,3 -2,22 2,42 4,27 11,37 27,39 36,6 54,-3 59,-30 z m 100,21 c 19,-70 19,-73 -10,-74 -60,-3 -75,8 -71,51 3,23 13,29 70,39 4,0 9,-7 11,-16 z m 98,10 c 0,-5 2,-20 4,-34 3,-22 -2,-28 -31,-37 -33,-10 -36,-9 -45,14 -13,37 -11,52 9,57 29,8 62,7 63,0 z m 114,-11 c 22,-6 61,-13 86,-17 l 46,-6 12,-89 c 6,-50 9,-100 6,-112 -9,-35 -67,-68 -118,-68 -84,0 -117,59 -117,211 0,90 4,102 29,95 9,-3 34,-9 56,-14 z m -745,-62 c 0,-5 -5,-10 -11,-10 -5,0 -7,5 -4,10 3,6 8,10 11,10 2,0 4,-4 4,-10 z m 320,-25 c 3,-2 6,-16 5,-32 0,-25 -4,-28 -35,-31 -38,-4 -60,16 -60,56 0,22 2,23 43,17 23,-4 44,-9 47,-10 z m 314,-12 c -9,-39 -13,-43 -34,-43 -31,0 -42,55 -12,63 44,12 53,8 46,-20 z m -196,-20 c 3,-26 -1,-32 -20,-36 -20,-4 -20,-4 5,-6 42,-2 32,-18 -14,-23 -50,-5 -64,7 -64,53 0,31 3,35 35,40 50,9 55,6 58,-28 z m 115,5 c 9,-32 1,-38 -49,-38 -42,0 -44,1 -44,30 0,29 2,30 44,30 36,0 45,-4 49,-22 z m 77,-48 c 12,-8 9,-10 -13,-10 -16,0 -26,4 -22,10 8,12 16,12 35,0 z m -370,-10 c 0,-5 -4,-10 -10,-10 -5,0 -10,5 -10,10 0,6 5,10 10,10 6,0 10,-4 10,-10 z m 61,-4 c -7,-8 -21,-12 -31,-9 -30,8 -24,18 11,20 25,2 29,0 20,-11 z m 249,4 c 0,-6 -25,-9 -57,-9 -48,1 -53,3 -28,9 45,11 85,11 85,0 z M 7570,975 c 0,-8 5,-15 10,-15 6,0 10,-6 10,-14 0,-15 55,-122 71,-140 5,-6 9,-21 9,-35 0,-37 -51,-67 -135,-81 -38,-7 -104,-19 -145,-27 -41,-8 -92,-14 -112,-14 -20,1 -39,-2 -42,-7 -3,-5 -36,-9 -73,-10 -37,-1 -84,-6 -103,-10 -47,-10 -157,4 -187,24 -21,13 -24,21 -19,47 4,17 13,35 22,40 9,5 23,18 32,28 11,13 30,19 59,19 56,0 173,-43 195,-72 11,-16 20,-20 27,-13 16,16 -31,62 -71,70 -18,4 -39,12 -47,19 -7,6 -32,16 -55,22 l -41,11 43,18 c 23,9 42,20 42,24 0,4 8,8 18,8 48,-1 73,4 67,12 -3,5 6,22 21,38 23,25 32,28 77,24 29,-1 53,-4 55,-6 6,-5 -66,-75 -77,-75 -6,0 -11,-4 -11,-10 0,-5 2,-10 6,-10 10,0 99,42 104,50 3,4 18,13 34,21 33,16 46,39 22,39 -9,0 -16,4 -16,10 0,6 8,6 23,0 16,-7 41,-5 92,9 88,24 95,24 95,6 z m -393,-1 c -3,-3 -12,-4 -19,-1 -8,3 -5,6 6,6 11,1 17,-2 13,-5 z"
         id="path460"
         inkscape:connector-curvature="0" />
      <g
         id="g464">
        <path
           d="m 6553,4175 c -39,-27 -29,-45 25,-45 50,0 170,-49 185,-76 8,-14 37,-20 37,-8 0,15 -72,94 -86,94 -8,0 -14,3 -14,8 0,10 -47,29 -90,37 -24,4 -42,1 -57,-10 z"
           id="path462"
           inkscape:connector-curvature="0" />
      </g>
      <g
         id="g468">
        <path
           d="m 6994,4172 c -49,-26 -97,-69 -90,-81 4,-6 25,-1 55,15 56,27 110,31 169,10 53,-19 64,-4 26,35 -37,36 -113,46 -160,21 z"
           id="path466"
           inkscape:connector-curvature="0" />
      </g>
      <g
         id="g472">
        <path
           d="m 6514,4066 c -55,-24 -86,-125 -51,-164 19,-21 6,-42 -26,-42 -16,0 -17,3 -8,14 15,18 2,26 -26,15 -23,-8 -32,-29 -13,-29 6,0 10,-4 10,-10 0,-5 -7,-10 -15,-10 -18,0 -20,-19 -2,-26 7,-2 39,5 71,16 37,12 85,20 127,20 66,0 102,16 60,27 -21,5 -21,6 4,31 28,28 33,67 9,76 -20,8 -34,-1 -34,-20 0,-8 -9,-14 -20,-14 -23,0 -27,-29 -8,-48 9,-9 7,-12 -12,-13 -14,0 -35,-2 -47,-3 -24,-3 -38,19 -47,72 -14,82 86,121 162,64 30,-23 47,-94 30,-122 -7,-10 -9,-22 -6,-26 15,-14 37,7 47,43 16,56 -14,112 -74,141 -52,25 -86,27 -131,8 z"
           id="path470"
           inkscape:connector-curvature="0" />
      </g>
      <g
         id="g476">
        <path
           d="m 6871,4062 c -13,-25 2,-38 19,-16 9,10 10,18 3,25 -8,8 -14,5 -22,-9 z"
           id="path474"
           inkscape:connector-curvature="0" />
      </g>
      <g
         id="g480">
        <path
           d="m 6999,4047 c -47,-25 -54,-42 -61,-142 l -3,-50 115,-3 c 88,-3 123,-8 152,-23 44,-23 54,-23 61,-5 3,8 -5,19 -21,27 -47,23 -52,30 -42,49 14,27 -2,101 -25,114 -10,6 -26,18 -35,27 -27,29 -91,32 -141,6 z m 151,-54 c 11,-14 20,-33 19,-42 0,-11 -3,-8 -9,7 -11,26 -42,41 -48,23 -2,-7 -15,-16 -28,-21 -27,-11 -31,-32 -9,-50 24,-20 8,-30 -48,-30 h -52 l 1,50 c 1,57 21,86 68,99 40,10 81,-4 106,-36 z m 16,-102 c -4,-6 -21,-11 -37,-11 -18,0 -28,4 -24,10 3,6 15,10 26,10 10,0 19,5 19,12 0,9 3,9 11,1 6,-6 8,-16 5,-22 z"
           id="path478"
           inkscape:connector-curvature="0" />
      </g>
      <g
         id="g484">
        <path
           d="m 6796,3954 c -15,-22 -16,-28 -5,-35 12,-8 67,-3 77,6 7,6 -31,55 -42,55 -6,0 -19,-12 -30,-26 z"
           id="path482"
           inkscape:connector-curvature="0" />
      </g>
      <g
         id="g488">
        <path
           d="m 6782,3878 c -10,-11 -29,-26 -44,-34 -16,-8 -28,-20 -28,-27 0,-6 -14,-39 -30,-73 -27,-53 -39,-66 -96,-99 -121,-71 -160,-130 -152,-229 4,-52 25,-107 43,-113 6,-2 10,24 11,65 1,83 27,174 60,207 14,14 29,25 33,25 4,0 21,12 36,26 24,22 33,24 69,18 22,-3 54,-17 69,-30 17,-14 42,-24 60,-24 18,0 42,-3 54,-6 16,-4 33,4 65,34 67,62 75,61 137,-8 29,-34 74,-71 101,-85 55,-28 60,-40 60,-142 0,-40 4,-73 9,-73 16,0 31,61 31,122 0,68 -26,118 -62,118 -24,0 -117,68 -148,108 -100,131 -144,184 -165,198 -14,9 -25,22 -25,29 0,22 -69,16 -88,-7 z m 91,-53 c 20,-9 37,-23 37,-29 0,-7 5,-17 12,-24 31,-31 17,-97 -25,-123 -52,-31 -102,-24 -154,24 -39,35 -22,130 28,154 29,14 52,21 59,18 3,-1 22,-10 43,-20 z m -173,-136 c 0,-5 -4,-9 -10,-9 -5,0 -10,7 -10,16 0,8 5,12 10,9 6,-3 10,-10 10,-16 z m 290,12 c 0,-6 -4,-13 -10,-16 -5,-3 -10,1 -10,9 0,9 5,16 10,16 6,0 10,-4 10,-9 z m 165,-151 c 3,-6 -1,-7 -9,-4 -18,7 -21,14 -7,14 6,0 13,-4 16,-10 z"
           id="path486"
           inkscape:connector-curvature="0" />
      </g>
      <g
         id="g492">
        <path
           d="m 7220,3891 c 0,-6 10,-17 22,-25 30,-21 52,-2 24,20 -23,16 -46,19 -46,5 z"
           id="path490"
           inkscape:connector-curvature="0" />
      </g>
      <g
         id="g496">
        <path
           d="m 6649,3542 c -86,-11 -110,-41 -70,-89 25,-30 34,-29 29,2 -3,14 0,32 6,41 16,21 28,6 50,-63 23,-68 94,-149 146,-164 47,-14 79,-7 120,27 37,31 55,65 64,119 10,56 26,95 41,95 7,0 25,-12 41,-26 34,-32 46,-15 17,25 -18,22 -28,26 -79,28 -33,1 -115,4 -184,6 -69,3 -150,2 -181,-1 z m 182,-33 c 13,-7 18,-16 14,-29 -4,-11 0,-22 10,-28 15,-8 15,-10 -1,-23 -10,-8 -15,-9 -11,-3 10,17 -50,46 -90,42 -29,-2 -38,1 -43,17 -4,11 -6,23 -3,28 6,11 102,8 124,-4 z m 69,-29 c 0,-5 -7,-10 -15,-10 -8,0 -15,5 -15,10 0,6 7,10 15,10 8,0 15,-4 15,-10 z m -200,-34 c 0,-3 -4,-8 -10,-11 -5,-3 -10,-1 -10,4 0,6 5,11 10,11 6,0 10,-2 10,-4 z m 226,-76 c 19,0 17,-10 -5,-40 -15,-19 -29,-24 -58,-24 -40,0 -113,30 -113,46 0,5 28,8 63,7 86,-2 97,-1 93,14 -1,6 -1,9 1,5 3,-5 11,-8 19,-8 z"
           id="path494"
           inkscape:connector-curvature="0" />
      </g>
      <g
         id="g500">
        <path
           d="m 7120,3510 c 0,-16 23,-60 32,-60 11,0 10,27 -2,51 -11,20 -30,26 -30,9 z"
           id="path498"
           inkscape:connector-curvature="0" />
      </g>
      <g
         id="g504">
        <path
           d="m 6832,3207 c -31,-18 -22,-23 36,-19 39,3 49,7 45,18 -6,17 -50,18 -81,1 z"
           id="path502"
           inkscape:connector-curvature="0" />
      </g>
      <g
         id="g508">
        <path
           d="m 6845,3030 c -4,-6 8,-10 29,-10 20,0 36,5 36,10 0,6 -13,10 -29,10 -17,0 -33,-4 -36,-10 z"
           id="path506"
           inkscape:connector-curvature="0" />
      </g>
      <g
         id="g512">
        <path
           d="m 6377,3044 c -11,-11 3,-24 25,-24 17,0 18,2 8,15 -13,16 -23,19 -33,9 z"
           id="path510"
           inkscape:connector-curvature="0" />
      </g>
      <g
         id="g516">
        <path
           d="m 6445,3020 c -8,-13 20,-24 41,-16 20,8 9,26 -16,26 -10,0 -22,-5 -25,-10 z"
           id="path514"
           inkscape:connector-curvature="0" />
      </g>
      <g
         id="g520">
        <path
           d="m 6396,2983 c -12,-12 -6,-33 9,-33 8,0 15,6 15,14 0,17 -14,28 -24,19 z"
           id="path518"
           inkscape:connector-curvature="0" />
      </g>
      <g
         id="g524">
        <path
           d="m 6590,2900 c 0,-15 5,-20 18,-18 9,2 17,10 17,18 0,8 -8,16 -17,18 -13,2 -18,-3 -18,-18 z"
           id="path522"
           inkscape:connector-curvature="0" />
      </g>
      <g
         id="g528">
        <path
           d="m 6387,2846 c -8,-19 15,-37 33,-26 11,7 11,11 1,24 -17,20 -27,20 -34,2 z"
           id="path526"
           inkscape:connector-curvature="0" />
      </g>
      <g
         id="g532">
        <path
           d="m 6452,2798 c 6,-18 28,-21 28,-4 0,9 -7,16 -16,16 -9,0 -14,-5 -12,-12 z"
           id="path530"
           inkscape:connector-curvature="0" />
      </g>
      <g
         id="g536">
        <path
           d="m 6380,2775 c 0,-9 9,-15 25,-15 16,0 25,6 25,15 0,9 -9,15 -25,15 -16,0 -25,-6 -25,-15 z"
           id="path534"
           inkscape:connector-curvature="0" />
      </g>
      <g
         id="g540">
        <path
           d="m 7365,3011 c -3,-5 -1,-12 5,-16 12,-7 30,2 30,16 0,12 -27,12 -35,0 z"
           id="path538"
           inkscape:connector-curvature="0" />
      </g>
      <g
         id="g544">
        <path
           d="m 7335,2979 c -10,-15 1,-23 20,-15 9,3 13,10 10,16 -8,13 -22,13 -30,-1 z"
           id="path542"
           inkscape:connector-curvature="0" />
      </g>
      <g
         id="g548">
        <path
           d="m 7514,2949 c -10,-17 13,-36 27,-22 12,12 4,33 -11,33 -5,0 -12,-5 -16,-11 z"
           id="path546"
           inkscape:connector-curvature="0" />
      </g>
      <g
         id="g552">
        <path
           d="m 6940,2910 c 0,-13 7,-20 19,-20 25,0 38,20 20,31 -23,15 -39,10 -39,-11 z"
           id="path550"
           inkscape:connector-curvature="0" />
      </g>
      <g
         id="g556">
        <path
           d="m 6757,2914 c -13,-13 -7,-24 14,-24 11,0 19,5 17,12 -5,14 -22,21 -31,12 z"
           id="path554"
           inkscape:connector-curvature="0" />
      </g>
      <g
         id="g560">
        <path
           d="m 7075,2890 c -3,-5 -3,-10 2,-10 4,0 24,-15 43,-33 52,-49 170,-97 170,-69 0,11 -26,25 -52,27 -27,3 -107,54 -118,75 -11,21 -35,26 -45,10 z"
           id="path558"
           inkscape:connector-curvature="0" />
      </g>
      <g
         id="g564">
        <path
           d="m 6797,2874 c -9,-10 12,-34 30,-34 19,0 12,34 -8,38 -8,1 -18,0 -22,-4 z"
           id="path562"
           inkscape:connector-curvature="0" />
      </g>
      <g
         id="g568">
        <path
           d="m 7364,2869 c -3,-6 -2,-15 2,-19 12,-12 38,5 30,19 -9,14 -23,14 -32,0 z"
           id="path566"
           inkscape:connector-curvature="0" />
      </g>
      <g
         id="g572">
        <path
           d="m 6733,2854 c -7,-19 2,-28 22,-21 19,8 19,23 0,31 -9,3 -18,-1 -22,-10 z"
           id="path570"
           inkscape:connector-curvature="0" />
      </g>
      <g
         id="g576">
        <path
           d="m 7322,2833 c 5,-25 28,-28 28,-4 0,12 -6,21 -16,21 -9,0 -14,-7 -12,-17 z"
           id="path574"
           inkscape:connector-curvature="0" />
      </g>
      <g
         id="g580">
        <path
           d="m 7400,2805 c 0,-8 7,-15 15,-15 8,0 15,7 15,15 0,8 -7,15 -15,15 -8,0 -15,-7 -15,-15 z"
           id="path578"
           inkscape:connector-curvature="0" />
      </g>
      <g
         id="g584">
        <path
           d="m 7145,2771 c -3,-6 10,-18 30,-28 26,-13 34,-21 29,-35 -7,-23 31,-25 40,-2 4,11 13,14 31,10 14,-4 25,-2 25,3 0,6 -19,15 -42,21 -36,9 -63,19 -100,38 -3,2 -9,-2 -13,-7 z"
           id="path582"
           inkscape:connector-curvature="0" />
      </g>
      <g
         id="g588">
        <path
           d="m 7310,2770 c 0,-5 5,-10 10,-10 6,0 10,5 10,10 0,6 -4,10 -10,10 -5,0 -10,-4 -10,-10 z"
           id="path586"
           inkscape:connector-curvature="0" />
      </g>
      <g
         id="g592">
        <path
           d="m 7477,2710 c -4,-16 0,-20 20,-20 19,0 24,4 19,16 -3,9 -6,18 -6,20 0,14 -29,0 -33,-16 z"
           id="path590"
           inkscape:connector-curvature="0" />
      </g>
      <g
         id="g596">
        <path
           d="m 6904,2709 c -10,-17 13,-36 27,-22 12,12 4,33 -11,33 -5,0 -12,-5 -16,-11 z"
           id="path594"
           inkscape:connector-curvature="0" />
      </g>
      <g
         id="g600">
        <path
           d="m 7440,2665 c 0,-9 5,-15 11,-13 6,2 11,8 11,13 0,5 -5,11 -11,13 -6,2 -11,-4 -11,-13 z"
           id="path598"
           inkscape:connector-curvature="0" />
      </g>
      <g
         id="g604">
        <path
           d="m 7507,2663 c -12,-11 -8,-23 8,-23 8,0 15,7 15,15 0,16 -12,20 -23,8 z"
           id="path602"
           inkscape:connector-curvature="0" />
      </g>
      <g
         id="g608">
        <path
           d="m 6543,2553 c -24,-5 -43,-48 -43,-99 0,-65 91,-87 107,-26 11,41 7,100 -7,117 -13,15 -17,16 -57,8 z m 53,-48 c 11,-43 -10,-94 -39,-95 -14,0 -45,62 -40,79 17,48 68,58 79,16 z"
           id="path606"
           inkscape:connector-curvature="0" />
      </g>
      <g
         id="g612">
        <path
           d="m 7190,2508 c -25,-27 -26,-60 -3,-99 19,-33 40,-36 83,-14 25,13 30,22 30,54 0,69 -67,105 -110,59 z m 72,-15 c 22,-20 24,-71 3,-79 -31,-12 -63,5 -70,36 -12,52 28,78 67,43 z"
           id="path610"
           inkscape:connector-curvature="0" />
      </g>
      <g
         id="g616">
        <path
           d="m 6808,2473 c 7,-3 16,-2 19,1 4,3 -2,6 -13,5 -11,0 -14,-3 -6,-6 z"
           id="path614"
           inkscape:connector-curvature="0" />
      </g>
      <g
         id="g620">
        <path
           d="m 7543,857 c -61,-71 -86,-128 -63,-142 15,-9 50,4 50,19 0,7 14,40 30,74 17,34 30,64 30,67 0,14 -29,2 -47,-18 z"
           id="path618"
           inkscape:connector-curvature="0" />
      </g>
    </g>
    <g
       id="g770"
       transform="translate(-4680,90)">
      <path
         d="m 6197,2845 c -8,-19 13,-31 23,-14 9,14 4,29 -10,29 -4,0 -10,-7 -13,-15 z"
         id="path768"
         inkscape:connector-curvature="0" />
    </g>
    <g
       id="g786"
       transform="translate(-4680,90)">
      <path
         d="m 6245,2800 c -8,-14 3,-30 21,-30 8,0 14,9 14,20 0,21 -24,28 -35,10 z"
         id="path784"
         inkscape:connector-curvature="0" />
    </g>
    <g
       id="g798"
       transform="translate(-4680,90)">
      <path
         d="m 6175,2790 c -4,-7 -3,-16 3,-22 14,-14 45,-2 40,15 -6,16 -34,21 -43,7 z"
         id="path796"
         inkscape:connector-curvature="0" />
    </g>
    <g
       id="g814"
       transform="translate(-4680,90)">
      <path
         d="m 6437,2673 c -12,-11 -8,-23 8,-23 8,0 15,7 15,15 0,16 -12,20 -23,8 z"
         id="path812"
         inkscape:connector-curvature="0" />
    </g>
    <g
       id="g818"
       transform="translate(-4680,90)">
      <path
         d="m 6185,2640 c -8,-14 3,-30 21,-30 8,0 14,9 14,20 0,21 -24,28 -35,10 z"
         id="path816"
         inkscape:connector-curvature="0" />
    </g>
    <g
       id="g826"
       transform="translate(-4680,90)">
      <path
         d="m 6242,2584 c 4,-21 22,-23 26,-1 2,10 -3,17 -13,17 -10,0 -15,-6 -13,-16 z"
         id="path824"
         inkscape:connector-curvature="0" />
    </g>
    <g
       id="g906"
       transform="translate(-4680,90)">
      <path
         d="m 7807,1726 c -30,-33 -60,-56 -77,-60 -27,-5 -58,-41 -46,-53 7,-7 66,17 66,27 0,5 -6,11 -12,14 -7,3 -4,4 7,1 22,-5 44,11 93,68 31,36 40,57 25,57 -5,0 -30,-25 -56,-54 z"
         id="path904"
         inkscape:connector-curvature="0" />
    </g>
  </g>
</svg>
