<?xml version="1.0" standalone="no"?>
<!DOCTYPE svg PUBLIC "-//W3C//DTD SVG 20010904//EN"
 "http://www.w3.org/TR/2001/REC-SVG-20010904/DTD/svg10.dtd">
<svg version="1.0" xmlns="http://www.w3.org/2000/svg"
 width="875.000000pt" height="622.000000pt" viewBox="0 0 875.000000 622.000000"
 preserveAspectRatio="xMidYMid meet">
<metadata>
Created by potrace 1.15, written by Peter Selinger 2001-2017
</metadata>
<g transform="translate(0.000000,622.000000) scale(0.100000,-0.100000)"
fill="#000000" stroke="none">
<g>
<path d="M5795 6004 c-23 -14 -55 -24 -77 -24 -27 0 -38 -4 -38 -15 0 -8 5
-15 11 -15 5 0 -17 -22 -49 -50 -33 -27 -69 -62 -79 -77 -23 -33 -35 -73 -22
-73 5 0 14 10 19 23 12 29 35 57 47 57 5 0 19 13 31 30 25 33 118 96 157 106
37 9 31 0 -27 -42 -90 -64 -137 -115 -91 -97 12 5 11 1 -5 -15 -31 -31 -56
-72 -48 -79 3 -4 14 4 23 18 10 13 33 39 52 57 27 26 32 35 22 42 -10 6 4 21
53 56 62 44 83 74 54 74 -8 0 -4 7 6 15 37 28 4 35 -39 9z"/>
</g>
<g>
<path d="M5890 5990 c0 -5 9 -10 20 -10 11 0 20 5 20 10 0 6 -9 10 -20 10 -11
0 -20 -4 -20 -10z"/>
</g>
<g>
<path d="M5591 5909 c-36 -36 -101 -139 -101 -161 0 -4 6 -8 14 -8 7 0 16 14
20 30 6 31 61 120 74 120 4 1 23 14 42 30 30 26 31 30 13 30 -11 0 -39 -18
-62 -41z"/>
</g>
<g>
<path d="M5807 5880 c-26 -16 -47 -36 -47 -44 0 -7 -9 -16 -20 -19 -11 -3 -23
-13 -27 -23 -3 -10 -15 -26 -25 -36 -10 -10 -18 -24 -18 -30 0 -7 14 3 31 21
16 18 33 31 36 27 3 -3 -4 -14 -15 -25 -21 -18 -30 -41 -14 -41 4 1 27 21 52
46 25 24 60 50 78 56 17 7 32 16 32 20 0 11 -7 10 -40 -7 -19 -10 -30 -11 -30
-5 0 6 26 23 58 37 70 32 70 32 52 43 -26 17 -55 11 -103 -20z m-17 -34 c0 -3
-4 -8 -10 -11 -5 -3 -10 -1 -10 4 0 6 5 11 10 11 6 0 10 -2 10 -4z"/>
</g>
<g>
<path d="M6067 5899 c-9 -6 -25 -8 -35 -5 -22 7 -91 -9 -106 -24 -8 -9 -4 -10
19 -4 27 7 29 6 16 -9 -7 -10 -20 -17 -27 -17 -8 0 -14 -4 -14 -8 0 -5 -24
-21 -54 -36 -53 -27 -100 -66 -79 -66 6 0 16 7 23 15 7 8 16 15 21 15 19 0 8
-30 -22 -59 -17 -17 -27 -36 -24 -42 4 -6 22 7 43 33 53 61 86 91 90 79 2 -5
-15 -27 -38 -47 -22 -20 -38 -39 -35 -42 3 -3 20 8 38 24 46 43 86 66 104 60
8 -3 34 5 58 19 42 25 138 55 175 55 11 0 20 7 20 15 0 17 -31 20 -46 5 -6 -6
-46 -13 -89 -16 l-80 -5 37 28 c48 36 52 59 5 32z m-62 -69 c-3 -5 -12 -10
-18 -10 -7 0 -6 4 3 10 19 12 23 12 15 0z m30 -30 c-16 -10 -31 -17 -34 -14
-7 6 32 33 49 34 8 0 2 -9 -15 -20z"/>
</g>
<g>
<path d="M5432 5815 c-18 -39 -15 -50 23 -91 36 -38 45 -68 22 -77 -7 -3 -21
-34 -31 -68 -10 -35 -24 -79 -32 -97 -18 -43 -18 -56 4 -75 25 -23 32 -21 29
6 -1 14 3 22 13 22 8 0 15 -7 16 -15 2 -31 6 -34 14 -15 15 34 11 42 -21 43
-17 0 -33 3 -36 5 -9 10 66 207 79 207 14 0 8 31 -7 36 -8 4 -15 10 -15 15 0
6 -9 20 -21 32 -19 21 -21 41 -4 80 12 28 -20 21 -33 -8z"/>
</g>
<g>
<path d="M6235 5810 c-4 -6 7 -10 24 -10 17 0 31 5 31 10 0 6 -11 10 -24 10
-14 0 -28 -4 -31 -10z"/>
</g>
<g>
<path d="M6175 5795 c-5 -2 -26 -6 -45 -9 -20 -3 -52 -21 -74 -41 -22 -19 -50
-35 -62 -35 -12 0 -31 -3 -41 -7 -16 -6 -16 -5 -4 10 10 12 10 17 1 17 -18 0
-113 -84 -133 -119 -24 -41 -4 -40 24 2 25 36 81 88 87 82 3 -3 -11 -22 -31
-44 -42 -46 -60 -78 -54 -94 2 -7 13 6 24 28 22 42 69 92 78 83 3 -3 -17 -35
-45 -71 -27 -37 -50 -70 -50 -75 0 -5 9 -17 20 -27 11 -10 20 -23 20 -30 0
-15 32 -45 48 -45 7 0 12 17 12 44 0 34 -4 46 -17 49 -12 3 -8 7 15 12 17 4
32 13 32 20 0 32 123 135 162 135 9 0 33 16 54 35 l37 35 -30 0 c-17 0 -36 -6
-42 -14 -13 -16 -51 -28 -51 -16 0 4 14 13 30 20 17 7 30 17 30 22 0 6 7 7 16
4 22 -8 85 4 78 15 -2 5 -18 7 -34 5 -17 -2 -30 1 -30 5 0 9 -7 10 -25 4z
m-19 -92 c-10 -10 -80 -33 -85 -28 -5 6 59 34 78 35 8 0 11 -3 7 -7z m-166
-46 c0 -7 -13 -26 -30 -42 -16 -16 -30 -23 -30 -17 0 7 7 15 15 18 8 4 15 14
15 23 0 10 3 21 7 24 11 11 23 8 23 -6z m29 -33 c-34 -36 -69 -60 -69 -48 0
10 84 84 94 84 6 0 -6 -16 -25 -36z m-99 -53 c0 -6 -4 -13 -10 -16 -5 -3 -10
1 -10 9 0 9 5 16 10 16 6 0 10 -4 10 -9z"/>
</g>
<g>
<path d="M6212 5699 c2 -7 10 -15 17 -17 8 -3 12 1 9 9 -2 7 -10 15 -17 17 -8
3 -12 -1 -9 -9z"/>
</g>
<g>
<path d="M6125 5656 c-16 -7 -45 -26 -63 -41 -25 -21 -30 -30 -20 -36 20 -13
31 -11 24 6 -4 10 8 23 34 40 22 14 44 25 49 25 5 0 13 5 16 10 8 13 -3 12
-40 -4z"/>
</g>
<g>
<path d="M6244 5629 c-16 -18 -16 -19 4 -19 12 0 22 -3 22 -7 0 -13 -59 -43
-65 -33 -3 4 1 10 7 13 9 3 10 8 3 15 -7 7 -22 5 -49 -9 -22 -10 -46 -19 -53
-19 -25 0 -2 22 44 42 25 11 42 22 39 25 -10 10 -54 -7 -83 -31 l-29 -25 11
-68 c8 -44 8 -78 2 -98 -5 -16 -12 -43 -14 -59 -5 -27 -8 -28 -45 -23 -38 5
-39 4 -36 -21 7 -59 98 -18 98 44 0 21 7 32 25 41 21 9 25 9 25 -6 0 -14 8
-17 43 -15 37 2 43 0 44 -18 3 -31 7 -31 48 -3 21 14 33 25 28 25 -6 0 -8 11
-5 25 3 20 0 25 -17 25 -22 0 -28 14 -11 25 15 9 12 25 -4 25 -18 0 -3 86 19
110 21 23 19 33 -10 46 -20 10 -27 9 -41 -7z m16 -229 c0 -5 -4 -10 -9 -10 -6
0 -13 5 -16 10 -3 6 1 10 9 10 9 0 16 -4 16 -10z"/>
</g>
<g>
<path d="M5496 5530 c-41 -63 -31 -79 24 -38 32 23 38 49 16 67 -10 9 -19 3
-40 -29z"/>
</g>
<g>
<path d="M6007 5513 c-11 -11 -17 -13 -17 -5 0 7 -4 12 -10 12 -15 0 -12 -17
7 -35 15 -15 17 -15 25 -1 18 32 27 15 11 -19 -16 -34 -16 -36 5 -57 26 -27
34 -20 35 29 2 83 -20 112 -56 76z"/>
</g>
<g>
<path d="M5594 5446 c-4 -17 -19 -29 -50 -41 -43 -16 -73 -50 -58 -63 4 -4 9
-1 11 6 3 6 11 12 20 12 38 0 117 90 92 105 -4 3 -11 -5 -15 -19z"/>
</g>
<g>
<path d="M5240 5410 c-36 -21 -70 -44 -77 -49 -7 -6 -14 -11 -17 -11 -6 0
-145 -94 -226 -153 -68 -50 -77 -65 -79 -144 -1 -46 -13 -53 -43 -26 -17 15
-18 15 -18 0 0 -9 12 -24 26 -33 22 -15 23 -19 10 -26 -38 -21 -77 16 -91 87
-12 62 -9 85 14 106 32 30 38 23 34 -35 -2 -31 1 -57 7 -61 6 -4 10 9 10 34 0
54 7 69 44 88 18 9 26 18 18 21 -7 2 -19 -1 -27 -8 -10 -8 -18 -8 -33 1 -17
11 -25 9 -55 -17 -19 -16 -38 -34 -41 -41 -3 -7 1 -49 8 -94 9 -57 19 -86 31
-96 18 -12 18 -13 -3 -13 -28 0 -62 34 -62 60 0 11 -7 23 -15 26 -18 7 -54
-32 -55 -59 0 -10 -10 -21 -22 -26 -13 -5 -68 -39 -123 -76 -96 -64 -137 -107
-115 -120 19 -12 10 -33 -22 -54 -18 -11 -42 -26 -53 -33 -11 -7 -22 -16 -25
-19 -6 -6 -106 -66 -148 -88 -15 -8 -29 -17 -32 -20 -3 -4 -28 -21 -55 -38
-83 -52 -95 -68 -85 -103 18 -63 87 -150 119 -150 10 0 58 31 107 68 118 89
302 212 318 212 7 0 21 -9 31 -20 25 -28 52 -25 69 8 8 15 27 34 43 42 32 17
101 67 153 111 169 143 181 151 213 146 18 -3 39 -8 48 -12 9 -3 23 1 32 9 17
18 45 12 64 -13 11 -14 12 -12 13 10 0 20 8 28 35 39 24 9 35 20 35 34 0 12 9
32 19 45 10 14 17 31 14 39 -4 9 -18 1 -48 -28 l-43 -42 -56 13 c-61 13 -70
23 -31 33 27 7 32 25 13 44 -17 17 -22 16 -66 -22 -32 -26 -38 -36 -29 -46 9
-10 8 -11 -9 -6 -20 6 -45 -9 -263 -160 -36 -24 -72 -44 -81 -44 -13 0 -50 46
-50 63 0 9 61 50 66 44 3 -2 -9 -13 -27 -24 -17 -11 -27 -23 -22 -26 6 -4 19
2 30 12 19 18 79 59 136 94 16 10 75 51 131 90 133 95 143 102 199 138 26 17
47 35 47 41 0 10 -58 -22 -95 -51 -81 -66 -200 -126 -130 -65 20 17 24 24 11
20 -16 -6 -17 -4 -6 9 10 12 15 13 21 3 6 -9 19 -4 51 20 124 95 237 166 246
157 4 -4 -1 -12 -12 -19 -33 -20 -77 -58 -72 -63 3 -3 20 7 39 21 19 14 40 26
47 26 7 0 -8 -16 -34 -36 -25 -21 -44 -39 -42 -41 3 -3 21 7 40 22 19 15 40
25 46 23 11 -3 -114 -98 -130 -98 -5 0 -24 -13 -42 -30 -21 -20 -27 -30 -17
-30 9 0 24 9 35 21 10 12 32 28 48 36 16 8 38 24 49 34 12 10 25 19 30 19 17
0 -26 -41 -70 -67 -49 -28 -55 -38 -18 -29 31 8 31 3 3 -24 -37 -34 -15 -31
41 7 l54 36 21 -26 c22 -27 46 -36 46 -17 0 5 -10 18 -22 29 -21 20 -21 21 -3
41 10 11 25 20 34 20 9 0 25 7 35 15 29 22 44 19 39 -9 -8 -39 52 -69 101 -50
29 11 17 26 -16 20 -76 -13 -87 49 -21 112 34 31 35 36 29 80 -3 25 -10 50
-16 56 -5 5 -6 23 -3 40 6 29 5 30 -11 17 -15 -13 -19 -13 -27 0 -5 8 -9 17
-9 21 0 18 -54 68 -73 68 -12 -1 -51 -18 -87 -40z m115 -42 c13 -13 27 -36 31
-51 5 -23 3 -29 -15 -34 -24 -6 -26 -14 -9 -31 6 -6 8 -15 4 -19 -4 -5 -14 1
-22 11 -18 25 -29 14 -14 -14 15 -27 8 -35 -19 -20 -17 8 -21 8 -21 -4 0 -8 6
-17 13 -19 8 -4 6 -6 -4 -6 -9 -1 -23 15 -33 37 -10 21 -28 46 -42 57 -30 22
-31 35 -2 27 15 -4 19 -2 14 7 -5 8 0 14 13 18 12 3 21 10 21 16 0 6 3 7 6 4
4 -3 15 5 26 18 24 30 23 30 53 3z m-151 -105 c7 -18 -9 -41 -21 -29 -4 4 -1
11 7 16 13 8 13 10 -1 10 -9 0 -22 -7 -29 -15 -13 -16 -40 -21 -40 -7 0 6 54
37 71 41 4 0 10 -7 13 -16z m191 -3 c3 -5 1 -10 -4 -10 -6 0 -11 5 -11 10 0 6
2 10 4 10 3 0 8 -4 11 -10z m-285 -40 c0 -5 -15 -17 -32 -25 l-33 -16 30 25
c34 29 35 30 35 16z m250 -40 c0 -5 -4 -10 -10 -10 -5 0 -10 5 -10 10 0 6 5
10 10 10 6 0 10 -4 10 -10z m-320 -8 c0 -8 -53 -42 -66 -42 -4 0 7 11 26 25
37 27 40 29 40 17z m285 -12 c3 -5 -1 -10 -10 -10 -9 0 -13 5 -10 10 3 6 8 10
10 10 2 0 7 -4 10 -10z m-65 -34 c0 -3 -4 -8 -10 -11 -5 -3 -10 -1 -10 4 0 6
5 11 10 11 6 0 10 -2 10 -4z m-330 -36 c-33 -29 -50 -37 -50 -24 0 12 56 52
75 53 6 1 -6 -13 -25 -29z m75 20 c-3 -5 -11 -10 -16 -10 -6 0 -7 5 -4 10 3 6
11 10 16 10 6 0 7 -4 4 -10z m-355 -140 c0 -19 -11 -26 -23 -14 -8 8 3 34 14
34 5 0 9 -9 9 -20z m185 -29 c-52 -46 -135 -96 -162 -96 -37 -2 -40 2 -15 21
23 18 37 17 22 -1 -22 -26 -1 -17 78 35 71 46 99 62 77 41z m-215 -45 c0 -2
-7 -7 -16 -10 -8 -3 -12 -2 -9 4 6 10 25 14 25 6z m50 -1 c0 -10 -122 -86
-128 -80 -4 4 0 10 8 15 8 5 33 22 55 38 36 28 65 40 65 27z m-65 -80 c-16
-13 -32 -22 -34 -19 -7 6 40 44 54 43 6 0 -3 -11 -20 -24z m-99 -38 c28 -16
94 -95 94 -113 0 -17 -17 -19 -22 -2 -6 18 -63 -14 -62 -35 3 -30 -15 -18 -46
31 -24 39 -26 48 -14 52 13 5 12 10 -7 33 -24 32 -18 48 9 24 25 -23 35 -21
22 3 -12 23 -5 25 26 7z m161 -94 c-9 -9 -19 -14 -23 -11 -10 10 6 28 24 28
15 0 15 -1 -1 -17z m-281 -76 c-10 -7 -45 -31 -76 -54 -61 -46 -75 -51 -83
-30 -4 9 -8 9 -15 -2 -5 -7 -16 -11 -23 -9 -9 3 -4 11 15 23 21 14 30 15 35 6
6 -8 22 -3 57 21 72 48 88 57 99 57 6 0 2 -6 -9 -12z m164 -21 c0 -3 -4 -8
-10 -11 -5 -3 -10 -1 -10 4 0 6 5 11 10 11 6 0 10 -2 10 -4z m-387 -97 c-6 -6
-9 -17 -7 -23 2 -6 -10 -20 -28 -30 -18 -11 -41 -27 -51 -38 -10 -10 -25 -18
-34 -18 -14 0 -12 4 6 24 16 17 19 25 10 28 -8 3 8 15 35 28 26 14 50 28 52
32 3 4 10 8 17 8 8 0 8 -3 0 -11z"/>
<g>
<path d="M4099 4450 l-24 -21 35 17 c43 21 47 24 28 24 -9 0 -26 -9 -39 -20z"/>
</g>
</g>
<g>
<path d="M6000 5365 c0 -8 5 -15 10 -15 6 0 10 7 10 15 0 8 -4 15 -10 15 -5 0
-10 -7 -10 -15z"/>
</g>
<g>
<path d="M6190 5345 c-7 -8 -8 -15 -2 -15 5 0 15 7 22 15 7 8 8 15 2 15 -5 0
-15 -7 -22 -15z"/>
</g>
<g>
<path d="M5532 5329 c2 -6 7 -10 11 -10 4 1 16 1 27 1 11 0 20 5 20 10 0 6
-14 10 -31 10 -17 0 -29 -5 -27 -11z"/>
</g>
<g>
<path d="M6559 5298 c-22 -23 -61 -99 -54 -106 9 -9 24 10 30 37 3 15 15 38
27 51 25 27 52 24 286 -26 40 -8 43 9 5 24 -22 9 -232 42 -265 42 -4 0 -17
-10 -29 -22z"/>
</g>
<g>
<path d="M6248 5304 c-9 -9 10 -66 28 -84 15 -14 15 -11 9 30 -9 59 -19 73
-37 54z"/>
</g>
<g>
<path d="M5487 5294 c-8 -9 14 -52 29 -58 8 -3 14 1 14 9 0 8 -4 15 -10 15 -5
0 -10 6 -10 14 0 17 -14 29 -23 20z"/>
</g>
<g>
<path d="M6380 5279 l-35 -20 30 6 c17 3 42 9 58 12 15 3 30 9 33 14 10 17
-51 8 -86 -12z"/>
</g>
<g>
<path d="M6610 5246 c-12 -20 -19 -42 -17 -49 4 -9 6 -9 6 1 1 8 10 27 22 44
12 16 19 31 16 34 -2 3 -15 -11 -27 -30z"/>
</g>
<g>
<path d="M6439 5233 c-17 -41 -54 -187 -95 -368 -20 -88 -44 -173 -54 -190
-16 -26 -30 -95 -45 -221 -2 -18 1 -36 6 -41 6 -6 6 -19 0 -34 -6 -16 -10 -18
-10 -7 -1 9 -6 18 -12 20 -7 2 -7 23 0 68 14 85 14 121 1 100 -15 -23 -13 8 5
76 15 57 12 82 -5 54 -6 -8 -10 -26 -11 -40 0 -14 -5 -36 -10 -50 -6 -19 -7
-15 -3 15 9 66 -13 28 -29 -49 -7 -39 -18 -71 -24 -73 -7 -3 -3 26 8 74 10 43
18 87 18 98 0 18 -1 17 -14 -5 -8 -14 -14 -35 -15 -47 0 -12 -7 -42 -14 -65
-8 -24 -19 -85 -24 -136 -5 -52 -15 -99 -22 -105 -10 -10 -11 0 -7 46 3 32 2
57 -4 57 -5 0 -9 -4 -9 -10 0 -5 -4 -10 -10 -10 -10 0 -4 88 10 135 5 17 12
53 15 82 7 56 43 114 83 132 12 6 28 15 35 21 7 6 24 19 39 31 61 45 118 188
118 294 0 24 7 65 16 91 20 59 10 71 -14 15 -13 -31 -21 -41 -35 -37 -25 6
-31 -17 -14 -51 11 -20 14 -48 10 -98 -5 -61 -11 -79 -48 -136 -43 -65 -78
-97 -117 -104 -11 -2 -26 -9 -34 -16 -10 -8 -18 -9 -27 0 -8 6 -17 8 -20 5 -3
-3 -11 -3 -18 1 -8 6 -4 12 12 21 15 8 18 14 9 14 -8 0 -28 12 -44 25 l-30 24
26 12 c15 6 24 17 22 24 -5 12 15 39 34 47 4 1 6 24 4 50 -3 36 -7 45 -19 41
-8 -3 -12 -12 -8 -21 10 -26 -22 -60 -75 -77 -76 -25 -100 -9 -27 19 33 12 63
29 68 38 8 15 7 15 -23 1 -23 -12 -33 -13 -36 -5 -5 17 -29 15 -36 -3 -4 -10
-20 -15 -51 -15 -33 0 -45 4 -45 15 0 18 -16 20 -24 3 -5 -10 -7 -10 -12 0 -5
10 -9 10 -20 1 -9 -8 -14 -8 -14 -1 0 6 5 14 10 17 6 3 10 15 10 26 0 10 -4
19 -10 19 -5 0 -10 -6 -10 -14 0 -8 -9 -24 -19 -37 -16 -20 -22 -22 -33 -11
-7 7 -13 26 -13 43 0 30 9 39 18 17 9 -22 25 10 19 38 -5 28 4 31 30 7 23 -21
33 -11 18 17 -11 20 -18 22 -60 17 -27 -3 -52 -1 -57 4 -6 6 -43 12 -82 13
-57 3 -77 0 -94 -15 -19 -15 -20 -18 -5 -24 9 -4 28 1 42 10 24 16 26 16 26 1
0 -9 -6 -16 -13 -16 -7 0 -32 -19 -55 -43 -45 -46 -53 -79 -27 -113 13 -18 14
-18 15 -1 0 14 5 17 19 12 18 -5 19 -3 8 24 -9 24 -8 34 1 43 9 9 12 9 12 0 0
-7 8 -12 19 -12 10 0 25 -10 33 -22 12 -18 24 -22 73 -22 37 -1 60 -6 63 -13
2 -7 15 -13 28 -13 13 0 24 -4 24 -9 0 -10 45 -26 101 -35 50 -9 65 -28 39
-51 -12 -11 -22 -37 -26 -67 -9 -65 -28 -77 -21 -12 3 27 8 57 12 67 4 10 3
17 -4 17 -6 0 -13 -11 -17 -25 -3 -14 -10 -25 -15 -25 -13 0 -11 44 3 58 9 9
9 15 -1 24 -10 11 -18 6 -42 -22 -24 -28 -29 -44 -29 -85 0 -59 -6 -70 -43
-84 -15 -6 -31 -21 -36 -35 -9 -22 -68 -73 -75 -65 -2 2 -11 21 -21 42 -9 20
-21 37 -26 37 -4 0 -20 11 -35 25 -40 37 -50 32 -65 -29 -6 -25 -7 -22 -7 22
1 39 5 52 14 48 28 -11 24 17 -10 63 -19 27 -45 69 -57 93 -28 56 -25 55 -52
26 -15 -17 -27 -44 -31 -75 -3 -27 -16 -67 -27 -89 l-21 -39 7 40 c4 22 9 51
11 65 3 14 7 33 10 43 3 9 1 17 -5 17 -6 0 -14 -18 -17 -40 -4 -24 -12 -40
-20 -40 -17 0 -17 3 0 43 7 18 32 49 55 69 38 33 43 56 9 43 -16 -6 -148 -149
-165 -179 -15 -26 -17 -73 -3 -81 6 -3 10 -18 10 -32 0 -14 9 -40 19 -57 24
-38 59 -170 68 -251 3 -33 16 -83 29 -112 12 -28 20 -54 16 -57 -3 -3 4 -27
15 -54 12 -26 29 -67 39 -92 21 -55 86 -145 115 -160 11 -7 27 -9 35 -6 8 3
14 -1 14 -9 0 -26 49 -29 95 -6 23 12 48 28 55 36 6 7 25 17 41 20 22 5 43 24
74 67 24 33 54 67 67 76 13 9 48 38 79 64 30 26 59 48 62 48 4 0 7 -13 7 -30
0 -20 7 -33 21 -41 20 -10 21 -9 16 12 -4 13 -7 37 -7 52 0 16 -4 26 -10 22
-5 -3 -10 -1 -10 5 0 6 8 13 18 17 9 3 25 13 35 21 23 21 34 7 13 -17 -10 -11
-13 -21 -7 -25 5 -4 12 -3 14 1 27 46 47 86 47 97 0 7 11 22 23 35 28 26 38
18 62 -49 19 -53 19 -50 -5 -50 -11 0 -27 -11 -35 -24 -11 -16 -30 -27 -55
-31 -48 -8 -78 -38 -61 -59 7 -8 10 -19 7 -24 -10 -16 34 -62 74 -78 57 -23
57 -39 0 -96 -47 -46 -73 -92 -30 -53 16 14 23 16 32 7 9 -9 8 -16 -4 -29 -9
-10 -19 -35 -23 -55 -8 -41 -32 -51 -56 -22 -10 13 -10 20 4 44 10 16 14 31 9
34 -4 2 -17 -12 -27 -32 -25 -47 -53 -75 -94 -91 -17 -8 -31 -17 -31 -21 0 -8
65 12 76 23 16 16 35 7 29 -14 -6 -17 -4 -20 12 -16 13 5 25 -5 44 -35 30 -46
25 -66 -18 -89 -12 -7 -25 -22 -29 -33 -10 -33 -85 -105 -117 -112 -16 -3 -57
-24 -91 -45 -33 -21 -66 -39 -72 -39 -14 0 -36 -25 -29 -32 3 -3 46 16 95 42
50 26 102 51 117 55 30 7 105 63 140 103 12 14 41 32 65 39 l42 12 -47 -41
c-38 -32 -47 -46 -45 -67 2 -15 12 -30 26 -36 26 -11 28 -21 7 -29 -15 -5 -21
-36 -7 -36 4 0 20 -12 35 -26 15 -14 44 -32 64 -40 46 -20 113 -73 113 -91 0
-7 5 -13 10 -13 6 0 10 7 10 15 0 8 5 15 11 15 8 0 9 -12 3 -37 -4 -21 -7 -54
-6 -73 0 -19 -6 -64 -14 -99 -14 -63 -12 -89 6 -61 6 8 10 25 10 36 0 21 24
110 40 149 6 13 9 -9 9 -63 1 -57 -4 -93 -15 -113 -8 -17 -14 -38 -12 -46 3
-19 25 21 58 109 15 39 21 73 18 108 -3 50 -1 54 24 45 11 -4 12 -23 7 -88 -4
-45 -12 -95 -18 -112 -25 -63 -45 -105 -51 -105 -9 0 -47 -99 -55 -142 -5 -34
-4 -38 15 -38 31 0 100 69 104 105 2 17 0 32 -5 35 -4 3 2 39 15 80 13 41 30
95 37 120 7 25 16 50 20 56 5 5 6 19 3 30 -3 12 3 24 17 32 27 17 40 5 15 -14
-11 -7 -16 -17 -13 -21 4 -3 17 2 30 13 31 27 68 46 75 40 6 -7 8 -6 -43 -39
-23 -16 -33 -27 -23 -27 9 0 20 5 23 10 5 9 78 51 95 55 8 2 57 23 108 46 26
12 61 32 79 45 17 13 36 24 42 24 6 0 11 5 11 10 0 6 6 10 14 10 7 0 18 6 25
13 6 8 35 26 64 40 33 17 67 45 90 75 19 26 53 66 74 90 21 23 60 67 87 97 26
30 54 55 61 55 8 0 16 9 20 19 4 12 12 17 24 14 13 -3 21 2 26 16 8 26 20 27
30 4 5 -15 10 -12 25 18 28 53 47 66 68 45 16 -15 15 -21 -6 -82 -29 -84 -21
-95 14 -19 l27 58 15 -29 c13 -24 17 -26 20 -11 2 10 -1 31 -6 47 -6 16 -8 38
-5 50 3 12 -2 29 -12 40 -17 19 -17 23 -1 83 16 61 16 64 -4 109 -11 26 -24
49 -29 52 -4 3 -16 30 -25 61 -16 50 -25 61 -101 120 -46 36 -86 65 -89 65
-16 0 -3 -34 20 -53 l25 -22 -21 -60 c-11 -33 -29 -78 -39 -100 -11 -22 -24
-51 -30 -65 -6 -14 -22 -58 -34 -99 -30 -99 -51 -106 -25 -9 11 40 30 107 44
148 27 82 28 90 16 90 -9 0 -44 -109 -68 -215 -8 -33 -28 -87 -43 -120 -34
-71 -56 -121 -66 -152 -3 -13 -11 -23 -16 -23 -11 0 0 52 13 61 4 3 17 39 28
80 20 73 54 175 71 214 5 11 18 45 29 75 12 30 37 84 56 119 19 35 33 65 30
68 -5 5 -57 -71 -75 -112 -8 -17 -16 -25 -18 -17 -3 7 4 28 16 47 11 19 18 41
15 49 -3 8 3 32 14 54 14 29 19 58 17 104 -4 124 -99 296 -180 327 -18 7 -20
18 -20 97 0 78 -2 89 -17 88 -13 -1 -19 9 -23 40 -3 22 -4 48 -3 56 2 8 -1 16
-7 18 -14 4 -18 -54 -7 -121 5 -32 5 -82 1 -115 -5 -31 -11 -73 -14 -92 -5
-34 -5 -34 11 -15 15 19 15 17 11 -30 -7 -74 -38 -205 -49 -205 -4 0 -6 10 -3
23 20 87 25 116 25 146 0 92 -23 -26 -40 -199 -5 -52 -12 -112 -16 -133 -3
-21 -2 -46 2 -55 4 -9 8 -24 8 -32 3 -39 -39 -160 -56 -160 -4 0 -8 -4 -8 -9
0 -12 -76 -126 -95 -141 -22 -19 -20 11 3 32 40 39 61 78 22 43 -33 -30 -35
-9 -7 63 28 70 34 108 17 97 -14 -9 -13 -4 15 104 13 53 33 134 44 181 l21 85
-5 -72 c-2 -40 0 -73 4 -73 7 0 -30 -238 -45 -289 -5 -15 -3 -22 3 -18 26 16
61 210 93 517 6 52 15 133 20 180 6 56 6 86 -1 91 -7 4 -6 27 1 71 6 36 10 80
8 99 l-4 34 -12 -28 c-7 -16 -12 -52 -12 -80 0 -29 -7 -74 -16 -102 -8 -27
-19 -85 -24 -128 -5 -42 -14 -85 -20 -95 -10 -14 -10 -13 -6 8 4 20 1 26 -14
27 -16 1 -23 -10 -36 -55 -22 -75 -30 -51 -9 28 16 62 14 94 -4 48 -11 -29
-52 -212 -56 -248 -6 -54 -24 -151 -31 -162 -16 -25 -20 26 -7 86 7 33 11 72
7 85 -5 24 2 59 36 194 11 44 14 67 6 64 -10 -3 -58 -183 -71 -269 -4 -24 -11
-38 -21 -38 -15 0 -13 24 8 78 14 38 40 174 34 179 -3 3 -8 -8 -12 -23 -3 -16
-19 -76 -35 -134 -19 -70 -27 -89 -22 -55 11 89 60 254 85 288 14 18 28 54 33
82 4 28 17 93 30 145 21 87 32 142 40 203 1 12 4 27 6 34 2 6 0 12 -6 13 -5 0
-16 -32 -23 -72 -12 -68 -43 -220 -62 -313 -10 -46 -70 -162 -85 -163 -5 -1
-11 -9 -13 -19 -3 -15 -1 -16 8 -3 9 12 11 10 7 -10 -23 -114 -50 -249 -53
-267 -2 -13 -9 -23 -15 -23 -6 0 -8 9 -4 20 3 11 2 20 -4 20 -5 0 -11 -14 -13
-32 -2 -17 -9 -33 -17 -36 -23 -8 -3 110 50 287 10 36 15 67 10 70 -8 6 13
149 24 159 3 3 5 -10 6 -29 0 -19 4 -43 9 -54 6 -14 9 2 8 50 -1 75 12 138 62
305 42 140 45 154 32 146 -13 -8 -40 -91 -72 -226 -24 -101 -47 -160 -63 -160
-12 0 -1 88 13 106 8 8 8 14 -1 19 -16 11 -27 -12 -35 -75 -4 -30 -11 -64 -15
-75 -12 -28 -2 141 11 185 10 35 13 86 3 63 -2 -7 -8 -13 -13 -13 -10 0 5 56
30 112 24 52 28 99 5 57 -27 -49 -95 -271 -95 -308 0 -12 -5 -21 -11 -21 -11
0 -8 71 4 115 16 58 29 114 36 151 4 23 20 66 34 96 29 60 32 68 18 68 -14 0
-63 -125 -97 -245 -13 -47 -18 -56 -24 -40 -4 11 -3 34 2 50 19 62 20 72 4 45
-21 -35 -20 -10 3 55 11 30 15 55 10 55 -5 0 -9 -6 -9 -12 0 -20 -48 -118 -58
-118 -5 0 -8 27 -7 60 1 33 -2 60 -5 60 -4 0 -14 -24 -23 -52 l-16 -53 6 55
c3 30 10 61 16 68 5 7 7 16 3 20 -11 11 -36 -29 -36 -57 0 -14 -11 -71 -25
-126 -56 -229 -95 -373 -110 -413 -13 -36 -19 -59 -24 -91 -1 -3 -6 0 -12 6
-13 13 5 113 22 124 6 3 12 17 14 30 1 13 10 49 18 79 24 82 24 83 62 240 19
80 43 171 54 203 20 57 11 82 -10 30z m-834 -133 c-3 -5 -10 -10 -16 -10 -5 0
-9 5 -9 10 0 6 7 10 16 10 8 0 12 -4 9 -10z m-22 -73 c6 -15 67 -11 67 4 0 18
28 9 33 -11 6 -23 -30 -50 -66 -50 -22 0 -29 8 -55 63 -2 4 1 7 6 7 6 0 12 -6
15 -13z m886 -30 c1 -5 -3 -5 -9 -2 -5 3 -11 0 -11 -7 -5 -52 -11 -87 -24
-131 -8 -28 -20 -103 -26 -166 -6 -63 -17 -133 -25 -156 -11 -33 -33 -185 -34
-237 0 -5 -5 -8 -11 -8 -15 0 -3 144 22 244 14 58 16 82 8 87 -9 5 -8 20 1 60
45 197 72 308 82 333 10 26 13 27 19 10 4 -10 8 -23 8 -27z m182 -64 c-10 -17
-10 -16 -11 3 0 23 13 41 18 25 2 -6 -1 -18 -7 -28z m-94 -5 c-3 -8 -6 -5 -6
6 -1 11 2 17 5 13 3 -3 4 -12 1 -19z m-90 -95 c-3 -43 -10 -97 -15 -120 -5
-24 -6 -43 -3 -43 4 0 13 28 20 63 8 34 15 57 18 51 9 -24 -68 -519 -83 -533
-4 -3 -4 12 -1 35 4 22 14 93 22 157 8 63 18 123 21 131 3 9 2 16 -4 16 -16 0
-28 -46 -48 -178 -9 -67 -22 -122 -27 -122 -11 0 -1 107 19 205 8 39 17 88 20
110 22 180 47 305 61 305 3 0 3 -35 0 -77z m-1107 -35 c-11 -60 -24 -88 -40
-88 -7 0 2 54 22 138 17 69 32 27 18 -50z m35 -35 c-6 -72 -24 -143 -35 -143
-3 0 -3 24 2 53 5 28 11 76 14 105 9 78 27 65 19 -15z m556 21 c4 -21 3 -43
-1 -49 -5 -5 -12 -43 -15 -83 -4 -40 -12 -75 -17 -78 -9 -6 -3 101 8 138 4 14
1 16 -12 11 -15 -5 -16 -2 -9 23 10 40 13 57 14 72 2 29 26 3 32 -34z m-729 4
c-7 -7 -12 -8 -12 -2 0 14 12 26 19 19 2 -3 -1 -11 -7 -17z m216 -29 c11 -16
11 -24 1 -35 -7 -9 -13 -40 -13 -69 -1 -32 -7 -59 -15 -67 -11 -11 -13 -5 -7
42 3 30 6 76 6 103 0 51 8 59 28 26z m1182 6 c0 -8 -4 -15 -10 -15 -5 0 -10 7
-10 15 0 8 5 15 10 15 6 0 10 -7 10 -15z m-641 -56 c-15 -9 -32 -2 -24 11 3 5
13 6 21 3 12 -4 13 -8 3 -14z m537 -51 c-3 -29 -8 -78 -11 -109 -7 -68 -10
-86 -23 -119 -8 -20 -22 -93 -27 -145 -14 -117 -19 -145 -26 -145 -5 0 -9 9
-9 20 0 11 -4 20 -9 20 -5 0 -11 7 -14 14 -4 10 -1 13 9 9 7 -3 14 -1 14 3 0
5 14 86 31 179 17 94 33 186 35 205 3 19 7 54 10 78 8 62 27 53 20 -10z m489
-29 c-3 -45 -11 -91 -16 -103 -9 -21 -5 63 8 147 10 67 16 39 8 -44z m-970 54
c-5 -10 -10 -33 -13 -50 -6 -48 -22 -40 -22 10 0 47 5 57 28 57 10 0 12 -5 7
-17z m45 -21 c-10 -20 -21 -54 -25 -75 -4 -20 -11 -37 -16 -37 -13 0 -11 40 6
98 12 39 21 52 34 52 19 0 19 -1 1 -38z m-305 1 c-4 -10 -10 -48 -12 -86 -6
-66 -23 -105 -23 -51 0 46 23 154 33 154 5 0 6 -8 2 -17z m785 10 c-5 -86 -32
-238 -48 -273 -18 -40 -20 -42 -21 -18 -1 15 3 29 8 32 5 3 14 50 20 103 17
136 22 163 32 163 5 0 9 -3 9 -7z m-1040 -19 c33 -20 60 -63 60 -98 0 -18 -4
-24 -15 -20 -12 5 -15 -5 -15 -55 0 -36 -6 -71 -14 -84 -8 -13 -19 -74 -25
-147 -7 -69 -15 -139 -20 -155 l-9 -30 -1 30 c-1 17 3 68 9 115 5 47 11 112
14 145 3 33 7 74 9 90 16 114 19 175 8 175 -7 0 -11 -19 -11 -47 0 -57 -30
-193 -42 -193 -5 0 -6 5 -3 10 7 11 15 150 14 233 0 26 3 47 6 47 4 0 19 -7
35 -16z m1620 -13 c0 -6 -4 -13 -10 -16 -5 -3 -10 1 -10 9 0 9 5 16 10 16 6 0
10 -4 10 -9z m-794 -38 c-2 -10 -7 -33 -11 -50 -6 -32 -25 -47 -25 -20 0 27
22 87 31 87 6 0 8 -8 5 -17z m824 5 c0 -19 -40 -81 -47 -74 -8 8 27 86 39 86
4 0 8 -6 8 -12z m-1813 -20 c-3 -8 -6 -5 -6 6 -1 11 2 17 5 13 3 -3 4 -12 1
-19z m1313 9 c0 -7 -7 -22 -15 -33 -14 -18 -14 -18 -15 7 0 14 3 29 7 32 11
11 23 8 23 -6z m-946 -34 c-2 -21 -6 -64 -9 -95 -4 -32 -11 -58 -16 -58 -7 0
-8 22 -4 58 11 102 17 132 25 132 4 0 6 -17 4 -37z m229 -66 c-3 -53 -9 -97
-13 -97 -7 0 -2 164 6 189 10 31 12 1 7 -92z m-493 74 c0 -6 -4 -13 -10 -16
-5 -3 -10 1 -10 9 0 9 5 16 10 16 6 0 10 -4 10 -9z m1750 -12 c0 -5 -9 -19
-20 -31 -11 -12 -32 -52 -46 -90 -15 -37 -30 -68 -35 -68 -19 0 38 153 73 197
11 14 28 8 28 -8z m-1828 -33 c-2 -20 -9 -36 -14 -36 -6 0 -7 7 -4 16 3 9 6
27 6 40 0 14 4 23 8 20 4 -3 6 -21 4 -40z m24 -145 c-9 -76 -16 -141 -16 -144
0 -4 -5 -7 -11 -7 -5 0 -8 3 -5 8 2 4 7 52 10 107 7 103 28 224 34 192 2 -10
-3 -80 -12 -156z m585 84 c-9 -38 -9 -38 -10 -9 -1 17 2 47 6 65 7 30 8 31 11
9 1 -14 -1 -43 -7 -65z m205 70 c-3 -20 -16 -31 -16 -13 0 13 8 28 16 28 1 0
1 -7 0 -15z m19 -90 c-4 -47 -11 -85 -17 -85 -10 0 -5 82 9 153 11 54 15 17 8
-68z m430 58 c-4 -21 -14 -50 -22 -66 -11 -23 -12 -31 -3 -37 7 -4 9 -13 5
-20 -4 -6 -12 -46 -19 -88 -11 -74 -13 -77 -44 -86 -18 -5 -34 -7 -36 -5 -7 6
20 99 43 152 12 27 21 52 21 57 0 11 53 130 58 130 2 0 1 -17 -3 -37z m595 2
c0 -16 -113 -252 -131 -273 -22 -26 -20 -3 5 67 39 108 99 221 117 221 5 0 9
-7 9 -15z m-1204 -82 c-7 -87 -11 -102 -22 -91 -9 10 8 178 19 178 6 0 7 -31
3 -87z m873 -8 c-15 -164 -22 -212 -41 -278 -14 -52 -23 -67 -34 -63 -10 4
-16 -3 -21 -24 -10 -55 -19 -40 -16 29 1 37 9 81 18 97 8 16 15 52 16 79 0 28
4 59 9 70 12 24 2 -154 -10 -202 -5 -18 -5 -33 0 -33 7 0 17 39 35 140 3 14 7
43 10 65 16 132 32 214 39 203 2 -2 -1 -39 -5 -83z m-1468 -30 l-9 -40 -1 50
c0 28 3 61 7 75 6 23 7 22 10 -10 2 -19 -1 -53 -7 -75z m147 23 c1 -35 -3 -48
-14 -48 -15 0 -17 23 -7 83 8 50 21 29 21 -35z m594 50 c-7 -7 -12 -8 -12 -2
0 14 12 26 19 19 2 -3 -1 -11 -7 -17z m1098 -18 c8 -15 6 -28 -13 -57 -46 -77
-163 -343 -201 -460 -20 -60 -40 -71 -32 -18 7 43 -16 48 -46 10 -22 -28 -38
-32 -38 -9 0 17 60 94 74 94 4 0 5 -12 2 -26 -7 -25 -7 -25 17 -7 24 17 37 56
52 146 8 48 99 237 103 214 7 -35 22 -15 22 29 0 43 25 104 42 104 4 0 12 -9
18 -20z m-1479 -49 c-6 -11 -11 -37 -11 -58 -1 -30 -3 -34 -11 -21 -7 12 -4
35 8 78 11 36 19 53 21 41 2 -11 -2 -29 -7 -40z m-48 -104 c-6 -135 -13 -175
-25 -129 -5 17 11 246 18 271 11 36 13 -7 7 -142z m84 116 c-3 -10 -5 -4 -5
12 0 17 2 24 5 18 2 -7 2 -21 0 -30z m-217 7 c0 -11 -4 -20 -10 -20 -5 0 -10
9 -10 20 0 11 5 20 10 20 6 0 10 -9 10 -20z m-260 -50 l-8 -55 -1 51 c-1 43 6
71 15 61 1 -1 -1 -27 -6 -57z m1497 28 c-3 -8 -6 -5 -6 6 -1 11 2 17 5 13 3
-3 4 -12 1 -19z m-991 -85 c-3 -48 -11 -92 -18 -98 -8 -7 -9 1 -4 30 3 22 9
66 13 98 9 89 17 67 9 -30z m274 37 c0 -22 -4 -40 -10 -40 -11 0 -13 39 -4 64
10 26 14 19 14 -24z m1162 3 c3 -27 -6 -60 -35 -127 -38 -90 -57 -122 -57 -98
0 7 7 29 16 50 8 20 17 60 18 87 4 48 32 125 47 125 4 0 9 -16 11 -37z m-1835
-50 c-3 -10 -5 -2 -5 17 0 19 2 27 5 18 2 -10 2 -26 0 -35z m153 28 c0 -11 -4
-23 -10 -26 -6 -4 -10 5 -10 19 0 14 5 26 10 26 6 0 10 -9 10 -19z m-180 -6
c0 -8 -4 -15 -10 -15 -5 0 -10 7 -10 15 0 8 5 15 10 15 6 0 10 -7 10 -15z
m811 -35 c5 0 9 5 9 10 0 14 12 12 35 -6 20 -15 20 -15 -4 -35 -13 -10 -26
-19 -31 -19 -11 0 -30 48 -29 73 l2 22 4 -22 c2 -13 9 -23 14 -23z m-431 -29
c0 -28 -5 -53 -10 -56 -7 -4 -10 13 -8 49 4 69 18 74 18 7z m180 15 c0 -19 -4
-38 -10 -41 -6 -4 -10 10 -10 34 0 23 5 41 10 41 6 0 10 -15 10 -34z m-365
-13 c-1 -21 -3 -44 -4 -52 -1 -8 -4 -11 -8 -7 -8 7 -5 75 4 89 9 15 12 6 8
-30z m-51 -85 c-4 -57 -6 -111 -6 -120 0 -10 -3 -20 -9 -23 -11 -7 -12 46 -2
163 3 45 10 82 14 82 5 0 6 -46 3 -102z m-124 7 c0 -76 -10 -107 -22 -72 -5
12 13 157 19 157 2 0 3 -38 3 -85z m900 28 c0 -10 -6 -13 -15 -9 -10 4 -19 -2
-25 -17 -8 -19 -9 -17 -9 15 -1 20 2 44 6 54 6 15 8 15 25 -6 10 -12 18 -29
18 -37z m-653 25 c-3 -8 -6 -5 -6 6 -1 11 2 17 5 13 3 -3 4 -12 1 -19z m-43
-188 c-16 -30 -17 -24 -14 95 2 120 14 131 21 20 4 -64 2 -97 -7 -115z m1555
169 c-12 -23 -39 -123 -39 -145 0 -8 5 -12 10 -9 6 3 10 -1 10 -11 0 -11 -6
-15 -20 -11 -22 6 -36 -9 -32 -34 3 -19 -24 -85 -39 -94 -17 -11 -20 0 -8 31
7 16 11 37 10 47 -1 10 4 28 12 40 17 26 64 137 78 185 6 18 14 30 20 27 5 -4
5 -14 -2 -26z m-1842 -11 c-3 -8 -6 -5 -6 6 -1 11 2 17 5 13 3 -3 4 -12 1 -19z
m165 -55 c-5 -79 -7 -91 -18 -80 -8 8 7 157 16 157 4 0 5 -35 2 -77z m747 65
c-1 -7 -5 -24 -9 -38 -7 -22 -8 -21 -9 13 -1 20 4 37 9 37 6 0 10 -6 9 -12z
m301 -27 c0 -12 -20 -25 -27 -18 -7 7 6 27 18 27 5 0 9 -4 9 -9z m128 -31 c-3
-35 -3 -35 -52 -35 -59 0 -74 21 -22 31 26 4 36 11 36 24 0 13 7 18 20 17 18
-1 20 -7 18 -37z m737 27 c17 -13 16 -18 -22 -108 -57 -133 -122 -365 -115
-406 2 -6 -2 -14 -8 -18 -5 -3 -10 -15 -10 -25 0 -11 -13 -34 -30 -52 -25 -28
-29 -30 -29 -13 0 11 6 29 14 39 15 19 38 92 55 169 5 23 19 78 30 122 12 44
25 98 30 120 5 22 16 61 25 85 9 25 19 57 22 73 6 31 11 33 38 14z m-1605 -37
c0 -16 -4 -32 -10 -35 -6 -4 -10 10 -10 35 0 25 4 39 10 35 6 -3 10 -19 10
-35z m932 -25 c-6 -34 -16 -61 -25 -66 -9 -5 -21 -34 -28 -65 -14 -64 -34 -86
-25 -28 3 22 8 51 12 67 4 16 2 27 -4 27 -8 0 -19 -25 -26 -60 -9 -41 -30
-100 -37 -100 -12 0 1 69 22 119 11 24 19 49 19 56 0 7 9 15 20 18 12 3 20 14
20 26 0 12 6 21 15 21 8 0 15 6 15 13 0 14 21 39 27 33 2 -2 0 -29 -5 -61z
m-1358 40 c3 -8 1 -15 -4 -15 -6 0 -10 7 -10 15 0 8 2 15 4 15 2 0 6 -7 10
-15z m981 -52 c-6 -18 -35 -16 -35 1 0 8 5 27 11 43 l12 28 8 -30 c5 -16 7
-36 4 -42z m342 45 c-3 -8 -6 -5 -6 6 -1 11 2 17 5 13 3 -3 4 -12 1 -19z
m-549 -43 c-3 -63 -18 -75 -18 -16 0 38 8 71 17 71 2 0 3 -25 1 -55z m326 40
c3 -8 1 -15 -3 -15 -5 0 -11 7 -15 15 -3 8 -1 15 3 15 5 0 11 -7 15 -15z
m-898 -62 c-8 -79 -23 -148 -26 -118 -3 29 4 167 9 183 1 1 6 2 12 2 8 0 9
-21 5 -67z m904 -96 c-16 -35 -36 -92 -45 -128 -9 -35 -21 -68 -26 -74 -12
-12 -12 41 0 64 6 9 12 40 14 67 3 28 12 64 21 82 18 35 19 42 8 42 -5 0 -22
-31 -37 -70 -15 -38 -31 -70 -35 -70 -8 0 -35 -95 -54 -188 -8 -41 -17 -76
-20 -80 -13 -13 -17 9 -7 44 6 22 13 57 17 78 8 54 41 159 70 224 27 61 27 62
16 62 -8 0 -78 -176 -104 -265 -9 -27 -21 -69 -28 -92 -7 -24 -17 -43 -22 -43
-5 0 -7 8 -4 18 3 9 10 51 16 92 6 41 16 77 22 81 6 4 8 15 4 24 -9 25 -32 3
-40 -40 -4 -19 -11 -35 -16 -35 -6 0 -6 10 0 25 5 14 9 29 8 33 -3 10 23 85
33 97 5 5 9 14 9 20 0 18 -59 -78 -66 -108 -3 -15 -17 -35 -30 -43 -25 -17
-39 -55 -50 -141 -10 -79 -31 -65 -25 17 1 21 14 59 51 155 22 58 39 84 84
125 27 25 56 45 64 45 8 0 18 10 23 23 5 12 14 22 20 22 19 0 49 31 49 50 0
40 22 38 65 -6 l44 -43 -29 -64z m984 137 c10 -26 7 -44 -8 -44 -20 0 -46 -71
-66 -181 -16 -86 -74 -238 -91 -239 -4 0 6 39 23 88 16 48 33 116 37 152 7 52
55 195 77 232 8 13 21 9 28 -8z m-1203 -87 c-13 -13 -15 50 -3 80 5 13 8 5 10
-26 2 -24 -2 -49 -7 -54z m-31 58 c0 -8 -4 -17 -10 -20 -6 -4 -10 5 -10 20 0
15 4 24 10 20 6 -3 10 -12 10 -20z m70 -9 c0 -19 -4 -38 -10 -41 -6 -4 -10 10
-10 34 0 23 5 41 10 41 6 0 10 -15 10 -34z m-200 14 c0 -5 -4 -10 -10 -10 -5
0 -10 5 -10 10 0 6 5 10 10 10 6 0 10 -4 10 -10z m92 -67 c-2 -35 -8 -63 -14
-63 -6 0 -8 12 -4 31 3 17 6 50 6 72 0 23 4 37 8 32 4 -6 6 -38 4 -72z m25
-35 c-2 -13 -4 -3 -4 22 0 25 2 35 4 23 2 -13 2 -33 0 -45z m389 30 c-8 -18
-23 -62 -35 -98 -20 -62 -21 -63 -16 -20 3 25 8 63 11 85 10 61 -10 31 -30
-45 -23 -88 -39 -111 -31 -45 12 96 -16 19 -35 -98 -10 -62 -25 -130 -34 -152
l-16 -40 5 35 c14 104 45 269 55 295 40 106 44 110 112 114 27 1 28 1 14 -31z
m574 -4 c-9 -38 -17 -51 -26 -41 -8 8 15 77 26 77 4 0 4 -16 0 -36z m324 20
c9 -24 -22 -73 -46 -74 -4 0 0 20 9 45 16 47 27 56 37 29z m-2065 -46 c-1 -35
-2 -38 -8 -18 -7 23 -4 60 5 60 2 0 4 -19 3 -42z m241 22 c0 -11 -4 -20 -10
-20 -5 0 -10 2 -10 4 0 2 -3 11 -6 20 -4 11 -1 16 10 16 9 0 16 -8 16 -20z
m1117 -12 c-3 -8 -6 -5 -6 6 -1 11 2 17 5 13 3 -3 4 -12 1 -19z m-1307 -13 c0
-18 -4 -23 -15 -19 -16 6 -20 26 -8 37 13 14 23 6 23 -18z m2055 -47 c8 -44
-2 -98 -17 -98 -6 0 -8 13 -4 35 8 41 -10 49 -20 10 -3 -14 -15 -30 -25 -36
-24 -12 -23 -5 1 46 11 22 19 49 20 61 0 11 5 25 12 32 15 15 25 1 33 -50z
m-2150 32 c3 -5 1 -10 -4 -10 -6 0 -11 5 -11 10 0 6 2 10 4 10 3 0 8 -4 11
-10z m1365 -82 c-12 -28 -22 -66 -23 -84 -1 -25 -4 -31 -13 -23 -13 10 -7 43
20 117 21 57 28 70 34 53 2 -6 -6 -35 -18 -63z m400 53 c0 -5 -11 -28 -24 -52
-14 -24 -32 -71 -42 -104 -21 -75 -53 -150 -60 -142 -8 8 51 198 80 255 23 46
46 67 46 43z m281 -88 c-12 -45 -36 -81 -47 -71 -4 4 -2 13 4 20 5 7 18 40 28
73 20 66 33 46 15 -22z m-1923 55 c-2 -6 -10 -14 -16 -16 -7 -2 -10 2 -6 12 7
18 28 22 22 4z m627 -7 c-3 -6 -16 -16 -28 -22 -21 -11 -21 -10 2 15 23 25 40
29 26 7z m570 -13 c-9 -43 -68 -165 -72 -151 -3 7 2 24 10 40 7 15 22 54 32
86 20 61 41 78 30 25z m-584 -84 c-17 -31 -33 -72 -37 -90 -3 -19 -10 -34 -15
-34 -15 0 -22 29 -11 43 5 6 13 28 17 47 8 37 67 119 73 101 2 -6 -10 -36 -27
-67z m515 15 c-12 -28 -15 -30 -15 -12 -1 31 21 83 26 62 2 -9 -3 -32 -11 -50z
m293 5 c-6 -27 -16 -53 -21 -59 -7 -7 -8 -3 -5 10 3 11 11 40 17 64 6 23 13
41 16 38 3 -2 0 -26 -7 -53z m117 19 c-10 -42 -58 -153 -66 -153 -7 0 18 100
39 153 6 15 16 27 22 27 7 0 9 -10 5 -27z m194 -38 c-10 -33 -19 -53 -19 -44
-1 18 30 112 35 107 2 -2 -5 -31 -16 -63z m-685 -22 c-7 -76 -25 -141 -40
-147 -11 -4 -13 2 -9 27 8 45 44 167 49 167 2 0 2 -21 0 -47z m425 30 c-1 -10
-10 -36 -21 -58 l-20 -40 6 40 c9 56 15 75 26 75 5 0 9 -8 9 -17z m-476 -40
c-3 -27 -12 -81 -20 -121 -13 -61 -13 -76 -2 -89 11 -14 11 -16 -3 -11 -11 4
-29 -4 -50 -23 -18 -16 -35 -29 -38 -29 -3 0 -26 -18 -51 -40 -25 -22 -54 -40
-65 -40 -14 0 -9 7 20 27 58 38 165 128 165 138 0 2 -7 2 -15 -1 -20 -8 -20
29 -1 45 8 7 17 28 20 49 9 50 36 142 41 142 3 0 2 -21 -1 -47z m77 -97 c-19
-18 -21 -19 -21 -3 0 10 8 45 18 78 l17 60 3 -57 c3 -47 -1 -61 -17 -78z m269
122 c0 -7 -5 -20 -10 -28 -8 -12 -10 -9 -10 13 0 15 5 27 10 27 6 0 10 -6 10
-12z m-75 -95 c-18 -54 -53 -133 -59 -133 -6 0 19 92 31 115 6 11 16 32 24 47
19 43 22 25 4 -29z m659 33 c-3 -9 -13 -16 -22 -16 -13 0 -12 3 3 20 20 23 29
21 19 -4z m-1072 -31 c-2 -14 -8 -25 -13 -25 -10 0 -12 21 -3 44 9 24 22 10
16 -19z m818 -32 c-7 -32 -15 -62 -18 -68 -4 -5 -7 -34 -7 -63 -1 -43 -6 -58
-28 -80 -29 -29 -38 -13 -14 23 21 31 38 85 26 85 -6 0 -6 7 -1 18 5 9 12 35
15 57 6 47 25 100 33 92 3 -3 0 -32 -6 -64z m37 45 c-3 -8 -6 -5 -6 6 -1 11 2
17 5 13 3 -3 4 -12 1 -19z m-352 -45 c-4 -32 -14 -73 -21 -92 -8 -18 -14 -41
-14 -50 0 -9 -6 -28 -14 -42 -7 -14 -16 -38 -20 -53 -4 -16 -9 -26 -12 -24
-14 14 65 318 83 318 2 0 1 -26 -2 -57z m-690 -15 c-9 -89 -15 -118 -26 -118
-5 0 -9 25 -9 55 0 30 4 55 9 55 5 0 12 16 15 35 11 58 18 40 11 -27z m631 -9
c-17 -81 -65 -237 -76 -244 -11 -7 61 282 77 307 12 21 12 -2 -1 -63z m401 29
c-3 -8 -6 -5 -6 6 -1 11 2 17 5 13 3 -3 4 -12 1 -19z m-803 -53 c-2 -63 -22
-115 -44 -115 -13 0 -13 47 0 55 6 3 10 17 10 31 0 13 4 32 9 42 5 9 12 25 15
35 9 29 11 20 10 -48z m287 -8 c-11 -23 -32 -69 -45 -102 -15 -36 -25 -51 -26
-38 0 12 5 25 10 28 6 3 10 17 10 31 0 13 4 32 9 42 5 9 20 40 33 67 15 33 24
44 26 32 2 -9 -6 -36 -17 -60z m249 -1 c-17 -45 -22 -24 -8 30 10 38 14 43 16
23 2 -14 -2 -38 -8 -53z m191 47 c-8 -15 -10 -15 -11 -2 0 17 10 32 18 25 2
-3 -1 -13 -7 -23z m-245 -81 c-9 -43 -23 -97 -31 -118 l-15 -39 6 45 c7 58 45
202 51 196 3 -3 -2 -40 -11 -84z m-675 -6 c-9 -81 -17 -99 -30 -77 -8 12 12
132 25 153 12 19 13 0 5 -76z m341 34 c-23 -22 -48 -40 -55 -40 -6 0 10 21 36
46 27 26 51 43 55 40 3 -4 -13 -25 -36 -46z m-206 -12 c-12 -99 -18 -118 -33
-118 -16 0 -13 43 9 128 15 61 32 54 24 -10z m649 15 c-12 -74 -35 -198 -42
-223 -6 -21 -8 -18 -12 20 -4 25 -3 56 1 70 4 14 15 54 24 90 19 70 23 80 30
80 3 0 2 -17 -1 -37z m-376 -34 c-17 -33 -33 -59 -35 -56 -6 5 24 87 37 104
27 32 26 8 -2 -48z m-368 -35 c-13 -71 -14 -87 -2 -79 5 3 13 29 16 59 7 52
19 85 29 75 3 -2 0 -22 -5 -44 -6 -22 -13 -55 -16 -73 -6 -38 -39 -63 -49 -37
-7 17 0 69 17 128 16 57 22 38 10 -29z m789 12 c-6 -6 -10 -19 -10 -30 0 -37
-22 -146 -30 -146 -4 0 -4 19 1 43 4 23 5 51 3 62 -3 11 2 34 10 50 9 17 16
37 16 45 0 13 1 13 10 0 6 -9 6 -18 0 -24z m-114 -13 c-3 -21 -11 -72 -17
-113 -6 -41 -15 -82 -20 -92 -5 -9 -9 -28 -9 -42 0 -14 -5 -26 -11 -26 -7 0
-9 12 -6 33 3 17 10 64 16 102 18 113 33 175 44 175 6 0 7 -15 3 -37z m-208
-80 c-11 -43 -24 -85 -29 -93 -14 -25 -11 35 5 77 8 21 17 50 20 66 4 15 10
27 15 27 5 0 0 -35 -11 -77z m370 45 c-10 -35 -23 -85 -33 -130 -3 -16 -10
-28 -16 -28 -23 0 11 156 39 178 22 17 22 16 10 -20z m-484 -20 c-4 -13 -9
-32 -10 -43 -2 -11 -13 -60 -23 -110 -11 -49 -20 -107 -21 -127 0 -20 -4 -39
-9 -42 -11 -7 -12 101 0 139 5 17 21 69 35 118 14 48 27 87 30 87 3 0 2 -10
-2 -22z m61 -40 c-4 -35 -13 -70 -20 -78 -21 -26 -35 -81 -35 -141 0 -38 -4
-59 -11 -59 -18 0 -4 135 21 205 12 33 24 67 25 75 6 28 17 60 22 60 3 0 2
-28 -2 -62z m-130 -42 c-9 -31 -21 -56 -27 -56 -6 0 -7 10 -2 28 4 15 7 37 7
49 -1 12 5 24 13 27 8 3 15 13 15 23 1 16 2 16 6 1 2 -9 -3 -41 -12 -72z m290
37 c-4 -16 -10 -46 -15 -68 -5 -22 -11 -62 -12 -90 -2 -27 -8 -49 -13 -47 -13
4 -9 107 5 144 5 15 15 42 21 58 14 38 21 39 14 3z m-345 -35 c-5 -13 -14 -56
-20 -95 -7 -40 -16 -73 -20 -73 -5 0 -12 -9 -15 -21 -4 -11 -9 -18 -11 -16
-11 11 53 227 67 227 5 0 5 -9 -1 -22z m277 -25 c-3 -10 -5 -4 -5 12 0 17 2
24 5 18 2 -7 2 -21 0 -30z m100 5 c-3 -7 -5 -2 -5 12 0 14 2 19 5 13 2 -7 2
-19 0 -25z m-417 9 c0 -15 -29 -57 -30 -42 0 6 3 20 6 33 7 24 24 31 24 9z
m-89 -44 c-12 -15 -29 -52 -39 -81 -22 -60 -32 -75 -32 -44 0 17 -6 22 -25 22
-30 0 -32 15 -4 55 l21 30 -7 -37 c-9 -54 12 -48 37 10 22 51 61 99 66 83 2
-5 -6 -23 -17 -38z m-235 -10 c-10 -26 -18 -8 -9 23 5 21 8 24 11 11 2 -10 1
-25 -2 -34z m57 6 c4 -15 2 -18 -7 -10 -7 6 -16 8 -19 4 -4 -3 -7 1 -7 10 0
24 27 21 33 -4z m823 -2 c8 3 14 0 14 -6 0 -6 -6 -11 -12 -11 -7 0 -25 -7 -40
-14 -18 -9 -30 -11 -34 -5 -3 6 3 13 15 16 12 3 21 12 21 21 0 12 3 13 11 5 6
-6 18 -9 25 -6z m-280 -28 c-3 -17 -6 -53 -6 -80 0 -28 -5 -49 -11 -49 -7 0
-8 16 -3 46 4 31 3 49 -5 54 -9 5 -9 13 0 33 17 37 33 34 25 -4z m-307 -11
c-6 -18 -14 -41 -19 -50 -5 -9 -13 -35 -16 -58 -7 -41 -24 -66 -24 -34 0 38
44 174 56 174 10 0 11 -7 3 -32z m339 -33 c-2 -36 -6 -65 -10 -65 -10 0 -10
41 -2 93 10 56 15 44 12 -28z m-243 13 c-4 -18 -13 -40 -21 -48 -13 -13 -14
-10 -8 20 6 33 20 60 31 60 3 0 2 -15 -2 -32z m401 6 c-4 -9 -9 -15 -11 -12
-3 3 -3 13 1 22 4 9 9 15 11 12 3 -3 3 -13 -1 -22z m-66 -14 c0 -20 -5 -30
-15 -30 -17 0 -18 4 -9 38 9 32 24 27 24 -8z m-514 -88 c-12 -12 -18 8 -10 35
l8 28 4 -28 c2 -16 1 -31 -2 -35z m171 -19 c-3 -10 -5 -2 -5 17 0 19 2 27 5
18 2 -10 2 -26 0 -35z m163 17 c0 -5 -4 -10 -10 -10 -5 0 -10 5 -10 10 0 6 5
10 10 10 6 0 10 -4 10 -10z m-330 -70 c0 -5 -4 -10 -10 -10 -5 0 -10 5 -10 10
0 6 5 10 10 10 6 0 10 -4 10 -10z"/>
<g>
<path d="M6435 4631 c-3 -5 -1 -12 5 -16 5 -3 10 1 10 9 0 18 -6 21 -15 7z"/>
</g>
<g>
<path d="M6592 4340 c0 -19 2 -27 5 -17 2 9 2 25 0 35 -3 9 -5 1 -5 -18z"/>
</g>
<g>
<path d="M6351 3947 c-11 -24 -21 -50 -21 -58 1 -8 12 10 26 39 15 29 24 55
21 58 -3 3 -14 -15 -26 -39z"/>
</g>
</g>
<g>
<path d="M6110 5240 c0 -5 5 -10 11 -10 5 0 7 5 4 10 -3 6 -8 10 -11 10 -2 0
-4 -4 -4 -10z"/>
</g>
<g>
<path d="M6907 5243 c-9 -8 113 -163 128 -163 17 0 -1 41 -35 78 -22 24 -40
46 -40 50 -1 11 -47 42 -53 35z"/>
</g>
<g>
<path d="M5522 5208 c-18 -18 -15 -27 7 -21 12 3 28 -4 41 -17 27 -27 34 -21
25 19 -5 25 -12 31 -34 31 -15 0 -32 -5 -39 -12z"/>
</g>
<g>
<path d="M6100 5200 c0 -5 5 -10 10 -10 6 0 10 5 10 10 0 6 -4 10 -10 10 -5 0
-10 -4 -10 -10z"/>
</g>
<g>
<path d="M6721 5194 c0 -11 3 -14 6 -6 3 7 2 16 -1 19 -3 4 -6 -2 -5 -13z"/>
</g>
<g>
<path d="M6297 5193 c-4 -3 -7 -11 -7 -17 0 -6 5 -5 12 2 6 6 9 14 7 17 -3 3
-9 2 -12 -2z"/>
</g>
<g>
<path d="M6115 5170 c-3 -5 -1 -10 4 -10 6 0 11 5 11 10 0 6 -2 10 -4 10 -3 0
-8 -4 -11 -10z"/>
</g>
<g>
<path d="M6753 5140 c-26 -59 -47 -139 -40 -147 4 -3 8 0 10 8 18 63 42 136
50 146 5 7 7 18 5 25 -3 7 -14 -7 -25 -32z"/>
</g>
<g>
<path d="M6859 5134 c-6 -16 -24 -94 -41 -173 -16 -80 -31 -148 -34 -152 -2
-4 -7 -27 -9 -51 -3 -24 -3 -38 0 -33 7 15 75 281 92 359 15 72 11 98 -8 50z"/>
</g>
<g>
<path d="M6521 5134 c0 -11 3 -14 6 -6 3 7 2 16 -1 19 -3 4 -6 -2 -5 -13z"/>
</g>
<g>
<path d="M6115 5129 c-11 -17 0 -20 21 -4 17 13 17 14 2 15 -9 0 -20 -5 -23
-11z"/>
</g>
<g>
<path d="M6032 5080 c0 -16 4 -30 9 -30 5 0 9 14 9 30 0 17 -4 30 -8 30 -5 0
-9 -13 -10 -30z"/>
</g>
<g>
<path d="M6936 5039 c-3 -19 -13 -77 -21 -129 -9 -52 -18 -104 -20 -115 -3
-11 2 -4 11 15 21 45 55 242 44 254 -5 5 -11 -6 -14 -25z"/>
</g>
<g>
<path d="M6975 5049 c-4 -6 -9 -50 -11 -97 -3 -65 -1 -78 5 -52 26 102 29 188
6 149z"/>
</g>
<g>
<path d="M6696 4951 c-4 -7 -5 -15 -2 -18 9 -9 19 4 14 18 -4 11 -6 11 -12 0z"/>
</g>
<g>
<path d="M6942 4738 c-7 -46 -12 -94 -11 -108 1 -24 1 -24 9 3 10 34 25 187
18 187 -3 0 -10 -37 -16 -82z"/>
</g>
<g>
<path d="M6271 4764 c0 -11 3 -14 6 -6 3 7 2 16 -1 19 -3 4 -6 -2 -5 -13z"/>
</g>
<g>
<path d="M6886 4759 c-13 -35 -23 -100 -17 -103 8 -6 35 104 27 111 -3 3 -8 0
-10 -8z"/>
</g>
<g>
<path d="M6116 4641 c-16 -42 -36 -146 -36 -194 0 -36 17 -27 18 10 1 31 27
149 42 187 5 14 5 28 1 31 -5 2 -16 -13 -25 -34z"/>
</g>
<g>
<path d="M6705 4529 c-9 -25 -35 -133 -35 -144 0 -5 5 -2 11 9 14 23 41 137
34 144 -2 3 -7 -1 -10 -9z"/>
</g>
<g>
<path d="M2305 3840 c-23 -25 -14 -25 27 0 27 16 29 20 12 20 -11 0 -29 -9
-39 -20z"/>
</g>
<g>
<path d="M2412 3838 c3 -7 15 -15 27 -16 16 -3 22 1 19 10 -3 7 -15 15 -27 16
-16 3 -22 -1 -19 -10z"/>
</g>
<g>
<path d="M1831 3758 c-16 -35 -32 -72 -36 -83 -7 -17 -9 -17 -12 -3 -2 9 3 33
11 53 20 48 20 52 -4 58 -16 4 -30 -10 -71 -71 -28 -43 -48 -69 -45 -59 3 9 9
25 12 35 6 14 4 13 -10 -3 -17 -20 -17 -20 -11 5 5 23 4 23 -7 6 -7 -11 -20
-27 -29 -37 -9 -9 -20 -39 -24 -66 -6 -47 -8 -50 -32 -45 -25 5 -25 5 -8 -22
l17 -26 -62 0 c-53 0 -61 -2 -58 -17 3 -14 14 -18 51 -19 34 0 51 -5 62 -20
12 -16 12 -21 1 -29 -9 -7 -12 -21 -9 -37 4 -22 0 -28 -29 -38 -33 -12 -64
-55 -48 -65 5 -3 12 0 16 6 5 8 8 8 14 -1 5 -8 11 -8 21 3 13 12 16 12 28 0 9
-10 24 -13 42 -9 28 5 48 -7 29 -19 -18 -11 -11 -33 25 -69 28 -29 42 -36 74
-36 38 0 59 -19 45 -41 -3 -5 0 -9 5 -9 6 0 11 -6 11 -14 0 -8 8 -24 18 -35
15 -19 23 -21 60 -15 41 6 43 8 36 33 -4 14 -7 50 -6 80 0 36 -3 50 -9 40 -5
-8 -9 -35 -9 -61 0 -27 -4 -48 -10 -48 -16 0 -23 47 -17 108 6 56 6 57 -8 22
-7 -19 -14 -45 -14 -57 -1 -13 -5 -23 -11 -23 -12 0 -13 42 -1 93 5 20 5 37 1
37 -10 0 -20 -36 -20 -72 0 -16 -4 -28 -10 -28 -11 0 -11 4 -12 68 0 49 -18
58 -19 10 l0 -33 -16 39 c-15 37 -15 43 3 95 12 37 27 59 42 66 12 5 22 13 22
18 0 5 9 6 20 2 11 -3 28 -2 37 4 16 8 15 11 -12 21 -50 19 -68 20 -92 5 -18
-12 -21 -21 -17 -44 7 -33 -11 -51 -21 -22 -16 51 15 151 51 165 9 3 14 20 14
44 0 22 6 45 13 51 11 9 14 1 13 -40 -1 -38 -6 -54 -20 -65 -26 -19 -13 -29
39 -29 31 0 50 6 67 22 13 11 38 30 57 40 34 19 52 43 33 43 -6 0 -34 -18 -63
-40 -54 -40 -73 -48 -83 -31 -10 16 6 41 26 41 17 0 18 3 9 14 -13 16 1 56 19
56 6 0 10 7 10 15 0 9 7 18 15 21 8 4 15 10 15 16 0 5 -4 6 -10 3 -5 -3 -10
-3 -10 2 1 20 19 34 50 38 l33 4 -23 -24 c-28 -30 -19 -46 10 -20 25 23 39 12
17 -13 -16 -18 -23 -42 -11 -42 3 0 25 15 49 33 23 17 50 37 60 42 37 23 -24
77 -63 56 -12 -6 -36 -9 -53 -6 -40 7 -102 -35 -92 -63 3 -9 3 -14 -2 -10 -4
4 -15 2 -23 -5 -13 -10 -14 -9 -8 13 4 14 10 36 13 50 5 25 5 25 -21 -5 l-26
-30 12 30 c6 17 16 36 21 43 6 8 5 12 -2 12 -6 0 -24 -28 -40 -62z m-141 -266
c0 -13 -12 -22 -22 -16 -10 6 -1 24 13 24 5 0 9 -4 9 -8z m16 -98 c-4 -9 -9
-15 -11 -12 -3 3 -3 13 1 22 4 9 9 15 11 12 3 -3 3 -13 -1 -22z m-156 -68 c0
-2 -7 -9 -15 -16 -13 -11 -14 -10 -9 4 5 14 24 23 24 12z m180 -36 c0 -5 -4
-10 -10 -10 -5 0 -10 5 -10 10 0 6 5 10 10 10 6 0 10 -4 10 -10z m-40 -25 c-7
-9 -15 -13 -17 -11 -7 7 7 26 19 26 6 0 6 -6 -2 -15z m45 -75 c3 -5 -1 -10 -9
-10 -9 0 -16 5 -16 10 0 6 4 10 9 10 6 0 13 -4 16 -10z"/>
</g>
<g>
<path d="M2326 3798 c-12 -16 -18 -19 -22 -10 -3 6 -10 12 -16 12 -5 0 -8 -6
-5 -12 2 -7 -5 -26 -16 -41 -10 -16 -20 -43 -21 -60 -1 -29 1 -32 28 -30 23 2
27 -1 23 -17 -6 -25 19 -48 35 -32 13 13 42 16 34 4 -2 -4 -1 -14 3 -21 6 -9
16 -8 45 5 27 13 43 15 63 8 29 -10 28 -5 43 -174 5 -63 11 -126 12 -140 3
-23 0 -25 -44 -28 -48 -3 -69 -22 -25 -22 18 0 19 -2 7 -10 -8 -5 -10 -10 -4
-10 6 0 17 6 23 13 16 20 71 20 71 0 0 -9 6 -13 15 -9 8 3 15 1 15 -3 0 -5 -4
-11 -9 -13 -5 -1 -12 -18 -16 -37 -5 -23 -4 -31 4 -27 6 4 11 12 11 17 0 11
70 102 83 107 8 4 10 32 1 32 -4 0 -19 -15 -35 -32 l-29 -33 0 28 c0 18 -5 27
-16 27 -11 0 -14 6 -9 20 3 11 3 20 -2 20 -13 0 -34 63 -25 72 5 5 5 38 0 74
-6 46 -6 70 2 79 7 8 9 23 5 34 -3 10 -1 22 5 26 8 5 7 11 -2 22 -10 12 -9 17
5 24 9 6 17 17 17 24 0 19 -8 19 -26 0 -9 -8 -28 -15 -42 -15 -15 0 -44 -11
-64 -25 -20 -14 -41 -25 -47 -25 -20 0 3 42 28 51 14 5 32 12 40 15 21 7 8 15
-33 20 -37 4 -38 4 -95 -66 l-20 -25 -1 26 c0 17 14 39 42 67 53 53 30 55 -39
2 -53 -40 -67 -41 -53 -4 10 25 82 84 103 84 22 0 30 17 11 24 -27 10 -41 7
-58 -16z"/>
</g>
<g>
<path d="M2490 3811 c0 -5 11 -11 23 -15 39 -9 74 -43 81 -77 7 -34 23 -59 38
-59 9 0 5 34 -9 83 -11 40 -133 102 -133 68z"/>
</g>
<g>
<path d="M6077 3797 c-4 -10 -7 -26 -7 -35 1 -15 2 -15 11 1 6 10 9 25 7 35
-3 16 -4 15 -11 -1z"/>
</g>
<g>
<path d="M2098 3704 c-16 -8 -28 -22 -28 -32 0 -10 3 -13 8 -6 4 6 20 15 36
21 31 10 48 33 24 33 -7 -1 -25 -8 -40 -16z"/>
</g>
<g>
<path d="M5800 3690 c-71 -6 -130 -28 -130 -46 0 -10 -42 -16 -117 -16 -12 0
-23 -8 -26 -17 -2 -9 -24 -23 -48 -31 -24 -7 -52 -20 -61 -28 -9 -8 -21 -11
-27 -8 -5 4 -12 2 -15 -3 -4 -5 -2 -12 4 -16 18 -11 -1 -27 -26 -21 -13 4 -24
2 -24 -3 0 -14 34 -31 59 -31 28 0 26 -14 -4 -34 -17 -11 -25 -26 -25 -46 0
-27 2 -28 33 -23 23 3 37 0 46 -11 10 -12 18 -13 33 -5 11 6 31 8 44 5 19 -5
32 0 54 23 19 19 36 27 49 24 24 -6 31 6 20 35 -11 29 -42 29 -113 -3 -32 -14
-62 -23 -67 -19 -6 3 -18 -1 -27 -9 -22 -19 -62 -31 -62 -19 0 19 81 74 109
76 16 1 34 6 42 13 8 6 28 15 44 19 44 10 56 23 48 53 -8 34 -6 34 -39 16 -34
-17 -54 -19 -54 -5 0 6 -20 -3 -45 -20 -25 -17 -51 -30 -57 -28 -7 3 9 19 36
37 26 18 54 30 62 27 8 -3 32 5 52 19 22 15 51 25 73 25 22 0 47 8 64 21 17
14 45 23 78 25 73 6 117 15 117 25 0 5 -8 8 -17 7 -10 -1 -47 -4 -83 -8z"/>
</g>
<g>
<path d="M1970 3675 c-7 -9 -11 -18 -8 -20 3 -3 11 1 18 10 7 9 11 18 8 20 -3
3 -11 -1 -18 -10z"/>
</g>
<g>
<path d="M5530 3670 c0 -6 29 -10 68 -10 47 0 63 3 52 10 -20 13 -120 13 -120
0z"/>
</g>
<g>
<path d="M2107 3646 c-4 -10 0 -12 14 -9 22 6 26 23 5 23 -8 0 -16 -6 -19 -14z"/>
</g>
<g>
<path d="M7440 3635 c0 -9 5 -15 11 -13 6 2 11 8 11 13 0 5 -5 11 -11 13 -6 2
-11 -4 -11 -13z"/>
</g>
<g>
<path d="M2645 3631 c-3 -6 -3 -21 1 -34 5 -12 9 -24 9 -27 1 -3 7 -18 13 -33
7 -16 12 -35 12 -43 0 -8 5 -14 10 -14 15 0 12 19 -11 91 -24 73 -25 74 -34
60z"/>
</g>
<g>
<path d="M7624 3628 c-5 -7 -9 -52 -10 -99 -1 -78 -14 -142 -47 -234 -6 -16
-26 -52 -44 -78 -40 -57 -35 -76 7 -27 16 19 32 31 36 27 4 -4 2 -13 -4 -19
-14 -14 -16 -44 -3 -53 11 -6 41 49 41 75 0 9 3 20 8 24 4 4 8 24 9 44 2 39 4
52 25 172 8 42 11 87 7 100 -4 14 -4 35 -2 46 5 25 -12 40 -23 22z"/>
</g>
<g>
<path d="M2141 3623 c-17 -7 -36 -27 -79 -81 -28 -35 -31 -45 -22 -63 7 -11 9
-27 6 -35 -9 -23 20 -16 36 8 15 22 15 22 22 -15 4 -20 12 -37 18 -37 5 0 8 7
4 15 -4 10 1 15 14 15 24 0 26 22 5 44 -11 11 -23 12 -47 5 -17 -5 -34 -6 -37
-3 -11 11 54 55 72 49 9 -3 26 -8 37 -11 14 -5 20 -2 20 10 0 9 -4 16 -9 16
-5 0 -11 9 -14 21 -3 12 -10 18 -16 14 -17 -10 -13 11 4 25 26 22 18 36 -14
23z"/>
</g>
<g>
<path d="M2595 3620 c-3 -5 -1 -10 4 -10 6 0 11 5 11 10 0 6 -2 10 -4 10 -3 0
-8 -4 -11 -10z"/>
</g>
<g>
<path d="M5900 3600 c-25 -17 -38 -30 -29 -30 9 0 22 7 29 15 7 8 18 15 26 15
7 0 16 5 19 11 14 21 -2 17 -45 -11z"/>
</g>
<g>
<path d="M5743 3573 c-13 -2 -23 -11 -23 -19 0 -19 7 -18 37 6 14 11 22 19 17
19 -5 -1 -19 -4 -31 -6z"/>
</g>
<g>
<path d="M2010 3561 c0 -5 -24 -23 -54 -40 -29 -17 -59 -38 -66 -46 -22 -27
18 -18 44 10 13 14 34 25 48 25 15 0 32 11 46 30 22 30 22 30 2 30 -11 0 -20
-4 -20 -9z"/>
</g>
<g>
<path d="M2576 3541 c-31 -34 -13 -42 24 -11 30 26 32 30 14 30 -11 0 -29 -9
-38 -19z"/>
</g>
<g>
<path d="M5910 3540 c0 -5 7 -7 15 -4 8 4 15 8 15 10 0 2 -7 4 -15 4 -8 0 -15
-4 -15 -10z"/>
</g>
<g>
<path d="M5645 3520 c-3 -5 -2 -10 4 -10 5 0 13 5 16 10 3 6 2 10 -4 10 -5 0
-13 -4 -16 -10z"/>
</g>
<g>
<path d="M2200 3485 c0 -9 9 -15 21 -15 18 0 19 2 9 15 -7 8 -16 15 -21 15 -5
0 -9 -7 -9 -15z"/>
</g>
<g>
<path d="M2582 3479 c-19 -31 -9 -33 18 -4 16 17 19 25 9 25 -8 0 -20 -9 -27
-21z"/>
</g>
<g>
<path d="M7415 3461 c-16 -21 -42 -47 -57 -57 -26 -18 -38 -44 -20 -44 14 0
112 108 112 124 0 21 0 21 -35 -23z"/>
</g>
<g>
<path d="M2640 3462 c0 -7 -5 -12 -10 -12 -6 0 -20 -9 -32 -20 -16 -15 -18
-20 -7 -20 19 0 65 47 56 57 -4 3 -7 1 -7 -5z"/>
</g>
<g>
<path d="M5690 3450 c-18 -14 -21 -20 -9 -20 9 0 24 9 34 20 23 26 8 26 -25 0z"/>
</g>
<g>
<path d="M1970 3444 c0 -17 22 -14 28 4 2 7 -3 12 -12 12 -9 0 -16 -7 -16 -16z"/>
</g>
<g>
<path d="M2690 3451 c0 -5 5 -13 10 -16 6 -3 10 -31 10 -61 0 -30 5 -54 10
-54 11 0 12 71 1 109 -7 24 -31 42 -31 22z"/>
</g>
<g>
<path d="M2258 3390 c13 -27 28 -50 33 -50 12 0 12 1 -11 54 -12 25 -27 46
-34 46 -9 0 -6 -15 12 -50z"/>
</g>
<g>
<path d="M5740 3410 c-8 -5 -26 -11 -40 -14 -23 -5 -118 -60 -148 -87 -20 -17
2 -36 22 -20 18 15 87 51 98 51 12 0 10 -38 -2 -45 -18 -11 -10 -35 11 -35 18
0 20 2 9 15 -11 14 -6 23 33 63 55 56 66 101 17 72z"/>
</g>
<g>
<path d="M5827 3413 c-12 -12 -7 -22 8 -17 8 4 15 10 15 15 0 11 -14 12 -23 2z"/>
</g>
<g>
<path d="M7660 3410 c0 -5 5 -10 10 -10 6 0 10 5 10 10 0 6 -4 10 -10 10 -5 0
-10 -4 -10 -10z"/>
</g>
<g>
<path d="M1915 3400 c-3 -5 -17 -10 -30 -10 -29 0 -59 -39 -49 -64 3 -9 10
-16 14 -16 13 0 19 27 8 38 -6 6 -6 12 2 17 6 4 17 0 23 -8 15 -19 54 -31 61
-18 8 12 -4 71 -15 71 -4 0 -11 -4 -14 -10z"/>
</g>
<g>
<path d="M1990 3400 c0 -5 7 -10 15 -10 8 0 15 5 15 10 0 6 -7 10 -15 10 -8 0
-15 -4 -15 -10z"/>
</g>
<g>
<path d="M1515 3390 c-3 -5 1 -10 9 -10 9 0 16 5 16 10 0 6 -4 10 -9 10 -6 0
-13 -4 -16 -10z"/>
</g>
<g>
<path d="M2130 3379 c0 -8 -16 -9 -47 -6 -43 5 -45 5 -20 -6 36 -15 31 -37
-13 -59 -28 -14 -31 -17 -14 -18 12 0 36 13 53 29 l31 29 15 -21 c8 -11 18
-18 21 -14 4 4 -1 16 -11 27 -10 11 -15 23 -10 28 4 4 10 1 12 -5 3 -7 11 -13
19 -13 10 0 9 5 -6 20 -23 23 -30 25 -30 9z"/>
</g>
<g>
<path d="M2605 3381 c-3 -5 -1 -12 5 -16 12 -7 30 2 30 16 0 12 -27 12 -35 0z"/>
</g>
<g>
<path d="M1463 3373 c-14 -5 -18 -33 -5 -33 4 0 14 5 22 10 17 11 2 30 -17 23z"/>
</g>
<g>
<path d="M1785 3360 c-11 -18 5 -31 21 -16 8 8 14 17 14 20 0 10 -28 7 -35 -4z"/>
</g>
<g>
<path d="M2632 3330 c-12 -16 -18 -31 -14 -34 11 -7 65 48 55 57 -10 11 -17 8
-41 -23z"/>
</g>
<g>
<path d="M1972 3327 c-32 -39 -38 -171 -9 -195 22 -19 67 -25 82 -12 8 7 15
10 15 7 0 -3 16 1 35 9 19 7 45 14 57 14 23 0 55 36 49 55 -2 6 -6 29 -10 53
-7 46 -27 58 -24 14 1 -15 -1 -22 -5 -15 -4 6 -24 14 -45 18 -30 6 -37 4 -37
-9 0 -9 -5 -16 -12 -16 -6 0 -20 -7 -30 -17 -22 -19 -36 -10 -18 12 9 11 9 15
1 15 -6 0 -14 -7 -16 -15 -3 -8 -7 -22 -10 -31 -3 -9 -8 -14 -11 -11 -4 3 -2
19 4 35 6 18 6 35 0 46 -6 11 -6 22 2 31 6 8 7 16 2 19 -6 3 -14 0 -20 -7z m8
-62 c0 -8 -4 -15 -10 -15 -5 0 -7 7 -4 15 4 8 8 15 10 15 2 0 4 -7 4 -15z m10
-113 c0 -15 -2 -15 -10 -2 -13 20 -13 33 0 25 6 -3 10 -14 10 -23z m167 22
c-3 -3 -12 -4 -19 -1 -8 3 -5 6 6 6 11 1 17 -2 13 -5z"/>
</g>
<g>
<path d="M2280 3290 c0 -29 4 -40 13 -37 6 2 12 19 12 37 0 18 -6 35 -12 38
-9 2 -13 -9 -13 -38z"/>
</g>
<g>
<path d="M5464 3301 c-6 -7 7 -21 20 -21 7 0 21 6 31 14 17 12 16 13 -14 12
-18 0 -34 -3 -37 -5z"/>
</g>
<g>
<path d="M2717 3293 c-12 -11 -8 -23 8 -23 8 0 15 7 15 15 0 16 -12 20 -23 8z"/>
</g>
<g>
<path d="M5842 3280 c-12 -10 -28 -20 -35 -23 -6 -2 -9 -7 -5 -11 7 -8 78 34
78 47 0 12 -14 7 -38 -13z"/>
</g>
<g>
<path d="M6130 3239 c-15 -28 -4 -38 15 -13 17 22 19 34 5 34 -5 0 -14 -9 -20
-21z"/>
</g>
<g>
<path d="M2722 3193 c0 -70 0 -71 -21 -78 -11 -3 -22 -14 -24 -23 -4 -14 -6
-13 -12 6 -4 12 -12 22 -17 22 -6 0 -8 -7 -4 -15 3 -10 -3 -17 -20 -21 -34 -9
-38 -2 -20 40 18 43 29 47 20 9 -5 -22 -4 -26 6 -16 15 14 5 66 -13 60 -7 -2
-20 -27 -31 -55 -10 -29 -23 -52 -28 -52 -5 0 -4 9 2 21 7 11 9 23 6 26 -3 3
-11 -6 -17 -21 -17 -36 -32 -33 -24 7 l7 32 -22 -40 c-15 -25 -18 -41 -11 -43
6 -2 11 -10 11 -18 0 -10 9 -12 33 -7 65 12 140 33 152 43 6 5 14 7 17 5 3 -3
12 5 21 18 10 16 15 44 14 82 -2 73 -25 89 -25 18z m-112 -133 c0 -5 -7 -10
-16 -10 -8 0 -12 5 -9 10 3 6 10 10 16 10 5 0 9 -4 9 -10z"/>
</g>
<g>
<path d="M2280 3218 c0 -19 -83 -107 -123 -132 -16 -10 -45 -23 -65 -30 -20
-7 -31 -15 -26 -18 17 -11 129 43 161 78 18 19 36 34 42 34 15 0 33 62 21 74
-7 7 -10 5 -10 -6z"/>
</g>
<g>
<path d="M2390 3218 c0 -6 8 -20 17 -30 12 -14 19 -42 21 -91 4 -68 14 -97 33
-97 5 0 9 8 9 19 0 32 33 123 47 128 7 3 13 12 13 20 0 20 -18 7 -41 -31 l-20
-31 3 30 c2 24 -5 37 -32 62 -37 35 -50 40 -50 21z"/>
</g>
<g>
<path d="M5731 3208 c-24 -16 -36 -19 -39 -10 -2 7 -12 12 -23 12 -14 0 -19
-7 -19 -28 0 -18 -10 -38 -27 -54 -112 -103 -146 -138 -140 -145 4 -4 40 25
80 64 40 38 107 94 150 123 42 29 77 54 77 56 0 10 -29 1 -59 -18z"/>
</g>
<g>
<path d="M2490 3205 c-7 -9 -10 -18 -7 -22 8 -7 37 15 37 28 0 14 -16 11 -30
-6z"/>
</g>
<g>
<path d="M6164 3194 c-4 -10 -18 -43 -31 -73 -28 -64 -28 -68 -6 -50 15 12 16
12 10 -3 -3 -10 -5 -18 -3 -18 5 0 66 101 66 109 0 5 7 14 15 21 17 14 20 30
6 30 -5 0 -16 -12 -24 -27 -8 -16 -22 -43 -32 -61 -26 -50 -29 -31 -4 27 12
29 19 54 16 58 -4 3 -10 -3 -13 -13z"/>
</g>
<g>
<path d="M6066 3144 c-9 -24 -7 -28 9 -14 17 14 20 30 6 30 -5 0 -12 -7 -15
-16z"/>
</g>
<g>
<path d="M7498 3115 c-33 -39 -38 -69 -5 -33 28 31 50 68 40 67 -5 0 -20 -15
-35 -34z"/>
</g>
<g>
<path d="M6816 3104 c-26 -20 -45 -38 -43 -40 7 -7 97 56 97 67 0 14 -3 12
-54 -27z"/>
</g>
<g>
<path d="M2110 3118 c-16 -6 -20 -12 -12 -15 18 -7 62 5 62 17 0 12 -18 12
-50 -2z"/>
</g>
<g>
<path d="M1930 3091 c0 -16 5 -33 10 -36 6 -4 9 -14 8 -23 -2 -14 5 -17 35
-16 49 2 56 10 29 36 -12 12 -25 19 -29 14 -4 -4 -1 -11 7 -16 8 -5 11 -12 7
-16 -11 -12 -47 27 -47 52 0 13 -4 26 -10 29 -6 4 -10 -6 -10 -24z"/>
</g>
<g>
<path d="M7528 3098 c-18 -32 -18 -58 -1 -51 14 5 33 43 33 64 0 17 -19 9 -32
-13z"/>
</g>
<g>
<path d="M1733 3102 c-50 -8 -222 -229 -193 -247 13 -8 9 -13 48 55 32 57 110
150 126 150 4 0 -17 -27 -48 -61 -52 -56 -69 -89 -46 -89 6 0 10 5 10 10 0 12
9 24 63 83 80 87 88 107 40 99z"/>
</g>
<g>
<path d="M6023 3085 c-9 -24 1 -27 15 -5 8 13 8 20 2 20 -6 0 -13 -7 -17 -15z"/>
</g>
<g>
<path d="M6847 3069 c-24 -14 -11 -32 14 -19 10 6 19 15 19 20 0 13 -10 12
-33 -1z"/>
</g>
<g>
<path d="M5950 3060 c0 -5 7 -10 15 -10 27 0 16 -16 -55 -84 -70 -66 -78 -76
-61 -76 11 0 151 133 151 144 0 11 -27 36 -39 36 -6 0 -11 -4 -11 -10z"/>
</g>
<g>
<path d="M2270 3043 c0 -11 -5 -24 -12 -31 -9 -9 -9 -15 0 -24 8 -8 14 -5 22
16 13 34 13 43 0 51 -5 3 -10 -2 -10 -12z"/>
</g>
<g>
<path d="M2363 3001 c3 -34 1 -64 -4 -66 -4 -3 -11 -26 -15 -51 -6 -42 -17
-61 -82 -134 -91 -103 -95 -114 -42 -122 41 -6 61 8 38 26 -25 19 -21 37 13
65 35 27 48 22 25 -11 -20 -28 -20 -58 -1 -84 19 -25 19 -44 0 -44 -11 0 -14
-14 -13 -62 1 -42 -5 -73 -15 -93 -16 -28 -16 -30 2 -39 35 -15 45 -59 27
-112 -19 -56 -19 -54 -6 -54 12 0 30 65 30 112 0 27 -6 41 -20 50 -21 13 -28
58 -9 58 6 0 9 7 5 15 -3 8 1 21 9 29 19 19 25 104 10 142 -21 50 10 161 53
191 14 10 43 34 64 52 37 32 38 36 22 48 -16 12 -16 13 -1 13 19 0 23 25 5 36
-6 4 -16 0 -23 -9 -15 -21 -41 -22 -49 -1 -3 9 -6 33 -6 54 0 21 -5 42 -10 45
-7 4 -9 -14 -7 -54z m67 -88 c0 -10 -13 -27 -27 -37 -26 -19 -26 -19 -19 0 5
10 11 27 13 37 3 9 12 17 19 17 8 0 14 -8 14 -17z"/>
</g>
<g>
<path d="M6745 3050 c-3 -5 -1 -10 4 -10 6 0 11 5 11 10 0 6 -2 10 -4 10 -3 0
-8 -4 -11 -10z"/>
</g>
<g>
<path d="M7398 2993 c-44 -50 -57 -73 -42 -73 12 0 100 117 93 124 -2 2 -25
-20 -51 -51z"/>
</g>
<g>
<path d="M6741 2998 c-34 -24 -75 -50 -89 -58 -14 -9 -28 -22 -30 -29 -3 -10
0 -11 9 -6 37 23 189 128 189 131 0 10 -21 0 -79 -38z"/>
</g>
<g>
<path d="M6112 3018 c-7 -7 -12 -16 -12 -21 0 -6 -13 -32 -30 -59 -33 -53 -35
-58 -20 -58 6 0 10 4 10 9 0 5 16 37 36 71 35 57 42 84 16 58z"/>
</g>
<g>
<path d="M7492 3018 c-6 -6 -12 -20 -12 -30 0 -10 -7 -21 -15 -24 -8 -3 -17
-15 -20 -26 -4 -10 -31 -46 -61 -80 -30 -33 -54 -67 -54 -74 0 -8 -4 -14 -10
-14 -5 0 -10 -11 -10 -25 0 -28 -35 -105 -48 -105 -4 0 -16 -14 -26 -32 -17
-28 -17 -31 -3 -25 31 12 17 -14 -40 -74 -31 -32 -52 -59 -47 -59 14 0 57 31
72 52 7 9 19 23 26 30 14 15 46 72 46 84 0 3 -7 1 -15 -6 -30 -24 -14 6 30 60
25 30 45 59 45 65 0 40 26 89 70 131 28 27 50 54 50 61 0 7 4 13 9 13 11 0 34
65 29 80 -2 7 -8 6 -16 -2z"/>
</g>
<g>
<path d="M6645 2970 c-3 -5 -1 -10 4 -10 6 0 11 5 11 10 0 6 -2 10 -4 10 -3 0
-8 -4 -11 -10z"/>
</g>
<g>
<path d="M6735 2937 c-49 -27 -133 -80 -189 -119 -6 -4 -8 -10 -4 -13 3 -4 44
18 90 48 45 30 106 65 135 78 50 23 67 39 41 39 -7 0 -40 -15 -73 -33z"/>
</g>
<g>
<path d="M2096 2941 c-4 -5 -2 -12 4 -16 5 -3 14 -24 20 -47 7 -24 15 -37 20
-32 6 6 4 28 -4 54 -13 44 -29 60 -40 41z"/>
</g>
<g>
<path d="M5451 2898 c-10 -24 -23 -60 -30 -80 -15 -47 -21 -472 -6 -475 6 -2
11 18 12 45 6 135 6 179 -1 199 -5 17 -4 22 6 18 11 -4 13 10 10 67 -4 75 5
139 31 221 19 58 3 62 -22 5z"/>
</g>
<g>
<path d="M6534 2868 c-9 -18 -23 -41 -32 -51 -26 -29 -7 -29 20 1 23 24 46 82
33 82 -2 0 -12 -15 -21 -32z"/>
</g>
<g>
<path d="M6580 2880 c0 -5 5 -10 10 -10 6 0 10 5 10 10 0 6 -4 10 -10 10 -5 0
-10 -4 -10 -10z"/>
</g>
<g>
<path d="M1670 2860 c0 -5 9 -10 19 -10 11 0 23 -4 26 -10 7 -12 35 -13 35 -2
0 10 -45 32 -65 32 -8 0 -15 -4 -15 -10z"/>
</g>
<g>
<path d="M6011 2844 c-12 -15 -21 -32 -21 -38 1 -11 24 15 41 47 14 25 3 21
-20 -9z"/>
</g>
<g>
<path d="M7256 2769 c-64 -63 -72 -95 -9 -36 21 20 46 42 57 50 10 7 17 21 15
29 -3 12 -20 0 -63 -43z"/>
</g>
<g>
<path d="M1630 2810 c0 -5 9 -10 19 -10 11 0 28 -3 38 -6 16 -6 16 -5 -2 9
-22 18 -55 22 -55 7z"/>
</g>
<g>
<path d="M1514 2768 c-4 -13 -20 -38 -35 -56 -16 -18 -29 -41 -29 -50 0 -10
-7 -28 -16 -40 -14 -21 -12 -42 5 -42 8 0 31 59 31 80 0 8 12 24 26 35 31 25
60 95 38 95 -7 0 -16 -10 -20 -22z"/>
</g>
<g>
<path d="M5952 2768 c-6 -13 -21 -48 -33 -78 -28 -72 -64 -148 -86 -184 -13
-20 -15 -30 -6 -33 8 -3 10 -22 6 -59 -6 -51 8 -122 29 -150 9 -13 -29 -30
-172 -78 -106 -35 -141 -37 -202 -11 -12 5 -20 2 -25 -11 -4 -10 -2 -19 5 -22
26 -8 10 -21 -25 -19 -47 3 -60 -27 -18 -43 46 -17 108 -11 191 19 72 27 228
106 259 131 9 7 35 -1 94 -31 83 -41 117 -45 71 -7 -14 11 -46 31 -72 44 -79
40 -125 125 -113 212 8 62 61 203 102 272 18 30 33 58 33 63 0 16 -27 5 -38
-15z"/>
</g>
<g>
<path d="M1770 2772 c0 -4 4 -12 9 -17 20 -21 41 -106 31 -123 -5 -10 -10 -12
-10 -5 0 19 -69 92 -103 109 -30 16 -63 12 -52 -6 3 -5 17 -10 30 -10 17 0 29
-9 40 -30 20 -39 19 -43 -10 -38 -16 3 -25 1 -25 -7 0 -7 13 -15 29 -18 25 -5
29 -12 41 -65 11 -53 10 -64 -7 -103 -20 -46 -20 -83 0 -76 6 2 15 19 19 38
14 56 39 142 54 182 18 49 18 101 -2 143 -14 30 -44 48 -44 26z"/>
</g>
<g>
<path d="M5874 2758 c-18 -20 -18 -21 -1 -15 10 4 23 7 28 7 5 0 9 7 9 15 0
21 -14 19 -36 -7z"/>
</g>
<g>
<path d="M6182 2663 c-23 -79 -52 -196 -52 -212 0 -6 4 -11 8 -11 5 0 14 30
21 68 7 37 23 100 37 140 27 82 27 82 15 82 -5 0 -18 -30 -29 -67z"/>
</g>
<g>
<path d="M2117 2683 c-3 -16 -9 -37 -13 -48 -6 -16 -4 -18 6 -8 7 7 19 28 26
48 9 28 9 35 -1 35 -7 0 -15 -12 -18 -27z"/>
</g>
<g>
<path d="M7160 2670 c0 -5 5 -10 10 -10 6 0 10 5 10 10 0 6 -4 10 -10 10 -5 0
-10 -4 -10 -10z"/>
</g>
<g>
<path d="M5745 2661 c-3 -5 -1 -12 4 -15 5 -3 11 1 15 9 6 16 -9 21 -19 6z"/>
</g>
<g>
<path d="M5831 2639 c-16 -13 -18 -19 -8 -19 15 0 43 27 36 34 -2 3 -15 -4
-28 -15z"/>
</g>
<g>
<path d="M6361 2613 c-28 -53 -52 -160 -46 -203 6 -40 16 -63 58 -145 5 -11
32 -38 59 -59 50 -39 67 -67 87 -143 12 -45 45 -92 57 -81 4 4 -2 27 -14 50
-11 24 -25 61 -31 83 -7 26 -32 64 -71 107 -50 55 -61 73 -58 97 1 16 -2 35
-8 42 -34 44 -44 172 -19 233 15 36 4 52 -14 19z"/>
</g>
<g>
<path d="M1562 2603 c-12 -2 -29 -18 -37 -33 l-15 -30 30 6 c19 4 30 2 30 -5
0 -7 10 -9 28 -5 26 7 26 6 10 -12 -17 -19 -16 -20 27 -20 43 0 62 17 33 29
-8 3 -6 6 5 6 9 1 17 8 17 16 0 31 -75 59 -128 48z"/>
</g>
<g>
<path d="M7040 2565 c0 -9 5 -15 11 -13 6 2 11 8 11 13 0 5 -5 11 -11 13 -6 2
-11 -4 -11 -13z"/>
</g>
<g>
<path d="M1448 2553 c-8 -10 -18 -25 -22 -33 -12 -25 -31 -57 -46 -75 -8 -10
-15 -32 -16 -49 -1 -17 -8 -61 -17 -97 -9 -37 -21 -106 -27 -155 -14 -114 -45
-232 -67 -257 -10 -11 -37 -40 -61 -65 -24 -25 -49 -57 -57 -73 -17 -33 -70
-48 -104 -29 -26 14 -61 4 -61 -17 0 -8 9 -17 20 -20 24 -6 26 -19 4 -27 -13
-5 -14 -9 -5 -20 17 -20 77 -29 103 -15 17 9 24 9 33 -5 16 -22 25 -20 25 4 0
19 -10 24 -37 21 -17 -2 -53 18 -53 29 0 5 15 16 33 23 41 18 107 79 107 101
0 10 8 16 21 16 13 0 23 8 26 21 4 12 11 18 20 15 10 -4 13 -1 8 13 -3 11 -1
22 5 26 15 10 32 53 37 97 2 20 11 61 19 90 8 29 16 67 18 85 2 17 7 59 11 92
4 37 12 62 21 65 10 4 12 14 8 30 -3 13 -1 27 6 31 6 4 8 15 5 25 -7 21 26 88
63 129 12 14 22 29 22 33 0 14 -27 8 -42 -9z"/>
</g>
<g>
<path d="M5660 2544 c-16 -8 -19 -14 -9 -14 8 0 24 7 35 15 24 18 7 18 -26 -1z"/>
</g>
<g>
<path d="M5540 2536 c0 -25 36 -39 63 -24 22 12 22 12 -9 18 -17 4 -36 10 -42
14 -7 4 -12 1 -12 -8z"/>
</g>
<g>
<path d="M7160 2543 c-36 -11 -60 -27 -60 -40 0 -7 2 -13 5 -13 10 0 75 45 75
53 0 4 -1 7 -2 6 -2 0 -10 -3 -18 -6z"/>
</g>
<g>
<path d="M2037 2509 c-53 -27 -61 -28 -105 -18 -26 6 -57 18 -69 25 -21 13
-23 13 -23 -5 0 -38 46 -61 121 -61 39 0 69 4 69 10 0 6 -5 10 -12 10 -21 0 5
17 44 29 38 12 73 42 47 40 -8 -1 -40 -15 -72 -30z"/>
</g>
<g>
<path d="M5754 2509 c-16 -17 -48 -44 -72 -61 -42 -29 -51 -59 -11 -38 35 19
145 129 128 130 -8 0 -28 -14 -45 -31z"/>
</g>
<g>
<path d="M7249 2513 c-6 -15 -8 -36 -5 -46 5 -19 -12 -78 -25 -87 -4 -3 -19
-28 -33 -55 -14 -28 -43 -69 -65 -92 -21 -23 -45 -50 -52 -60 -8 -10 -30 -31
-49 -47 -19 -16 -35 -34 -35 -40 0 -6 -4 -17 -8 -23 -15 -25 15 -13 36 14 12
14 49 54 82 88 88 91 150 187 169 266 18 75 20 109 6 109 -6 0 -15 -12 -21
-27z"/>
</g>
<g>
<path d="M1510 2490 c-9 -6 -10 -10 -3 -10 6 0 15 5 18 10 8 12 4 12 -15 0z"/>
</g>
<g>
<path d="M1560 2479 c0 -5 5 -7 10 -4 6 3 10 8 10 11 0 2 -4 4 -10 4 -5 0 -10
-5 -10 -11z"/>
</g>
<g>
<path d="M1600 2449 l-35 -30 40 24 c22 13 47 26 55 30 11 4 9 6 -5 6 -11 0
-36 -13 -55 -30z"/>
</g>
<g>
<path d="M1435 2429 c-11 -17 1 -21 15 -4 8 9 8 15 2 15 -6 0 -14 -5 -17 -11z"/>
</g>
<g>
<path d="M1628 2408 c-13 -18 -35 -51 -48 -73 -13 -22 -28 -41 -32 -43 -4 -2
-5 -14 -2 -26 3 -14 -1 -29 -10 -39 -9 -8 -16 -27 -16 -42 0 -14 -8 -38 -17
-52 -10 -15 -18 -31 -18 -37 0 -6 -24 -59 -53 -118 -35 -71 -52 -119 -52 -145
-1 -56 -29 -107 -81 -146 -52 -39 -83 -52 -119 -49 -23 2 -23 1 -8 -11 13 -10
15 -16 6 -25 -15 -15 -55 -16 -63 -2 -11 18 -35 11 -35 -10 0 -17 7 -20 39
-20 41 0 131 35 131 50 0 6 6 10 14 10 7 0 19 7 26 15 7 8 16 15 21 15 5 0 9
-7 9 -15 0 -8 3 -15 8 -15 11 0 59 110 67 153 9 49 25 57 25 14 0 -27 10 -45
46 -83 47 -50 73 -91 79 -125 4 -21 47 -79 100 -137 24 -27 35 -32 58 -28 31
6 67 -8 67 -25 0 -6 7 -27 16 -47 37 -87 50 -106 79 -115 17 -5 31 -10 32 -11
8 -6 -74 -155 -96 -175 -20 -19 -37 -56 -61 -131 -18 -58 -39 -119 -46 -137
-8 -17 -14 -37 -14 -45 0 -8 -21 -37 -47 -65 -27 -28 -54 -59 -62 -68 -10 -13
-25 -16 -67 -12 -30 3 -56 1 -59 -4 -3 -4 22 -9 55 -11 92 -5 72 -21 -22 -19
-92 3 -102 -9 -13 -14 31 -2 59 -6 62 -9 3 -3 -4 -17 -16 -32 -11 -15 -21 -33
-21 -41 0 -12 -12 -14 -55 -11 -70 4 -73 -14 -5 -25 56 -8 90 -22 90 -37 0 -6
-9 -10 -21 -10 -11 0 -17 -4 -14 -10 3 -5 19 -10 36 -10 16 0 29 -4 29 -10 0
-5 -9 -10 -20 -10 -11 0 -20 -5 -20 -11 0 -5 4 -8 9 -5 12 8 45 -19 38 -31 -4
-6 -27 -8 -53 -5 -33 3 -45 1 -40 -7 4 -6 29 -11 56 -11 48 0 49 -1 68 -42 22
-50 56 -83 72 -73 8 5 2 18 -19 39 -40 41 -49 69 -40 125 6 44 5 48 -32 85
-21 22 -39 43 -39 48 0 14 39 28 79 28 29 0 41 4 41 14 0 8 -4 17 -8 20 -10 6
-9 77 2 94 4 7 12 10 17 6 5 -3 26 5 47 18 20 13 57 33 82 45 34 16 39 22 23
22 -13 1 -48 -13 -79 -29 -31 -17 -54 -25 -52 -18 4 11 35 36 153 122 42 31
-6 14 -55 -19 -55 -37 -68 -39 -51 -8 5 10 12 26 15 36 3 10 10 16 15 13 5 -3
24 8 42 24 19 17 55 44 82 61 26 17 47 35 47 40 0 15 -36 -8 -106 -67 l-64
-55 0 31 c0 51 53 152 110 209 52 52 64 86 13 40 -21 -20 -25 -21 -20 -5 10
27 46 68 97 109 25 20 64 55 88 77 24 22 47 40 52 40 6 0 10 5 10 10 0 15 -7
13 -52 -20 -25 -18 -45 -27 -51 -21 -12 12 78 101 102 101 30 0 51 11 51 26 0
8 -4 14 -10 14 -5 0 -10 -4 -10 -10 0 -5 -4 -10 -10 -10 -5 0 -10 7 -10 15 0
9 -8 19 -17 22 -15 6 -62 52 -147 147 -14 16 -26 33 -26 37 0 5 -6 9 -14 9
-18 0 -30 31 -15 40 7 5 8 10 1 14 -6 3 -12 1 -14 -6 -2 -6 -22 16 -44 50 -21
33 -44 61 -49 61 -12 1 -79 100 -72 107 2 2 22 -16 43 -42 21 -25 47 -56 57
-68 l18 -21 -12 25 c-7 14 -23 39 -36 56 -33 45 -28 54 8 14 44 -51 24 -17
-43 73 -33 42 -63 77 -68 77 -6 0 -10 7 -10 15 0 22 24 7 53 -32 12 -17 41
-56 65 -87 24 -32 41 -64 38 -71 -5 -14 84 -155 133 -210 35 -39 81 -102 81
-111 0 -10 80 -87 85 -82 3 3 -18 34 -47 70 -81 101 -208 274 -208 284 0 10
90 -87 90 -97 0 -4 9 -9 19 -12 11 -2 39 -30 63 -62 66 -88 86 -110 92 -105 3
3 -9 25 -27 48 -18 23 -50 66 -72 96 -22 29 -45 52 -51 49 -11 -4 -98 98 -169
198 -94 133 -145 208 -145 214 0 3 5 5 11 5 15 0 79 -68 79 -83 0 -7 10 -23
23 -37 13 -14 42 -49 65 -79 60 -75 118 -141 126 -141 5 0 -118 169 -159 217
-17 21 -30 37 -59 76 -29 38 -29 38 -8 44 12 3 22 8 21 12 0 9 -112 61 -131
61 -11 0 -18 7 -18 18 0 10 -7 27 -15 38 -21 28 -18 51 15 111 17 30 28 58 25
63 -4 6 -1 10 4 10 6 0 11 5 11 10 0 19 -18 10 -42 -22z m-88 -315 c0 -23 32
-93 43 -93 4 0 5 -5 2 -11 -4 -6 12 -29 36 -52 24 -24 55 -56 69 -72 l25 -30
-32 29 c-17 15 -36 25 -42 22 -8 -6 -61 62 -61 78 0 12 -64 106 -72 106 -5 0
-4 9 2 20 13 24 30 26 30 3z m120 -13 c0 -5 -5 -10 -11 -10 -5 0 -7 5 -4 10 3
6 8 10 11 10 2 0 4 -4 4 -10z m-7 -90 c39 -53 54 -80 42 -80 -10 0 -57 58 -77
96 -27 50 -8 41 35 -16z m-126 -99 c19 -34 42 -72 53 -84 22 -23 26 -37 10
-37 -5 0 -24 21 -41 48 -18 26 -35 49 -38 52 -7 6 -41 78 -41 86 0 3 6 4 12 2
7 -3 27 -33 45 -67z m171 -87 c-4 -3 -12 5 -18 18 -12 22 -12 22 6 6 10 -10
15 -20 12 -24z m-61 -11 c19 -21 39 -38 44 -38 9 0 9 -6 1 -37 -3 -14 -6 -14
-23 3 -10 10 -19 21 -19 24 0 3 -11 23 -25 45 -32 50 -24 51 22 3z m120 -25
c-3 -8 -6 -5 -6 6 -1 11 2 17 5 13 3 -3 4 -12 1 -19z m-170 -25 c17 3 21 1 14
-7 -6 -7 -7 -23 -4 -36 6 -24 6 -24 -21 3 -17 17 -34 26 -43 23 -11 -5 -13 -2
-9 10 3 8 6 20 6 26 0 5 7 2 17 -7 9 -10 26 -15 40 -12z m163 -13 c0 -4 12
-23 28 -43 46 -61 63 -86 61 -93 0 -4 3 -10 8 -13 14 -10 93 -134 93 -145 0
-6 -7 -2 -15 9 -7 11 -23 31 -35 45 -51 61 -170 239 -170 255 0 2 7 2 15 -1 8
-4 15 -10 15 -14z m69 -47 c9 -20 15 -23 20 -14 6 8 11 9 15 3 7 -11 -2 -42
-13 -42 -6 0 -51 65 -51 75 0 15 18 1 29 -22z m-139 -30 c0 -14 -2 -14 -20 2
-11 10 -20 22 -20 27 0 5 9 4 20 -2 11 -6 20 -18 20 -27z m221 -56 c7 -18 25
-47 41 -66 15 -19 25 -37 23 -39 -10 -10 -89 99 -100 138 -7 22 -6 23 7 12 9
-7 22 -27 29 -45z m-101 -51 c0 -5 -7 -1 -15 10 -8 10 -14 24 -14 29 0 6 6 1
14 -9 8 -11 15 -24 15 -30z m-100 -24 c0 -15 -2 -15 -10 -2 -13 20 -13 33 0
25 6 -3 10 -14 10 -23z m-52 -12 c-7 -11 -16 -16 -21 -11 -12 12 0 31 19 31
12 0 12 -3 2 -20z m127 10 c3 -5 3 -15 -1 -21 -6 -11 -23 6 -24 24 0 10 18 9
25 -3z m275 -84 c-1 -13 -80 75 -80 89 0 5 18 -10 40 -34 22 -24 40 -49 40
-55z m-76 32 c-3 -4 0 -16 6 -25 11 -16 11 -16 5 1 -6 20 -6 20 16 0 l21 -19
-23 -3 c-15 -3 -29 4 -41 20 -22 29 -22 34 1 34 11 0 17 -4 15 -8z m-132 -15
c-6 -3 -10 -9 -7 -14 4 -5 -1 -6 -9 -3 -9 3 -16 10 -16 16 0 5 4 7 9 3 5 -3
13 0 16 6 4 5 10 7 14 3 3 -4 0 -9 -7 -11z m87 -73 l32 -40 -26 -10 c-36 -14
-37 -14 -63 23 -15 22 -18 33 -10 36 7 2 13 0 15 -5 8 -22 23 -38 29 -31 5 4
0 21 -10 37 -25 43 -5 37 33 -10z m71 -79 c0 -16 -42 -61 -51 -55 -6 3 3 19
18 34 32 32 33 33 33 21z"/>
</g>
<g>
<path d="M6160 2412 c0 -38 26 -135 45 -167 22 -38 73 -90 140 -141 63 -48 41
-11 -45 76 -74 74 -91 97 -104 141 -9 29 -16 63 -16 76 0 13 -4 23 -10 23 -5
0 -10 -4 -10 -8z"/>
</g>
<g>
<path d="M1495 2375 c-22 -19 -36 -34 -32 -35 4 0 13 4 20 10 54 43 71 59 62
60 -5 0 -28 -16 -50 -35z"/>
</g>
<g>
<path d="M6720 2401 c0 -12 -158 -35 -201 -28 -19 3 -45 8 -59 13 l-25 7 19
-22 c19 -20 26 -22 105 -16 91 7 194 33 185 47 -7 11 -24 10 -24 -1z"/>
</g>
<g>
<path d="M6250 2393 c0 -5 5 -15 10 -23 8 -12 10 -11 10 8 0 12 -4 22 -10 22
-5 0 -10 -3 -10 -7z"/>
</g>
<g>
<path d="M1424 2369 c-19 -22 -19 -22 4 -10 12 6 22 16 22 21 0 15 -5 12 -26
-11z"/>
</g>
<g>
<path d="M6880 2379 c0 -5 5 -7 10 -4 6 3 10 8 10 11 0 2 -4 4 -10 4 -5 0 -10
-5 -10 -11z"/>
</g>
<g>
<path d="M7026 2354 c-27 -19 -13 -30 14 -11 12 8 18 17 13 20 -4 3 -17 -1
-27 -9z"/>
</g>
<g>
<path d="M5705 2349 c-4 -6 -5 -13 -2 -16 7 -7 27 6 27 18 0 12 -17 12 -25 -2z"/>
</g>
<g>
<path d="M1692 2306 c-1 -24 -2 -48 -4 -52 -5 -18 23 -53 53 -68 28 -14 37
-14 83 -1 28 9 58 19 66 25 26 16 3 22 -40 10 -24 -6 -54 -8 -69 -4 -24 7 -24
8 14 14 l40 6 -47 13 c-45 13 -47 15 -54 57 -5 33 -11 44 -24 44 -14 0 -18 -9
-18 -44z"/>
</g>
<g>
<path d="M1800 2341 c0 -16 42 -40 80 -47 19 -4 38 -11 41 -17 13 -19 83 -24
129 -9 92 28 129 45 124 53 -3 5 -14 4 -25 -2 -64 -34 -231 -27 -297 11 -36
22 -52 25 -52 11z"/>
</g>
<g>
<path d="M6260 2343 c1 -42 61 -157 87 -167 28 -11 28 4 1 27 -27 22 -51 70
-62 120 -6 24 -26 40 -26 20z"/>
</g>
<g>
<path d="M6833 2334 c-18 -8 -33 -18 -33 -24 0 -5 18 0 40 11 59 31 53 40 -7
13z"/>
</g>
<g>
<path d="M1646 2324 c-4 -10 -1 -14 6 -12 15 5 23 28 10 28 -5 0 -13 -7 -16
-16z"/>
</g>
<g>
<path d="M6707 2313 c-37 -14 -65 -28 -63 -30 6 -7 106 24 136 42 39 22 2 16
-73 -12z"/>
</g>
<g>
<path d="M5660 2305 c-11 -13 -10 -14 4 -9 9 3 16 10 16 15 0 13 -6 11 -20 -6z"/>
</g>
<g>
<path d="M6588 2308 c-27 -6 -48 -14 -48 -20 0 -5 8 -7 18 -4 9 3 36 10 60 16
23 6 42 13 42 15 0 6 -14 5 -72 -7z"/>
</g>
<g>
<path d="M6963 2303 c-26 -18 -30 -33 -8 -33 13 0 41 38 33 45 -2 1 -13 -4
-25 -12z"/>
</g>
<g>
<path d="M1400 2300 c-9 -6 -10 -10 -3 -10 6 0 15 5 18 10 8 12 4 12 -15 0z"/>
</g>
<g>
<path d="M6753 2293 c-7 -2 -13 -9 -13 -14 0 -14 26 -10 40 6 10 12 10 15 -1
14 -8 0 -20 -3 -26 -6z"/>
</g>
<g>
<path d="M1621 2264 c0 -11 3 -14 6 -6 3 7 2 16 -1 19 -3 4 -6 -2 -5 -13z"/>
</g>
<g>
<path d="M1460 2230 c-14 -11 -20 -20 -14 -20 7 0 22 9 35 20 31 25 12 26 -21
0z"/>
</g>
<g>
<path d="M2090 2240 c20 -13 43 -13 35 0 -3 6 -16 10 -28 10 -18 0 -19 -2 -7
-10z"/>
</g>
<g>
<path d="M2271 2196 c-8 -9 -11 -19 -7 -23 9 -9 29 13 24 27 -2 8 -8 7 -17 -4z"/>
</g>
<g>
<path d="M5826 2128 c-3 -13 -7 -36 -10 -53 -3 -16 -8 -41 -12 -55 l-6 -25 17
23 c16 22 34 132 22 132 -4 0 -9 -10 -11 -22z"/>
</g>
<g>
<path d="M1420 2129 c0 -5 5 -7 10 -4 6 3 10 8 10 11 0 2 -4 4 -10 4 -5 0 -10
-5 -10 -11z"/>
</g>
<g>
<path d="M2242 2118 c3 -7 13 -15 22 -16 12 -3 17 1 14 10 -3 7 -13 15 -22 16
-12 3 -17 -1 -14 -10z"/>
</g>
<g>
<path d="M2169 2100 c-21 -11 -78 -24 -140 -31 -93 -11 -108 -10 -136 4 -36
19 -53 21 -53 8 0 -5 11 -12 25 -15 34 -9 103 -78 107 -108 2 -13 8 -23 15
-23 7 0 19 -9 27 -20 8 -11 18 -17 22 -12 4 4 2 7 -4 7 -7 0 -12 4 -12 10 0 5
-16 32 -35 59 -41 57 -43 71 -11 71 13 0 43 3 67 6 l44 6 34 -56 c41 -69 52
-67 17 3 -24 48 -24 51 -6 51 12 0 26 -13 36 -32 9 -18 25 -44 35 -57 15 -19
17 -27 7 -38 -6 -8 -17 -12 -25 -9 -11 5 -11 1 -2 -15 8 -16 8 -27 -1 -45 -25
-45 -38 -37 -107 69 -36 56 -68 97 -70 91 -4 -12 123 -207 138 -212 11 -4 -8
-32 -21 -32 -5 0 -16 13 -27 30 -11 18 -23 26 -30 22 -9 -5 -3 -17 17 -39 35
-38 37 -43 10 -43 -10 0 -25 10 -31 23 -7 12 -34 51 -61 87 -63 85 -58 77 -98
137 -31 47 -57 70 -66 60 -2 -2 18 -30 44 -63 27 -32 59 -77 72 -99 13 -22 27
-42 32 -45 4 -3 23 -28 43 -55 24 -34 31 -51 23 -56 -7 -4 -20 -3 -29 2 -26
14 -30 11 -17 -11 10 -16 21 -19 48 -15 19 2 27 2 18 -1 -26 -8 -23 -16 23
-70 22 -27 45 -59 50 -71 7 -20 29 -33 29 -18 0 10 -43 81 -61 101 -20 21 -26
74 -9 74 6 0 10 -8 11 -17 0 -10 13 -38 29 -63 85 -133 116 -197 65 -135 -13
16 -27 26 -30 23 -8 -7 56 -97 68 -98 5 0 5 5 1 12 -4 7 -3 8 5 4 6 -4 9 -12
5 -17 -3 -5 0 -16 6 -25 10 -12 16 -12 28 -2 13 11 15 10 9 -12 -4 -14 -7 -31
-7 -37 0 -21 -17 -15 -53 17 -40 35 -47 37 -47 11 0 -10 9 -21 19 -24 13 -3
21 -18 27 -48 12 -66 8 -80 -57 -211 -22 -45 -4 -38 49 18 31 33 70 70 86 82
16 12 26 25 23 28 -6 6 -85 -50 -99 -70 -4 -6 -10 -8 -13 -4 -3 3 17 29 45 57
31 31 45 51 35 51 -8 0 -15 -4 -15 -10 0 -5 -8 -10 -17 -10 -15 1 -14 4 7 23
37 32 75 88 56 81 -29 -11 -17 27 19 62 37 34 44 47 22 38 -8 -3 -20 2 -27 11
-11 13 -11 21 -2 36 10 15 9 19 -3 19 -21 0 -40 -39 -26 -53 6 -6 11 -15 11
-21 0 -5 -9 0 -20 12 -11 12 -20 25 -20 31 0 17 136 127 153 124 7 -2 18 11
24 27 8 20 18 30 32 30 12 0 21 6 21 15 0 7 8 19 18 25 14 10 14 11 0 6 -20
-6 -91 62 -84 81 4 9 -10 17 -39 24 -25 6 -45 15 -45 20 0 5 -13 15 -30 24
-43 22 -101 75 -94 87 3 5 8 27 11 50 4 35 2 40 -13 34 -18 -7 -34 8 -34 33 0
11 4 10 13 -4 10 -12 16 -14 21 -7 10 17 -2 32 -26 32 -17 0 -18 2 -8 15 17
20 3 18 -41 -5z m36 -60 c28 -44 31 -60 13 -60 -11 0 -32 35 -56 92 -2 5 1 8
7 8 6 0 22 -18 36 -40z m87 -170 c12 0 168 -161 168 -172 0 -5 -4 -8 -9 -8
-12 0 -181 182 -180 195 0 5 3 4 6 -2 2 -7 9 -13 15 -13z m-12 -75 c62 -75 78
-73 24 3 -10 13 -12 22 -5 22 6 0 11 -4 11 -8 0 -5 27 -36 61 -70 33 -34 57
-66 54 -72 -3 -5 -20 6 -37 25 -16 19 -35 35 -41 35 -6 0 4 -16 23 -35 18 -19
30 -38 26 -42 -7 -7 -42 28 -148 145 -32 36 -38 52 -19 52 3 0 26 -25 51 -55z
m-30 -27 c19 -23 54 -61 78 -83 23 -23 42 -44 42 -48 0 -18 -28 -3 -57 31 -17
20 -50 57 -72 82 -22 25 -41 48 -41 53 0 16 17 5 50 -35z m-23 -31 c17 -23 51
-61 74 -85 40 -40 48 -59 18 -47 -27 12 -150 175 -131 175 4 0 21 -20 39 -43z
m238 13 c16 -16 25 -33 22 -37 -4 -3 -8 -4 -9 -2 -2 2 -16 19 -32 37 -37 40
-20 43 19 2z m-293 3 c10 -9 18 -20 18 -25 0 -16 -18 -8 -34 17 -19 29 -11 33
16 8z m136 -165 c8 -10 9 -18 3 -22 -10 -7 -81 79 -81 98 0 10 48 -37 78 -76z
m-18 -49 c0 -10 -7 -19 -15 -19 -16 0 -19 9 -9 34 8 20 24 11 24 -15z"/>
</g>
<g>
<path d="M6100 2091 c0 -23 10 -35 58 -68 37 -26 73 -42 102 -46 47 -7 152 11
185 32 21 12 18 12 -120 -4 -64 -7 -110 11 -164 65 -28 28 -53 50 -56 50 -3 0
-5 -13 -5 -29z"/>
</g>
<g>
<path d="M1380 2100 c-8 -5 -11 -12 -7 -16 4 -4 13 -2 19 4 15 15 7 24 -12 12z"/>
</g>
<g>
<path d="M1429 2072 c-13 -10 -32 -21 -41 -25 -17 -6 -26 -37 -10 -37 12 1 98
79 86 80 -6 0 -22 -8 -35 -18z"/>
</g>
<g>
<path d="M6920 2046 c-25 -24 -51 -51 -58 -60 -7 -9 -18 -14 -23 -10 -10 6
-50 -8 -116 -39 -12 -5 -44 -7 -72 -3 -34 4 -51 3 -51 -4 0 -6 7 -13 16 -17 8
-3 20 -16 25 -30 19 -51 97 -50 173 2 20 14 41 25 46 25 6 0 10 4 10 8 0 4 18
28 40 52 35 39 69 105 58 115 -2 2 -24 -16 -48 -39z"/>
</g>
<g>
<path d="M6748 2065 c-56 -20 -128 -30 -128 -16 0 6 -7 11 -15 11 -18 0 -19
-12 -3 -28 18 -18 60 -15 113 8 26 11 55 20 66 20 10 0 19 5 19 10 0 12 -6 12
-52 -5z"/>
</g>
<g>
<path d="M5436 2052 c-5 -8 -12 -39 -16 -70 -15 -114 -32 -209 -52 -302 -12
-52 -23 -101 -24 -109 -8 -44 -47 -145 -72 -187 -36 -59 -66 -96 -89 -108 -16
-8 -27 -18 -26 -23 4 -12 -46 -23 -53 -12 -3 5 -10 7 -15 3 -14 -8 0 -24 22
-24 10 0 19 -5 19 -11 0 -7 -14 -8 -40 -4 -50 8 -106 -9 -113 -35 -4 -14 -14
-20 -36 -20 -35 0 -64 -36 -36 -46 31 -12 13 -21 -40 -19 -59 2 -78 11 -55 25
11 7 11 11 1 24 -14 17 -41 22 -41 7 0 -8 -37 -24 -52 -22 -4 0 -19 -4 -32 -9
-14 -5 -85 -10 -158 -11 -72 0 -143 -5 -156 -10 -13 -5 -63 -9 -110 -10 -95 0
-132 -6 -132 -20 0 -12 85 -11 130 0 58 15 375 22 361 8 -8 -8 -66 -12 -179
-13 -168 -1 -241 -9 -225 -24 4 -5 28 -5 53 0 54 11 174 12 259 4 61 -7 61 -7
42 -25 -21 -20 -71 -26 -71 -9 0 6 -17 10 -37 10 -28 0 -34 3 -23 10 11 7 6
10 -20 9 -28 0 -31 -2 -15 -8 25 -10 -86 -31 -163 -31 -31 0 -52 -4 -52 -11 0
-8 54 -10 178 -7 l177 3 0 -37 c-1 -28 4 -39 17 -44 10 -3 16 -10 13 -15 -4
-5 -79 -7 -188 -4 -100 4 -204 2 -232 -3 -42 -8 -26 -10 100 -12 83 -1 177 -4
210 -7 67 -5 115 -9 162 -11 18 -1 41 -11 51 -22 13 -14 35 -21 78 -24 64 -5
110 -19 106 -31 -1 -5 77 -10 173 -12 112 -2 175 1 175 7 0 6 -29 10 -67 10
-38 0 -113 3 -168 7 l-100 6 100 17 c68 12 124 29 175 53 80 38 192 63 241 53
29 -5 41 7 17 18 -7 3 -3 3 10 0 40 -10 125 24 150 60 26 39 28 64 5 111 -20
43 -34 44 -84 5 -26 -21 -56 -34 -94 -40 -32 -5 -65 -12 -76 -15 -22 -7 -24 2
-5 24 26 31 27 66 3 89 -28 26 -74 44 -96 37 -10 -3 -25 1 -34 7 -15 12 -11
19 38 78 30 35 55 69 55 76 0 6 8 22 18 35 10 13 29 51 42 84 13 33 28 64 32
69 4 6 8 27 8 47 0 20 6 52 14 70 7 19 19 88 26 154 6 66 16 139 22 161 11 48
8 97 -6 76z m-261 -874 c14 -6 25 -15 25 -20 0 -4 7 -8 15 -8 9 0 18 -7 21
-15 6 -14 8 -13 20 2 12 16 13 15 14 -14 0 -25 -10 -43 -42 -77 -40 -41 -48
-44 -108 -50 -36 -4 -72 -7 -80 -9 -34 -5 -19 19 17 27 63 14 70 20 29 24 -21
2 -42 0 -45 -5 -9 -13 -112 -12 -108 1 5 14 92 28 130 21 26 -4 30 -1 44 34
10 27 23 41 40 46 28 7 26 29 -3 31 -41 2 -48 6 -24 14 14 4 26 8 27 9 1 1 14
-4 28 -11z m-190 -98 c3 -5 -1 -10 -9 -10 -8 0 -18 5 -21 10 -3 6 1 10 9 10 8
0 18 -4 21 -10z m-190 -10 c-3 -5 -10 -10 -16 -10 -5 0 -9 5 -9 10 0 6 7 10
16 10 8 0 12 -4 9 -10z m125 -10 c0 -13 -11 -13 -30 0 -12 8 -11 10 8 10 12 0
22 -4 22 -10z m-80 -20 c0 -5 -7 -10 -16 -10 -8 0 -12 5 -9 10 3 6 10 10 16
10 5 0 9 -4 9 -10z m680 -20 c0 -5 -5 -10 -10 -10 -6 0 -15 -11 -20 -25 -5
-14 -14 -25 -20 -25 -13 0 -13 1 6 38 14 30 44 44 44 22z m-85 -10 c3 -5 -6
-12 -20 -16 -29 -7 -41 -1 -30 15 8 14 42 14 50 1z m-718 -6 c-3 -3 -12 -4
-19 -1 -8 3 -5 6 6 6 11 1 17 -2 13 -5z m78 -23 c6 -10 -9 -16 -67 -26 -53 -8
-48 11 5 23 57 13 55 13 62 3z m580 -1 c3 -5 1 -10 -4 -10 -6 0 -11 5 -11 10
0 6 2 10 4 10 3 0 8 -4 11 -10z m70 0 c3 -5 -1 -10 -9 -10 -9 0 -16 5 -16 10
0 6 4 10 9 10 6 0 13 -4 16 -10z m-255 -20 c0 -5 -8 -10 -17 -10 -15 0 -16 2
-3 10 19 12 20 12 20 0z m-360 -35 c0 -14 -56 -35 -94 -35 -29 0 -8 15 44 34
25 8 46 15 48 16 1 0 2 -7 2 -15z m-130 -9 c0 -3 -4 -8 -10 -11 -5 -3 -10 -1
-10 4 0 6 5 11 10 11 6 0 10 -2 10 -4z m210 -21 c0 -14 -4 -25 -9 -25 -4 0 -6
11 -3 25 2 14 6 25 8 25 2 0 4 -11 4 -25z"/>
<g>
<path d="M5120 1100 c0 -5 4 -10 9 -10 5 0 11 -9 14 -20 3 -14 14 -20 31 -20
22 0 26 4 26 30 0 28 -2 30 -40 30 -22 0 -40 -4 -40 -10z"/>
</g>
</g>
<g>
<path d="M7040 2049 c0 -6 20 -39 45 -73 39 -55 90 -153 109 -208 6 -19 26
-25 26 -8 0 5 -7 26 -16 47 -65 148 -164 295 -164 242z"/>
</g>
<g>
<path d="M2052 2033 c11 -26 82 -123 90 -123 5 0 3 10 -3 23 -21 40 -72 107
-82 107 -5 0 -7 -3 -5 -7z"/>
</g>
<g>
<path d="M1335 1989 c-4 -6 -5 -13 -2 -16 7 -7 27 6 27 18 0 12 -17 12 -25 -2z"/>
</g>
<g>
<path d="M5772 1935 c-14 -31 -15 -45 -3 -45 7 0 31 51 31 66 0 14 -19 -1 -28
-21z"/>
</g>
<g>
<path d="M1317 1902 c-39 -40 -33 -46 13 -16 22 15 40 31 40 35 0 18 -27 8
-53 -19z"/>
</g>
<g>
<path d="M2001 1895 c-1 -15 37 -61 44 -54 3 4 -5 20 -19 35 -14 16 -25 25
-25 19z"/>
</g>
<g>
<path d="M5730 1832 c-14 -20 -28 -46 -33 -56 -4 -10 -14 -33 -22 -50 -20 -43
-65 -182 -64 -198 1 -21 57 99 90 192 17 47 37 95 45 108 8 13 14 27 12 32 -2
5 -14 -7 -28 -28z"/>
</g>
<g>
<path d="M1320 1835 c-7 -8 -17 -15 -22 -15 -6 0 -23 -11 -39 -24 -15 -13 -34
-26 -41 -29 -7 -2 -10 -8 -6 -12 8 -8 70 27 108 62 13 12 22 25 18 28 -3 3
-11 -1 -18 -10z"/>
</g>
<g>
<path d="M6730 1823 c0 -5 9 -21 20 -38 11 -16 42 -62 68 -101 26 -39 67 -98
91 -130 84 -110 207 -299 239 -366 32 -67 61 -103 47 -57 -11 34 -105 210
-125 234 -9 11 -29 43 -44 71 -15 28 -37 62 -50 75 -12 13 -34 44 -49 69 -15
25 -40 60 -57 78 -17 17 -37 47 -45 65 -7 18 -23 41 -34 51 -12 11 -21 25 -21
31 0 7 -7 16 -16 19 -20 8 -24 8 -24 -1z"/>
</g>
<g>
<path d="M1335 1800 c-3 -5 1 -10 9 -10 9 0 16 5 16 10 0 6 -4 10 -9 10 -6 0
-13 -4 -16 -10z"/>
</g>
<g>
<path d="M1856 1727 c3 -10 9 -15 12 -12 3 3 0 11 -7 18 -10 9 -11 8 -5 -6z"/>
</g>
<g>
<path d="M7216 1722 c-6 -10 96 -322 106 -322 11 0 10 44 -1 55 -9 10 -81 234
-81 253 0 14 -17 25 -24 14z"/>
</g>
<g>
<path d="M1150 1705 c-20 -24 -6 -28 15 -5 10 11 13 20 8 20 -6 0 -16 -7 -23
-15z"/>
</g>
<g>
<path d="M1196 1694 c-9 -22 -8 -24 9 -18 8 4 15 12 15 20 0 19 -16 18 -24 -2z"/>
</g>
<g>
<path d="M2550 1671 c0 -5 11 -16 25 -25 44 -29 45 -118 2 -136 -19 -8 -19 -9
-3 -9 16 -1 17 -6 11 -38 -4 -21 -10 -42 -15 -48 -19 -24 -92 -167 -82 -161
12 7 72 93 72 102 0 3 9 18 20 34 10 15 22 47 26 71 3 24 13 70 21 102 l16 57
-29 23 c-33 26 -64 40 -64 28z"/>
</g>
<g>
<path d="M1270 1596 c0 -15 35 -27 56 -19 21 8 17 25 -5 18 -11 -3 -22 -1 -26
5 -9 15 -25 12 -25 -4z"/>
</g>
<g>
<path d="M2395 1526 c-28 -32 -37 -46 -29 -46 10 1 48 49 42 55 -1 1 -7 -2
-13 -9z"/>
</g>
<g>
<path d="M2462 1520 c-31 -29 -27 -34 8 -13 17 9 30 21 30 25 0 14 -15 9 -38
-12z"/>
</g>
<g>
<path d="M5577 1452 c-18 -46 -22 -82 -8 -82 11 0 34 82 29 106 -2 14 -9 7
-21 -24z"/>
</g>
<g>
<path d="M2383 1403 c-15 -5 -17 -23 -4 -23 5 0 11 7 15 15 3 8 4 15 3 14 -1
0 -8 -3 -14 -6z"/>
</g>
<g>
<path d="M7335 1344 c4 -21 10 -41 13 -44 4 -3 13 -17 21 -32 8 -16 19 -28 24
-28 14 0 -1 50 -24 78 -10 14 -19 31 -19 38 0 7 -5 16 -11 20 -9 5 -10 -4 -4
-32z"/>
</g>
<g>
<path d="M2355 1300 c4 -6 11 -8 16 -5 14 9 11 15 -7 15 -8 0 -12 -5 -9 -10z"/>
</g>
<g>
<path d="M5545 1268 c-11 -29 -9 -91 3 -95 9 -3 12 11 12 51 0 54 -5 70 -15
44z"/>
</g>
<g>
<path d="M1983 1168 c-29 -22 -53 -45 -53 -49 0 -14 5 -11 49 24 22 17 50 40
63 49 16 12 18 17 8 17 -8 1 -39 -18 -67 -41z"/>
</g>
<g>
<path d="M2431 1181 c-12 -16 -21 -34 -21 -39 0 -6 -10 -23 -23 -39 -28 -34
-101 -182 -94 -190 3 -2 14 12 25 34 34 67 73 137 93 165 21 29 52 98 45 98
-3 0 -14 -13 -25 -29z"/>
</g>
<g>
<path d="M7416 1201 c-9 -14 20 -53 60 -80 38 -27 53 -27 29 -1 -10 11 -23 20
-30 20 -6 0 -20 16 -32 36 -12 22 -23 32 -27 25z"/>
</g>
<g>
<path d="M2034 1148 c-27 -17 -43 -33 -37 -35 7 -3 27 6 45 18 77 54 71 67 -8
17z"/>
</g>
<g>
<path d="M4573 1153 c-24 -9 -13 -24 15 -21 15 2 26 8 25 13 -2 12 -23 16 -40
8z"/>
</g>
<g>
<path d="M4858 1153 c-27 -7 -22 -23 7 -23 16 0 25 6 25 15 0 15 -2 16 -32 8z"/>
</g>
<g>
<path d="M2255 1119 c-22 -16 -42 -35 -44 -41 -2 -7 18 6 45 27 27 22 51 41
53 42 2 2 0 3 -5 3 -5 0 -27 -14 -49 -31z"/>
</g>
<g>
<path d="M1916 1060 c-29 -24 -42 -40 -32 -40 9 0 36 18 59 40 54 51 36 51
-27 0z"/>
</g>
<g>
<path d="M7204 1084 c3 -9 6 -18 6 -20 0 -3 4 -3 10 1 11 7 2 35 -12 35 -6 0
-7 -7 -4 -16z"/>
</g>
<g>
<path d="M2004 1065 c-15 -13 -26 -27 -22 -30 3 -3 11 1 18 10 7 8 18 15 25
15 7 0 18 7 25 15 21 26 -13 18 -46 -10z"/>
</g>
<g>
<path d="M2123 1010 c-31 -50 -31 -50 -8 -50 24 0 50 24 41 38 -3 5 1 18 9 28
18 24 19 34 3 34 -7 0 -27 -23 -45 -50z"/>
</g>
<g>
<path d="M7530 1047 c0 -22 23 -45 63 -61 49 -20 47 -6 -3 23 -22 12 -40 29
-40 37 0 8 -4 14 -10 14 -5 0 -10 -6 -10 -13z"/>
</g>
<g>
<path d="M7244 953 c5 -69 2 -87 -16 -124 -19 -39 -26 -69 -31 -131 -2 -25
-12 -22 -25 7 -6 14 -16 25 -22 25 -17 0 -24 -31 -12 -49 7 -9 18 -31 26 -48
13 -28 20 -33 50 -33 19 0 38 5 41 10 9 15 105 13 105 -3 0 -7 9 -18 20 -25
11 -7 20 -16 20 -20 0 -14 -69 -11 -81 4 -15 18 -34 18 -106 -1 -32 -9 -76
-15 -98 -14 -49 2 -102 -20 -146 -61 -19 -16 -37 -30 -41 -30 -5 0 -8 -7 -8
-15 0 -21 -41 -28 -86 -16 -50 14 -177 15 -169 1 3 -5 30 -10 58 -11 58 0 144
-13 153 -22 3 -3 -2 -17 -12 -32 -16 -25 -16 -27 2 -45 47 -47 53 -60 29 -60
-21 0 -19 -23 4 -37 22 -13 108 -19 134 -8 10 4 28 2 42 -5 18 -10 31 -10 61
0 79 25 106 40 100 55 -3 8 0 16 7 17 7 0 17 2 23 2 6 1 25 16 43 34 35 34 71
58 71 45 0 -4 -14 -21 -31 -39 -47 -49 -17 -52 36 -3 34 32 45 37 45 24 0 -12
10 -4 31 24 25 36 28 45 17 58 -11 13 -9 18 10 31 12 8 22 23 22 33 0 11 5 19
10 19 6 0 10 6 10 13 0 7 9 30 19 51 16 30 17 43 9 67 -6 17 -8 33 -4 36 10
11 35 -18 38 -45 4 -34 35 -40 64 -14 11 10 31 22 44 25 41 10 60 30 67 70 8
51 -9 48 -68 -13 -27 -28 -57 -50 -68 -50 -29 0 -26 11 10 40 74 59 81 67 82
93 2 30 7 33 25 15 9 -9 15 -9 23 -1 8 8 2 23 -20 53 -17 24 -31 49 -31 57 0
18 -45 63 -64 63 -11 0 -13 -9 -9 -37 4 -29 0 -43 -16 -60 -12 -12 -21 -27
-21 -33 0 -47 -116 -210 -139 -196 -14 9 -14 53 0 58 16 5 0 58 -18 58 -9 0
-13 -6 -10 -15 9 -22 -14 -31 -29 -11 -7 10 -22 16 -36 14 -20 -3 -23 -8 -22
-40 1 -26 -3 -38 -13 -38 -20 0 -26 25 -13 50 14 26 3 43 -11 17 -12 -21 -31
-23 -22 -1 8 21 -13 33 -48 29 l-28 -4 20 38 c15 30 20 58 20 126 0 50 -4 92
-11 99 -7 7 -9 -12 -6 -71z m254 -394 c-2 -6 -8 -10 -13 -10 -5 0 -11 4 -13
10 -2 6 4 11 13 11 9 0 15 -5 13 -11z m-350 -108 c3 -8 -1 -12 -9 -9 -7 2 -15
10 -17 17 -3 8 1 12 9 9 7 -2 15 -10 17 -17z m62 0 c0 -12 -28 -22 -34 -12 -3
5 -3 11 1 15 9 9 33 7 33 -3z m53 3 c9 -10 -15 -54 -30 -54 -16 0 -16 2 -1 35
11 25 19 30 31 19z m-193 -44 c-6 -10 -14 -21 -19 -25 -5 -3 -8 -17 -5 -30 3
-18 0 -25 -11 -25 -21 0 -19 33 6 74 21 36 48 41 29 6z m90 -34 c0 -11 -19
-15 -25 -6 -3 5 1 10 9 10 9 0 16 -2 16 -4z m90 -47 c0 -3 -13 -6 -30 -6 -27
0 -39 15 -25 29 7 6 55 -14 55 -23z"/>
</g>
<g>
<path d="M2165 1010 c-3 -5 -2 -10 4 -10 5 0 13 5 16 10 3 6 2 10 -4 10 -5 0
-13 -4 -16 -10z"/>
</g>
<g>
<path d="M4120 980 c0 -5 7 -10 15 -10 8 0 15 5 15 10 0 6 -7 10 -15 10 -8 0
-15 -4 -15 -10z"/>
</g>
<g>
<path d="M1870 950 c0 -5 5 -10 10 -10 6 0 10 5 10 10 0 6 -4 10 -10 10 -5 0
-10 -4 -10 -10z"/>
</g>
<g>
<path d="M1955 940 c-3 -5 -2 -10 4 -10 5 0 13 5 16 10 3 6 2 10 -4 10 -5 0
-13 -4 -16 -10z"/>
</g>
<g>
<path d="M4325 943 c-22 -3 -44 -9 -49 -14 -17 -15 87 -10 108 6 22 17 28 16
-59 8z"/>
</g>
<g>
<path d="M3916 925 c5 -12 21 -14 93 -9 123 9 125 24 3 24 -86 0 -100 -2 -96
-15z"/>
</g>
<g>
<path d="M4128 928 c9 -9 15 -9 24 0 9 9 7 12 -12 12 -19 0 -21 -3 -12 -12z"/>
</g>
<g>
<path d="M4185 930 c3 -5 10 -10 16 -10 5 0 9 5 9 10 0 6 -7 10 -16 10 -8 0
-12 -4 -9 -10z"/>
</g>
<g>
<path d="M2031 887 c-12 -13 -19 -31 -16 -39 9 -23 -33 -70 -56 -63 -11 4 -19
2 -19 -5 0 -6 5 -8 10 -5 6 3 10 1 10 -4 0 -6 -6 -11 -13 -11 -7 0 -23 -13
-35 -29 -18 -25 -19 -31 -7 -41 24 -20 19 -60 -6 -60 -14 0 -19 5 -16 15 9 21
-7 26 -30 10 -19 -13 -50 -72 -42 -79 2 -1 61 0 132 3 70 3 127 3 127 -1 0 -5
-17 -8 -39 -8 -56 0 -131 -12 -126 -19 2 -4 64 -5 137 -3 91 2 143 -1 163 -9
19 -8 67 -12 131 -10 61 2 110 -1 122 -8 16 -9 24 -8 36 5 9 9 14 19 11 23 -2
5 -42 9 -87 10 -113 2 -145 9 -151 32 -3 12 -17 22 -36 25 -24 5 -30 11 -26
24 5 15 -2 19 -32 24 -46 6 -145 2 -160 -7 -6 -4 -19 0 -28 10 -27 27 -11 69
45 121 52 47 63 66 33 55 -15 -5 -14 -2 4 18 18 20 19 26 8 37 -18 16 -18 16
-44 -11z m-101 -177 c0 -5 -4 -10 -10 -10 -5 0 -10 5 -10 10 0 6 5 10 10 10 6
0 10 -4 10 -10z m29 -104 c-11 -9 -119 -15 -119 -6 0 6 27 10 62 10 34 0 59
-2 57 -4z m74 -3 c-7 -2 -19 -2 -25 0 -7 3 -2 5 12 5 14 0 19 -2 13 -5z"/>
</g>
<g>
<path d="M2266 875 c-3 -8 -1 -15 4 -15 6 0 10 7 10 15 0 8 -2 15 -4 15 -2 0
-6 -7 -10 -15z"/>
</g>
<g>
<path d="M2110 868 c-16 -7 -20 -12 -12 -15 8 -3 21 2 30 11 19 18 17 19 -18
4z"/>
</g>
<g>
<path d="M4015 860 c-8 -13 45 -13 65 0 11 7 6 10 -22 10 -20 0 -40 -4 -43
-10z"/>
</g>
<g>
<path d="M928 848 c-32 -11 -39 -34 -8 -24 11 3 30 9 41 13 16 4 20 2 17 -8
-3 -8 -21 -17 -41 -20 -46 -7 -49 -11 -41 -43 7 -31 24 -34 31 -6 7 25 15 25
38 0 22 -25 46 -10 25 15 -10 12 -10 19 -2 27 7 7 12 22 12 35 0 26 -23 29
-72 11z"/>
</g>
<g>
<path d="M1770 849 c0 -5 5 -7 10 -4 6 3 10 8 10 11 0 2 -4 4 -10 4 -5 0 -10
-5 -10 -11z"/>
</g>
<g>
<path d="M1983 835 c-15 -16 -16 -25 -5 -25 4 0 13 9 20 20 14 23 3 26 -15 5z"/>
</g>
<g>
<path d="M2090 810 c0 -5 4 -10 9 -10 6 0 13 5 16 10 3 6 -1 10 -9 10 -9 0
-16 -4 -16 -10z"/>
</g>
<g>
<path d="M4223 813 c-13 -2 -23 -9 -23 -14 0 -5 50 -9 113 -10 132 0 273 -19
270 -36 -2 -7 22 -11 72 -11 41 0 111 -7 157 -16 46 -8 169 -18 273 -22 105
-4 193 -9 198 -10 4 -1 30 -2 57 -3 28 0 50 -4 50 -8 0 -5 -111 -9 -246 -10
-136 -1 -257 -4 -270 -7 -34 -9 -31 -29 4 -22 44 10 570 17 652 10 89 -8 71
-22 -29 -23 -192 -2 88 -26 414 -36 183 -5 162 6 -45 25 -141 12 -179 20 -147
27 41 10 3 33 -56 33 -16 0 -26 -4 -22 -10 7 -12 -28 -14 -39 -3 -10 11 -159
32 -223 33 -28 0 -54 4 -58 9 -3 6 -13 10 -23 9 -9 0 -102 3 -207 6 -178 6
-272 17 -455 52 -183 34 -352 50 -417 37z"/>
</g>
<g>
<path d="M7310 811 c0 -5 13 -11 29 -14 16 -3 40 -9 55 -13 41 -10 30 12 -13
24 -46 14 -71 15 -71 3z"/>
</g>
<g>
<path d="M780 797 c-35 -18 -38 -45 -6 -53 36 -9 32 -21 -11 -41 -49 -23 -48
-22 -35 -35 8 -8 25 -1 66 26 58 38 71 64 37 73 -11 3 -21 13 -23 24 -3 16 -6
17 -28 6z"/>
</g>
<g>
<path d="M2230 792 c0 -20 98 -120 138 -141 36 -19 41 -2 7 22 -16 12 -56 48
-87 80 -42 41 -58 52 -58 39z"/>
</g>
<g>
<path d="M2048 787 c-8 -6 -18 -21 -22 -32 -6 -16 -2 -15 20 7 29 28 30 48 2
25z"/>
</g>
<g>
<path d="M1225 749 c-54 -12 -250 -71 -400 -119 -16 -5 -49 -12 -72 -16 -34
-5 -43 -11 -43 -26 0 -15 5 -18 23 -13 66 20 94 29 113 37 11 5 36 10 55 11
19 1 39 8 44 14 6 7 30 17 55 22 25 6 72 17 105 25 33 9 83 16 110 16 58 1
112 32 85 50 -17 11 -21 11 -75 -1z"/>
</g>
<g>
<path d="M1338 703 c7 -3 16 -2 19 1 4 3 -2 6 -13 5 -11 0 -14 -3 -6 -6z"/>
</g>
<g>
<path d="M1390 664 c0 -11 -6 -14 -22 -8 -40 13 -172 7 -265 -12 -13 -2 -23
-9 -23 -15 0 -7 30 -10 83 -8 116 2 171 0 164 -7 -3 -4 -34 -7 -69 -8 -38 0
-61 -5 -58 -11 7 -14 193 -11 198 4 2 6 16 11 31 11 15 0 31 4 37 9 5 5 25 11
44 13 39 4 28 12 -35 24 l-40 8 45 6 c42 7 40 7 -22 8 -56 2 -68 -1 -68 -14z"/>
</g>
<g>
<path d="M2458 643 c-21 -2 -38 -9 -38 -14 0 -15 93 -6 98 9 2 6 -2 11 -10 10
-7 -1 -30 -3 -50 -5z"/>
</g>
<g>
<path d="M1488 613 c7 -3 16 -2 19 1 4 3 -2 6 -13 5 -11 0 -14 -3 -6 -6z"/>
</g>
<g>
<path d="M2527 595 c-13 -19 -15 -25 -4 -25 17 0 37 20 37 37 0 20 -13 15 -33
-12z"/>
</g>
<g>
<path d="M6273 583 c9 -2 23 -2 30 0 6 3 -1 5 -18 5 -16 0 -22 -2 -12 -5z"/>
</g>
<g>
<path d="M6328 573 c7 -3 16 -2 19 1 4 3 -2 6 -13 5 -11 0 -14 -3 -6 -6z"/>
</g>
<g>
<path d="M6460 570 c0 -5 12 -10 28 -9 24 0 25 1 7 9 -27 12 -35 12 -35 0z"/>
</g>
<g>
<path d="M6045 550 c-13 -6 15 -9 82 -9 56 -1 110 -4 120 -7 12 -5 15 -4 8 4
-13 13 -184 23 -210 12z"/>
</g>
<g>
<path d="M1780 531 c-10 -21 -4 -51 11 -51 5 0 9 16 9 35 0 40 -5 43 -20 16z"/>
</g>
<g>
<path d="M1218 535 c-14 -14 3 -25 40 -25 21 0 47 -7 59 -15 23 -16 82 -13
136 7 46 18 30 28 -42 28 -37 0 -95 3 -127 6 -32 3 -62 3 -66 -1z"/>
</g>
<g>
<path d="M6333 533 c9 -2 25 -2 35 0 9 3 1 5 -18 5 -19 0 -27 -2 -17 -5z"/>
</g>
<g>
<path d="M6811 529 c8 -5 43 -8 79 -8 79 1 69 6 -24 12 -42 3 -63 1 -55 -4z"/>
</g>
<g>
<path d="M6418 523 c12 -2 32 -2 45 0 12 2 2 4 -23 4 -25 0 -35 -2 -22 -4z"/>
</g>
<g>
<path d="M6520 520 c0 -5 5 -10 10 -10 6 0 10 5 10 10 0 6 -4 10 -10 10 -5 0
-10 -4 -10 -10z"/>
</g>
<g>
<path d="M6550 519 c0 -5 18 -9 39 -9 22 0 48 -3 58 -6 14 -4 15 -4 3 4 -21
13 -100 22 -100 11z"/>
</g>
<g>
<path d="M1810 381 c0 -24 7 -32 40 -49 22 -11 40 -18 40 -15 0 8 -65 92 -72
93 -5 0 -8 -13 -8 -29z"/>
</g>
<g>
<path d="M6488 393 c6 -2 18 -2 25 0 6 3 1 5 -13 5 -14 0 -19 -2 -12 -5z"/>
</g>
<g>
<path d="M6591 386 c11 -11 109 -24 115 -15 3 5 -5 9 -18 9 -13 0 -41 3 -63 7
-22 3 -37 3 -34 -1z"/>
</g>
<g>
<path d="M6728 363 c7 -3 16 -2 19 1 4 3 -2 6 -13 5 -11 0 -14 -3 -6 -6z"/>
</g>
<g>
<path d="M6795 350 c3 -5 14 -10 23 -10 15 0 15 2 2 10 -20 13 -33 13 -25 0z"/>
</g>
<g>
<path d="M1785 300 c-3 -5 3 -10 14 -10 12 0 21 5 21 10 0 6 -6 10 -14 10 -8
0 -18 -4 -21 -10z"/>
</g>
<g>
<path d="M7280 244 c0 -8 5 -12 10 -9 6 4 8 11 5 16 -9 14 -15 11 -15 -7z"/>
</g>
<g>
<path d="M1856 231 c-3 -5 1 -14 9 -21 21 -17 11 -27 -35 -35 -50 -8 -52 -25
-4 -25 32 0 76 24 121 66 17 16 3 26 -15 11 -12 -9 -16 -9 -19 1 -5 14 -49 17
-57 3z"/>
</g>
<g>
<path d="M1798 223 c-16 -2 -28 -9 -28 -14 0 -10 32 -4 60 12 16 9 14 9 -32 2z"/>
</g>
<g>
<path d="M7080 180 c0 -13 30 -13 50 0 11 7 7 10 -17 10 -18 0 -33 -4 -33 -10z"/>
</g>
<g>
<path d="M1730 157 c-22 -9 -23 -11 -6 -14 10 -3 23 0 29 6 16 16 5 20 -23 8z"/>
</g>
</g>
</svg>
