<?xml version="1.0" standalone="no"?>
<!DOCTYPE svg PUBLIC "-//W3C//DTD SVG 20010904//EN"
 "http://www.w3.org/TR/2001/REC-SVG-20010904/DTD/svg10.dtd">
<svg version="1.0" xmlns="http://www.w3.org/2000/svg"
 width="670.000000pt" height="507.000000pt" viewBox="0 0 670.000000 507.000000"
 preserveAspectRatio="xMidYMid meet">
<metadata>
Created by potrace 1.15, written by Peter Selinger 2001-2017
</metadata>
<g transform="translate(0.000000,507.000000) scale(0.100000,-0.100000)"
fill="#000000" stroke="none">
<g>
<path d="M1450 4571 c0 -15 -5 -18 -21 -14 -21 6 -21 6 -3 -21 21 -33 9 -46
-43 -46 -18 0 -33 -4 -33 -10 0 -5 6 -10 13 -10 6 0 19 -17 28 -39 16 -38 42
-51 100 -51 31 0 22 29 -16 51 -33 20 -48 49 -25 49 6 0 15 10 20 23 5 12 9
16 9 9 1 -23 21 -2 21 23 0 24 -23 55 -41 55 -5 0 -9 -9 -9 -19z"/>
</g>
<g>
<path d="M1191 4543 c-36 -15 -97 -70 -88 -79 3 -3 15 0 28 6 21 12 72 9 128
-6 17 -5 22 -4 17 5 -9 14 -71 41 -100 42 -13 1 -8 4 14 9 20 5 42 4 53 -2 22
-11 32 -5 24 15 -8 21 -38 25 -76 10z"/>
</g>
<g>
<path d="M1290 4520 c0 -11 5 -20 10 -20 6 0 10 9 10 20 0 11 -4 20 -10 20 -5
0 -10 -9 -10 -20z"/>
</g>
<g>
<path d="M1120 4445 c-14 -8 -31 -14 -38 -15 -16 0 -47 -29 -39 -36 4 -5 113
48 126 61 10 11 -26 3 -49 -10z"/>
</g>
<g>
<path d="M1185 4424 c-22 -7 -48 -14 -59 -14 -17 0 -56 -27 -97 -65 -15 -14
-18 -13 -31 7 -15 22 -15 22 -41 -23 -31 -53 -32 -68 -12 -135 14 -47 14 -50
-8 -66 -21 -17 -21 -19 6 -22 7 -1 13 -18 13 -46 2 -43 6 -70 20 -132 5 -22 3
-28 -10 -28 -26 0 -18 -15 16 -28 23 -8 35 -9 45 0 17 14 17 14 42 -52 24 -62
27 -128 9 -153 -11 -14 -19 -15 -48 -7 -64 18 -113 12 -161 -20 -24 -16 -51
-30 -60 -30 -16 0 -98 -55 -111 -74 -4 -6 -8 -22 -8 -35 0 -14 -12 -35 -29
-51 -27 -23 -121 -193 -121 -217 0 -5 -9 -28 -20 -51 -11 -22 -20 -46 -20 -53
0 -6 -11 -43 -25 -81 -14 -38 -25 -80 -25 -94 0 -13 -4 -24 -9 -24 -14 0 -39
-61 -47 -115 -4 -27 -17 -68 -29 -92 -37 -68 -46 -128 -42 -278 4 -146 18
-248 42 -300 10 -21 14 -66 13 -155 -1 -83 2 -133 10 -148 16 -27 32 -29 32
-2 0 11 -5 20 -11 20 -6 0 -9 12 -7 27 4 32 52 63 85 56 15 -3 25 0 29 10 8
21 71 58 87 51 15 -5 50 36 104 121 35 54 35 78 0 30 -36 -50 -108 -110 -134
-112 -24 -2 -24 -1 -9 20 40 54 56 83 56 102 0 24 60 115 76 115 12 0 24 22
24 42 0 29 -138 -136 -230 -274 -14 -21 -28 -38 -32 -38 -17 0 -7 28 18 51 14
13 42 51 62 84 20 33 40 62 44 63 4 2 8 13 8 25 0 13 29 52 70 96 38 41 67 77
65 80 -8 8 -69 -57 -133 -139 -31 -41 -78 -101 -105 -134 -31 -40 -45 -66 -41
-78 6 -19 -20 -26 -31 -8 -9 15 -1 26 168 242 26 33 47 67 47 75 0 9 23 40 50
70 87 95 56 95 -35 -1 -47 -48 -85 -92 -85 -96 0 -4 -7 -13 -15 -20 -9 -7 -14
-19 -11 -25 2 -7 -6 -18 -20 -25 -13 -8 -24 -16 -24 -19 0 -3 -20 -28 -45 -55
-44 -49 -44 -50 -53 -25 -16 43 -24 111 -12 104 12 -8 35 17 50 53 6 13 15 20
21 17 7 -5 5 -15 -6 -31 -9 -15 -13 -33 -9 -49 4 -15 2 -25 -5 -25 -6 0 -11
12 -11 28 0 21 -2 24 -10 12 -12 -19 -13 -90 -1 -90 5 0 21 17 37 38 15 20 33
40 38 45 7 5 4 13 -8 22 -19 14 -19 15 5 15 35 0 129 105 181 201 22 41 45 77
52 81 17 12 28 9 23 -4 -2 -7 2 -25 11 -39 13 -24 13 -32 -1 -74 -12 -37 -13
-52 -4 -67 9 -14 9 -23 -1 -38 -15 -25 -16 -38 0 -22 18 18 28 14 28 -11 0
-12 -20 -44 -45 -72 -25 -28 -58 -70 -72 -95 -15 -25 -38 -60 -51 -77 -13 -18
-20 -33 -16 -33 5 0 32 32 59 71 28 38 61 81 75 94 14 13 33 35 43 49 21 30
42 34 34 7 -5 -22 33 -47 57 -38 25 10 19 -11 -6 -24 -29 -15 -98 -81 -98 -93
0 -5 9 -1 20 9 11 10 34 18 50 18 32 0 40 11 14 21 -20 8 -9 26 17 26 15 0 19
-7 19 -34 0 -21 6 -36 15 -40 16 -6 21 -36 5 -36 -5 0 -14 9 -20 20 -6 11 -20
20 -31 20 -21 0 -79 -50 -79 -68 0 -5 -17 -21 -37 -36 -21 -14 -65 -48 -98
-76 -38 -31 -70 -49 -86 -50 -31 0 -52 -21 -43 -43 4 -11 -4 -22 -26 -35 -38
-24 -26 -35 29 -26 31 5 41 3 41 -7 0 -8 3 -43 5 -78 4 -64 -14 -131 -37 -131
-41 0 -113 -193 -80 -214 6 -4 39 1 74 10 35 9 82 17 105 18 23 1 45 5 49 9
12 11 24 8 24 -6 0 -10 25 -17 84 -24 46 -6 99 -18 117 -28 19 -10 52 -27 74
-38 22 -11 51 -27 65 -37 14 -9 36 -20 50 -23 14 -3 61 -15 105 -25 44 -10 88
-22 98 -25 9 -4 24 -9 32 -12 9 -3 15 -17 15 -36 l0 -31 -85 3 c-47 2 -85 3
-85 1 0 -10 64 -23 118 -24 l64 -1 -5 -41 c-3 -23 -13 -74 -21 -113 -34 -155
-25 -239 34 -313 16 -21 30 -42 30 -47 0 -13 44 -53 57 -53 6 0 16 6 22 14 10
12 6 18 -18 32 -17 10 -31 22 -31 26 0 4 -15 29 -32 55 -32 46 -33 52 -33 143
0 52 4 109 8 125 23 99 27 156 12 198 -20 56 -20 56 20 73 44 18 42 18 48 -8
3 -13 12 -50 20 -83 9 -33 18 -95 22 -138 4 -43 10 -75 14 -72 8 8 8 185 0
185 -3 0 -14 30 -24 66 -19 72 -15 84 32 84 12 0 40 9 62 21 71 36 76 30 77
-96 1 -130 12 -245 24 -245 11 0 18 70 8 76 -14 9 -9 56 18 143 40 134 37 130
81 124 63 -7 61 -2 46 -115 -7 -56 -12 -112 -10 -123 4 -28 37 116 37 163 0
48 14 61 70 65 26 2 46 9 48 17 3 9 -1 11 -11 7 -30 -11 -27 11 3 23 16 7 35
18 41 26 6 8 15 14 20 14 15 0 10 -22 -8 -36 -22 -16 -11 -29 13 -16 11 6 22
31 29 66 11 55 5 72 -14 39 -9 -17 -10 -17 -17 1 -5 14 0 24 19 38 15 11 27
28 27 38 0 43 -71 160 -98 160 -5 0 -29 19 -54 43 -33 32 -48 56 -57 92 -7 26
-28 79 -48 117 -33 64 -35 74 -30 135 5 61 1 79 -24 138 -5 11 -10 54 -11 95
-3 82 -18 96 -32 30 -7 -33 -18 -47 -50 -68 -23 -15 -47 -33 -54 -39 -7 -7
-17 -13 -20 -13 -4 0 -29 -20 -55 -45 -42 -41 -67 -50 -67 -25 0 5 30 30 66
56 43 30 61 49 53 54 -6 4 -8 13 -5 19 4 6 3 11 -3 11 -9 0 -229 -189 -333
-287 -66 -62 -87 -68 -79 -19 1 4 -4 15 -10 22 -10 12 8 34 97 122 60 60 127
121 149 138 22 16 53 41 69 57 32 30 46 34 46 13 0 -12 -58 -64 -85 -76 -23
-10 -247 -250 -234 -250 8 0 62 49 120 110 58 60 110 110 116 110 6 0 16 7 23
15 30 36 102 75 145 78 50 4 56 -3 23 -26 -13 -8 -19 -18 -15 -23 4 -4 21 7
37 26 21 25 26 37 19 47 -8 9 -6 22 5 44 21 42 10 51 -19 17 -24 -28 -65 -38
-65 -17 0 13 13 25 63 63 20 16 37 33 37 38 0 15 -60 -25 -96 -64 -21 -24 -39
-35 -49 -32 -27 11 -16 30 55 90 38 32 70 63 70 67 0 16 -47 -19 -105 -77 -44
-45 -67 -61 -87 -61 -19 0 -47 -16 -85 -50 -81 -70 -254 -247 -248 -254 3 -3
54 42 113 100 137 135 186 173 200 156 14 -16 8 -24 -53 -72 -27 -22 -121
-111 -208 -199 -87 -87 -161 -155 -165 -151 -4 4 15 26 43 50 55 48 58 69 5
30 -19 -14 -35 -25 -37 -25 -11 0 3 18 44 56 49 44 56 70 10 34 -14 -11 -30
-20 -36 -20 -21 0 -11 19 26 47 52 40 174 161 207 206 15 21 38 42 49 47 12 5
35 20 52 33 29 24 29 25 18 78 -6 34 -7 63 -2 78 6 16 6 28 -2 38 -10 11 -7
20 10 44 35 47 17 45 -20 -2 -19 -23 -68 -77 -109 -120 -41 -43 -108 -114
-149 -158 -41 -45 -78 -81 -84 -81 -6 0 -3 8 5 18 8 9 19 24 23 32 8 13 7 13
-10 0 -27 -21 -94 -81 -116 -104 -11 -11 -22 -17 -25 -13 -7 7 118 146 145
161 9 5 50 43 93 85 42 42 85 83 95 92 45 39 144 151 139 156 -7 7 -16 0 -182
-166 -72 -72 -135 -131 -139 -131 -4 0 -25 -15 -45 -34 -42 -38 -80 -61 -80
-49 1 22 297 323 318 323 9 0 12 6 8 16 -3 9 -2 12 5 8 11 -6 59 32 59 48 0 4
17 23 38 43 20 19 31 35 23 35 -22 0 -77 -46 -199 -167 -63 -62 -118 -110
-123 -107 -6 3 -5 12 3 22 29 37 114 122 123 123 14 2 151 149 138 149 -10 0
-121 -98 -245 -217 -32 -30 -58 -61 -58 -68 0 -7 -21 -35 -47 -61 -43 -45 -46
-46 -39 -19 11 42 59 105 128 166 34 30 68 62 77 72 39 46 154 159 235 233 59
54 87 86 85 98 -3 14 -14 6 -44 -32 -22 -28 -43 -51 -46 -52 -10 0 -99 -81
-189 -170 -47 -47 -103 -99 -125 -115 -22 -16 -49 -41 -60 -55 -35 -45 -94
-99 -99 -91 -3 4 38 52 90 106 51 54 94 99 94 101 0 5 136 137 194 187 79 69
108 101 96 105 -11 4 -71 -36 -83 -55 -4 -7 -27 -30 -49 -51 -45 -40 -86 -84
-143 -149 -20 -23 -45 -45 -56 -48 -10 -4 -19 -10 -19 -14 0 -12 -170 -185
-176 -179 -2 3 7 19 21 37 15 17 24 35 20 41 -3 5 -1 10 6 10 7 0 42 28 78 63
37 34 84 77 105 94 20 18 34 37 31 43 -5 8 -11 7 -21 -1 -25 -21 -28 0 -4 26
13 14 21 28 17 31 -6 7 -87 -55 -87 -67 0 -4 -10 -11 -22 -15 -23 -7 -108 -88
-108 -103 0 -5 -9 -7 -20 -4 -15 4 -20 0 -20 -16 0 -21 -24 -29 -35 -11 -5 8
21 38 60 67 28 22 111 90 131 108 12 11 51 45 85 75 35 30 95 87 135 125 39
39 86 80 103 93 34 26 67 26 65 0 -1 -10 4 -14 12 -11 8 3 14 9 14 14 0 5 13
9 29 9 17 0 33 5 36 10 4 6 12 7 18 3 6 -4 20 -8 31 -8 10 -1 23 -9 28 -18 5
-10 16 -17 23 -17 8 0 15 -3 15 -7 0 -5 12 -13 26 -20 21 -10 29 -10 41 2 18
19 43 19 43 2 0 -8 -9 -22 -20 -32 -21 -19 -27 -45 -10 -45 13 0 -7 -35 -39
-72 -14 -15 -21 -31 -17 -35 4 -5 13 0 20 10 7 9 19 17 26 17 12 0 -19 -44
-78 -107 -24 -27 -38 -34 -57 -31 -24 5 -41 -14 -29 -33 8 -14 198 -11 212 3
17 17 16 -18 -1 -68 -17 -48 -31 -241 -18 -248 12 -8 25 112 17 150 -4 18 1
50 13 85 11 30 18 72 16 92 l-3 37 30 -21 c16 -12 42 -49 59 -85 17 -35 38
-69 47 -76 10 -7 35 -40 57 -73 21 -33 50 -71 63 -85 12 -14 26 -37 29 -52 8
-38 49 -76 89 -84 21 -4 43 -18 57 -36 12 -16 34 -44 50 -62 15 -19 27 -41 27
-49 0 -22 11 -47 20 -47 5 0 6 15 3 34 -3 19 -1 36 6 40 7 5 11 -2 11 -18 0
-20 5 -26 23 -26 37 1 116 147 102 190 -7 22 -77 96 -87 92 -30 -9 18 80 58
107 34 23 35 23 80 6 25 -9 48 -15 50 -12 7 6 -19 55 -43 82 -45 51 -85 75
-123 75 -36 0 -39 -2 -47 -37 -11 -47 -31 -55 -26 -11 3 31 2 31 -8 11 -7 -13
-16 -23 -21 -23 -5 0 -7 -8 -3 -19 3 -10 1 -29 -4 -42 -11 -29 -119 -144 -128
-136 -7 8 37 68 89 121 21 22 38 44 38 49 0 11 -22 -6 -68 -53 -20 -21 -32
-28 -28 -17 3 11 0 20 -9 24 -12 4 -2 21 42 72 31 36 58 68 60 70 1 2 9 -2 18
-9 28 -23 27 -3 -2 51 -22 42 -39 59 -78 80 -44 23 -53 34 -75 86 -14 33 -42
83 -62 112 -21 28 -33 51 -28 51 6 0 10 5 10 11 0 7 -9 9 -22 6 -12 -3 -40 2
-62 12 -23 11 -66 22 -96 25 -30 4 -82 13 -115 21 -33 8 -116 19 -184 25 -79
6 -149 19 -195 34 -39 13 -107 33 -151 44 -44 10 -112 36 -151 56 -39 20 -78
36 -87 36 -9 0 -28 11 -42 24 -14 13 -42 27 -61 31 -50 9 -114 73 -114 113 0
17 -5 43 -10 58 -10 24 -7 30 22 55 18 16 48 33 67 38 19 6 43 19 55 29 30 27
84 43 122 36 29 -5 32 -9 28 -33 -5 -21 1 -31 27 -50 42 -31 156 -88 194 -96
l30 -7 -35 24 c-19 13 -65 41 -102 61 -78 44 -86 52 -58 67 12 6 20 22 21 38
1 26 1 26 7 4 8 -28 26 -30 30 -3 2 11 10 25 18 31 21 18 17 32 -21 69 -19 19
-35 39 -35 45 0 6 -11 28 -25 48 -14 20 -25 46 -25 57 0 14 -7 21 -18 21 -18
0 -50 27 -51 43 0 4 -3 22 -7 41 -10 54 2 77 38 74 20 -2 34 -10 41 -25 5 -12
14 -20 18 -17 13 8 11 102 -3 124 -11 16 -9 23 10 41 13 11 21 27 18 35 -4 10
4 14 28 14 38 0 81 17 111 42 11 10 29 24 40 32 28 20 15 28 -19 11 -43 -23
-44 -18 -3 16 47 39 47 49 0 42 -34 -6 -37 -5 -25 9 19 24 2 28 -43 12z m-15
-39 c-7 -8 -17 -15 -22 -15 -6 0 -5 7 2 15 7 8 17 15 22 15 6 0 5 -7 -2 -15z
m-35 -55 c-3 -5 -13 -10 -21 -10 -8 0 -14 5 -14 10 0 6 9 10 21 10 11 0 17 -4
14 -10z m-158 -62 c-3 -7 -5 -2 -5 12 0 14 2 19 5 13 2 -7 2 -19 0 -25z m-257
-908 c0 -5 11 -10 25 -10 14 0 25 -3 25 -7 -1 -16 -69 -85 -78 -79 -12 7 -4
44 12 65 9 12 7 13 -7 8 -10 -4 -20 -7 -22 -7 -2 0 -7 -17 -12 -37 l-7 -38 -7
30 c-5 25 -1 34 25 58 32 28 46 34 46 17z m98 -63 c3 -15 0 -18 -17 -12 -16 5
-31 -5 -66 -42 -26 -26 -54 -60 -63 -75 -17 -30 -38 -39 -28 -12 3 9 6 20 6
25 0 5 28 38 62 74 63 68 99 81 106 42z m-188 -17 c0 -5 -5 -10 -11 -10 -5 0
-7 5 -4 10 3 6 8 10 11 10 2 0 4 -4 4 -10z m246 -47 c13 -8 24 -22 24 -29 0
-8 5 -14 10 -14 6 0 10 -5 10 -12 0 -6 7 -20 16 -30 14 -15 15 -20 3 -34 -8
-10 -14 -26 -14 -37 0 -11 -6 -22 -14 -25 -8 -3 -11 0 -7 6 4 7 2 21 -4 32 -8
14 -8 26 0 43 l11 22 -20 -23 c-11 -13 -18 -28 -16 -35 3 -7 -2 -32 -9 -57 -8
-25 -15 -39 -15 -32 -1 16 -21 16 -21 -1 0 -7 -9 -22 -19 -33 -11 -10 -52 -50
-90 -89 -39 -38 -71 -77 -71 -85 0 -8 36 21 80 65 l80 80 0 -35 c0 -31 -7 -41
-53 -77 -30 -23 -71 -64 -92 -92 -32 -42 -40 -48 -50 -35 -9 13 -14 13 -37 -5
-37 -29 -43 -26 -18 10 12 16 19 33 15 37 -3 4 -10 0 -15 -8 -5 -8 -16 -24
-25 -35 -16 -19 -16 -19 -10 9 11 52 33 96 48 96 8 0 18 12 21 26 4 16 12 24
20 21 16 -6 253 229 242 240 -4 4 -46 -32 -93 -80 -46 -49 -88 -86 -91 -82 -4
4 1 11 11 16 9 6 17 15 18 22 0 11 31 55 117 168 17 23 30 45 27 48 -6 5 -76
-71 -136 -148 -19 -25 -52 -63 -72 -84 -20 -21 -37 -45 -37 -53 0 -8 -6 -14
-14 -14 -7 0 -32 -27 -56 -61 -34 -49 -41 -66 -36 -90 6 -30 -7 -41 -17 -15
-8 20 7 70 31 103 11 16 29 46 41 68 28 51 63 98 128 172 88 98 143 166 139
171 -3 2 -52 -45 -110 -104 -58 -60 -108 -105 -112 -102 -10 11 143 191 179
210 35 19 65 16 103 -9z m-236 -7 c0 -7 -19 -31 -42 -52 -24 -21 -46 -45 -50
-53 -5 -12 -7 -10 -7 7 -1 12 3 22 7 22 5 0 23 20 41 45 33 45 51 57 51 31z
m340 0 c0 -3 -4 -8 -10 -11 -5 -3 -10 -1 -10 4 0 6 5 11 10 11 6 0 10 -2 10
-4z m30 -37 c0 -11 -4 -18 -10 -14 -5 3 -7 12 -3 20 7 21 13 19 13 -6z m-30 1
c0 -5 -4 -10 -10 -10 -5 0 -10 5 -10 10 0 6 5 10 10 10 6 0 10 -4 10 -10z
m135 -42 c-6 -19 -5 -21 6 -10 15 14 55 16 64 2 3 -5 12 -7 20 -3 8 3 15 0 15
-7 0 -7 13 -10 33 -8 26 2 32 0 32 -17 0 -12 -8 -21 -20 -24 -11 -2 -36 -17
-55 -35 -85 -74 -105 -88 -108 -72 -2 8 2 25 8 37 9 16 9 23 0 29 -8 5 0 18
24 40 43 41 39 53 -4 16 -17 -14 -35 -26 -39 -26 -12 0 -9 84 4 92 19 14 26 8
20 -14z m-65 -38 c0 -51 -19 -72 -21 -22 0 23 -1 24 -8 7 -4 -11 -6 -39 -3
-62 4 -38 2 -43 -15 -43 -11 0 -30 -12 -44 -26 -13 -14 -40 -34 -59 -43 -31
-15 -35 -21 -34 -54 1 -44 -12 -50 -18 -8 -6 41 7 60 85 127 37 32 67 61 67
66 0 10 -17 11 -22 1 -6 -15 -79 -73 -91 -73 -7 0 7 19 30 43 77 77 113 117
113 127 0 6 5 10 10 10 6 0 10 -22 10 -50z m-457 -30 c-16 -17 -36 -43 -44
-58 -7 -15 -24 -38 -36 -51 -13 -13 -23 -30 -23 -38 0 -8 -4 -11 -10 -8 -16
10 -13 15 45 104 57 89 74 106 89 91 6 -6 -3 -21 -21 -40z m737 -4 c0 -8 -13
-25 -30 -38 -16 -13 -61 -53 -99 -90 -54 -53 -77 -69 -108 -74 -25 -4 -54 -19
-77 -40 -20 -19 -41 -34 -45 -34 -4 0 -20 -13 -36 -30 -16 -16 -34 -30 -40
-30 -6 0 -24 -13 -40 -30 -31 -33 -51 -39 -41 -14 4 11 2 15 -8 11 -10 -4 -13
-1 -9 9 3 8 11 13 19 10 13 -5 67 31 122 83 18 17 35 31 38 31 2 0 21 12 42
28 40 29 51 37 96 77 16 14 34 25 41 25 7 0 23 10 37 23 64 57 98 85 98 79 0
-3 5 -1 12 6 16 16 28 15 28 -2z m285 -36 c3 -5 1 -10 -4 -10 -6 0 -11 5 -11
10 0 6 2 10 4 10 3 0 8 -4 11 -10z m-525 -20 c0 -5 -4 -10 -10 -10 -5 0 -10 5
-10 10 0 6 5 10 10 10 6 0 10 -4 10 -10z m574 1 c3 -4 3 -11 0 -14 -8 -8 -34
3 -34 14 0 11 27 12 34 0z m176 -21 c0 -6 -7 -13 -15 -16 -8 -4 -15 -10 -15
-16 0 -10 -25 -38 -35 -38 -3 0 5 18 17 40 21 37 48 54 48 30z m33 -22 c-11
-13 -34 -45 -51 -72 -18 -30 -32 -44 -37 -37 -11 19 68 129 94 130 10 1 9 -5
-6 -21z m129 -11 c38 -42 74 -105 83 -144 3 -18 19 -43 35 -56 l28 -24 -72
-72 c-75 -74 -103 -85 -61 -22 14 19 25 40 25 44 0 5 9 20 20 34 34 44 12 39
-26 -5 -19 -23 -40 -42 -45 -42 -17 0 4 65 29 93 14 15 21 27 16 27 -6 0 -21
-11 -34 -25 -26 -28 -29 -29 -50 -15 -12 7 -11 13 9 34 34 36 19 44 -20 12
-17 -15 -33 -25 -36 -23 -11 11 26 69 61 96 38 30 29 45 -10 16 -10 -8 -26
-14 -34 -15 -8 0 -34 -21 -57 -47 -29 -33 -43 -42 -43 -31 0 10 28 45 62 79
40 40 54 59 40 55 -14 -5 -22 -3 -22 4 0 7 -7 10 -15 6 -20 -7 -19 -1 5 27 31
36 77 33 112 -6z m-922 0 c0 -20 -237 -223 -248 -212 -2 2 9 16 26 30 16 14
29 32 28 41 0 11 7 18 22 19 13 1 31 10 40 20 16 17 16 17 -10 11 -31 -7 -39
9 -10 18 10 4 34 22 53 41 32 32 58 47 44 25 -10 -16 13 -12 27 5 16 18 28 19
28 2z m663 -1 c6 -16 -2 -28 -14 -20 -12 7 -11 34 0 34 5 0 11 -6 14 -14z m-3
-56 c0 -5 -2 -10 -4 -10 -3 0 -8 5 -11 10 -3 6 -1 10 4 10 6 0 11 -4 11 -10z
m-25 -20 c3 -5 1 -10 -4 -10 -6 0 -11 5 -11 10 0 6 2 10 4 10 3 0 8 -4 11 -10z
m-935 -86 c0 -19 -165 -231 -191 -244 -36 -20 -40 -9 -10 25 17 20 31 42 31
50 0 16 147 185 161 185 5 0 9 -7 9 -16z m940 -16 c0 -6 -7 -7 -15 -4 -10 4
-19 -3 -27 -19 -10 -23 -36 -40 -46 -31 -10 11 53 72 71 68 9 -2 17 -9 17 -14z
m-1280 -27 c0 -6 -4 -13 -10 -16 -5 -3 -10 1 -10 9 0 9 5 16 10 16 6 0 10 -4
10 -9z m1420 -46 c-7 -9 -15 -13 -18 -10 -3 2 1 11 8 20 7 9 15 13 18 10 3 -2
-1 -11 -8 -20z m336 0 c4 -8 -3 -23 -14 -33 -11 -9 -42 -45 -70 -79 -28 -35
-54 -58 -57 -53 -3 6 -1 10 4 10 6 0 11 9 11 20 0 33 -15 23 -55 -35 -37 -53
-67 -77 -45 -35 13 24 101 132 149 183 37 39 68 48 77 22z m-1592 -52 c-7 -28
-44 -77 -52 -69 -6 7 45 96 54 96 3 0 1 -12 -2 -27z m1626 1 c0 -17 -16 -44
-46 -78 -58 -64 -79 -78 -69 -45 6 20 5 22 -6 12 -7 -7 -17 -13 -22 -13 -5 0
21 34 58 75 37 41 71 75 76 75 5 0 9 -12 9 -26z m-1420 -16 c0 -11 -28 -10
-35 1 -3 6 4 9 15 8 11 -1 20 -5 20 -9z m170 -23 c-7 -8 -16 -15 -21 -15 -5 0
-6 7 -3 15 4 8 13 15 21 15 13 0 13 -3 3 -15z m980 -5 c-6 -11 -15 -18 -21
-14 -6 4 -6 11 2 20 17 21 31 17 19 -6z m-1490 0 c0 -5 -5 -10 -11 -10 -5 0
-7 5 -4 10 3 6 8 10 11 10 2 0 4 -4 4 -10z m185 -84 c-44 -62 -82 -89 -69 -48
6 19 -38 -25 -55 -55 -5 -10 -12 -15 -15 -13 -6 6 60 97 119 163 32 36 43 42
53 32 11 -10 5 -24 -33 -79z m165 91 c0 -2 -9 -14 -20 -27 -11 -13 -20 -18
-20 -12 0 6 7 18 16 26 15 15 24 20 24 13z m1568 -33 c12 -8 22 -22 22 -30 0
-23 -206 -241 -217 -230 -9 9 56 106 103 153 44 46 52 59 35 65 -5 2 -7 15 -4
31 6 31 27 35 61 11z m-1925 -24 c3 -11 1 -18 -4 -14 -5 3 -9 12 -9 20 0 20 7
17 13 -6z m1453 -17 c-10 -10 -19 5 -10 18 6 11 8 11 12 0 2 -7 1 -15 -2 -18z
m34 -29 c0 -8 -5 -12 -10 -9 -6 4 -8 11 -5 16 9 14 15 11 15 -7z m84 -26 c-8
-27 -12 -33 -19 -27 -7 8 7 49 17 49 5 0 6 -10 2 -22z m-684 -27 c0 -21 -11
-39 -40 -65 -22 -20 -40 -38 -40 -41 0 -13 29 -3 45 15 23 26 35 25 35 -1 0
-11 -18 -36 -41 -57 -23 -20 -46 -41 -50 -47 -68 -85 -157 -178 -180 -191 -35
-18 -64 -40 -92 -71 -11 -13 -27 -23 -35 -23 -8 0 17 31 54 69 180 179 263
275 250 288 -3 4 -23 -13 -44 -38 -69 -82 -177 -196 -217 -230 -22 -19 -41
-37 -43 -41 -6 -13 -22 -9 -22 5 0 7 14 21 30 30 17 10 30 24 30 31 0 7 14 22
30 34 27 20 44 52 20 37 -5 -3 -10 -2 -10 4 0 5 19 24 43 40 71 50 206 191
248 259 19 30 29 28 29 -7z m-923 -38 c-3 -10 -5 -4 -5 12 0 17 2 24 5 18 2
-7 2 -21 0 -30z m1648 -13 c3 -5 1 -10 -4 -10 -6 0 -11 5 -11 10 0 6 2 10 4
10 3 0 8 -4 11 -10z m-1674 -48 c-9 -3 -9 -7 -1 -18 7 -7 8 -19 4 -25 -13 -22
-25 30 -12 54 8 17 13 18 16 7 3 -7 0 -16 -7 -18z m1903 -9 c-10 -71 -13 -79
-41 -93 -16 -8 -36 -21 -45 -29 -12 -9 -18 -10 -18 -3 0 7 4 12 8 12 11 0 55
60 49 66 -3 3 -17 -7 -32 -21 -30 -31 -45 -26 -26 8 11 19 96 97 106 97 2 0 1
-17 -1 -37z m-1446 -30 c16 -15 15 -16 -11 -9 -19 4 -26 3 -22 -4 3 -5 13 -10
21 -10 8 0 14 -9 14 -20 0 -11 -4 -20 -10 -20 -5 0 -10 5 -10 11 0 7 -7 17
-16 23 -9 7 -12 18 -8 29 8 21 21 22 42 0z m-277 -16 c-10 -9 -11 -8 -5 6 3
10 9 15 12 12 3 -3 0 -11 -7 -18z m334 -17 c3 -5 1 -10 -4 -10 -6 0 -11 5 -11
10 0 6 2 10 4 10 3 0 8 -4 11 -10z m1350 -60 c3 -5 1 -10 -4 -10 -6 0 -11 5
-11 10 0 6 2 10 4 10 3 0 8 -4 11 -10z m30 -10 c3 -5 1 -10 -4 -10 -6 0 -11 5
-11 10 0 6 2 10 4 10 3 0 8 -4 11 -10z m-17 -63 c-2 -17 -9 -32 -16 -35 -9 -3
-11 4 -7 25 3 15 2 22 -1 16 -9 -21 -26 -15 -19 7 4 11 2 20 -4 20 -6 0 -8 7
-5 15 5 12 9 12 30 -2 19 -12 24 -23 22 -46z m-1787 36 c-18 -31 -80 -98 -81
-87 0 11 77 104 86 104 3 0 0 -8 -5 -17z m422 -4 c-4 -15 -8 -17 -14 -8 -8 14
-3 29 11 29 4 0 6 -9 3 -21z m785 -31 c-2 -13 -13 -27 -25 -33 -13 -5 -23 -13
-23 -17 0 -5 -7 -8 -15 -8 -22 0 -19 10 17 47 37 39 51 42 46 11z m-1133 -78
c-20 -28 -38 -50 -40 -50 -2 0 1 14 6 30 6 17 15 30 19 30 5 0 17 14 27 30 10
17 19 26 21 20 2 -5 -13 -33 -33 -60z m1035 46 c0 -3 -8 -13 -17 -22 -17 -17
-17 -17 -1 -11 10 3 29 0 43 -7 l26 -14 -28 -5 c-51 -10 -81 22 -45 49 19 15
22 16 22 10z m150 -73 c0 -15 -16 -35 -49 -60 -26 -21 -75 -60 -107 -88 -33
-27 -77 -63 -98 -80 -22 -16 -67 -54 -100 -83 -34 -29 -80 -62 -103 -73 -23
-11 -47 -27 -54 -35 -6 -8 -19 -12 -28 -9 -9 3 -30 -7 -46 -21 -17 -14 -43
-33 -60 -41 -49 -25 -194 -143 -203 -165 -8 -19 111 1 128 21 3 4 37 26 75 50
39 25 102 65 140 90 39 25 81 52 95 59 13 7 27 17 30 21 3 5 39 30 80 56 84
53 184 130 245 187 22 21 43 38 47 38 3 0 14 -20 23 -44 16 -42 16 -46 -1 -70
-11 -14 -23 -26 -27 -26 -5 0 -41 -28 -80 -61 -40 -34 -86 -67 -103 -75 -18
-7 -45 -24 -60 -37 -65 -53 -223 -157 -239 -157 -10 0 -40 -16 -66 -35 -27
-19 -52 -35 -56 -35 -3 0 -14 -6 -22 -14 -9 -8 -40 -24 -70 -36 -48 -19 -56
-19 -69 -6 -14 13 -12 16 14 26 63 25 135 64 150 82 10 10 21 18 26 18 14 0
138 83 138 92 0 13 -28 9 -37 -6 -4 -7 -24 -21 -43 -31 -19 -10 -42 -24 -51
-32 -9 -8 -32 -22 -50 -32 -19 -10 -65 -34 -104 -55 -58 -31 -74 -35 -93 -27
-13 6 -32 11 -43 11 -36 0 -35 31 2 61 28 24 31 30 19 39 -12 8 -9 10 13 10
15 0 27 4 27 10 0 5 17 18 38 29 44 23 176 131 168 138 -2 3 -41 -23 -85 -57
-66 -51 -84 -60 -96 -50 -16 13 -35 6 -35 -14 0 -8 -9 -16 -20 -19 -25 -6 -26
8 -2 25 10 7 22 24 25 38 6 26 44 56 55 45 4 -3 -3 -14 -15 -23 -14 -11 -19
-22 -15 -29 6 -9 26 4 68 42 32 31 70 61 84 68 14 7 24 21 24 30 -2 13 3 16
18 11 11 -3 27 0 36 9 9 8 28 18 42 22 48 15 111 65 82 65 -5 0 -12 -3 -16 -7
-4 -5 -11 -8 -14 -8 -4 0 -20 -9 -35 -19 -15 -10 -30 -16 -34 -12 -10 9 49 51
75 53 30 2 107 42 167 86 24 17 69 47 99 66 31 19 81 58 113 87 57 51 58 52
70 31 7 -12 12 -32 13 -44z m-1250 43 c0 -2 -7 -9 -15 -16 -13 -11 -14 -10 -9
4 5 14 24 23 24 12z m444 -21 c3 -9 0 -15 -9 -15 -8 0 -15 7 -15 15 0 8 4 15
9 15 5 0 11 -7 15 -15z m-97 -8 c4 -7 19 -19 32 -27 32 -21 62 -102 117 -316
4 -15 -8 -33 -48 -72 -29 -29 -64 -55 -78 -58 -14 -3 -33 -9 -42 -15 -28 -15
-63 -11 -88 11 -19 16 -20 22 -10 35 16 19 10 179 -7 196 -10 10 -17 9 -32 -5
-10 -9 -21 -13 -24 -8 -4 4 3 16 14 25 11 10 19 30 19 49 1 38 20 68 44 68 9
0 16 7 16 15 0 8 9 24 19 34 11 11 17 21 15 24 -2 2 2 10 11 17 8 7 15 19 15
26 0 17 16 18 27 1z m703 -22 c-12 -15 -30 -12 -30 6 0 5 10 9 21 9 18 0 19
-2 9 -15z m-110 -2 c-1 -10 -77 -63 -90 -63 -17 0 -12 9 23 40 30 27 68 40 67
23z m60 -28 c0 -9 -7 -18 -15 -21 -8 -4 -15 -10 -15 -16 0 -5 10 -2 22 6 25
18 38 20 38 8 0 -4 -30 -25 -67 -47 -38 -21 -79 -47 -92 -57 -46 -35 -42 -5 6
38 32 28 42 43 31 44 -9 0 -23 -6 -30 -12 -24 -23 -77 -58 -86 -58 -5 0 -15
-6 -21 -14 -9 -11 -9 -15 1 -19 7 -3 2 -6 -12 -7 -30 -1 -80 -42 -80 -65 0 -9
-4 -13 -10 -10 -14 8 -61 -25 -54 -39 3 -6 -2 -2 -10 8 -15 18 -14 21 14 38
29 17 41 48 20 48 -5 0 -10 -4 -10 -9 0 -10 -69 -45 -76 -38 -6 6 21 33 38 40
10 4 10 7 1 18 -11 10 -18 8 -43 -16 -16 -16 -32 -26 -35 -23 -6 6 92 108 105
108 15 0 12 -16 -5 -30 -19 -16 -9 -33 16 -25 11 4 19 2 19 -4 0 -21 19 -11
100 55 47 38 85 62 89 56 4 -6 31 3 71 24 73 37 90 41 90 19z m-490 -40 c0 -8
-9 -19 -20 -25 -23 -12 -28 2 -7 25 16 19 27 19 27 0z m722 -34 c-5 -3 -31
-25 -58 -48 -137 -117 -183 -152 -223 -173 -24 -12 -53 -32 -65 -43 -12 -12
-33 -28 -46 -34 -34 -18 -63 -36 -75 -49 -5 -6 -55 -37 -110 -70 -55 -32 -109
-64 -120 -71 -44 -26 -99 -53 -102 -49 -11 10 176 148 193 142 7 -3 30 8 51
23 21 15 45 30 53 34 8 4 24 13 34 19 11 7 43 28 70 46 63 40 136 98 138 109
1 4 35 33 77 64 42 31 90 70 108 89 17 18 42 38 55 44 20 10 23 9 26 -7 2 -11
-1 -22 -6 -26z m-1309 8 c-4 -15 -8 -17 -14 -8 -8 14 -3 29 11 29 4 0 6 -9 3
-21z m62 11 c-3 -5 -11 -10 -16 -10 -6 0 -7 5 -4 10 3 6 11 10 16 10 6 0 7 -4
4 -10z m100 -160 c3 -5 -1 -10 -9 -10 -9 0 -16 5 -16 10 0 6 4 10 9 10 6 0 13
-4 16 -10z m1221 -32 c-2 -24 -4 -49 -5 -55 -1 -7 -6 -13 -12 -13 -13 0 -48
-41 -49 -56 0 -16 -38 -25 -47 -11 -3 6 -1 13 6 15 13 4 71 64 84 88 13 23
-17 17 -40 -8 -11 -13 -43 -43 -72 -68 -28 -25 -68 -60 -89 -78 -36 -33 -119
-92 -128 -92 -5 0 -133 -88 -156 -108 -10 -8 -18 -11 -18 -7 0 4 -8 2 -17 -7
-29 -23 -169 -88 -191 -88 -47 0 -27 21 59 64 50 25 102 55 116 66 14 11 30
20 35 20 8 0 31 16 150 105 15 11 87 61 160 112 73 51 148 108 167 128 19 19
38 35 42 35 5 0 7 -19 5 -42z m-1176 22 c0 -5 -5 -10 -11 -10 -5 0 -7 5 -4 10
3 6 8 10 11 10 2 0 4 -4 4 -10z m55 -30 c10 -16 -24 -24 -48 -11 l-22 11 23
-6 c12 -3 22 -1 22 5 0 14 17 14 25 1z m380 0 c-3 -5 -13 -10 -21 -10 -8 0
-14 5 -14 10 0 6 9 10 21 10 11 0 17 -4 14 -10z m-420 -50 c-4 -11 -2 -20 4
-20 18 0 12 -29 -8 -42 -17 -11 -17 -12 8 -34 21 -18 24 -25 14 -35 -11 -11
-13 -10 -13 4 0 10 -11 22 -25 27 -28 11 -31 26 -10 54 8 11 12 29 9 43 -5 17
-2 23 11 23 12 0 15 -5 10 -20z m55 2 c0 -10 -7 -19 -15 -19 -8 0 -15 4 -15 9
0 4 5 8 11 8 5 0 7 5 4 10 -3 6 -1 10 4 10 6 0 11 -8 11 -18z m360 8 c0 -5 -2
-10 -4 -10 -3 0 -8 5 -11 10 -3 6 -1 10 4 10 6 0 11 -4 11 -10z m790 -39 c0
-5 -7 -14 -15 -21 -8 -7 -15 -17 -15 -23 0 -7 4 -7 12 1 18 18 30 14 23 -8 -4
-11 -2 -20 4 -20 6 0 11 5 11 10 0 14 13 12 35 -4 18 -13 18 -15 -17 -47 -19
-19 -50 -45 -69 -59 -18 -14 -49 -41 -69 -60 -49 -47 -80 -70 -107 -81 -13 -5
-23 -13 -23 -19 0 -5 -4 -10 -9 -10 -6 0 -31 -14 -57 -32 -108 -73 -254 -123
-254 -88 0 6 7 10 15 10 20 0 94 36 146 71 13 9 58 38 99 65 148 95 262 194
222 194 -5 0 -33 -22 -62 -50 -29 -27 -58 -50 -64 -50 -6 0 -17 -9 -23 -19 -7
-10 -36 -32 -65 -48 -29 -16 -73 -41 -98 -55 -25 -14 -70 -39 -100 -55 -30
-16 -65 -35 -77 -43 -17 -11 -30 -12 -70 -2 -26 7 -57 14 -68 16 -11 2 -22 4
-25 5 -4 1 19 15 132 81 59 34 104 62 128 78 14 9 41 26 59 37 18 11 56 38 84
60 115 92 133 105 145 105 6 0 12 -4 12 -10 0 -5 -5 -10 -11 -10 -13 0 -111
-82 -105 -87 2 -3 14 0 25 7 45 23 16 -19 -30 -45 -24 -13 -151 -93 -203 -127
-22 -15 -61 -38 -86 -50 -36 -17 -41 -22 -24 -25 11 -2 52 13 90 33 64 35 213
129 224 143 14 17 139 121 146 121 4 0 -7 -16 -26 -35 -55 -56 -16 -40 47 20
32 30 62 55 66 55 5 0 6 3 3 8 -7 11 21 72 34 72 5 0 10 -4 10 -9z m-1153 -23
c-3 -8 -6 -5 -6 6 -1 11 2 17 5 13 3 -3 4 -12 1 -19z m358 2 c-3 -5 -13 -10
-21 -10 -8 0 -12 5 -9 10 3 6 13 10 21 10 8 0 12 -4 9 -10z m-457 -129 c-24
-20 -54 -46 -67 -59 -13 -13 -26 -21 -29 -17 -3 3 8 18 24 34 16 16 43 45 59
64 22 25 33 32 43 24 9 -7 2 -18 -30 -46z m1389 20 l23 -33 -26 -32 c-15 -17
-41 -42 -59 -56 -18 -14 -65 -53 -104 -87 -69 -61 -111 -79 -111 -48 0 8 7 15
15 15 8 0 15 4 15 8 0 5 20 23 44 40 70 50 192 176 175 180 -9 1 -38 -19 -65
-45 -162 -158 -211 -194 -291 -213 -26 -6 -33 -5 -33 6 0 8 8 18 18 22 30 12
125 79 166 116 21 20 41 36 43 36 4 0 87 76 122 112 23 24 42 18 68 -21z
m-1133 -37 c-19 -20 -39 -34 -44 -32 -13 4 31 66 50 71 30 7 29 -5 -6 -39z
m-319 16 c3 -5 1 -10 -4 -10 -6 0 -11 5 -11 10 0 6 2 10 4 10 3 0 8 -4 11 -10z
m245 -5 c13 -15 8 -19 -21 -16 -8 1 -37 -22 -64 -51 -31 -33 -50 -48 -53 -39
-5 14 95 121 114 121 6 0 17 -7 24 -15z m-146 -7 c-20 -34 -99 -118 -111 -118
-24 0 -13 18 44 74 54 52 84 72 67 44z m66 7 c0 -12 -100 -108 -106 -102 -10
10 74 107 94 107 6 0 12 -2 12 -5z m-213 -95 c2 -21 -1 -30 -12 -30 -16 0 -20
26 -9 55 9 21 17 12 21 -25z m367 32 c7 -11 -31 -72 -44 -72 -14 0 -12 16 5
50 15 30 29 37 39 22z m-68 -27 c-25 -19 -36 -19 -36 0 0 10 10 15 28 15 26
-1 26 -1 8 -15z m1194 -2 c0 -5 -18 -28 -39 -52 -29 -34 -42 -43 -57 -37 -17
6 -13 13 31 51 49 43 65 53 65 38z m0 -75 c-1 -23 -24 -44 -55 -52 l-30 -7 38
36 c42 38 47 41 47 23z m-126 -42 c-3 -9 -13 -16 -22 -16 -13 0 -12 3 3 20 20
23 29 21 19 -4z m-63 -49 c-16 -16 -26 0 -10 19 9 11 15 12 17 4 2 -6 -1 -17
-7 -23z m79 15 c0 -15 -24 -32 -44 -32 -20 0 -19 2 4 20 27 21 40 25 40 12z"/>
<g>
<path d="M1168 3082 c-37 -27 -47 -42 -28 -42 13 0 76 57 70 63 -3 3 -22 -7
-42 -21z"/>
</g>
<g>
<path d="M1950 2970 c-8 -5 -12 -12 -9 -15 8 -8 39 5 39 16 0 11 -11 11 -30
-1z"/>
</g>
<g>
<path d="M980 2915 c-16 -19 -1 -19 24 0 16 12 17 15 4 15 -8 0 -21 -7 -28
-15z"/>
</g>
<g>
<path d="M1655 2032 c-45 -30 -68 -49 -93 -74 -9 -10 -24 -18 -34 -18 -9 0
-19 -8 -22 -17 -3 -10 -27 -31 -53 -47 -27 -17 -74 -54 -106 -83 -32 -29 -63
-53 -69 -53 -9 0 -76 -48 -107 -78 -24 -23 -6 -23 26 1 62 44 74 52 82 52 5 0
39 27 76 60 37 33 93 76 124 96 31 20 74 53 96 73 22 20 61 50 87 67 27 17 45
35 42 40 -3 5 -6 9 -7 8 -1 0 -20 -13 -42 -27z"/>
</g>
<g>
<path d="M1708 1850 c-7 -11 -18 -20 -25 -20 -7 0 -16 -6 -20 -13 -4 -7 -18
-19 -29 -27 -12 -8 -44 -34 -72 -57 -32 -26 -58 -39 -70 -37 -10 3 -26 -4 -36
-15 -19 -21 -19 -21 13 -21 23 0 55 16 108 53 82 57 173 135 173 148 0 17 -30
9 -42 -11z"/>
</g>
<g>
<path d="M1395 1634 c-17 -13 -35 -24 -41 -24 -14 0 -39 -28 -32 -36 7 -6 72
30 99 55 31 28 8 33 -26 5z"/>
</g>
<g>
<path d="M1803 1595 c-3 -9 -3 -19 1 -22 7 -7 36 16 36 28 0 15 -30 10 -37 -6z"/>
</g>
</g>
<g>
<path d="M1332 4419 c2 -6 8 -10 13 -10 5 0 11 4 13 10 2 6 -4 11 -13 11 -9 0
-15 -5 -13 -11z"/>
</g>
<g>
<path d="M1554 4405 c3 -9 0 -15 -9 -15 -8 0 -15 -9 -15 -20 0 -11 4 -20 10
-20 14 0 60 -106 60 -140 0 -16 5 -32 10 -35 6 -4 10 6 10 24 0 16 5 33 10 36
16 10 12 65 -5 71 -8 4 -15 14 -15 24 0 10 -7 23 -15 30 -13 11 -13 15 -3 22
10 6 9 12 -6 23 -25 19 -40 19 -32 0z"/>
</g>
<g>
<path d="M3757 4393 c-13 -12 -7 -22 20 -35 14 -7 29 -19 31 -26 3 -11 0 -12
-16 -3 -11 6 -37 11 -56 11 -30 0 -37 4 -42 25 -3 14 -12 25 -19 25 -24 0 -28
-20 -9 -41 15 -17 16 -23 5 -41 -16 -26 -9 -33 18 -17 14 9 28 10 47 4 32 -12
48 -41 16 -31 -28 9 -82 -54 -82 -95 0 -38 20 -34 34 7 14 38 51 78 65 70 6
-4 18 2 28 14 22 26 43 26 43 0 0 -11 5 -20 10 -20 17 0 11 49 -11 93 -29 56
-62 80 -82 60z"/>
</g>
<g>
<path d="M1380 4359 c0 -11 5 -17 10 -14 6 3 10 13 10 21 0 8 -4 14 -10 14 -5
0 -10 -9 -10 -21z"/>
</g>
<g>
<path d="M1600 4371 c0 -15 50 -43 68 -38 12 3 8 8 -15 18 -18 7 -33 17 -33
21 0 4 -4 8 -10 8 -5 0 -10 -4 -10 -9z"/>
</g>
<g>
<path d="M1321 4332 c-17 -21 -31 -30 -42 -27 -10 4 -28 -6 -46 -24 -17 -16
-41 -31 -54 -34 -13 -2 -4 -3 21 -2 25 1 39 0 33 -2 -21 -7 -15 -23 8 -23 15
0 19 5 15 15 -5 15 13 20 58 15 20 -2 66 37 66 56 0 8 -6 11 -14 8 -10 -4 -16
3 -18 23 l-3 28 -24 -33z"/>
</g>
<g>
<path d="M1674 4288 c9 -12 16 -30 16 -40 0 -10 5 -18 10 -18 6 0 10 7 10 15
0 25 -23 65 -37 65 -12 0 -11 -4 1 -22z"/>
</g>
<g>
<path d="M3891 4269 c18 -14 46 -22 93 -25 86 -5 185 -51 224 -103 15 -20 31
-39 36 -43 15 -10 13 -195 -2 -210 -10 -10 -14 -8 -20 12 -6 20 -8 16 -12 -25
l-5 -50 -47 2 c-27 1 -48 0 -48 -2 0 -3 8 -20 17 -40 13 -28 22 -35 45 -35 29
0 29 0 24 -54 -4 -49 -2 -55 23 -74 15 -11 48 -26 72 -33 24 -7 56 -23 71 -37
26 -23 26 -26 23 -130 -1 -59 -6 -118 -10 -132 -24 -87 -42 -135 -80 -215 -37
-78 -44 -105 -54 -201 -7 -61 -9 -122 -6 -136 9 -35 -19 -78 -51 -78 -13 0
-30 11 -41 26 -10 14 -27 37 -39 52 -12 15 -29 50 -38 78 -9 29 -26 60 -36 69
-36 33 -11 41 63 19 23 -7 22 15 -2 44 -22 26 -34 28 -51 7 -7 -8 -17 -15 -22
-15 -6 0 -5 7 2 15 21 25 2 30 -22 6 -65 -61 -117 -102 -162 -127 -28 -15 -54
-32 -57 -37 -4 -5 -18 -10 -33 -10 -14 -1 -26 -5 -26 -9 0 -5 -7 -8 -15 -8 -8
0 -15 -4 -15 -9 0 -17 -61 -71 -80 -71 -11 0 -20 -5 -20 -11 0 -8 12 -9 38 -4
40 7 42 9 97 61 20 18 41 34 46 34 5 0 39 14 75 31 65 31 66 31 108 15 23 -9
52 -16 64 -16 15 0 28 -12 43 -41 11 -23 29 -51 40 -62 10 -11 22 -36 25 -55
6 -30 9 -33 18 -19 8 9 17 12 25 8 10 -7 8 -17 -7 -48 -11 -22 -28 -45 -37
-53 -15 -12 -16 -8 -12 43 2 31 0 57 -5 57 -15 0 -48 -83 -48 -123 0 -47 -59
-129 -150 -209 -49 -42 -60 -58 -60 -83 0 -52 12 -61 62 -46 24 7 53 22 66 34
12 11 22 17 22 13 0 -4 10 -2 21 5 16 8 18 13 9 19 -11 7 -11 14 0 42 7 18 22
58 33 88 23 59 132 230 146 230 16 0 71 -51 71 -66 0 -8 -11 -19 -24 -26 -14
-6 -27 -17 -30 -25 -4 -10 7 -7 35 9 40 22 41 22 55 3 20 -27 18 -32 -24 -57
-21 -13 -47 -29 -57 -35 -11 -7 -35 -19 -52 -27 -18 -8 -33 -20 -33 -26 0 -7
19 -1 44 14 49 29 56 31 56 16 0 -5 -24 -24 -54 -42 -96 -59 -136 -88 -136
-98 0 -6 12 -3 28 7 25 16 26 16 13 0 -7 -9 -33 -27 -57 -39 -24 -12 -42 -23
-40 -25 8 -8 83 29 159 79 43 28 80 48 84 44 3 -3 1 -6 -5 -6 -7 0 -22 -12
-35 -26 -12 -14 -35 -31 -52 -38 -16 -7 -51 -29 -76 -48 -26 -20 -57 -39 -70
-43 -13 -4 -37 -17 -54 -29 -16 -11 -32 -22 -34 -23 -2 -2 -2 -5 0 -8 9 -8
191 88 243 127 27 21 53 35 58 32 5 -3 8 -7 6 -9 -15 -12 -136 -93 -148 -98
-8 -4 -27 -15 -42 -25 -49 -31 -169 -107 -186 -117 -43 -24 -76 -54 -62 -55 9
0 20 4 25 8 6 5 26 15 45 22 19 8 52 24 72 37 21 13 47 23 58 23 20 0 20 -1 3
-24 -10 -14 -27 -29 -39 -34 -11 -6 -50 -35 -87 -66 -37 -32 -85 -67 -108 -80
-25 -15 -37 -26 -29 -31 6 -4 19 0 28 7 9 8 40 25 67 38 28 13 62 32 77 42 29
20 38 22 38 8 0 -12 -75 -62 -130 -85 -78 -33 -215 -120 -365 -231 -33 -24
-77 -53 -97 -64 -36 -19 -57 -40 -41 -40 30 0 194 80 348 170 94 55 162 92
203 112 26 12 50 24 54 26 4 2 2 -11 -5 -27 -6 -17 -16 -31 -21 -31 -5 0 -33
-18 -62 -40 -29 -22 -57 -40 -61 -40 -5 0 -47 -30 -95 -67 -48 -38 -134 -102
-192 -143 -71 -50 -105 -80 -102 -90 3 -9 -19 -34 -60 -67 -78 -62 -71 -78 9
-22 32 21 59 39 62 39 2 0 39 23 81 50 42 28 80 48 83 44 3 -3 -5 -15 -19 -26
-91 -72 -290 -259 -290 -271 0 -6 8 -3 18 5 21 19 113 68 127 68 5 0 -1 -7
-13 -16 -13 -9 -21 -21 -19 -27 3 -10 -68 -75 -112 -102 -49 -31 -71 -48 -71
-57 0 -6 7 -8 15 -4 20 7 19 -4 -2 -20 -16 -12 -16 -13 -2 -14 9 0 33 7 52 15
42 17 77 20 77 5 0 -6 -8 -13 -17 -17 -10 -3 -37 -22 -59 -42 -23 -20 -53 -44
-65 -54 l-24 -18 25 7 c14 4 39 17 55 30 17 12 44 26 60 30 l30 7 -20 -23
c-11 -13 -47 -49 -79 -81 -67 -66 -70 -93 -4 -33 63 58 113 94 129 94 8 0 0
-14 -19 -31 -45 -40 -36 -47 14 -9 21 16 42 30 46 30 4 0 25 17 46 38 21 20
56 45 78 56 21 10 48 22 59 28 26 12 -78 -85 -132 -125 -57 -41 -55 -55 3 -23
25 14 50 23 55 20 5 -2 46 31 91 74 74 70 128 112 128 98 0 -10 -124 -126
-135 -126 -12 0 -45 -32 -45 -43 0 -15 24 -5 62 24 21 17 41 29 44 26 7 -7 39
24 47 47 5 12 13 15 26 11 16 -5 29 7 66 64 42 64 70 89 83 76 3 -3 1 -5 -5
-5 -6 0 -13 -9 -16 -21 -4 -15 1 -22 17 -29 19 -7 24 -18 30 -69 5 -39 15 -70
29 -88 31 -40 44 -62 69 -113 24 -52 58 -98 58 -80 0 21 -56 134 -83 166 -13
16 -30 46 -38 66 -11 33 -11 44 3 85 35 101 50 138 63 153 49 53 85 101 106
140 13 25 36 61 51 81 16 20 28 49 28 63 0 30 14 56 82 143 26 35 48 65 48 68
0 4 7 13 15 21 8 9 15 25 15 36 0 11 10 33 21 50 12 17 18 33 13 37 -12 8 -16
343 -5 391 5 21 5 44 0 52 -12 22 24 84 46 80 16 -3 15 -1 -3 23 -11 14 -24
45 -28 68 -10 54 -8 46 -27 90 -9 21 -41 63 -72 93 l-56 56 21 33 c16 25 20
49 20 112 0 82 17 166 44 218 9 17 16 37 16 46 0 17 25 99 45 144 7 17 16 41
20 55 4 14 16 39 26 56 10 17 22 55 27 85 l8 54 16 -30 c9 -16 26 -41 39 -54
13 -14 27 -50 36 -89 19 -93 37 -107 29 -22 -9 77 -23 106 -99 195 -19 22 -37
54 -40 70 -3 17 -8 40 -12 53 -7 20 -4 22 25 22 18 0 58 -13 89 -29 31 -16 72
-36 92 -44 28 -12 43 -29 64 -69 14 -29 37 -71 50 -93 27 -44 75 -179 75 -210
0 -11 14 -63 31 -115 17 -52 37 -117 45 -143 8 -26 31 -74 50 -105 18 -31 34
-64 34 -73 0 -10 11 -37 25 -60 23 -41 35 -119 18 -119 -5 0 -16 -14 -25 -30
-13 -22 -24 -30 -46 -30 -16 0 -36 -8 -45 -18 -22 -24 -9 -37 15 -15 27 24 66
27 97 6 14 -10 42 -26 61 -36 19 -11 46 -30 60 -43 14 -13 40 -28 57 -34 21
-8 50 -36 84 -81 29 -38 69 -80 88 -94 20 -13 49 -47 64 -75 29 -51 26 -66 -6
-30 -18 22 -47 29 -29 8 34 -43 70 -129 75 -183 3 -33 3 -54 1 -47 -8 17 -24
5 -18 -13 8 -19 -17 -185 -27 -185 -4 0 -13 -17 -19 -37 -33 -104 -147 -303
-173 -303 -20 0 -128 -57 -152 -80 -12 -11 -26 -20 -32 -20 -5 0 -23 -6 -39
-14 -16 -8 -40 -17 -53 -21 -33 -10 -23 16 15 35 16 8 31 18 34 22 3 3 18 10
33 13 26 7 77 57 77 75 0 5 11 34 25 64 14 30 25 66 25 81 0 14 7 42 15 62 24
58 36 163 24 209 -18 63 -51 134 -60 128 -5 -3 -9 -28 -9 -57 0 -31 -10 -78
-25 -118 -26 -66 -52 -95 -120 -130 -16 -8 -29 -20 -28 -26 3 -15 -57 -43
-136 -63 -35 -9 -59 -20 -53 -24 15 -9 153 29 211 58 49 25 124 91 133 116 12
34 16 1 5 -37 -21 -70 -172 -213 -226 -213 -11 0 -22 -4 -26 -9 -3 -5 -18 -12
-34 -16 -36 -8 -69 -40 -49 -48 21 -8 130 2 161 14 35 15 44 6 24 -24 -26 -40
-76 -57 -166 -57 -67 0 -90 -4 -131 -25 -42 -21 -77 -58 -73 -75 1 -3 -23 -23
-52 -45 -30 -22 -54 -43 -55 -48 0 -13 53 19 100 61 40 35 101 73 115 72 3 0
17 3 31 6 14 4 30 2 37 -5 6 -6 19 -11 30 -11 30 0 14 -23 -23 -33 -31 -8 -70
-40 -70 -57 0 -4 -11 -13 -25 -20 -13 -7 -27 -21 -30 -30 -13 -40 -159 -169
-170 -150 -9 15 -43 12 -113 -10 -35 -11 -86 -20 -112 -20 -53 0 -74 -14 -36
-24 24 -6 113 1 128 10 4 3 8 1 8 -5 0 -5 -19 -12 -42 -16 -24 -4 -55 -14 -70
-21 -15 -8 -43 -14 -63 -14 -19 0 -35 -4 -35 -9 0 -14 44 -18 106 -10 95 13
85 -8 -19 -37 -32 -9 -60 -21 -63 -25 -3 -5 -31 -9 -62 -9 -31 0 -67 -3 -79
-6 -24 -7 -32 -34 -10 -35 75 -4 93 -12 100 -46 8 -42 42 -81 57 -67 9 9 5 22
-14 53 -14 22 -26 46 -26 53 1 14 46 37 134 68 32 11 65 25 72 31 7 6 17 8 22
5 16 -10 42 -72 42 -100 0 -17 5 -26 15 -26 13 0 15 7 9 37 -4 21 -11 43 -16
50 -5 6 -13 25 -18 41 -9 33 1 47 50 72 l25 13 -24 -27 c-19 -21 -21 -26 -8
-26 9 0 19 4 22 10 3 5 11 10 17 10 7 0 6 -5 -1 -14 -25 -31 7 -22 59 15 30
21 78 50 105 63 45 22 47 22 20 3 -64 -47 -138 -124 -130 -136 5 -9 11 -6 22
9 9 12 52 49 97 81 44 32 86 62 92 67 16 14 55 34 59 30 10 -10 -90 -88 -112
-88 -13 0 -65 -51 -59 -57 3 -3 21 6 40 21 19 14 39 26 44 26 15 0 126 81 149
109 l21 26 34 -30 c18 -16 35 -32 38 -35 19 -19 131 -79 158 -85 18 -3 37 -15
42 -25 6 -10 19 -22 31 -25 11 -4 41 -27 67 -51 26 -24 53 -44 60 -44 23 0 12
32 -20 58 -59 49 -108 102 -108 117 0 29 26 70 77 122 35 35 56 66 64 95 14
51 14 171 -1 198 -13 23 -14 68 -1 54 15 -15 81 -231 81 -264 0 -22 -4 -28
-15 -24 -27 11 -16 -15 25 -57 22 -23 38 -45 35 -49 -2 -4 5 -31 16 -60 11
-30 18 -62 16 -72 -6 -22 21 -25 30 -3 8 23 -33 141 -63 181 -24 31 -25 39
-19 93 6 49 3 73 -16 128 -12 37 -31 83 -41 101 -10 18 -18 39 -18 47 0 19
-12 25 -36 19 -18 -5 -20 -12 -16 -90 3 -60 -1 -99 -12 -134 -9 -27 -16 -54
-16 -60 0 -6 -29 -45 -65 -87 -36 -42 -65 -82 -65 -89 0 -7 -4 -24 -10 -38 -9
-24 -11 -25 -37 -13 -15 6 -57 31 -92 54 -35 24 -67 43 -71 43 -18 0 -70 85
-70 115 0 45 40 98 76 101 77 6 165 39 208 77 11 9 23 17 27 17 4 0 10 9 14
19 3 10 21 29 40 42 19 13 39 33 45 44 6 12 29 28 51 38 21 9 39 23 39 30 0 7
13 41 30 75 16 34 35 82 41 107 16 62 33 44 30 -32 -2 -63 -23 -106 -58 -122
-12 -6 -23 -15 -23 -21 0 -17 31 3 68 44 29 32 52 46 52 31 0 -7 -73 -75 -81
-75 -4 0 -14 -11 -23 -25 -26 -39 3 -32 54 13 24 20 53 44 65 52 12 8 42 28
66 45 24 16 51 34 60 40 66 41 79 51 79 66 0 10 19 30 43 46 89 60 126 88 127
95 0 9 -67 -27 -91 -48 -8 -8 -20 -14 -25 -14 -9 0 -100 -60 -149 -98 -15 -12
-30 -20 -33 -18 -6 7 54 71 115 121 30 24 47 45 40 48 -7 2 -2 9 13 17 44 23
144 109 168 144 36 52 111 107 246 178 34 17 62 45 54 53 -5 6 -179 -97 -267
-158 -50 -35 -71 -44 -71 -32 0 15 72 82 130 121 93 63 103 71 95 84 -4 6 -21
-2 -46 -24 -22 -18 -74 -51 -116 -72 -42 -22 -95 -54 -117 -71 -49 -39 -81
-45 -48 -10 37 39 22 50 -32 22 -36 -19 -42 -19 -26 -1 6 8 32 25 56 37 61 29
106 68 100 86 -3 8 -1 24 5 35 10 19 9 20 -15 14 -14 -3 -47 -19 -74 -35 -27
-16 -58 -32 -70 -35 -11 -4 -23 -13 -26 -21 -3 -8 -14 -15 -24 -15 -10 0 -23
-5 -29 -11 -6 -6 -17 -9 -24 -7 -7 2 15 24 49 48 34 23 62 46 62 49 0 3 30 24
66 46 36 22 86 52 110 67 28 18 44 35 44 48 0 12 15 30 40 46 37 25 51 44 32
44 -5 0 -48 -21 -98 -47 -129 -67 -222 -113 -229 -113 -10 0 50 48 77 63 82
44 171 103 175 116 14 47 33 65 97 97 39 20 80 47 93 60 13 14 38 31 56 39 58
24 79 67 23 45 -35 -13 -69 -13 -61 0 7 12 143 76 179 86 13 3 32 14 41 24 9
10 24 16 34 13 10 -2 35 7 56 21 21 14 46 26 57 26 10 0 21 7 25 16 8 21 -12
40 -29 28 -7 -6 -38 -18 -68 -28 -30 -10 -72 -25 -93 -33 -29 -13 -40 -14 -49
-5 -7 7 -22 12 -35 12 -34 0 -28 19 10 35 19 8 45 25 58 39 13 14 54 37 91 52
38 14 70 30 74 35 3 5 16 9 29 9 21 0 35 17 35 41 0 14 -43 11 -65 -5 -11 -7
-47 -23 -80 -35 -33 -12 -86 -38 -118 -57 -32 -18 -69 -37 -82 -40 -13 -3 -29
-12 -36 -20 -6 -8 -19 -14 -28 -14 -9 0 -29 -8 -46 -18 -16 -10 -61 -30 -100
-46 -38 -15 -89 -36 -112 -47 -36 -15 -43 -16 -43 -4 0 13 104 81 197 128 19
10 32 21 29 24 -6 6 -58 -13 -140 -54 -27 -13 -51 -22 -53 -19 -5 4 100 66
112 66 5 0 32 18 61 40 30 22 66 45 81 51 22 8 24 12 13 19 -10 6 -20 4 -31
-6 -8 -7 -19 -14 -24 -14 -4 0 -23 -11 -41 -25 -18 -14 -45 -29 -59 -35 -15
-6 -47 -24 -71 -41 -25 -17 -49 -29 -55 -27 -5 2 26 27 71 57 45 29 79 56 75
59 -3 3 -36 -15 -73 -41 -37 -25 -94 -58 -127 -72 -33 -14 -68 -30 -77 -36
-35 -18 -31 -8 12 36 24 25 53 45 65 45 11 0 79 38 150 85 72 47 138 88 148
91 21 7 23 34 2 34 -8 0 -15 -5 -15 -10 0 -6 -26 -27 -57 -46 -32 -20 -68 -46
-81 -58 -18 -16 -25 -18 -31 -7 -10 16 -41 8 -94 -26 -21 -13 -44 -22 -50 -20
-7 2 6 15 28 28 22 13 81 51 130 84 50 34 98 64 108 68 20 7 23 27 5 27 -19
-1 -84 -32 -152 -74 -33 -20 -64 -36 -69 -36 -17 0 5 19 56 48 28 16 64 40 79
53 15 13 38 32 52 42 31 21 34 47 6 47 -11 0 -20 -7 -20 -15 0 -8 -4 -15 -10
-15 -5 0 -48 -23 -94 -51 -63 -37 -91 -49 -107 -44 -13 5 -25 2 -29 -6 -5 -7
-18 -14 -30 -16 -21 -3 -81 -31 -90 -42 -3 -3 -23 -14 -45 -24 l-40 -17 30 25
c17 14 77 51 135 82 132 71 210 121 210 134 0 5 -6 12 -14 15 -12 5 -27 -2
-116 -54 -19 -11 -46 -23 -60 -27 -14 -4 -32 -13 -40 -20 -8 -7 -26 -16 -40
-20 l-25 -7 23 17 c12 9 22 23 22 31 0 22 -36 8 -86 -32 -23 -19 -47 -34 -54
-34 -7 0 -38 -14 -68 -31 -29 -16 -58 -29 -64 -27 -5 2 26 23 69 47 43 24 99
57 124 73 25 15 51 28 57 28 7 0 12 5 12 11 0 14 -48 3 -70 -15 -20 -17 -159
-99 -185 -109 -20 -7 -20 -7 -1 8 37 28 8 26 -44 -3 -28 -16 -47 -33 -41 -36
6 -4 20 -2 32 4 38 21 28 5 -11 -18 -30 -17 -38 -18 -34 -7 4 8 1 15 -4 15
-13 0 -121 -58 -143 -76 -8 -8 -21 -14 -28 -14 -6 0 -25 -7 -41 -15 -18 -9
-30 -11 -30 -5 0 6 7 13 15 16 8 4 15 10 15 15 0 4 -17 -1 -37 -12 l-38 -21
35 31 c19 17 38 31 44 31 13 0 78 51 72 57 -3 3 -17 -4 -32 -16 -15 -11 -31
-21 -36 -21 -12 0 -111 -65 -165 -108 -27 -21 -43 -29 -43 -21 0 8 36 41 81
74 95 71 112 86 105 93 -3 3 -20 -7 -38 -22 -18 -14 -62 -47 -96 -73 -51 -37
-66 -43 -73 -32 -15 24 -10 45 16 59 14 7 25 17 25 22 0 13 -12 10 -31 -8 -17
-16 -19 -15 -30 12 -29 75 -41 113 -50 159 -18 94 -77 230 -120 278 -9 10 -19
31 -22 46 -7 34 -53 91 -73 91 -8 0 -34 9 -56 20 -23 11 -47 20 -54 20 -6 0
-17 6 -23 14 -8 9 -26 12 -61 8 -34 -3 -61 1 -85 12 -20 10 -53 20 -73 23 -49
8 -62 23 -62 73 0 39 2 42 45 61 57 25 62 35 34 65 -15 16 -22 35 -21 57 5
178 5 180 -27 243 -28 58 -34 63 -90 84 -33 12 -66 29 -73 37 -8 10 -22 13
-44 8 -19 -3 -50 1 -76 10 -23 8 -56 15 -73 14 l-30 0 26 -20z m532 -881 c-3
-21 -9 -38 -14 -38 -11 0 -11 16 -3 59 9 44 23 25 17 -21z m902 -434 c-24 -19
-103 -60 -92 -48 5 5 27 21 50 36 45 29 75 37 42 12z m-1317 -95 c7 -12 11
-23 8 -26 -7 -7 -66 17 -66 27 0 27 41 26 58 -1z m1042 17 c0 -6 -76 -56 -86
-56 -5 0 11 14 36 30 46 31 50 33 50 26z m-55 -76 c-3 -5 -11 -10 -16 -10 -6
0 -7 5 -4 10 3 6 11 10 16 10 6 0 7 -4 4 -10z m806 -84 c-6 -8 -20 -16 -31
-19 -16 -4 -17 -2 -7 14 6 10 20 19 31 19 15 0 16 -3 7 -14z m-715 -157 c3 -6
0 -15 -7 -20 -22 -14 -29 -11 -29 11 0 21 24 27 36 9z m-999 -31 c-3 -8 -6 -5
-6 6 -1 11 2 17 5 13 3 -3 4 -12 1 -19z m1055 -54 c64 -106 82 -144 67 -144
-19 0 -49 20 -49 33 0 7 -12 25 -26 40 -29 32 -47 113 -23 105 7 -2 21 -18 31
-34z m-792 -45 c0 -12 -67 -42 -83 -36 -7 2 6 13 28 25 46 24 55 26 55 11z
m-320 -72 c0 -6 -45 -91 -65 -124 -16 -26 -27 -33 -51 -33 -33 0 -48 18 -38
45 4 8 12 15 18 15 7 0 33 23 58 50 25 28 53 50 62 50 9 0 16 -1 16 -3z m120
-81 c0 -2 -7 -7 -16 -10 -8 -3 -12 -2 -9 4 6 10 25 14 25 6z m163 -460 c-14
-39 -29 -75 -33 -81 -12 -16 -29 -83 -22 -90 3 -3 17 13 29 37 22 40 23 41 19
13 -2 -19 -22 -50 -54 -83 -27 -30 -58 -71 -67 -93 -19 -40 -41 -54 -32 -19 3
11 1 22 -4 25 -18 12 -7 96 16 123 12 15 30 43 40 62 10 18 23 40 31 47 7 7
18 39 24 70 7 32 24 83 38 113 l26 55 7 -54 c6 -45 3 -67 -18 -125z m-143 4
c0 -5 -2 -10 -4 -10 -3 0 -8 5 -11 10 -3 6 -1 10 4 10 6 0 11 -4 11 -10z
m1510 -168 c-25 -20 -66 -58 -92 -84 -47 -48 -68 -59 -68 -35 1 14 89 88 153
129 58 37 60 34 7 -10z m-186 -47 c3 -8 1 -15 -4 -15 -6 0 -10 7 -10 15 0 8 2
15 4 15 2 0 6 -7 10 -15z m-1810 -197 c-3 -5 -15 0 -25 11 -26 28 -24 35 6 15
14 -9 22 -21 19 -26z m1436 22 c0 -5 -4 -10 -10 -10 -5 0 -10 5 -10 10 0 6 5
10 10 10 6 0 10 -4 10 -10z m-1540 -30 c0 -5 -5 -10 -11 -10 -5 0 -7 5 -4 10
3 6 8 10 11 10 2 0 4 -4 4 -10z m-90 -18 c0 -13 -12 -22 -22 -16 -10 6 -1 24
13 24 5 0 9 -4 9 -8z m90 -26 c0 -3 -4 -8 -10 -11 -5 -3 -10 -1 -10 4 0 6 5
11 10 11 6 0 10 -2 10 -4z m62 -38 c-15 -15 -26 -4 -18 18 5 13 9 15 18 6 9
-9 9 -15 0 -24z m-2 -132 c0 -3 -4 -8 -10 -11 -5 -3 -10 -1 -10 4 0 6 5 11 10
11 6 0 10 -2 10 -4z m50 -77 c0 -17 -4 -28 -10 -24 -5 3 -10 17 -10 31 0 13 5
24 10 24 6 0 10 -14 10 -31z m100 15 c0 -8 -5 -12 -10 -9 -6 4 -8 11 -5 16 9
14 15 11 15 -7z m1110 6 c0 -13 -28 -25 -38 -16 -3 4 0 11 8 16 20 13 30 12
30 0z m-1119 -73 c-13 -13 -15 1 -4 30 7 17 8 17 11 -1 2 -10 -1 -23 -7 -29z
m1069 -32 c0 -8 -4 -15 -10 -15 -5 0 -10 7 -10 15 0 8 5 15 10 15 6 0 10 -7
10 -15z m20 -89 c0 -3 -4 -8 -10 -11 -5 -3 -10 -1 -10 4 0 6 5 11 10 11 6 0
10 -2 10 -4z m-1520 -36 c0 -5 -7 -10 -16 -10 -8 0 -12 5 -9 10 3 6 10 10 16
10 5 0 9 -4 9 -10z m1065 -90 c3 -5 -1 -10 -9 -10 -9 0 -16 5 -16 10 0 6 4 10
9 10 6 0 13 -4 16 -10z"/>
</g>
<g>
<path d="M1644 4225 c-20 -30 -10 -47 11 -19 14 18 20 44 10 44 -2 0 -12 -11
-21 -25z"/>
</g>
<g>
<path d="M1242 4168 c-7 -7 -18 -13 -25 -13 -7 0 -12 -7 -12 -15 0 -21 39 -24
68 -6 22 15 25 15 42 -4 10 -11 25 -20 34 -20 21 0 -58 69 -79 70 -9 0 -22 -6
-28 -12z"/>
</g>
<g>
<path d="M1508 4162 c-16 -9 -28 -25 -28 -37 1 -19 1 -19 14 -2 14 19 51 23
61 7 9 -15 22 -12 29 7 13 33 -37 50 -76 25z"/>
</g>
<g>
<path d="M3616 4105 c-29 -29 -30 -33 -16 -55 5 -9 5 -19 -1 -27 -6 -7 -7 -18
-2 -25 4 -7 8 -31 8 -53 0 -37 2 -39 33 -41 34 -2 43 10 16 20 -9 3 -14 15
-12 28 3 20 8 22 37 20 24 -3 32 0 29 10 -3 8 -20 13 -46 12 -37 -1 -40 1 -31
18 7 14 16 17 37 11 24 -6 26 -5 13 10 -7 10 -21 17 -31 17 -27 0 -33 28 -7
36 15 5 24 1 32 -11 17 -31 73 -90 79 -84 3 3 -10 23 -29 44 -25 29 -33 45
-29 62 5 16 2 23 -9 23 -8 0 -22 3 -30 6 -8 3 -26 -6 -41 -21z"/>
</g>
<g>
<path d="M1636 4002 c4 -80 3 -121 -6 -142 -12 -30 -30 -41 -30 -19 0 6 -17
34 -37 63 -33 44 -38 48 -41 28 -2 -14 5 -30 20 -43 16 -14 19 -22 11 -25 -20
-9 -15 -28 12 -54 30 -28 32 -51 5 -68 -26 -16 -26 -32 0 -25 11 3 23 17 26
32 4 14 18 43 31 63 32 47 44 140 26 194 -7 21 -11 46 -7 56 3 9 0 26 -6 35
-8 13 -9 -11 -4 -95z"/>
</g>
<g>
<path d="M1272 4079 c-22 -8 -31 -39 -12 -39 6 0 10 5 10 10 0 6 5 10 10 10 6
0 10 -6 10 -14 0 -7 6 -19 14 -25 11 -9 17 -8 28 7 7 10 22 22 32 25 10 4 16
10 13 14 -12 11 -84 20 -105 12z"/>
</g>
<g>
<path d="M1490 4065 c-13 -15 -8 -19 23 -16 11 2 17 -5 17 -18 0 -28 36 -28
51 0 12 24 0 39 -33 39 -9 0 -23 2 -31 5 -7 3 -20 -1 -27 -10z"/>
</g>
<g>
<path d="M990 4030 c0 -43 12 -71 28 -68 11 2 17 15 17 40 1 29 -1 35 -11 27
-9 -7 -15 -5 -23 8 -9 16 -10 15 -11 -7z"/>
</g>
<g>
<path d="M1196 4012 c-3 -9 -9 -23 -12 -30 -5 -11 -3 -11 15 0 22 13 27 33 12
42 -5 3 -11 -2 -15 -12z"/>
</g>
<g>
<path d="M1305 3990 c-3 -6 5 -10 19 -10 14 0 28 5 31 10 3 6 -5 10 -19 10
-14 0 -28 -4 -31 -10z"/>
</g>
<g>
<path d="M1520 3979 c0 -5 5 -7 10 -4 6 3 10 8 10 11 0 2 -4 4 -10 4 -5 0 -10
-5 -10 -11z"/>
</g>
<g>
<path d="M3550 3971 c-8 -5 -35 -11 -60 -15 -45 -7 -80 -29 -80 -51 0 -7 8
-23 19 -36 18 -22 18 -23 -9 -46 -32 -26 -47 -70 -30 -87 8 -8 15 -6 26 9 13
17 17 18 35 7 27 -17 40 -5 15 13 -10 8 -16 21 -13 29 3 8 1 16 -6 19 -7 2 -3
8 9 15 16 8 27 7 49 -4 15 -8 30 -12 32 -10 10 10 -24 46 -49 52 -28 6 -56 40
-43 52 3 4 34 14 67 22 34 9 63 21 66 28 4 14 -6 15 -28 3z"/>
</g>
<g>
<path d="M3776 3935 c-19 -14 -19 -15 7 -15 17 0 27 5 27 15 0 19 -9 19 -34 0z"/>
</g>
<g>
<path d="M3939 3944 c0 -5 -2 -24 -3 -41 -3 -29 -1 -33 21 -33 44 0 65 -42 35
-72 -17 -17 -15 -38 5 -38 22 0 5 -17 -22 -22 -12 -2 -19 2 -17 10 1 6 -5 12
-13 12 -19 0 -19 -11 -1 -35 13 -18 15 -18 64 6 37 18 54 33 66 60 28 62 15
119 -26 119 -12 0 -29 6 -37 14 -19 18 -71 31 -72 20z m121 -85 c0 -15 -4 -19
-16 -15 -9 3 -20 6 -25 6 -5 0 -9 7 -9 15 0 9 9 15 25 15 19 0 25 -5 25 -21z
m-10 -79 c-6 -11 -15 -20 -20 -20 -6 0 -5 9 2 20 7 11 16 20 21 20 4 0 3 -9
-3 -20z"/>
</g>
<g>
<path d="M4076 3941 c-15 -6 -16 -10 -7 -15 8 -5 20 -2 29 8 17 17 9 19 -22 7z"/>
</g>
<g>
<path d="M1344 3913 c-32 -34 -58 -89 -51 -106 8 -22 193 -51 249 -40 30 6 28
23 -2 23 -32 0 -69 21 -63 36 3 9 -2 14 -12 14 -10 0 -15 -5 -12 -13 4 -10
-10 -17 -50 -24 l-54 -10 6 25 c3 13 1 30 -6 38 -17 20 -3 47 21 41 16 -4 20
0 20 19 0 31 -15 30 -46 -3z"/>
</g>
<g>
<path d="M3826 3901 c-3 -5 7 -11 22 -14 32 -6 42 0 22 13 -19 12 -37 13 -44
1z"/>
</g>
<g>
<path d="M3555 3883 c4 -10 10 -29 13 -43 5 -25 12 -34 62 -85 29 -29 33 -30
49 -11 10 12 8 17 -9 26 -11 6 -24 8 -29 5 -11 -6 -47 49 -56 87 -4 15 -14 29
-22 32 -11 5 -13 2 -8 -11z"/>
</g>
<g>
<path d="M1452 3874 c9 -9 21 -13 27 -10 20 13 11 26 -16 26 -25 0 -26 -1 -11
-16z"/>
</g>
<g>
<path d="M3725 3779 c-4 -6 -5 -12 -3 -15 8 -7 68 8 68 17 0 13 -58 11 -65 -2z"/>
</g>
<g>
<path d="M3497 3754 c-8 -8 3 -34 14 -34 5 0 9 9 9 20 0 19 -11 26 -23 14z"/>
</g>
<g>
<path d="M3580 3750 c0 -7 -8 -9 -20 -5 -11 3 -20 3 -20 -2 0 -4 -3 -19 -7
-32 -4 -15 -2 -22 4 -18 6 4 37 0 69 -9 57 -15 59 -15 76 8 27 35 22 42 -13
18 -16 -12 -31 -21 -32 -19 -33 62 -57 87 -57 59z"/>
</g>
<g>
<path d="M1360 3740 c-19 -4 -33 -8 -30 -9 14 -6 180 -6 180 0 0 18 -84 23
-150 9z"/>
</g>
<g>
<path d="M3910 3711 c0 -12 5 -21 10 -21 6 0 10 6 10 14 0 8 -4 18 -10 21 -5
3 -10 -3 -10 -14z"/>
</g>
<g>
<path d="M1496 3675 c-15 -14 -38 -28 -52 -31 -32 -8 -102 3 -138 21 -16 9
-32 12 -35 9 -3 -4 -1 -9 6 -11 7 -2 11 -16 9 -31 -2 -15 -1 -19 1 -10 4 15 8
16 25 7 12 -6 38 -8 64 -4 l43 6 -2 -66 c-3 -56 -6 -68 -27 -82 -14 -10 -33
-16 -42 -15 -34 6 -18 -16 16 -22 49 -9 279 -86 291 -97 5 -5 18 -9 30 -9 18
0 17 2 -7 18 -22 14 -25 21 -16 30 18 18 40 15 81 -13 48 -33 48 -48 1 -39
-27 5 -35 4 -30 -5 4 -6 14 -11 23 -11 23 0 121 -29 168 -50 46 -21 220 -75
284 -89 24 -5 47 -14 50 -19 12 -18 274 -106 268 -89 -3 9 -59 32 -254 106
-45 17 -124 50 -175 74 -51 24 -129 58 -173 77 -44 18 -94 39 -112 46 -17 8
-36 14 -42 14 -6 0 -11 4 -11 9 0 5 -15 13 -32 16 -18 4 -47 16 -64 26 -17 10
-41 19 -53 19 -13 0 -30 14 -47 40 -18 26 -34 40 -48 39 -21 0 -21 0 2 -16 12
-8 22 -24 22 -33 0 -10 6 -20 13 -23 9 -3 7 -10 -7 -25 -18 -21 -43 -21 -30 0
4 6 -3 5 -15 -2 -29 -15 -58 4 -40 27 7 8 18 12 26 9 23 -9 15 33 -12 58 -20
19 -23 29 -18 59 3 22 11 37 19 37 17 0 81 56 73 64 -3 4 -18 -5 -33 -19z
m135 -245 c10 -6 19 -17 19 -25 0 -17 -43 -32 -48 -16 -2 6 -13 11 -25 11 -22
1 -22 1 -3 15 15 11 16 15 5 15 -8 0 -20 -5 -27 -12 -13 -13 -27 -5 -17 11 8
14 70 14 96 1z"/>
</g>
<g>
<path d="M3865 3680 c-7 -12 2 -30 16 -30 5 0 9 9 9 20 0 21 -15 27 -25 10z"/>
</g>
<g>
<path d="M3944 3676 c-3 -9 -3 -27 0 -41 4 -17 2 -24 -6 -23 -6 2 -14 -6 -16
-17 -4 -18 -29 -44 -43 -45 -7 0 -15 19 -29 70 -8 25 -8 25 -9 -4 -1 -33 -45
-96 -67 -96 -11 0 -9 7 8 31 21 28 22 32 6 43 -9 7 -20 24 -23 39 -9 33 -25
36 -25 4 0 -60 -62 -64 -113 -6 -29 32 -40 38 -54 31 -11 -7 -25 -6 -40 1 -30
14 -44 0 -18 -19 12 -9 31 -13 48 -10 23 5 35 -1 61 -29 19 -19 43 -35 55 -35
32 0 28 -38 -6 -51 -14 -5 -33 -9 -42 -8 -9 1 -23 1 -31 0 -13 -1 -13 -2 0
-11 13 -9 13 -11 0 -19 -45 -30 39 -14 110 20 37 18 52 17 32 -3 -26 -26 -10
-28 19 -4 24 20 34 24 45 16 8 -8 19 -8 30 -2 27 15 52 3 59 -28 5 -21 14 -30
35 -35 30 -7 43 -18 53 -47 4 -13 -17 -33 -89 -84 -66 -47 -101 -79 -112 -103
-9 -20 -27 -41 -40 -47 -12 -6 -33 -21 -46 -33 -26 -24 -46 -27 -46 -7 0 8
-10 18 -21 21 -46 15 -200 150 -225 198 -23 44 -48 35 -64 -24 -13 -48 -15
-49 -29 -30 -9 11 -33 22 -56 25 l-40 6 40 -19 c52 -24 88 -63 79 -85 -10 -27
-39 -15 -36 15 2 24 -4 28 -60 47 -42 13 -62 25 -60 35 1 7 -7 22 -18 32 -11
10 -20 22 -20 27 0 11 58 10 65 -2 3 -5 21 -10 38 -10 18 0 42 -7 54 -15 13
-9 24 -11 28 -6 7 13 1 16 -71 36 -73 20 -117 17 -122 -8 -2 -10 3 -26 12 -36
9 -10 13 -20 10 -23 -3 -4 6 -24 20 -47 14 -22 26 -45 26 -51 0 -5 22 -25 49
-42 30 -20 62 -53 81 -84 25 -42 41 -55 90 -77 33 -15 66 -27 74 -27 8 0 22
-3 30 -6 21 -8 2 -34 -24 -34 -43 0 -380 -92 -380 -104 0 -14 99 3 141 24 21
11 71 25 111 31 40 6 83 15 96 20 13 5 31 9 42 9 10 0 40 23 67 52 81 87 157
158 186 174 15 8 27 19 27 25 0 12 139 149 151 149 4 0 21 12 38 26 17 14 43
29 58 33 38 10 42 31 5 31 -40 0 -71 34 -54 61 10 15 10 23 0 39 -16 25 -34
20 -31 -9 4 -29 -19 -26 -34 4 -10 22 -8 27 18 46 16 11 29 25 29 31 0 6 8 17
18 24 16 12 16 13 0 14 -18 0 -33 33 -23 49 3 5 1 12 -5 16 -6 3 -13 -1 -16
-9z m11 -86 c-3 -5 -10 -10 -16 -10 -5 0 -9 5 -9 10 0 6 7 10 16 10 8 0 12 -4
9 -10z m-546 -306 c19 -32 44 -54 79 -73 27 -14 73 -47 102 -73 55 -51 55 -51
7 -108 -21 -24 -31 -29 -41 -21 -7 6 -16 8 -19 5 -3 -4 -27 -3 -53 1 -89 13
-173 133 -131 189 20 27 53 7 60 -39 8 -50 43 -95 73 -95 13 0 24 5 24 10 0 6
-6 10 -14 10 -23 0 -66 40 -66 63 -1 21 -22 62 -63 119 -17 24 -15 58 4 58 5
0 22 -21 38 -46z m-159 -34 c0 -5 -6 -10 -14 -10 -8 0 -18 5 -21 10 -3 6 3 10
14 10 12 0 21 -4 21 -10z m20 -60 c0 -5 -2 -10 -4 -10 -3 0 -8 5 -11 10 -3 6
-1 10 4 10 6 0 11 -4 11 -10z m50 -20 c0 -5 -2 -10 -4 -10 -3 0 -8 5 -11 10
-3 6 -1 10 4 10 6 0 11 -4 11 -10z"/>
</g>
<g>
<path d="M821 3519 c2 -46 15 -74 33 -71 12 2 16 -2 14 -15 -2 -14 28 -33 144
-91 81 -40 164 -75 185 -78 38 -6 37 -5 -15 20 -30 14 -70 33 -90 42 -20 10
-77 42 -126 72 -65 41 -96 67 -117 101 -24 38 -29 41 -28 20z"/>
</g>
<g>
<path d="M3756 3454 c-4 -9 -4 -19 -1 -22 2 -3 7 3 11 12 4 9 4 19 1 22 -2 3
-7 -3 -11 -12z"/>
</g>
<g>
<path d="M4121 3449 c-13 -5 -21 -12 -18 -15 9 -9 77 5 77 16 0 12 -27 12 -59
-1z"/>
</g>
<g>
<path d="M1455 3325 c17 -8 38 -14 47 -15 9 0 27 -4 40 -9 13 -5 75 -23 138
-41 63 -18 181 -54 263 -81 139 -46 192 -60 157 -40 -25 14 -195 70 -355 116
-82 24 -172 50 -200 58 -27 8 -66 17 -85 20 l-35 6 30 -14z"/>
</g>
<g>
<path d="M5935 3285 c-11 -14 -25 -25 -31 -25 -7 0 -14 -7 -18 -15 -3 -8 -15
-15 -26 -15 -11 0 -20 -4 -20 -10 0 -5 -25 -24 -55 -41 -30 -17 -55 -33 -55
-36 0 -13 60 11 106 43 28 18 55 34 61 34 6 0 16 7 23 15 7 8 26 15 42 15 32
0 47 23 28 45 -17 21 -32 18 -55 -10z"/>
</g>
<g>
<path d="M1460 3237 c0 -3 33 -10 73 -17 58 -9 177 -32 290 -55 9 -2 17 0 17
4 0 4 -62 20 -137 34 -154 30 -243 42 -243 34z"/>
</g>
<g>
<path d="M1465 3195 c27 -8 75 -16 105 -19 47 -5 43 -3 -30 14 -97 22 -150 25
-75 5z"/>
</g>
<g>
<path d="M1630 3167 c9 -10 162 -39 168 -32 11 11 -22 25 -58 25 -19 0 -53 3
-75 7 -22 3 -38 3 -35 0z"/>
</g>
<g>
<path d="M1875 3159 c4 -5 15 -9 26 -9 10 0 19 -4 19 -9 0 -4 -11 -6 -24 -4
-13 3 -32 0 -43 -7 -15 -10 -13 -11 14 -6 23 4 32 2 30 -7 -1 -7 11 -13 28
-15 72 -7 199 -34 219 -47 21 -14 133 -34 191 -35 l30 0 -26 14 c-15 7 -66 21
-115 30 -111 21 -284 64 -264 66 16 1 -14 16 -63 30 -17 5 -25 5 -22 -1z"/>
</g>
<g>
<path d="M4580 3115 c0 -23 31 -95 41 -95 15 0 10 28 -11 70 -22 42 -30 49
-30 25z"/>
</g>
<g>
<path d="M5485 3090 c-3 -5 -2 -10 4 -10 5 0 13 5 16 10 3 6 2 10 -4 10 -5 0
-13 -4 -16 -10z"/>
</g>
<g>
<path d="M3731 3059 c-13 -11 -22 -22 -19 -24 4 -5 88 34 88 41 0 12 -48 0
-69 -17z"/>
</g>
<g>
<path d="M2568 3014 c-2 -11 -23 -22 -58 -31 -30 -7 -62 -21 -72 -30 -23 -20
-24 -78 -2 -95 9 -7 26 -24 38 -37 11 -13 33 -36 47 -50 l26 -26 -23 -35 c-31
-45 -30 -54 6 -47 23 5 32 2 40 -13 6 -11 19 -20 28 -20 16 0 18 -9 16 -70 -2
-81 13 -105 46 -75 19 17 20 17 40 -6 l20 -24 19 25 c19 24 20 24 27 5 4 -11
12 -23 18 -27 13 -9 36 10 36 31 1 14 2 14 14 -1 15 -20 36 -24 36 -7 0 16
-31 38 -52 39 -14 0 -18 9 -18 38 0 39 -9 56 -44 82 -18 14 -19 13 -13 -22 7
-46 -9 -108 -28 -108 -12 0 -13 15 -8 80 4 57 3 80 -6 80 -7 0 -11 -18 -11
-47 0 -60 -9 -93 -25 -93 -21 0 -32 42 -23 90 5 25 11 60 14 78 4 18 12 32 20
32 13 0 50 -29 106 -82 10 -10 18 -25 18 -33 0 -8 5 -15 10 -15 6 0 10 -6 10
-12 0 -7 9 -24 20 -38 l20 -25 0 26 c0 14 -4 29 -9 35 -4 5 -11 21 -14 35 -6
24 -4 26 57 38 47 9 77 10 122 2 32 -6 95 -18 140 -26 119 -22 242 -20 323 6
36 12 72 23 79 25 21 6 13 22 -14 31 -22 7 -31 4 -55 -18 -15 -14 -45 -29 -66
-33 -63 -10 -211 -7 -218 5 -4 6 -13 8 -21 5 -8 -3 -36 -1 -62 4 -26 5 -74 14
-107 21 -33 6 -102 13 -154 14 -51 2 -96 7 -100 12 -13 17 -83 43 -119 43 -20
0 -50 9 -67 20 l-30 20 40 1 c22 1 51 4 65 8 21 6 17 8 -25 15 -27 4 -63 7
-78 6 -44 -1 -28 23 23 36 41 10 42 11 20 18 -29 9 -69 7 -91 -4 -21 -12 -48
5 -32 21 10 10 49 15 128 19 5 0 -1 7 -13 16 -16 11 -34 14 -62 9 -51 -9 -54
-8 -58 3 -1 5 15 17 37 25 31 13 54 15 107 8 58 -7 71 -12 96 -39 15 -18 53
-46 83 -62 62 -33 65 -34 65 -20 0 6 -17 19 -38 28 -21 9 -69 47 -106 85 -38
37 -76 67 -85 66 -12 0 -11 -4 7 -16 12 -8 22 -19 22 -24 0 -18 -29 -8 -48 16
-23 29 -29 31 -34 9z m209 -469 c1 -19 -3 -35 -8 -35 -5 0 -9 16 -9 35 0 46
14 46 17 0z"/>
</g>
<g>
<path d="M1427 3002 c-18 -20 -22 -32 -9 -32 10 1 45 50 34 50 -5 0 -16 -8
-25 -18z"/>
</g>
<g>
<path d="M3667 2994 c-25 -33 -11 -46 13 -14 11 14 20 28 20 33 0 14 -15 6
-33 -19z"/>
</g>
<g>
<path d="M1355 3000 c-3 -5 -1 -10 4 -10 6 0 11 5 11 10 0 6 -2 10 -4 10 -3 0
-8 -4 -11 -10z"/>
</g>
<g>
<path d="M2063 3000 c32 -10 83 -13 142 -10 38 3 37 3 -15 10 -30 5 -77 8
-105 8 -42 0 -46 -1 -22 -8z"/>
</g>
<g>
<path d="M6151 2993 c-7 -8 -11 -16 -8 -19 6 -7 37 7 37 16 0 16 -15 18 -29 3z"/>
</g>
<g>
<path d="M1295 2949 c-39 -29 -73 -71 -44 -54 8 5 23 17 34 27 11 10 29 24 40
32 11 8 18 17 15 19 -3 3 -23 -8 -45 -24z"/>
</g>
<g>
<path d="M1560 2963 c0 -14 -121 -133 -135 -133 -14 0 -60 -48 -53 -55 2 -3
13 4 23 15 10 11 22 20 27 20 28 0 158 143 144 158 -3 3 -6 1 -6 -5z"/>
</g>
<g>
<path d="M1602 2924 c-12 -19 -19 -34 -15 -33 13 0 54 57 45 62 -4 3 -17 -10
-30 -29z"/>
</g>
<g>
<path d="M4964 2929 c-49 -39 -49 -39 -37 -39 11 0 92 69 82 70 -3 0 -24 -14
-45 -31z"/>
</g>
<g>
<path d="M4126 2892 c-5 -9 -3 -20 7 -29 10 -10 17 -11 21 -4 4 6 3 11 -3 11
-5 0 -11 8 -13 18 -3 13 -5 14 -12 4z"/>
</g>
<g>
<path d="M6140 2880 c-8 -5 -11 -12 -7 -16 4 -4 15 0 24 9 18 18 8 23 -17 7z"/>
</g>
<g>
<path d="M1193 2854 c-12 -13 -18 -24 -14 -24 10 0 45 39 40 44 -2 3 -14 -6
-26 -20z"/>
</g>
<g>
<path d="M1615 2870 c3 -5 8 -10 11 -10 2 0 4 5 4 10 0 6 -5 10 -11 10 -5 0
-7 -4 -4 -10z"/>
</g>
<g>
<path d="M1555 2859 c-4 -6 -5 -12 -2 -15 2 -3 7 2 10 11 7 17 1 20 -8 4z"/>
</g>
<g>
<path d="M1580 2830 c0 -5 5 -10 10 -10 6 0 10 5 10 10 0 6 -4 10 -10 10 -5 0
-10 -4 -10 -10z"/>
</g>
<g>
<path d="M2977 2830 c-54 -10 -57 -20 -5 -20 66 0 138 11 138 22 0 9 -72 8
-133 -2z"/>
</g>
<g>
<path d="M1145 2810 c-3 -5 -1 -10 4 -10 6 0 11 5 11 10 0 6 -2 10 -4 10 -3 0
-8 -4 -11 -10z"/>
</g>
<g>
<path d="M1560 2799 c0 -5 5 -7 10 -4 6 3 10 8 10 11 0 2 -4 4 -10 4 -5 0 -10
-5 -10 -11z"/>
</g>
<g>
<path d="M1415 2770 c-27 -30 -12 -34 15 -5 13 14 19 25 13 25 -5 0 -18 -9
-28 -20z"/>
</g>
<g>
<path d="M1465 2740 c-10 -11 -23 -20 -29 -20 -11 0 -40 -60 -33 -67 2 -2 27
22 56 52 29 30 46 55 38 55 -7 0 -22 -9 -32 -20z"/>
</g>
<g>
<path d="M3150 2700 c0 -5 9 -10 21 -10 11 0 17 5 14 10 -3 6 -13 10 -21 10
-8 0 -14 -4 -14 -10z"/>
</g>
<g>
<path d="M3210 2686 c0 -10 9 -14 27 -12 39 4 42 26 4 26 -20 0 -31 -5 -31
-14z"/>
</g>
<g>
<path d="M1565 2568 c-64 -51 -142 -139 -122 -138 1 0 42 38 90 85 89 86 105
112 32 53z"/>
</g>
<g>
<path d="M1599 2532 c-81 -61 -146 -128 -135 -139 4 -4 26 11 49 34 23 23 64
61 92 85 85 74 89 78 79 78 -5 0 -43 -26 -85 -58z"/>
</g>
<g>
<path d="M1464 2544 c-19 -19 -34 -43 -34 -52 0 -11 10 -5 30 18 60 70 63 98
4 34z"/>
</g>
<g>
<path d="M4225 2448 c-22 -12 -35 -23 -28 -25 7 -3 32 7 55 21 52 31 30 34
-27 4z"/>
</g>
<g>
<path d="M2580 2425 c0 -2 15 -12 33 -21 17 -9 55 -35 82 -58 28 -23 67 -54
89 -70 56 -42 88 -135 51 -150 -8 -3 -15 -16 -15 -28 0 -13 -10 -29 -21 -37
-20 -12 -21 -11 -14 11 4 12 9 41 12 63 4 33 1 42 -18 53 -14 9 -25 10 -31 4
-7 -7 -3 -15 11 -24 11 -7 21 -21 21 -31 0 -19 -42 -91 -60 -102 -13 -8 -13
24 1 63 13 37 -2 72 -30 72 -10 0 -24 7 -31 15 -16 19 -80 20 -80 2 0 -9 11
-12 33 -9 67 8 111 -70 76 -134 -17 -33 -7 -49 32 -47 19 1 42 2 52 2 9 1 34
16 54 35 33 30 37 39 41 92 5 80 -15 124 -75 165 -27 18 -61 44 -78 59 -59 53
-135 96 -135 75z"/>
</g>
<g>
<path d="M4833 2385 c-22 -19 -24 -24 -10 -25 9 0 17 5 17 10 0 6 6 10 14 10
18 0 30 17 17 24 -5 4 -22 -5 -38 -19z"/>
</g>
<g>
<path d="M5010 2382 c33 -15 92 -66 105 -93 8 -15 31 -37 52 -50 39 -23 143
-106 155 -123 4 -6 10 -7 14 -3 8 8 -68 80 -131 124 -21 16 -67 56 -102 91
-41 41 -70 62 -85 61 -17 0 -19 -2 -8 -7z"/>
</g>
<g>
<path d="M4890 2370 c0 -5 18 -33 40 -62 22 -29 40 -57 40 -62 0 -15 -32 17
-41 41 -10 26 -53 57 -71 51 -7 -3 1 -12 20 -22 17 -9 32 -23 32 -31 0 -16
-16 -20 -24 -6 -3 4 -24 11 -47 15 -39 6 -40 8 -23 21 37 26 3 28 -54 2 -86
-39 -144 -50 -181 -34 -33 14 -91 11 -91 -4 0 -5 19 -9 43 -9 24 0 48 -5 54
-11 8 -8 25 -8 57 -1 25 5 46 6 46 2 0 -14 -45 -37 -86 -44 -63 -11 -105 -53
-158 -159 -37 -75 -45 -100 -40 -125 4 -18 11 -32 16 -32 9 0 68 120 68 139 0
16 102 81 128 81 30 0 121 30 128 42 11 18 -4 20 -34 4 -34 -18 -102 -27 -102
-15 0 12 80 69 97 69 8 0 23 9 35 20 26 24 42 25 98 5 23 -8 55 -15 71 -15 20
0 34 -9 50 -32 13 -18 26 -35 29 -38 21 -19 75 -98 106 -156 20 -38 40 -73 44
-79 5 -5 27 -65 49 -133 30 -89 41 -140 41 -183 0 -32 3 -59 8 -59 9 0 32 71
32 99 0 10 -7 36 -16 57 -9 22 -25 71 -35 109 -19 78 -63 156 -173 308 -26 37
-46 70 -43 73 2 3 28 -18 57 -46 29 -27 55 -48 58 -46 2 3 -23 35 -56 73 -34
37 -72 87 -84 112 -13 26 -32 56 -42 69 -20 23 -46 30 -46 12z"/>
</g>
<g>
<path d="M2431 2227 c-1 -22 10 -61 25 -93 23 -49 25 -59 14 -85 -14 -32 -9
-45 12 -36 20 7 13 76 -11 128 -11 24 -25 62 -30 84 l-9 40 -1 -38z"/>
</g>
<g>
<path d="M753 2215 c-19 -21 -16 -27 7 -15 11 6 20 15 20 20 0 14 -13 12 -27
-5z"/>
</g>
<g>
<path d="M2534 2136 c-3 -8 -3 -20 0 -25 4 -6 1 -19 -6 -30 -7 -11 -9 -23 -5
-27 11 -12 36 28 37 58 0 31 -17 47 -26 24z"/>
</g>
<g>
<path d="M4917 2014 c-32 -13 -84 -28 -115 -34 -97 -18 -102 -20 -102 -31 0
-26 175 16 264 63 48 25 15 27 -47 2z"/>
</g>
<g>
<path d="M5200 2034 c0 -3 6 -20 14 -37 8 -18 17 -43 19 -57 3 -14 15 -61 26
-105 28 -112 30 -334 3 -358 -10 -10 -23 -17 -29 -17 -12 0 -29 -77 -20 -86 7
-8 64 78 86 129 12 27 24 95 32 176 12 122 12 136 -6 189 -24 76 -59 135 -89
156 -27 17 -36 20 -36 10z"/>
</g>
<g>
<path d="M535 1920 c-3 -5 -1 -10 4 -10 6 0 11 5 11 10 0 6 -2 10 -4 10 -3 0
-8 -4 -11 -10z"/>
</g>
<g>
<path d="M5790 1590 c0 -5 4 -10 9 -10 6 0 13 5 16 10 3 6 -1 10 -9 10 -9 0
-16 -4 -16 -10z"/>
</g>
<g>
<path d="M4250 1389 c0 -5 5 -7 10 -4 6 3 10 8 10 11 0 2 -4 4 -10 4 -5 0 -10
-5 -10 -11z"/>
</g>
<g>
<path d="M659 1333 c-6 -16 -12 -69 -13 -120 -1 -78 2 -95 20 -119 44 -59 55
-26 16 50 -11 23 -13 53 -10 123 3 51 3 93 1 93 -2 0 -8 -12 -14 -27z"/>
</g>
<g>
<path d="M4217 1343 c-13 -13 -7 -21 13 -16 11 3 20 9 20 14 0 10 -24 12 -33
2z"/>
</g>
<g>
<path d="M1102 1180 c10 -6 42 -13 70 -16 67 -6 34 11 -38 21 -38 5 -45 4 -32
-5z"/>
</g>
<g>
<path d="M1089 1145 c18 -8 38 -15 45 -15 6 1 -4 7 -23 15 -18 8 -38 15 -45
15 -6 -1 4 -7 23 -15z"/>
</g>
<g>
<path d="M1716 1124 c-4 -14 -5 -29 -2 -31 3 -3 8 7 12 21 3 15 4 29 1 32 -2
3 -8 -7 -11 -22z"/>
</g>
<g>
<path d="M4000 1064 c-11 -28 -14 -81 -4 -71 4 3 8 17 10 29 2 13 6 33 10 46
9 31 -4 28 -16 -4z"/>
</g>
<g>
<path d="M1701 1064 c0 -11 3 -14 6 -6 3 7 2 16 -1 19 -3 4 -6 -2 -5 -13z"/>
</g>
<g>
<path d="M4927 1063 c-20 -19 3 -62 67 -125 28 -27 55 -35 69 -22 3 4 -13 26
-37 50 -35 36 -42 49 -38 74 4 28 2 30 -25 30 -16 0 -33 -3 -36 -7z"/>
</g>
<g>
<path d="M1222 993 c-29 -14 -52 -27 -49 -29 7 -7 95 27 108 42 16 19 3 17
-59 -13z"/>
</g>
<g>
<path d="M730 991 c0 -22 40 -99 54 -104 21 -8 20 9 -3 41 -10 15 -22 37 -25
50 -7 21 -26 31 -26 13z"/>
</g>
<g>
<path d="M4012 958 c3 -7 13 -15 24 -17 16 -3 17 -1 5 13 -16 19 -34 21 -29 4z"/>
</g>
<g>
<path d="M1692 930 c0 -14 2 -19 5 -12 2 6 2 18 0 25 -3 6 -5 1 -5 -13z"/>
</g>
<g>
<path d="M2105 882 c-59 -14 -71 -21 -73 -40 -4 -24 12 -30 25 -9 4 7 21 18
36 25 33 14 137 28 137 18 0 -4 -12 -18 -27 -32 -28 -24 -28 -24 -8 -39 16
-13 17 -19 8 -34 -19 -31 -2 -41 60 -34 64 7 77 23 18 23 -37 0 -39 2 -43 35
-3 24 1 39 15 50 55 48 -23 67 -148 37z"/>
</g>
<g>
<path d="M1903 833 c-19 -7 -16 -60 3 -67 24 -9 74 -7 74 3 0 6 -15 11 -32 13
-29 3 -33 6 -31 31 1 15 1 27 0 26 -1 0 -8 -3 -14 -6z"/>
</g>
<g>
<path d="M2100 804 c0 -41 16 -38 22 6 3 20 0 30 -9 30 -8 0 -13 -13 -13 -36z"/>
</g>
<g>
<path d="M1990 751 c0 -12 -42 -27 -128 -46 -88 -19 -155 -51 -128 -61 10 -4
38 2 64 14 26 12 67 23 92 26 58 6 96 23 115 53 14 20 14 23 0 23 -8 0 -15 -4
-15 -9z"/>
</g>
<g>
<path d="M2060 663 c-47 -5 -139 -33 -146 -45 -12 -18 6 -21 32 -3 18 11 56
18 120 22 70 4 94 9 94 19 0 14 -20 15 -100 7z"/>
</g>
</g>
</svg>
