<?xml version="1.0" standalone="no"?>
<!DOCTYPE svg PUBLIC "-//W3C//DTD SVG 20010904//EN"
 "http://www.w3.org/TR/2001/REC-SVG-20010904/DTD/svg10.dtd">
<svg version="1.0" xmlns="http://www.w3.org/2000/svg"
 width="716.000000pt" height="736.000000pt" viewBox="0 0 716.000000 736.000000"
 preserveAspectRatio="xMidYMid meet">
<metadata>
Created by potrace 1.15, written by Peter Selinger 2001-2017
</metadata>
<g transform="translate(0.000000,736.000000) scale(0.100000,-0.100000)"
fill="#000000" stroke="none">
<g>
<path d="M4800 6906 c-14 -7 -38 -20 -54 -27 -17 -8 -40 -24 -52 -36 -13 -13
-28 -23 -33 -23 -18 0 -85 -50 -111 -83 -21 -26 -26 -45 -29 -110 -3 -64 -6
-77 -18 -73 -8 3 -19 6 -24 6 -4 0 -15 14 -24 30 -20 39 -45 40 -45 2 0 -17
10 -38 25 -52 27 -25 35 -51 10 -30 -12 10 -15 9 -15 -4 0 -19 61 -86 78 -86
21 0 23 -20 7 -65 -8 -25 -15 -60 -15 -78 0 -24 -10 -44 -35 -71 -19 -21 -35
-40 -35 -42 0 -2 -9 -13 -20 -24 -26 -26 -25 -33 5 -66 27 -29 30 -40 15 -49
-15 -9 -12 -42 7 -78 17 -34 23 -74 23 -148 -1 -66 29 -92 120 -108 48 -9 81
-21 100 -38 17 -14 48 -27 70 -30 22 -3 43 -10 46 -15 7 -11 -33 -80 -52 -91
-8 -4 -14 -12 -14 -17 0 -4 -29 -52 -65 -105 -36 -54 -65 -100 -65 -102 0 -3
-15 -28 -33 -56 -19 -29 -42 -66 -53 -84 -10 -17 -41 -59 -67 -92 -49 -62 -62
-106 -18 -60 l23 24 -3 -115 c-3 -168 1 -290 10 -260 4 14 8 112 10 219 1 176
3 196 21 219 l20 25 2 -164 c2 -214 -2 -301 -14 -316 -8 -10 -108 -79 -156
-107 -10 -6 -12 32 -11 181 1 109 6 193 11 201 14 17 38 15 38 -3 0 -8 4 -15
9 -15 5 0 9 13 9 30 -1 27 -4 29 -27 23 -14 -3 -28 -9 -31 -12 -3 -3 -23 -19
-45 -36 -21 -16 -46 -36 -55 -43 -8 -8 -65 -51 -126 -96 -60 -44 -142 -108
-181 -141 -93 -80 -118 -99 -180 -138 -39 -25 -49 -37 -41 -45 7 -7 10 -14 7
-16 -7 -7 -264 -18 -257 -11 4 4 37 11 75 15 52 7 71 14 82 29 7 12 22 21 32
21 23 0 23 4 3 36 -15 22 -15 37 -4 150 14 133 9 266 -11 334 -28 92 -161 187
-294 211 -33 6 -74 15 -91 20 -49 15 -101 11 -139 -11 -56 -31 -115 -21 -115
20 0 29 -19 24 -26 -7 -6 -24 2 -59 30 -123 4 -11 -10 -23 -51 -45 -32 -16
-82 -45 -111 -62 -29 -18 -55 -33 -59 -33 -4 0 -22 -17 -40 -37 -37 -42 -39
-73 -6 -87 27 -13 40 -76 18 -92 -8 -6 -15 -25 -15 -42 0 -25 6 -35 29 -47 39
-19 42 -33 20 -77 -47 -94 4 -158 139 -174 93 -10 124 -54 92 -130 -15 -35 -7
-79 16 -88 15 -6 170 35 207 55 11 6 22 7 25 4 11 -11 -27 -33 -79 -45 -27 -7
-49 -16 -49 -21 0 -5 -6 -9 -13 -9 -26 0 -153 -42 -212 -70 -118 -56 -262
-110 -293 -110 -21 0 -119 49 -152 76 -24 19 -101 63 -150 85 -25 11 -58 27
-75 36 -16 9 -85 45 -152 80 -68 36 -125 69 -128 74 -4 5 -15 9 -26 9 -13 0
-19 7 -19 21 0 11 3 19 8 17 55 -27 71 -36 97 -54 17 -11 37 -24 45 -28 8 -3
30 -15 49 -26 18 -12 140 -75 270 -141 227 -117 238 -121 285 -115 26 3 53 9
60 14 6 5 22 13 36 17 44 13 230 107 230 116 0 12 -50 0 -70 -16 -24 -19 -99
-55 -168 -81 -99 -38 -144 -33 -257 26 -52 27 -103 54 -113 58 -9 5 -30 16
-47 24 -16 9 -75 39 -130 67 -55 29 -120 65 -145 81 -76 49 -149 90 -160 90
-5 0 -10 -7 -10 -15 0 -16 -16 -21 -22 -7 -1 5 -44 30 -95 56 -50 26 -100 55
-111 64 -11 9 -30 25 -41 34 -32 27 -43 23 -92 -34 -68 -80 -197 -208 -208
-208 -24 0 -10 -38 19 -50 16 -7 36 -23 46 -37 14 -23 21 -25 65 -21 26 3 72
17 101 31 l53 27 18 -21 c11 -14 40 -26 84 -35 37 -8 69 -16 71 -18 2 -2 -2
-22 -9 -44 -20 -69 -9 -87 84 -133 124 -62 182 -93 185 -101 2 -5 8 -8 13 -8
14 0 203 -94 221 -110 9 -8 34 -24 55 -35 21 -10 70 -39 108 -64 57 -37 78
-45 115 -44 48 0 102 12 110 23 3 4 24 10 48 14 34 5 44 3 49 -10 3 -9 1 -19
-4 -23 -6 -3 -13 -19 -16 -36 -12 -61 -39 -151 -59 -192 -11 -24 -21 -49 -22
-55 -1 -7 -12 -35 -25 -63 -12 -27 -38 -90 -57 -140 -52 -134 -94 -213 -118
-219 -12 -3 -55 11 -106 33 -47 21 -101 42 -120 46 -19 4 -47 14 -62 21 -34
17 -79 18 -101 2 -9 -7 -36 -42 -60 -78 -36 -53 -48 -65 -68 -63 -37 4 -61 9
-89 20 -51 21 -68 24 -75 13 -10 -17 12 -37 48 -43 46 -7 73 -14 94 -25 10 -6
39 -13 66 -17 26 -4 57 -15 70 -25 26 -20 454 -161 487 -160 8 0 50 -20 94
-45 43 -25 80 -45 83 -45 3 0 19 -6 36 -14 18 -7 61 -24 97 -36 72 -25 234
-86 265 -100 11 -4 31 -11 45 -14 71 -14 206 -50 213 -56 5 -4 2 -18 -6 -31
-9 -13 -25 -56 -37 -94 -11 -39 -29 -85 -40 -103 -21 -35 -83 -77 -127 -88
-31 -8 -138 -52 -219 -90 -55 -26 -79 -30 -89 -14 -3 5 -18 7 -33 4 -18 -3
-56 7 -112 32 -47 20 -139 55 -205 79 -66 23 -133 47 -148 54 -16 6 -31 11
-34 11 -3 0 -19 6 -36 14 -18 8 -54 22 -82 31 -27 9 -59 21 -70 25 -11 5 -54
19 -95 31 -41 12 -93 28 -115 35 -23 8 -48 14 -57 14 -19 0 -118 39 -138 55
-12 10 -172 75 -244 99 -26 9 -16 48 26 112 18 27 55 92 81 145 26 53 63 114
82 136 19 23 35 46 35 53 0 15 25 40 40 40 17 0 6 24 -12 28 -22 4 -52 -31
-92 -103 -18 -33 -49 -89 -69 -123 -20 -35 -37 -68 -37 -74 0 -5 -25 -50 -55
-99 -30 -49 -55 -92 -55 -97 0 -10 31 -36 53 -45 16 -6 16 -10 4 -39 -30 -69
-61 -128 -69 -128 -4 0 -8 -6 -8 -14 0 -33 -158 -353 -211 -427 -10 -15 -19
-30 -19 -34 0 -9 -50 -115 -66 -140 -15 -22 3 -23 -277 9 -57 7 -67 12 -67 32
0 9 -7 14 -18 12 -12 -2 -18 5 -20 22 -3 25 -2 25 13 5 16 -19 16 -17 10 30
-8 63 -14 85 -24 85 -15 0 -39 -58 -56 -135 -9 -44 -21 -87 -26 -97 -10 -18
17 -33 151 -83 143 -53 180 -69 180 -77 0 -26 -150 -59 -175 -38 -8 7 -46 14
-83 16 -37 2 -103 11 -147 20 -44 9 -96 16 -116 15 -41 -1 -56 14 -79 87 -12
39 -30 57 -30 31 0 -6 -6 -25 -14 -42 -26 -56 -46 -127 -46 -159 0 -36 42 -88
71 -88 10 0 20 -4 23 -9 4 -5 25 -13 49 -17 23 -4 44 -8 47 -9 3 0 30 -8 60
-18 30 -9 80 -23 110 -31 147 -40 210 -62 210 -73 0 -17 26 -29 80 -38 24 -4
61 -16 82 -27 32 -17 50 -19 116 -14 42 3 228 7 412 9 184 1 341 6 348 11 7 4
19 2 28 -5 12 -10 10 -15 -19 -33 -91 -57 -127 -91 -124 -116 2 -30 37 -39 74
-19 13 7 41 13 61 12 317 -5 583 -2 654 7 86 12 426 17 643 11 75 -2 124 1
155 11 40 12 45 17 45 43 0 25 -5 31 -35 39 -19 5 -37 11 -40 13 -10 9 28 23
63 23 27 0 37 4 37 16 0 14 -8 16 -52 10 -63 -9 -78 -19 -78 -57 0 -26 3 -28
43 -31 l42 -3 -54 -18 c-30 -10 -77 -17 -105 -16 -28 1 -58 -1 -66 -5 -25 -10
-1195 -30 -1218 -21 -13 5 -11 10 13 30 17 13 41 27 54 30 14 3 37 15 52 25
54 39 79 43 260 41 97 -2 179 1 182 6 4 6 -59 10 -146 12 -83 1 -156 6 -160
10 -13 13 51 19 181 19 63 1 117 3 120 6 5 6 -13 7 -148 11 -41 1 -79 3 -84 4
-11 1 23 41 35 41 5 0 33 16 63 35 30 19 58 35 62 35 3 0 20 6 37 14 18 8 39
16 47 20 8 3 33 17 55 31 22 13 51 30 65 36 62 26 89 41 110 61 27 25 112 73
340 190 96 50 177 93 180 98 3 4 32 22 65 40 33 18 80 46 104 62 24 16 64 37
90 47 25 10 64 30 85 44 21 15 44 27 51 27 7 0 24 11 39 25 15 14 71 48 124
76 53 28 104 57 113 65 22 20 29 18 29 -10 0 -32 14 -40 69 -38 82 4 130 23
170 70 20 23 39 42 42 42 3 0 20 -27 38 -59 35 -65 57 -79 101 -61 40 16 42
30 15 86 -13 27 -38 79 -55 116 -17 37 -35 70 -40 73 -12 7 -13 95 -1 113 4 8
2 36 -5 65 -7 29 -20 84 -29 122 -10 39 -16 95 -15 125 1 52 -5 111 -31 295
-6 44 -15 121 -19 170 -10 114 -28 217 -41 230 -5 5 -9 23 -9 40 0 17 -7 54
-15 81 -13 42 -34 68 -145 177 -71 71 -130 133 -130 138 0 5 38 8 85 7 80 -2
87 0 129 30 24 18 52 32 61 32 9 0 30 9 45 20 l29 21 18 -28 c9 -15 18 -30 20
-32 4 -6 163 101 238 160 34 26 101 74 150 107 l89 60 19 -37 c10 -20 29 -49
42 -66 12 -16 34 -52 48 -80 14 -27 37 -61 51 -74 16 -15 26 -35 26 -52 0 -14
6 -32 14 -38 31 -26 29 -110 -9 -331 -16 -94 -13 -174 6 -186 13 -8 2 -78 -17
-116 -8 -15 -23 -62 -33 -105 -10 -43 -26 -100 -34 -128 -9 -27 -30 -97 -48
-155 -17 -58 -36 -115 -42 -127 -6 -13 -8 -26 -5 -29 9 -9 -31 -142 -59 -193
-20 -38 -23 -54 -18 -96 8 -65 17 -74 64 -68 44 6 101 -19 101 -44 0 -8 16
-37 35 -64 19 -26 41 -63 50 -81 27 -58 89 -165 108 -185 9 -11 17 -23 17 -27
0 -4 17 -38 39 -74 32 -56 127 -233 164 -307 17 -34 21 -41 52 -86 26 -39 53
-88 108 -194 16 -31 46 -98 66 -148 15 -38 14 -78 -4 -120 -11 -26 -26 -40
-62 -57 -26 -12 -56 -26 -65 -31 -20 -10 -88 -28 -136 -36 -21 -3 -41 -16 -57
-38 -21 -27 -24 -39 -19 -78 4 -26 10 -47 15 -47 4 0 11 -20 14 -44 4 -25 14
-51 24 -59 17 -15 102 -29 163 -27 28 0 38 -4 43 -20 7 -21 20 -26 30 -11 3 5
1 13 -5 16 -14 9 -74 135 -67 142 10 9 27 -8 27 -26 0 -10 6 -24 14 -30 8 -7
17 -25 21 -40 3 -16 17 -39 31 -51 13 -13 24 -28 24 -34 0 -10 31 -11 360 -8
41 1 126 1 188 1 62 -1 118 4 125 9 7 6 29 13 50 17 20 4 37 11 37 16 0 10 60
41 115 58 45 14 75 54 75 100 0 36 -27 91 -45 91 -8 0 -20 12 -27 27 -7 15
-21 29 -31 31 -24 5 -22 -15 3 -23 11 -3 20 -14 20 -23 0 -10 9 -23 20 -30 25
-15 26 -32 3 -33 -11 0 -7 -4 10 -11 36 -13 30 -31 -14 -39 -30 -6 -31 -7 -6
-8 17 -1 27 -7 27 -16 0 -18 12 -16 -150 -17 -128 -1 -167 5 -117 17 14 4 27
15 30 24 5 19 45 31 104 31 27 0 34 4 30 15 -4 8 -2 17 3 20 5 3 7 12 3 21 -4
12 0 14 23 9 l29 -6 -32 18 c-19 9 -33 24 -33 35 0 10 -11 35 -24 56 -12 20
-26 46 -29 57 -4 11 -17 25 -29 30 -17 8 -31 33 -55 105 -17 52 -32 105 -32
116 -1 25 35 52 93 69 55 16 69 41 36 63 -13 10 -31 25 -39 34 -14 16 -17 16
-50 -4 -20 -12 -46 -30 -58 -41 -27 -24 -48 -17 -71 24 -9 17 -25 40 -34 51
-10 12 -18 24 -18 29 0 4 -16 42 -36 86 -51 110 -55 121 -119 283 -32 80 -64
152 -72 161 -7 8 -13 22 -13 30 0 8 -7 32 -15 54 -18 52 -18 63 1 67 10 2 29
36 49 88 35 92 124 368 151 465 8 33 36 114 60 181 24 67 44 124 44 127 0 4
11 30 25 59 13 29 33 79 43 111 10 32 22 58 28 58 14 -1 66 -135 123 -318 28
-89 56 -165 62 -169 14 -9 91 15 105 33 9 11 -3 56 -52 201 -36 103 -76 221
-90 262 -14 41 -39 109 -56 152 l-31 77 22 58 c12 32 28 83 35 113 8 30 18 63
21 73 5 11 2 17 -7 17 -10 0 -23 -26 -37 -77 -12 -43 -31 -103 -41 -133 -11
-30 -21 -68 -24 -85 -6 -41 -102 -319 -170 -493 -31 -78 -65 -179 -76 -225
-26 -102 -79 -265 -95 -292 -7 -11 -16 -38 -19 -60 -4 -22 -21 -77 -38 -123
-35 -92 -27 -88 -138 -73 -36 6 -108 12 -160 16 -103 7 -241 22 -305 33 -31 6
-41 12 -43 29 -2 12 21 97 51 190 30 92 62 200 72 238 35 146 53 211 68 245 8
19 29 94 46 165 48 199 61 238 89 268 14 15 30 27 34 27 33 0 388 175 408 201
3 3 57 26 120 50 63 23 123 50 133 59 24 23 54 37 105 50 23 6 42 14 42 19 0
5 11 25 25 45 14 20 39 64 56 97 17 32 35 62 40 65 21 12 6 34 -52 75 -34 24
-81 61 -106 82 -24 20 -49 37 -54 37 -19 0 -77 68 -84 98 -4 18 -15 34 -26 37
-26 9 -35 28 -65 147 -14 56 -41 151 -60 210 -19 59 -34 115 -34 123 0 9 -11
41 -26 72 -14 31 -29 77 -34 102 -5 25 -24 93 -43 151 -20 58 -38 123 -42 145
-17 106 -27 145 -37 145 -6 0 -8 -13 -5 -32 10 -58 35 -161 53 -218 9 -30 28
-100 43 -155 15 -55 33 -111 41 -125 14 -26 44 -131 110 -385 21 -82 41 -159
45 -170 5 -17 -4 -25 -52 -50 -31 -17 -78 -44 -103 -61 -25 -16 -64 -41 -87
-54 -24 -13 -43 -27 -43 -32 0 -15 8 -11 135 62 22 13 60 34 85 48 25 13 57
31 72 40 15 9 30 13 34 9 13 -13 -5 -35 -48 -54 -23 -12 -92 -49 -153 -83 -60
-35 -128 -72 -150 -84 -22 -12 -58 -33 -80 -47 -44 -28 -147 -79 -161 -79 -5
0 -20 -9 -34 -20 -28 -22 -40 -25 -40 -11 0 6 13 18 29 27 17 10 28 21 25 26
-3 4 -15 1 -27 -7 -33 -23 -51 -18 -99 24 -47 43 -62 39 -29 -8 24 -34 26 -41
9 -41 -14 1 -51 56 -92 138 -15 29 -34 61 -44 71 -35 38 -52 65 -83 137 -18
41 -36 74 -41 74 -10 0 -10 -13 0 -26 5 -5 19 -36 32 -68 13 -33 36 -73 51
-90 15 -17 37 -51 49 -76 13 -25 38 -68 57 -97 37 -58 39 -63 19 -63 -7 0 -36
39 -62 86 -27 48 -61 101 -77 119 -15 18 -39 59 -53 91 -14 33 -36 82 -50 109
-13 28 -24 59 -24 70 1 18 2 18 22 -5 l21 -25 -7 28 c-12 52 9 26 49 -59 22
-47 46 -90 53 -96 17 -15 15 -4 -9 36 -18 30 -18 35 -4 43 13 8 14 11 0 28 -9
12 -14 15 -15 7 0 -7 -5 -10 -11 -6 -8 5 -8 8 0 13 8 6 8 16 -2 41 -16 36 -18
32 63 150 50 73 94 142 109 169 7 14 28 42 46 61 18 19 39 49 47 65 8 17 22
42 32 58 10 15 13 27 8 27 -12 0 -13 -1 -103 -129 -32 -46 -59 -77 -59 -69 0
8 15 35 32 59 35 47 53 75 64 99 4 8 20 30 36 48 28 32 37 62 19 62 -5 0 -35
-42 -67 -92 -31 -51 -68 -104 -81 -119 -12 -14 -23 -30 -23 -36 0 -32 -289
-373 -317 -373 -6 0 -38 -22 -70 -50 -32 -27 -63 -50 -69 -50 -9 0 -43 -23
-99 -68 -5 -4 -50 -34 -100 -67 -49 -33 -92 -62 -95 -65 -3 -3 -30 -22 -60
-43 -30 -20 -66 -45 -80 -56 -33 -27 -44 -26 -64 4 -9 13 -24 32 -34 42 -11
10 -54 64 -96 120 -43 56 -84 107 -92 114 -13 10 -7 20 38 61 29 26 57 48 62
48 5 0 25 15 46 33 61 53 196 153 290 215 30 20 60 41 66 47 6 5 22 17 34 25
48 32 77 60 105 102 16 24 43 61 59 82 27 35 96 144 96 151 0 2 18 32 40 66
78 125 89 144 95 172 5 17 3 27 -4 27 -6 0 -11 -8 -11 -18 0 -10 -7 -27 -15
-38 -14 -17 -14 -15 -9 26 4 25 11 53 15 62 5 9 9 43 8 75 -1 57 -1 56 -19
-42 -10 -55 -23 -113 -29 -128 -6 -16 -11 -39 -11 -52 0 -13 -5 -27 -11 -31
-8 -5 -10 3 -5 27 7 40 36 268 36 288 0 43 -12 -15 -40 -184 -30 -184 -45
-245 -64 -245 -4 0 -6 7 -2 15 3 8 10 54 16 102 6 48 13 89 15 92 4 7 35 186
35 203 0 33 -18 -15 -29 -77 -7 -38 -21 -113 -31 -165 -11 -52 -25 -128 -32
-169 -16 -90 -40 -112 -26 -24 4 32 10 68 13 81 3 12 1 22 -4 22 -8 0 -41
-148 -45 -206 -2 -34 -42 -92 -48 -72 -3 7 2 35 10 63 21 74 29 112 43 195 14
82 47 197 47 165 1 -11 -3 -42 -7 -68 -4 -26 -4 -50 1 -53 4 -3 8 10 8 28 0
18 8 62 19 98 23 78 46 199 38 206 -3 3 -14 -31 -24 -75 -10 -45 -21 -81 -25
-81 -12 0 -10 21 8 79 18 60 5 93 -16 42 -17 -42 -26 -39 -34 9 -4 29 -2 47
10 65 18 27 34 25 34 -6 0 -10 5 -19 10 -19 6 0 10 6 10 14 0 12 12 14 62 10
35 -2 66 -8 71 -13 4 -4 35 -6 68 -4 47 4 60 1 65 -11 3 -9 10 -13 15 -10 5 3
7 9 4 14 -3 5 3 15 15 22 11 7 20 18 20 24 0 6 16 28 35 50 19 21 59 72 87
111 40 56 57 72 70 67 16 -5 18 -1 14 32 -6 43 -18 54 -63 54 -26 0 -33 -4
-33 -19 0 -11 -5 -23 -10 -26 -6 -3 -44 -50 -86 -103 -42 -53 -80 -101 -85
-106 -4 -4 -34 -10 -66 -12 -50 -3 -56 -2 -41 10 25 18 12 26 -43 26 -39 0
-51 4 -60 21 -14 28 1 44 44 44 18 0 32 5 32 10 1 6 11 26 23 45 24 38 29 107
11 142 -6 11 -13 52 -16 92 -5 68 -3 77 31 149 33 70 39 77 71 83 20 3 42 13
50 21 13 12 19 12 45 -4 33 -19 44 -45 36 -83 -3 -14 -9 -37 -12 -52 -5 -22
-2 -27 17 -31 19 -3 17 -5 -8 -6 -47 -2 -59 -30 -27 -64 13 -14 24 -30 24 -35
0 -5 16 -23 35 -41 19 -17 35 -37 35 -43 0 -9 3 -9 12 0 7 7 37 12 67 13 81 1
105 10 110 39 3 25 3 25 -18 6 -30 -27 -39 -11 -11 19 l23 25 -36 0 c-20 0
-37 5 -37 10 0 6 7 10 15 10 8 0 15 5 15 10 0 6 -8 10 -17 10 -15 0 -16 2 -3
10 9 5 17 5 21 -1 14 -24 128 93 170 174 42 83 67 257 48 337 -19 80 -34 101
-66 89 -16 -6 -39 -6 -65 2 -29 7 -44 7 -51 0 -8 -8 -6 -11 5 -11 9 0 18 -9
21 -20 5 -21 33 -37 44 -26 4 3 -2 13 -13 21 -18 14 -17 14 14 15 17 0 32 -5
32 -10 0 -6 11 -15 25 -20 30 -11 32 -21 5 -38 -27 -16 -25 -32 2 -32 22 0 21
-1 -7 -27 -29 -27 -29 -28 -7 -31 27 -4 28 -18 2 -32 -11 -6 -18 -15 -14 -21
3 -5 0 -16 -6 -24 -10 -12 -9 -15 4 -15 18 0 22 -15 6 -25 -5 -3 -7 -12 -3
-20 3 -9 -1 -15 -10 -15 -19 0 -33 56 -18 73 12 15 3 58 -13 69 -6 4 -21 8
-32 8 -12 0 -43 9 -69 21 -25 11 -49 19 -51 16 -9 -9 84 -57 110 -57 30 0 37
-9 29 -39 -5 -19 -11 -21 -40 -16 -19 3 -48 12 -64 21 -17 8 -36 13 -42 11
-14 -5 90 -57 114 -57 25 0 30 -12 11 -26 -10 -8 -12 -13 -4 -14 6 0 12 -6 12
-14 0 -9 12 -16 28 -18 15 -2 26 -7 24 -13 -4 -15 -122 -6 -155 12 -41 21 -27
27 18 9 43 -18 55 -20 55 -7 0 5 -10 12 -22 16 -33 9 -58 19 -108 43 -53 26
-61 27 -54 7 5 -11 1 -14 -12 -10 -18 6 -18 6 0 -7 63 -44 92 -60 117 -65 16
-3 29 -9 29 -13 0 -4 6 -8 13 -7 39 1 51 -3 39 -15 -21 -21 -14 -35 18 -30 25
4 30 1 30 -17 0 -17 -6 -21 -30 -21 -16 0 -30 5 -30 10 0 6 -11 8 -24 4 -25
-6 -51 4 -190 73 -38 19 -72 30 -75 25 -3 -5 -19 -12 -34 -16 -23 -5 -34 -1
-65 29 -23 21 -43 33 -53 29 -12 -3 -16 1 -15 12 1 12 -10 20 -31 26 -30 8
-83 50 -83 66 0 4 -11 24 -25 45 -32 47 -41 117 -22 177 15 46 22 49 66 35 17
-5 22 -4 19 6 -3 8 -14 15 -26 17 -28 4 -29 22 -2 22 11 0 20 5 20 10 0 6 -4
10 -10 10 -5 0 -10 8 -10 17 0 13 3 14 12 5 7 -7 21 -12 32 -12 20 0 19 2 -4
21 -24 20 -24 20 -2 14 24 -7 29 4 10 23 -9 9 -9 12 1 12 8 0 19 6 25 14 9 13
17 13 49 2 45 -17 63 0 18 17 -17 6 -31 14 -31 18 0 3 18 13 40 22 22 8 40 12
40 7 0 -4 -7 -11 -16 -14 -17 -7 -10 -26 11 -26 7 0 21 7 30 16 14 15 17 15
28 1 7 -8 21 -17 31 -19 12 -2 -9 -15 -54 -33 -96 -39 -170 -111 -194 -187
-21 -67 -24 -174 -7 -216 16 -38 34 -43 25 -7 -7 30 6 33 24 5 7 -11 17 -20
22 -20 10 0 49 -31 95 -75 24 -23 75 -48 75 -37 0 4 -26 25 -57 47 -83 58
-164 142 -156 160 4 12 14 14 37 10 26 -5 29 -4 16 7 -34 30 -42 57 -25 90 8
17 15 37 15 45 0 7 5 13 10 13 6 0 10 8 10 18 0 9 20 36 44 59 l44 42 25 -32
c14 -17 28 -29 32 -25 4 4 -2 19 -13 33 -17 22 -19 30 -10 45 7 10 19 19 27
19 9 1 34 3 56 6 35 5 44 2 79 -30 21 -19 42 -35 47 -35 18 0 20 22 3 35 -18
13 -18 14 -1 15 24 0 96 -36 132 -66 l30 -26 -30 5 c-16 2 -38 8 -47 12 -29
12 -21 -14 7 -27 14 -6 25 -15 25 -19 0 -4 16 -3 35 1 20 4 38 4 41 -1 3 -5 0
-9 -5 -9 -6 0 -11 -4 -11 -10 0 -13 47 -13 55 0 3 5 0 17 -7 26 -66 82 -169
144 -239 144 -16 0 -67 20 -115 45 -47 24 -107 47 -133 51 -25 4 -50 10 -56
14 -5 5 -28 11 -50 15 -22 3 -51 8 -65 11 -14 2 -36 -2 -50 -10z m132 -47 c19
-10 19 -11 -7 -25 -15 -8 -33 -14 -39 -14 -21 0 -103 -86 -126 -131 -19 -36
-23 -60 -23 -139 0 -52 -2 -89 -4 -82 -3 6 -17 12 -31 12 -15 0 -33 4 -40 9
-22 14 -31 79 -20 145 11 67 22 86 39 69 12 -12 52 -5 43 8 -3 5 -15 9 -27 9
-17 0 -19 2 -8 9 8 5 20 7 28 4 20 -8 59 35 44 50 -8 8 -11 7 -11 -5 0 -10
-11 -17 -30 -20 -33 -5 -38 6 -14 33 12 13 25 16 48 12 27 -6 29 -5 18 9 -15
19 -3 31 18 17 8 -5 26 -9 39 -9 20 0 21 2 11 15 -11 13 -7 15 24 15 20 0 36
5 36 10 0 13 6 13 32 -1z m-307 -129 c-3 -5 -10 -10 -16 -10 -5 0 -9 5 -9 10
0 6 7 10 16 10 8 0 12 -4 9 -10z m-25 -41 c0 -5 -7 -9 -15 -9 -8 0 -15 7 -15
15 0 9 6 12 15 9 8 -4 15 -10 15 -15z m195 -19 c3 -5 1 -10 -4 -10 -6 0 -11 5
-11 10 0 6 2 10 4 10 3 0 8 -4 11 -10z m-218 -16 c-3 -3 -12 -4 -19 -1 -8 3
-5 6 6 6 11 1 17 -2 13 -5z m-2 -34 c3 -5 -3 -10 -14 -10 -12 0 -21 5 -21 10
0 6 6 10 14 10 8 0 18 -4 21 -10z m-5 -40 c0 -5 -4 -10 -10 -10 -5 0 -10 5
-10 10 0 6 5 10 10 10 6 0 10 -4 10 -10z m19 -29 c8 -5 11 -16 8 -25 -4 -9 4
-23 20 -36 27 -21 27 -35 0 -24 -16 6 -57 67 -57 85 0 11 11 11 29 0z m-34
-61 c3 -5 2 -10 -4 -10 -5 0 -13 5 -16 10 -3 6 -2 10 4 10 5 0 13 -4 16 -10z
m55 -60 c0 -5 -7 -10 -16 -10 -8 0 -12 5 -9 10 3 6 10 10 16 10 5 0 9 -4 9
-10z m157 -65 c18 -21 33 -41 33 -45 0 -5 20 -23 45 -41 41 -30 45 -36 45 -75
0 -50 -57 -143 -121 -198 -52 -44 -68 -48 -117 -26 -39 18 -52 39 -52 89 0 27
-26 61 -47 61 -18 0 -17 -19 2 -26 8 -4 15 -11 15 -18 0 -16 -111 -16 -127 0
-22 21 -15 40 33 86 43 42 46 49 54 114 12 105 11 104 90 118 14 2 45 3 69 1
37 -2 51 -9 78 -40z m459 -220 c38 -19 76 -35 84 -35 8 0 24 -7 34 -15 11 -8
33 -15 50 -15 22 0 27 -3 19 -11 -11 -11 -113 11 -165 38 -15 7 -32 13 -38 13
-20 0 -10 -15 18 -26 15 -6 50 -21 79 -33 28 -11 60 -21 69 -21 14 0 15 -3 6
-12 -9 -9 -22 -9 -54 -1 -24 7 -45 8 -48 3 -3 -5 -26 -3 -50 4 l-45 13 0 51
c0 39 -5 55 -20 66 -32 24 -14 19 61 -19z m249 25 c3 -5 -3 -10 -14 -10 -12 0
-21 5 -21 10 0 6 6 10 14 10 8 0 18 -4 21 -10z m-636 -149 c-40 -58 -59 -74
-59 -50 0 13 91 121 97 115 2 -2 -15 -31 -38 -65z m-296 24 c37 -15 54 -32 43
-42 -3 -4 -16 3 -29 15 -13 12 -28 22 -35 22 -6 0 -14 5 -17 10 -8 13 -4 13
38 -5z m344 -64 c-6 -14 -16 -32 -21 -40 -9 -12 -7 -13 8 -8 15 6 17 4 12 -17
-3 -13 -2 -26 4 -28 6 -2 4 -22 -5 -52 -11 -36 -12 -52 -4 -57 13 -8 3 -69
-12 -69 -5 0 -9 4 -9 8 0 4 -12 8 -27 7 -38 0 -41 35 -11 101 41 91 41 91 6
57 -19 -18 -40 -33 -46 -33 -7 0 -18 -14 -24 -31 -6 -18 -14 -27 -19 -22 -11
11 17 73 32 73 14 0 59 47 59 61 0 6 -14 -3 -32 -20 -32 -31 -48 -39 -48 -23
0 20 102 117 125 118 22 2 23 0 12 -25z m430 23 c-3 -3 -12 -4 -19 -1 -8 3 -5
6 6 6 11 1 17 -2 13 -5z m-47 -24 c0 -5 -7 -7 -15 -4 -8 4 -15 8 -15 10 0 2 7
4 15 4 8 0 15 -4 15 -10z m-68 -32 c-7 -7 -12 -8 -12 -2 0 14 12 26 19 19 2
-3 -1 -11 -7 -17z m-527 2 c18 -7 33 -7 46 0 25 14 44 3 28 -16 -16 -20 -49
-17 -84 6 -33 22 -30 25 10 10z m611 -5 c18 -15 18 -15 -5 -13 -14 2 -26 9
-29 16 -5 17 10 15 34 -3z m-710 -37 c33 -15 30 -28 -6 -28 -16 0 -41 -5 -55
-12 -33 -15 -49 0 -39 36 6 25 10 27 41 21 19 -3 46 -11 59 -17z m741 -34 c-3
-3 -12 -4 -19 -1 -8 3 -5 6 6 6 11 1 17 -2 13 -5z m-651 -41 c32 -26 22 -72
-23 -100 -42 -28 -49 -28 -107 -3 -50 21 -69 57 -45 86 20 24 68 46 89 39 10
-3 21 -1 25 5 7 11 25 3 61 -27z m618 -59 c4 -9 -7 -32 -27 -57 -19 -23 -60
-79 -92 -124 -32 -46 -62 -83 -67 -83 -4 0 -8 -7 -8 -15 0 -29 -33 -34 -153
-23 -100 9 -120 14 -128 30 -6 11 -7 27 -4 36 6 15 8 15 14 -3 7 -16 18 -19
72 -20 35 -1 79 -5 96 -9 39 -9 45 -3 188 175 100 124 98 122 109 93z m-374
-230 c0 -2 -12 -4 -26 -4 -14 0 -23 4 -20 9 6 8 46 4 46 -5z m-197 -166 c15
-64 18 -115 6 -143 -6 -16 -15 -48 -18 -69 -3 -22 -12 -41 -18 -44 -18 -5 -18
230 -1 258 17 26 25 25 31 -2z m-60 -223 c-1 -81 -6 -167 -11 -189 -36 -146
-45 -176 -50 -171 -3 3 -4 30 -3 60 1 32 -2 55 -8 55 -6 0 -9 -39 -8 -106 2
-99 0 -107 -19 -121 l-22 -14 2 238 c1 225 2 240 23 278 l22 40 1 -149 c0 -95
3 -147 10 -140 5 5 10 82 11 172 1 89 5 162 9 162 4 0 10 9 13 21 3 12 12 19
19 17 10 -4 13 -38 11 -153z m-1276 19 c39 -15 42 -19 48 -63 5 -43 -9 -234
-20 -250 -2 -4 -7 -48 -10 -97 -3 -49 -8 -123 -11 -166 -3 -48 -1 -79 6 -83 5
-3 10 -12 10 -18 -1 -7 -10 -1 -21 13 -19 22 -20 33 -15 105 4 44 9 115 11
158 3 43 10 98 15 121 15 67 23 246 10 246 -5 0 -10 -7 -10 -16 0 -8 -5 -12
-10 -9 -6 4 -10 12 -9 18 4 31 -1 41 -13 29 -17 -17 -28 -15 -28 4 0 8 -4 13
-8 10 -5 -3 -12 -58 -16 -123 -8 -136 -38 -300 -49 -267 -4 11 0 61 9 110 29
156 31 172 26 204 -4 31 -17 40 -25 18 -2 -7 -2 -27 0 -44 3 -18 -2 -68 -11
-111 -9 -44 -15 -118 -14 -166 1 -73 4 -86 20 -90 42 -11 26 -76 -36 -144 -44
-49 -76 -41 -76 18 0 28 -17 23 -23 -7 -6 -32 22 -64 57 -64 23 0 63 33 98 81
18 24 18 24 12 -17 -6 -38 -3 -45 32 -82 22 -22 48 -44 59 -50 19 -10 19 -11
-5 -20 -14 -6 -52 -18 -85 -27 -33 -9 -69 -20 -80 -25 -11 -5 -42 -16 -70 -24
-27 -8 -57 -17 -66 -21 -13 -5 -20 2 -28 27 -14 41 -53 66 -118 75 -61 8 -103
25 -128 53 -19 21 -19 23 -2 69 9 27 17 60 17 74 0 14 5 27 12 29 23 8 -4 28
-37 28 -36 0 -54 15 -37 32 7 7 29 3 69 -11 76 -27 129 -28 143 -2 13 26 13
71 -1 71 -5 0 -9 -8 -8 -17 3 -33 -1 -42 -22 -54 -18 -9 -25 -7 -49 16 -26 25
-28 32 -23 75 3 30 1 50 -6 54 -7 5 -11 -2 -11 -18 0 -32 -35 -36 -45 -6 -3
11 -10 20 -15 20 -5 0 -20 4 -34 10 l-26 9 23 34 c22 34 44 50 142 103 28 14
52 30 53 35 2 5 9 9 15 9 6 0 49 23 96 51 89 54 194 95 246 97 17 1 49 -6 72
-14z m91 -112 c2 -37 -4 -112 -12 -167 -9 -55 -19 -147 -23 -205 -8 -138 -8
-141 1 -167 10 -32 -8 -29 -23 4 -8 17 -10 52 -6 102 3 42 7 101 9 131 2 30 9
87 16 125 6 39 12 114 13 168 1 112 19 119 25 9z m-113 -47 c-3 -38 -11 -87
-16 -108 -6 -21 -10 -65 -10 -98 -1 -61 -13 -79 -22 -31 -6 29 7 171 25 286
10 58 13 65 21 45 5 -13 6 -55 2 -94z m157 22 c0 -36 -3 -70 -7 -77 -4 -6 -8
-52 -10 -103 -9 -235 -19 -367 -27 -367 -5 0 -7 51 -3 123 4 67 8 167 10 222
5 165 17 287 27 277 5 -5 10 -39 10 -75z m-127 -24 c-4 -49 -11 -108 -16 -133
-5 -28 -6 -10 -2 50 4 52 6 112 6 133 0 20 4 37 9 37 6 0 7 -33 3 -87z m161
-6 c-2 -34 -7 -84 -11 -112 -3 -27 -8 -95 -10 -150 -5 -107 -20 -233 -25 -200
-1 11 -2 38 -1 60 1 22 3 92 5 155 3 63 9 142 15 175 6 33 11 79 11 103 0 25
4 41 10 37 5 -3 8 -34 6 -68z m28 -79 c-4 -57 -7 -114 -7 -128 2 -42 -9 -212
-13 -207 -11 11 -11 260 0 313 7 33 11 74 10 92 -1 17 2 32 8 32 6 0 7 -37 2
-102z m39 80 c2 -7 0 -26 -5 -43 -11 -39 -10 -157 1 -187 5 -14 5 -46 -1 -78
-5 -30 -9 -97 -8 -148 1 -85 -1 -93 -17 -90 -13 2 -18 14 -20 43 -1 22 1 31 4
20 13 -51 18 -26 15 66 -5 128 8 429 18 429 5 0 10 -6 13 -12z m21 -144 c3 -8
2 -12 -4 -9 -6 3 -10 10 -10 16 0 14 7 11 14 -7z m680 -224 c-5 -120 -8 -137
-26 -152 -39 -34 -41 -25 -32 115 4 72 8 156 9 186 0 41 5 56 20 68 19 13 20
12 27 -34 3 -26 4 -109 2 -183z m-64 170 c0 -5 -5 -89 -11 -187 -11 -182 -19
-213 -57 -213 -13 0 -14 19 -7 138 4 75 8 146 10 157 1 11 3 32 4 47 1 36 61
92 61 58z m-89 -178 c-6 -66 -11 -149 -11 -185 0 -65 -16 -97 -40 -82 -21 13
6 362 31 391 26 32 32 -3 20 -124z m-66 -11 c-3 -42 -8 -120 -10 -175 -5 -116
-11 -138 -33 -134 -15 3 -17 19 -16 118 0 149 12 246 31 265 27 27 35 6 28
-74z m-68 0 c-3 -16 -9 -98 -13 -182 -4 -108 -11 -159 -20 -170 -8 -8 -14 -26
-14 -40 l-1 -24 -19 24 c-15 17 -17 27 -10 36 6 7 8 24 5 38 -4 14 -2 90 4
169 10 125 14 145 32 161 31 25 42 21 36 -12z m1153 -1 c-30 -57 -128 -185
-135 -178 -9 9 11 52 37 78 13 14 41 46 61 73 40 50 55 60 37 27z m-1236 -87
c-2 -27 -6 -97 -10 -157 l-6 -108 -26 26 c-25 25 -26 30 -26 136 1 103 3 111
25 129 38 32 46 26 43 -26z m-2302 -26 c20 -19 80 -55 157 -92 38 -19 72 -38
76 -44 9 -16 -15 -92 -42 -128 -21 -28 -27 -31 -61 -26 -74 10 -103 26 -167
89 -59 59 -77 84 -59 84 6 0 69 -27 114 -50 9 -4 31 -11 49 -15 55 -12 33 16
-30 38 -29 10 -56 22 -59 26 -3 4 -24 12 -48 18 -37 10 -44 9 -52 -7 -15 -29
-13 -36 26 -74 30 -29 35 -38 25 -50 -17 -21 -68 -35 -116 -33 -51 3 -60 30
-18 62 15 13 25 26 22 30 -4 3 -20 -6 -38 -20 -17 -15 -35 -24 -41 -20 -6 3
21 38 60 78 38 39 70 75 70 79 0 4 7 8 15 8 8 0 15 4 15 8 0 5 9 18 20 30 23
25 62 29 82 9z m2216 -67 c-2 -82 -5 -89 -26 -68 -16 16 -16 120 0 136 24 24
28 11 26 -68z m-62 13 c-10 -10 -19 5 -10 18 6 11 8 11 12 0 2 -7 1 -15 -2
-18z m-366 -38 c0 -8 -4 -15 -10 -15 -5 0 -10 7 -10 15 0 8 5 15 10 15 6 0 10
-7 10 -15z m364 -26 c-2 -3 10 -19 26 -34 17 -16 30 -34 30 -41 0 -7 3 -14 8
-16 4 -1 27 -27 51 -56 39 -47 49 -82 23 -82 -11 0 -92 86 -92 98 0 5 -10 20
-23 33 -26 28 -77 95 -77 103 0 2 7 12 16 21 15 14 17 14 29 -2 7 -10 12 -21
9 -24z m-69 -26 c13 -15 41 -49 63 -75 40 -46 59 -84 49 -95 -3 -2 -36 -4 -74
-4 -82 1 -116 -15 -161 -75 -33 -45 -58 -56 -68 -29 -4 8 -11 15 -16 15 -6 0
-8 -7 -5 -15 4 -8 2 -17 -3 -20 -11 -7 -25 40 -16 54 4 6 30 17 58 26 28 8 62
22 75 30 26 17 31 45 8 45 -8 0 -15 -7 -15 -15 0 -8 -5 -15 -12 -15 -10 0 -76
-27 -117 -49 -15 -8 -21 -18 -39 -61 -33 -83 -26 -77 -86 -78 -52 0 -57 2 -91
39 -37 41 -42 54 -24 65 6 3 8 17 4 31 -6 26 8 51 84 143 72 86 74 88 109 97
18 4 82 9 143 11 110 3 110 3 134 -25z m1335 6 c0 -6 -4 -7 -10 -4 -5 3 -10
11 -10 16 0 6 5 7 10 4 6 -3 10 -11 10 -16z m-51 -131 c27 -57 52 -113 56
-125 3 -13 10 -23 15 -23 8 0 41 -51 101 -158 22 -39 23 -42 7 -42 -14 1 -51
55 -87 128 -12 24 -30 51 -39 60 -24 24 -72 107 -72 125 0 8 -13 39 -30 70
-35 66 -35 67 -14 67 10 0 33 -37 63 -102z m-44 -20 c21 -46 62 -119 90 -163
82 -127 96 -153 86 -159 -8 -5 -43 46 -91 133 -8 15 -25 38 -37 51 -12 12 -29
38 -38 56 -9 19 -21 34 -26 34 -10 0 12 -42 53 -102 10 -14 18 -31 18 -36 0
-5 6 -12 14 -15 8 -3 26 -31 40 -62 30 -67 30 -66 12 -59 -7 3 -29 35 -47 71
-18 36 -39 67 -46 70 -7 3 -13 9 -13 15 0 5 -11 24 -24 41 -24 34 -96 173 -96
188 0 5 7 9 15 9 8 0 15 -4 15 -9 0 -13 52 -103 57 -98 2 3 -8 30 -22 60 -28
63 -32 86 -12 68 8 -6 31 -48 52 -93z m-95 -1 c14 -23 32 -58 40 -79 8 -20 22
-44 30 -55 28 -33 56 -78 73 -115 10 -20 22 -40 27 -43 13 -8 13 -25 0 -25 -6
0 -14 8 -17 18 -4 9 -9 19 -12 22 -4 3 -15 21 -25 41 -19 35 -56 69 -56 50 0
-6 5 -13 10 -16 6 -3 10 -11 10 -16 0 -6 -7 -3 -16 6 -10 9 -14 24 -10 38 3
15 -3 36 -19 60 -14 20 -25 42 -25 49 0 7 -11 33 -25 57 -27 47 -29 51 -17 51
4 0 18 -19 32 -43z m-7 -67 c24 -49 39 -91 34 -93 -6 -2 2 -26 16 -55 14 -29
24 -52 22 -52 -11 0 -155 230 -155 246 0 11 14 -4 33 -37 37 -64 56 -89 68
-89 5 0 -4 19 -21 42 -16 22 -30 45 -30 50 0 6 -9 22 -20 38 -18 25 -18 40 1
40 4 0 27 -40 52 -90z m-781 -40 c17 -25 52 -69 76 -98 30 -35 42 -56 35 -63
-20 -20 -62 10 -112 83 -28 40 -59 84 -70 98 -24 29 -26 41 -9 58 14 14 21 6
80 -78z m-1979 50 c-5 -17 0 -20 26 -20 18 0 30 -4 26 -10 -3 -5 -13 -6 -21
-3 -9 3 -20 0 -24 -8 -7 -10 -11 -8 -18 11 -10 26 -6 50 8 50 5 0 6 -9 3 -20z
m4003 -1 c10 -12 42 -36 69 -54 28 -18 59 -42 69 -54 11 -11 25 -21 31 -21 7
0 15 -7 19 -15 3 -8 17 -20 31 -27 14 -6 25 -19 25 -28 0 -32 -77 -181 -108
-210 -17 -16 -68 -34 -99 -35 -7 0 -18 -7 -25 -16 -16 -20 -64 -44 -180 -93
-48 -20 -125 -57 -170 -82 -127 -69 -285 -144 -306 -144 -10 0 -22 4 -27 9 -6
5 -18 6 -29 2 -17 -7 -17 -8 -2 -23 15 -15 13 -18 -19 -38 -19 -12 -40 -18
-46 -15 -11 8 -7 115 12 310 17 173 16 171 57 204 21 16 56 37 77 47 61 26
137 65 165 84 14 10 72 42 130 72 149 79 222 118 245 134 28 20 59 17 81 -7z
m-2217 -25 c24 -20 34 -23 50 -15 11 6 26 11 33 11 19 0 169 -205 156 -214 -2
-1 -20 -15 -40 -30 -31 -23 -48 -28 -105 -29 -63 -2 -68 0 -71 21 -4 27 -22
29 -22 2 0 -22 -1 -23 -24 -14 -9 3 -16 15 -16 25 0 10 -5 19 -11 19 -13 0
-126 -120 -153 -162 -13 -21 -23 -27 -35 -22 -9 4 -36 9 -61 12 -55 5 -120 54
-120 89 0 14 -7 31 -15 39 -24 25 -18 37 48 100 34 33 80 86 102 116 22 31 49
61 60 66 11 6 59 11 107 11 79 1 89 -1 117 -25z m-791 -60 c26 -7 28 -21 6
-45 -22 -24 -54 -8 -54 26 0 26 9 29 48 19z m-188 -136 c0 -2 -14 -41 -30 -88
-16 -47 -30 -93 -30 -102 0 -10 -4 -18 -10 -18 -17 0 -11 39 15 114 14 39 28
77 30 84 4 10 25 18 25 10z m-165 -68 c-3 -5 -11 -10 -16 -10 -6 0 -7 5 -4 10
3 6 11 10 16 10 6 0 7 -4 4 -10z m2270 -20 c3 -6 -4 -10 -17 -10 -18 0 -20 2
-8 10 19 12 18 12 25 0z m30 -10 c3 -5 1 -10 -4 -10 -6 0 -11 5 -11 10 0 6 2
10 4 10 3 0 8 -4 11 -10z m116 -147 c-12 -59 -26 -133 -32 -163 -6 -30 -15
-68 -20 -84 -5 -16 -9 -41 -9 -55 -1 -24 -2 -24 -11 -7 -8 13 -8 34 0 74 15
76 14 102 -4 102 -13 0 -15 8 -10 38 14 82 38 190 46 203 19 32 18 -6 -4 -110
-14 -61 -21 -111 -17 -111 9 0 49 153 55 205 2 17 4 32 4 35 1 2 6 -1 12 -7 9
-9 6 -39 -10 -120z m-76 50 c-7 -32 -17 -89 -23 -128 -31 -195 -37 -225 -44
-225 -11 0 2 199 18 254 8 27 14 60 14 73 0 32 28 96 38 89 6 -3 4 -30 -3 -63z
m141 40 c-3 -16 -8 -50 -12 -78 -3 -27 -12 -75 -19 -105 -8 -30 -19 -93 -26
-140 -11 -84 -21 -111 -36 -96 -12 12 -6 93 17 201 11 55 23 116 26 135 8 60
27 110 41 110 11 0 13 -8 9 -27z m44 -10 c0 -20 3 -24 11 -16 9 9 15 8 26 -3
12 -11 18 -12 29 -3 18 15 18 9 0 -105 -17 -99 -26 -120 -26 -57 0 27 -4 40
-10 36 -7 -5 -9 11 -6 47 3 29 3 44 0 33 -10 -36 -27 -43 -19 -8 3 18 2 34 -4
38 -9 5 -17 -37 -12 -67 0 -4 -4 -20 -10 -35 -14 -37 -50 -244 -44 -254 3 -4
1 -10 -4 -13 -15 -10 -24 53 -13 98 6 22 15 70 21 106 19 122 33 205 37 218 6
23 24 12 24 -15z m80 17 c0 -5 -4 -10 -10 -10 -5 0 -10 5 -10 10 0 6 5 10 10
10 6 0 10 -4 10 -10z m-310 -46 c0 -8 -5 -36 -12 -62 -10 -41 -13 -44 -18 -22
-7 29 8 100 21 100 5 0 9 -7 9 -16z m-2210 -59 c0 -10 -31 -122 -44 -160 -15
-42 -49 -153 -52 -170 -4 -21 -85 -229 -93 -239 -4 -6 -23 -53 -41 -103 -34
-96 -47 -117 -67 -105 -11 7 20 94 93 260 8 18 14 41 14 52 0 10 4 21 9 24 4
3 18 34 30 68 12 35 27 72 33 83 6 11 15 36 19 55 9 45 59 182 70 195 5 5 9
17 9 27 0 10 5 18 10 18 6 0 10 -2 10 -5z m2425 -180 c-9 -59 -14 -113 -11
-121 3 -7 1 -16 -3 -19 -14 -8 -19 27 -10 80 21 145 29 179 35 172 3 -3 -2
-54 -11 -112z m38 38 c-3 -21 -10 -45 -15 -53 -6 -10 -8 -4 -4 19 3 18 6 42 6
52 0 11 4 19 9 19 6 0 7 -17 4 -37z m-2336 12 c8 -23 -26 -58 -44 -44 -16 14
-17 31 -1 47 17 17 37 15 45 -3z m2119 -62 c-11 -81 -17 -103 -27 -103 -6 0
-8 8 -5 18 2 9 10 43 16 75 14 69 25 76 16 10z m-1356 16 c0 -6 -4 -7 -10 -4
-5 3 -10 11 -10 16 0 6 5 7 10 4 6 -3 10 -11 10 -16z m60 1 c0 -5 -7 -10 -15
-10 -8 0 -15 5 -15 10 0 6 7 10 15 10 8 0 15 -4 15 -10z m1220 -27 c0 -38 -14
-72 -24 -62 -9 9 5 99 15 99 5 0 9 -17 9 -37z m316 -49 c-5 -99 -20 -129 -29
-60 -7 48 10 146 25 146 5 0 7 -39 4 -86z m-1725 -1 c27 -25 47 -48 45 -51 -9
-8 -116 69 -116 84 0 24 19 16 71 -33z m1678 -35 c0 -35 -2 -39 -9 -21 -8 19
-3 63 6 63 2 0 4 -19 3 -42z m-1540 -63 c73 -54 107 -96 115 -140 20 -104 25
-135 36 -205 6 -41 15 -86 20 -100 5 -14 15 -68 21 -120 11 -101 24 -127 65
-132 22 -3 23 -5 11 -28 -31 -59 -40 -101 -48 -215 -4 -66 -11 -146 -15 -178
-6 -54 -5 -59 15 -64 27 -7 28 -23 1 -23 -12 0 -33 -8 -48 -19 -45 -30 -191
-111 -201 -111 -6 0 -25 -13 -43 -29 -18 -15 -55 -40 -83 -55 -27 -14 -72 -39
-100 -56 -50 -30 -112 -60 -124 -60 -4 0 -38 -22 -76 -50 -38 -27 -75 -50 -81
-50 -6 0 -27 -11 -46 -24 -19 -13 -109 -62 -200 -109 -91 -47 -185 -99 -209
-115 -24 -16 -59 -34 -77 -40 -18 -6 -46 -21 -62 -32 -28 -20 -44 -21 -252
-22 -123 -1 -270 0 -328 1 -58 2 -170 -2 -250 -8 -162 -13 -249 -16 -256 -8
-3 3 2 22 11 43 16 40 13 50 -20 56 -11 2 -20 10 -20 19 0 9 -19 37 -43 64
-45 51 -50 66 -29 83 18 15 85 -48 93 -88 4 -17 10 -32 14 -35 11 -7 71 62
109 125 19 30 48 73 65 95 34 43 39 52 76 121 14 26 33 52 43 58 10 6 29 32
42 57 13 25 43 70 67 100 24 30 56 73 71 97 15 24 34 45 41 48 8 3 49 -7 92
-22 69 -25 87 -37 144 -96 36 -37 70 -68 76 -68 6 0 20 -13 32 -30 12 -16 35
-33 50 -36 48 -11 185 -55 247 -80 159 -64 246 -73 305 -34 14 9 53 35 87 58
34 23 65 42 69 42 4 0 29 18 55 40 26 22 50 40 54 40 6 0 99 70 137 104 17 15
64 149 71 203 3 20 10 29 26 31 13 2 26 14 32 28 15 40 29 235 29 401 0 131 4
166 25 245 13 51 27 104 31 118 3 14 10 34 14 45 5 11 15 43 24 70 22 74 40
125 45 125 2 0 24 -16 50 -35z m1361 -147 c20 -62 43 -126 52 -143 8 -16 27
-65 42 -107 25 -70 26 -80 13 -105 l-15 -27 -17 34 c-43 84 -145 384 -145 428
0 19 20 45 28 37 3 -2 21 -55 42 -117z m32 110 c14 -12 71 -176 84 -245 4 -18
13 -33 20 -33 16 0 19 16 4 25 -5 3 -10 16 -10 28 0 12 -14 66 -32 119 -29 89
-32 127 -8 102 13 -13 80 -205 80 -230 0 -11 -7 -43 -16 -70 -9 -27 -18 -56
-21 -64 -4 -12 -6 -12 -15 3 -26 48 -116 308 -111 325 3 12 -2 22 -12 26 -18
6 -11 26 9 26 7 0 19 -6 28 -12z m140 -63 c5 -22 7 -53 6 -70 l-3 -30 -17 38
c-10 21 -20 54 -24 73 -6 31 -4 36 12 32 12 -2 21 -16 26 -43z m-226 -100 c7
-43 54 -171 105 -287 27 -62 30 -78 24 -126 -6 -47 -9 -53 -21 -40 -8 7 -32
65 -53 128 -22 63 -55 157 -74 207 -28 73 -33 100 -27 127 16 71 33 68 46 -9z
m-1901 -35 c17 -4 55 -18 85 -32 30 -15 86 -36 124 -48 38 -12 83 -31 100 -41
17 -10 39 -19 48 -19 9 0 18 -6 21 -12 4 -14 3 -20 -37 -173 -14 -55 -26 -110
-26 -124 0 -13 -9 -39 -21 -57 -20 -33 -39 -44 -39 -24 0 6 3 10 8 10 11 0 32
51 32 76 0 13 5 35 11 51 18 47 49 201 43 215 -6 14 -96 59 -157 78 -20 6 -73
29 -117 51 -94 46 -130 50 -130 16 0 -22 -34 -124 -45 -135 -12 -13 -13 7 0
59 24 104 35 131 54 124 9 -4 30 -11 46 -15z m-374 -46 c23 -20 14 -44 -17
-44 -18 0 -24 5 -24 23 0 39 14 46 41 21z m2247 -62 c13 -37 38 -107 54 -157
16 -49 41 -116 55 -147 24 -53 25 -60 13 -102 -7 -25 -16 -46 -21 -46 -7 0
-29 62 -29 85 0 6 -9 27 -19 46 -11 20 -34 81 -51 135 -18 55 -36 108 -40 119
-15 35 -19 96 -9 122 12 33 17 27 47 -55z m-878 52 c0 -8 -4 -12 -10 -9 -5 3
-10 10 -10 16 0 5 5 9 10 9 6 0 10 -7 10 -16z m-1977 -56 c18 -18 60 -58 93
-89 118 -113 150 -149 129 -149 -19 0 -265 241 -265 260 0 16 7 12 43 -22z
m55 18 c34 -18 282 -268 282 -284 0 -25 -23 -8 -144 111 -69 67 -136 132 -150
145 -24 20 -34 42 -21 42 4 0 18 -6 33 -14z m-46 -93 c136 -142 134 -139 96
-127 -19 6 -50 36 -157 154 -17 19 -31 38 -31 42 0 20 24 2 92 -69z m148 60
c0 -5 20 -21 45 -36 25 -16 45 -33 45 -37 0 -4 20 -29 46 -55 25 -26 44 -54
42 -63 -2 -12 -33 13 -101 83 -94 97 -108 115 -87 115 6 0 10 -3 10 -7z m1628
-83 c0 -8 -6 -1 -13 15 -8 17 -14 39 -14 50 0 13 5 8 14 -15 7 -19 13 -42 13
-50z m1063 -110 c18 -58 38 -114 45 -125 7 -11 22 -52 35 -92 20 -64 21 -77
10 -113 -7 -23 -14 -40 -17 -37 -2 2 -11 31 -19 63 -9 32 -18 66 -22 74 -3 8
-7 20 -7 25 -5 34 -20 82 -31 95 -12 14 -39 99 -66 205 -6 21 -7 51 -3 65 6
24 7 24 24 -15 9 -22 32 -87 51 -145z m-2892 113 c28 -32 51 -61 51 -65 0 -10
-12 -10 -26 0 -18 12 -95 122 -85 122 5 0 32 -26 60 -57z m384 -19 c25 -20 38
-64 20 -64 -13 0 -103 97 -103 110 0 12 34 -6 83 -46z m-441 19 c20 -18 24
-43 7 -43 -6 0 -13 9 -16 20 -3 11 -9 20 -14 20 -5 0 -9 5 -9 10 0 15 11 12
32 -7z m978 0 c0 -14 -19 -38 -25 -32 -8 8 5 39 16 39 5 0 9 -3 9 -7z m3336
-57 c13 -51 4 -86 -23 -86 -29 0 -63 62 -63 116 0 14 24 23 54 21 15 -2 23
-15 32 -51z m-2406 -53 c5 -43 12 -87 16 -98 6 -18 5 -18 -9 -5 -11 10 -18 43
-23 105 -8 109 5 107 16 -2z m980 -15 c12 -46 26 -88 31 -93 12 -16 66 -180
84 -257 13 -59 13 -70 0 -102 -8 -20 -19 -36 -23 -36 -4 0 -13 32 -20 71 -25
146 -121 442 -121 374 0 -11 8 -38 19 -60 11 -22 20 -51 20 -65 0 -14 10 -52
21 -85 28 -80 57 -198 52 -207 -7 -12 -40 -9 -51 5 -12 15 -40 107 -52 174 -4
26 -16 73 -24 103 -21 72 -22 124 -2 155 9 13 16 42 16 63 0 39 7 55 20 47 4
-3 18 -42 30 -87z m-1947 20 c-3 -15 -9 -25 -14 -23 -4 3 -3 17 3 30 14 31 18
28 11 -7z m1 -83 c3 -8 2 -15 -3 -15 -5 0 -14 7 -21 15 -10 12 -10 15 3 15 8
0 17 -7 21 -15z m1836 -5 c0 -5 -5 -10 -11 -10 -5 0 -7 5 -4 10 3 6 8 10 11
10 2 0 4 -4 4 -10z m-590 -27 c0 -16 6 -48 14 -73 8 -25 19 -86 26 -135 13
-86 12 -95 -15 -217 -29 -133 -53 -174 -40 -70 5 40 4 54 -4 47 -6 -6 -13 -37
-17 -70 -9 -77 -19 -105 -40 -105 -13 0 -15 7 -9 37 4 21 9 42 13 47 7 13 10
57 4 74 -2 6 -10 12 -17 12 -15 0 -25 -45 -25 -115 0 -54 -17 -82 -43 -72 -11
4 -10 23 3 103 9 55 12 101 7 103 -19 7 -30 -21 -32 -81 -3 -92 -13 -128 -37
-128 -19 0 -20 4 -13 88 4 48 11 109 16 136 13 71 12 119 -3 114 -8 -3 -16
-37 -21 -89 -8 -85 -19 -111 -37 -93 -6 6 -5 47 4 116 8 58 12 124 10 145 -4
24 2 60 16 98 12 33 26 74 32 92 10 29 16 33 57 38 25 3 60 10 76 14 59 17 75
14 75 -16z m-1210 -3 c0 -5 -2 -10 -4 -10 -3 0 -8 5 -11 10 -3 6 -1 10 4 10 6
0 11 -4 11 -10z m75 -47 c30 -20 53 -39 51 -41 -7 -6 -80 35 -100 57 -28 31
-14 26 49 -16z m1705 17 c0 -5 -5 -10 -11 -10 -5 0 -7 5 -4 10 3 6 8 10 11 10
2 0 4 -4 4 -10z m61 -106 c9 -43 26 -112 37 -151 l19 -73 -28 0 c-33 0 -36 4
-54 75 -30 115 -31 242 -2 232 6 -2 19 -39 28 -83z m314 66 c3 -5 1 -10 -4
-10 -6 0 -11 5 -11 10 0 6 2 10 4 10 3 0 8 -4 11 -10z m-1829 -41 c5 -9 -155
-4 -164 5 -3 4 32 5 77 5 45 -1 84 -6 87 -10z m1468 -155 c20 -74 20 -84 1
-84 -27 0 -52 85 -39 135 9 35 18 23 38 -51z m313 54 c-3 -8 -6 -5 -6 6 -1 11
2 17 5 13 3 -3 4 -12 1 -19z m-11 -65 c-10 -10 -19 5 -10 18 6 11 8 11 12 0 2
-7 1 -15 -2 -18z m-1669 -9 c-3 -3 -12 -4 -19 -1 -8 3 -5 6 6 6 11 1 17 -2 13
-5z m-1907 -42 c0 -9 102 -57 145 -68 17 -4 49 -16 73 -26 49 -22 54 -43 17
-78 -14 -13 -25 -29 -25 -35 0 -7 -9 -23 -20 -36 -12 -12 -31 -39 -43 -59 -11
-19 -27 -39 -34 -45 -7 -5 -25 -33 -40 -62 -41 -75 -136 -214 -167 -242 -14
-14 -26 -33 -26 -43 0 -10 -4 -18 -9 -18 -5 0 -20 -17 -32 -37 -13 -21 -26
-40 -29 -43 -16 -14 -69 -89 -81 -115 -14 -29 -16 -30 -77 -27 -50 3 -67 0
-83 -14 -20 -18 -26 -69 -9 -79 6 -3 10 1 10 10 0 9 19 24 46 35 80 35 82 27
18 -69 l-47 -69 -61 15 c-33 8 -79 18 -101 23 -89 19 -131 33 -142 48 -19 23
0 39 57 46 79 11 113 37 189 150 37 56 80 127 95 157 15 30 36 70 48 89 11 19
34 60 51 90 36 65 227 448 227 456 0 2 7 16 16 29 16 24 34 33 34 17z m1851
-127 c-27 -89 -41 -114 -64 -115 -4 0 -1 10 7 23 8 12 26 58 41 102 15 44 29
87 32 95 3 8 7 10 9 5 2 -6 -9 -55 -25 -110z m1694 104 c4 -5 -4 -27 -17 -47
-19 -29 -22 -42 -14 -59 11 -25 25 -32 71 -40 39 -6 42 -10 22 -30 -13 -13
-19 -14 -31 -3 -14 11 -16 9 -16 -9 0 -11 -2 -21 -4 -21 -2 0 -11 -3 -19 -6
-11 -4 -19 10 -32 51 -10 30 -22 58 -28 62 -6 4 -8 -2 -5 -13 32 -111 33 -115
18 -124 -21 -13 -31 0 -52 67 -21 69 -22 92 -5 94 6 1 19 3 27 4 8 1 21 3 28
4 6 0 12 7 12 15 0 8 7 17 16 20 10 4 14 14 11 26 -5 21 7 27 18 9z m-166 -55
c10 -23 9 -25 -11 -22 -15 2 -24 11 -26 26 -5 31 22 29 37 -4z m69 16 c12 -1
10 -5 -8 -15 -34 -19 -40 -19 -40 6 0 15 4 19 16 15 9 -3 23 -6 32 -6z m-3067
-60 c13 -11 30 -24 37 -30 15 -13 16 -40 1 -40 -17 0 -99 71 -93 81 9 14 29
10 55 -11z m9 -111 c0 -35 -21 -29 -68 19 -37 38 -47 54 -40 66 8 14 16 10 59
-25 27 -23 49 -50 49 -60z m3016 86 c11 -27 -2 -37 -14 -11 -7 16 -8 26 -1 26
5 0 12 -7 15 -15z m-628 -66 c2 -23 2 -23 -13 -5 -18 24 -20 39 -2 34 6 -3 13
-15 15 -29z m1086 2 c31 -8 30 -9 -54 -49 -77 -37 -86 -39 -102 -25 -26 24
-52 84 -39 92 12 8 147 -5 195 -18z m-3549 -23 c34 -41 44 -83 19 -83 -15 0
-94 95 -94 112 0 27 40 11 75 -29z m3330 2 c3 -11 11 -20 16 -20 6 0 9 -8 8
-17 -3 -23 11 -85 23 -100 6 -7 0 -16 -21 -26 -29 -14 -29 -14 -45 22 -15 34
-35 112 -36 138 0 10 14 17 42 22 4 0 10 -8 13 -19z m460 3 c27 -8 35 -22 35
-60 0 -30 -5 -35 -87 -79 -49 -25 -113 -61 -143 -79 -85 -51 -86 -50 -135 35
-24 41 -44 79 -44 83 -1 9 98 56 194 93 58 23 118 25 180 7z m-3832 -57 c38
-46 45 -70 26 -82 -22 -13 -102 85 -92 114 8 22 28 13 66 -32z m3305 9 c7 -14
12 -34 12 -43 0 -10 7 -28 16 -40 15 -22 13 -72 -4 -72 -4 0 -20 28 -36 63
-15 34 -32 69 -36 78 -9 17 5 39 25 39 7 0 17 -11 23 -25z m-2661 -46 c62 -54
73 -69 50 -69 -13 0 -127 105 -127 116 0 14 26 -2 77 -47z m2621 -29 c36 -80
42 -112 11 -60 -12 19 -25 37 -30 38 -13 5 -39 57 -39 77 0 36 28 10 58 -55z
m-3304 6 c35 -43 44 -70 28 -80 -15 -9 -105 91 -99 108 11 27 33 18 71 -28z
m1456 36 c0 -9 -78 -68 -120 -91 -14 -7 -34 -21 -45 -31 -11 -9 -46 -31 -78
-49 l-57 -32 -32 32 -33 32 45 20 c25 11 57 26 72 33 14 8 31 14 37 14 6 0 30
8 54 18 131 58 157 67 157 54z m-674 -44 c70 -61 79 -71 65 -76 -7 -2 -39 21
-70 52 -60 60 -57 77 5 24z m74 -8 c0 -6 21 -31 48 -55 37 -36 43 -45 27 -45
-12 0 -38 21 -62 49 -47 55 -50 61 -28 61 8 0 15 -5 15 -10z m3100 -60 c18
-38 32 -71 29 -74 -2 -2 -22 -13 -44 -24 -267 -133 -254 -127 -270 -111 -22
23 -65 111 -59 121 3 5 16 14 27 19 12 6 76 39 142 74 66 35 125 64 131 64 5
1 25 -30 44 -69z m-3996 21 c37 -38 47 -79 20 -88 -17 -6 -97 94 -90 112 9 24
30 17 70 -24z m1035 -36 c38 -40 48 -55 35 -55 -18 0 -114 86 -114 102 0 22
32 3 79 -47z m2537 -7 c35 -54 47 -98 33 -115 -19 -22 -24 -16 -46 55 -12 37
-25 75 -28 85 -14 33 15 17 41 -25z m-34 -56 c28 -80 28 -84 11 -98 -32 -24
-41 -15 -67 64 -29 87 -32 108 -13 115 29 13 42 -2 69 -81z m-3578 34 c56 -68
43 -120 -15 -58 -34 36 -52 70 -45 88 9 23 23 16 60 -30z m1140 14 c9 0 45
-42 46 -53 0 -4 -20 9 -45 30 -25 20 -45 41 -45 47 0 5 8 2 18 -7 10 -10 22
-17 26 -17z m2360 -70 c15 -41 31 -79 36 -84 17 -17 11 -28 -12 -24 -17 2 -27
16 -41 53 -11 28 -23 58 -28 67 -13 25 -11 56 4 61 16 6 11 13 41 -73z m-3529
-21 c16 -22 25 -45 21 -55 -8 -21 -14 -17 -64 38 -38 41 -42 49 -30 67 11 18
14 19 29 5 10 -9 30 -33 44 -55z m4126 -25 c11 -26 23 -61 26 -80 5 -32 4 -33
-58 -65 -35 -17 -92 -50 -128 -72 -47 -30 -67 -38 -79 -31 -17 11 -84 134 -79
147 1 4 37 23 80 41 43 19 104 50 135 69 31 20 63 36 69 36 7 1 22 -20 34 -45z
m-4160 -41 c22 -34 18 -73 -6 -73 -7 0 -29 19 -49 42 -19 24 -38 40 -41 36 -4
-3 2 -16 12 -28 10 -12 26 -31 36 -42 20 -25 22 -51 4 -66 -9 -8 -25 2 -64 38
l-51 49 47 59 46 59 23 -21 c13 -11 32 -35 43 -53z m3754 -49 c19 -75 19 -77
0 -91 -11 -7 -21 -10 -22 -6 -23 79 -38 152 -35 161 2 7 11 12 21 12 13 0 22
-18 36 -76z m39 16 c35 -53 34 -77 -1 -68 -5 1 -13 22 -20 47 -20 76 -17 78
21 21z m-100 -35 c20 -80 20 -101 0 -109 -33 -13 -36 -10 -60 82 -18 68 -18
67 9 80 34 16 33 16 51 -53z m-81 -5 c3 -14 1 -20 -6 -17 -7 2 -14 14 -15 26
-4 28 13 20 21 -9z m-3730 -37 c37 -44 46 -82 21 -90 -17 -6 -94 79 -94 103 0
49 25 44 73 -13z m1703 32 c-20 -15 -36 -19 -36 -10 0 5 38 23 50 24 3 0 -4
-6 -14 -14z m2644 -49 c10 -24 23 -47 29 -50 25 -16 10 -51 -29 -71 -21 -11
-79 -41 -129 -67 -50 -27 -95 -48 -100 -48 -10 0 -55 73 -65 108 -4 12 -3 22
2 22 6 0 45 20 86 45 42 25 79 45 81 45 2 0 24 13 47 30 24 16 47 30 51 30 4
0 16 -20 27 -44z m-5090 -9 c0 -5 -4 -5 -10 -2 -5 3 -10 14 -10 23 0 15 2 15
10 2 5 -8 10 -19 10 -23z m4712 -21 c4 -20 15 -50 23 -66 19 -38 19 -76 -1
-84 -29 -11 -44 -6 -44 16 0 12 -7 50 -16 85 -13 51 -13 67 -3 79 18 22 32 12
41 -30z m-52 -62 c24 -79 26 -124 5 -124 -16 0 -41 52 -56 120 -9 38 -8 46 7
57 10 7 19 13 21 13 1 0 11 -30 23 -66z m-4011 1 c34 -39 40 -61 15 -51 -9 3
-23 6 -32 6 -9 0 -26 7 -36 15 -17 13 -18 18 -6 40 7 14 17 25 21 25 4 0 21
-16 38 -35z m3954 -38 c10 -34 21 -71 24 -81 11 -33 -16 -8 -32 29 -7 19 -23
44 -34 57 -26 27 -26 37 -4 54 23 16 24 14 46 -59z m-4428 43 c3 -5 1 -10 -4
-10 -6 0 -11 5 -11 10 0 6 2 10 4 10 3 0 8 -4 11 -10z m5000 -93 c30 -57 30
-58 10 -72 -11 -8 -24 -18 -30 -22 -5 -4 -36 -20 -67 -36 -31 -15 -63 -35 -70
-45 -7 -11 -29 -21 -49 -24 -35 -6 -37 -4 -67 46 -18 29 -32 59 -32 67 0 8 35
33 83 57 45 23 100 53 122 66 22 13 47 24 55 23 8 -1 29 -28 45 -60z m-5545
-36 c0 -23 -4 -41 -10 -41 -5 0 -10 3 -10 8 -1 4 -5 26 -9 49 -9 48 -5 58 15
38 8 -7 14 -32 14 -54z m2395 39 c-3 -5 -12 -10 -18 -10 -7 0 -6 4 3 10 19 12
23 12 15 0z m2794 -44 c12 -18 21 -43 21 -55 0 -36 -26 -23 -39 20 -7 23 -15
47 -18 55 -10 28 16 13 36 -20z m-4237 -2 c-3 -17 -7 -22 -12 -13 -9 13 -2 39
10 39 4 0 5 -12 2 -26z m4198 -16 c6 -24 13 -50 16 -59 5 -19 -20 -43 -39 -36
-15 6 -51 113 -42 127 3 6 17 10 30 10 20 0 26 -7 35 -42z m-2850 7 c0 -7 -78
-45 -92 -45 -7 1 7 12 32 25 45 24 60 29 60 20z m2779 -26 c18 -51 14 -69 -13
-69 -19 0 -25 7 -30 36 -5 22 -3 41 5 50 17 21 26 17 38 -17z m525 -24 c9 -14
14 -29 12 -34 -3 -5 -35 -21 -71 -35 -69 -28 -140 -35 -133 -14 4 11 154 106
169 108 4 0 14 -11 23 -25z m-5589 -3 c0 -18 -20 -15 -23 4 -3 10 1 15 10 12
7 -3 13 -10 13 -16z m945 8 c0 -5 -4 -10 -10 -10 -5 0 -10 5 -10 10 0 6 5 10
10 10 6 0 10 -4 10 -10z m1117 -5 c-2 -6 -93 -11 -238 -13 -135 -1 -237 -6
-243 -12 -7 -7 10 -10 47 -10 31 0 57 -4 57 -9 0 -11 -283 -22 -294 -10 -6 5
2 9 23 9 18 0 30 4 27 8 -2 4 -71 7 -153 6 -151 -1 -203 3 -203 16 0 4 53 8
118 9 64 1 155 6 202 10 121 12 661 9 657 -4z m-1169 -49 c36 -16 85 -28 123
-31 35 -2 80 -7 100 -10 21 -4 40 -2 43 4 4 6 105 10 264 11 141 1 306 2 365
4 60 1 110 -1 113 -5 5 -8 -34 -35 -106 -71 -30 -15 -76 -41 -102 -57 -26 -16
-48 -25 -50 -20 -4 13 -110 18 -166 7 -24 -4 -199 -9 -389 -11 l-345 -3 7 36
c4 19 7 54 6 78 -1 35 5 50 31 82 23 27 35 35 40 26 4 -7 34 -25 66 -40z
m4802 19 c-15 -16 -27 -22 -33 -16 -14 14 10 41 36 41 20 0 20 -1 -3 -25z
m-3746 -16 c-3 -5 -59 -9 -125 -9 -79 0 -118 3 -114 10 4 6 54 10 126 9 69 0
117 -5 113 -10z m3266 1 c0 -5 -5 -10 -11 -10 -5 0 -7 5 -4 10 3 6 8 10 11 10
2 0 4 -4 4 -10z m-4054 -7 c-11 -11 -75 -13 -81 -2 -4 5 14 9 41 9 26 0 44 -3
40 -7z m44 -3 c0 -5 -2 -10 -4 -10 -3 0 -8 5 -11 10 -3 6 -1 10 4 10 6 0 11
-4 11 -10z m142 -2 c-9 -9 -15 -9 -24 0 -9 9 -7 12 12 12 19 0 21 -3 12 -12z
m658 -22 c0 -3 -4 -8 -10 -11 -5 -3 -10 -1 -10 4 0 6 5 11 10 11 6 0 10 -2 10
-4z m3130 -17 c0 -5 -7 -9 -15 -9 -15 0 -20 12 -9 23 8 8 24 -1 24 -14z m120
0 c0 -5 -4 -9 -10 -9 -5 0 -10 7 -10 16 0 8 5 12 10 9 6 -3 10 -10 10 -16z
m-170 1 c0 -5 -4 -10 -10 -10 -5 0 -10 5 -10 10 0 6 5 10 10 10 6 0 10 -4 10
-10z m95 0 c3 -5 -1 -10 -9 -10 -9 0 -16 5 -16 10 0 6 4 10 9 10 6 0 13 -4 16
-10z m408 -17 c9 -9 -13 -34 -24 -27 -14 8 -11 34 4 34 8 0 17 -3 20 -7z m55
-15 c-5 -32 -28 -35 -28 -4 0 17 5 26 16 26 10 0 14 -7 12 -22z m-508 -3 c10
-12 10 -15 -4 -15 -9 0 -16 7 -16 15 0 8 2 15 4 15 2 0 9 -7 16 -15z m140 0
c0 -2 -7 -5 -15 -9 -9 -3 -15 0 -15 9 0 9 6 12 15 9 8 -4 15 -7 15 -9z m247 9
c-3 -3 -12 -4 -19 -1 -8 3 -5 6 6 6 11 1 17 -2 13 -5z m-109 -22 c2 -6 -8 -14
-22 -18 -14 -3 -26 -12 -26 -20 0 -8 -2 -14 -4 -14 -2 0 -10 -2 -18 -5 -9 -4
-13 4 -12 27 1 18 2 36 2 40 3 11 76 2 80 -10z m-4888 -9 c0 -10 -4 -14 -8 -8
-4 6 -11 13 -16 18 -5 4 -2 7 7 7 10 0 17 -8 17 -17z m4941 -8 c-1 -15 -24
-12 -29 3 -3 9 2 13 12 10 10 -1 17 -7 17 -13z m-221 -5 c0 5 5 10 10 10 6 0
10 -6 10 -14 0 -17 -52 -15 -58 2 -3 11 0 12 17 3 14 -8 21 -8 21 -1z m276
-40 c-3 -55 -8 -65 -31 -57 -19 8 -20 56 -1 63 8 3 12 13 9 25 -4 13 0 19 10
19 12 0 15 -11 13 -50z m51 -13 c3 -52 1 -57 -18 -57 -17 0 -19 4 -13 23 4 12
7 39 6 60 -2 62 21 38 25 -26z m-382 43 c3 -5 -1 -10 -9 -10 -9 0 -16 5 -16
10 0 6 4 10 9 10 6 0 13 -4 16 -10z m443 -12 c-5 -34 -38 -37 -38 -4 0 20 5
26 21 26 15 0 20 -5 17 -22z m23 -21 c-8 -8 -11 -7 -11 4 0 20 13 34 18 19 3
-7 -1 -17 -7 -23z m-193 -6 c2 -13 0 -27 -5 -32 -14 -14 -43 0 -37 17 2 8 6
21 9 30 7 22 29 12 33 -15z m-191 -7 c-9 -9 -28 6 -21 18 4 6 10 6 17 -1 6 -6
8 -13 4 -17z m33 16 c0 -5 -4 -10 -10 -10 -5 0 -10 5 -10 10 0 6 5 10 10 10 6
0 10 -4 10 -10z m-3480 -10 c0 -5 -2 -10 -4 -10 -3 0 -8 5 -11 10 -3 6 -1 10
4 10 6 0 11 -4 11 -10z m3370 -5 c10 -12 10 -15 -4 -15 -9 0 -16 7 -16 15 0 8
2 15 4 15 2 0 9 -7 16 -15z m-40 -12 c1 -10 3 -35 6 -57 5 -29 3 -37 -8 -34
-15 5 -22 108 -7 108 5 0 9 -8 9 -17z m-3550 -13 c0 -5 -3 -10 -7 -11 -86 -7
-256 -11 -497 -10 -205 1 -309 -2 -331 -10 -38 -14 -82 -4 -53 12 9 5 27 9 40
9 12 1 180 3 371 5 192 2 352 6 355 9 10 10 122 6 122 -4z m3749 -12 c5 -14
10 -18 15 -10 10 17 26 5 26 -19 0 -22 -11 -24 -28 -7 -9 9 -12 9 -12 0 0 -26
-28 -10 -32 18 -7 45 16 58 31 18z m271 12 c0 -5 9 -10 20 -10 13 0 20 -7 20
-19 0 -15 -6 -19 -27 -17 -22 2 -29 9 -31 30 -2 14 1 26 7 26 6 0 11 -4 11
-10z m-380 -16 c0 -8 -5 -12 -10 -9 -6 4 -8 11 -5 16 9 14 15 11 15 -7z m460
-20 c0 -13 -4 -24 -10 -24 -5 0 -10 14 -10 31 0 17 4 28 10 24 6 -3 10 -17 10
-31z m-500 16 c0 -5 -5 -10 -11 -10 -5 0 -7 5 -4 10 3 6 8 10 11 10 2 0 4 -4
4 -10z m238 -9 c19 -11 11 -45 -11 -49 -19 -4 -32 20 -23 43 6 17 15 19 34 6z
m72 -37 c0 -19 -5 -24 -25 -24 -25 0 -31 13 -19 43 9 24 44 8 44 -19z m-308 1
c0 -5 -5 -11 -11 -13 -6 -2 -11 4 -11 13 0 9 5 15 11 13 6 -2 11 -8 11 -13z
m354 -14 c1 -24 -13 -38 -27 -24 -12 12 1 55 15 50 6 -2 12 -14 12 -26z m48
13 c9 -3 16 -16 17 -28 0 -21 0 -21 11 2 15 31 30 28 26 -5 -3 -26 -6 -28 -43
-25 -49 5 -49 5 -41 37 7 27 7 28 30 19z m-264 -18 c0 -3 -4 -8 -10 -11 -5 -3
-10 -1 -10 4 0 6 5 11 10 11 6 0 10 -2 10 -4z m41 -13 c0 -11 3 -13 6 -5 6 14
39 16 48 2 3 -6 3 -19 0 -30 -6 -18 -13 -20 -47 -16 -48 5 -47 5 -41 39 6 30
33 38 34 10z m320 0 c1 -10 1 -22 0 -27 -1 -6 1 -21 4 -35 9 -35 26 -7 18 31
-3 15 -2 28 3 28 24 -1 32 -19 30 -65 -4 -101 -5 -105 -24 -105 -28 0 -34 11
-16 31 15 16 15 20 1 33 -11 11 -17 12 -19 4 -3 -7 -11 -9 -24 -3 -10 4 -26 7
-36 6 -9 -1 -19 3 -22 8 -11 17 -34 1 -29 -20 6 -22 14 -24 31 -7 10 10 15 10
20 1 4 -6 16 -11 27 -10 14 1 21 -5 23 -22 3 -20 1 -23 -15 -16 -10 4 -27 8
-38 10 -11 2 -31 7 -44 11 -21 6 -22 5 -12 -14 7 -13 17 -19 27 -15 8 3 21 -3
29 -13 8 -11 14 -14 15 -6 0 17 27 15 34 -4 5 -14 7 -14 22 0 17 18 34 21 34
7 0 -5 -15 -16 -34 -25 -39 -18 -94 -12 -113 13 -11 14 -13 14 -13 1 -1 -8 -3
-23 -5 -32 -4 -20 11 -25 18 -5 2 6 7 9 11 6 9 -8 -4 -39 -16 -39 -6 0 -16 -7
-23 -17 -19 -25 -49 -9 -41 22 3 14 9 37 12 51 5 20 3 25 -7 22 -8 -3 -13 -15
-12 -26 4 -36 -14 -72 -32 -65 -12 4 -15 12 -9 32 4 14 10 44 13 66 4 27 12
41 24 43 10 2 17 -3 17 -13 0 -9 5 -13 10 -10 6 3 10 17 10 30 0 13 4 26 8 29
5 3 7 19 4 35 -5 38 23 55 44 26 8 -10 14 -13 14 -7 0 18 27 14 34 -5 6 -15 8
-15 16 -3 6 8 10 30 10 48 0 33 19 46 21 15z m-4148 -7 c1 -5 -11 -14 -28 -19
-16 -5 -42 -21 -58 -35 -29 -27 -56 -21 -34 8 37 48 112 77 120 46z m3656 0
c6 -7 9 -21 5 -30 -3 -9 -1 -23 6 -31 10 -12 9 -16 -6 -21 -11 -4 -21 -8 -24
-9 -3 -2 -6 21 -7 51 -1 55 5 65 26 40z m279 -5 c13 -8 12 -54 -2 -126 -3 -11
-5 -30 -5 -43 -1 -19 -6 -23 -28 -20 -32 3 -43 38 -20 59 7 7 11 23 9 36 -2
13 0 23 5 23 6 0 8 11 5 25 -8 44 8 64 36 46z m60 -45 c3 -22 0 -27 -14 -24
-10 1 -17 6 -16 11 1 4 2 16 2 28 0 31 24 18 28 -15z m-478 -6 c0 -5 -5 -10
-11 -10 -5 0 -7 5 -4 10 3 6 8 10 11 10 2 0 4 -4 4 -10z m55 -20 c3 -5 1 -10
-4 -10 -6 0 -11 5 -11 10 0 6 2 10 4 10 3 0 8 -4 11 -10z m295 -10 c0 -11 -5
-20 -11 -20 -5 0 -7 -4 -4 -10 3 -5 3 -37 -1 -70 -5 -50 -10 -60 -25 -60 -25
0 -26 40 -1 41 13 0 14 2 2 6 -8 3 -18 11 -22 16 -4 7 -12 6 -22 -2 -14 -12
-16 -10 -17 15 0 28 -1 28 -11 7 -15 -31 -26 -29 -21 5 9 52 13 59 26 42 7 -8
22 -21 35 -28 20 -11 22 -10 22 8 0 11 5 20 10 20 6 0 8 11 4 25 -5 21 -3 25
15 25 14 0 21 -6 21 -20z m380 -10 c0 -31 -16 -41 -26 -15 -8 19 2 45 16 45 5
0 10 -13 10 -30z m-260 3 c0 -5 -4 -15 -10 -23 -11 -18 -25 -7 -17 15 6 15 27
21 27 8z m-460 -17 c0 -2 -7 -9 -15 -16 -12 -10 -15 -10 -15 4 0 9 7 16 15 16
8 0 15 -2 15 -4z m50 0 c0 -2 -3 -12 -6 -20 -5 -13 -9 -14 -20 -5 -16 13 -9
29 12 29 8 0 14 -2 14 -4z m-220 -16 c0 -5 -4 -10 -10 -10 -5 0 -10 5 -10 10
0 6 5 10 10 10 6 0 10 -4 10 -10z m30 0 c0 -5 -4 -10 -10 -10 -5 0 -10 5 -10
10 0 6 5 10 10 10 6 0 10 -4 10 -10z m334 2 c3 -4 1 -24 -3 -44 -8 -33 -6 -37
14 -42 13 -3 31 -3 39 0 12 4 16 0 16 -15 0 -24 -3 -25 -49 -11 -39 11 -57 4
-40 -16 6 -7 15 -12 19 -9 13 8 23 -14 15 -33 -6 -16 -7 -16 -16 0 -5 9 -16
15 -23 12 -8 -3 -17 -1 -20 4 -3 6 -15 8 -25 5 -22 -6 -38 14 -23 29 8 8 15 8
25 0 17 -15 27 -6 27 25 0 12 4 23 9 23 5 0 9 6 8 13 -2 56 11 84 27 59z
m-304 -12 c0 -5 -2 -10 -4 -10 -3 0 -8 5 -11 10 -3 6 -1 10 4 10 6 0 11 -4 11
-10z m-160 -27 c0 -20 -3 -24 -11 -16 -7 7 -9 19 -6 27 10 24 17 19 17 -11z
m990 14 c0 -8 -3 -17 -7 -20 -9 -9 -34 13 -27 24 8 14 34 11 34 -4z m-741 -19
c-10 -18 -79 -27 -79 -10 0 10 41 27 67 27 17 0 19 -3 12 -17z m165 8 c-3 -8
-12 -12 -21 -9 -12 5 -12 7 -1 14 20 13 28 11 22 -5z m-444 -6 c0 -5 -4 -10
-10 -10 -5 0 -10 5 -10 10 0 6 5 10 10 10 6 0 10 -4 10 -10z m60 0 c0 -5 -4
-10 -10 -10 -5 0 -10 5 -10 10 0 6 5 10 10 10 6 0 10 -4 10 -10z m30 -10 c0
-11 -4 -20 -10 -20 -5 0 -10 9 -10 20 0 11 5 20 10 20 6 0 10 -9 10 -20z m30
-2 c0 -16 -3 -19 -11 -11 -6 6 -8 16 -5 22 11 17 16 13 16 -11z m59 -3 c-10
-9 -35 -9 -37 0 -1 6 2 10 7 10 5 0 13 4 17 8 5 5 10 3 12 -3 2 -6 2 -13 1
-15z m146 -5 c3 -5 1 -10 -4 -10 -6 0 -11 5 -11 10 0 6 2 10 4 10 3 0 8 -4 11
-10z m60 -10 c0 -9 -7 -14 -20 -12 -26 5 -29 8 -20 22 10 16 40 8 40 -10z m50
-11 c0 -7 -8 -15 -17 -17 -18 -3 -25 18 -11 32 10 10 28 1 28 -15z m-408 -25
c-9 -9 -28 6 -21 18 4 6 10 6 17 -1 6 -6 8 -13 4 -17z m53 6 c0 -5 -5 -10 -11
-10 -5 0 -7 5 -4 10 3 6 8 10 11 10 2 0 4 -4 4 -10z m70 -6 c0 -8 -4 -12 -10
-9 -5 3 -10 10 -10 16 0 5 5 9 10 9 6 0 10 -7 10 -16z m120 6 c0 -5 -7 -10
-16 -10 -8 0 -12 5 -9 10 3 6 10 10 16 10 5 0 9 -4 9 -10z m56 -1 c3 -6 2 -15
-2 -19 -12 -12 -38 5 -30 19 9 14 23 14 32 0z m352 -11 c-2 -15 -10 -23 -23
-23 -13 0 -21 8 -23 23 -3 18 1 22 23 22 22 0 26 -4 23 -22z m-303 -44 c-4
-64 -7 -69 -32 -59 -20 9 -31 11 -83 21 -19 4 -41 11 -47 16 -16 13 -17 48 -2
48 5 0 8 -4 4 -9 -3 -5 -1 -12 4 -15 5 -3 11 3 14 14 7 29 37 14 37 -18 l0
-26 16 23 17 24 12 -23 c12 -23 13 -23 23 -3 6 11 8 29 5 41 -4 17 -1 22 15
22 18 0 20 -5 17 -56z m175 1 c0 -16 -6 -25 -15 -25 -15 0 -21 31 -8 43 13 14
23 6 23 -18z m50 0 c16 -19 1 -39 -22 -30 -10 4 -14 14 -11 26 6 23 16 24 33
4z m-180 -40 c0 -24 -5 -35 -15 -35 -18 0 -20 41 -3 58 17 17 18 16 18 -23z
m245 15 c0 -8 -10 -16 -22 -18 -18 -3 -23 2 -23 18 0 16 5 21 23 18 12 -2 22
-10 22 -18z m45 0 c11 -7 12 -12 3 -21 -13 -13 -33 -4 -33 17 0 16 9 18 30 4z
m-223 -13 c0 -1 3 -11 5 -22 2 -16 -3 -21 -29 -23 -31 -3 -33 -1 -33 28 0 30
2 32 27 25 16 -4 29 -7 30 -8z m-230 -33 c-9 -9 -28 6 -21 18 4 6 10 6 17 -1
6 -6 8 -13 4 -17z m285 -4 c-3 -31 -8 -35 -26 -21 -18 15 -9 53 13 49 10 -3
15 -12 13 -28z m48 6 c0 -26 -14 -41 -29 -32 -13 8 0 56 15 56 8 0 14 -10 14
-24z m490 14 c69 -9 57 -13 -45 -16 -44 -1 -99 -5 -123 -9 -23 -4 -49 -4 -58
-1 -59 23 111 42 226 26z m-770 -36 c0 -16 -16 -19 -25 -4 -8 13 4 32 16 25 5
-4 9 -13 9 -21z m347 10 c3 -8 1 -20 -4 -25 -14 -14 -43 0 -43 22 0 24 38 26
47 3z m-297 -15 c0 -5 -10 -9 -21 -9 -18 0 -19 2 -9 15 12 15 30 12 30 -6z
m340 11 c0 -5 -2 -10 -4 -10 -3 0 -8 5 -11 10 -3 6 -1 10 4 10 6 0 11 -4 11
-10z m360 -8 c0 -11 -241 -30 -260 -21 -30 15 5 19 208 27 28 1 52 -2 52 -6z
m-280 -62 c0 -5 -11 -10 -25 -10 -14 0 -25 5 -25 10 0 6 11 10 25 10 14 0 25
-4 25 -10z"/>
<g>
<path d="M4672 6669 c2 -6 8 -10 13 -10 5 0 11 4 13 10 2 6 -4 11 -13 11 -9 0
-15 -5 -13 -11z"/>
</g>
<g>
<path d="M4672 6618 c5 -15 28 -18 29 -3 0 6 -7 12 -17 13 -10 3 -15 -1 -12
-10z"/>
</g>
<g>
<path d="M4680 6562 c0 -12 3 -12 15 -2 8 7 15 13 15 15 0 1 -7 2 -15 2 -8 0
-15 -7 -15 -15z"/>
</g>
<g>
<path d="M4695 6510 c-3 -5 1 -10 10 -10 9 0 13 5 10 10 -3 6 -8 10 -10 10 -2
0 -7 -4 -10 -10z"/>
</g>
<g>
<path d="M4584 6365 c-10 -25 6 -35 54 -35 52 0 91 -19 137 -68 29 -32 55 -42
55 -22 0 6 -4 10 -9 10 -5 0 -31 23 -57 50 -27 28 -62 57 -78 65 -38 19 -95
19 -102 0z"/>
</g>
<g>
<path d="M4577 6249 c-6 -23 18 -68 37 -70 36 -5 254 -3 248 2 -4 4 -29 12
-56 18 -27 7 -61 20 -75 30 -28 19 -97 41 -128 41 -13 0 -23 -8 -26 -21z m98
-35 c53 -3 52 -3 35 -14 -21 -14 -84 -12 -98 2 -18 18 -15 31 6 22 9 -4 35 -9
57 -10z"/>
</g>
<g>
<path d="M5226 6061 c-3 -5 4 -11 16 -14 30 -8 35 -1 9 12 -11 6 -22 7 -25 2z"/>
</g>
<g>
<path d="M4845 5969 c-4 -6 -5 -12 -2 -15 2 -3 7 2 10 11 7 17 1 20 -8 4z"/>
</g>
<g>
<path d="M4835 5805 c-16 -36 -25 -68 -22 -72 4 -3 9 3 13 13 4 10 17 43 30
72 12 28 19 52 15 52 -5 0 -21 -29 -36 -65z"/>
</g>
<g>
<path d="M2992 5029 c-11 -18 -11 -23 5 -35 10 -7 23 -14 29 -14 6 0 18 -12
26 -27 35 -70 81 -143 89 -143 12 0 12 17 0 25 -10 6 -65 117 -75 151 -7 22
-42 64 -54 64 -4 0 -13 -9 -20 -21z"/>
</g>
<g>
<path d="M2935 4933 c-17 -41 -19 -53 -6 -53 5 0 16 -3 25 -6 12 -5 14 1 9 30
-3 22 -2 36 5 36 14 0 72 -68 72 -84 0 -8 7 -19 15 -26 19 -16 19 -7 -1 33
-23 44 -63 91 -85 99 -15 6 -22 0 -34 -29z"/>
</g>
<g>
<path d="M3207 4674 c-4 -4 -7 -18 -7 -30 0 -13 -8 -28 -17 -33 -15 -9 -16
-12 -4 -20 16 -10 57 31 63 64 3 19 -21 32 -35 19z"/>
</g>
<g>
<path d="M5317 3716 c-4 -10 -5 -21 -2 -24 9 -9 17 6 13 25 -3 17 -4 17 -11
-1z"/>
</g>
<g>
<path d="M1903 1297 c-3 -4 -3 -10 -1 -12 7 -7 78 7 78 15 0 11 -70 8 -77 -3z"/>
</g>
</g>
<g>
<path d="M4925 6760 c-3 -5 1 -10 9 -10 9 0 16 5 16 10 0 6 -4 10 -9 10 -6 0
-13 -4 -16 -10z"/>
</g>
<g>
<path d="M5170 6741 c0 -13 28 -33 41 -29 8 3 6 9 -5 21 -19 18 -36 22 -36 8z"/>
</g>
<g>
<path d="M5090 6720 c0 -13 29 -32 39 -26 6 4 15 -3 21 -14 12 -22 30 -27 30
-7 -1 23 -35 52 -62 53 -16 1 -28 -2 -28 -6z"/>
</g>
<g>
<path d="M5036 6671 c-3 -5 1 -14 9 -21 12 -10 15 -10 15 3 0 19 -16 31 -24
18z"/>
</g>
<g>
<path d="M5030 6615 c0 -9 5 -15 11 -13 6 2 11 8 11 13 0 5 -5 11 -11 13 -6 2
-11 -4 -11 -13z"/>
</g>
<g>
<path d="M5126 6612 c-7 -12 3 -42 14 -42 18 0 22 22 7 37 -9 9 -17 11 -21 5z"/>
</g>
<g>
<path d="M4962 6589 c2 -7 10 -15 17 -17 8 -3 12 1 9 9 -2 7 -10 15 -17 17 -8
3 -12 -1 -9 -9z"/>
</g>
<g>
<path d="M4805 6580 c-3 -5 -1 -10 4 -10 6 0 11 5 11 10 0 6 -2 10 -4 10 -3 0
-8 -4 -11 -10z"/>
</g>
<g>
<path d="M5405 6500 c10 -11 25 -20 34 -20 12 0 9 6 -9 20 -33 26 -48 26 -25
0z"/>
</g>
<g>
<path d="M5122 6496 c1 -10 8 -17 13 -17 15 1 12 24 -3 29 -9 3 -13 -2 -10
-12z"/>
</g>
<g>
<path d="M5290 6480 c0 -5 5 -10 10 -10 6 0 10 5 10 10 0 6 -4 10 -10 10 -5 0
-10 -4 -10 -10z"/>
</g>
<g>
<path d="M5390 6475 c0 -6 62 -45 73 -45 18 0 4 20 -25 34 -32 16 -48 20 -48
11z"/>
</g>
<g>
<path d="M4790 6451 c0 -5 7 -11 15 -15 9 -3 15 0 15 9 0 8 -7 15 -15 15 -8 0
-15 -4 -15 -9z"/>
</g>
<g>
<path d="M5350 6445 c14 -7 27 -11 30 -9 6 7 -22 24 -40 23 -9 0 -5 -6 10 -14z"/>
</g>
<g>
<path d="M5085 6440 c3 -5 10 -10 16 -10 5 0 9 5 9 10 0 6 -7 10 -16 10 -8 0
-12 -4 -9 -10z"/>
</g>
<g>
<path d="M5180 6440 c0 -5 5 -10 10 -10 6 0 10 -7 10 -15 0 -18 -41 -20 -58
-3 -6 6 -15 8 -19 5 -4 -4 3 -15 16 -23 21 -15 21 -17 4 -30 -17 -12 -17 -13
0 -14 9 0 27 10 38 21 27 27 59 27 128 -1 72 -28 78 -17 8 15 -40 19 -54 30
-50 41 4 12 0 14 -20 9 -14 -4 -28 -2 -31 4 -9 14 -36 14 -36 1z"/>
</g>
<g>
<path d="M5430 6420 c0 -5 5 -10 11 -10 5 0 7 5 4 10 -3 6 -8 10 -11 10 -2 0
-4 -4 -4 -10z"/>
</g>
<g>
<path d="M5205 6360 c-3 -5 -1 -10 4 -10 6 0 11 5 11 10 0 6 -2 10 -4 10 -3 0
-8 -4 -11 -10z"/>
</g>
<g>
<path d="M5405 6350 c-3 -5 1 -10 10 -10 9 0 13 5 10 10 -3 6 -8 10 -10 10 -2
0 -7 -4 -10 -10z"/>
</g>
<g>
<path d="M5275 6316 c33 -28 125 -70 125 -56 0 4 -30 23 -67 41 -90 44 -93 45
-58 15z"/>
</g>
<g>
<path d="M5090 6322 c0 -8 43 -32 57 -32 3 0 -2 9 -12 20 -18 20 -45 27 -45
12z"/>
</g>
<g>
<path d="M5040 6302 c0 -5 21 -21 48 -36 26 -15 65 -38 87 -51 54 -32 183 -78
202 -71 24 10 6 23 -41 29 -52 7 -139 47 -218 99 -57 38 -78 46 -78 30z"/>
</g>
<g>
<path d="M5165 6290 c-3 -5 -1 -10 4 -10 6 0 11 5 11 10 0 6 -2 10 -4 10 -3 0
-8 -4 -11 -10z"/>
</g>
<g>
<path d="M5072 6138 c-14 -14 -16 -68 -2 -68 20 0 9 -21 -16 -30 -28 -11 -24
-30 7 -30 24 0 43 42 40 90 -3 42 -13 54 -29 38z"/>
</g>
<g>
<path d="M4990 5960 c0 -5 11 -17 25 -26 21 -14 31 -15 50 -6 35 16 33 35 -1
21 -21 -7 -31 -6 -44 6 -19 17 -30 19 -30 5z"/>
</g>
<g>
<path d="M5013 5797 c-18 -18 -33 -40 -33 -48 0 -14 79 58 80 74 0 15 -16 6
-47 -26z"/>
</g>
<g>
<path d="M5341 5703 c2 -5 62 -63 134 -129 71 -65 151 -140 177 -165 27 -25
50 -43 53 -41 8 8 -26 55 -59 82 -17 14 -45 40 -63 58 -17 17 -36 32 -42 32
-6 0 -11 6 -11 13 0 6 -36 43 -79 80 -77 65 -118 91 -110 70z"/>
</g>
<g>
<path d="M4900 5600 c0 -5 7 -10 16 -10 8 0 12 5 9 10 -3 6 -10 10 -16 10 -5
0 -9 -4 -9 -10z"/>
</g>
<g>
<path d="M4981 5420 c-2 -8 -4 -26 -6 -40 -1 -14 -6 -46 -10 -72 -5 -31 -4
-48 2 -48 24 0 30 27 23 100 -4 41 -8 68 -9 60z"/>
</g>
<g>
<path d="M5020 5396 c0 -8 5 -18 10 -21 6 -3 10 3 10 14 0 12 -4 21 -10 21 -5
0 -10 -6 -10 -14z"/>
</g>
<g>
<path d="M4380 4855 c-5 -29 -5 -285 1 -285 10 0 17 216 8 258 -3 21 -8 33 -9
27z"/>
</g>
<g>
<path d="M5160 4166 c0 -9 7 -24 14 -33 8 -10 24 -29 35 -43 10 -14 22 -22 25
-19 3 3 -3 14 -13 25 -10 12 -22 30 -25 41 -4 12 -13 27 -21 33 -12 10 -15 9
-15 -4z"/>
</g>
<g>
<path d="M5136 4157 c3 -10 9 -15 12 -12 3 3 0 11 -7 18 -10 9 -11 8 -5 -6z"/>
</g>
<g>
<path d="M5640 4034 c-30 -19 -81 -49 -112 -66 -32 -17 -58 -35 -58 -40 0 -10
172 78 216 110 23 17 31 32 17 32 -5 0 -33 -16 -63 -36z"/>
</g>
<g>
<path d="M3501 1036 c-9 -11 -7 -15 8 -19 18 -4 19 -8 9 -41 -14 -44 -6 -54
21 -27 28 28 51 27 51 -3 0 -20 6 -24 36 -28 47 -5 95 2 88 13 -3 5 -21 9 -40
9 -42 0 -56 24 -26 46 25 17 19 50 -11 58 -42 11 -124 6 -136 -8z m109 -36 c0
-5 -12 -10 -27 -9 -25 0 -26 1 -8 9 27 12 35 12 35 0z"/>
</g>
<g>
<path d="M4049 992 c-37 -47 -11 -148 29 -109 12 13 17 34 17 72 0 64 -15 76
-46 37z"/>
</g>
<g>
<path d="M3729 992 c-34 -28 -19 -48 42 -55 57 -7 75 -2 60 17 -6 7 -8 16 -4
19 12 12 -20 37 -47 37 -15 0 -38 -8 -51 -18z m51 -16 c0 -9 -30 -14 -35 -6
-4 6 3 10 14 10 12 0 21 -2 21 -4z"/>
</g>
<g>
<path d="M3860 991 c-12 -24 -3 -51 17 -51 8 0 13 -7 11 -17 -3 -16 -24 -19
-208 -24 -113 -3 -213 -9 -223 -13 -29 -13 -13 -31 24 -28 19 1 117 4 219 6
102 2 190 4 196 5 6 1 17 16 25 34 7 17 19 36 26 40 18 11 17 57 -2 57 -8 0
-19 -9 -25 -20 -6 -11 -18 -20 -28 -20 -16 1 -16 2 1 14 9 7 17 18 17 25 0 19
-39 12 -50 -8z"/>
</g>
<g>
<path d="M3980 895 c0 -18 5 -25 20 -25 15 0 20 7 20 25 0 18 -5 25 -20 25
-15 0 -20 -7 -20 -25z"/>
</g>
<g>
<path d="M6203 693 c20 -2 54 -2 75 0 20 2 3 4 -38 4 -41 0 -58 -2 -37 -4z"/>
</g>
<g>
<path d="M1520 676 c0 -19 41 -39 53 -27 8 8 7 11 -2 11 -10 0 -11 3 -2 13 8
11 5 14 -19 14 -17 0 -30 -5 -30 -11z"/>
</g>
</g>
</svg>
