<?xml version="1.0" standalone="no"?>
<!DOCTYPE svg PUBLIC "-//W3C//DTD SVG 20010904//EN"
 "http://www.w3.org/TR/2001/REC-SVG-20010904/DTD/svg10.dtd">
<svg version="1.0" xmlns="http://www.w3.org/2000/svg"
 width="586.000000pt" height="698.000000pt" viewBox="0 0 586.000000 698.000000"
 preserveAspectRatio="xMidYMid meet">
<metadata>
Created by potrace 1.15, written by Peter Selinger 2001-2017
</metadata>
<g transform="translate(0.000000,698.000000) scale(0.100000,-0.100000)"
fill="#000000" stroke="none">
<g>
<path d="M2086 6409 c-9 -13 -16 -29 -16 -36 0 -7 -4 -13 -8 -13 -4 0 -16 -23
-26 -51 -14 -36 -17 -64 -12 -100 5 -39 4 -51 -9 -55 -24 -10 -18 -34 8 -31
16 1 21 -3 19 -15 -2 -12 4 -18 18 -18 23 0 26 19 7 58 -27 53 -21 116 18 193
22 45 32 76 27 81 -6 6 -16 1 -26 -13z"/>
</g>
<g>
<path d="M1850 6365 c0 -14 1 -26 1 -27 1 -2 -8 -23 -21 -47 -25 -50 -23 -117
5 -173 22 -44 19 -52 -22 -84 -48 -36 -48 -36 -108 -84 -27 -22 -55 -40 -61
-40 -39 0 -182 -268 -220 -413 -13 -48 -28 -96 -33 -105 -18 -35 -8 -306 13
-340 2 -4 7 -31 10 -59 4 -28 18 -72 32 -96 24 -44 24 -47 9 -78 -15 -29 -15
-36 0 -99 11 -44 25 -76 41 -91 13 -12 24 -29 24 -36 0 -7 16 -21 35 -30 19
-9 35 -20 35 -23 0 -8 68 -34 112 -44 25 -6 40 -17 136 -106 23 -22 49 -40 57
-40 24 0 17 28 -9 42 -13 7 -45 32 -70 56 -45 41 -58 71 -33 73 6 1 21 2 32 3
26 1 32 38 10 60 -16 15 -19 14 -53 -15 -32 -28 -40 -31 -80 -25 -77 10 -172
88 -172 139 0 10 -6 33 -14 52 -8 18 -12 43 -9 55 7 27 60 50 91 39 16 -6 24
-5 28 6 8 20 -4 35 -27 35 -11 0 -29 9 -41 20 -12 11 -16 20 -9 20 7 0 9 5 6
10 -3 6 -19 10 -35 10 -16 0 -31 4 -34 9 -4 5 -13 46 -22 92 -16 84 -17 309
-2 339 4 8 14 49 23 90 9 41 20 79 24 85 5 5 14 28 21 49 12 39 61 137 103
206 11 19 44 57 71 83 52 50 187 154 211 163 23 9 25 43 3 59 -57 39 -74 125
-43 210 18 52 19 75 0 75 -9 0 -15 -9 -15 -25z"/>
</g>
<g>
<path d="M2110 6308 c-30 -72 -32 -178 -3 -178 11 0 13 10 9 46 -4 28 0 67 9
97 17 58 18 67 7 67 -4 0 -14 -15 -22 -32z"/>
</g>
<g>
<path d="M2136 6191 c-7 -11 3 -41 14 -41 14 0 21 17 14 34 -7 18 -20 21 -28
7z"/>
</g>
<g>
<path d="M2266 6162 c-9 -15 113 -27 127 -13 8 8 -1 11 -33 11 -25 0 -55 3
-66 6 -12 3 -24 1 -28 -4z"/>
</g>
<g>
<path d="M2490 6131 c0 -11 16 -16 73 -26 23 -4 37 -2 37 5 0 5 -11 10 -24 10
-14 0 -28 5 -31 10 -8 13 -55 13 -55 1z"/>
</g>
<g>
<path d="M2728 6030 c35 -21 52 -25 52 -12 0 11 -45 32 -68 32 -11 0 -5 -7 16
-20z"/>
</g>
<g>
<path d="M2800 5982 c0 -4 5 -13 11 -19 17 -17 3 -30 -38 -38 -48 -9 -113 -44
-113 -62 0 -18 11 -16 40 5 19 13 42 17 98 15 l74 -2 -7 27 c-4 15 -10 29 -14
32 -5 3 -13 15 -20 28 -11 21 -31 30 -31 14z"/>
</g>
<g>
<path d="M3011 5960 c-18 -4 -43 -17 -54 -29 -21 -20 -21 -21 -2 -21 11 0 29
7 39 15 12 9 42 15 79 15 42 0 58 3 55 13 -5 14 -70 19 -117 7z"/>
</g>
<g>
<path d="M1815 5917 c-21 -25 -44 -94 -56 -169 -7 -43 -17 -78 -21 -78 -4 0
-8 29 -8 65 0 90 -20 83 -22 -7 -3 -137 13 -241 50 -310 25 -47 31 -50 117
-61 27 -3 32 29 6 38 -11 3 -34 27 -52 52 -26 40 -32 61 -39 135 -5 48 -11 92
-15 97 -11 19 7 80 31 106 13 14 24 35 24 45 0 10 9 25 20 33 17 12 18 17 7
40 -13 29 -26 33 -42 14z"/>
</g>
<g>
<path d="M2990 5890 c0 -5 26 -10 58 -12 48 -3 57 -6 54 -20 -2 -14 4 -18 25
-18 15 0 41 -7 57 -15 22 -12 32 -12 42 -4 21 18 17 24 -30 47 -45 23 -206 39
-206 22z"/>
</g>
<g>
<path d="M2783 5825 c-53 -24 -80 -49 -64 -60 6 -3 19 -1 30 5 11 5 55 10 97
10 l78 0 -28 29 c-38 40 -57 43 -113 16z"/>
</g>
<g>
<path d="M2220 5821 c-95 -37 -150 -72 -150 -98 0 -17 30 -16 54 2 22 17 147
60 161 56 16 -4 75 10 75 18 0 11 -63 41 -82 40 -7 0 -33 -9 -58 -18z"/>
</g>
<g>
<path d="M2950 5770 c0 -5 4 -10 10 -10 13 0 30 -34 44 -87 6 -25 16 -44 21
-43 20 2 5 82 -21 116 -25 32 -54 45 -54 24z"/>
</g>
<g>
<path d="M2574 5725 c-10 -8 -29 -15 -41 -15 -13 0 -23 -5 -23 -10 0 -20 30
-22 64 -6 19 9 44 16 56 16 19 0 20 2 10 15 -16 19 -41 19 -66 0z"/>
</g>
<g>
<path d="M2280 5697 c-102 -58 -150 -92 -150 -104 0 -19 3 -18 84 37 44 30 90
52 115 56 31 5 41 11 39 23 -5 25 -29 22 -88 -12z"/>
</g>
<g>
<path d="M2792 5720 c2 -8 22 -15 49 -16 81 -3 109 -15 109 -45 0 -11 7 -19
16 -19 13 0 15 6 9 28 -10 43 -26 51 -109 59 -64 5 -78 4 -74 -7z"/>
</g>
<g>
<path d="M1652 5677 c-12 -14 -41 -159 -48 -237 -2 -30 -6 -74 -9 -96 -4 -28
1 -62 15 -103 11 -33 20 -67 20 -75 0 -8 6 -19 13 -23 6 -4 20 -24 31 -43 22
-41 43 -60 68 -60 23 0 23 19 -2 67 -18 36 -54 129 -78 203 -14 43 -9 301 7
342 11 29 0 46 -17 25z"/>
</g>
<g>
<path d="M2591 5642 c-17 -6 -2 -22 20 -22 10 0 19 -5 19 -10 0 -20 -30 -22
-57 -3 -37 25 -70 18 -88 -17 -8 -16 -15 -31 -15 -35 0 -9 67 -5 96 5 22 9 29
8 36 -5 13 -22 27 -18 38 11 6 15 17 25 27 23 43 -4 53 1 53 26 0 14 -6 26
-12 26 -34 4 -108 4 -117 1z"/>
</g>
<g>
<path d="M2276 5607 c-52 -38 -133 -132 -159 -183 -20 -39 -32 -110 -20 -117
16 -10 38 18 62 78 49 121 92 186 154 229 15 10 17 15 7 15 -8 0 -28 -10 -44
-22z"/>
</g>
<g>
<path d="M3010 5567 c0 -7 13 -31 29 -53 15 -21 45 -70 66 -109 20 -38 41 -74
46 -79 5 -6 9 -18 9 -27 0 -10 13 -46 30 -81 26 -54 30 -74 30 -147 0 -85 -3
-99 -45 -223 -22 -62 -70 -139 -126 -198 -13 -14 -49 -55 -79 -90 -30 -36 -61
-69 -67 -73 -15 -9 -17 -37 -4 -37 5 0 24 19 42 41 18 23 47 48 65 55 17 7 48
32 67 54 20 23 38 37 41 31 5 -7 15 -7 31 1 33 15 32 32 -1 24 l-26 -7 19 28
c11 15 27 44 36 64 9 20 23 39 31 42 8 3 18 23 22 44 4 21 14 54 22 73 10 23
15 70 15 140 0 110 -4 125 -96 320 -25 52 -92 166 -109 184 -10 11 -18 23 -18
28 0 4 -7 8 -15 8 -8 0 -15 -6 -15 -13z"/>
</g>
<g>
<path d="M2374 5533 c-3 -16 -10 -41 -15 -57 -5 -16 -9 -69 -9 -119 0 -126
-33 -295 -100 -511 -28 -89 -29 -126 -5 -126 9 0 17 26 25 73 12 73 35 164 51
205 5 13 9 37 9 53 0 17 4 39 10 49 5 10 12 36 16 57 3 21 11 65 19 98 8 33
17 94 20 135 3 41 8 96 11 123 5 38 3 47 -10 47 -9 0 -18 -12 -22 -27z"/>
</g>
<g>
<path d="M2685 5501 c-6 -5 -23 -11 -40 -13 -19 -2 -30 -9 -30 -18 0 -17 36
-16 73 2 28 14 62 -2 84 -40 l16 -27 -82 0 c-81 0 -83 0 -114 -35 -18 -19 -32
-38 -32 -42 0 -5 -7 -8 -16 -8 -15 0 -16 9 -11 65 7 71 0 80 -25 37 -20 -34
-28 -281 -15 -457 8 -96 6 -126 -14 -235 -13 -69 -23 -160 -24 -202 0 -66 3
-79 20 -92 22 -17 61 -21 69 -7 3 4 24 11 47 15 49 8 141 48 184 80 17 13 40
26 51 30 12 3 30 16 40 27 17 19 17 22 3 32 -9 7 -19 24 -22 39 -4 15 -14 33
-22 42 -19 18 -19 26 -1 26 7 0 16 9 19 19 6 25 -10 257 -23 330 -12 67 -12
81 -1 81 15 0 19 -21 31 -181 7 -85 17 -165 22 -178 l9 -24 15 21 c17 25 49
30 40 7 -7 -18 29 -39 52 -30 15 6 15 8 -3 14 -18 7 -20 18 -20 137 -1 137
-29 281 -64 334 -10 14 -23 40 -30 58 -8 17 -16 32 -20 32 -4 0 -12 20 -19 44
-21 79 -112 151 -147 117z m-145 -401 c15 -64 15 -290 0 -355 -6 -27 -12 -103
-12 -167 0 -108 -1 -118 -18 -118 -10 0 -21 8 -25 19 -6 19 5 126 27 266 14
95 16 207 5 329 -10 98 2 111 23 26z m172 -55 c4 -35 -5 -47 -15 -21 -5 13 1
56 8 56 2 0 5 -16 7 -35z m54 -71 c5 -39 5 -39 -10 -14 -18 29 -22 80 -6 64 6
-6 13 -28 16 -50z m-31 -51 c4 -14 2 -23 -4 -23 -6 0 -11 6 -11 14 0 8 -3 23
-6 33 -5 12 -4 15 3 8 6 -5 14 -20 18 -32z m75 -24 c0 -31 -4 -48 -10 -44 -17
11 -12 95 7 95 2 0 3 -23 3 -51z m100 -49 c0 -11 -4 -20 -10 -20 -5 0 -10 2
-10 4 0 2 -3 11 -6 20 -4 11 -1 16 10 16 9 0 16 -8 16 -20z m-212 -18 c7 -5
10 -16 6 -27 -7 -17 -8 -17 -21 1 -22 30 -14 44 15 26z m55 -217 c-7 -21 -13
-19 -13 6 0 11 4 18 10 14 5 -3 7 -12 3 -20z m-38 -5 c8 -12 -5 -60 -16 -60
-5 0 -9 16 -9 35 0 33 12 46 25 25z m-106 -134 c-9 -8 -10 -3 -5 23 3 18 7 45
8 60 1 14 3 4 5 -23 3 -30 0 -53 -8 -60z m60 92 c0 -7 -4 -22 -9 -33 -7 -17
-9 -15 -9 13 -1 17 4 32 9 32 6 0 10 -6 9 -12z m-79 -27 c0 -20 -20 -61 -30
-61 -5 0 -10 16 -10 35 0 28 4 35 20 35 11 0 20 -4 20 -9z"/>
</g>
<g>
<path d="M2990 5496 c0 -8 4 -18 10 -21 5 -3 14 -24 20 -47 19 -68 30 -92 40
-82 17 18 -36 164 -60 164 -6 0 -10 -6 -10 -14z"/>
</g>
<g>
<path d="M1667 5463 c-8 -12 4 -63 14 -63 5 0 10 9 11 20 0 11 1 25 2 32 1 14
-20 22 -27 11z"/>
</g>
<g>
<path d="M1525 5408 c-6 -22 -16 -81 -22 -133 -15 -143 81 -295 189 -295 35 0
38 25 3 34 -15 4 -34 24 -51 54 -62 109 -66 113 -79 102 -17 -14 -28 96 -19
185 5 47 3 65 -5 65 -6 0 -13 -6 -16 -12z m65 -312 c0 -5 -7 -1 -15 10 -8 10
-14 24 -14 29 0 6 6 1 14 -9 8 -11 15 -24 15 -30z"/>
</g>
<g>
<path d="M2161 5268 c-18 -59 -25 -156 -11 -173 17 -21 47 -19 53 4 7 28 -7
89 -17 73 -4 -7 -5 -21 -1 -31 6 -21 -10 -38 -18 -18 -4 12 3 71 19 145 4 20
3 32 -4 32 -6 0 -15 -15 -21 -32z"/>
</g>
<g>
<path d="M3063 5095 c-8 -13 -8 -26 -1 -41 7 -16 7 -36 0 -64 -10 -41 0 -62
20 -42 15 15 22 91 10 115 -6 12 -12 29 -15 37 -3 11 -6 10 -14 -5z"/>
</g>
<g>
<path d="M1480 5042 c0 -20 49 -72 68 -72 19 0 14 13 -23 53 -40 42 -45 44
-45 19z"/>
</g>
<g>
<path d="M1574 4748 c-4 -6 1 -17 11 -24 10 -8 19 -25 20 -39 1 -37 21 -53 45
-37 26 16 30 15 30 -3 0 -8 -4 -15 -10 -15 -16 0 -12 -17 6 -24 41 -16 59 51
26 95 -10 13 -21 32 -25 42 -5 13 -18 17 -51 17 -25 0 -48 -5 -52 -12z"/>
</g>
<g>
<path d="M2916 4751 c-4 -5 -1 -11 6 -13 21 -7 -3 -28 -32 -28 -16 0 -32 -4
-35 -10 -3 -5 2 -10 12 -10 10 0 27 -3 39 -6 15 -4 23 1 32 21 7 14 12 32 12
40 0 16 -25 20 -34 6z"/>
</g>
<g>
<path d="M2878 4723 c7 -3 16 -2 19 1 4 3 -2 6 -13 5 -11 0 -14 -3 -6 -6z"/>
</g>
<g>
<path d="M2990 4640 c0 -5 5 -10 10 -10 6 0 10 5 10 10 0 6 -4 10 -10 10 -5 0
-10 -4 -10 -10z"/>
</g>
<g>
<path d="M1954 4586 c9 -36 87 -119 100 -106 7 7 2 19 -15 37 -14 16 -36 43
-48 61 -27 38 -46 42 -37 8z"/>
</g>
<g>
<path d="M3700 4427 c-89 -32 -102 -40 -148 -92 -38 -43 -99 -75 -144 -75 -29
0 -33 -27 -9 -74 20 -38 21 -48 11 -108 -10 -66 -1 -147 21 -190 10 -18 56
-42 100 -52 21 -5 28 -14 35 -48 10 -48 30 -53 26 -6 -4 49 -19 66 -76 82 -51
15 -55 19 -70 63 -24 69 -21 135 10 194 25 49 26 95 2 71 -16 -16 -38 -3 -38
22 0 18 9 24 46 34 32 9 63 29 102 66 32 29 73 62 92 71 44 23 140 44 205 45
37 1 45 4 30 10 -38 16 -129 10 -195 -13z"/>
</g>
<g>
<path d="M2764 4429 c-3 -6 -26 -20 -49 -30 -34 -15 -49 -17 -70 -9 -34 13
-35 13 -35 -5 0 -18 41 -29 80 -21 37 7 112 55 104 67 -7 12 -21 11 -30 -2z"/>
</g>
<g>
<path d="M3954 4428 c-4 -7 -2 -14 4 -16 22 -7 62 -44 62 -56 0 -7 9 -21 20
-31 13 -12 18 -25 14 -40 -3 -13 -1 -26 5 -29 17 -11 13 -26 -6 -27 -14 0 -13
-3 5 -11 27 -13 29 -28 4 -21 -27 7 -84 -20 -130 -61 -22 -20 -50 -36 -62 -36
-35 0 82 117 132 132 38 11 51 28 23 28 -45 0 -129 -69 -202 -165 -23 -30 -23
-30 -20 -5 4 37 50 102 91 130 20 14 36 28 36 33 0 4 6 7 13 7 23 0 78 31 71
41 -3 5 -13 5 -24 -1 -10 -5 -36 -10 -57 -10 -21 0 -49 -7 -61 -16 -12 -8 -28
-14 -35 -11 -7 2 -1 9 13 17 14 7 38 24 54 37 22 18 36 22 57 18 21 -5 29 -3
29 8 0 9 -12 14 -32 15 -59 2 -183 -104 -232 -198 -33 -64 -68 -260 -46 -260
5 0 10 14 10 30 0 17 3 30 6 30 9 0 43 -44 44 -55 0 -14 36 -44 66 -55 13 -5
24 -17 24 -26 0 -11 -5 -14 -17 -10 -22 9 -33 -10 -33 -56 l0 -38 -100 0 c-91
0 -100 -2 -100 -19 0 -15 -10 -19 -57 -24 -32 -3 -80 -15 -108 -27 -70 -31
-164 -32 -205 -2 -16 12 -33 22 -38 22 -5 0 -19 11 -32 25 -13 14 -41 30 -62
37 -53 16 -70 37 -59 75 9 32 4 81 -11 100 -5 6 -8 24 -7 40 4 50 0 65 -18 61
-28 -5 -35 -73 -12 -126 13 -30 12 -36 -9 -72 -26 -46 -28 -77 -7 -127 19 -45
11 -89 -18 -107 -67 -42 -249 -54 -322 -21 -62 28 -139 46 -171 40 -27 -5 -36
-2 -48 18 -9 12 -43 41 -76 62 -33 22 -69 54 -80 72 -19 33 -46 41 -84 27 -22
-9 -20 -56 4 -87 11 -14 20 -30 20 -35 0 -10 -38 -22 -87 -28 -52 -6 -82 -16
-99 -35 -17 -19 -17 -21 22 -57 22 -20 45 -45 51 -55 13 -24 129 -47 235 -47
l77 0 7 -35 c6 -32 9 -35 63 -46 31 -6 76 -17 101 -24 25 -8 65 -18 90 -23 25
-6 79 -20 120 -32 79 -23 273 -34 297 -17 25 18 33 -5 32 -98 -2 -91 0 -97 32
-151 19 -31 48 -71 64 -90 17 -18 42 -46 55 -61 13 -15 45 -52 72 -81 80 -89
77 -92 -114 -92 l-163 1 -33 28 c-25 22 -32 34 -28 49 5 15 1 22 -13 27 -10 3
-23 5 -27 4 -5 -1 -17 -1 -27 0 -15 1 -16 5 -7 21 8 15 7 27 -5 49 -8 17 -15
36 -15 43 -1 19 -47 68 -65 68 -8 0 -23 -4 -33 -9 -45 -23 -95 -41 -99 -37 -9
9 8 26 26 26 10 0 30 9 45 21 46 36 33 111 -32 197 -17 23 -28 30 -35 23 -7
-7 -1 -23 19 -48 72 -92 72 -149 0 -167 -43 -11 -87 17 -118 75 -14 27 -23 49
-19 49 4 0 21 13 37 29 15 16 33 28 39 26 5 -1 7 0 2 2 -4 3 2 16 13 31 14 17
17 29 11 35 -7 7 -18 1 -33 -19 -38 -48 -66 -74 -82 -74 -9 0 -35 -14 -58 -30
-40 -28 -65 -36 -188 -56 -62 -10 -289 61 -358 112 -20 15 -84 75 -142 132
l-105 105 -50 -10 c-27 -6 -54 -9 -58 -6 -13 8 33 75 84 123 64 60 114 90 150
90 29 0 32 5 41 65 2 14 11 19 33 20 41 0 40 27 -2 36 -40 8 -79 33 -93 59 -8
15 -5 30 15 69 30 60 33 94 8 89 -10 -2 -24 -16 -31 -31 -16 -34 -42 -34 -234
-2 -20 3 -28 0 -28 -10 0 -18 69 -37 133 -37 40 0 50 -4 66 -27 10 -14 21 -43
25 -63 4 -21 13 -38 20 -38 7 0 22 -8 33 -18 30 -25 20 -68 -16 -75 -27 -6
-192 -121 -199 -139 -2 -4 -9 -14 -16 -21 -12 -13 -46 -110 -46 -133 0 -20 78
-38 107 -25 53 24 77 15 144 -59 35 -39 66 -75 67 -80 2 -6 10 -10 17 -10 7 0
27 -16 44 -35 27 -31 30 -40 25 -78 -6 -44 17 -159 36 -182 16 -19 80 -26 145
-14 59 10 61 11 73 49 6 22 12 53 12 69 0 29 1 29 68 34 92 6 189 29 235 55
l38 22 12 -27 c24 -53 52 -93 65 -93 7 0 12 -13 12 -29 0 -21 6 -32 20 -36 19
-6 19 -7 3 -32 -15 -23 -15 -27 -2 -37 9 -6 27 -33 41 -61 13 -27 36 -57 51
-65 23 -13 28 -13 47 5 14 13 17 22 10 29 -7 7 -14 6 -22 -2 -14 -14 -38 -16
-38 -2 0 9 97 60 114 60 4 0 6 -8 4 -17 -2 -14 5 -19 35 -21 26 -2 37 -8 35
-18 -2 -8 8 -20 22 -27 26 -14 27 -18 15 -101 -5 -39 -14 -55 -48 -87 -58 -54
-135 -91 -172 -83 -43 8 -69 47 -61 89 4 21 14 36 26 40 29 9 60 54 60 88 l0
30 -100 -7 c-54 -4 -125 -14 -157 -23 -32 -8 -77 -19 -100 -24 -24 -5 -66 -24
-95 -44 -29 -19 -61 -35 -70 -35 -26 0 -22 -19 9 -43 l27 -21 -35 -8 c-26 -5
-37 -3 -47 10 -11 15 -14 15 -28 0 -15 -15 -14 -17 6 -28 13 -7 37 -10 55 -7
38 6 57 -4 55 -29 -4 -32 -1 -35 20 -24 24 13 25 33 4 65 l-16 25 45 0 c37 0
51 -5 76 -31 37 -36 39 -68 9 -96 -47 -42 -123 -54 -176 -28 -17 9 -50 19 -74
23 -36 6 -46 13 -58 39 -8 18 -19 32 -25 32 -25 0 -82 -109 -110 -210 -11 -41
-22 -59 -40 -67 -14 -7 -25 -16 -25 -22 0 -5 -12 -16 -27 -24 -27 -14 -72 -49
-103 -81 -80 -83 -117 -117 -172 -162 -34 -29 -82 -71 -104 -95 -81 -84 -154
-165 -154 -171 0 -7 -71 -85 -138 -150 -29 -29 -72 -72 -95 -97 -64 -68 -91
-93 -127 -120 -19 -14 -41 -32 -49 -41 -9 -9 -54 -47 -101 -85 -47 -38 -93
-79 -104 -92 -10 -13 -25 -21 -32 -18 -8 3 -14 0 -14 -6 0 -21 -49 -75 -79
-88 -26 -10 -31 -18 -31 -46 0 -18 -5 -36 -10 -39 -6 -4 -23 -25 -37 -48 -14
-23 -37 -50 -50 -60 -41 -32 -47 -55 -27 -98 9 -22 20 -39 23 -40 3 0 51 -2
106 -4 55 -1 127 -7 160 -13 33 -6 97 -13 142 -17 71 -5 82 -4 77 9 -4 10 -28
16 -82 21 -42 3 -122 13 -177 20 -55 8 -120 16 -145 18 -44 4 -45 5 -45 37 0
37 20 52 28 20 3 -13 13 -20 29 -20 12 0 53 -7 90 -15 38 -8 114 -17 170 -20
57 -3 127 -12 156 -21 29 -8 116 -21 195 -30 78 -8 174 -19 212 -24 62 -9 204
-20 460 -36 44 -2 100 -9 125 -14 41 -9 209 -25 362 -35 123 -8 204 -17 248
-27 25 -5 64 -10 87 -9 23 0 45 -4 49 -10 9 -15 -239 1 -446 28 -63 8 -149 17
-190 19 -41 3 -145 12 -230 20 -85 9 -180 17 -210 18 -30 2 -129 12 -220 24
-276 36 -463 44 -421 18 11 -7 39 -10 291 -31 102 -8 217 -22 255 -30 39 -8
153 -19 255 -25 102 -6 219 -13 260 -16 41 -2 100 -9 130 -14 30 -5 84 -12
120 -15 36 -4 85 -10 110 -15 25 -5 108 -12 185 -15 234 -9 318 -16 353 -27
18 -5 39 -8 46 -5 7 3 47 1 87 -4 41 -5 115 -14 164 -19 50 -6 97 -12 105 -14
22 -4 170 -16 274 -21 49 -2 103 -9 120 -14 59 -18 223 -32 251 -21 15 6 31 7
36 4 17 -10 49 27 49 56 0 14 -5 31 -12 38 -9 9 -9 12 0 12 7 0 12 6 12 13 0
6 18 32 40 57 22 25 49 65 61 90 11 25 27 56 34 70 7 14 21 41 32 60 10 19 22
38 27 42 10 7 32 46 61 106 9 18 21 35 29 38 7 3 13 10 13 17 0 7 18 41 40 77
22 36 54 94 72 130 18 36 37 67 41 70 4 3 41 70 81 150 40 80 80 156 89 170 9
14 27 52 40 85 13 33 30 69 37 81 7 12 20 43 27 70 8 27 21 74 29 105 9 31 34
101 56 155 22 54 43 116 46 137 4 20 12 40 18 44 17 10 42 -31 56 -92 22 -96
91 -135 140 -79 18 21 22 34 18 61 -5 28 -1 38 19 55 35 31 33 74 -6 96 -31
18 -57 69 -69 136 -3 22 -12 41 -19 44 -10 3 -11 -8 -6 -50 3 -29 10 -57 15
-62 5 -6 9 -17 9 -26 0 -9 16 -31 35 -50 32 -31 46 -60 28 -60 -3 0 -23 8 -43
18 -27 12 -42 29 -54 60 -10 23 -21 42 -25 42 -14 0 -21 -13 -12 -24 4 -6 16
-35 26 -65 10 -32 30 -66 48 -82 23 -22 28 -33 23 -53 -14 -58 -91 -14 -103
60 -9 55 -26 83 -64 103 l-34 19 0 159 0 159 33 42 33 42 60 -7 c37 -4 59 -2
59 4 0 21 -42 63 -63 63 -23 0 -93 -22 -142 -45 -16 -7 -54 -23 -84 -34 -109
-43 -242 -123 -228 -137 4 -4 15 0 24 8 33 28 343 171 352 163 3 -4 1 -9 -5
-13 -24 -16 -63 -100 -71 -152 -4 -30 -4 -109 0 -175 4 -66 8 -130 9 -142 0
-12 -14 -52 -32 -90 -18 -37 -48 -122 -67 -188 -19 -66 -39 -136 -45 -155 -11
-39 -84 -189 -99 -204 -5 -6 -9 -16 -9 -23 0 -7 -11 -30 -24 -51 -14 -20 -37
-68 -52 -107 -15 -38 -37 -83 -49 -100 -12 -16 -30 -47 -40 -67 -11 -21 -25
-38 -32 -38 -7 0 -13 -10 -13 -22 0 -13 -33 -76 -73 -140 -149 -242 -202 -331
-213 -357 -31 -74 -115 -131 -183 -125 -20 2 -90 8 -156 14 -66 6 -212 17
-325 25 -113 8 -239 21 -280 29 -157 30 -267 41 -505 50 -345 14 -401 17 -464
32 -60 13 -196 29 -366 40 -38 3 -137 14 -220 25 -82 11 -231 29 -330 40 -260
28 -475 56 -515 67 -97 26 -190 65 -190 81 0 8 42 47 109 100 17 14 34 34 37
45 9 30 55 76 76 76 10 0 18 6 18 14 0 19 88 105 182 178 40 32 89 77 108 101
19 24 54 58 77 77 24 18 43 36 43 41 0 39 224 284 365 399 39 32 86 76 105 99
33 39 99 94 162 134 31 20 25 32 49 -98 6 -38 15 -77 20 -85 4 -8 17 -44 29
-80 24 -69 69 -166 100 -215 36 -56 41 -65 35 -65 -3 0 3 -9 14 -21 28 -30 31
-74 8 -117 -11 -20 -23 -38 -27 -40 -5 -2 -16 -28 -26 -59 -17 -55 -17 -56 4
-73 17 -14 34 -16 90 -12 43 3 72 0 76 -6 3 -6 -2 -34 -13 -64 -10 -29 -22
-65 -25 -79 -6 -29 -42 -79 -57 -79 -6 0 -8 18 -5 43 3 23 8 66 12 95 4 32 3
52 -4 52 -11 0 -32 -75 -32 -115 0 -38 -27 -79 -65 -99 -36 -20 -64 -61 -49
-75 16 -15 80 -32 97 -25 25 9 21 34 -6 34 -13 0 -27 3 -30 7 -11 11 25 43 48
43 46 0 115 72 115 120 0 24 37 63 50 55 6 -4 10 -19 10 -36 0 -16 5 -29 10
-29 6 0 10 -5 10 -11 0 -5 -8 -9 -17 -8 -35 3 -43 -2 -67 -39 -13 -20 -35 -48
-49 -62 -15 -14 -27 -31 -27 -37 0 -34 48 6 84 69 29 51 35 55 54 36 16 -16
52 18 55 51 1 12 10 27 21 33 16 9 24 6 42 -17 33 -42 58 -31 65 32 8 62 12
69 44 75 22 5 25 2 25 -21 0 -24 -24 -128 -50 -214 -13 -45 -6 -72 24 -93 28
-17 72 -5 83 23 4 10 14 26 23 36 10 10 22 35 29 57 6 21 15 41 20 44 5 3 44
-1 87 -8 44 -8 122 -17 174 -21 85 -6 316 -29 412 -42 36 -5 38 -8 53 -62 27
-94 35 -109 63 -115 15 -4 40 -3 55 2 26 7 29 13 34 57 2 28 5 129 6 226 2
175 2 177 27 198 14 11 29 20 33 21 10 0 -10 -37 -25 -47 -17 -10 23 -21 82
-22 25 -1 67 -8 94 -16 27 -8 66 -15 87 -15 47 0 69 -8 69 -27 0 -12 25 -70
36 -82 2 -2 21 -7 42 -11 33 -6 41 -4 51 13 16 25 8 32 -32 29 -37 -4 -64 19
-76 64 -4 17 -19 35 -34 42 -25 12 -26 15 -12 29 9 9 14 22 11 29 -7 18 -33
173 -41 249 -11 93 -33 187 -46 195 -6 4 -21 5 -33 3 -51 -11 -122 -37 -136
-48 -8 -7 -25 -16 -37 -19 -63 -19 -116 -130 -93 -192 11 -29 6 -588 -6 -618
-4 -9 -17 -16 -34 -16 -28 0 -40 18 -40 64 0 10 -10 38 -22 62 -18 37 -26 44
-52 44 -17 1 -78 5 -136 10 -58 5 -188 16 -289 25 -101 8 -198 17 -217 21 -60
11 -78 0 -99 -61 -10 -31 -28 -63 -39 -71 -27 -18 -62 -18 -70 1 -3 9 12 86
34 173 51 198 63 296 65 499 1 179 6 198 49 169 14 -9 36 -16 50 -16 14 0 51
-7 83 -15 148 -39 413 -50 584 -24 125 18 139 22 139 43 0 8 8 16 18 18 12 4
30 44 60 139 24 74 48 145 54 159 6 14 17 48 24 75 44 153 53 183 65 215 6 19
16 44 20 55 11 26 37 100 54 151 7 22 27 68 44 102 17 34 31 68 31 77 0 8 5
15 10 15 6 0 10 7 10 15 0 8 11 31 25 51 14 20 25 42 25 49 0 6 9 20 20 30 11
10 20 23 20 29 0 14 82 141 111 172 12 13 30 24 39 24 10 0 33 13 51 30 32 28
97 55 107 45 3 -3 5 -35 5 -72 0 -91 -47 -206 -135 -336 -27 -40 -156 -322
-174 -382 -23 -74 -52 -186 -59 -222 -3 -18 -9 -42 -13 -55 -12 -32 -7 -484 6
-533 16 -62 41 -182 57 -270 20 -113 63 -220 81 -203 5 6 -5 38 -45 148 -12
30 -21 66 -21 81 0 14 -9 68 -19 120 -11 52 -23 127 -27 167 -3 39 -11 72 -16
72 -5 0 -6 39 -2 98 4 53 8 145 9 203 1 79 6 112 18 129 12 18 14 27 5 37 -8
10 -8 24 0 51 6 20 16 62 23 92 13 63 56 172 123 310 52 108 55 113 117 212
55 88 119 243 119 288 0 41 -24 91 -52 109 -33 21 -137 23 -178 3 -45 -21
-118 -104 -186 -212 -54 -85 -67 -109 -122 -230 -16 -36 -36 -74 -45 -84 -14
-19 -15 -18 -29 15 -56 132 -70 195 -78 371 -7 164 -6 178 17 266 13 51 33
116 43 143 11 27 20 65 20 83 0 28 -5 36 -32 49 -18 8 -66 18 -105 22 -45 4
-71 11 -67 17 4 6 37 8 89 3 83 -7 84 -6 101 20 10 15 29 31 43 36 21 8 29 6
49 -16 20 -22 29 -25 55 -19 46 9 79 28 134 75 50 44 62 63 70 117 4 24 1 32
-11 32 -19 0 -20 8 -1 40 9 16 14 55 14 110 1 176 -35 242 -181 332 -20 13
-29 14 -34 6z m-91 -205 c-22 -21 -52 -56 -66 -78 -14 -22 -38 -53 -52 -70
l-25 -30 0 33 c0 24 9 42 29 63 17 16 39 42 51 57 23 29 67 60 89 61 7 1 -4
-16 -26 -36z m227 -52 c0 -14 -22 -27 -70 -40 -30 -9 -59 -28 -88 -58 -24 -25
-46 -42 -49 -40 -3 3 0 12 6 19 55 68 79 92 110 108 37 20 91 26 91 11z m26
-57 c-4 -14 -14 -24 -24 -24 -10 0 -26 -15 -36 -34 -16 -31 -71 -64 -83 -52
-9 9 18 45 37 51 11 3 20 11 20 17 0 6 -7 7 -17 3 -36 -15 -53 -17 -53 -7 0 5
9 12 21 15 12 3 18 10 15 16 -4 6 13 13 39 17 31 4 52 14 63 29 19 26 28 11
18 -31z m-336 -43 c0 -5 -7 -14 -15 -21 -16 -14 -18 -10 -9 14 6 17 24 22 24
7z m333 -70 c-4 -18 -31 -36 -39 -28 -6 5 26 47 36 47 4 0 6 -9 3 -19z m-83
-16 c0 -10 -65 -45 -82 -45 -35 0 -17 26 25 37 57 14 57 14 57 8z m27 -27 c-3
-8 -6 -5 -6 6 -1 11 2 17 5 13 3 -3 4 -12 1 -19z m78 -57 c-3 -12 -11 -19 -16
-16 -5 4 -3 14 3 25 15 24 22 19 13 -9z m-60 -31 c-3 -5 -11 -10 -16 -10 -6 0
-7 5 -4 10 3 6 11 10 16 10 6 0 7 -4 4 -10z m-98 -16 c-15 -8 -32 -12 -37 -9
-18 11 1 25 33 25 l32 -1 -28 -15z m8 -63 c-6 -5 -25 10 -25 20 0 5 6 4 14 -3
8 -7 12 -15 11 -17z m56 8 c-16 -6 -28 -6 -35 1 -7 7 1 10 25 9 32 0 33 -1 10
-10z m-32 -28 c9 -6 10 -11 2 -15 -13 -8 -31 1 -31 15 0 11 11 11 29 0z
m-1789 -51 c13 -11 28 -30 34 -43 7 -12 29 -30 50 -40 62 -29 67 -38 51 -83
-8 -21 -14 -47 -15 -58 0 -12 -5 -16 -15 -12 -8 3 -15 1 -15 -5 0 -13 -203 0
-212 14 -3 6 -4 16 -1 22 2 7 -8 22 -23 34 -25 20 -25 21 -5 21 11 0 21 5 21
10 0 6 8 10 18 10 19 0 80 20 100 33 18 12 15 51 -8 80 -33 42 -20 52 20 17z
m1450 -64 c0 -9 -40 -13 -46 -5 -3 5 6 9 20 9 14 0 26 -2 26 -4z m-1266 -101
c-6 -16 -24 -21 -24 -7 0 11 11 22 21 22 5 0 6 -7 3 -15z m1946 -315 c0 -6
-28 -23 -62 -39 -90 -42 -142 -101 -260 -301 -104 -175 -174 -355 -314 -805
-14 -44 -31 -96 -39 -115 -7 -19 -23 -67 -35 -107 -12 -39 -28 -74 -36 -77
-18 -7 -18 -3 6 44 11 21 19 49 19 62 -1 13 20 102 45 198 69 266 81 309 89
316 4 4 7 16 7 26 0 19 33 104 75 193 87 184 170 347 183 357 8 7 23 31 33 53
42 94 175 207 222 189 9 -3 24 -1 34 5 23 13 33 14 33 1z m-2262 -196 l94 -37
-4 -54 c-3 -29 -9 -58 -15 -64 -13 -13 -104 -23 -135 -16 -31 8 -47 43 -55
117 -6 58 -1 90 14 90 4 0 49 -16 101 -36z m682 -124 c0 -5 -5 -10 -11 -10 -5
0 -7 5 -4 10 3 6 8 10 11 10 2 0 4 -4 4 -10z m73 -15 c-3 -8 -15 -15 -28 -15
-12 0 -39 -7 -58 -15 -43 -18 -47 -18 -47 -5 0 6 8 10 18 10 9 0 37 11 62 24
48 25 63 25 53 1z m-18 -44 c-6 -11 -94 -61 -106 -61 -5 0 -9 6 -9 13 0 7 21
23 48 35 51 23 77 28 67 13z m50 -22 c0 -8 -22 -26 -50 -41 -57 -31 -65 -33
-65 -15 0 7 20 23 45 35 25 12 45 27 45 33 0 6 6 9 13 7 6 -3 12 -11 12 -19z
m145 -379 c0 -5 -4 -10 -10 -10 -5 0 -10 5 -10 10 0 6 5 10 10 10 6 0 10 -4
10 -10z m-605 -150 c3 -5 1 -10 -4 -10 -6 0 -11 5 -11 10 0 6 2 10 4 10 3 0 8
-4 11 -10z m842 -15 c-15 -16 -22 -11 -13 10 3 9 10 13 16 10 6 -4 5 -11 -3
-20z m-226 -98 c-10 -9 -11 -8 -5 6 3 10 9 15 12 12 3 -3 0 -11 -7 -18z m49
-37 c0 -5 -7 -10 -15 -10 -8 0 -15 5 -15 10 0 6 7 10 15 10 8 0 15 -4 15 -10z
m-220 -26 c0 -2 -7 -4 -15 -4 -8 0 -15 4 -15 10 0 5 7 7 15 4 8 -4 15 -8 15
-10z m-28 -56 c-8 -8 -9 -4 -5 13 4 13 8 18 11 10 2 -7 -1 -18 -6 -23z m718
-102 c0 -7 -7 -19 -15 -26 -17 -14 -50 -5 -40 11 4 6 13 8 21 5 8 -3 14 -1 14
3 0 5 -6 12 -12 14 -7 3 -3 6 10 6 12 1 22 -5 22 -13z m70 4 c0 -5 -10 -16
-23 -24 -12 -9 -36 -38 -52 -65 -17 -28 -33 -51 -37 -51 -20 0 2 40 57 104 39
45 55 56 55 36z m-700 -21 c10 -6 -2 -7 -33 -3 -33 4 -60 2 -85 -8 -20 -9 -62
-25 -92 -38 -86 -35 -100 -36 -65 -5 52 45 131 72 200 67 33 -2 67 -8 75 -13z
m540 -9 c0 -5 -4 -10 -9 -10 -6 0 -13 5 -16 10 -3 6 1 10 9 10 9 0 16 -4 16
-10z m-473 -88 c-19 -26 -37 -55 -40 -64 -6 -17 -27 -25 -27 -11 0 25 46 113
64 121 37 17 38 2 3 -46z m-61 2 c-7 -16 -20 -44 -27 -61 -8 -18 -17 -33 -22
-33 -18 0 -18 34 -1 73 11 23 18 44 16 46 -6 9 32 19 41 12 4 -4 1 -21 -7 -37z
m147 33 c4 -19 -69 -127 -85 -127 -34 0 -15 51 41 113 24 26 40 31 44 14z
m-206 -11 c-3 -8 -11 -33 -18 -55 -9 -29 -17 -41 -28 -39 -28 5 -25 48 5 79
29 31 50 38 41 15z m271 7 c-2 -5 -16 -34 -30 -65 -20 -43 -32 -58 -47 -58
-12 0 -21 6 -21 12 0 21 72 118 87 118 8 0 13 -3 11 -7z m347 -24 c-3 -13 -15
-35 -26 -49 l-21 -25 7 29 c6 30 35 79 42 72 2 -2 1 -14 -2 -27z m-285 15 c0
-3 -9 -19 -20 -35 -12 -15 -26 -42 -31 -59 -6 -16 -17 -30 -25 -30 -20 0 -18
14 12 76 18 38 31 54 45 54 10 0 19 -3 19 -6z m49 -16 c-6 -13 -19 -32 -29
-43 -10 -11 -23 -37 -30 -57 -14 -47 -32 -50 -23 -5 10 55 58 127 84 127 6 0
5 -9 -2 -22z m155 10 c-5 -7 -18 -28 -31 -47 -13 -19 -23 -42 -23 -51 0 -10
-7 -23 -15 -30 -13 -10 -15 -9 -15 8 0 24 45 113 63 124 18 12 29 9 21 -4z
m-139 -53 c-14 -21 -26 -44 -26 -51 -1 -8 -3 -18 -4 -24 -1 -5 -3 -14 -4 -20
-2 -19 -21 -10 -21 10 0 35 70 155 77 133 2 -6 -8 -28 -22 -48z m44 -24 c-17
-33 -36 -58 -41 -55 -13 8 0 42 35 93 42 61 45 37 6 -38z m-519 50 c0 -5 -7
-14 -15 -21 -12 -10 -15 -10 -15 2 0 8 3 18 7 21 9 10 23 9 23 -2z m636 -3
c-2 -7 -10 -30 -17 -50 -7 -21 -18 -38 -26 -38 -16 0 -12 26 13 67 18 31 41
47 30 21z m-356 -108 c0 -5 -7 -10 -15 -10 -8 0 -15 5 -15 10 0 6 7 10 15 10
8 0 15 -4 15 -10z m843 -168 c28 -157 40 -242 34 -248 -3 -3 -54 -5 -114 -3
-59 1 -119 2 -133 2 -14 0 -32 -3 -41 -7 -15 -7 -17 6 -15 129 l1 136 50 17
c28 10 64 27 81 39 37 26 95 43 110 32 6 -5 18 -48 27 -97z m-153 -292 c0 -5
-7 -10 -15 -10 -8 0 -15 5 -15 10 0 6 7 10 15 10 8 0 15 -4 15 -10z m173 -25
c-5 -13 -23 -22 -23 -11 0 15 14 35 21 31 4 -3 6 -12 2 -20z m-1502 -49 c13
-3 40 -8 61 -11 35 -5 36 -6 36 -49 -1 -31 -5 -43 -14 -39 -7 2 -15 11 -18 19
-7 17 -39 18 -67 2 -18 -11 -23 -10 -27 1 -3 8 -16 25 -30 38 -30 28 -24 58
12 49 13 -3 34 -8 47 -10z m-1725 -431 c30 -14 60 -25 67 -25 7 0 32 -7 56
-16 25 -8 106 -22 180 -30 75 -8 165 -18 201 -24 36 -5 103 -12 150 -16 104
-7 268 -28 375 -49 44 -8 172 -22 283 -30 112 -8 207 -17 211 -19 25 -16 205
-28 621 -42 74 -2 141 -6 150 -9 9 -3 49 -9 90 -15 158 -20 284 -41 299 -50
23 -13 -152 -2 -279 17 -61 9 -184 17 -295 18 -144 2 -203 6 -245 19 -34 11
-89 17 -145 17 -49 0 -133 6 -185 14 -52 7 -140 17 -195 20 -55 4 -134 11
-175 16 -110 15 -334 38 -351 36 -8 -1 -41 2 -74 6 -59 8 -216 26 -405 47 -52
6 -141 22 -197 35 -135 33 -228 40 -259 20 -21 -14 -24 -14 -24 0 0 8 5 15 10
15 6 0 10 7 10 15 0 8 9 15 19 15 11 0 23 9 26 20 8 26 15 25 81 -5z m-84
-107 c-15 -15 -24 -6 -16 16 5 12 10 14 17 7 8 -8 8 -14 -1 -23z m208 3 c30
-6 69 -14 85 -16 17 -3 53 -9 80 -14 28 -5 61 -8 75 -8 29 0 105 -8 205 -22
39 -6 110 -13 159 -16 48 -3 111 -10 140 -16 28 -5 102 -14 165 -19 63 -6 130
-14 150 -19 20 -5 86 -12 146 -16 233 -13 409 -27 459 -36 59 -12 190 -24 401
-39 83 -6 168 -15 190 -20 22 -5 112 -11 200 -15 165 -6 278 -18 330 -34 l30
-9 -30 -1 c-50 -1 -533 27 -650 38 -259 25 -322 31 -350 36 -16 2 -97 9 -180
15 -82 5 -175 14 -205 19 -30 5 -80 10 -110 10 -30 1 -86 8 -125 15 -38 8
-131 17 -205 20 -192 9 -363 25 -450 42 -41 8 -96 14 -121 14 -26 0 -91 9
-145 21 -55 11 -139 22 -189 25 -127 5 -228 35 -212 61 6 10 59 4 157 -16z
m2950 -240 c52 -5 124 -13 160 -17 36 -4 70 -11 76 -16 7 -5 23 -4 38 2 35 13
36 13 36 -7 0 -14 -11 -15 -107 -9 -60 4 -148 9 -198 12 -49 3 -126 11 -170
19 -44 8 -109 17 -145 21 -35 4 -57 10 -48 13 20 7 220 -3 358 -18z m-863 -41
c70 -6 142 -13 158 -16 17 -3 95 -7 175 -9 146 -5 346 -19 475 -35 39 -4 125
-6 191 -3 l121 4 5 -25 c4 -19 0 -27 -15 -32 -34 -11 -155 -4 -200 11 -23 8
-94 17 -157 20 -112 5 -310 22 -360 30 -14 3 -101 12 -195 20 -175 17 -373 42
-343 44 9 0 75 -4 145 -9z m828 -30 c3 -6 -1 -7 -9 -4 -18 7 -21 14 -7 14 6 0
13 -4 16 -10z m212 -6 c-3 -3 -12 -4 -19 -1 -8 3 -5 6 6 6 11 1 17 -2 13 -5z"/>
</g>
<g>
<path d="M2812 4385 c-16 -14 -33 -25 -36 -25 -4 0 -17 -9 -29 -20 -41 -39
-136 -57 -187 -36 -8 3 -22 2 -30 -4 -27 -17 3 -30 85 -36 44 -4 85 -11 92
-16 8 -6 18 -4 30 7 87 76 78 76 138 -5 27 -37 36 -61 41 -107 6 -54 4 -62
-26 -108 -47 -71 -69 -90 -126 -109 -63 -21 -111 -15 -195 22 -87 40 -120 70
-158 146 -17 36 -44 74 -58 86 -33 26 -94 27 -116 2 -29 -31 -21 -45 19 -39
59 10 109 -22 139 -88 28 -60 53 -83 129 -119 106 -49 125 -56 159 -56 50 0
65 -22 38 -56 -12 -15 -21 -33 -21 -40 0 -8 -9 -19 -20 -26 -11 -7 -20 -17
-20 -23 0 -6 -9 -16 -20 -23 -22 -14 -17 -38 10 -45 14 -4 20 -18 25 -61 11
-86 30 -66 30 32 0 60 4 85 15 97 14 14 20 12 55 -21 22 -20 47 -41 55 -48 8
-6 26 -28 40 -48 27 -42 56 -52 45 -17 -8 25 -19 39 -92 116 -53 56 -55 59
-43 88 7 17 15 45 17 63 4 23 14 37 32 47 15 7 40 32 54 54 18 28 35 41 50 41
12 0 29 5 37 10 13 8 12 11 -4 23 -14 11 -19 28 -21 78 -2 68 -15 102 -73 183
-30 42 -32 48 -17 62 17 17 16 35 -2 41 -6 2 -24 -8 -41 -22z"/>
</g>
<g>
<path d="M2030 4375 c0 -9 5 -15 11 -13 6 2 11 8 11 13 0 5 -5 11 -11 13 -6 2
-11 -4 -11 -13z"/>
</g>
<g>
<path d="M3658 4344 c-4 -3 0 -17 8 -32 8 -15 14 -32 14 -39 0 -14 19 -28 27
-20 7 7 -27 97 -37 97 -4 0 -9 -3 -12 -6z"/>
</g>
<g>
<path d="M1213 4320 c-3 -11 -9 -20 -14 -20 -14 0 -11 -54 4 -75 12 -15 15
-16 23 -4 5 8 9 21 10 29 3 43 5 50 14 50 6 0 10 -10 10 -23 0 -25 44 -75 53
-60 10 16 -11 97 -29 110 -27 20 -65 16 -71 -7z"/>
</g>
<g>
<path d="M1030 4311 c-17 -33 -12 -48 30 -81 23 -18 39 -35 36 -37 -3 -3 -27
1 -55 8 -46 11 -52 11 -71 -6 -11 -10 -20 -26 -20 -36 0 -19 46 -49 77 -49 10
0 -1 -10 -25 -22 -27 -14 -41 -27 -37 -36 3 -7 5 -21 5 -29 0 -13 9 -14 49 -9
72 9 82 3 74 -50 -4 -28 -1 -49 7 -59 16 -20 57 -19 68 1 5 8 20 22 33 29 52
29 112 55 128 55 19 0 151 -88 151 -101 0 -5 9 -9 20 -9 32 0 23 29 -15 44
-37 16 -52 26 -91 66 -19 19 -34 25 -67 24 -57 -1 -148 -31 -170 -56 -22 -25
-33 -18 -17 12 9 16 8 25 -1 38 -26 34 -44 42 -93 43 l-51 2 45 6 c52 7 70 17
70 35 0 16 -38 43 -74 52 -14 3 -26 10 -26 15 0 12 37 11 45 -1 8 -13 82 -13
90 0 4 6 0 24 -9 41 -16 32 -14 33 42 12 25 -10 10 11 -45 63 -60 57 -86 66
-103 35z"/>
</g>
<g>
<path d="M1916 4311 c-24 -27 -28 -60 -8 -87 16 -22 40 -35 27 -15 -3 6 4 26
15 46 32 58 6 101 -34 56z"/>
</g>
<g>
<path d="M2187 4313 c-3 -5 -3 -14 1 -20 8 -12 225 -34 265 -26 49 10 40 24
-15 22 -46 -2 -136 9 -220 27 -14 3 -28 1 -31 -3z"/>
</g>
<g>
<path d="M3572 4259 c-15 -6 -22 -15 -20 -26 5 -26 31 -27 46 -2 17 27 4 40
-26 28z"/>
</g>
<g>
<path d="M2020 4240 c-13 -9 -13 -11 0 -20 8 -5 24 -10 36 -10 30 0 84 -20 84
-31 0 -11 57 -12 64 -1 23 38 -138 92 -184 62z"/>
</g>
<g>
<path d="M2790 4240 c0 -5 7 -10 15 -10 8 0 15 5 15 10 0 6 -7 10 -15 10 -8 0
-15 -4 -15 -10z"/>
</g>
<g>
<path d="M2502 4218 c3 -7 15 -15 27 -16 16 -3 22 1 19 10 -3 7 -15 15 -27 16
-16 3 -22 -1 -19 -10z"/>
</g>
<g>
<path d="M2413 4194 c-8 -21 19 -38 30 -18 9 16 1 34 -14 34 -5 0 -12 -7 -16
-16z"/>
</g>
<g>
<path d="M2612 4201 c2 -7 7 -12 11 -12 12 1 9 15 -3 20 -7 2 -11 -2 -8 -8z"/>
</g>
<g>
<path d="M2690 4181 c0 -12 6 -21 16 -21 9 0 14 7 12 17 -5 25 -28 28 -28 4z"/>
</g>
<g>
<path d="M1157 4148 c-9 -24 -14 -59 -12 -78 2 -19 4 -39 4 -43 1 -5 9 -7 18
-5 14 2 17 12 15 48 -2 25 1 57 7 72 7 20 7 29 -3 37 -10 9 -17 2 -29 -31z"/>
</g>
<g>
<path d="M1320 4182 c0 -33 144 -92 225 -92 29 0 56 4 59 8 8 14 256 31 296
21 8 -2 15 3 15 11 0 10 -17 19 -47 27 -39 9 -69 8 -170 -8 -175 -26 -214 -25
-286 11 -61 30 -92 37 -92 22z"/>
</g>
<g>
<path d="M1927 4184 c-3 -4 1 -17 10 -31 12 -18 13 -27 5 -32 -12 -7 1 -76 17
-85 17 -11 43 22 48 61 5 36 2 45 -22 67 -28 26 -46 32 -58 20z"/>
</g>
<g>
<path d="M2750 4165 c0 -8 5 -15 10 -15 6 0 10 7 10 15 0 8 -4 15 -10 15 -5 0
-10 -7 -10 -15z"/>
</g>
<g>
<path d="M2136 4152 c-7 -11 26 -152 35 -152 18 0 18 43 0 96 -23 63 -26 69
-35 56z"/>
</g>
<g>
<path d="M2520 4125 c0 -8 5 -15 10 -15 6 0 10 7 10 15 0 8 -4 15 -10 15 -5 0
-10 -7 -10 -15z"/>
</g>
<g>
<path d="M2614 4125 c-5 -13 -9 -13 -22 -3 -9 7 -14 9 -11 3 30 -61 45 -85 52
-85 4 0 1 10 -7 22 -20 28 -20 38 -1 38 17 0 20 25 5 35 -6 3 -13 -1 -16 -10z"/>
</g>
<g>
<path d="M1200 4110 c0 -14 60 -50 83 -50 30 0 18 29 -19 45 -42 17 -64 19
-64 5z"/>
</g>
<g>
<path d="M2710 4041 c0 -24 18 -37 32 -23 8 8 7 16 -2 27 -17 21 -30 19 -30
-4z"/>
</g>
<g>
<path d="M2822 4048 c-6 -6 -12 -19 -12 -27 0 -13 2 -13 16 1 9 9 15 21 13 27
-3 9 -8 8 -17 -1z"/>
</g>
<g>
<path d="M2630 4022 c0 -4 9 -13 20 -20 22 -13 27 -3 8 16 -14 14 -28 16 -28
4z"/>
</g>
<g>
<path d="M2657 3973 c-12 -11 -8 -23 8 -23 8 0 15 7 15 15 0 16 -12 20 -23 8z"/>
</g>
<g>
<path d="M2720 3960 c0 -5 5 -10 10 -10 6 0 10 5 10 10 0 6 -4 10 -10 10 -5 0
-10 -4 -10 -10z"/>
</g>
<g>
<path d="M1818 3953 c7 -3 16 -2 19 1 4 3 -2 6 -13 5 -11 0 -14 -3 -6 -6z"/>
</g>
<g>
<path d="M3880 3711 c0 -5 7 -14 15 -21 8 -7 15 -20 15 -28 0 -12 3 -13 12 -4
9 9 8 17 -2 37 -13 24 -40 35 -40 16z"/>
</g>
<g>
<path d="M2510 3292 c0 -5 7 -15 15 -22 8 -7 15 -9 15 -6 0 4 -7 14 -15 22 -8
9 -15 11 -15 6z"/>
</g>
<g>
<path d="M5553 3223 c-3 -10 -15 -30 -25 -45 -10 -14 -18 -34 -18 -45 0 -10
-8 -34 -18 -53 -10 -19 -24 -56 -31 -82 -7 -26 -24 -57 -37 -69 -35 -33 -31
-49 14 -49 51 -1 122 -34 122 -58 0 -31 19 -41 70 -35 49 6 65 -3 54 -31 -5
-12 -16 -14 -52 -9 -47 6 -52 -9 -7 -20 16 -4 15 -5 -6 -6 -36 -1 -64 -32 -83
-89 -17 -50 -29 -60 -95 -81 -46 -15 -62 -14 -59 3 2 8 -1 15 -7 15 -5 1 -10
-7 -10 -16 0 -22 -44 -38 -79 -29 -35 9 -56 57 -56 127 0 61 18 129 37 136 16
6 17 35 1 52 -11 11 -8 12 15 7 16 -4 27 -2 27 4 0 14 -46 31 -65 24 -23 -9
-18 14 10 41 25 26 50 32 60 15 8 -13 35 -13 35 0 0 5 -13 16 -30 25 -38 20
-65 7 -103 -46 -38 -55 -40 -84 -5 -84 45 0 45 -2 2 -101 -9 -20 -11 -49 -8
-80 5 -39 3 -53 -10 -63 -24 -20 -19 -48 14 -83 36 -37 35 -46 -8 -73 -17 -11
-31 -26 -32 -32 0 -18 7 -16 46 13 l34 26 10 -26 c7 -20 16 -26 40 -26 29 0
31 2 28 33 -2 23 -9 33 -23 35 -11 2 -28 14 -38 28 -19 26 -8 34 13 9 17 -20
42 -19 71 4 34 26 95 44 125 37 13 -4 24 -2 24 4 0 5 14 16 30 25 31 16 39 39
18 48 -10 4 -10 8 0 15 8 5 19 20 25 32 15 30 84 55 104 39 11 -9 17 -8 28 7
35 46 3 128 -48 124 -51 -5 -66 1 -83 30 -12 19 -34 35 -66 47 -46 16 -63 42
-38 58 12 7 50 92 50 111 0 8 5 14 11 14 5 0 17 17 25 38 16 40 44 102 51 115
2 4 -7 7 -22 7 -15 0 -28 -7 -32 -17z m-248 -803 c3 -5 -1 -10 -10 -10 -9 0
-13 5 -10 10 3 6 8 10 10 10 2 0 7 -4 10 -10z"/>
</g>
<g>
<path d="M2199 2839 c-6 -22 -6 -79 0 -79 13 0 31 24 31 41 0 14 -28 48 -31
38z"/>
</g>
<g>
<path d="M1967 2808 c-7 -24 12 -43 26 -29 12 12 5 43 -9 48 -6 2 -14 -6 -17
-19z"/>
</g>
<g>
<path d="M5310 2798 c1 -15 49 -52 57 -44 3 3 -2 17 -11 31 -17 26 -46 34 -46
13z"/>
</g>
<g>
<path d="M2075 2786 c-63 -15 -95 -33 -95 -51 0 -17 36 -38 51 -30 14 9 133
-5 122 -15 -4 -4 -41 -15 -81 -25 -49 -12 -76 -23 -83 -36 -12 -24 -4 -39 21
-39 10 0 22 -4 25 -10 3 -5 30 -10 60 -10 31 0 55 -5 57 -11 3 -9 10 -9 26 0
16 9 22 20 21 44 -1 18 -3 25 -6 16 -7 -27 -61 -31 -150 -13 -13 2 -23 9 -23
14 0 12 65 30 111 30 40 0 59 15 59 46 0 24 -35 34 -118 34 -66 0 -48 23 28
35 35 6 65 16 68 23 5 15 -26 14 -93 -2z"/>
</g>
<g>
<path d="M2590 2773 c-30 -18 -63 -60 -53 -66 5 -3 27 12 51 33 44 40 45 60 2
33z"/>
</g>
<g>
<path d="M5450 2744 c0 -11 8 -14 32 -12 46 4 49 28 4 28 -26 0 -36 -4 -36
-16z"/>
</g>
<g>
<path d="M1980 2686 c0 -9 7 -16 16 -16 17 0 14 22 -4 28 -7 2 -12 -3 -12 -12z"/>
</g>
<g>
<path d="M5435 2690 c3 -5 8 -10 11 -10 2 0 4 5 4 10 0 6 -5 10 -11 10 -5 0
-7 -4 -4 -10z"/>
</g>
<g>
<path d="M5312 2653 c2 -10 10 -18 18 -18 22 0 18 29 -3 33 -14 3 -18 -1 -15
-15z"/>
</g>
<g>
<path d="M2887 2591 c-46 -46 -47 -48 -29 -64 25 -23 35 -21 27 4 -5 16 1 30
25 54 51 53 30 58 -23 6z"/>
</g>
<g>
<path d="M5290 2582 c0 -9 40 -35 46 -29 3 2 2 12 -2 21 -6 16 -44 23 -44 8z"/>
</g>
<g>
<path d="M2040 2530 c0 -13 37 -50 49 -50 22 0 22 24 0 41 -26 20 -49 25 -49
9z"/>
</g>
<g>
<path d="M4721 2391 c-38 -46 -51 -72 -33 -71 8 1 85 93 90 109 9 26 -19 7
-57 -38z"/>
</g>
<g>
<path d="M4422 2347 c-23 -5 -41 -15 -39 -21 5 -15 50 -8 101 14 40 18 40 19
11 18 -16 0 -49 -5 -73 -11z"/>
</g>
<g>
<path d="M4586 2271 c-4 -5 -41 -24 -84 -41 -80 -33 -100 -46 -90 -56 7 -6
149 51 186 74 12 8 22 18 22 23 0 12 -27 12 -34 0z"/>
</g>
<g>
<path d="M4850 2024 c-13 -33 -13 -34 5 -34 17 0 34 29 28 48 -7 20 -23 14
-33 -14z"/>
</g>
<g>
<path d="M4568 2000 c-35 -32 -39 -40 -23 -39 11 0 40 18 64 39 36 33 40 40
23 40 -12 0 -40 -18 -64 -40z"/>
</g>
<g>
<path d="M4711 1891 c-30 -38 -61 -82 -69 -97 -8 -16 -21 -37 -30 -46 -14 -16
-13 -18 1 -18 9 0 35 28 58 63 24 34 60 83 81 108 41 48 45 59 26 58 -7 0 -37
-31 -67 -68z"/>
</g>
<g>
<path d="M4378 1933 c-38 -15 -52 -43 -23 -43 30 0 85 29 85 44 0 20 -14 19
-62 -1z"/>
</g>
<g>
<path d="M2793 1628 c1 -24 -7 -92 -16 -153 -10 -60 -23 -139 -28 -175 -6 -36
-15 -79 -21 -97 -6 -23 -6 -36 2 -45 6 -7 16 -21 23 -31 10 -15 38 -19 192
-28 99 -6 219 -13 267 -16 114 -7 198 3 198 24 0 13 -7 14 -37 8 -52 -10 -157
-7 -408 10 -82 6 -162 18 -182 27 -18 9 -23 20 -23 48 0 43 9 52 65 70 22 7
47 18 55 24 33 25 61 36 90 36 25 0 30 -4 30 -25 0 -13 -5 -36 -12 -51 -11
-24 -10 -29 17 -50 17 -14 40 -27 52 -30 30 -8 77 30 80 63 4 54 8 56 87 49
40 -4 84 -9 97 -13 40 -10 103 -11 127 -2 20 8 23 15 20 46 -3 38 -3 38 -58
45 -30 3 -95 9 -145 12 -49 3 -90 5 -91 6 -1 0 -4 37 -8 83 -4 45 -10 93 -13
106 l-6 23 79 -6 c180 -14 208 -18 223 -34 23 -22 37 -175 31 -324 -5 -115 -6
-123 -25 -123 -13 0 -21 -8 -23 -22 -3 -19 1 -23 22 -23 14 0 28 -4 31 -10 3
-5 13 -10 21 -10 13 0 13 2 0 21 -9 13 -12 29 -7 43 9 27 7 337 -4 398 -14 87
-56 102 -320 114 -43 2 -102 11 -131 19 -29 8 -88 15 -132 15 -45 0 -84 5 -87
10 -3 6 -12 10 -19 10 -9 0 -13 -14 -13 -42z m225 -23 c14 -12 7 -155 -8 -155
-4 0 -11 15 -14 33 -3 19 -19 54 -35 79 -16 26 -27 49 -24 51 4 5 74 -2 81 -8z
m82 -12 c0 -16 -35 -93 -42 -93 -12 0 -10 16 8 60 14 35 34 54 34 33z m-11
-120 c-28 -57 -44 -82 -47 -70 -2 10 3 26 11 35 8 9 26 44 41 76 14 32 29 56
33 53 3 -4 -14 -46 -38 -94z m51 -7 c0 -8 -7 -19 -15 -26 -8 -7 -15 -20 -15
-29 0 -9 -14 -36 -30 -61 -28 -41 -30 -42 -24 -15 4 17 15 46 25 65 10 19 23
48 28 63 11 27 31 29 31 3z m-30 -159 c-19 -44 -36 -64 -45 -55 -3 2 10 32 28
66 36 69 49 61 17 -11z m120 23 c0 -5 -7 -10 -15 -10 -8 0 -15 5 -15 10 0 6 7
10 15 10 8 0 15 -4 15 -10z m70 -11 c0 -5 -9 -9 -20 -9 -19 0 -26 11 -14 23 8
8 34 -3 34 -14z m70 0 c0 -12 -29 -24 -37 -16 -3 4 -3 13 0 21 6 16 37 11 37
-5z m70 -9 c0 -13 -7 -20 -19 -20 -25 0 -38 20 -20 31 23 15 39 10 39 -11z"/>
</g>
<g>
<path d="M3230 1225 c0 -8 5 -15 10 -15 6 0 10 7 10 15 0 8 -4 15 -10 15 -5 0
-10 -7 -10 -15z"/>
</g>
</g>
</svg>
