<?xml version="1.0" standalone="no"?>
<!DOCTYPE svg PUBLIC "-//W3C//DTD SVG 20010904//EN"
 "http://www.w3.org/TR/2001/REC-SVG-20010904/DTD/svg10.dtd">
<svg version="1.0" xmlns="http://www.w3.org/2000/svg"
 width="834.000000pt" height="772.000000pt" viewBox="0 0 834.000000 772.000000"
 preserveAspectRatio="xMidYMid meet">
<metadata>
Created by potrace 1.15, written by Peter Selinger 2001-2017
</metadata>
<g transform="translate(0.000000,772.000000) scale(0.100000,-0.100000)"
fill="#000000" stroke="none">
<g>
<path d="M4650 7119 c-56 -11 -104 -58 -120 -120 -7 -24 -21 -56 -31 -70 -10
-15 -19 -37 -19 -49 0 -29 -48 -141 -70 -160 -9 -8 -19 -23 -23 -32 -3 -10
-11 -18 -16 -18 -11 0 -53 -80 -71 -135 -7 -22 -33 -77 -57 -123 -23 -46 -43
-90 -43 -97 0 -8 -9 -31 -20 -52 -10 -21 -26 -77 -34 -124 -14 -77 -47 -185
-74 -235 -25 -47 -42 -132 -42 -213 0 -47 -3 -110 -6 -138 l-7 -53 -43 0 c-59
0 -56 -16 5 -24 39 -5 57 -15 90 -46 44 -43 47 -50 30 -67 -11 -11 -25 -9
-151 29 -73 22 -87 37 -58 63 11 10 17 22 14 26 -9 15 -43 -10 -50 -36 -4 -16
-13 -25 -25 -25 -11 0 -27 -9 -36 -20 -10 -11 -23 -20 -30 -20 -9 0 -12 -15
-11 -47 2 -60 -18 -167 -32 -171 -41 -14 -51 -66 -21 -103 l19 -24 -5 46 c-5
44 -4 47 25 57 58 20 152 -23 152 -70 0 -22 -34 -24 -70 -3 -40 23 -67 18 -83
-14 -13 -26 -12 -33 10 -79 24 -50 47 -70 59 -51 3 6 -2 20 -12 32 -11 12 -24
32 -31 44 -10 18 -9 23 11 36 20 13 25 13 50 -2 25 -15 27 -19 22 -66 -14
-129 -18 -145 -47 -176 -15 -17 -31 -47 -35 -67 -11 -61 -52 -163 -74 -187
-11 -12 -20 -27 -20 -33 0 -7 -4 -12 -9 -12 -8 0 -61 -109 -61 -127 0 -30
-106 -195 -172 -267 -13 -15 -15 -23 -6 -33 8 -10 8 -12 -4 -8 -17 7 -68 -47
-68 -72 0 -10 9 -32 19 -49 11 -18 22 -57 25 -88 8 -72 19 -95 64 -129 31 -24
42 -27 77 -21 44 7 75 29 75 52 0 8 21 39 48 68 58 64 122 150 122 163 0 6 9
15 20 21 11 6 20 19 20 29 0 11 15 38 34 60 19 23 38 50 41 61 4 11 10 20 15
20 4 0 11 17 14 38 4 20 20 64 35 97 16 33 34 72 40 88 17 45 28 31 34 -45 9
-94 9 -96 74 -328 13 -48 46 -125 72 -170 26 -47 41 -80 41 -94 0 -9 7 -19 16
-23 9 -3 55 -44 101 -90 76 -74 89 -83 122 -82 20 0 50 9 66 20 17 10 37 22
45 26 15 7 57 42 97 80 12 12 36 29 52 39 21 12 46 50 88 132 40 79 75 132
111 170 29 30 55 52 58 49 9 -9 -18 -101 -47 -161 -34 -69 -33 -66 -14 -66 30
0 105 182 105 257 0 13 3 23 8 22 13 0 64 -120 69 -162 4 -40 13 -69 34 -110
10 -18 -6 -141 -23 -187 -5 -14 -26 -49 -46 -78 -22 -32 -32 -56 -26 -60 6 -4
4 -13 -7 -24 -17 -16 -18 -16 -22 0 -4 14 -6 13 -12 -5 -4 -13 -15 -23 -25
-23 -9 0 -29 -13 -43 -30 -33 -36 -36 -55 -6 -40 11 6 32 9 47 5 20 -4 34 0
49 15 12 11 24 20 26 20 2 0 22 17 43 37 l39 37 2 -55 c2 -30 10 -90 19 -135
l16 -80 -26 -56 c-27 -58 -36 -148 -14 -148 13 0 -19 -38 -45 -52 -13 -6 -23
-6 -33 3 -15 12 -19 10 -76 -43 -18 -17 -35 -24 -48 -21 -14 4 -22 -2 -31 -23
-6 -16 -16 -38 -21 -49 -12 -26 -137 -86 -201 -96 -31 -5 -57 -17 -71 -32 -12
-13 -44 -37 -72 -52 -27 -16 -75 -46 -106 -67 -31 -21 -61 -38 -66 -38 -5 0
-74 -52 -153 -115 -79 -63 -150 -115 -156 -115 -7 0 -13 -3 -13 -7 0 -5 -19
-17 -41 -28 -42 -20 -85 -65 -110 -113 -7 -15 -26 -46 -42 -70 -16 -23 -37
-62 -47 -85 -14 -32 -31 -49 -65 -68 -66 -34 -81 -43 -99 -59 -15 -12 -21 -9
-47 19 -16 18 -29 36 -29 40 0 4 -29 32 -63 62 -35 30 -76 71 -91 91 -15 21
-33 38 -40 38 -16 0 -62 51 -70 77 -4 14 4 37 27 71 24 35 37 67 42 107 6 51
4 60 -19 94 -14 20 -26 42 -26 47 0 13 -53 64 -66 64 -5 0 -15 9 -22 20 -7 11
-19 20 -28 20 -9 0 -38 14 -66 32 -46 30 -49 35 -48 73 3 57 1 67 -9 61 -4 -3
-11 -24 -15 -46 -5 -31 -11 -40 -26 -40 -12 0 -23 6 -26 14 -3 7 0 67 5 132 7
76 7 122 1 128 -5 5 -12 7 -15 5 -3 -3 -8 -61 -12 -128 -4 -76 -10 -124 -17
-127 -7 -3 -29 2 -51 9 -39 13 -40 16 -46 68 -4 30 -1 95 6 144 16 107 18 185
5 204 -7 12 -10 10 -14 -10 -7 -37 -20 -235 -19 -312 0 -67 0 -68 -26 -65 -20
2 -27 10 -32 36 -11 55 -17 54 -35 -7 -3 -10 -19 -12 -72 -7 -37 3 -78 8 -92
11 -14 2 -47 7 -75 10 -124 14 -199 26 -205 33 -3 4 -38 7 -78 7 -41 0 -76 3
-79 8 -2 4 -38 7 -80 7 l-76 0 6 98 c6 97 1 152 -13 152 -4 0 -10 -52 -12
-115 -3 -64 -8 -118 -11 -121 -17 -17 -27 15 -27 87 0 79 -9 97 -31 58 -8 -15
-8 -24 0 -32 12 -12 15 -85 5 -111 -11 -28 -34 -18 -34 14 0 17 -4 30 -9 30
-5 0 -17 30 -27 68 -9 37 -25 85 -35 107 -10 22 -23 74 -29 115 -12 74 -32
142 -57 190 -7 14 -13 43 -13 65 0 37 -33 197 -50 240 -4 11 -13 33 -19 48 -6
15 -11 41 -11 58 0 19 -9 38 -23 52 -33 31 -44 54 -52 117 -4 30 -16 81 -26
114 -24 74 -41 169 -40 221 1 54 -8 64 -59 66 -106 3 -170 -6 -192 -29 -19
-18 -20 -22 -6 -22 9 0 20 5 23 10 3 6 29 10 56 10 28 0 59 5 70 11 11 6 33 7
50 4 l29 -7 0 -81 c1 -48 7 -98 16 -122 28 -72 54 -160 54 -180 0 -39 21 -93
44 -117 30 -30 44 -77 26 -88 -11 -7 -11 -19 0 -67 7 -32 16 -83 20 -113 4
-30 22 -103 39 -161 17 -59 31 -124 31 -145 0 -36 12 -111 39 -241 6 -29 17
-68 26 -89 16 -39 20 -94 7 -94 -33 0 -102 171 -102 254 0 17 -7 51 -16 75 -8
24 -19 77 -24 117 -10 81 -43 183 -62 196 -10 6 -10 11 -1 27 9 14 10 28 4 43
-6 13 -13 44 -16 71 -3 26 -11 47 -17 47 -7 0 -8 -17 -4 -50 16 -121 -29 -40
-55 100 -6 30 -18 64 -28 76 -9 12 -23 41 -30 65 -7 24 -21 62 -32 84 -17 37
-64 179 -76 233 -4 15 -1 22 10 22 8 0 22 3 31 6 12 5 24 -13 52 -73 20 -43
38 -73 40 -67 3 6 -7 35 -21 65 -13 30 -25 62 -25 71 0 16 -55 36 -67 24 -4
-3 -16 3 -28 14 -24 23 -55 18 -55 -8 0 -13 -3 -12 -15 5 -8 12 -12 28 -9 37
10 26 -22 19 -34 -8 -12 -26 -11 -34 5 -86 6 -19 14 -53 18 -75 3 -22 17 -62
30 -90 43 -92 58 -130 61 -155 8 -62 32 -122 61 -150 23 -23 35 -48 48 -103 9
-39 25 -99 35 -132 10 -33 21 -82 25 -110 6 -50 37 -182 56 -243 24 -76 -38
-55 -77 26 -9 19 -33 61 -53 93 -20 32 -51 83 -70 113 -18 31 -38 56 -43 56
-12 0 -13 2 36 -85 37 -67 51 -89 121 -200 38 -60 79 -131 101 -173 31 -61
117 -136 190 -164 24 -10 62 -30 85 -45 23 -16 53 -36 67 -45 22 -15 67 -57
195 -185 55 -55 42 -65 -17 -14 -26 23 -56 45 -66 51 -10 5 -22 19 -25 30 -3
11 -12 20 -20 20 -7 0 -28 12 -45 26 -36 31 -49 25 -30 -12 14 -25 130 -114
149 -114 6 0 11 -4 11 -9 0 -5 19 -23 42 -40 29 -21 44 -27 49 -19 12 19 38
-15 33 -43 -3 -17 6 -34 31 -62 19 -20 39 -37 43 -37 15 0 30 -22 25 -36 -5
-15 -43 -20 -43 -6 0 4 -19 28 -42 53 -24 25 -59 66 -78 92 -36 48 -60 65 -60
44 0 -12 72 -102 127 -160 15 -15 24 -29 21 -32 -3 -4 -52 42 -109 100 -57 58
-112 108 -121 111 -9 3 -20 13 -23 24 -3 10 -20 23 -37 29 -17 6 -37 20 -45
31 -8 11 -20 20 -28 20 -7 0 -16 9 -20 19 -3 11 -12 18 -19 15 -17 -7 -66 41
-66 65 0 19 -47 61 -68 61 -5 0 -15 15 -22 33 -20 54 -26 61 -58 68 -22 4 -40
1 -62 -12 -44 -27 -70 -25 -70 6 0 16 6 25 15 25 19 0 19 24 0 40 -8 7 -15 19
-15 26 0 8 -4 14 -10 14 -5 0 -16 13 -25 30 -8 16 -27 33 -40 36 -14 3 -25 12
-25 20 0 41 80 -23 136 -109 29 -44 53 -41 27 4 -10 16 -46 59 -80 97 -55 58
-65 66 -81 55 -12 -7 -24 -8 -33 -2 -10 6 -10 9 -1 9 21 0 13 29 -17 57 -16
16 -35 44 -44 63 -8 19 -40 61 -71 92 -36 37 -56 65 -56 81 0 13 -9 34 -20 47
-11 13 -20 27 -20 31 0 4 -8 10 -18 13 -19 6 -77 117 -70 136 2 7 34 -23 71
-66 100 -116 109 -127 147 -184 54 -79 68 -96 75 -88 3 3 0 16 -7 29 -29 51
-150 211 -210 277 -40 45 -69 89 -80 120 -22 60 -22 62 -5 62 8 0 19 -11 25
-25 11 -24 32 -34 32 -16 0 18 -42 81 -54 81 -22 0 -36 -24 -36 -62 0 -42 -15
-51 -26 -15 -4 12 -9 24 -13 27 -3 3 -14 20 -23 38 -22 41 -23 91 -3 98 30 12
29 94 -2 94 -8 0 -12 -4 -9 -9 8 -12 -10 -58 -29 -77 -8 -9 -15 -21 -15 -29 0
-15 -45 -47 -54 -38 -3 4 -6 20 -6 37 0 23 8 36 29 50 15 11 34 35 40 53 25
68 64 52 117 -45 20 -37 56 -96 79 -132 22 -36 54 -92 69 -125 30 -64 140
-205 160 -205 16 0 3 35 -22 58 -36 36 -71 86 -107 152 -16 30 -44 78 -62 107
-18 29 -33 58 -33 66 0 8 -7 20 -14 27 -8 6 -25 32 -37 57 -28 59 -83 113
-114 113 -22 0 -36 -13 -75 -69 -8 -11 -19 -21 -25 -21 -12 0 -43 -64 -51
-106 -5 -24 0 -37 20 -59 14 -15 26 -32 26 -38 0 -5 18 -29 39 -52 22 -24 54
-71 71 -106 17 -35 37 -71 43 -79 7 -8 21 -33 32 -55 10 -22 42 -69 71 -105
28 -36 64 -83 78 -105 47 -72 51 -77 74 -103 67 -76 126 -164 162 -238 40 -83
43 -114 11 -114 -10 0 -21 -3 -25 -7 -4 -5 -31 -17 -61 -28 -44 -16 -63 -32
-105 -85 -46 -58 -51 -68 -45 -99 11 -57 52 -128 100 -172 25 -23 45 -47 45
-53 0 -6 -11 -20 -25 -30 -26 -20 -104 -94 -147 -141 -15 -17 -41 -41 -58 -54
-17 -13 -46 -46 -64 -75 -18 -28 -44 -63 -57 -78 -45 -52 -67 -84 -98 -145
-32 -63 -38 -88 -21 -98 6 -3 10 -14 10 -25 0 -18 23 -34 34 -23 3 4 6 17 6
30 0 13 9 33 20 45 24 26 24 23 5 -33 -9 -24 -22 -47 -31 -52 -8 -4 -12 -13
-8 -19 4 -6 -1 -8 -12 -6 -10 2 -21 14 -24 28 -16 70 -73 1 -83 -100 -7 -73 8
-129 69 -258 19 -40 34 -76 34 -79 0 -21 106 -169 157 -220 35 -34 63 -69 63
-77 0 -9 8 -16 19 -16 24 0 168 -95 181 -120 5 -10 27 -24 47 -31 21 -6 44
-16 50 -21 22 -18 2 -31 -36 -24 -20 4 -63 11 -96 15 -33 5 -72 12 -88 16 -22
6 -27 4 -27 -12 0 -25 90 -68 124 -59 32 8 56 -2 56 -24 0 -13 11 -19 42 -23
23 -3 48 -13 55 -23 10 -14 15 -15 28 -4 10 9 30 10 63 6 26 -4 63 -8 82 -10
47 -3 79 -15 104 -37 13 -12 36 -19 65 -20 238 -5 442 -19 436 -29 -13 -21 37
-29 275 -46 80 -5 93 -4 82 7 -9 10 -32 13 -73 11 -35 -1 -59 2 -59 8 0 14 76
12 205 -5 125 -17 205 -19 205 -6 0 5 -10 12 -22 16 -25 8 -29 6 40 21 12 2
22 11 22 20 0 13 13 14 88 8 48 -4 89 -8 91 -10 2 -2 11 6 19 17 14 20 21 21
86 15 39 -4 103 -13 141 -21 105 -23 351 -7 323 20 -2 2 -62 6 -133 9 -175 6
-285 17 -285 27 0 5 6 9 13 10 33 3 194 -3 208 -7 9 -2 26 5 40 17 21 18 35
20 114 18 49 -1 101 -6 114 -11 29 -10 52 5 34 23 -8 8 -67 12 -170 14 -88 1
-165 5 -173 10 -7 4 -70 10 -139 12 -73 2 -130 8 -136 15 -7 7 -6 12 3 15 7 3
18 11 26 18 7 8 25 17 38 20 13 3 47 28 76 56 28 27 60 49 72 49 11 0 20 5 20
11 0 7 9 21 20 33 12 12 42 48 69 81 26 33 60 66 74 74 15 8 27 20 27 28 0 7
10 18 23 24 12 5 33 33 47 62 14 29 40 75 58 104 17 29 32 55 32 58 0 4 14 35
31 70 19 39 28 72 24 83 -4 14 2 26 22 40 21 16 27 27 25 52 -2 27 5 40 43 76
25 24 54 44 64 44 24 0 43 -45 35 -86 -6 -31 -9 -33 -38 -30 -33 4 -86 -20
-86 -40 0 -7 11 -15 24 -18 13 -3 26 -15 29 -26 3 -11 12 -20 21 -20 18 0 21
15 6 25 -13 8 -13 45 0 45 6 0 13 -7 16 -15 4 -8 15 -15 25 -15 12 0 19 -7 19
-20 0 -11 0 -23 0 -27 0 -5 -5 -8 -12 -8 -6 0 -13 -6 -15 -12 -4 -12 0 -14 35
-17 7 -1 16 -6 20 -12 4 -6 22 -15 40 -19 18 -3 32 -13 32 -21 0 -9 11 -14 33
-14 41 0 56 -10 54 -35 -3 -26 37 -33 59 -11 22 22 43 20 53 -7 6 -15 4 -24
-5 -30 -21 -12 -17 -27 6 -27 11 0 23 7 26 15 9 23 33 18 44 -10 5 -14 16 -25
23 -25 8 0 30 -18 49 -40 35 -38 36 -41 31 -102 -4 -59 -2 -67 31 -122 34 -55
35 -60 19 -72 -24 -18 -38 -17 -53 1 -17 21 -33 19 -77 -11 -28 -19 -38 -33
-38 -52 0 -19 -8 -30 -27 -40 -27 -12 -39 -42 -18 -42 6 0 10 -9 10 -20 0 -28
71 -63 115 -56 32 5 34 4 37 -27 l3 -32 90 -3 c81 -2 92 -5 113 -27 20 -22 31
-25 100 -25 42 0 87 -3 100 -6 17 -5 24 -2 28 12 4 17 17 19 105 21 93 3 99 2
99 -17 0 -22 -13 -21 188 -22 100 -1 125 2 140 16 28 25 47 20 49 -13 2 -25
-2 -30 -29 -35 -25 -5 -29 -9 -19 -19 7 -7 50 -13 111 -15 92 -4 99 -5 102
-25 4 -32 80 -37 119 -8 25 19 34 20 110 11 46 -5 85 -7 88 -4 3 3 -4 14 -16
24 -13 10 -23 22 -23 28 0 14 80 22 130 12 74 -15 102 -13 98 7 -5 25 -63 31
-303 32 -195 1 -249 9 -215 31 8 5 24 6 35 3 37 -13 227 -7 235 8 6 8 27 12
66 10 31 -1 70 3 85 10 24 9 35 8 63 -5 49 -23 173 -9 135 15 -8 5 -29 9 -46
9 -18 0 -33 5 -33 10 0 6 22 10 49 10 27 0 56 3 65 6 28 11 6 24 -38 24 -27 0
-48 6 -56 15 -10 12 -9 15 6 16 61 2 251 -2 392 -7 118 -5 162 -4 162 5 0 7
-19 11 -50 11 -53 0 -67 14 -25 24 58 15 14 23 -152 29 -200 8 -285 16 -278
27 3 5 47 9 97 10 51 0 136 3 188 4 62 2 110 -2 139 -11 24 -8 51 -11 58 -8 8
2 102 0 209 -6 189 -10 195 -9 221 10 24 20 38 21 205 20 98 -1 181 1 185 4 3
4 -7 12 -23 18 l-29 12 50 9 c58 10 203 8 226 -3 9 -5 60 -10 115 -14 89 -4
97 -4 80 10 -11 8 -34 15 -50 15 -17 0 -49 3 -71 7 -69 12 -3 20 116 15 76 -3
108 -1 114 7 4 7 4 15 0 19 -3 3 -10 0 -14 -7 -6 -8 -14 -10 -22 -5 -15 9 -26
10 -141 20 -73 6 -78 8 -78 30 0 31 -11 33 -189 37 -97 2 -146 7 -148 14 -3 8
14 11 56 9 34 -2 61 0 61 4 0 12 -27 20 -65 20 -46 0 -57 19 -65 111 -7 83
-33 138 -61 131 -18 -5 -61 19 -82 46 -10 12 -27 22 -38 22 -10 0 -19 7 -19
15 0 8 -7 15 -16 15 -9 0 -53 18 -99 40 -46 22 -95 40 -109 40 -14 0 -26 4
-26 10 0 5 -15 17 -32 26 -18 9 -41 25 -50 34 -9 10 -22 20 -29 22 -6 2 -13
15 -14 28 -5 40 -31 93 -64 130 -29 34 -33 64 -11 95 4 6 15 49 26 98 13 61
22 86 31 83 7 -3 13 -1 13 3 0 5 -5 11 -10 13 -7 2 3 43 24 103 19 55 38 118
41 140 4 22 16 78 27 125 16 70 20 119 20 273 -1 187 -5 240 -24 261 -12 13
-48 74 -83 140 -40 73 -82 127 -115 147 -37 23 -137 52 -150 44 -14 -9 -50 13
-50 31 0 9 -13 21 -28 26 -27 11 -28 13 -21 57 3 25 3 55 -1 65 -4 11 -3 36 1
56 25 112 39 444 26 645 -4 77 -8 157 -7 177 0 21 -4 56 -10 77 -6 22 -13 69
-15 106 -3 36 -13 87 -22 113 -17 48 -19 65 -22 138 -1 25 -9 50 -21 64 -11
13 -20 31 -20 41 0 10 -5 21 -10 24 -6 4 -26 31 -46 62 -19 30 -44 64 -54 75
-24 26 -17 38 20 38 16 0 32 5 35 10 4 7 -13 10 -47 9 -30 -1 -63 3 -74 9 -17
10 -16 11 11 12 17 1 39 5 50 10 14 6 4 9 -36 9 -38 1 -61 6 -69 16 -22 27
-113 100 -109 88 2 -7 28 -37 58 -68 45 -46 50 -55 31 -55 -34 0 -135 60 -154
91 -9 16 -21 29 -26 29 -5 0 -16 13 -24 29 -11 21 -25 30 -53 35 -21 3 -67 26
-102 51 -64 45 -87 47 -79 9 2 -13 14 -20 33 -22 17 -2 37 -9 45 -16 8 -7 37
-25 63 -40 46 -26 78 -68 64 -83 -4 -3 -24 7 -45 23 -65 52 -92 66 -92 50 0
-7 13 -19 29 -26 16 -6 45 -26 65 -45 28 -25 36 -40 36 -66 0 -26 -3 -30 -10
-19 -5 8 -10 22 -10 31 0 27 -21 40 -37 23 -17 -17 -10 -44 10 -44 8 0 22 -16
33 -35 13 -25 23 -33 36 -29 22 7 32 -13 63 -131 14 -54 30 -104 35 -110 15
-18 33 -260 26 -340 -6 -62 -19 -114 -46 -180 -12 -28 -27 -81 -40 -145 -14
-63 -39 -139 -53 -158 -5 -7 -7 -15 -4 -18 9 -9 27 5 27 22 0 8 5 14 10 14 6
0 10 -5 10 -12 0 -13 -129 -220 -144 -230 -19 -13 -18 0 3 39 22 41 61 153 61
177 0 8 5 27 12 43 6 15 12 33 14 38 1 6 9 26 18 46 21 50 36 150 25 169 -7
12 -8 12 -9 -4 0 -12 -5 -16 -16 -12 -9 3 -20 6 -26 6 -10 0 -9 16 8 100 5 26
4 32 -5 24 -11 -10 -38 -138 -47 -224 -8 -72 -50 -226 -65 -236 -12 -7 -12
-10 7 81 9 42 13 80 9 83 -4 4 -10 1 -12 -5 -3 -7 -8 -13 -12 -13 -14 0 10
155 25 163 12 7 14 47 13 225 0 119 -6 258 -13 307 -12 86 -13 79 -12 -170 0
-171 -4 -286 -13 -335 -13 -78 -30 -113 -32 -69 -3 45 -17 -75 -18 -148 -1
-72 -48 -249 -74 -282 -6 -7 -12 -20 -13 -28 -2 -9 -8 -21 -14 -27 -8 -8 -10
-3 -9 19 2 17 -4 44 -13 60 -9 18 -13 46 -11 70 3 22 -1 54 -8 70 l-12 30 -11
-35 c-6 -19 -16 -44 -23 -55 -11 -18 -12 -18 -13 -2 0 9 -4 17 -8 17 -14 0
-75 -218 -66 -232 3 -4 -2 -5 -11 -2 -11 5 -15 14 -11 28 23 79 36 133 36 148
0 10 4 26 9 36 5 9 15 42 21 72 7 30 19 65 27 77 33 50 79 552 53 568 -10 6
-17 -43 -25 -165 -11 -184 -18 -241 -29 -237 -12 4 -13 27 -3 107 17 126 26
424 14 445 -10 16 -13 -14 -19 -155 -6 -168 -22 -262 -43 -261 -6 1 -10 63
-10 166 0 106 -4 164 -10 162 -15 -5 -17 -204 -5 -412 6 -99 11 -191 12 -205
0 -14 -6 -41 -15 -60 -8 -19 -21 -59 -27 -87 -7 -29 -16 -53 -20 -53 -11 0
-18 74 -19 185 -1 110 -21 285 -33 285 -5 0 -6 -35 -3 -77 5 -67 4 -75 -7 -58
-16 25 -16 173 1 234 18 62 23 121 12 121 -5 0 -11 -6 -14 -12 -2 -7 -8 -10
-12 -5 -5 4 -1 13 8 20 25 18 117 274 117 325 0 46 -18 19 -40 -60 -16 -57
-38 -106 -71 -156 -41 -62 -50 -85 -64 -162 -8 -50 -15 -107 -15 -128 -1 -20
-7 -50 -14 -67 l-13 -30 -7 33 c-9 39 -23 42 -28 5 l-4 -28 -11 25 c-6 16 -7
36 0 60 5 19 13 73 18 120 12 132 21 180 31 180 6 0 9 -21 8 -47 -3 -62 -2
-73 9 -73 5 0 14 30 20 68 6 37 17 99 25 137 20 98 5 116 -23 29 -13 -38 -25
-75 -27 -83 -11 -35 -11 2 1 93 9 71 9 106 2 127 -9 23 -6 44 21 120 17 51 29
95 27 98 -21 21 -90 -148 -112 -273 -4 -27 -14 -52 -22 -54 -10 -3 -12 4 -8
29 9 61 27 121 42 143 18 25 20 59 3 54 -36 -12 -78 -150 -83 -273 -4 -96 -8
-123 -23 -152 -5 -10 -7 -33 -5 -50 4 -22 1 -33 -7 -33 -10 0 -11 13 -6 53 4
28 9 82 10 118 1 36 5 70 8 75 2 5 5 33 6 62 1 29 7 62 12 72 6 10 10 27 10
37 0 11 9 29 20 41 22 23 31 63 15 68 -6 2 -16 -11 -24 -28 -16 -36 -117 -138
-137 -138 -29 0 -118 -157 -165 -288 -35 -100 -149 -315 -177 -335 -15 -11
-36 -37 -47 -59 -24 -50 -33 -41 -79 77 -21 54 -41 91 -50 93 -17 4 -22 18 -7
24 5 2 5 13 0 26 -7 18 -14 22 -29 17 -22 -7 -29 19 -7 29 10 5 10 7 0 12 -7
3 -13 12 -13 20 0 8 -3 14 -7 14 -15 0 -33 55 -33 101 0 74 -10 109 -31 109
-17 0 -18 -7 -13 -82 6 -90 53 -249 83 -283 10 -11 27 -38 38 -60 11 -22 32
-62 47 -89 14 -27 26 -58 26 -68 0 -28 18 -58 35 -58 8 0 15 7 15 15 0 19 19
19 26 0 7 -18 34 -20 35 -2 1 6 0 27 -1 45 -2 31 33 102 50 102 5 0 20 24 34
53 15 28 42 81 60 117 19 36 51 108 70 160 51 133 103 234 139 270 28 28 64
47 72 38 2 -2 -3 -66 -11 -143 -13 -117 -13 -173 -3 -343 6 -112 9 -216 6
-232 -4 -16 -34 -56 -74 -96 -70 -71 -163 -201 -163 -229 0 -8 -4 -15 -10 -15
-5 0 -10 -4 -10 -10 0 -12 -60 -100 -80 -118 -8 -7 -30 -20 -48 -28 -18 -8
-35 -21 -39 -30 -6 -17 -66 -44 -97 -44 -37 1 -196 169 -196 208 0 6 -8 13
-18 16 -10 4 -29 30 -42 59 -13 28 -32 64 -43 79 -17 27 -37 102 -58 223 -6
33 -16 71 -24 85 -8 16 -10 31 -5 40 5 8 4 26 -4 45 -25 58 -29 139 -10 181
10 22 18 48 19 59 1 11 13 54 27 95 14 41 31 102 37 135 7 33 26 84 42 112 35
63 35 66 8 58 -20 -7 -21 -4 -16 26 3 19 12 52 21 74 8 22 15 61 16 86 0 60
37 151 59 147 11 -3 15 -13 13 -33 -6 -66 -2 -145 11 -240 12 -90 12 -106 -4
-165 -9 -36 -20 -72 -24 -81 -7 -19 10 -35 20 -19 3 5 13 36 21 67 12 44 15
100 12 233 -3 156 -1 180 16 219 22 48 15 74 -23 79 -17 3 -21 8 -16 20 8 19
42 131 55 177 4 17 13 44 20 60 8 18 14 83 15 165 2 123 12 184 33 200 10 7
62 132 62 148 0 6 5 12 11 12 5 0 8 4 5 9 -3 5 1 14 9 21 8 7 15 17 15 22 0 6
8 22 18 36 10 15 27 47 36 72 10 24 37 70 61 102 39 51 57 86 111 203 7 17 18
59 23 95 5 36 15 79 21 95 7 17 16 59 20 95 l9 65 -39 50 c-35 45 -86 97 -93
94 -1 -1 -22 -5 -47 -10z m17 -49 c-4 -17 -2 -20 14 -15 29 10 43 -4 25 -24
-8 -9 -25 -38 -36 -64 -25 -56 -45 -63 -37 -12 6 35 -8 59 -19 31 -3 -8 -12
-17 -19 -20 -11 -4 -13 2 -8 27 8 41 29 84 45 90 28 12 40 7 35 -13z m114 -71
c11 -21 3 -43 -12 -34 -5 4 -13 -4 -18 -17 -10 -27 -38 -147 -47 -203 -3 -22
-19 -64 -35 -92 -16 -29 -29 -59 -29 -67 0 -16 -84 -182 -104 -205 -7 -9 -22
-37 -34 -62 -11 -25 -32 -59 -46 -76 -39 -47 -85 -155 -79 -189 4 -27 4 -28
-11 -10 -15 18 -16 18 -22 1 -5 -11 -1 -22 9 -30 16 -11 15 -18 -8 -86 -14
-41 -35 -107 -46 -146 -13 -44 -26 -73 -34 -73 -18 0 -28 -36 -19 -68 11 -39
6 -56 -37 -146 -21 -44 -39 -89 -39 -98 0 -20 -2 -21 -24 -12 -9 3 -16 18 -16
33 0 36 35 126 47 124 18 -4 43 74 43 133 0 67 -16 64 -18 -3 -2 -45 -14 -65
-45 -76 -5 -1 -15 -32 -21 -67 -14 -77 -35 -96 -65 -59 -27 32 -28 101 -2 126
15 15 21 43 31 147 6 70 17 145 25 165 27 76 65 201 65 219 0 10 4 22 9 27 5
6 14 28 21 50 7 22 21 51 29 65 65 100 154 287 156 332 2 25 9 44 19 50 20 11
106 192 106 223 0 22 25 53 35 43 3 -3 -1 -18 -9 -34 -25 -52 -29 -74 -13 -74
8 0 24 21 35 48 14 33 21 41 21 25 1 -29 -45 -148 -73 -188 -26 -38 -93 -176
-102 -209 -5 -20 -2 -26 10 -26 9 0 16 6 16 14 0 8 14 40 30 71 17 31 30 63
30 70 0 7 9 24 20 37 11 14 36 59 57 99 20 41 47 88 60 105 13 18 35 60 48 95
14 34 30 66 37 70 16 10 37 0 49 -22z m-51 -326 c-1 -23 -36 -70 -46 -60 -4 4
0 15 8 24 8 10 18 26 21 36 4 9 9 17 12 17 3 0 5 -8 5 -17z m-467 -339 c-22
-46 -50 -62 -31 -17 13 31 39 65 45 59 2 -2 -4 -21 -14 -42z m-183 -540 c0
-21 -4 -33 -10 -29 -17 10 -11 65 7 65 2 0 3 -16 3 -36z m290 -46 c0 -40 -26
-152 -41 -180 -10 -18 -13 -19 -26 -5 -12 11 -12 19 -4 35 6 11 11 39 11 61 0
34 3 41 20 41 21 0 28 26 9 32 -9 3 -9 10 0 26 17 32 31 27 31 -10z m-303 -40
c-3 -8 -6 -5 -6 6 -1 11 2 17 5 13 3 -3 4 -12 1 -19z m193 -237 c0 -5 -7 -26
-16 -47 -9 -20 -13 -49 -11 -64 4 -17 -3 -41 -20 -71 -39 -67 -55 -118 -58
-182 -3 -60 -7 -72 -23 -66 -16 7 44 294 71 341 14 24 28 55 31 71 6 25 26 39
26 18z m-50 -41 c0 -5 -5 -10 -11 -10 -5 0 -7 5 -4 10 3 6 8 10 11 10 2 0 4
-4 4 -10z m-277 -54 c42 -14 127 -90 127 -113 0 -24 -28 -26 -59 -3 -43 30
-98 41 -136 26 -24 -9 -18 -21 25 -45 76 -43 70 -94 -7 -57 -36 17 -53 14 -53
-10 0 -19 -35 -18 -55 2 -19 19 -11 72 13 90 10 7 13 20 9 40 -13 69 49 101
136 70z m407 -26 c0 -5 -5 -10 -11 -10 -5 0 -7 5 -4 10 3 6 8 10 11 10 2 0 4
-4 4 -10z m-213 -96 c-9 -9 -28 6 -21 18 4 6 10 6 17 -1 6 -6 8 -13 4 -17z
m-34 -88 c25 -19 15 -80 -34 -215 -58 -155 -45 -167 17 -16 9 22 18 34 21 28
5 -14 -5 -49 -44 -160 -27 -78 -42 -89 -73 -50 -10 12 -22 19 -26 15 -10 -11
17 -89 38 -110 32 -32 17 -128 -20 -128 -10 0 -23 -5 -30 -12 -9 -9 -12 -4
-12 24 0 20 -4 40 -10 43 -5 3 -10 17 -10 31 0 24 -14 32 -25 14 -3 -5 -12 -7
-19 -4 -19 7 -25 -18 -24 -86 2 -69 -28 -134 -111 -245 -54 -72 -64 -95 -42
-95 4 0 29 29 56 65 45 59 65 77 65 58 0 -4 -9 -16 -19 -27 -11 -12 -26 -34
-35 -50 -27 -53 -206 -256 -226 -256 -13 0 -13 6 2 47 10 28 10 36 -1 43 -11
6 -10 14 6 41 11 19 23 54 26 78 6 50 18 61 65 61 22 0 34 6 38 18 3 9 10 25
15 35 5 10 7 22 4 27 -8 13 3 50 15 50 4 0 6 -19 2 -42 -5 -39 -4 -42 11 -29
10 7 17 24 17 38 0 13 5 33 10 44 9 16 7 19 -9 19 -27 0 -31 35 -9 87 9 24 22
60 28 82 7 25 18 42 31 46 11 4 27 22 36 41 15 31 15 35 0 52 -16 17 -15 20
16 50 25 24 42 32 69 32 54 0 61 25 13 44 -6 2 -6 11 2 24 13 22 8 32 -18 32
-10 0 -17 6 -15 13 3 6 7 24 10 38 3 14 16 30 29 36 25 12 42 49 26 59 -18 11
-8 21 34 34 23 8 43 15 45 16 2 1 -4 14 -13 28 -9 14 -14 30 -10 36 9 14 67
12 88 -4z m1858 -32 c46 -44 50 -46 67 -30 19 17 92 23 92 7 0 -5 29 -37 63
-73 62 -62 130 -176 133 -223 1 -11 7 -40 14 -65 43 -161 70 -450 50 -555 -5
-27 -11 -84 -14 -125 -6 -72 -15 -141 -36 -260 -5 -30 -14 -104 -20 -165 -11
-116 -39 -255 -50 -255 -7 0 -24 -38 -50 -106 -13 -37 -131 -149 -189 -180
-22 -11 -61 -44 -86 -72 -25 -28 -66 -63 -92 -78 -26 -15 -66 -42 -90 -60 -23
-18 -51 -35 -62 -39 -11 -3 -38 -23 -61 -44 -90 -83 -208 -179 -242 -197 -16
-8 -28 -20 -28 -27 0 -7 -9 -18 -20 -25 -11 -7 -20 -19 -20 -28 0 -8 -18 -46
-40 -84 -22 -38 -49 -91 -61 -117 -34 -81 -62 -133 -71 -133 -4 0 -8 -5 -8
-10 0 -6 -17 -26 -37 -45 -45 -42 -123 -69 -203 -70 -30 0 -58 -4 -62 -10 -4
-6 -8 -2 -8 8 0 19 -12 22 -38 7 -17 -10 -105 -42 -174 -63 -21 -6 -41 -7 -45
-3 -9 9 3 18 78 61 29 17 65 42 81 57 15 14 32 28 38 30 13 4 71 98 115 187
31 62 35 80 28 104 -9 35 -39 42 -82 21 -14 -7 -47 -16 -73 -19 -44 -7 -48 -6
-48 13 0 15 11 24 38 33 20 7 45 12 55 10 9 -1 17 2 17 7 0 4 19 19 43 32 23
13 63 38 88 57 26 18 53 33 60 33 7 0 31 9 53 19 23 10 52 22 66 25 14 3 40
26 58 50 21 28 43 46 62 49 39 8 209 180 273 277 21 31 28 35 70 36 57 1 69
10 33 24 -18 6 -25 14 -20 22 29 48 72 108 96 136 15 18 28 38 28 44 0 14 86
116 120 143 14 11 44 39 66 63 l41 42 1 283 c2 312 2 313 0 360 -1 40 14 105
41 176 24 63 24 63 17 277 -3 126 -9 174 -25 224 -12 35 -21 71 -21 80 0 10
-8 28 -18 41 -10 13 -24 43 -32 67 -7 23 -19 47 -27 53 -18 16 -17 49 2 49 9
0 38 -21 66 -46z m-2041 -14 c0 -5 -2 -10 -4 -10 -3 0 -8 5 -11 10 -3 6 -1 10
4 10 6 0 11 -4 11 -10z m-40 -680 c-16 -30 -22 -19 -7 13 6 14 13 22 15 17 2
-5 -2 -19 -8 -30z m-41 -82 c-8 -14 -14 -18 -17 -10 -4 13 17 46 25 38 3 -2
-1 -15 -8 -28z m37 -41 c-14 -30 -26 -59 -26 -65 0 -5 -15 -28 -32 -50 -18
-21 -46 -56 -63 -77 -16 -21 -32 -41 -35 -44 -3 -3 -15 -12 -27 -19 -39 -21
-28 18 15 59 21 20 52 60 69 90 17 30 40 63 52 73 11 11 21 25 21 31 0 16 41
68 47 61 3 -3 -6 -30 -21 -59z m1364 -88 c9 -58 10 -81 1 -98 -19 -36 -31 -14
-31 57 0 66 12 162 16 132 1 -8 8 -49 14 -91z m594 -28 c-4 -17 -11 -34 -15
-37 -10 -6 -12 40 -2 75 9 35 25 1 17 -38z m-775 17 c0 -28 -2 -30 -9 -13 -12
28 -12 45 0 45 6 0 10 -15 9 -32z m121 17 c0 -8 -4 -15 -10 -15 -5 0 -10 7
-10 15 0 8 5 15 10 15 6 0 10 -7 10 -15z m237 -52 c-3 -10 -5 -4 -5 12 0 17 2
24 5 18 2 -7 2 -21 0 -30z m-1606 -65 c-11 -18 -28 -35 -37 -36 -13 -3 -10 5
11 32 34 45 54 47 26 4z m1309 10 c0 -16 -3 -19 -11 -11 -6 6 -8 16 -5 22 11
17 16 13 16 -11z m680 -92 c-7 -23 -16 -50 -20 -61 -8 -19 -9 -19 -9 2 -1 12
3 32 8 45 6 13 13 41 17 63 6 33 8 35 12 16 2 -14 -2 -43 -8 -65z m-551 22
c13 -28 12 -38 -8 -102 -27 -86 -31 -114 -18 -143 7 -16 5 -28 -10 -50 -11
-15 -26 -45 -34 -65 -7 -21 -17 -38 -21 -38 -11 0 -10 13 1 43 6 14 12 45 15
69 7 48 13 83 17 83 1 0 3 11 5 25 23 172 29 210 34 210 3 0 11 -14 19 -32z
m462 -11 c-8 -8 -11 -7 -11 4 0 20 13 34 18 19 3 -7 -1 -17 -7 -23z m707 -89
c-1 -68 -7 -179 -15 -248 -7 -69 -16 -173 -19 -232 -4 -60 -10 -108 -15 -108
-4 0 -10 -8 -13 -17 -10 -29 -92 -113 -111 -113 -12 0 -15 5 -9 23 3 12 11 24
16 25 4 2 15 16 23 32 32 62 46 121 55 230 14 167 27 261 44 321 8 30 18 86
21 124 7 67 11 85 21 85 2 0 3 -55 2 -122z m-2678 87 c0 -9 -34 -45 -42 -45
-5 0 -1 11 8 25 14 22 34 34 34 20z m-108 -58 c-18 -32 -52 -49 -52 -27 0 17
52 70 62 64 5 -3 1 -20 -10 -37z m1661 -24 c-6 -68 -24 -143 -33 -143 -17 0
-21 59 -6 87 8 16 17 45 21 66 10 53 23 46 18 -10z m-3908 -12 c-10 -16 -25
-3 -25 22 0 20 1 20 16 5 9 -9 13 -21 9 -27z m4536 -138 c1 -87 2 -175 3 -196
0 -36 -7 -45 -94 -128 -52 -49 -97 -89 -101 -89 -4 0 -25 20 -48 45 -28 31
-41 53 -41 74 0 38 91 217 135 266 23 25 78 105 106 153 10 17 23 32 28 32 6
0 11 -66 12 -157z m-2364 127 c25 0 26 0 8 -20 -22 -25 -37 -25 -58 -2 -18 20
-12 36 11 27 7 -3 25 -5 39 -5z m2208 -22 c-4 -18 -10 -35 -14 -38 -4 -3 -15
-24 -25 -47 -11 -24 -23 -43 -28 -43 -13 0 -9 20 11 54 10 17 22 42 26 55 7
22 25 50 33 51 2 0 0 -15 -3 -32z m-2120 -7 c-7 -23 -24 -29 -21 -8 2 18 17
39 23 33 3 -2 2 -14 -2 -25z m2058 -18 c-10 -21 -33 -67 -51 -103 -34 -65 -38
-82 -63 -287 -11 -88 -10 -93 11 -122 12 -18 30 -31 43 -31 20 0 19 2 -7 29
-29 30 -30 61 -3 61 7 0 30 -17 51 -39 l38 -39 -82 -105 c-75 -96 -105 -125
-117 -113 -2 2 -10 56 -17 120 -13 122 -21 147 -31 100 -10 -44 -15 -57 -20
-52 -12 12 -31 150 -26 194 5 44 9 49 34 52 23 3 27 0 27 -20 0 -13 -7 -33
-15 -44 -18 -27 -11 -34 23 -25 24 7 29 17 49 92 20 78 31 110 85 244 24 60
64 125 78 125 5 0 2 -17 -7 -37z m-189 -35 c-3 -24 -10 -59 -15 -79 -14 -56
-86 -203 -93 -190 -11 17 88 311 105 311 5 0 7 -19 3 -42z m-4074 -55 c0 -13
-4 -23 -9 -23 -12 0 -31 56 -31 89 1 25 2 25 20 -9 11 -19 19 -45 20 -57z
m2150 32 c0 -14 -4 -25 -10 -25 -5 0 -10 11 -10 25 0 14 5 25 10 25 6 0 10
-11 10 -25z m1730 15 c0 -5 -5 -10 -11 -10 -5 0 -7 5 -4 10 3 6 8 10 11 10 2
0 4 -4 4 -10z m-1860 -36 c0 -14 -4 -22 -10 -19 -5 3 -10 17 -10 31 0 14 4 22
10 19 6 -3 10 -17 10 -31z m1852 -24 c-5 -28 -45 -85 -50 -70 -2 6 3 22 12 35
9 13 16 34 16 45 0 13 5 20 13 17 6 -2 10 -14 9 -27z m362 -44 c-6 -16 -24
-23 -24 -8 0 10 22 33 27 28 2 -2 1 -11 -3 -20z m-4746 -57 c14 -22 10 -35 -6
-25 -12 7 -23 46 -13 46 3 0 12 -9 19 -21z m4372 11 c0 -5 -5 -10 -11 -10 -5
0 -7 5 -4 10 3 6 8 10 11 10 2 0 4 -4 4 -10z m250 -28 c-3 -21 -12 -46 -18
-57 -10 -18 -11 -16 -12 15 0 29 22 80 34 80 2 0 0 -17 -4 -38z m-3875 -61 c7
-34 9 -61 5 -61 -8 0 -30 86 -30 117 0 32 12 3 25 -56z m3570 2 c-2 -10 -9
-74 -16 -141 -15 -147 -30 -143 -37 10 -5 96 -4 99 22 123 32 30 35 30 31 8z
m245 3 c0 -8 -4 -18 -10 -21 -5 -3 -10 3 -10 14 0 12 5 21 10 21 6 0 10 -6 10
-14z m-409 -73 c-12 -20 -14 -14 -5 12 4 9 9 14 11 11 3 -2 0 -13 -6 -23z
m226 -82 c-2 -88 1 -112 14 -127 15 -18 63 -154 56 -160 -7 -7 -77 18 -77 27
0 5 -10 30 -21 55 -20 41 -21 57 -16 147 4 64 12 114 22 135 9 17 18 32 20 32
2 0 3 -49 2 -109z m-3739 -16 c11 -44 26 -107 32 -140 6 -33 18 -78 25 -100 7
-22 16 -60 20 -83 5 -40 4 -43 -10 -28 -9 8 -25 59 -36 113 -11 54 -31 144
-44 200 -14 55 -25 109 -25 119 0 37 19 -3 38 -81z m-492 -2 c-11 -11 -19 6
-11 24 8 17 8 17 12 0 3 -10 2 -21 -1 -24z m674 -143 c-7 -4 -8 -18 -4 -35 5
-20 4 -26 -5 -21 -6 4 -11 25 -11 48 0 35 2 39 15 28 11 -9 12 -15 5 -20z
m3728 -29 c3 -8 -1 -12 -9 -9 -7 2 -15 10 -17 17 -3 8 1 12 9 9 7 -2 15 -10
17 -17z m1129 -31 c31 -19 164 -180 211 -255 20 -33 22 -50 23 -173 1 -76 2
-166 2 -202 1 -60 -8 -106 -63 -330 -12 -47 -27 -110 -34 -140 -20 -80 -46
-150 -57 -150 -6 0 -7 26 -4 63 10 104 -24 171 -36 70 -3 -26 -19 -75 -36
-108 -41 -81 -66 -162 -50 -169 7 -2 3 -5 -8 -5 -11 -1 -28 -14 -37 -31 -20
-36 -29 -37 -46 -9 -11 18 -11 24 2 38 9 10 16 25 16 34 0 10 10 34 23 55 30
48 57 116 57 145 0 12 7 32 15 44 29 42 65 176 65 248 0 39 5 90 11 115 16 67
18 138 4 144 -7 2 -11 27 -10 62 1 51 7 68 43 127 23 37 42 75 42 85 0 10 -20
47 -45 83 -24 35 -54 83 -66 107 -12 23 -25 42 -30 42 -5 0 -9 11 -9 25 0 14
-4 25 -10 25 -5 0 -10 6 -10 13 0 19 -17 40 -27 34 -6 -4 -6 -35 -1 -79 4 -40
10 -109 13 -153 3 -44 14 -116 24 -160 10 -46 16 -101 13 -129 -3 -32 0 -51 8
-56 9 -5 12 -41 12 -116 0 -102 -3 -116 -42 -224 -23 -63 -45 -126 -50 -140
-25 -72 -90 -215 -99 -218 -6 -2 -15 -20 -21 -41 -11 -41 -40 -81 -59 -81 -6
0 -11 -4 -11 -10 0 -5 -6 -10 -14 -10 -7 0 -31 -19 -52 -42 -45 -51 -108 -98
-129 -98 -8 0 -15 -4 -15 -10 0 -5 -7 -10 -15 -10 -8 0 -15 -4 -15 -10 0 -5
-15 -18 -34 -27 -18 -10 -60 -42 -92 -72 l-59 -54 40 7 c22 4 45 13 50 21 7 8
16 10 26 5 10 -6 29 0 60 20 24 17 49 30 55 30 6 0 17 7 24 16 8 8 40 35 73
60 59 45 82 50 59 14 -7 -11 -12 -26 -12 -33 0 -18 -69 -80 -110 -99 -107 -48
-125 -54 -115 -38 11 18 -11 10 -58 -21 -45 -30 -152 -74 -211 -88 -33 -7 -47
-31 -19 -31 17 -1 17 -1 1 -11 -10 -5 -18 -16 -18 -23 0 -7 -14 -27 -31 -44
-43 -43 -13 -42 32 1 19 19 48 43 66 56 19 13 30 27 27 36 -5 13 8 19 101 41
11 3 50 19 87 36 68 32 94 33 64 3 -9 -9 -16 -21 -16 -26 0 -5 -5 -9 -11 -9
-6 0 -30 -16 -53 -35 -24 -19 -48 -35 -55 -35 -17 0 -89 -38 -109 -58 -42 -42
-105 -84 -136 -93 -19 -5 -41 -21 -50 -34 -9 -14 -23 -25 -31 -25 -8 0 -15 -4
-15 -10 0 -5 1 -10 3 -10 7 0 174 61 197 73 53 25 196 116 214 136 20 22 46
28 46 11 0 -5 -9 -18 -20 -27 -11 -10 -44 -40 -73 -68 -49 -47 -113 -85 -165
-100 -12 -4 -26 -15 -32 -25 -5 -10 -26 -21 -47 -25 -21 -4 -42 -10 -48 -15
-5 -5 -27 -11 -47 -15 -39 -7 -48 1 -26 23 14 14 10 19 -17 24 -15 2 -19 -2
-17 -15 3 -20 -43 -67 -92 -95 -17 -9 -37 -23 -44 -29 -7 -7 -25 -16 -40 -19
-15 -3 -40 -10 -56 -15 -22 -7 -34 -5 -54 10 -23 16 -30 17 -71 5 -25 -7 -73
-18 -106 -24 -33 -6 -77 -20 -99 -32 -27 -14 -41 -17 -49 -9 -16 16 -44 14
-51 -4 -4 -10 5 -17 32 -24 50 -14 102 -8 136 15 16 10 52 22 80 26 28 4 67
10 86 13 68 12 -79 -55 -165 -75 -44 -10 -96 -22 -115 -27 -19 -5 -78 -8 -130
-6 -115 3 -137 6 -173 21 -31 13 -47 9 -47 -12 0 -15 39 -23 155 -33 93 -7 95
-27 4 -31 -91 -5 -143 5 -173 33 -14 13 -35 26 -46 30 -12 4 -20 15 -20 28 0
12 -3 32 -6 44 -5 18 -2 23 13 23 10 0 29 -7 41 -16 23 -16 42 -12 42 10 0 15
-73 46 -107 46 -25 0 -34 18 -20 42 12 18 -5 48 -27 48 -6 0 -18 10 -25 23
-18 28 -24 178 -9 227 11 37 108 189 133 210 8 7 15 19 15 26 0 8 9 23 20 34
11 11 34 46 52 77 18 32 36 63 40 68 38 49 88 117 112 152 15 23 53 65 85 93
31 28 74 67 96 88 22 20 58 49 80 63 22 14 81 52 130 84 50 32 116 84 147 114
79 77 111 100 150 108 34 7 137 90 235 190 28 29 58 53 66 53 7 0 40 19 72 42
32 22 76 51 99 63 124 65 236 154 236 186 0 8 27 38 61 68 39 36 56 58 50 64
-7 7 1 19 24 37 46 37 80 79 92 115 7 21 18 32 39 36 54 12 89 9 121 -11z
m-1373 -47 c11 -51 92 -116 155 -126 32 -5 32 -11 0 -32 -16 -11 -29 -23 -29
-27 0 -11 28 -10 52 3 31 17 32 4 1 -42 -33 -50 -159 -159 -184 -159 -10 0
-37 -18 -61 -41 -44 -42 -88 -67 -88 -49 0 6 5 10 10 10 6 0 10 5 10 10 0 20
-31 9 -40 -15 -11 -28 -72 -64 -78 -46 -7 20 -32 12 -32 -10 0 -16 -5 -20 -20
-16 -13 3 -26 -3 -37 -19 -12 -15 -29 -24 -48 -25 -46 -2 -65 -9 -65 -23 0 -7
-29 -28 -65 -46 -35 -18 -72 -41 -81 -51 -16 -17 -16 -20 0 -44 17 -27 14 -45
-8 -45 -7 0 -21 -9 -31 -20 -28 -31 -348 -180 -387 -180 -5 0 -37 -13 -71 -28
-34 -16 -80 -35 -102 -42 -22 -7 -48 -21 -58 -31 -10 -11 -22 -19 -28 -19 -5
0 -29 -9 -51 -20 -62 -30 -69 -11 -21 52 22 30 43 63 47 74 11 35 78 100 130
127 26 14 60 36 75 49 33 30 138 110 162 124 10 6 27 18 36 26 10 9 34 24 53
33 19 10 47 28 61 40 14 11 51 34 83 49 31 15 56 31 56 35 0 5 28 18 62 31
114 42 256 119 280 153 22 30 59 66 100 95 23 17 58 6 58 -18 0 -28 30 -29
116 -4 43 13 86 23 95 24 24 0 45 28 31 42 -7 7 -18 6 -39 -5 -35 -19 -91 -37
-112 -36 -9 0 -5 5 11 13 32 14 78 65 78 87 0 22 -36 54 -45 39 -11 -18 -22
-2 -30 46 -5 36 -3 50 11 65 23 26 30 24 38 -8z m-3441 -79 c4 -4 7 -20 7 -36
0 -16 6 -41 14 -56 19 -38 31 -122 17 -122 -11 0 -13 6 -35 105 -8 33 -21 78
-30 100 -8 22 -15 56 -15 75 l1 35 16 -47 c9 -26 20 -50 25 -54z m3643 71 c3
-8 21 -24 40 -36 19 -11 34 -26 34 -32 -1 -7 -14 -28 -30 -47 -23 -26 -33 -31
-42 -22 -9 9 -8 16 5 30 23 25 21 35 -5 47 -16 7 -24 20 -26 43 -3 33 14 45
24 17z m874 -10 c0 -9 -6 -18 -14 -21 -7 -3 -17 -22 -20 -42 -4 -20 -14 -53
-24 -72 -14 -28 -24 -36 -50 -38 -18 -2 -36 -10 -39 -18 -3 -8 -11 -14 -19
-14 -7 0 -29 -13 -47 -30 -19 -16 -38 -30 -42 -30 -4 0 -27 -13 -52 -30 -24
-16 -52 -30 -61 -30 -10 0 -35 -9 -57 -20 -22 -11 -46 -20 -55 -20 -9 0 -35
-9 -58 -20 -47 -23 -52 -24 -52 -10 0 6 6 10 13 10 7 0 32 16 54 34 30 26 43
32 52 23 8 -8 11 -5 11 14 0 20 19 41 86 95 135 108 195 149 280 193 89 46 94
47 94 26z m-928 -49 c10 -7 15 -15 12 -18 -5 -6 -64 20 -64 28 0 9 36 3 52
-10z m-3713 -83 c7 -14 8 -24 1 -28 -11 -7 -31 35 -23 48 6 10 7 9 22 -20z
m11 -63 c0 -5 -5 -10 -11 -10 -5 0 -7 5 -4 10 3 6 8 10 11 10 2 0 4 -4 4 -10z
m375 -110 c-3 -5 -11 -10 -16 -10 -6 0 -7 5 -4 10 3 6 11 10 16 10 6 0 7 -4 4
-10z m200 -10 c55 -10 121 -18 205 -25 211 -19 345 -48 374 -80 17 -19 23 -20
48 -11 22 8 31 7 43 -4 12 -13 13 -29 3 -110 -6 -52 -15 -99 -20 -105 -16 -17
-27 17 -21 62 8 57 -13 57 -24 1 l-9 -43 -49 3 c-28 2 -55 8 -60 12 -6 5 -39
11 -75 15 -91 9 -212 25 -233 32 -16 4 -18 12 -13 48 9 58 -9 66 -26 13 -15
-49 -17 -49 -148 -29 -41 6 -88 13 -105 15 -41 7 -100 22 -114 30 -21 13 -12
33 13 29 13 -3 32 0 43 5 16 10 16 12 -10 21 -16 6 -34 11 -42 11 -8 0 -17 5
-21 11 -5 8 3 10 25 7 41 -6 39 5 -6 32 -44 26 -32 40 35 40 46 0 56 15 20 30
-27 11 86 4 167 -10z m-387 -19 c3 -8 -1 -12 -9 -9 -7 2 -15 10 -17 17 -3 8 1
12 9 9 7 -2 15 -10 17 -17z m4192 -6 c-7 -9 -15 -13 -19 -10 -3 3 1 10 9 15
21 14 24 12 10 -5z m-4484 -6 c3 -6 1 -16 -5 -22 -8 -8 -11 -8 -11 1 0 7 -7
12 -15 12 -8 0 -15 -4 -15 -10 0 -5 -7 -10 -15 -10 -18 0 -19 12 -3 28 15 15
55 16 64 1z m394 -9 c0 -5 -2 -10 -4 -10 -3 0 -8 5 -11 10 -3 6 -1 10 4 10 6
0 11 -4 11 -10z m-567 -26 c1 -4 -9 -9 -23 -11 -13 -2 -27 -7 -30 -12 -3 -4
-16 -11 -30 -15 -39 -10 -76 -44 -62 -58 9 -9 17 -6 34 9 13 12 37 25 53 29
17 4 35 11 41 15 18 14 76 15 81 2 3 -7 -3 -13 -12 -13 -20 0 -162 -67 -170
-81 -11 -17 28 -9 69 15 58 33 142 52 161 36 24 -20 18 -28 -27 -40 -76 -20
-125 -41 -159 -69 -27 -23 -30 -29 -16 -34 10 -4 28 3 45 18 43 36 177 80 207
68 21 -8 8 -23 -20 -23 -13 0 -27 -4 -30 -10 -3 -5 -15 -10 -26 -10 -11 0 -22
-6 -25 -14 -3 -8 -12 -12 -19 -10 -7 3 -16 -4 -20 -15 -3 -12 -10 -21 -15 -21
-4 0 -10 -9 -13 -20 -8 -30 -31 -25 -98 21 -98 66 -125 134 -72 183 28 26 46
35 123 58 47 14 51 15 53 2z m4607 6 c0 -12 -40 -34 -48 -26 -3 4 3 13 14 21
22 17 34 19 34 5z m-4040 -30 c0 -5 -4 -10 -10 -10 -5 0 -10 5 -10 10 0 6 5
10 10 10 6 0 10 -4 10 -10z m1074 -168 c0 -125 -8 -138 -64 -111 l-40 20 6 87
c4 48 10 97 15 109 7 20 10 20 46 8 l38 -13 -1 -100z m2616 118 c0 -11 -28
-61 -64 -114 -14 -21 -26 -44 -26 -50 0 -6 -13 -39 -30 -74 -25 -53 -33 -63
-52 -60 -16 2 -24 12 -29 36 -6 28 0 41 45 102 65 87 137 170 148 170 4 0 8
-4 8 -10z m-3940 -50 c0 -5 -4 -10 -9 -10 -6 0 -13 5 -16 10 -3 6 1 10 9 10 9
0 16 -4 16 -10z m1442 -24 c90 -41 155 -109 144 -150 -8 -34 -61 -72 -131 -96
-70 -24 -105 -26 -105 -5 0 8 6 15 14 15 9 0 15 17 19 53 2 28 3 55 0 60 -9
15 -23 -5 -23 -34 0 -16 -5 -29 -11 -29 -11 0 -9 51 5 125 2 11 4 37 5 58 0
20 3 37 5 37 2 0 37 -15 78 -34z m-1932 -76 c40 -39 70 -74 66 -77 -3 -3 -11
-1 -18 4 -7 6 -24 13 -38 16 -43 11 -80 49 -87 90 -3 20 -3 37 -1 37 3 0 38
-32 78 -70z m570 30 c0 -5 -4 -10 -10 -10 -5 0 -10 5 -10 10 0 6 5 10 10 10 6
0 10 -4 10 -10z m67 -42 c33 -23 42 -38 23 -38 -13 0 -78 59 -66 60 6 0 25
-10 43 -22z m-94 -83 c13 -63 3 -74 -16 -18 -20 62 -21 66 -5 61 7 -3 16 -22
21 -43z m113 -41 c9 -37 -2 -40 -20 -6 -8 16 -22 32 -31 35 -8 4 -15 11 -15
17 0 21 60 -21 66 -46z m-166 -2 c0 -21 -2 -24 -10 -12 -13 20 -13 53 0 45 6
-3 10 -18 10 -33z m971 25 c-1 -12 -15 -9 -19 4 -3 6 1 10 8 8 6 -3 11 -8 11
-12z m2669 -22 c0 -8 -4 -15 -10 -15 -5 0 -7 7 -4 15 4 8 8 15 10 15 2 0 4 -7
4 -15z m-2330 -11 c0 -8 -4 -12 -10 -9 -5 3 -10 10 -10 16 0 5 5 9 10 9 6 0
10 -7 10 -16z m266 -29 c-14 -13 -26 -28 -26 -32 0 -5 -12 -13 -27 -19 -16 -6
-51 -21 -80 -33 -56 -23 -132 -38 -258 -51 -86 -9 -118 -15 -178 -32 -31 -10
-40 -9 -47 2 -9 14 -90 22 -90 9 0 -3 -75 -9 -167 -12 -166 -6 -410 7 -426 23
-5 4 -27 5 -48 3 -34 -5 -38 -3 -33 11 4 11 1 16 -10 16 -9 0 -16 -8 -17 -17
0 -10 -3 -13 -5 -7 -3 6 -20 10 -39 8 -19 -1 -35 1 -35 5 0 4 -20 9 -44 9 -26
1 -62 12 -87 26 -42 25 -43 25 -16 31 14 4 75 -2 134 -13 59 -11 118 -20 131
-20 12 -1 34 -10 48 -21 21 -17 41 -21 99 -21 39 0 75 3 78 7 4 3 143 8 310 9
294 2 399 11 482 39 22 7 81 21 132 30 60 11 117 30 165 54 77 38 98 37 54 -4z
m1572 36 c11 -6 4 -23 -32 -72 -25 -35 -52 -72 -60 -81 -9 -10 -16 -22 -16
-26 0 -10 -56 -52 -70 -52 -5 0 -10 -4 -10 -8 0 -5 -26 -15 -57 -22 -32 -7
-84 -25 -115 -41 -32 -16 -73 -29 -91 -29 -40 0 -109 -26 -120 -46 -4 -7 -24
-21 -45 -31 -20 -10 -66 -37 -102 -60 -74 -49 -80 -51 -73 -23 4 15 0 20 -14
20 -11 0 -30 -9 -43 -20 -26 -23 -72 -28 -64 -7 6 15 83 67 100 67 20 0 252
109 260 123 16 24 -119 -24 -244 -88 -38 -19 -74 -35 -80 -35 -17 0 -106 -52
-119 -69 -17 -23 -23 -10 -17 31 6 32 11 37 41 43 34 6 135 61 141 77 2 4 14
8 26 8 12 0 27 5 34 12 15 15 78 39 120 45 18 3 35 9 38 14 3 5 14 9 25 9 10
0 27 4 37 9 197 97 266 135 290 159 12 12 28 22 35 22 6 0 26 8 42 17 25 13
148 60 165 62 3 0 11 -3 18 -8z m-3029 -32 c13 -39 13 -39 2 -39 -5 0 -14 14
-20 31 -13 39 -13 39 -2 39 5 0 14 -14 20 -31z m897 -16 c-10 -10 -19 5 -10
18 6 11 8 11 12 0 2 -7 1 -15 -2 -18z m-432 -2 c29 -18 76 -65 76 -76 0 -3
-13 -5 -30 -5 -20 0 -30 5 -30 14 0 18 -43 66 -59 66 -6 0 -11 5 -11 10 0 15
19 12 54 -9z m516 10 c0 -14 -18 -23 -30 -16 -6 4 -8 11 -5 16 8 12 35 12 35
0z m-1217 -38 c4 -2 5 -9 1 -14 -7 -11 -40 -3 -69 18 -18 13 -16 14 20 7 22
-4 43 -9 48 -11z m3718 -46 c-15 -15 -24 -2 -16 24 7 20 8 21 17 5 7 -12 7
-21 -1 -29z m-3935 -17 c30 -30 210 -88 328 -105 35 -5 45 -9 35 -16 -8 -5
-26 -6 -40 -3 -18 3 -28 0 -32 -10 -9 -23 -32 -19 -50 8 -11 16 -29 26 -54 29
-21 3 -56 10 -78 16 -22 5 -56 14 -75 18 -19 5 -35 15 -36 23 -2 30 -4 32 -19
20 -19 -16 -40 -3 -24 16 13 16 31 18 45 4z m-156 -74 c0 -3 -4 -8 -10 -11 -5
-3 -10 -1 -10 4 0 6 5 11 10 11 6 0 10 -2 10 -4z m1717 -2 c-3 -3 -12 -4 -19
-1 -8 3 -5 6 6 6 11 1 17 -2 13 -5z m-1569 -10 c12 -4 22 -13 22 -20 0 -16
-37 -19 -59 -5 -7 5 -10 14 -7 20 8 13 12 13 44 5z m-138 -44 c0 -5 -4 -10
-10 -10 -5 0 -10 5 -10 10 0 6 5 10 10 10 6 0 10 -4 10 -10z m277 4 c-3 -3
-12 -4 -19 -1 -8 3 -5 6 6 6 11 1 17 -2 13 -5z m-213 -11 c4 -5 13 -8 19 -8 5
0 12 -6 15 -12 2 -9 -8 -13 -30 -13 -41 0 -52 8 -37 27 13 15 22 16 33 6z
m-100 -35 c-10 -33 -44 -53 -44 -26 0 14 30 48 42 48 5 0 6 -10 2 -22z m220 5
c4 -5 29 -13 54 -20 l47 -12 -65 6 c-71 6 -83 10 -75 24 7 11 29 12 39 2z
m661 -21 c103 -10 291 -7 455 8 137 13 200 10 200 -8 0 -5 -15 -9 -32 -9 -193
-4 -318 -12 -343 -23 -35 -16 -390 -24 -525 -13 l-85 7 63 9 c58 8 87 27 42
27 -11 0 -20 5 -20 11 0 12 70 9 245 -9z m-797 -31 c-4 -19 -36 -25 -57 -12
-12 7 -12 13 -3 24 16 19 64 10 60 -12z m1803 -4 c-1 -12 -15 -9 -19 4 -3 6 1
10 8 8 6 -3 11 -8 11 -12z m-1700 -7 c30 -17 24 -40 -12 -40 -40 0 -70 16 -63
35 7 17 47 20 75 5z m1639 -16 c0 -16 -26 -19 -35 -4 -3 6 -4 14 0 20 8 13 35
1 35 -16z m-1940 9 c-1 -18 -18 -35 -24 -24 -4 6 -4 16 -1 21 7 12 25 13 25 3z
m462 -2 c40 -6 111 -13 158 -17 100 -8 580 -8 628 1 19 4 32 2 32 -5 0 -5 -6
-10 -12 -10 -33 -1 -142 -12 -225 -21 -50 -6 -96 -8 -103 -4 -6 4 -69 8 -138
9 -115 1 -363 20 -419 32 -25 5 -32 24 -9 24 8 0 48 -4 88 -9z m1098 -12 c0
-12 -87 -12 -95 0 -6 11 38 18 73 12 12 -2 22 -7 22 -12z m-1510 -3 c0 -20
-19 -31 -32 -18 -6 6 -7 15 -4 21 10 16 36 13 36 -3z m69 -20 c9 -10 8 -15 -2
-19 -19 -7 -41 8 -33 22 10 15 21 14 35 -3z m1951 0 c0 -17 -27 -29 -35 -16
-4 6 -3 15 0 20 9 15 35 12 35 -4z m1350 -11 c0 -8 -20 -40 -45 -70 -25 -31
-47 -68 -50 -83 -4 -15 -10 -35 -16 -44 -12 -23 -12 -110 1 -144 8 -21 7 -32
-5 -51 -9 -13 -14 -27 -11 -32 3 -4 -16 -5 -41 -1 -33 5 -53 15 -68 34 -20 25
-45 35 -45 17 0 -4 9 -20 20 -33 19 -25 117 -58 170 -58 21 0 27 -14 10 -25
-21 -13 1 -23 38 -18 50 7 73 -16 44 -45 -16 -16 -30 -19 -73 -15 -56 4 -151
27 -181 44 -10 5 -24 9 -32 9 -20 0 -82 38 -119 73 -17 16 -40 33 -51 38 -38
18 -63 34 -100 67 -36 32 -62 85 -50 104 8 12 134 74 170 82 16 4 90 37 164
73 74 37 153 72 175 79 57 18 95 17 95 -1z m-1250 -5 c0 -5 -2 -10 -4 -10 -3
0 -8 5 -11 10 -3 6 -1 10 4 10 6 0 11 -4 11 -10z m-630 -10 c0 -10 -19 -14
-55 -12 -39 3 -200 -24 -197 -34 3 -11 31 -11 170 0 98 8 102 8 102 -11 0 -36
-23 -44 -126 -43 -55 1 -133 -4 -174 -10 -80 -12 -446 -15 -474 -4 -29 11 3
24 59 24 102 0 385 24 385 32 0 5 -92 6 -215 2 -181 -6 -215 -5 -215 7 0 10
-3 11 -8 3 -6 -11 -46 -18 -79 -15 -7 1 -10 8 -7 16 4 9 0 15 -10 15 -9 0 -16
-5 -16 -10 0 -21 -44 -27 -87 -13 -50 17 -47 34 5 33 125 -3 636 12 677 19 73
12 265 13 265 1z m154 4 c27 -10 18 -25 -11 -18 -46 11 -62 23 -31 24 14 0 33
-3 42 -6z m586 -38 c0 -6 -7 -2 -15 8 -8 11 -15 25 -15 30 0 6 7 2 15 -8 8
-11 15 -25 15 -30z m-2279 19 c-1 -15 -24 -12 -29 3 -3 9 2 13 12 10 10 -1 17
-7 17 -13z m247 3 c-3 -7 -17 -13 -33 -13 -16 0 -30 6 -32 13 -3 8 7 12 32 12
25 0 35 -4 33 -12z m150 -4 c43 -12 21 -24 -43 -24 -51 0 -65 3 -65 15 0 16
62 21 108 9z m1712 -3 c0 -12 -20 -25 -27 -18 -7 7 6 27 18 27 5 0 9 -4 9 -9z
m110 -16 c15 -28 9 -41 -15 -32 -15 7 -22 57 -7 57 5 0 15 -11 22 -25z m194
-23 c32 -31 61 -72 84 -122 19 -41 39 -85 44 -97 13 -26 4 -53 -16 -53 -10 0
-13 6 -10 15 6 15 -2 44 -32 111 -7 16 -40 56 -74 88 -59 57 -87 106 -59 106
8 0 36 -21 63 -48z m1141 38 c3 -6 -4 -10 -17 -10 -18 0 -20 2 -8 10 19 12 18
12 25 0z m-3047 -12 c-3 -7 -11 -13 -18 -13 -7 0 -15 6 -17 13 -3 7 4 12 17
12 13 0 20 -5 18 -12z m2214 -3 c0 -6 -6 -13 -14 -17 -7 -4 -37 -21 -67 -38
-67 -38 -88 -35 -31 5 98 69 111 75 112 50z m741 8 c4 -3 -4 -25 -17 -47 -41
-71 -76 -181 -69 -220 4 -28 2 -36 -10 -36 -15 0 -30 51 -30 102 0 55 26 118
66 163 41 46 48 50 60 38z m229 -11 c11 -11 -62 -152 -113 -220 -22 -29 -48
-74 -56 -98 -20 -58 -36 -45 -35 28 0 61 28 143 72 211 16 26 30 51 30 54 0 4
8 15 17 26 13 14 25 17 47 13 17 -4 34 -10 38 -14z m-2069 1 c-7 -2 -19 -2
-25 0 -7 3 -2 5 12 5 14 0 19 -2 13 -5z m312 -3 c3 -5 1 -10 -4 -10 -6 0 -11
5 -11 10 0 6 2 10 4 10 3 0 8 -4 11 -10z m3662 -42 c-8 -61 -46 -124 -85 -139
-15 -6 -35 -17 -44 -26 -9 -8 -21 -13 -27 -12 -5 2 15 31 45 64 30 33 57 71
61 85 8 34 35 80 47 80 5 0 6 -22 3 -52z m-5632 23 c3 -5 1 -13 -5 -16 -15 -9
-43 3 -35 15 8 13 32 13 40 1z m240 -11 c4 -6 -11 -10 -35 -10 -23 0 -39 3
-37 8 8 11 66 13 72 2z m1962 -5 c1 -5 -1 -16 -6 -23 -7 -12 -12 -12 -30 -1
-30 20 -27 41 6 37 14 -2 28 -7 30 -13z m583 -5 c0 -5 -9 -14 -20 -20 -23 -12
-26 -6 -7 15 14 17 27 19 27 5z m-382 -38 c8 -24 -25 -11 -37 15 -12 26 -12
26 10 11 13 -8 25 -20 27 -26z m432 18 c0 -5 -5 -10 -11 -10 -5 0 -7 5 -4 10
3 6 8 10 11 10 2 0 4 -4 4 -10z m-2135 -21 c44 -6 98 -15 120 -20 22 -5 74 -8
115 -7 41 1 102 0 135 -3 33 -4 106 0 162 6 104 13 229 19 318 17 47 -2 48 -3
32 -19 -15 -15 -39 -18 -170 -19 -84 -1 -154 -2 -157 -3 -16 -4 30 -21 57 -21
17 0 35 -4 38 -10 3 -5 18 -7 33 -4 44 7 227 22 231 18 2 -2 -1 -10 -8 -18 -7
-9 -42 -16 -94 -21 -45 -3 -122 -13 -172 -20 -73 -11 -134 -12 -320 -4 -126 6
-313 13 -415 15 -109 4 -187 10 -191 16 -4 6 -16 7 -28 3 -12 -4 -46 -1 -74 6
-29 7 -56 12 -61 10 -18 -4 -59 10 -50 18 5 4 60 3 123 -3 84 -7 118 -7 132 2
24 15 59 15 96 1 30 -12 221 -38 228 -31 2 2 65 3 139 3 82 -1 136 2 136 8 0
11 -88 19 -302 26 -149 5 -214 17 -202 37 3 4 -2 11 -10 14 -30 12 -5 24 37
19 23 -3 78 -11 122 -16z m1415 17 c0 -11 -19 -15 -25 -6 -3 5 1 10 9 10 9 0
16 -2 16 -4z m190 -6 c0 -5 -4 -10 -9 -10 -6 0 -13 5 -16 10 -3 6 1 10 9 10 9
0 16 -4 16 -10z m-2360 -10 c0 -5 -2 -10 -4 -10 -3 0 -8 5 -11 10 -3 6 -1 10
4 10 6 0 11 -4 11 -10z m225 0 c18 -8 17 -9 -7 -9 -16 -1 -28 4 -28 9 0 12 8
12 35 0z m95 -10 c0 -5 -8 -10 -17 -10 -15 0 -16 2 -3 10 19 12 20 12 20 0z
m2521 -18 c-13 -25 -41 -36 -41 -17 0 8 -6 15 -12 16 -7 0 3 6 22 13 41 16 45
14 31 -12z m-2436 8 c4 -6 -5 -10 -19 -10 -14 0 -26 5 -26 10 0 6 9 10 19 10
11 0 23 -4 26 -10z m1886 -5 c0 -5 -9 -11 -21 -13 -20 -3 -27 8 -13 22 10 9
34 3 34 -9z m126 -1 c7 -19 -20 -49 -36 -40 -12 8 -15 39 -4 49 12 12 33 7 40
-9z m313 -2 c0 -4 -5 -13 -12 -20 -14 -14 -68 -16 -68 -2 0 6 11 10 24 10 14
0 28 5 31 10 7 12 25 13 25 2z m814 -19 c-4 -16 -10 -30 -14 -33 -4 -3 -10
-14 -14 -25 -3 -11 -3 -3 -1 18 3 34 19 67 31 67 3 0 1 -12 -2 -27z m-1030 -5
c24 -34 19 -41 -14 -17 -16 12 -27 26 -24 31 9 14 22 9 38 -14z m-294 -9 c0
-6 -4 -7 -10 -4 -5 3 -10 11 -10 16 0 6 5 7 10 4 6 -3 10 -11 10 -16z m560 1
c0 -5 -4 -10 -10 -10 -5 0 -10 5 -10 10 0 6 5 10 10 10 6 0 10 -4 10 -10z
m-430 -24 c0 -19 -37 -27 -50 -11 -8 10 -7 14 2 18 25 10 48 7 48 -7z m120 -1
c15 -19 -3 -45 -31 -45 -27 0 -33 19 -13 41 21 23 28 24 44 4z m-437 -1 c3 -3
1 -14 -5 -24 -16 -25 -3 -52 24 -48 24 4 25 8 12 43 -6 19 -5 19 16 -2 23 -22
23 -23 5 -43 -19 -21 -65 -28 -65 -10 0 6 -7 10 -15 10 -18 0 -19 4 -2 31 10
17 10 23 0 26 -7 3 -13 9 -13 14 0 10 33 12 43 3z m-1996 -10 c-3 -3 -12 -4
-19 -1 -8 3 -5 6 6 6 11 1 17 -2 13 -5z m2233 -14 c0 -5 -4 -10 -10 -10 -5 0
-10 5 -10 10 0 6 5 10 10 10 6 0 10 -4 10 -10z m440 -2 c0 -16 -17 -44 -23
-38 -3 3 -8 15 -11 28 -6 18 -3 22 13 22 12 0 21 -6 21 -12z m-2595 -18 c3 -5
-1 -10 -9 -10 -9 0 -16 5 -16 10 0 6 4 10 9 10 6 0 13 -4 16 -10z m180 -11
c13 -13 -10 -33 -26 -23 -8 4 -29 8 -48 9 -37 1 -54 20 -24 28 23 6 85 -3 98
-14z m1370 1 c-11 -12 -25 -18 -36 -15 -9 3 -20 1 -24 -4 -4 -7 -59 -10 -143
-9 -137 1 -137 1 -82 14 45 12 130 21 284 33 19 1 19 0 1 -19z m549 11 c8 -12
-20 -22 -39 -15 -19 8 -9 24 15 24 10 0 21 -4 24 -9z m176 -11 c19 -36 -14
-56 -40 -25 -10 12 -10 18 0 30 17 20 27 19 40 -5z m-1515 -10 c22 -5 108 -10
190 -10 183 0 255 -8 249 -25 -3 -7 4 -19 15 -27 21 -15 21 -15 -7 -28 -36
-16 -416 -28 -426 -12 -6 10 40 18 138 25 22 1 41 7 43 12 2 6 -55 11 -156 12
-93 0 -167 6 -179 12 -11 6 -57 11 -101 11 -46 0 -81 4 -81 10 0 5 -6 7 -13 4
-8 -3 -27 1 -43 7 l-29 13 40 6 c51 9 308 1 360 -10z m1662 -5 c7 -19 -24 -55
-47 -55 -26 0 -33 30 -14 51 21 23 52 25 61 4z m-211 -26 c3 -6 2 -15 -4 -21
-7 -7 -14 -3 -21 11 -10 17 -9 21 3 21 8 0 18 -5 22 -11z m3334 -2 c0 -7 13
-20 29 -30 16 -9 31 -27 34 -39 18 -74 40 -118 59 -118 15 0 19 5 15 20 -7 25
10 25 48 0 17 -11 39 -20 50 -20 12 0 50 -16 85 -35 36 -19 78 -35 93 -35 33
0 71 -23 110 -65 47 -50 58 -71 72 -138 7 -35 23 -79 34 -98 24 -39 27 -77 8
-103 -12 -16 -16 -17 -36 -5 -12 8 -32 34 -44 58 -29 59 -148 140 -194 134
-23 -4 -45 4 -87 31 -31 20 -60 36 -65 36 -5 0 -14 6 -20 13 -6 8 -29 19 -51
26 -45 13 -80 39 -80 58 0 23 -20 24 -50 2 -36 -27 -50 -19 -20 11 36 36 9 48
-33 16 -20 -16 -38 -23 -41 -17 -4 5 -2 12 4 16 12 7 14 45 2 45 -4 0 -14 -10
-22 -21 -14 -19 -88 -59 -111 -59 -5 0 2 18 16 40 40 63 11 56 -40 -10 -25
-33 -50 -60 -56 -60 -13 0 -12 5 11 47 25 47 25 63 0 63 -18 0 -18 3 10 49 41
66 79 103 100 96 13 -4 19 1 24 20 4 17 13 25 27 25 12 0 23 8 26 20 5 20 33
29 33 10 0 -5 7 -10 15 -10 8 0 15 9 15 20 0 11 7 20 15 20 8 0 15 -6 15 -13z
m-3756 -3 c25 -4 46 -11 46 -16 0 -14 -113 -5 -118 10 -4 14 6 15 72 6z m-294
-15 c0 -7 -76 -19 -116 -19 -36 0 -29 18 9 23 45 5 107 3 107 -4z m654 2 c3
-5 -3 -11 -14 -14 -20 -5 -35 5 -23 17 9 9 31 7 37 -3z m3093 -16 c-4 -8 -11
-15 -17 -15 -14 0 -13 27 3 33 16 6 21 1 14 -18z m-2922 -6 c0 -7 -8 -15 -17
-17 -18 -3 -25 18 -11 32 10 10 28 1 28 -15z m-2222 -6 c58 -9 39 -29 -24 -25
-30 2 -58 8 -63 12 -14 14 5 32 28 25 11 -3 38 -9 59 -12z m1491 0 c3 -4 -13
-16 -36 -26 -42 -19 -60 -23 -248 -48 -103 -13 -111 -16 -91 -28 20 -13 240
11 322 35 9 2 19 -2 22 -11 9 -22 -56 -51 -133 -58 -36 -3 -110 -11 -165 -17
-92 -10 -264 -7 -391 6 -44 4 -51 8 -47 24 5 19 -25 25 -167 34 -110 7 -203
17 -212 22 -4 3 -8 15 -8 26 0 20 3 21 109 15 60 -4 131 -12 157 -18 31 -8
122 -12 246 -12 197 1 306 10 468 38 47 8 101 16 120 18 19 2 38 5 41 5 3 1 9
-1 13 -5z m866 -13 c0 -24 -37 -47 -53 -31 -7 7 -5 16 8 31 23 25 45 26 45 0z
m-2077 -10 c22 -9 21 -9 -3 -11 -160 -11 -211 -6 -195 21 9 14 158 6 198 -10z
m1877 1 c0 -11 -5 -23 -11 -27 -15 -9 -33 12 -26 30 9 23 37 20 37 -3z m-2581
-10 c17 -11 7 -41 -13 -41 -7 0 -16 11 -18 25 -5 26 6 32 31 16z m2248 -7 c-3
-3 -12 -4 -19 -1 -8 3 -5 6 6 6 11 1 17 -2 13 -5z m623 -9 c0 -8 -4 -15 -10
-15 -5 0 -10 7 -10 15 0 8 5 15 10 15 6 0 10 -7 10 -15z m2654 -6 c-28 -31
-74 -62 -82 -55 -8 9 68 76 86 76 12 0 11 -4 -4 -21z m-3014 -4 c0 -10 -10
-15 -27 -15 -27 1 -27 1 -9 15 25 19 36 19 36 0z m-1840 -31 l25 -15 -25 5
c-14 3 -31 6 -37 6 -7 0 -13 5 -13 10 0 14 21 12 50 -6z m1929 -25 c-25 -20
-69 -25 -69 -9 0 13 84 49 89 37 2 -6 -7 -18 -20 -28z m-2271 -14 c3 -3 2 -8
-1 -12 -4 -3 -22 1 -40 11 l-32 17 34 -6 c19 -3 37 -7 39 -10z m682 6 c0 -10
-51 -22 -63 -14 -4 2 -5 9 -2 14 8 12 65 12 65 0z m1230 -11 c0 -5 -25 -10
-55 -10 -30 0 -55 5 -55 10 0 6 25 10 55 10 30 0 55 -4 55 -10z m940 -10 c0
-5 -5 -10 -11 -10 -5 0 -7 5 -4 10 3 6 8 10 11 10 2 0 4 -4 4 -10z m-2622 -16
c39 -8 25 -27 -15 -20 -90 13 -113 19 -113 27 0 9 70 5 128 -7z m272 6 c19 -6
112 -13 205 -15 94 -3 226 -8 295 -12 117 -8 179 -6 390 12 61 6 82 5 75 -3
-6 -6 -26 -12 -45 -13 -19 -2 -39 -6 -45 -10 -19 -13 -93 -21 -100 -10 -10 18
-25 13 -25 -9 0 -14 9 -21 35 -26 19 -3 42 -4 50 0 8 3 15 1 15 -4 0 -6 -4
-10 -10 -10 -16 0 -23 -2 -50 -12 -47 -18 -240 -29 -319 -18 -71 9 -317 23
-388 21 -18 -1 -34 3 -38 8 -9 15 35 25 111 23 66 -1 106 9 92 23 -3 3 -57 8
-119 11 -63 2 -150 8 -194 13 -44 6 -91 10 -104 10 -16 1 -21 5 -15 10 20 20
131 26 184 11z m4535 -26 c-38 -20 -45 -17 -15 5 13 11 28 17 33 14 5 -3 -4
-11 -18 -19z m-3105 7 c0 -10 -13 -15 -67 -26 -40 -8 -44 9 -5 23 35 13 72 15
72 3z m-2010 -54 c126 -50 192 -69 290 -87 36 -7 69 -15 75 -18 10 -7 33 -12
243 -51 62 -11 121 -25 131 -30 23 -13 144 -28 241 -30 41 -1 104 -7 140 -12
36 -6 95 -10 132 -9 36 1 69 -4 73 -9 3 -6 15 -11 25 -11 14 0 18 5 13 17 -6
14 2 15 83 10 49 -4 118 -2 154 3 113 18 263 38 327 45 53 5 62 4 57 -9 -6
-17 36 -33 55 -21 6 3 9 0 6 -8 -6 -14 -72 -43 -92 -39 -6 2 -14 -2 -18 -8 -3
-5 -17 -10 -31 -10 -13 0 -24 -4 -24 -10 0 -5 -15 -11 -32 -14 -18 -3 -67 -10
-108 -17 -41 -7 -104 -15 -139 -18 -42 -4 -66 -11 -69 -20 -4 -12 10 -13 84
-7 49 4 116 13 149 21 33 7 88 18 122 24 34 6 74 18 90 26 15 8 35 15 43 15
18 0 100 72 100 88 0 13 37 34 95 52 56 18 242 106 278 132 18 13 28 16 25 8
-2 -8 -13 -18 -23 -24 -10 -6 -34 -26 -54 -44 -59 -53 -121 -98 -208 -149 -46
-26 -83 -51 -83 -55 0 -11 24 -10 36 1 16 16 166 92 171 87 14 -14 -114 -120
-200 -167 -35 -18 -41 -19 -56 -5 -16 14 -24 12 -97 -24 -43 -22 -85 -40 -92
-40 -8 0 -46 -11 -85 -24 -40 -14 -90 -28 -112 -32 -47 -8 -57 -13 -50 -23 5
-9 68 4 195 38 46 12 89 18 111 15 29 -5 54 2 124 35 48 23 92 40 97 39 9 -3
-51 -61 -87 -86 -48 -33 -227 -101 -280 -107 -57 -7 -256 -62 -268 -74 -20
-20 -1 -19 88 5 55 15 103 22 122 19 21 -4 47 1 75 14 56 25 118 42 118 31 0
-4 -15 -13 -32 -20 -18 -8 -40 -19 -48 -25 -8 -7 -60 -31 -115 -53 -85 -35
-100 -44 -97 -61 2 -12 -2 -21 -8 -21 -7 0 -10 7 -6 15 7 19 -5 19 -71 -2 -29
-9 -53 -23 -53 -30 0 -22 -50 -36 -69 -20 -17 15 -68 15 -116 -1 -17 -5 -62
-6 -105 -1 -41 4 -120 12 -175 18 -126 13 -225 38 -245 62 -10 13 -38 22 -84
28 -38 6 -72 14 -75 20 -3 5 -22 11 -41 13 -28 4 -39 12 -56 42 -20 35 -23 36
-32 20 -10 -18 -12 -18 -32 6 -11 13 -27 25 -34 26 -7 1 -42 23 -77 49 -51 38
-63 52 -61 70 2 18 -1 24 -15 23 -10 0 -26 3 -35 7 -22 9 -23 -3 -3 -31 8 -12
12 -24 9 -27 -11 -10 -189 96 -232 139 -25 24 -54 44 -64 44 -10 0 -22 10 -27
23 -5 12 -23 35 -40 51 -16 16 -28 33 -25 38 11 17 34 7 71 -33 21 -22 72 -63
113 -91 41 -28 88 -61 103 -74 28 -24 67 -32 67 -15 0 5 -13 14 -29 21 -16 6
-46 29 -68 51 -21 21 -45 39 -53 39 -22 0 -209 172 -231 213 -17 30 9 19 55
-23 30 -27 47 -37 51 -29 4 6 3 14 -2 18 -24 15 -112 124 -107 132 3 5 8 8 12
5 4 -2 59 -24 122 -49z m2990 43 c0 -5 -4 -10 -10 -10 -5 0 -10 5 -10 10 0 6
5 10 10 10 6 0 10 -4 10 -10z m-1196 -21 c-27 -11 -34 -10 -34 0 0 11 31 20
44 13 5 -3 1 -9 -10 -13z m3432 -49 c-24 -32 -50 -66 -57 -74 -8 -8 -32 -37
-54 -65 -26 -32 -48 -50 -62 -51 -48 -1 -32 27 60 104 26 21 47 44 47 51 0 8
8 16 18 19 9 3 28 22 41 41 13 19 30 35 37 35 8 0 -4 -24 -30 -60z m-3618 38
c-5 -14 -75 -34 -85 -24 -3 3 0 12 7 21 15 18 84 21 78 3z m-98 -12 c0 -3 -4
-8 -10 -11 -5 -3 -10 -1 -10 4 0 6 5 11 10 11 6 0 10 -2 10 -4z m910 0 c0 -3
-4 -8 -10 -11 -5 -3 -10 -1 -10 4 0 6 5 11 10 11 6 0 10 -2 10 -4z m-1823 -12
c-3 -3 -12 -4 -19 -1 -8 3 -5 6 6 6 11 1 17 -2 13 -5z m1348 -13 c3 -5 2 -12
-2 -14 -13 -7 -83 5 -83 14 0 12 77 12 85 0z m3365 -1 c0 -5 -5 -10 -11 -10
-5 0 -7 5 -4 10 3 6 8 10 11 10 2 0 4 -4 4 -10z m-2970 -10 c0 -5 -4 -10 -10
-10 -5 0 -10 5 -10 10 0 6 5 10 10 10 6 0 10 -4 10 -10z m-700 -15 c0 -14 -6
-16 -110 -19 -32 -1 -28 18 5 25 59 13 105 10 105 -6z m-1200 -5 c0 -6 8 -5
20 2 16 10 32 9 84 -5 35 -9 72 -17 83 -17 28 0 103 -34 100 -45 -5 -15 -103
-5 -166 17 -31 10 -77 21 -103 23 -52 3 -71 12 -63 26 8 12 45 12 45 -1z
m1010 -5 c0 -3 -12 -17 -27 -31 -25 -21 -36 -24 -93 -22 -36 1 -86 -2 -112 -6
-52 -9 -244 10 -254 25 -10 16 19 19 103 11 79 -8 164 -3 283 17 69 11 100 13
100 6z m-520 -25 c0 -5 -6 -10 -14 -10 -8 0 -18 5 -21 10 -3 6 3 10 14 10 12
0 21 -4 21 -10z m1300 -3 c-21 -20 -158 -60 -178 -52 -29 11 37 45 88 45 25 0
52 5 60 10 8 5 22 10 30 10 13 0 13 -2 0 -13z m3437 -32 c24 -8 55 -15 68 -15
13 0 30 -8 37 -19 7 -10 27 -25 44 -34 29 -15 44 -35 44 -57 0 -5 -24 -10 -52
-12 -59 -4 -48 -13 25 -23 95 -13 43 -23 -88 -18 -121 5 -135 4 -135 -11 0 -9
-2 -16 -4 -16 -2 0 -11 -3 -19 -6 -8 -3 -24 5 -36 17 -22 24 -28 11 -11 -22 7
-11 21 -19 38 -19 41 0 59 -15 46 -37 -16 -27 -60 -29 -76 -4 -9 14 -23 21
-46 21 -20 0 -35 6 -38 15 -4 8 -15 15 -25 15 -12 0 -19 7 -19 19 0 22 -25 34
-51 26 -18 -6 -18 -8 -4 -28 23 -33 19 -37 -35 -37 -46 0 -66 12 -37 23 16 6
-21 36 -45 37 -24 0 -34 -21 -15 -34 13 -10 12 -14 -8 -34 -29 -28 -80 -30
-94 -3 -9 15 -7 20 9 24 33 8 23 27 -14 27 -19 0 -41 3 -50 6 -14 5 -14 8 0
29 8 13 34 36 57 51 23 15 51 36 62 46 35 30 110 65 156 73 24 4 51 11 59 16
22 12 206 1 257 -16z m-5780 -11 c-9 -9 -28 6 -21 18 4 6 10 6 17 -1 6 -6 8
-13 4 -17z m903 16 c0 -5 -6 -10 -14 -10 -8 0 -18 5 -21 10 -3 6 3 10 14 10
12 0 21 -4 21 -10z m209 -16 c12 -11 -16 -18 -64 -17 -58 2 -79 9 -69 24 5 9
122 2 133 -7z m611 -13 c0 -22 -36 -32 -136 -36 -60 -2 -133 -7 -161 -11 -59
-7 -163 3 -163 15 0 10 129 20 303 25 65 2 121 6 124 10 9 9 33 7 33 -3z
m4684 -35 c18 -38 21 -86 6 -86 -5 0 -10 6 -10 14 0 7 -11 21 -25 30 -14 9
-22 23 -20 31 3 8 7 22 10 30 7 24 22 17 39 -19z m-5171 5 c4 -4 -12 -7 -35
-7 -23 1 -43 6 -45 13 -3 9 7 10 34 6 21 -3 41 -9 46 -12z m3877 -81 c0 -23
-77 -92 -147 -132 -116 -66 -132 -74 -213 -98 -41 -13 -84 -26 -95 -31 -11 -4
-38 -11 -60 -14 -40 -7 -52 -11 -158 -60 -34 -15 -66 -23 -77 -20 -14 4 -20 2
-20 -9 0 -18 -12 -26 -54 -37 -17 -4 -58 -17 -90 -28 -67 -24 -148 -27 -164
-8 -9 10 7 17 71 32 45 10 102 28 127 39 25 11 55 20 68 21 13 0 26 5 30 10 9
12 70 46 142 80 30 13 62 29 70 35 38 24 140 68 185 80 49 12 114 35 208 72
26 10 51 17 56 14 4 -3 19 6 32 20 34 37 89 58 89 34z m1049 -45 c32 -37 39
-55 20 -55 -18 0 -81 68 -74 80 10 17 21 12 54 -25z m-99 5 c0 -5 -2 -10 -4
-10 -3 0 -8 5 -11 10 -3 6 -1 10 4 10 6 0 11 -4 11 -10z m-891 -49 c9 -6 10
-10 2 -16 -16 -9 -44 2 -36 15 8 12 16 12 34 1z m734 2 c-7 -2 -19 -2 -25 0
-7 3 -2 5 12 5 14 0 19 -2 13 -5z m-3723 -42 c0 -14 -18 -23 -30 -16 -6 4 -8
11 -5 16 8 12 35 12 35 0z m4538 -7 c23 -3 40 -9 37 -15 -8 -12 -142 -12 -150
1 -3 6 -42 10 -86 10 -48 0 -79 4 -79 10 0 10 175 6 278 -6z m-1219 -3 c9 -6
10 -10 2 -16 -14 -8 -91 4 -91 14 0 11 72 12 89 2z m-5214 -51 c33 -22 53 -40
44 -40 -9 0 -28 9 -42 20 -14 11 -31 20 -39 20 -15 1 -48 24 -48 34 0 15 29 3
85 -34z m5183 8 c79 -9 98 -14 80 -21 -13 -4 -59 -5 -103 -2 -71 6 -177 12
-227 14 -26 1 -22 19 5 23 30 5 120 0 245 -14z m1120 7 c26 -10 1 -23 -58 -30
-69 -8 -138 9 -120 29 10 13 146 13 178 1z m172 -25 c0 -5 -4 -10 -10 -10 -5
0 -10 5 -10 10 0 6 5 10 10 10 6 0 10 -4 10 -10z m-850 -10 c0 -5 -7 -10 -15
-10 -8 0 -15 5 -15 10 0 6 7 10 15 10 8 0 15 -4 15 -10z m-890 -12 c27 0 53
-4 56 -10 6 -9 -130 -10 -149 0 -15 7 5 23 24 17 10 -3 41 -6 69 -7z m1274 3
c3 -5 -11 -11 -32 -13 -42 -6 -53 -1 -32 12 19 12 57 13 64 1z m-589 -11 c4
-6 -9 -10 -32 -9 -30 0 -34 2 -18 9 27 12 43 12 50 0z m734 1 c7 -5 9 -11 5
-14 -13 -7 -74 4 -74 14 0 11 51 11 69 0z m-3012 -38 c4 -11 -26 -27 -35 -19
-2 3 -2 12 2 21 6 18 27 16 33 -2z m-2821 -95 c-6 -4 -15 -3 -20 2 -6 6 -16
10 -22 10 -19 0 -85 41 -80 49 3 4 34 -6 69 -23 38 -18 60 -34 53 -38z m4404
32 c0 -5 -9 -10 -20 -10 -11 0 -20 5 -20 10 0 6 9 10 20 10 11 0 20 -4 20 -10z
m560 -20 c11 -7 5 -10 -22 -10 -21 0 -38 5 -38 10 0 13 40 13 60 0z m-2160 -4
c0 -2 3 -11 6 -20 9 -23 -13 -20 -26 4 -9 16 -8 20 5 20 8 0 15 -2 15 -4z
m1706 -35 c-3 -5 -15 -7 -26 -4 -28 7 -25 13 6 13 14 0 23 -4 20 -9z m-3256
-71 c0 -5 -2 -10 -4 -10 -3 0 -8 5 -11 10 -3 6 -1 10 4 10 6 0 11 -4 11 -10z
m-872 -46 c24 -7 31 -34 7 -34 -23 0 -65 22 -59 31 6 10 20 11 52 3z m3732
-74 c0 -5 -2 -10 -4 -10 -3 0 -8 5 -11 10 -3 6 -1 10 4 10 6 0 11 -4 11 -10z
m103 -7 c-7 -2 -19 -2 -25 0 -7 3 -2 5 12 5 14 0 19 -2 13 -5z"/>
<g>
<path d="M4585 6586 c-23 -34 -36 -84 -24 -92 6 -3 11 -4 13 -3 5 7 46 108 46
113 0 15 -21 4 -35 -18z"/>
</g>
<g>
<path d="M4402 6381 c-11 -16 -24 -42 -28 -57 -4 -15 -13 -39 -20 -53 -19 -37
-19 -57 1 -41 8 7 15 18 15 25 0 7 16 42 35 79 19 37 35 69 35 72 0 13 -19 0
-38 -25z"/>
</g>
<g>
<path d="M4352 6168 c-6 -7 -14 -27 -18 -43 -4 -17 -16 -49 -26 -73 -11 -24
-21 -73 -23 -110 -2 -37 -7 -87 -11 -112 -5 -32 -3 -42 4 -35 6 6 18 60 27
120 14 101 44 201 68 233 14 18 -6 38 -21 20z"/>
</g>
<g>
<path d="M4276 6114 c-4 -9 -4 -19 -2 -21 8 -8 26 8 26 23 0 19 -16 18 -24 -2z"/>
</g>
<g>
<path d="M4136 5889 c-9 -30 -15 -209 -7 -209 13 0 20 41 23 132 2 71 -6 110
-16 77z"/>
</g>
<g>
<path d="M3853 4705 c-3 -9 -3 -18 0 -21 9 -9 27 6 27 22 0 19 -19 18 -27 -1z"/>
</g>
<g>
<path d="M3930 4630 c13 -24 45 -28 36 -4 -3 9 -6 18 -6 20 0 2 -9 4 -20 4
-18 0 -19 -3 -10 -20z"/>
</g>
<g>
<path d="M6450 2908 c0 -13 -3 -33 -6 -45 -4 -13 -2 -23 3 -23 12 0 36 67 28
80 -11 18 -25 11 -25 -12z"/>
</g>
<g>
<path d="M6445 2305 c-36 -132 -66 -182 -170 -286 -29 -29 -240 -174 -270
-186 -16 -6 -21 -33 -6 -33 5 0 16 6 24 14 7 8 38 29 68 47 155 92 224 150
286 238 66 94 112 217 93 251 -6 10 -13 -3 -25 -45z"/>
</g>
<g>
<path d="M5787 1458 c-21 -11 -36 -23 -33 -26 8 -7 96 28 96 39 0 13 -20 9
-63 -13z"/>
</g>
<g>
<path d="M5700 1423 c-8 -3 -46 -20 -85 -38 -38 -18 -84 -38 -100 -44 -17 -7
-50 -29 -74 -51 -23 -21 -67 -55 -97 -76 -54 -35 -73 -58 -60 -71 11 -11 116
45 116 61 0 24 136 110 215 136 40 13 115 66 115 82 0 9 -7 9 -30 1z"/>
</g>
<g>
<path d="M5640 1225 c-7 -8 -18 -15 -24 -15 -6 0 -27 -9 -47 -19 -24 -13 -55
-19 -90 -19 -61 1 -139 -26 -122 -43 15 -15 192 14 243 40 31 16 70 51 70 63
0 13 -16 9 -30 -7z"/>
</g>
<g>
<path d="M5413 1053 c-15 -21 -37 -46 -48 -55 -20 -17 -20 -17 5 -18 30 0 100
65 100 93 0 29 -28 19 -57 -20z"/>
</g>
<g>
<path d="M4537 1024 c-8 -14 14 -39 50 -57 20 -11 34 -13 38 -7 9 15 -5 31
-25 28 -10 -2 -27 8 -37 21 -11 13 -22 20 -26 15z"/>
</g>
<g>
<path d="M4650 945 c-13 -15 13 -32 85 -55 22 -7 46 -17 53 -23 9 -7 16 -7 23
0 12 12 -66 67 -82 57 -6 -3 -24 3 -39 14 -24 18 -30 19 -40 7z"/>
</g>
<g>
<path d="M4858 873 c-29 -7 -20 -23 12 -23 20 0 30 5 30 15 0 15 -9 17 -42 8z"/>
</g>
<g>
<path d="M4684 2325 c-10 -14 -28 -28 -39 -31 -27 -9 -135 -85 -135 -95 0 -15
24 -10 55 12 17 11 60 38 96 59 57 34 79 55 79 76 0 15 -40 0 -56 -21z"/>
</g>
<g>
<path d="M2190 1640 c0 -5 4 -10 9 -10 6 0 13 5 16 10 3 6 -1 10 -9 10 -9 0
-16 -4 -16 -10z"/>
</g>
<g>
<path d="M1400 980 c0 -5 5 -10 10 -10 6 0 10 5 10 10 0 6 -4 10 -10 10 -5 0
-10 -4 -10 -10z"/>
</g>
<g>
<path d="M5885 1080 c-3 -5 -1 -10 4 -10 6 0 11 5 11 10 0 6 -2 10 -4 10 -3 0
-8 -4 -11 -10z"/>
</g>
</g>
<g>
<path d="M5456 6733 c-1 -2 -29 -6 -61 -9 -33 -4 -82 -13 -110 -21 -27 -8 -71
-18 -96 -23 -68 -12 -116 -41 -186 -109 -67 -66 -111 -142 -139 -241 -20 -74
-15 -168 16 -252 26 -73 25 -86 -4 -97 -13 -5 -26 -17 -30 -26 -11 -30 -6
-101 10 -146 9 -24 22 -68 30 -98 8 -30 23 -71 33 -90 11 -20 23 -58 27 -86 9
-47 11 -51 47 -59 26 -7 48 -6 67 1 23 9 32 8 41 -3 6 -8 23 -14 36 -14 29 0
123 31 123 41 0 9 -107 20 -134 13 -19 -4 -28 0 -43 22 -10 15 -28 39 -39 52
-63 70 -59 60 -56 170 2 81 -1 107 -14 127 -9 13 -17 40 -19 59 -2 20 -17 78
-34 130 -37 113 -40 186 -11 274 40 122 99 199 187 243 27 13 55 30 65 37 15
13 85 30 209 53 39 7 83 8 140 1 66 -8 87 -8 102 3 16 11 26 11 60 -1 42 -15
73 -12 62 6 -9 14 -81 32 -150 36 -33 2 -75 5 -93 7 -18 2 -34 2 -36 0z m-538
-804 c17 -27 3 -139 -18 -139 -23 0 -38 106 -20 141 14 24 22 24 38 -2z m92
-351 c16 -18 30 -36 30 -40 0 -13 -45 -9 -58 4 -12 12 -17 68 -7 68 3 0 19
-15 35 -32z"/>
</g>
<g>
<path d="M5780 6682 c0 -5 -10 -12 -22 -16 -22 -5 -20 -8 27 -54 51 -49 146
-155 170 -189 8 -11 21 -57 31 -103 18 -92 15 -183 -13 -305 -18 -80 -18 -78
-4 -83 6 -2 11 3 11 12 0 22 29 34 67 29 36 -6 43 -25 34 -93 -6 -44 -31 -69
-31 -32 0 11 -7 25 -16 32 -13 11 -20 9 -46 -18 -28 -27 -32 -38 -35 -98 -3
-67 -23 -114 -65 -156 -10 -10 -18 -22 -18 -27 0 -13 -56 -34 -98 -37 -21 -2
-40 -3 -44 -3 -16 -2 -8 -41 9 -41 9 0 36 -20 60 -45 41 -43 111 -91 120 -82
2 3 -7 20 -19 40 -18 27 -28 34 -45 30 -16 -3 -23 1 -28 18 -11 34 25 60 65
49 41 -12 70 16 100 95 13 33 38 83 55 110 47 74 85 154 85 177 0 11 -5 38
-11 59 -12 39 -28 49 -81 49 -37 0 -41 12 -23 72 55 186 1 413 -128 536 -31
28 -60 52 -66 52 -5 0 -17 7 -25 16 -9 8 -16 11 -16 6z m260 -916 c0 -8 -11
-28 -25 -44 -14 -17 -25 -33 -25 -36 0 -21 -73 -156 -85 -156 -35 0 -24 34 32
103 12 15 28 47 34 70 16 55 69 104 69 63z"/>
</g>
<g>
<path d="M1940 6492 c-36 -17 -70 -45 -70 -59 0 -8 -7 -21 -15 -29 -16 -16
-20 -34 -7 -34 4 0 29 20 55 45 40 37 56 45 86 45 33 0 39 -4 54 -35 14 -30
21 -34 41 -29 13 3 40 -2 61 -10 50 -21 87 -20 118 4 14 11 30 20 35 20 18 0
36 30 24 42 -13 13 -103 12 -112 -2 -10 -16 -139 -5 -153 13 -7 8 -23 17 -37
20 -14 3 -34 8 -45 11 -11 3 -27 2 -35 -2z"/>
</g>
<g>
<path d="M2350 6415 c0 -8 16 -21 35 -30 19 -9 39 -23 46 -31 14 -17 35 -18
44 -4 9 15 -12 38 -56 61 -45 23 -69 24 -69 4z"/>
</g>
<g>
<path d="M1760 6365 c-26 -31 9 -56 54 -39 20 8 20 18 0 38 -19 20 -38 20 -54
1z"/>
</g>
<g>
<path d="M2510 6317 c0 -15 69 -57 93 -57 9 0 22 -12 29 -27 13 -27 16 -28 80
-25 51 2 77 -2 112 -17 25 -12 49 -21 55 -21 5 0 22 -10 38 -22 15 -13 37 -28
48 -34 39 -21 115 -188 115 -253 0 -38 17 -40 30 -5 18 46 -48 207 -114 282
-39 44 -187 102 -258 102 -22 0 -42 7 -53 20 -10 11 -30 20 -44 20 -14 0 -44
11 -66 25 -45 27 -65 31 -65 12z"/>
</g>
<g>
<path d="M1662 6297 c-12 -13 -22 -29 -22 -35 0 -16 52 -16 68 0 17 17 15 45
-4 52 -21 8 -18 9 -42 -17z"/>
</g>
<g>
<path d="M2480 6269 c0 -11 5 -17 10 -14 6 3 10 13 10 21 0 8 -4 14 -10 14 -5
0 -10 -9 -10 -21z"/>
</g>
<g>
<path d="M2282 6239 c2 -6 8 -10 13 -10 5 0 11 4 13 10 2 6 -4 11 -13 11 -9 0
-15 -5 -13 -11z"/>
</g>
<g>
<path d="M1497 6198 c-10 -24 -11 -43 -4 -68 11 -39 13 -85 7 -115 -7 -31 22
-25 38 8 12 24 11 35 -2 73 -14 41 -14 49 -1 74 8 16 20 31 27 33 10 4 9 8 -2
16 -27 20 -50 12 -63 -21z"/>
</g>
<g>
<path d="M5737 6215 c-4 -8 -15 -15 -26 -15 -11 0 -26 -6 -34 -14 -8 -8 -37
-17 -66 -19 -28 -2 -52 -8 -54 -13 -3 -13 62 -17 87 -6 12 5 44 18 71 28 28
11 50 26 50 34 0 19 -21 24 -28 5z"/>
</g>
<g>
<path d="M5360 6210 c0 -5 9 -10 20 -10 11 0 20 5 20 10 0 6 -9 10 -20 10 -11
0 -20 -4 -20 -10z"/>
</g>
<g>
<path d="M5430 6210 c0 -5 9 -10 20 -10 11 0 20 5 20 10 0 6 -9 10 -20 10 -11
0 -20 -4 -20 -10z"/>
</g>
<g>
<path d="M5137 6203 c-14 -13 -6 -23 31 -42 45 -23 194 -41 175 -21 -6 7 -41
15 -77 19 -52 6 -70 12 -82 29 -15 22 -35 28 -47 15z"/>
</g>
<g>
<path d="M2095 6179 c-4 -6 -5 -12 -2 -15 7 -7 37 7 37 17 0 13 -27 11 -35 -2z"/>
</g>
<g>
<path d="M5745 6070 c-3 -6 -14 -10 -23 -10 -9 0 -44 -25 -77 -55 -32 -30 -63
-55 -68 -55 -4 0 -5 -5 -2 -10 4 -6 15 -8 26 -5 27 9 24 -10 -6 -33 -30 -24
-31 -32 -6 -32 11 0 28 12 39 28 21 29 111 62 170 62 18 0 32 4 32 9 0 18 -44
41 -77 41 -18 0 -33 4 -33 8 0 10 45 32 65 32 8 0 15 6 15 13 0 15 -46 21 -55
7z"/>
</g>
<g>
<path d="M5078 6023 c-2 -12 -13 -18 -33 -18 -36 0 -42 -28 -7 -33 13 -2 26
-10 29 -18 3 -9 21 -14 53 -14 36 0 56 -7 88 -30 62 -45 71 -41 50 17 -9 24
-24 39 -58 55 -25 13 -48 22 -52 20 -4 -1 -12 7 -18 18 -13 25 -47 26 -52 3z"/>
</g>
<g>
<path d="M2217 5974 c-11 -11 -8 -52 4 -60 6 -3 18 1 27 10 13 12 14 21 6 33
-12 20 -27 26 -37 17z"/>
</g>
<g>
<path d="M1401 5932 c-6 -11 -11 -28 -11 -36 0 -9 -4 -16 -10 -16 -5 0 -27
-17 -50 -37 -55 -51 -63 -111 -29 -209 25 -70 39 -84 64 -64 21 17 19 25 -15
60 -25 26 -30 39 -31 85 -1 30 -2 61 -3 67 -1 7 11 19 27 26 15 7 27 17 27 23
0 5 3 8 8 8 31 -5 40 4 46 48 7 52 -6 77 -23 45z"/>
</g>
<g>
<path d="M1744 5868 c9 -71 47 -178 63 -178 19 0 16 30 -7 75 -11 22 -20 48
-20 60 0 34 -20 95 -32 95 -7 0 -8 -17 -4 -52z"/>
</g>
<g>
<path d="M5406 5873 c-11 -11 -6 -23 9 -23 8 0 15 4 15 9 0 13 -16 22 -24 14z"/>
</g>
<g>
<path d="M5099 5851 c-29 -24 -18 -39 15 -22 33 18 46 7 39 -33 l-5 -33 58 -6
c60 -6 78 -2 55 12 -10 7 -9 10 3 14 9 4 16 15 16 26 0 50 -134 80 -181 42z"/>
</g>
<g>
<path d="M5440 5860 c0 -5 5 -10 10 -10 6 0 10 5 10 10 0 6 -4 10 -10 10 -5 0
-10 -4 -10 -10z"/>
</g>
<g>
<path d="M5684 5864 c-5 -1 -21 -5 -36 -8 -28 -6 -58 -49 -58 -83 0 -20 16 -7
34 28 21 42 36 35 30 -14 l-6 -45 56 2 c63 1 68 10 31 54 -14 17 -25 33 -25
36 0 10 70 7 92 -5 24 -13 46 2 26 18 -12 10 -121 22 -144 17z"/>
</g>
<g>
<path d="M2350 5838 c0 -19 102 -71 130 -66 39 5 32 34 -7 30 -21 -2 -45 6
-72 22 -46 30 -51 31 -51 14z"/>
</g>
<g>
<path d="M1666 5733 c-4 -60 -8 -119 -9 -133 -1 -16 3 -25 13 -25 11 0 17 18
22 75 7 80 0 190 -12 190 -4 0 -10 -48 -14 -107z"/>
</g>
<g>
<path d="M3090 5719 c0 -11 4 -19 10 -19 5 0 7 -7 4 -15 -3 -8 1 -28 9 -45 9
-16 18 -43 22 -59 4 -20 11 -28 21 -24 7 3 11 9 8 14 -3 5 -7 31 -9 57 -7 90
-15 110 -41 110 -17 0 -24 -6 -24 -19z"/>
</g>
<g>
<path d="M1745 5558 c3 -163 -5 -271 -35 -468 -7 -41 -12 -97 -11 -123 0 -50
-23 -106 -59 -145 -38 -41 -9 -61 31 -21 11 11 23 18 27 15 11 -11 14 -231 4
-287 -14 -74 -3 -84 20 -18 20 61 24 269 5 281 -7 4 -6 20 3 53 9 31 11 75 7
136 -5 66 -3 99 7 123 9 21 17 103 22 227 12 274 9 372 -11 389 -11 9 -13 -19
-10 -162z"/>
</g>
<g>
<path d="M2779 5708 c-1 -7 0 -23 1 -35 2 -25 -31 -43 -76 -43 -15 0 -24 -6
-24 -15 0 -18 8 -18 65 -4 24 6 51 19 61 30 14 16 15 23 4 49 -13 31 -29 40
-31 18z"/>
</g>
<g>
<path d="M5160 5700 c0 -5 7 -10 15 -10 8 0 15 5 15 10 0 6 -7 10 -15 10 -8 0
-15 -4 -15 -10z"/>
</g>
<g>
<path d="M2235 5670 c-8 -13 42 -43 61 -36 14 5 12 9 -9 26 -28 22 -43 25 -52
10z"/>
</g>
<g>
<path d="M2837 5650 c-14 -23 -15 -30 -5 -30 19 0 38 21 38 42 0 27 -13 22
-33 -12z"/>
</g>
<g>
<path d="M1940 5659 c0 -5 5 -7 10 -4 6 3 10 8 10 11 0 2 -4 4 -10 4 -5 0 -10
-5 -10 -11z"/>
</g>
<g>
<path d="M5097 5664 c-8 -8 1 -24 14 -24 5 0 9 7 9 15 0 15 -12 20 -23 9z"/>
</g>
<g>
<path d="M5322 5640 c-34 -32 -43 -98 -14 -108 7 -2 12 6 12 23 0 30 17 66 37
78 13 8 9 27 -6 27 -4 0 -17 -9 -29 -20z"/>
</g>
<g>
<path d="M5620 5642 c0 -5 12 -17 26 -27 21 -13 24 -21 19 -46 -8 -36 11 -40
26 -5 9 19 7 29 -6 50 -10 14 -21 26 -25 26 -5 0 -15 3 -24 6 -9 3 -16 2 -16
-4z"/>
</g>
<g>
<path d="M5569 5581 c-13 -10 -42 -28 -64 -39 -32 -17 -35 -21 -18 -22 13 0
40 7 62 16 30 12 44 13 60 4 17 -9 22 -8 27 4 7 18 -1 33 -25 46 -14 7 -25 5
-42 -9z"/>
</g>
<g>
<path d="M5363 5580 c-13 -5 -23 -13 -23 -18 0 -11 68 -35 80 -27 16 10 11 34
-9 45 -22 11 -19 11 -48 0z"/>
</g>
<g>
<path d="M2410 5545 c0 -8 3 -15 8 -15 4 0 18 -16 31 -35 13 -19 30 -35 37
-35 21 0 17 9 -22 56 -37 46 -54 55 -54 29z"/>
</g>
<g>
<path d="M2090 5506 c0 -27 50 -83 87 -97 26 -10 80 -2 90 14 4 7 -7 8 -33 4
-36 -6 -42 -3 -81 35 -24 23 -43 48 -43 55 0 7 -4 13 -10 13 -5 0 -10 -11 -10
-24z"/>
</g>
<g>
<path d="M3155 5511 c-8 -27 11 -54 21 -28 3 9 1 24 -4 33 -9 16 -10 15 -17
-5z"/>
</g>
<g>
<path d="M935 5491 c-13 -12 -2 -21 23 -21 16 0 37 -9 47 -20 10 -11 24 -20
31 -20 7 0 11 -6 8 -14 -6 -14 13 -32 23 -22 8 8 -23 69 -45 89 -17 16 -75 21
-87 8z"/>
</g>
<g>
<path d="M2540 5475 c-7 -8 -10 -19 -6 -22 9 -9 38 8 38 22 -1 16 -18 16 -32
0z"/>
</g>
<g>
<path d="M834 5443 c-15 -34 -15 -38 2 -50 14 -10 15 -16 6 -25 -18 -18 -15
-58 6 -64 9 -3 28 -12 42 -19 14 -8 39 -21 57 -30 24 -11 34 -23 39 -50 3 -19
11 -38 17 -42 19 -11 38 30 35 77 l-3 44 -45 -2 c-36 -2 -51 3 -72 22 -16 14
-28 33 -28 42 0 10 -7 25 -15 34 -12 13 -13 23 -6 44 11 27 5 56 -11 56 -5 0
-16 -17 -24 -37z"/>
</g>
<g>
<path d="M2270 5460 c0 -5 5 -10 11 -10 5 0 7 5 4 10 -3 6 -8 10 -11 10 -2 0
-4 -4 -4 -10z"/>
</g>
<g>
<path d="M1255 5451 c-6 -11 9 -23 19 -14 9 9 7 23 -3 23 -6 0 -12 -4 -16 -9z"/>
</g>
<g>
<path d="M2315 5427 c-9 -35 -2 -62 15 -62 21 0 25 58 6 74 -13 11 -16 9 -21
-12z"/>
</g>
<g>
<path d="M5320 5427 c0 -30 -10 -40 -26 -27 -9 8 -17 2 -33 -23 -11 -18 -37
-42 -56 -53 -29 -15 -35 -23 -30 -42 4 -17 -4 -31 -36 -60 -22 -20 -59 -54
-81 -75 -23 -21 -43 -35 -46 -33 -11 12 12 62 42 92 19 19 36 44 39 56 4 14
33 41 73 67 66 43 76 68 15 37 -16 -9 -37 -16 -45 -16 -19 0 -84 -64 -146
-143 -42 -53 -67 -73 -77 -63 -2 2 16 38 41 79 25 42 46 80 46 85 0 5 22 31
50 58 45 44 62 74 42 74 -13 0 -110 -104 -122 -130 -5 -14 -24 -47 -40 -75
-17 -27 -37 -63 -45 -80 -14 -30 -58 -78 -131 -146 -43 -39 -118 -65 -158 -55
-14 3 -35 16 -46 28 l-20 22 0 -25 c0 -33 45 -59 102 -59 47 0 105 29 198 99
30 22 61 41 68 41 27 0 4 -26 -51 -59 -31 -18 -54 -37 -51 -42 6 -10 102 40
147 78 16 13 35 23 42 23 13 0 63 45 93 84 17 22 36 21 27 -1 -4 -10 -10 -30
-13 -45 -3 -21 0 -28 12 -28 31 0 83 69 115 151 11 30 97 93 106 78 4 -5 13
-9 21 -9 19 0 18 36 -1 44 -12 4 -14 16 -9 61 5 38 3 55 -5 55 -6 0 -11 -10
-11 -23z m-30 -82 c0 -20 -34 -53 -67 -66 -35 -13 -44 -1 -13 20 14 9 34 26
45 37 24 26 35 29 35 9z m-120 -145 c0 -5 -5 -10 -11 -10 -5 0 -7 5 -4 10 3 6
8 10 11 10 2 0 4 -4 4 -10z"/>
</g>
<g>
<path d="M1185 5414 c-26 -40 -31 -91 -10 -114 21 -23 16 -67 -15 -161 -11
-32 -20 -70 -20 -84 0 -34 27 -85 44 -85 11 0 11 6 2 35 -7 19 -15 37 -17 40
-7 7 27 141 48 188 16 36 16 39 -5 67 -27 36 -28 60 -2 93 11 14 20 30 20 36
0 20 -28 11 -45 -15z"/>
</g>
<g>
<path d="M5547 5415 c-23 -55 -45 -70 -54 -36 -7 27 -20 27 -28 1 -5 -14 -12
-19 -24 -15 -14 4 -20 -4 -30 -37 -8 -27 -28 -56 -55 -80 -31 -29 -37 -38 -22
-38 10 0 36 16 57 35 38 34 41 35 110 31 73 -3 95 8 71 37 -6 7 -12 37 -14 67
-3 40 -6 49 -11 35z"/>
</g>
<g>
<path d="M3176 5313 c4 -40 1 -72 -10 -103 -9 -25 -16 -53 -16 -62 0 -19 -48
-48 -79 -48 -22 0 -41 27 -41 60 0 20 -25 38 -36 27 -10 -10 38 -106 57 -112
27 -9 81 4 107 25 30 25 39 59 48 175 7 92 6 95 -14 95 -20 0 -21 -4 -16 -57z"/>
</g>
<g>
<path d="M5590 5350 c0 -25 43 -140 52 -140 9 0 7 22 -8 72 -4 12 2 17 21 20
14 2 25 8 25 13 -1 6 -15 9 -31 7 -24 -3 -32 1 -36 17 -5 21 -23 29 -23 11z"/>
</g>
<g>
<path d="M5936 5320 c16 -31 32 -46 41 -36 6 5 -38 65 -49 65 -3 1 0 -12 8
-29z"/>
</g>
<g>
<path d="M2306 5231 c-4 -33 -4 -70 -1 -84 4 -13 2 -84 -4 -158 -6 -74 -7
-179 -3 -234 4 -55 5 -126 2 -158 -4 -39 -1 -62 6 -68 23 -19 28 14 26 166 -1
82 2 239 7 347 5 108 6 208 4 222 -9 48 -30 29 -37 -33z"/>
</g>
<g>
<path d="M2724 5255 c-4 -25 -1 -43 10 -60 22 -34 36 -24 31 23 -1 20 -3 45
-4 55 -2 32 -30 18 -37 -18z"/>
</g>
<g>
<path d="M2055 5196 c-9 -48 -3 -79 17 -82 27 -4 31 12 18 66 -14 58 -27 64
-35 16z"/>
</g>
<g>
<path d="M5430 5220 c0 -18 45 -38 82 -38 39 0 73 24 47 32 -31 10 -129 14
-129 6z"/>
</g>
<g>
<path d="M749 5193 c-6 -65 1 -98 25 -120 14 -13 26 -28 26 -33 0 -16 20 -11
27 6 3 9 -5 26 -21 43 -20 21 -26 37 -26 74 0 35 -4 47 -15 47 -8 0 -16 -8
-16 -17z"/>
</g>
<g>
<path d="M6288 5196 c-26 -19 -22 -28 10 -24 15 2 27 9 27 17 0 20 -17 23 -37
7z"/>
</g>
<g>
<path d="M2906 5146 c-9 -19 -19 -56 -23 -82 -9 -64 11 -56 42 19 32 81 16
137 -19 63z"/>
</g>
<g>
<path d="M835 5160 c-9 -14 4 -70 16 -70 5 0 9 18 9 40 0 38 -12 52 -25 30z"/>
</g>
<g>
<path d="M5356 5142 c-4 -7 -9 -86 -7 -107 3 -21 19 22 26 68 5 31 4 47 -3 47
-6 0 -13 -3 -16 -8z"/>
</g>
<g>
<path d="M880 5128 c0 -18 75 -59 94 -52 22 8 20 24 -3 24 -10 0 -30 9 -44 20
-29 23 -47 26 -47 8z"/>
</g>
<g>
<path d="M5569 5098 l-13 -33 -3 28 c-3 15 -8 27 -12 27 -14 0 -21 -60 -10
-81 5 -11 7 -24 4 -29 -8 -14 -45 -190 -45 -217 0 -14 4 -21 10 -18 6 3 10 17
10 31 0 30 18 32 24 2 18 -88 23 -102 31 -98 11 6 11 10 -3 102 -6 42 -7 80
-2 100 5 18 14 65 19 103 5 39 12 80 16 93 11 35 -11 26 -26 -10z"/>
</g>
<g>
<path d="M5310 5095 c0 -8 -18 -52 -40 -99 -40 -83 -50 -126 -30 -126 6 0 14
10 19 23 5 12 23 55 40 95 31 72 40 122 21 122 -5 0 -10 -7 -10 -15z"/>
</g>
<g>
<path d="M2047 5093 c-9 -8 -9 -56 -1 -77 11 -28 24 -6 24 40 0 41 -7 53 -23
37z"/>
</g>
<g>
<path d="M2624 5066 c-8 -20 7 -52 22 -49 15 3 15 27 0 48 -14 19 -15 19 -22
1z"/>
</g>
<g>
<path d="M2090 5054 c0 -8 5 -12 10 -9 6 4 8 11 5 16 -9 14 -15 11 -15 -7z"/>
</g>
<g>
<path d="M3186 5035 c-8 -23 31 -40 49 -21 14 13 13 16 -4 26 -27 14 -38 13
-45 -5z"/>
</g>
<g>
<path d="M5784 5004 c-4 -26 -2 -81 4 -124 6 -42 8 -86 5 -98 -3 -14 -1 -22 7
-22 9 0 10 34 5 143 -4 78 -9 144 -10 145 -2 2 -7 -17 -11 -44z"/>
</g>
<g>
<path d="M1317 5034 c-17 -17 35 -76 85 -97 56 -23 54 -4 -2 31 -34 21 -50 38
-50 52 0 19 -19 27 -33 14z"/>
</g>
<g>
<path d="M2682 5018 c5 -34 38 -37 38 -4 0 20 -5 26 -21 26 -15 0 -20 -5 -17
-22z"/>
</g>
<g>
<path d="M1390 5020 c0 -13 28 -25 38 -16 3 4 0 11 -8 16 -20 13 -30 12 -30 0z"/>
</g>
<g>
<path d="M2730 4996 c0 -36 15 -55 31 -39 11 11 -8 73 -22 73 -5 0 -9 -15 -9
-34z"/>
</g>
<g>
<path d="M992 4993 c2 -17 10 -29 21 -31 15 -3 18 2 15 25 -2 17 -10 29 -21
31 -15 3 -18 -2 -15 -25z"/>
</g>
<g>
<path d="M5460 4965 c0 -49 15 -62 22 -17 5 35 -1 62 -13 62 -5 0 -9 -20 -9
-45z"/>
</g>
<g>
<path d="M1538 4975 c-7 -16 -22 -28 -40 -32 -15 -3 -28 -9 -28 -14 0 -12 36
-11 58 0 9 5 25 12 35 15 12 4 17 14 15 28 -4 32 -26 33 -40 3z"/>
</g>
<g>
<path d="M2787 4973 c-11 -10 -8 -63 3 -63 13 0 32 48 24 61 -6 11 -18 12 -27
2z"/>
</g>
<g>
<path d="M2832 4903 c3 -39 21 -55 32 -27 9 22 -1 51 -20 58 -12 5 -15 -1 -12
-31z"/>
</g>
<g>
<path d="M990 4915 c0 -9 5 -15 11 -13 6 2 11 8 11 13 0 5 -5 11 -11 13 -6 2
-11 -4 -11 -13z"/>
</g>
<g>
<path d="M1493 4873 c-68 -4 -82 -17 -32 -27 49 -10 94 -7 107 6 16 16 15 29
0 26 -7 -1 -41 -3 -75 -5z"/>
</g>
<g>
<path d="M1310 4811 c0 -16 47 -40 91 -47 33 -6 41 -4 37 7 -2 8 -20 15 -38
17 -19 2 -43 10 -54 18 -23 16 -36 18 -36 5z"/>
</g>
<g>
<path d="M816 4802 c-3 -5 -2 -32 3 -61 6 -37 4 -58 -5 -77 -18 -34 -18 -44 1
-44 25 0 34 34 28 113 -5 71 -13 91 -27 69z"/>
</g>
<g>
<path d="M987 4796 c-4 -10 0 -30 8 -46 8 -16 15 -48 15 -70 0 -29 4 -40 13
-38 15 6 22 77 8 91 -6 6 -11 18 -11 27 0 9 -6 24 -13 34 -13 17 -14 18 -20 2z"/>
</g>
<g>
<path d="M2695 4744 c-14 -95 -22 -404 -11 -423 27 -43 34 26 37 359 1 110 1
110 -10 110 -5 0 -12 -21 -16 -46z"/>
</g>
<g>
<path d="M2983 4758 c-9 -14 -7 -197 3 -240 4 -19 12 -28 25 -28 19 0 20 7 18
123 -1 67 -4 130 -6 140 -5 20 -28 23 -40 5z"/>
</g>
<g>
<path d="M5880 4721 c0 -6 5 -13 10 -16 6 -3 10 1 10 9 0 9 -4 16 -10 16 -5 0
-10 -4 -10 -9z"/>
</g>
<g>
<path d="M3095 4668 c-2 -7 -6 -46 -10 -85 -5 -58 -3 -73 7 -73 20 0 40 79 32
128 -6 41 -20 55 -29 30z"/>
</g>
<g>
<path d="M5915 4625 c4 -22 8 -66 8 -97 0 -32 4 -58 10 -58 14 0 4 168 -12
183 -11 10 -12 5 -6 -28z"/>
</g>
<g>
<path d="M1257 4633 c-4 -3 -7 -17 -7 -30 0 -33 24 -24 28 10 3 26 -7 35 -21
20z"/>
</g>
<g>
<path d="M5581 4577 c1 -30 -2 -64 -6 -76 -4 -15 -2 -21 9 -21 18 0 29 48 23
105 -6 62 -26 56 -26 -8z"/>
</g>
<g>
<path d="M1096 4558 c-23 -32 1 -118 32 -118 10 0 12 7 8 23 -18 61 -19 87 -2
87 9 0 16 7 16 15 0 23 -37 18 -54 -7z"/>
</g>
<g>
<path d="M5643 4557 c5 -13 10 -65 22 -206 9 -111 18 -82 12 39 -7 130 -15
180 -29 180 -6 0 -8 -6 -5 -13z"/>
</g>
<g>
<path d="M2545 4520 c-8 -14 3 -30 21 -30 8 0 14 9 14 20 0 21 -24 28 -35 10z"/>
</g>
<g>
<path d="M2527 4378 c-4 -13 -9 -50 -13 -82 -6 -48 -5 -58 7 -54 9 3 16 27 20
69 6 68 -3 111 -14 67z"/>
</g>
<g>
<path d="M2750 4365 c-6 -8 -9 -19 -6 -24 9 -14 36 -2 36 14 0 21 -16 26 -30
10z"/>
</g>
<g>
<path d="M755 4320 c-4 -6 -6 -43 -6 -83 0 -116 -1 -111 16 -97 10 8 15 30 15
61 0 36 5 54 19 66 22 18 19 35 -4 26 -10 -3 -15 2 -15 16 0 22 -14 28 -25 11z"/>
</g>
<g>
<path d="M2007 4293 c-4 -3 -7 -28 -7 -54 0 -60 -7 -78 -29 -72 -14 4 -20 -7
-31 -59 -7 -35 -14 -86 -15 -114 -1 -28 -5 -57 -10 -64 -4 -7 -12 -50 -16 -94
-5 -45 -15 -126 -23 -181 -9 -55 -16 -172 -16 -260 -1 -88 -4 -190 -9 -228 -7
-67 -1 -101 14 -77 4 6 9 122 11 257 3 163 9 267 18 307 8 34 18 90 22 126 3
36 12 76 19 90 7 14 16 55 20 92 3 37 11 70 16 74 5 3 7 15 4 26 -5 14 -1 21
13 25 21 5 24 18 38 151 6 57 0 75 -19 55z"/>
</g>
<g>
<path d="M1858 4284 c-11 -18 -19 -194 -10 -194 15 0 21 24 28 99 6 62 -5 118
-18 95z"/>
</g>
<g>
<path d="M3060 4230 c-8 -16 -13 -66 -14 -140 -1 -96 1 -115 14 -115 12 0 16
23 20 123 6 139 1 171 -20 132z"/>
</g>
<g>
<path d="M817 4233 c-9 -14 5 -104 16 -100 16 5 19 83 3 96 -8 7 -16 8 -19 4z"/>
</g>
<g>
<path d="M2515 4196 c-25 -59 -16 -209 9 -167 6 9 16 89 20 159 2 47 -12 50
-29 8z"/>
</g>
<g>
<path d="M2874 4144 c-7 -27 2 -143 12 -153 15 -15 24 32 20 99 -3 41 -5 76
-5 78 -1 1 -5 2 -11 2 -5 0 -13 -12 -16 -26z"/>
</g>
<g>
<path d="M2619 4020 c-1 -49 -2 -96 -3 -102 -1 -7 6 -13 14 -13 11 0 14 13 13
55 -1 30 -2 76 -2 103 -1 26 -5 47 -11 47 -6 0 -11 -38 -11 -90z"/>
</g>
<g>
<path d="M1430 4091 c0 -5 7 -28 15 -52 9 -24 13 -49 10 -56 -2 -8 0 -37 6
-66 15 -75 18 -82 30 -70 7 7 6 25 -5 58 -10 28 -13 52 -8 59 8 10 8 22 3 88
-2 28 -51 66 -51 39z"/>
</g>
<g>
<path d="M1831 4066 c-6 -8 -12 -58 -14 -117 -2 -87 0 -104 13 -104 12 0 15
16 17 80 1 44 4 97 7 118 6 38 -3 47 -23 23z"/>
</g>
<g>
<path d="M2249 3907 c-17 -121 -14 -187 8 -187 12 0 14 10 10 48 -2 26 2 77
10 114 16 73 14 119 -3 125 -7 2 -16 -35 -25 -100z"/>
</g>
<g>
<path d="M1995 3941 c-6 -20 -2 -88 11 -168 3 -18 10 -33 16 -33 7 0 8 31 3
103 -7 103 -17 137 -30 98z"/>
</g>
<g>
<path d="M2516 3883 c-13 -134 -19 -376 -9 -370 5 3 10 27 12 54 1 26 8 109
15 184 13 133 11 199 -4 199 -4 0 -10 -30 -14 -67z"/>
</g>
<g>
<path d="M2874 3935 c-4 -8 -3 -23 1 -32 6 -17 7 -17 20 0 14 19 10 47 -6 47
-5 0 -12 -7 -15 -15z"/>
</g>
<g>
<path d="M910 3880 c0 -5 5 -10 10 -10 6 0 10 5 10 10 0 6 -4 10 -10 10 -5 0
-10 -4 -10 -10z"/>
</g>
<g>
<path d="M2611 3702 c-12 -22 -8 -42 9 -42 12 0 18 23 10 45 -7 19 -7 19 -19
-3z"/>
</g>
<g>
<path d="M2027 3704 c-10 -18 -16 -72 -22 -194 -3 -69 -8 -171 -11 -227 -5
-73 -3 -103 5 -103 13 0 13 -1 16 110 2 47 9 156 17 243 12 142 11 196 -5 171z"/>
</g>
<g>
<path d="M2946 3617 c-3 -13 -10 -89 -16 -168 -6 -79 -13 -145 -15 -148 -2 -2
0 -12 6 -22 14 -26 39 -24 39 4 1 12 3 97 6 190 4 109 3 167 -4 167 -5 0 -12
-11 -16 -23z"/>
</g>
<g>
<path d="M2426 3614 c-3 -9 -6 -56 -6 -106 0 -67 3 -89 13 -85 8 3 12 33 13
101 0 93 -7 125 -20 90z"/>
</g>
<g>
<path d="M1939 3498 c-1 -62 -4 -173 -8 -247 -6 -126 -2 -167 13 -143 4 6 9
122 13 257 5 183 3 245 -5 245 -8 0 -12 -34 -13 -112z"/>
</g>
<g>
<path d="M2589 3563 c-1 -16 -1 -32 0 -37 3 -16 -22 -81 -45 -117 -24 -38 -37
-127 -19 -129 6 0 13 19 16 43 4 25 12 54 18 66 12 22 43 30 36 9 -2 -7 -6
-41 -10 -75 -5 -51 -3 -63 8 -63 29 0 39 27 29 73 -5 24 -5 53 -1 65 10 26 12
106 3 155 -7 44 -33 51 -35 10z"/>
</g>
<g>
<path d="M4877 3483 c-4 -3 -7 -12 -7 -20 0 -17 26 -17 33 1 8 21 -11 35 -26
19z"/>
</g>
<g>
<path d="M1280 3380 c0 -5 7 -10 16 -10 8 0 12 5 9 10 -3 6 -10 10 -16 10 -5
0 -9 -4 -9 -10z"/>
</g>
<g>
<path d="M1290 3291 c0 -6 5 -13 10 -16 6 -3 10 1 10 9 0 9 -4 16 -10 16 -5 0
-10 -4 -10 -9z"/>
</g>
<g>
<path d="M2747 3264 c-4 -4 -7 -25 -7 -46 0 -49 23 -47 28 2 3 32 -8 56 -21
44z"/>
</g>
<g>
<path d="M3037 3263 c-14 -13 -7 -84 8 -90 24 -9 28 2 21 52 -7 43 -15 53 -29
38z"/>
</g>
<g>
<path d="M2595 3188 c-4 -10 -4 -26 0 -35 8 -17 8 -17 12 0 3 9 3 25 0 35 -4
16 -4 16 -12 0z"/>
</g>
<g>
<path d="M2370 3103 c-27 -54 -35 -153 -12 -160 8 -3 12 7 12 34 0 51 16 103
36 117 17 13 16 47 -2 53 -5 2 -21 -18 -34 -44z"/>
</g>
<g>
<path d="M2576 3101 c-4 -6 -5 -60 -2 -119 4 -82 8 -108 19 -110 21 -4 26 19
15 74 -5 27 -9 66 -9 87 0 48 -13 85 -23 68z"/>
</g>
<g>
<path d="M4448 2968 c-16 -5 -28 -14 -28 -19 0 -12 1 -12 46 11 41 20 29 26
-18 8z"/>
</g>
<g>
<path d="M3998 2937 c-61 -28 -63 -43 -2 -17 25 11 52 20 60 20 8 0 14 5 14
10 0 15 -19 11 -72 -13z"/>
</g>
<g>
<path d="M4840 2880 c0 -5 5 -10 10 -10 6 0 10 5 10 10 0 6 -4 10 -10 10 -5 0
-10 -4 -10 -10z"/>
</g>
<g>
<path d="M3731 2076 c-9 -11 -9 -16 0 -21 10 -7 28 10 29 28 0 12 -17 8 -29
-7z"/>
</g>
<g>
<path d="M7573 1894 c-15 -14 -38 -30 -51 -35 -30 -12 -21 -25 23 -33 19 -4
35 -11 35 -15 0 -9 -23 -14 -112 -27 -42 -5 -59 -20 -43 -36 7 -7 157 20 183
34 29 15 30 54 1 63 -21 7 -21 8 6 29 17 13 25 28 21 34 -11 19 -33 14 -63
-14z"/>
</g>
<g>
<path d="M7795 1909 c-75 -25 -79 -28 -61 -48 18 -20 21 -47 6 -56 -5 -3 -10
-13 -10 -21 0 -23 36 -16 54 12 24 36 61 30 61 -11 0 -27 3 -30 35 -33 28 -3
33 -1 23 9 -18 18 -16 77 2 95 24 25 17 40 -24 52 -44 14 -46 14 -86 1z m50
-39 c3 -6 -1 -13 -10 -16 -19 -8 -30 0 -20 15 8 14 22 14 30 1z"/>
</g>
<g>
<path d="M7973 1850 c-30 -12 -48 -47 -33 -65 9 -11 31 -13 96 -9 47 3 94 2
104 -1 20 -7 27 -39 11 -50 -25 -15 -131 -27 -271 -30 -150 -4 -265 -19 -276
-36 -2 -4 6 -15 19 -24 20 -12 37 -14 98 -6 41 5 88 13 104 19 17 6 82 16 145
22 63 6 139 16 169 23 l55 12 17 59 c10 32 15 64 12 72 -6 16 -29 19 -38 4 -9
-15 -25 -12 -25 5 0 21 -39 19 -47 -2 -14 -39 -70 -47 -75 -10 -3 24 -30 32
-65 17z"/>
</g>
<g>
<path d="M8290 1754 c0 -17 22 -14 28 4 2 7 -3 12 -12 12 -9 0 -16 -7 -16 -16z"/>
</g>
<g>
<path d="M8023 983 c-37 -5 -45 -27 -10 -29 135 -8 173 -5 151 15 -11 11 -98
19 -141 14z"/>
</g>
<g>
<path d="M7920 924 c0 -10 7 -14 22 -12 32 5 35 28 4 28 -17 0 -26 -5 -26 -16z"/>
</g>
<g>
<path d="M6967 793 c-15 -15 -5 -44 18 -55 37 -17 52 2 30 36 -17 25 -35 33
-48 19z"/>
</g>
<g>
<path d="M6321 732 c-6 -2 -11 -10 -11 -18 0 -11 18 -14 84 -14 49 0 88 4 91
11 4 6 5 12 4 14 -6 4 -156 11 -168 7z"/>
</g>
<g>
<path d="M3770 691 c0 -14 27 -20 98 -22 65 -2 87 5 62 21 -20 13 -160 13
-160 1z"/>
</g>
<g>
<path d="M6227 674 c-17 -17 -3 -24 49 -24 40 0 55 4 52 13 -5 13 -89 22 -101
11z"/>
</g>
<g>
<path d="M2560 476 c0 -9 7 -16 16 -16 17 0 14 22 -4 28 -7 2 -12 -3 -12 -12z"/>
</g>
</g>
</svg>
