<?xml version="1.0" standalone="no"?>
<!DOCTYPE svg PUBLIC "-//W3C//DTD SVG 20010904//EN"
 "http://www.w3.org/TR/2001/REC-SVG-20010904/DTD/svg10.dtd">
<svg version="1.0" xmlns="http://www.w3.org/2000/svg"
 width="626.000000pt" height="1009.000000pt" viewBox="0 0 626.000000 1009.000000"
 preserveAspectRatio="xMidYMid meet">
<metadata>
Created by potrace 1.15, written by Peter Selinger 2001-2017
</metadata>
<g transform="translate(0.000000,1009.000000) scale(0.100000,-0.100000)"
fill="#000000" stroke="none">
<g>
<path d="M3840 9451 c-43 -7 -80 -30 -62 -37 14 -7 16 -30 2 -39 -6 -3 -15 6
-21 22 -10 27 -11 28 -25 8 -11 -14 -14 -32 -9 -59 l6 -39 -55 5 c-35 3 -57 1
-59 -6 -2 -7 -85 -12 -250 -14 -145 -2 -247 -7 -247 -13 0 -11 33 -12 195 -9
207 3 314 8 325 15 5 3 10 1 10 -4 0 -6 7 -11 16 -11 8 0 13 4 10 9 -9 14 74
18 86 4 8 -9 0 -14 -30 -19 -34 -5 -53 -19 -116 -86 -62 -65 -79 -89 -92 -136
-23 -77 -21 -148 5 -197 12 -21 21 -45 21 -52 0 -7 4 -13 9 -13 5 0 14 -14 21
-30 16 -38 76 -100 98 -100 8 0 23 -6 31 -14 9 -8 38 -18 65 -23 l49 -8 -1
-179 c-1 -98 -3 -181 -6 -184 -13 -12 -5 -29 19 -40 32 -15 105 -16 105 -2 0
6 8 10 19 10 29 0 46 -73 29 -125 -11 -34 -19 -41 -57 -52 -36 -10 -49 -10
-77 2 -39 16 -49 44 -48 123 1 45 -1 52 -17 52 -11 0 -19 -7 -19 -15 0 -10
-11 -15 -35 -16 -19 -1 -41 -2 -47 -3 -7 -1 -14 9 -16 21 -4 25 -32 38 -62 28
-14 -4 -20 -15 -20 -36 0 -22 -6 -32 -25 -39 -21 -8 -25 -16 -25 -48 0 -26 7
-45 20 -57 11 -10 20 -26 20 -36 0 -23 43 -35 75 -21 13 6 26 23 30 40 9 44
53 39 102 -11 l37 -38 -2 -519 c-2 -497 -6 -570 -32 -570 -5 0 -17 -15 -25
-32 -58 -121 -85 -158 -117 -158 -22 0 -28 6 -33 31 -8 35 -89 123 -107 117
-20 -7 -21 -28 -1 -35 46 -18 84 -89 88 -162 2 -48 5 -58 26 -68 13 -7 40 -13
59 -13 19 0 47 -7 63 -15 15 -8 38 -21 52 -29 24 -13 25 -14 5 -19 -26 -7 -26
-27 0 -34 13 -3 20 -14 20 -29 l0 -23 -45 30 c-45 31 -75 35 -83 11 -2 -7 13
-19 35 -28 76 -32 93 -50 93 -102 0 -56 -5 -64 -50 -87 -106 -54 -187 -165
-177 -241 3 -19 1 -35 -4 -35 -5 -1 -12 -2 -16 -3 -12 -2 -154 -47 -198 -62
-23 -8 -48 -14 -57 -14 -9 0 -65 -16 -124 -35 -118 -37 -184 -50 -184 -35 0 6
7 10 16 10 8 0 12 5 9 10 -4 7 -24 8 -51 4 -37 -5 -44 -4 -44 10 0 16 14 24
99 56 47 17 66 40 34 40 -10 0 -29 -7 -42 -17 -19 -13 -28 -14 -42 -5 -25 16
-29 15 -29 -8 0 -11 -4 -20 -10 -20 -5 0 -10 11 -10 24 0 35 -20 43 -22 9 0
-15 -1 -34 -1 -40 1 -7 -8 -13 -18 -13 -16 0 -19 8 -19 55 0 65 -17 74 -22 13
-2 -25 -7 -41 -13 -38 -12 6 -11 64 0 100 7 22 7 23 -7 12 -9 -7 -19 -24 -22
-38 -4 -14 -11 -22 -16 -19 -16 10 -12 28 13 55 40 44 57 78 57 113 0 45 -7
50 -40 25 -28 -20 -55 -21 -102 -3 -14 6 -18 2 -18 -14 0 -12 -11 -33 -25 -46
-29 -26 -22 -37 13 -24 13 5 22 17 22 29 0 26 16 26 23 -1 8 -31 -2 -51 -24
-44 -23 8 -24 -1 -4 -21 18 -19 21 -41 3 -27 -12 9 -24 9 -69 5 -27 -3 -32
-33 -10 -63 21 -29 19 -39 -11 -39 -25 0 -23 -18 4 -22 37 -5 31 -25 -11 -32
-29 -4 -44 -14 -59 -38 -22 -34 -20 -53 4 -44 8 3 14 1 14 -5 0 -5 -7 -12 -15
-15 -8 -4 -15 -11 -15 -18 0 -6 -16 -27 -35 -46 -45 -45 -144 -196 -152 -232
-3 -15 -12 -33 -19 -39 -18 -15 -18 -10 7 63 25 75 47 119 105 210 25 39 39
68 32 66 -18 -6 -110 -143 -132 -198 -10 -25 -27 -63 -36 -85 -10 -22 -21 -67
-25 -100 -9 -70 -27 -158 -49 -235 -9 -30 -19 -70 -22 -88 -4 -18 -11 -35 -15
-38 -5 -3 -9 -14 -9 -25 0 -10 -9 -36 -20 -56 -11 -21 -20 -44 -20 -51 0 -7
-9 -31 -19 -53 -23 -47 -37 -119 -23 -119 17 0 30 23 47 85 9 33 23 74 30 90
13 28 14 23 13 -68 -2 -111 6 -130 47 -103 14 9 30 27 34 40 5 12 23 44 40 72
17 27 36 66 42 86 5 21 14 38 19 38 12 0 12 -10 0 -85 -6 -35 -6 -63 -1 -68 6
-6 12 9 16 37 6 39 10 45 22 34 8 -6 21 -24 29 -40 8 -15 18 -28 22 -28 4 0 7
49 7 109 0 93 3 112 19 130 14 15 20 38 21 83 3 77 4 83 10 76 3 -2 8 -76 11
-164 4 -115 10 -163 20 -174 22 -23 40 1 26 37 -12 31 -20 182 -10 199 4 5 7
63 7 128 0 109 3 137 16 125 5 -6 28 -178 30 -234 3 -60 4 -65 14 -65 17 0 21
34 11 94 -10 64 -2 86 29 86 10 0 27 -11 39 -25 21 -25 52 -34 52 -16 0 5 -13
20 -28 33 -31 26 -62 81 -62 110 0 10 -7 30 -16 43 -26 40 -47 236 -35 327 18
135 83 214 109 131 11 -34 10 -40 -8 -55 -26 -21 -25 -56 1 -84 20 -22 21 -26
8 -66 -18 -58 -16 -165 5 -268 22 -106 40 -147 105 -234 28 -38 51 -73 51 -78
0 -12 -41 -47 -55 -48 -16 0 -98 -79 -166 -160 -85 -101 -200 -215 -236 -234
-30 -15 -89 -39 -198 -81 -58 -22 -60 -24 -57 -57 1 -18 5 -40 9 -48 11 -27
13 -50 4 -50 -6 0 -13 5 -16 10 -3 6 -14 10 -23 10 -54 1 -216 101 -246 152
-39 64 -190 196 -245 213 -13 4 -45 20 -70 36 -99 61 -102 62 -118 46 -26 -26
-7 -72 48 -119 54 -46 62 -62 24 -52 -38 9 -85 -14 -85 -41 0 -13 6 -26 13
-28 8 -4 4 -12 -12 -25 -15 -12 -22 -25 -18 -36 8 -21 47 -21 47 0 0 27 33 11
44 -22 22 -62 96 -134 176 -171 82 -38 110 -59 110 -80 0 -19 -129 -18 -156 2
-22 17 -50 19 -59 5 -4 -6 -1 -25 5 -43 25 -75 120 -138 227 -152 32 -4 70
-13 85 -21 15 -8 40 -14 57 -14 16 0 51 -9 77 -20 70 -30 147 -28 207 5 26 15
47 24 47 21 0 -4 14 1 31 10 30 15 32 15 68 -14 21 -17 56 -36 78 -42 37 -11
46 -10 90 11 26 12 66 43 88 68 102 115 118 127 231 169 28 10 76 37 107 60
31 23 60 42 66 42 13 0 24 -74 15 -102 -15 -47 -144 -225 -210 -290 -160 -157
-166 -164 -179 -214 -11 -45 -11 -49 9 -66 l21 -18 -25 -20 c-14 -11 -41 -33
-60 -50 -19 -16 -55 -43 -80 -59 -25 -17 -67 -56 -95 -88 -27 -32 -83 -92
-125 -133 -74 -73 -120 -133 -150 -195 -18 -36 -51 -75 -65 -75 -6 0 -22 -18
-35 -40 -14 -22 -34 -43 -45 -46 -38 -13 -115 -111 -115 -148 0 -12 -7 -34
-16 -51 -31 -58 -34 -85 -19 -169 17 -94 31 -137 62 -186 12 -19 31 -55 42
-80 32 -69 78 -139 127 -193 24 -27 44 -53 44 -58 0 -5 25 -35 55 -66 30 -32
60 -71 67 -88 6 -16 14 -32 17 -35 3 -3 24 -25 45 -49 50 -57 133 -126 221
-182 97 -64 167 -128 308 -282 46 -51 64 -79 105 -164 15 -31 25 -41 36 -37 9
3 13 11 9 17 -4 7 0 8 11 4 41 -16 66 -18 104 -8 22 6 49 8 62 3 36 -14 3 -30
-95 -47 -48 -9 -92 -18 -96 -21 -13 -8 -11 -29 7 -87 19 -63 18 -60 52 -121
36 -64 53 -75 89 -55 16 9 48 19 71 23 l44 7 -7 -33 c-11 -50 -30 -65 -191
-148 -71 -37 -152 -112 -161 -149 -3 -14 -10 -31 -15 -37 -5 -8 0 -29 14 -59
19 -40 34 -53 87 -82 59 -32 69 -34 130 -30 127 10 295 48 362 82 15 8 38 15
51 15 14 0 30 11 43 30 11 16 31 35 45 42 53 28 121 124 150 215 8 27 21 45
34 49 33 10 56 35 56 61 0 35 37 48 89 31 65 -22 94 -13 132 40 18 26 45 59
61 75 15 15 28 36 28 46 0 12 9 21 25 25 20 5 25 12 25 39 -1 63 -18 121 -39
136 -12 7 -21 21 -21 31 0 69 -196 250 -256 236 -17 -5 -23 1 -35 37 -20 62
-105 143 -194 188 -26 13 -60 36 -74 51 -78 83 -100 101 -136 120 -22 11 -58
37 -81 58 -37 34 -147 110 -160 110 -18 0 -49 48 -79 123 -36 90 -42 126 -24
144 7 7 6 26 -5 65 -17 56 -70 124 -116 148 l-25 13 26 11 c46 19 78 60 89
113 9 43 8 56 -9 97 -19 44 -19 47 -3 53 9 3 41 16 71 29 29 13 59 24 65 24 6
0 44 20 84 45 40 25 74 45 77 45 2 0 26 13 54 29 27 16 52 27 55 24 2 -3 16 7
29 21 23 25 44 36 32 17 -3 -5 -6 -32 -6 -58 -2 -62 25 -115 85 -170 25 -23
46 -45 46 -49 0 -4 6 -15 14 -23 7 -9 23 -58 35 -109 26 -111 49 -172 90 -240
17 -27 31 -59 31 -70 0 -11 5 -24 10 -27 6 -4 10 -12 9 -18 -7 -41 58 -185
115 -253 8 -11 34 -43 56 -72 23 -28 48 -52 56 -52 8 0 36 -19 62 -43 58 -52
71 -59 147 -81 75 -23 325 -143 345 -166 42 -49 149 -81 265 -78 33 1 70 -4
82 -10 12 -7 31 -12 42 -12 26 0 26 -8 2 -34 -19 -20 -26 -48 -23 -92 2 -14
17 -28 52 -44 39 -18 52 -31 61 -57 13 -39 52 -64 71 -45 14 14 52 16 43 3 -3
-6 -10 -47 -15 -93 -18 -152 -14 -144 -81 -183 -33 -19 -66 -35 -74 -35 -8 0
-34 -20 -58 -45 -25 -25 -52 -45 -61 -45 -24 0 -41 -39 -23 -53 11 -10 13 -25
7 -72 l-7 -60 41 -37 c37 -32 49 -37 114 -43 40 -4 94 -4 120 0 26 4 76 8 112
9 53 2 77 9 135 40 126 67 174 111 224 203 29 52 61 162 61 207 0 14 9 48 20
76 14 37 20 74 20 135 l0 85 28 0 c15 1 37 6 49 13 33 18 97 110 147 212 39
77 44 95 37 125 -8 38 -31 80 -43 80 -5 0 -8 9 -8 20 0 13 -7 20 -20 20 -12 0
-25 13 -37 37 -16 36 -36 63 -46 63 -2 0 -21 15 -42 34 -39 36 -63 48 -131 66
l-42 10 10 40 c25 97 -15 124 -171 117 -58 -2 -119 -10 -135 -16 -19 -7 -32
-8 -40 -2 -7 6 -30 13 -52 17 -33 5 -57 22 -130 90 -49 46 -93 84 -98 84 -6 0
-55 44 -111 98 -56 53 -121 109 -146 124 -56 33 -118 46 -130 27 -6 -11 -11
-11 -20 -2 -9 9 -9 16 1 27 10 13 9 17 -4 22 -10 4 -15 13 -12 21 10 25 -26
28 -46 3 -28 -35 -31 -19 -7 41 18 46 20 68 17 151 -3 53 -2 101 2 105 4 4 11
94 14 198 7 207 18 332 37 440 9 51 9 70 0 73 -12 4 -15 32 -3 32 10 0 72 -57
72 -67 1 -4 30 -30 65 -58 55 -42 67 -58 87 -110 30 -81 72 -141 104 -149 15
-4 29 -4 33 -1 3 4 6 48 6 99 0 71 -4 98 -18 119 -9 14 -17 31 -17 37 0 21 50
-25 82 -75 48 -76 78 -105 109 -105 31 0 40 21 32 80 l-6 40 34 -2 c34 -3 34
-3 37 44 3 41 -2 54 -44 115 -25 37 -62 85 -80 107 -62 70 -37 77 39 11 55
-48 77 -54 97 -30 11 13 10 24 -1 58 -18 56 -66 101 -124 116 -46 11 -116 64
-230 173 -22 20 -55 45 -73 55 -33 18 -33 19 -27 73 3 30 1 62 -4 70 -8 11 -2
23 21 47 l32 33 -18 172 c-25 242 -38 302 -97 424 -16 34 -29 69 -29 77 0 31
-75 173 -119 227 -25 30 -50 61 -56 69 -5 8 -33 37 -61 65 -63 63 -80 105 -94
226 -19 173 -21 183 -62 237 -22 28 -24 41 -22 120 1 76 -1 93 -22 128 -22 38
-81 95 -132 126 -14 8 -22 22 -20 34 3 23 -49 135 -63 135 -5 0 -6 25 -3 58 6
58 6 59 -27 83 -19 13 -35 23 -37 21 -1 -1 -8 1 -16 5 -10 6 -14 65 -18 271
l-5 262 38 40 c22 22 57 76 78 120 21 44 43 86 48 93 11 13 38 66 69 132 11
22 22 42 25 45 3 3 12 22 18 42 7 21 30 63 52 95 21 32 39 64 39 71 0 20 41
112 50 112 4 0 13 15 21 33 7 17 24 50 38 72 29 46 50 84 116 210 51 99 58
111 96 170 14 22 33 63 44 90 10 28 21 52 24 55 16 13 71 100 71 111 0 8 11
36 24 64 35 73 56 122 56 131 0 4 12 31 27 59 21 43 33 55 65 66 32 10 40 18
48 51 12 43 4 41 167 40 46 -1 106 5 135 13 29 7 68 13 87 12 31 -2 35 1 47
37 18 49 4 107 -31 135 -23 17 -38 19 -143 15 -64 -2 -146 -5 -181 -8 -58 -4
-68 -2 -94 20 -37 31 -50 30 -80 -6 -17 -20 -35 -30 -54 -30 -15 0 -56 -7 -90
-15 -74 -17 -285 -36 -445 -39 -65 -1 -120 -4 -123 -7 -8 -8 303 -19 417 -14
53 2 106 9 118 15 29 15 46 -1 55 -51 l7 -36 -74 -8 c-40 -4 -160 -9 -267 -11
-106 -2 -201 -6 -211 -9 -14 -5 -22 4 -36 42 -15 43 -65 103 -85 103 -4 0 -14
6 -21 13 -20 17 -69 46 -100 58 -36 14 -40 53 -5 45 12 -3 17 -4 12 -1 -6 3
-9 23 -7 45 4 35 0 44 -24 65 -16 14 -36 25 -44 26 -8 0 -35 2 -60 3 -25 2
-61 1 -80 -3z m90 -41 c0 -5 10 -11 23 -11 l22 -2 -22 -4 c-16 -3 -23 -13 -25
-36 -3 -30 -5 -32 -43 -32 -37 0 -40 2 -46 34 -4 19 -5 40 -2 48 6 15 93 18
93 3z m-126 -102 c-5 -8 -34 -11 -34 -4 0 2 -3 11 -6 20 -5 13 -2 13 19 3 14
-6 23 -15 21 -19z m181 -48 c20 -11 42 -20 51 -20 32 0 142 -75 163 -111 27
-47 35 -106 22 -155 -7 -25 -7 -40 -1 -42 16 -6 12 -39 -12 -110 -28 -80 -107
-167 -163 -178 -19 -3 -39 -12 -46 -20 -7 -9 -31 -14 -61 -14 -33 0 -48 -4
-47 -12 3 -26 -1 -39 -11 -33 -6 4 -9 13 -8 21 2 10 -18 23 -62 40 -36 14 -74
30 -85 36 -11 7 -32 18 -47 25 -33 17 -60 54 -110 150 -68 130 -45 226 81 344
63 60 75 67 118 71 26 3 54 0 61 -5 8 -6 12 -6 12 2 0 6 12 11 28 12 15 0 36
4 47 9 29 12 31 12 70 -10z m1189 -102 c5 -22 3 -26 -9 -22 -18 7 -30 48 -20
65 9 14 19 -1 29 -43z m-264 -15 c0 -38 -5 -62 -17 -75 -22 -25 -35 -23 -28 5
3 12 2 43 -4 67 -11 52 -8 60 25 60 23 0 24 -3 24 -57z m50 37 c0 -5 -2 -10
-4 -10 -3 0 -8 5 -11 10 -3 6 -1 10 4 10 6 0 11 -4 11 -10z m270 -16 c0 -8 -4
-12 -10 -9 -5 3 -10 10 -10 16 0 5 5 9 10 9 6 0 10 -7 10 -16z m-260 -41 c0
-5 -5 -15 -10 -23 -8 -12 -10 -11 -10 8 0 12 5 22 10 22 6 0 10 -3 10 -7z
m465 -33 c3 -5 -1 -10 -10 -10 -9 0 -13 5 -10 10 3 6 8 10 10 10 2 0 7 -4 10
-10z m-597 -56 c12 -8 27 -12 32 -9 6 3 15 -6 21 -22 5 -15 15 -31 22 -35 13
-8 -92 -228 -158 -328 -24 -36 -80 -141 -126 -235 -45 -93 -94 -188 -107 -210
-22 -35 -128 -236 -200 -380 -14 -27 -33 -59 -42 -70 -24 -27 -180 -332 -181
-353 -1 -23 -71 -155 -84 -159 -11 -3 -14 55 -17 464 l-3 283 23 15 c24 18 28
45 11 77 -10 19 -9 20 10 15 11 -3 21 -1 21 4 0 4 19 8 43 7 38 0 42 -3 45
-27 5 -40 10 -112 11 -148 1 -23 6 -33 16 -33 13 0 15 15 11 105 -2 58 -1 105
4 105 5 0 10 -4 12 -9 3 -10 21 -14 55 -12 14 1 28 12 36 29 35 72 -31 114
-89 55 -19 -20 -25 -23 -20 -10 4 13 0 20 -13 24 -27 7 -32 25 -21 85 5 29 14
100 20 156 5 57 16 118 24 135 8 18 20 75 26 127 7 52 20 127 31 165 10 39 20
94 23 123 3 30 7 57 10 60 10 9 177 9 183 -1 3 -4 11 -6 19 -3 8 3 56 6 107 7
51 1 110 5 132 9 64 12 89 11 113 -6z m122 -30 c0 -14 -12 -19 -23 -8 -9 9 4
35 14 28 5 -3 9 -12 9 -20z m-753 -286 c-3 -13 -9 -48 -13 -78 -4 -30 -10 -59
-14 -65 -13 -18 -29 -99 -35 -175 -3 -41 -11 -109 -17 -151 -11 -69 -15 -77
-39 -86 -31 -12 -49 -1 -49 29 0 11 -7 18 -19 18 -27 0 -31 25 -31 198 0 171
11 212 54 212 25 0 105 60 132 99 20 28 38 27 31 -1z m-235 -363 c-2 -60 -7
-114 -12 -118 -4 -5 -26 -11 -48 -13 -67 -8 -72 4 -72 172 0 135 1 144 19 144
11 0 21 -4 23 -9 6 -19 56 1 69 27 13 26 13 25 19 -33 3 -33 4 -109 2 -170z
m-327 -155 c3 -6 -4 -10 -17 -10 -18 0 -20 2 -8 10 19 12 18 12 25 0z m609
-46 c23 -9 20 -24 -4 -24 -11 0 -20 7 -20 15 0 17 2 18 24 9z m-490 -39 c15
-11 17 -18 8 -27 -8 -8 -15 -8 -25 0 -7 6 -22 9 -34 6 -22 -6 -38 9 -28 26 9
15 57 12 79 -5z m-170 -40 c-4 -8 -10 -12 -15 -9 -14 8 -10 24 6 24 9 0 12 -6
9 -15z m59 -2 c-7 -2 -19 -2 -25 0 -7 3 -2 5 12 5 14 0 19 -2 13 -5z m318
-140 c1 -27 0 -52 -1 -58 -5 -25 7 -928 15 -1112 l7 -152 -40 -25 c-36 -23
-82 -92 -82 -124 0 -38 74 -112 113 -112 14 0 17 -9 17 -58 0 -53 -2 -59 -29
-75 -43 -25 -86 -22 -110 9 -18 23 -20 37 -17 114 2 49 7 94 11 99 3 6 4 15 1
20 -3 4 -2 21 3 37 5 17 4 40 -1 54 -11 30 -15 1400 -4 1418 4 7 30 12 62 12
l54 0 1 -47z m-147 -1223 c-2 -25 -3 -48 -3 -52 -1 -9 -59 8 -77 23 -12 10 -7
24 28 90 l43 79 6 -47 c3 -27 5 -68 3 -93z m-149 -50 c3 -5 -3 -10 -14 -10
-12 0 -21 5 -21 10 0 6 6 10 14 10 8 0 18 -4 21 -10z m383 -116 c22 -14 23
-20 17 -61 -7 -50 -42 -113 -63 -113 -36 0 -84 31 -98 65 -13 31 -13 39 1 66
28 53 53 72 88 65 17 -4 42 -13 55 -22z m57 -193 c2 -24 0 -39 -6 -36 -5 4 -9
15 -9 26 0 10 -6 19 -14 19 -22 0 -28 17 -15 41 10 19 13 20 25 7 8 -8 17 -34
19 -57z m-88 -23 c-3 -7 -5 -2 -5 12 0 14 2 19 5 13 2 -7 2 -19 0 -25z m33
-47 l32 -29 -18 -33 c-9 -19 -26 -41 -38 -49 -53 -38 -194 -52 -235 -24 -16
12 -20 19 -12 27 6 6 11 21 11 34 0 30 16 30 24 -1 5 -21 14 -26 60 -31 60 -8
79 -4 115 24 21 16 24 26 22 65 -1 25 0 46 3 46 3 0 19 -13 36 -29z m125 -31
c29 -11 132 -113 118 -117 -6 -2 -35 8 -63 22 -32 16 -64 25 -83 23 -30 -3
-32 -1 -29 29 2 17 -1 34 -7 38 -6 3 -11 11 -11 16 0 9 33 4 75 -11z m-420
-69 c-6 -20 13 -45 51 -67 18 -11 18 -12 0 -52 -10 -22 -15 -45 -12 -51 8 -12
-41 -87 -62 -96 -19 -7 -42 11 -86 68 -38 49 -38 50 -25 89 13 40 73 108 96
108 7 0 13 5 13 10 0 6 7 10 16 10 11 0 13 -6 9 -19z m310 -71 c4 -6 15 -6 32
1 18 6 37 6 59 -1 19 -6 38 -9 43 -6 15 9 70 -61 75 -96 3 -18 7 -51 8 -73 3
-33 7 -41 26 -43 26 -4 62 -67 62 -109 0 -16 5 -44 10 -63 6 -19 15 -72 20
-116 5 -53 17 -97 32 -124 13 -24 27 -51 33 -61 5 -11 14 -19 20 -19 6 0 17
-10 25 -22 8 -12 31 -40 50 -62 81 -93 93 -115 181 -340 44 -114 49 -134 73
-301 8 -55 17 -107 21 -116 4 -11 -2 -22 -16 -33 -13 -9 -32 -35 -44 -58 -23
-49 -52 -66 -127 -75 -29 -3 -64 -11 -78 -18 -14 -7 -61 -30 -105 -51 -44 -21
-92 -46 -107 -56 -35 -24 -57 -90 -38 -113 18 -21 41 -19 105 11 54 26 55 27
55 68 0 31 3 37 10 26 12 -18 5 -75 -20 -155 -10 -33 -22 -82 -26 -110 -5 -39
-17 -61 -52 -102 -51 -61 -79 -72 -33 -14 63 80 58 140 -6 65 -98 -115 -178
-178 -193 -154 -5 8 -15 10 -26 5 -13 -5 -15 -9 -6 -12 6 -3 12 -8 12 -13 0
-15 -105 -40 -165 -40 -41 0 -55 -3 -52 -12 5 -16 230 -13 235 2 2 6 9 10 15
10 7 0 23 9 37 20 15 11 41 20 63 20 47 0 65 9 115 60 21 22 43 40 48 40 16 0
3 -132 -17 -176 -13 -29 -28 -45 -51 -53 -18 -7 -46 -19 -63 -26 -16 -8 -43
-17 -60 -21 -16 -4 -59 -19 -95 -34 -98 -42 -280 -72 -355 -60 -137 23 -193
29 -245 30 -30 0 -72 6 -95 14 -54 19 -172 36 -248 36 -78 1 -247 24 -307 42
-71 21 -134 58 -122 70 8 8 8 17 1 30 -16 30 6 108 31 108 4 0 10 -28 13 -63
7 -75 15 -97 33 -97 17 0 17 0 -1 45 -20 47 -17 140 5 140 10 0 17 -16 22 -50
9 -66 34 -125 53 -125 20 0 19 12 -4 41 -11 15 -24 56 -31 103 -11 71 -10 79
6 97 17 19 19 19 25 2 4 -10 8 -35 8 -55 1 -49 49 -168 67 -168 18 0 18 0 -10
51 -34 60 -44 124 -21 133 26 10 31 3 59 -88 14 -47 30 -88 35 -91 15 -9 24
15 12 29 -7 8 -25 55 -42 106 -23 71 -27 99 -21 124 5 17 7 37 5 44 -7 19 15
14 25 -5 5 -10 12 -36 15 -58 12 -76 98 -252 118 -239 16 9 10 30 -16 54 -13
12 -30 38 -36 57 -6 19 -17 47 -25 61 -18 34 -18 93 -1 116 12 16 15 11 31
-48 20 -72 77 -199 95 -210 6 -4 16 -4 21 -1 7 4 -1 20 -18 40 -28 31 -60 106
-96 222 -20 65 -20 93 -1 93 10 0 15 -10 15 -32 1 -37 137 -309 158 -316 19
-6 14 17 -10 51 -26 36 -78 135 -78 148 0 5 6 9 14 9 8 0 26 -25 40 -55 25
-55 83 -125 105 -125 19 0 12 14 -27 51 -36 34 -79 105 -69 115 10 10 59 -9
64 -25 15 -50 39 -93 56 -102 28 -15 33 -2 10 24 -23 25 -43 60 -43 76 0 21
39 11 45 -11 10 -34 39 -88 47 -88 14 0 8 24 -12 55 -25 38 -25 55 -1 55 12 0
21 -9 25 -25 7 -26 46 -55 46 -34 0 7 -8 21 -17 31 -21 23 -11 32 52 49 80 22
147 70 181 132 23 42 11 44 -38 5 -67 -54 -119 -81 -131 -69 -6 6 -19 11 -28
11 -18 0 -44 29 -115 124 -28 38 -33 51 -22 57 27 18 48 8 79 -38 46 -66 83
-103 105 -103 14 0 9 9 -22 43 -75 78 -105 137 -69 137 8 0 15 -3 15 -7 0 -11
109 -123 119 -123 22 0 13 16 -40 70 -51 53 -58 64 -55 95 4 39 21 65 43 65 8
0 13 7 11 18 -2 13 -11 16 -36 14 -17 -2 -32 1 -32 6 0 5 -9 12 -21 15 -11 3
-25 19 -32 36 -6 17 -15 31 -19 31 -16 0 -7 -34 17 -66 30 -39 31 -44 7 -44
-24 0 -45 24 -71 83 -12 26 -26 45 -31 42 -6 -4 -4 -18 6 -36 8 -17 13 -33 10
-36 -11 -11 -34 18 -55 67 -12 28 -26 50 -31 50 -15 0 -12 -17 10 -62 27 -56
25 -66 -6 -37 -31 28 -77 116 -69 129 3 5 19 7 35 3 38 -7 41 17 5 45 -14 11
-25 29 -25 41 0 17 6 21 28 19 33 -2 72 10 72 23 0 5 -15 15 -34 23 -20 8 -42
28 -51 45 -8 17 -20 31 -25 31 -13 0 -13 -6 6 -41 8 -17 13 -34 9 -37 -8 -9
-57 49 -77 91 -10 20 -22 37 -28 37 -14 0 -12 -12 6 -38 9 -13 13 -26 10 -29
-10 -11 -34 17 -55 67 -12 28 -26 50 -31 50 -14 0 -13 -8 12 -59 12 -25 34
-58 50 -72 32 -30 37 -49 9 -42 -44 11 -162 190 -153 231 4 17 -17 15 -24 -2
-7 -17 38 -107 77 -157 16 -20 29 -42 29 -48 0 -19 -19 -12 -31 12 -6 12 -24
36 -39 52 -50 56 -96 206 -60 196 8 -2 26 -5 40 -5 15 -1 28 -9 34 -21 8 -19
9 -19 19 5 7 14 17 31 24 38 7 7 13 18 13 23 0 5 17 6 40 3 22 -4 40 -4 40 -1
0 16 -78 81 -99 81 -35 1 -40 26 -4 26 45 0 72 -11 78 -31 4 -10 13 -19 21
-19 16 0 19 16 4 25 -5 3 -10 10 -10 16 0 13 37 11 46 -2 4 -8 9 -8 17 0 7 7
5 16 -7 30 -19 21 -21 21 86 46 22 6 27 13 30 48 3 23 3 44 2 46 -2 2 -15 -6
-30 -18 -15 -11 -35 -21 -45 -21 -10 0 -20 -4 -23 -9 -8 -12 -57 -1 -63 15 -9
24 -24 15 -21 -12 4 -41 -19 -40 -33 0 -16 45 -32 47 -27 4 3 -32 0 -34 -31
-29 -6 0 -11 15 -13 33 -2 17 -9 34 -17 36 -10 3 -12 -2 -7 -22 9 -35 -11 -34
-25 1 -15 39 -5 53 33 47 25 -4 40 1 60 18 58 50 70 59 94 68 24 10 42 36 31
47 -3 3 -21 -4 -39 -15 -18 -11 -50 -25 -71 -30 -35 -10 -37 -9 -43 15 -7 24
-8 25 -20 8 -13 -17 -14 -16 -24 9 -5 15 -10 36 -10 47 0 11 -4 17 -10 14 -5
-3 -10 -22 -10 -41 0 -24 -4 -34 -12 -32 -8 3 -15 31 -18 74 -6 73 -17 63 -24
-21 -2 -22 -4 -42 -5 -44 -1 -2 -8 3 -17 10 -13 10 -15 28 -12 86 2 40 0 73
-4 73 -11 0 -30 -110 -23 -137 8 -33 -17 -26 -26 8 -15 52 -9 106 14 140 31
46 60 58 153 63 44 3 99 12 124 21 62 23 193 54 262 61 47 6 59 4 77 -13 20
-19 21 -25 12 -82 -12 -74 -1 -149 35 -229 13 -30 24 -60 24 -67 0 -12 41 -35
61 -35 6 0 23 -9 38 -19 15 -11 47 -27 72 -37 24 -9 54 -28 67 -41 13 -13 37
-26 53 -30 16 -3 29 -9 29 -14 0 -5 7 -9 15 -9 11 0 15 -12 15 -51 0 -60 -32
-123 -72 -142 -47 -20 -25 -47 23 -29 24 10 89 118 89 149 0 28 25 6 32 -28
28 -119 29 -146 7 -203 -11 -31 -23 -56 -27 -56 -4 0 -18 -16 -31 -35 -13 -19
-39 -44 -57 -56 -63 -39 -29 -55 41 -19 22 11 47 17 57 14 12 -4 31 5 54 25
19 17 38 31 43 31 14 0 38 -33 81 -115 23 -44 46 -84 50 -90 13 -16 34 -134
36 -200 5 -132 14 -218 24 -230 18 -22 50 -26 50 -5 0 10 -7 20 -15 24 -20 7
-20 67 1 146 12 50 13 68 4 90 -7 16 -8 34 -4 41 9 16 12 299 3 299 -12 0 -19
-44 -20 -130 l-1 -85 -12 55 c-14 63 -12 140 7 258 8 46 10 85 5 88 -4 3 -10
-1 -12 -8 -14 -41 -36 -162 -36 -193 0 -25 -4 -35 -12 -32 -26 8 2 164 53 305
21 58 23 72 11 72 -15 0 -61 -112 -77 -187 -7 -33 -25 -56 -25 -31 0 7 7 42
15 77 15 63 33 103 68 150 21 29 22 55 1 85 -32 50 -83 41 -158 -28 -40 -38
-56 -39 -56 -3 0 11 -14 35 -30 52 l-31 32 21 25 c33 42 26 76 -25 124 -34 33
-62 49 -116 65 -71 22 -106 48 -134 100 -8 15 -11 30 -7 33 3 4 0 11 -8 16
-12 7 -12 12 -3 21 7 7 14 11 16 8 1 -2 18 -28 37 -56 37 -56 57 -70 73 -54
13 13 -10 61 -29 61 -25 0 -71 127 -65 178 2 20 -1 22 -24 16 -24 -6 -26 -5
-17 12 6 11 18 37 27 60 21 52 55 88 105 114 21 11 59 33 83 50 25 16 52 30
61 30 9 0 16 8 16 20 0 21 -27 28 -45 12 -17 -14 -65 -32 -65 -24 0 11 54 41
113 63 60 21 74 23 82 9z m-197 -42 c-18 -26 -38 -35 -38 -16 0 18 20 38 38
38 12 0 12 -3 0 -22z m-1189 -99 c25 -20 23 -36 -3 -26 -16 6 -42 47 -29 47 4
-1 19 -10 32 -21z m981 -49 c0 -20 -216 -95 -345 -120 -33 -7 -64 -15 -70 -19
-17 -12 -137 -37 -215 -46 -25 -3 -82 -10 -127 -16 -75 -11 -85 -10 -102 5
-12 11 -21 14 -26 7 -9 -16 -25 -13 -32 5 -9 25 15 34 92 34 91 0 283 34 351
61 16 6 61 20 99 30 39 9 115 31 170 48 55 17 107 31 116 31 9 0 22 7 29 15
12 14 16 13 37 -6 12 -13 23 -26 23 -29z m0 -52 c-1 -7 -8 -31 -16 -53 -26
-70 -37 -202 -22 -269 13 -62 68 -138 108 -151 11 -4 20 -11 20 -16 0 -18 -48
-9 -84 16 -20 14 -40 25 -44 25 -4 0 -23 25 -41 55 -31 51 -33 59 -32 145 1
100 7 135 27 165 8 11 14 26 14 34 0 19 39 61 57 61 7 0 13 -6 13 -12z m-1084
-163 c-3 -9 -11 -13 -16 -10 -8 5 -7 11 1 21 14 18 24 11 15 -11z m-11 -92
c-12 -105 -13 -158 -4 -174 10 -19 0 -209 -11 -209 -4 0 -8 30 -10 68 -1 37
-4 99 -6 137 -7 103 -6 127 7 158 6 15 9 30 6 34 -13 12 -34 -25 -41 -72 -4
-28 -25 -102 -46 -166 -21 -64 -41 -145 -45 -180 -8 -70 -45 -221 -69 -284
l-15 -40 5 65 c4 36 10 85 14 110 6 29 5 47 -2 52 -8 4 -8 14 0 35 5 15 18 60
27 98 9 39 21 79 27 89 20 37 72 182 99 276 17 60 17 60 46 60 25 0 25 -1 18
-57z m19 -49 c3 -8 2 -12 -4 -9 -6 3 -10 10 -10 16 0 14 7 11 14 -7z m226 -29
c0 -8 -4 -15 -10 -15 -5 0 -10 7 -10 15 0 8 5 15 10 15 6 0 10 -7 10 -15z
m-350 1 c0 -2 -13 -32 -30 -67 -21 -47 -29 -57 -29 -39 -1 31 34 110 49 110 5
0 10 -2 10 -4z m420 -162 c0 -8 -3 -14 -7 -14 -12 0 -43 33 -43 47 0 11 5 10
25 -3 14 -9 25 -23 25 -30z m-280 -4 c0 -5 -4 -10 -10 -10 -5 0 -10 5 -10 10
0 6 5 10 10 10 6 0 10 -4 10 -10z m337 -12 c21 -20 33 -78 16 -78 -19 0 -53
46 -53 72 0 34 6 35 37 6z m98 12 c11 -18 -26 -23 -43 -6 -15 15 -14 16 10 16
15 0 30 -5 33 -10z m-205 -14 c0 -2 -9 -6 -20 -9 -11 -3 -20 -1 -20 4 0 5 9 9
20 9 11 0 20 -2 20 -4z m1145 -27 c4 -6 5 -12 2 -15 -7 -7 -37 7 -37 17 0 13
27 11 35 -2z m-1145 -39 c0 -5 -4 -10 -10 -10 -5 0 -10 5 -10 10 0 6 5 10 10
10 6 0 10 -4 10 -10z m35 -37 c3 -16 17 -40 31 -54 30 -31 65 -99 58 -110 -3
-5 -12 -9 -20 -9 -8 0 -13 4 -10 8 3 5 -8 28 -25 50 -37 51 -78 130 -71 137
13 13 30 3 37 -22z m-367 -109 c-3 -42 -11 -80 -18 -87 -10 -10 -11 -5 -6 22
3 18 6 58 6 87 0 34 4 54 11 54 8 0 10 -23 7 -76z m-223 6 c-4 -17 -9 -29 -12
-26 -3 2 -2 19 2 36 4 17 9 29 12 26 3 -2 2 -19 -2 -36z m1854 -74 c-44 -68
-59 -80 -59 -47 0 22 92 140 97 124 2 -6 -15 -40 -38 -77z m-1817 33 c-7 -11
-15 -53 -17 -94 -2 -41 -6 -79 -9 -84 -4 -5 -1 -11 6 -13 20 -7 -9 -108 -43
-148 l-29 -34 -1 39 c-2 91 4 133 26 190 13 33 29 83 35 110 18 79 19 80 33
66 9 -9 9 -16 -1 -32z m687 27 c8 -10 8 -16 -3 -25 -11 -9 -15 -8 -20 5 -13
34 1 47 23 20z m31 -96 c0 -21 -24 -26 -49 -11 -10 7 -11 13 -2 30 10 17 15
19 31 11 11 -6 20 -20 20 -30z m1037 -74 c-4 -9 -11 -16 -17 -16 -11 0 -14 33
-3 44 11 10 26 -11 20 -28z m-1153 -68 c4 -49 14 -85 31 -114 25 -42 78 -94
96 -94 6 0 9 -12 7 -27 -2 -22 -9 -29 -29 -31 -21 -2 -35 7 -67 43 -23 26 -49
67 -58 91 -12 31 -20 42 -27 35 -7 -7 -1 -30 20 -71 22 -41 27 -60 18 -60 -18
0 -65 57 -65 80 0 21 -16 35 -24 22 -3 -5 -1 -24 4 -42 9 -33 84 -110 108
-110 6 0 12 -4 12 -10 0 -12 58 -37 89 -38 13 -1 25 -3 28 -6 8 -8 -26 -63
-42 -70 -43 -16 -118 1 -141 32 -13 16 -13 16 -14 -1 0 -10 5 -27 10 -38 9
-16 7 -19 -10 -19 -11 0 -20 6 -20 13 0 8 -9 22 -20 32 -11 10 -20 26 -20 37
0 18 -11 24 -23 12 -9 -10 9 -49 38 -80 26 -28 26 -29 7 -32 -11 -2 -35 4 -52
13 -36 18 -50 13 -34 -13 7 -11 37 -22 85 -30 100 -18 134 -17 175 7 39 23 42
20 15 -16 -11 -13 -18 -30 -15 -37 8 -21 -87 -66 -139 -66 -25 0 -49 5 -52 10
-7 12 -35 14 -35 2 0 -4 14 -13 30 -20 43 -19 37 -32 -14 -32 -29 0 -52 7 -70
21 -15 12 -30 18 -33 15 -4 -4 3 -13 15 -22 49 -34 14 -64 -38 -33 -18 11 -35
17 -38 14 -10 -10 23 -36 64 -50 49 -17 50 -29 1 -33 -25 -2 -50 4 -73 17 -32
19 -35 19 -32 4 2 -10 21 -24 45 -33 51 -19 61 -28 39 -36 -23 -9 -57 2 -100
31 -21 14 -41 23 -45 20 -7 -8 41 -49 78 -68 34 -17 38 -37 8 -37 -14 0 -27 4
-29 8 -5 13 -100 73 -106 68 -9 -10 20 -36 69 -63 51 -28 59 -40 33 -50 -19
-7 -124 42 -153 71 -56 57 -131 165 -145 209 -9 27 -16 72 -16 101 0 48 2 52
33 64 34 14 69 31 102 50 11 7 46 21 78 33 31 11 57 27 57 34 0 8 5 17 11 21
8 4 9 -5 5 -32 -7 -42 19 -99 49 -111 29 -11 28 6 -4 42 -19 22 -30 44 -27 53
3 9 8 31 12 47 8 35 31 64 125 161 38 39 69 74 69 78 0 14 39 58 72 83 54 40
64 33 72 -49z m-1349 -118 c21 -16 44 -30 51 -30 8 0 14 -3 14 -7 0 -5 19 -17
42 -28 26 -12 96 -73 173 -151 72 -72 139 -133 150 -136 53 -17 193 -75 217
-91 14 -10 29 -30 33 -44 3 -15 29 -61 56 -102 53 -81 61 -111 30 -111 -10 0
-43 -11 -73 -25 -64 -30 -118 -32 -195 -6 -32 11 -73 23 -91 26 -18 4 -45 13
-60 21 -15 8 -46 14 -70 14 -52 0 -130 37 -166 80 -30 37 -34 56 -8 44 30 -13
158 -17 181 -5 23 13 61 80 61 108 0 19 -57 100 -116 166 -19 20 -34 43 -34
51 0 21 -65 86 -86 86 -25 0 -164 132 -164 156 0 21 13 17 55 -16z m1613 -110
c40 -10 39 -8 47 -43 6 -21 4 -27 -9 -27 -9 0 -21 9 -28 20 -7 11 -21 20 -31
20 -21 0 -47 23 -47 40 0 8 7 9 18 5 9 -4 32 -11 50 -15z m-1524 -61 c17 -10
38 -19 47 -19 10 0 23 -16 33 -40 9 -22 35 -61 57 -85 27 -30 39 -50 35 -61
-4 -9 -2 -22 3 -28 5 -6 12 -27 16 -46 7 -33 7 -34 -11 -19 -11 8 -54 32 -96
53 -43 21 -78 43 -78 49 0 7 -18 25 -40 41 -28 21 -40 37 -40 54 0 22 3 24 35
19 72 -12 36 30 -40 47 -16 4 -39 14 -50 22 l-20 15 20 15 c25 18 84 10 129
-17z m1556 -62 c0 -10 7 -32 16 -48 8 -17 14 -35 12 -41 -5 -14 -108 105 -108
125 0 14 5 14 40 -1 25 -11 40 -24 40 -35z m1627 -87 c0 -22 -5 -30 -18 -30
-16 0 -16 2 -3 30 9 17 17 30 18 30 1 0 3 -13 3 -30z m-1912 10 c3 -5 1 -10
-4 -10 -6 0 -11 5 -11 10 0 6 2 10 4 10 3 0 8 -4 11 -10z m254 -24 c17 -18 22
-32 17 -50 -4 -16 5 -50 24 -98 16 -40 30 -77 30 -81 0 -36 119 -227 141 -227
15 0 10 15 -12 41 -35 40 -83 130 -118 219 -18 47 -37 93 -42 102 -12 24 -11
48 1 48 6 0 10 -6 10 -14 0 -7 6 -19 14 -25 8 -7 19 -35 25 -63 23 -105 159
-323 190 -304 9 6 5 16 -17 40 -34 35 -146 216 -138 223 10 10 27 -10 66 -76
23 -38 66 -96 97 -130 30 -34 54 -64 51 -66 -9 -9 -128 -23 -149 -18 -28 8
-58 41 -59 65 0 10 -9 22 -20 28 -21 11 -50 61 -75 132 -29 79 -55 186 -49
202 3 9 -3 19 -15 26 -23 12 -29 50 -8 50 8 0 24 -11 36 -24z m171 -66 c0 -5
-2 -10 -4 -10 -3 0 -8 5 -11 10 -3 6 -1 10 4 10 6 0 11 -4 11 -10z m50 0 c0
-5 -7 -7 -15 -4 -8 4 -15 8 -15 10 0 2 7 4 15 4 8 0 15 -4 15 -10z m1333 -68
c21 -77 63 -132 128 -169 30 -17 79 -53 109 -81 115 -105 127 -112 228 -152
17 -7 32 -18 33 -24 0 -6 2 -21 5 -33 6 -33 -13 -37 -38 -8 -34 39 -98 30 -98
-15 0 -8 18 -34 41 -57 41 -44 119 -168 119 -190 0 -30 -71 3 -132 60 -22 20
-29 23 -38 12 -8 -9 -6 -14 5 -19 9 -3 21 -20 27 -37 6 -17 21 -34 34 -39 17
-7 24 -20 30 -55 3 -25 3 -49 -1 -53 -10 -10 -105 104 -140 169 -6 12 -17 16
-30 13 -17 -4 -28 4 -49 36 -20 30 -31 39 -38 32 -12 -12 14 -131 37 -168 17
-27 31 -134 17 -134 -5 0 -15 15 -22 33 -26 70 -47 104 -94 147 -27 25 -87 84
-134 133 -69 70 -89 86 -106 81 -44 -13 -86 -56 -116 -119 -31 -65 -50 -83
-96 -91 -30 -6 -30 4 1 47 43 57 59 130 60 269 1 99 6 140 25 200 17 57 21 89
17 137 -5 70 4 83 60 83 15 0 50 11 77 25 27 14 52 25 56 25 4 0 14 -26 23
-58z m-1402 5 c-1 -12 -15 -9 -19 4 -3 6 1 10 8 8 6 -3 11 -8 11 -12z m169 -7
c0 -5 -6 -10 -14 -10 -8 0 -16 -10 -18 -22 -3 -26 -18 -27 -32 -5 -13 21 10
47 40 47 13 0 24 -4 24 -10z m1308 -49 c4 -28 -13 -20 -21 9 -3 14 -1 20 6 17
7 -2 14 -14 15 -26z m-1678 -49 c0 -10 -6 -26 -13 -37 -20 -26 -33 0 -16 31
15 28 29 31 29 6z m72 -47 c3 -13 2 -22 -2 -20 -11 7 -20 45 -10 45 4 0 10
-11 12 -25z m-122 -36 c0 -11 -4 -17 -10 -14 -5 3 -10 13 -10 21 0 8 5 14 10
14 6 0 10 -9 10 -21z m-50 -59 c0 -11 -7 -20 -15 -20 -18 0 -19 12 -3 28 16
16 18 15 18 -8z m-540 -24 c0 -11 -19 -15 -25 -6 -3 5 1 10 9 10 9 0 16 -2 16
-4z m490 -73 c0 -29 -12 -63 -21 -63 -10 0 -12 41 -3 64 8 21 24 20 24 -1z
m-222 -269 c-10 -10 -28 6 -28 24 0 15 1 15 17 -1 9 -9 14 -19 11 -23z m743
-346 c6 -24 15 -52 19 -63 5 -11 11 -32 14 -47 3 -14 17 -40 31 -56 25 -30 34
-72 15 -72 -5 0 -10 4 -10 10 0 5 -15 33 -33 62 -43 69 -54 96 -62 152 -4 25
-16 57 -26 70 -30 39 -21 54 11 19 16 -18 34 -51 41 -75z m1063 50 c9 -36 7
-80 -4 -73 -5 3 -10 17 -10 31 0 13 -3 24 -7 24 -13 0 -56 -148 -49 -166 3 -9
3 -21 -1 -27 -14 -22 -19 58 -6 97 7 21 13 50 13 64 0 24 34 72 51 72 3 0 9
-10 13 -22z m-921 -150 c7 -25 3 -33 -12 -23 -13 8 -15 45 -2 45 5 0 11 -10
14 -22z m137 -86 c0 -5 -14 -28 -30 -50 -30 -42 -60 -55 -60 -27 0 8 4 15 9
15 5 0 19 16 31 35 20 32 50 48 50 27z m-768 -387 l40 -7 -6 -44 c-3 -26 -1
-46 5 -50 10 -6 -17 -45 -30 -42 -5 2 -35 -13 -142 -73 -16 -9 -34 -21 -41
-26 -25 -19 -56 -22 -63 -5 -8 21 20 42 55 42 14 0 48 16 75 35 28 19 65 41
83 50 22 11 32 22 32 38 -1 25 -22 57 -39 57 -6 0 -11 6 -11 14 0 8 -5 16 -12
18 -7 3 -8 9 -3 19 8 12 10 11 13 -3 2 -11 17 -19 44 -23z m1651 -235 c9 0 17
-4 17 -10 0 -5 -18 -10 -41 -10 -23 0 -52 -8 -67 -18 -45 -31 -95 -53 -104
-44 -4 4 -5 18 -1 31 5 19 10 22 37 17 25 -5 40 0 66 19 22 16 43 24 55 21 11
-3 28 -6 38 -6z m-1595 -125 c28 -36 37 -120 17 -174 -22 -65 -56 -114 -68
-102 -6 6 -3 21 11 43 11 18 23 60 26 93 6 52 3 67 -19 109 -30 59 -30 56 -6
56 11 0 28 -11 39 -25z m1667 -15 c3 -5 1 -10 -4 -10 -6 0 -11 5 -11 10 0 6 2
10 4 10 3 0 8 -4 11 -10z m733 -267 c-2 -10 -13 -19 -26 -21 -17 -3 -22 2 -22
17 0 16 6 21 26 21 19 0 25 -5 22 -17z m-98 -59 c0 -8 -4 -14 -10 -14 -5 0
-10 9 -10 21 0 11 5 17 10 14 6 -3 10 -13 10 -21z m30 -104 c-10 -20 -21 -64
-25 -98 -5 -43 -11 -62 -21 -62 -21 0 -17 59 7 110 12 24 24 62 27 85 5 36 4
39 -11 26 -25 -20 -21 4 6 35 l22 26 7 -44 c4 -32 1 -52 -12 -78z m-973 -62
c31 -29 29 -38 -6 -38 -30 0 -50 28 -36 50 9 15 16 13 42 -12z m1471 -54 c12
-14 22 -33 22 -42 0 -12 -10 -6 -32 19 -30 33 -38 36 -90 38 -31 1 -67 6 -80
11 -17 8 2 9 67 5 80 -5 93 -8 113 -31z m-1523 -3 c3 -5 20 -13 38 -16 17 -4
45 -14 62 -23 31 -16 137 -103 132 -109 -2 -2 -53 22 -112 52 -60 30 -125 57
-144 60 -68 11 -81 15 -81 26 0 6 9 8 20 4 11 -4 20 -2 20 4 0 13 57 15 65 2z
m1295 -71 c8 -5 12 -11 10 -14 -3 -2 -14 2 -24 10 -22 15 -10 19 14 4z m6 -65
c18 -13 15 -14 -28 -15 -45 0 -57 7 -41 23 11 12 48 8 69 -8z m109 5 c3 -5 1
-10 -4 -10 -6 0 -11 5 -11 10 0 6 2 10 4 10 3 0 8 -4 11 -10z m225 0 c0 -5 -4
-10 -9 -10 -6 0 -13 5 -16 10 -3 6 1 10 9 10 9 0 16 -4 16 -10z m-1094 -52
c-10 -6 -20 -7 -24 -3 -9 8 20 25 31 18 5 -3 2 -10 -7 -15z m-101 1 c-44 -7
-65 -15 -77 -31 -19 -25 -24 -9 -8 23 9 16 21 19 78 18 l67 -1 -60 -9z m475
-33 c-25 -51 -80 -117 -91 -110 -5 3 5 24 22 47 17 23 39 54 48 69 24 41 43
35 21 -6z m395 13 c5 -5 1 -9 -12 -9 -31 0 -54 11 -47 21 6 10 43 3 59 -12z
m108 -26 c-6 -17 -18 -29 -31 -31 -27 -4 -29 18 -2 25 11 3 17 9 14 15 -10 16
5 43 17 31 8 -8 8 -21 2 -40z m197 23 c0 -3 -4 -8 -10 -11 -5 -3 -10 -1 -10 4
0 6 5 11 10 11 6 0 10 -2 10 -4z m-917 -51 c1 -5 -13 -11 -30 -13 -34 -3 -46
13 -15 21 24 7 43 4 45 -8z m-1398 -84 c-14 -23 -28 -41 -31 -41 -8 0 6 39 29
79 16 25 23 31 25 19 2 -9 -8 -35 -23 -57z m1925 49 l25 -7 -25 -6 c-14 -4
-34 -6 -45 -4 -12 1 -24 -6 -30 -20 -11 -26 -25 -30 -25 -7 0 48 36 64 100 44z
m-1830 -10 c0 -5 -2 -10 -4 -10 -3 0 -8 5 -11 10 -3 6 -1 10 4 10 6 0 11 -4
11 -10z m2180 -8 c0 -13 -12 -22 -22 -16 -10 6 -1 24 13 24 5 0 9 -4 9 -8z
m-2017 -98 c51 -17 68 -47 20 -34 -57 15 -73 23 -73 36 0 17 -3 17 53 -2z
m1595 5 c-2 -6 -7 -10 -11 -10 -4 1 -14 1 -22 1 -8 0 -15 5 -15 10 0 6 12 10
26 10 14 0 24 -5 22 -11z m-1645 -49 c8 0 8 -3 0 -11 -13 -13 -43 -5 -43 12 0
6 7 8 16 5 9 -3 21 -6 27 -6z m1677 -20 c0 -21 -24 -25 -123 -20 -33 1 -38 -1
-35 -17 2 -12 13 -18 33 -19 73 -1 95 -5 95 -15 0 -7 -30 -9 -91 -6 -49 3 -92
6 -94 8 -2 2 8 17 22 33 30 35 82 55 146 56 40 0 47 -3 47 -20z m-1624 -17
c-10 -10 -19 5 -10 18 6 11 8 11 12 0 2 -7 1 -15 -2 -18z m57 -7 c13 5 16 2
11 -10 -3 -9 -9 -14 -13 -12 -3 1 -14 6 -24 9 -10 4 -15 12 -11 18 5 8 8 8 14
0 3 -7 14 -9 23 -5z m-78 -29 c50 -18 88 -37 85 -42 -3 -6 -12 -9 -20 -8 -32
3 -174 61 -178 72 -6 17 14 13 113 -22z m-615 -2 c0 -18 -92 -75 -121 -75 -23
0 -5 20 26 30 19 6 35 15 35 19 0 4 10 13 23 19 24 12 37 14 37 7z m543 -37
c29 -15 37 -23 25 -26 -20 -4 -78 24 -78 38 0 14 5 13 53 -12z m1532 -42 c0
-26 -23 -32 -32 -9 -3 10 -11 22 -17 26 -6 4 3 6 19 5 22 -2 30 -8 30 -22z
m-2065 4 c0 -5 -9 -14 -21 -20 -19 -11 -20 -10 -9 9 11 22 30 29 30 11z m628
-13 c2 -10 -3 -17 -12 -17 -9 0 -16 2 -16 4 0 2 -3 12 -6 21 -5 13 -2 16 12
13 10 -2 20 -11 22 -21z m1597 8 c0 -5 -28 -11 -62 -13 -52 -2 -63 0 -63 13 0
13 11 15 63 13 34 -2 62 -7 62 -13z m215 -17 c-1 -13 -8 -34 -16 -48 l-15 -25
5 34 c3 18 6 40 6 47 0 8 5 14 10 14 6 0 10 -10 10 -22z m-1982 -6 c3 -11 0
-12 -16 -3 -15 8 -22 8 -25 -2 -3 -7 -6 -4 -6 6 -1 13 5 18 21 15 12 -2 23 -9
26 -16z m232 -12 c0 -5 -4 -10 -10 -10 -5 0 -10 5 -10 10 0 6 5 10 10 10 6 0
10 -4 10 -10z m-200 -55 c0 -2 -13 1 -30 6 -16 6 -30 15 -30 20 0 5 14 3 30
-6 17 -9 30 -17 30 -20z m1698 18 c2 -8 -6 -13 -22 -13 -25 0 -33 10 -19 24
10 10 36 3 41 -11z m-1568 -29 c0 -8 -4 -12 -10 -9 -5 3 -10 10 -10 16 0 5 5
9 10 9 6 0 10 -7 10 -16z m238 -34 c-12 -36 -28 -49 -21 -18 9 40 12 48 22 48
6 0 6 -11 -1 -30z m-408 16 c0 -3 -4 -8 -10 -11 -5 -3 -10 -1 -10 4 0 6 5 11
10 11 6 0 10 -2 10 -4z m1810 -26 c0 -5 -4 -10 -10 -10 -5 0 -10 5 -10 10 0 6
5 10 10 10 6 0 10 -4 10 -10z m-1920 -30 c23 -18 24 -20 5 -20 -21 0 -45 17
-45 32 0 13 13 9 40 -12z m-50 -35 c10 -12 10 -15 -4 -15 -9 0 -16 7 -16 15 0
8 2 15 4 15 2 0 9 -7 16 -15z m95 5 c3 -5 1 -10 -4 -10 -6 0 -11 5 -11 10 0 6
2 10 4 10 3 0 8 -4 11 -10z m1710 0 c3 -5 -3 -10 -15 -10 -12 0 -18 5 -15 10
3 6 10 10 15 10 5 0 12 -4 15 -10z m91 -12 c-9 -5 -21 -6 -28 -2 -8 5 -5 10 8
14 25 10 41 0 20 -12z m-1881 -70 c17 -15 -7 -8 -46 14 -22 12 -39 26 -39 31
0 8 62 -25 85 -45z m70 31 c16 -16 -30 -10 -51 7 -18 15 -18 15 11 9 17 -4 34
-11 40 -16z m1720 -9 c3 -5 -1 -10 -10 -10 -9 0 -13 5 -10 10 3 6 8 10 10 10
2 0 7 -4 10 -10z m-1847 -44 c23 -16 40 -31 38 -34 -4 -4 -111 34 -125 44 -8
6 25 31 34 25 6 -3 30 -19 53 -35z m-51 -48 c32 -14 67 -28 77 -32 10 -4 16
-9 13 -12 -9 -9 -128 35 -155 57 -13 10 -20 23 -16 30 5 8 9 7 15 -3 5 -8 34
-26 66 -40z m1753 37 c17 -9 30 -19 30 -24 0 -5 11 -12 25 -15 14 -4 25 -11
25 -16 0 -6 -16 -3 -37 5 -50 21 -83 43 -83 55 0 13 6 13 40 -5z m-80 -43 c0
-5 11 -15 25 -22 14 -7 25 -20 24 -29 0 -11 -2 -12 -6 -3 -2 6 -15 12 -28 12
-14 0 -29 9 -35 19 -13 26 -13 31 5 31 8 0 15 -4 15 -8z m-42 -65 c35 -32 26
-41 -13 -11 -19 14 -35 31 -35 36 0 11 17 2 48 -25z m-1600 -4 c13 -8 22 -17
19 -19 -9 -10 -56 8 -74 28 -18 20 -18 21 7 13 14 -4 36 -14 48 -22z m1537
-33 c3 -5 2 -10 -4 -10 -5 0 -13 5 -16 10 -3 6 -2 10 4 10 5 0 13 -4 16 -10z
m-1550 -30 c3 -5 -1 -10 -9 -10 -9 0 -16 5 -16 10 0 6 4 10 9 10 6 0 13 -4 16
-10z m-199 -28 c11 -10 41 -31 68 -47 27 -16 44 -31 38 -33 -13 -4 -110 57
-131 82 -18 22 1 20 25 -2z m-57 -21 c13 -10 20 -20 15 -23 -5 -3 -20 5 -34
18 -29 28 -16 32 19 5z m-39 -36 c13 -14 21 -28 17 -31 -8 -8 -67 37 -61 48 9
13 19 9 44 -17z m-70 -11 c0 -9 8 -23 18 -30 26 -20 -7 -18 -36 2 -36 25 -60
-5 -24 -32 12 -9 13 -13 4 -14 -8 0 -25 9 -38 19 l-24 19 42 25 c52 30 58 31
58 11z m130 -44 c0 -5 -5 -10 -11 -10 -5 0 -7 5 -4 10 3 6 8 10 11 10 2 0 4
-4 4 -10z m327 -10 c-14 -11 -28 -20 -32 -20 -10 0 38 39 49 40 5 0 -3 -9 -17
-20z m-513 -82 c-7 -11 -84 42 -84 57 0 6 2 14 5 17 7 7 84 -65 79 -74z m386
8 c0 -2 -7 -7 -16 -10 -8 -3 -12 -2 -9 4 6 10 25 14 25 6z m-466 -37 c-10 -16
-24 -9 -24 12 0 18 2 19 15 9 8 -7 12 -16 9 -21z m371 -9 c-3 -5 -12 -10 -18
-10 -7 0 -6 4 3 10 19 12 23 12 15 0z m-120 -40 c-28 -12 -37 -12 -30 0 3 6
16 10 28 9 21 0 21 -1 2 -9z"/>
<g>
<path d="M3760 9194 c-25 -7 -50 -12 -56 -10 -15 6 -98 -69 -90 -82 3 -5 -1
-26 -9 -46 -8 -19 -15 -51 -15 -70 0 -33 46 -175 60 -186 4 -3 9 -13 13 -22 8
-23 115 -73 188 -88 68 -15 123 -9 181 19 24 11 49 21 55 21 6 0 22 9 35 20
14 10 29 16 33 12 5 -4 5 -1 1 6 -4 6 -3 12 2 12 10 0 35 60 28 67 -2 2 -12
-4 -21 -14 -14 -13 -17 -14 -13 -3 2 8 14 19 26 25 22 10 30 25 13 25 -5 0 -7
18 -4 39 6 42 -20 136 -44 159 -7 7 -13 20 -13 28 0 20 -100 81 -152 94 -61
14 -165 11 -218 -6z m279 -44 c88 -57 159 -229 112 -270 -16 -14 -49 -93 -45
-105 4 -9 -3 -16 -18 -19 -12 -3 -62 -14 -109 -25 -94 -23 -159 -18 -236 15
-42 18 -73 63 -73 105 0 12 -7 36 -16 55 -24 51 -15 132 21 184 19 27 32 37
38 31 7 -7 6 -15 -3 -26 -13 -16 -4 -20 24 -9 22 8 20 42 -1 46 -41 9 32 30
130 37 56 5 108 9 116 10 7 0 34 -13 60 -29z"/>
<g>
<path d="M3767 9056 c-6 -16 2 -28 14 -20 12 7 11 34 0 34 -5 0 -11 -6 -14
-14z"/>
</g>
<g>
<path d="M3815 9029 c-4 -6 -4 -13 -1 -16 8 -8 36 5 36 17 0 13 -27 13 -35 -1z"/>
</g>
<g>
<path d="M3873 9009 c-28 -18 -33 -27 -33 -58 0 -48 25 -72 83 -78 39 -5 44
-3 55 21 19 41 5 111 -25 125 -33 15 -43 14 -80 -10z m67 -13 c0 -7 6 -19 14
-25 11 -10 12 -19 4 -42 -8 -23 -16 -29 -39 -29 -49 0 -68 66 -27 94 28 20 48
20 48 2z"/>
<g>
<path d="M3911 8951 c-7 -5 -10 -14 -6 -20 5 -9 10 -9 21 0 26 22 14 38 -15
20z"/>
</g>
</g>
<g>
<path d="M4040 8855 c-8 -9 -8 -15 -2 -15 12 0 26 19 19 26 -2 2 -10 -2 -17
-11z"/>
</g>
<g>
<path d="M4072 8831 c-12 -17 -18 -32 -13 -35 5 -3 18 10 30 29 25 43 13 46
-17 6z"/>
</g>
</g>
<g>
<path d="M4710 9010 c0 -5 11 -10 24 -10 14 0 28 5 31 10 4 6 -7 10 -24 10
-17 0 -31 -4 -31 -10z"/>
</g>
<g>
<path d="M3951 6498 c-10 -28 -9 -35 6 -46 24 -17 47 -11 52 13 2 11 10 25 19
31 22 16 6 34 -33 34 -28 0 -35 -5 -44 -32z"/>
</g>
<g>
<path d="M3892 5798 c-14 -14 -16 -48 -3 -48 9 0 25 49 18 56 -2 2 -9 -2 -15
-8z"/>
</g>
<g>
<path d="M3942 5798 c-15 -15 -16 -64 -2 -73 6 -3 10 4 10 17 0 13 5 29 12 36
8 8 9 15 2 22 -7 7 -14 6 -22 -2z"/>
</g>
<g>
<path d="M3986 5774 c-11 -28 -7 -66 6 -62 18 6 29 78 12 78 -6 0 -15 -7 -18
-16z"/>
</g>
<g>
<path d="M4327 5694 c-3 -3 -3 -22 0 -43 4 -26 -1 -53 -16 -86 -22 -50 -21
-69 3 -44 23 23 46 106 40 139 -7 31 -17 44 -27 34z"/>
</g>
<g>
<path d="M4045 5360 c-4 -6 -1 -25 5 -44 12 -37 5 -66 -16 -66 -8 0 -11 -6 -8
-15 4 -8 12 -15 19 -15 22 0 35 26 42 78 5 44 3 51 -15 61 -14 7 -23 8 -27 1z"/>
</g>
<g>
<path d="M4118 5319 c-3 -24 -9 -52 -13 -61 -4 -11 -3 -18 4 -18 25 0 46 79
27 105 -12 16 -14 14 -18 -26z"/>
</g>
<g>
<path d="M4175 5314 c-7 -39 -3 -50 14 -39 13 8 15 62 2 69 -5 3 -12 -10 -16
-30z"/>
</g>
<g>
<path d="M4235 5327 c-4 -10 -5 -21 -1 -24 10 -10 18 4 13 24 -4 17 -4 17 -12
0z"/>
</g>
<g>
<path d="M3310 4610 c41 -77 210 -96 289 -31 44 36 34 61 -12 29 -18 -13 -34
-23 -37 -24 -3 0 -23 -4 -44 -9 -27 -5 -46 -4 -59 4 -14 9 -22 10 -30 2 -17
-17 -29 -13 -66 19 -39 35 -56 39 -41 10z"/>
</g>
<g>
<path d="M3645 4290 c-4 -6 -2 -17 4 -23 15 -15 25 -2 13 19 -7 12 -11 13 -17
4z"/>
</g>
<g>
<path d="M3591 4253 c20 -28 41 -43 58 -43 10 0 6 10 -14 30 -32 33 -68 44
-44 13z"/>
</g>
<g>
<path d="M3600 5926 c0 -9 7 -16 16 -16 17 0 14 22 -4 28 -7 2 -12 -3 -12 -12z"/>
</g>
<g>
<path d="M2920 4786 c0 -17 33 -76 54 -95 38 -35 45 -17 9 22 -17 17 -34 42
-38 55 -5 18 -25 32 -25 18z"/>
</g>
<g>
<path d="M2620 4562 c0 -16 39 -44 51 -37 8 6 5 13 -12 26 -26 20 -39 24 -39
11z"/>
</g>
<g>
<path d="M2930 4529 c0 -12 46 -23 65 -15 28 10 15 21 -25 22 -22 1 -40 -2
-40 -7z"/>
</g>
<g>
<path d="M2915 4363 c-40 -10 -41 -24 -1 -21 22 2 41 9 44 16 4 12 -7 14 -43
5z"/>
</g>
</g>
<g>
<path d="M3013 9316 c-14 -6 -23 -20 -23 -32 0 -19 6 -22 38 -21 35 0 62 12
62 26 0 4 -12 14 -27 22 -21 12 -33 13 -50 5z"/>
</g>
<g>
<path d="M2868 9305 c-9 -10 -434 -21 -553 -15 -27 1 -149 -3 -270 -10 -121
-6 -368 -13 -550 -15 l-330 -4 -70 -28 c-82 -33 -146 -92 -180 -168 -40 -89
-53 -203 -86 -754 -6 -101 -15 -194 -21 -206 -6 -13 -8 -35 -4 -50 6 -22 11
-26 39 -23 28 3 32 7 35 35 2 18 -2 42 -9 54 -6 13 -11 60 -10 113 2 130 30
628 37 649 7 21 24 13 24 -13 0 -10 33 -53 74 -95 69 -73 76 -77 117 -78 64 0
158 13 164 24 4 5 13 9 20 9 35 0 115 62 137 106 12 25 27 49 34 55 6 5 52 11
101 13 62 2 96 8 114 19 23 16 25 22 21 71 -3 33 0 56 7 60 6 4 71 9 143 12
73 3 189 10 258 15 69 6 190 12 270 14 80 1 206 9 280 18 161 20 153 20 144 6
-4 -7 3 -6 17 2 16 9 75 14 184 16 88 1 245 6 348 12 104 5 194 7 202 5 7 -3
15 2 19 12 6 15 -4 16 -116 9 -222 -13 -572 -14 -581 -2 -5 9 -10 8 -17 -4 -6
-11 -29 -16 -87 -17 -43 -2 -127 -8 -188 -14 -60 -6 -164 -12 -230 -14 -195
-4 -345 -18 -356 -35 -6 -10 -9 -11 -9 -1 0 10 -24 11 -107 7 -60 -3 -122 -8
-139 -11 -22 -4 -40 0 -59 12 -26 17 -86 20 -175 9 -24 -3 -33 1 -45 23 -20
36 -57 77 -78 85 -9 3 -17 11 -17 17 0 6 52 10 143 10 78 1 167 2 197 4 30 1
71 -1 90 -5 19 -5 37 -5 40 -1 6 10 -18 9 465 18 556 11 578 11 583 -4 4 -14
32 -16 32 -2 0 5 14 17 31 25 17 9 29 18 27 19 -5 5 -106 15 -110 11z m-1588
-85 c0 -6 9 -10 21 -10 11 0 42 -14 69 -32 63 -41 90 -99 90 -190 0 -56 -4
-70 -36 -118 -19 -30 -47 -65 -60 -76 -28 -25 -193 -61 -221 -49 -10 5 -22 7
-26 6 -25 -5 -105 45 -135 83 -57 76 -66 214 -18 260 12 12 32 35 44 52 30 44
120 76 230 81 23 1 42 -2 42 -7z m384 -146 c10 -26 7 -112 -4 -119 -6 -4 -17
-2 -25 5 -11 9 -14 6 -17 -12 -4 -23 -4 -23 -18 4 -14 31 -31 29 -23 -2 5 -18
0 -20 -39 -20 l-44 0 4 33 c2 19 -1 51 -6 71 -10 34 -9 38 11 46 12 5 52 9 88
9 52 1 68 -2 73 -15z m-808 -1011 c-11 -11 -19 6 -11 24 8 17 8 17 12 0 3 -10
2 -21 -1 -24z"/>
<g>
<path d="M1169 9191 c-60 -8 -160 -92 -178 -150 -42 -143 42 -259 196 -266 37
-2 73 0 78 3 6 4 21 7 35 7 20 0 35 15 74 73 61 89 71 155 37 235 -19 43 -27
51 -86 78 -65 29 -74 31 -156 20z m171 -59 c14 -10 33 -34 42 -53 18 -36 24
-114 9 -123 -4 -3 -11 -18 -14 -33 -4 -17 -21 -38 -42 -53 -20 -14 -43 -31
-51 -38 -24 -22 -119 -27 -148 -8 -14 9 -36 16 -49 16 -34 0 -51 18 -72 79
-16 49 -17 56 -3 85 9 17 21 46 28 64 7 17 17 32 22 32 6 0 26 7 46 16 65 28
77 33 97 38 37 8 109 -3 135 -22z"/>
<g>
<path d="M1177 9128 c-12 -8 26 -12 70 -9 11 1 24 -3 28 -8 3 -6 13 -11 22
-11 12 0 13 3 4 14 -13 15 -106 26 -124 14z"/>
</g>
<g>
<path d="M1180 9094 c0 -3 8 -13 17 -22 16 -16 15 -17 -3 -20 -66 -11 -97 -49
-74 -92 22 -40 85 -49 118 -17 20 21 7 35 -18 19 -24 -15 -33 -1 -20 33 8 21
16 26 37 23 35 -4 42 19 9 32 -27 10 -36 30 -13 30 8 0 7 4 -3 10 -16 11 -50
13 -50 4z m-15 -93 c3 -5 1 -12 -5 -16 -5 -3 -10 1 -10 9 0 18 6 21 15 7z"/>
</g>
<g>
<path d="M1130 8890 c0 -9 61 -30 69 -23 8 6 -13 20 -41 27 -16 4 -28 2 -28
-4z"/>
</g>
<g>
<path d="M1120 8851 c0 -12 29 -23 42 -15 6 4 5 10 -3 15 -18 11 -39 11 -39 0z"/>
</g>
</g>
<g>
<path d="M1530 8976 c0 -8 5 -18 10 -21 6 -3 10 3 10 14 0 12 -4 21 -10 21 -5
0 -10 -6 -10 -14z"/>
</g>
</g>
<g>
<path d="M2985 9219 c-12 -19 3 -22 27 -5 l22 16 -21 0 c-12 0 -25 -5 -28 -11z"/>
</g>
<g>
<path d="M3284 9040 c-7 -7 -64 -10 -199 -10 -66 -1 -166 -5 -221 -11 -56 -6
-214 -12 -350 -14 -684 -11 -786 -16 -763 -40 16 -15 921 -2 1074 16 50 6 167
12 260 15 275 7 395 20 395 40 0 11 -21 13 -96 11 -52 -1 -97 -4 -100 -7z"/>
</g>
<g>
<path d="M924 8459 c-4 -7 7 -22 25 -37 18 -13 37 -36 42 -49 7 -18 14 -23 27
-18 83 32 126 5 189 -120 43 -85 45 -92 38 -145 -5 -30 -7 -83 -6 -118 1 -35
-2 -69 -7 -75 -5 -7 -12 -24 -16 -38 -15 -67 -170 -203 -224 -198 -15 2 -32 1
-37 -3 -6 -3 -46 -9 -91 -13 -93 -8 -131 3 -196 60 -23 19 -49 35 -58 35 -9 0
-35 19 -58 43 -48 49 -48 52 -33 252 12 162 30 228 72 271 18 19 38 34 45 34
7 0 15 9 19 20 11 36 54 60 106 60 37 0 49 4 49 15 0 12 -13 15 -61 15 l-61 0
-77 -80 c-73 -75 -79 -84 -96 -153 l-18 -72 -51 -18 c-28 -11 -62 -22 -76 -25
-63 -17 -190 -108 -190 -136 0 -20 30 -56 60 -71 38 -20 150 -21 150 -1 0 7
-7 19 -15 26 -8 7 -15 25 -15 41 0 20 -5 29 -16 29 -12 0 -15 -7 -12 -30 6
-42 -18 -62 -32 -26 -5 14 -7 33 -4 41 4 9 0 15 -9 15 -10 0 -17 -11 -19 -27
-4 -32 -35 -44 -45 -17 -8 22 54 80 118 110 156 74 155 75 150 -23 -2 -43 -6
-70 -8 -60 -10 40 -23 13 -22 -45 2 -103 20 -138 95 -184 36 -21 77 -49 92
-60 80 -64 133 -74 306 -62 78 6 92 10 120 35 17 15 47 40 67 54 71 53 138
193 124 260 -10 43 4 109 23 116 63 19 102 69 102 129 0 21 -4 44 -8 50 -14
20 -73 37 -116 32 -42 -5 -46 -3 -101 49 -57 54 -59 55 -107 51 -40 -4 -51 -2
-58 13 -16 28 -67 61 -76 48z m417 -199 c18 -10 27 -50 11 -50 -4 0 -22 -13
-40 -29 l-32 -30 -22 42 c-43 80 -43 77 13 77 28 0 59 -5 70 -10z"/>
</g>
<g>
<path d="M1135 8440 c-4 -6 -3 -16 3 -22 6 -6 12 -6 17 2 4 6 3 16 -3 22 -6 6
-12 6 -17 -2z"/>
</g>
<g>
<path d="M740 8323 c-14 -9 -31 -23 -38 -30 -8 -8 -27 -20 -43 -28 -38 -20
-41 -49 -3 -35 14 6 41 10 60 10 24 0 34 5 34 15 0 8 -4 15 -10 15 -21 0 -9
19 20 32 29 12 35 28 14 35 -5 2 -21 -5 -34 -14z"/>
</g>
<g>
<path d="M980 8262 c0 -10 22 -32 32 -32 4 0 8 9 8 20 0 13 -7 20 -20 20 -11
0 -20 -4 -20 -8z"/>
</g>
<g>
<path d="M3942 8116 c0 -66 12 -87 24 -43 8 35 1 100 -13 104 -8 3 -11 -16
-11 -61z"/>
</g>
<g>
<path d="M1145 8113 c9 -72 25 -93 25 -32 0 53 -9 89 -22 89 -6 0 -7 -23 -3
-57z"/>
</g>
<g>
<path d="M658 8035 c-8 -8 38 -109 52 -113 15 -5 12 8 -18 66 -15 29 -31 50
-34 47z"/>
</g>
<g>
<path d="M420 7956 c0 -54 10 -73 30 -61 8 5 7 11 -1 21 -7 8 -9 30 -6 54 4
30 2 40 -9 40 -10 0 -14 -14 -14 -54z"/>
</g>
<g>
<path d="M2885 7929 c-88 -26 -185 -72 -206 -97 -9 -11 -43 -37 -75 -58 -33
-21 -68 -47 -78 -56 -33 -30 -81 -41 -123 -27 -21 6 -43 16 -50 21 -7 5 -20 8
-30 5 -29 -7 76 -50 122 -50 36 0 89 20 119 44 133 108 201 150 301 184 53 18
177 35 190 25 6 -4 36 -8 68 -8 52 -1 61 -5 85 -32 14 -16 33 -30 42 -30 26 0
72 -80 67 -115 -9 -55 -35 -110 -58 -122 -25 -13 -43 -8 -33 9 21 33 4 163
-20 155 -6 -2 -9 -22 -8 -44 4 -43 -22 -108 -52 -132 -9 -7 -14 -16 -12 -20 8
-13 112 -4 144 13 28 15 76 74 93 116 5 11 8 10 18 -8 12 -23 5 -59 -23 -121
-13 -28 -53 -71 -66 -71 -5 0 -11 -4 -15 -9 -11 -19 11 -19 49 0 46 22 46 22
46 9 0 -5 -20 -21 -45 -36 -25 -14 -45 -30 -45 -35 0 -14 12 -11 65 21 64 38
78 38 35 -1 -32 -27 -82 -55 -134 -73 -14 -5 -16 -10 -9 -17 8 -8 17 -7 33 1
41 22 30 4 -18 -30 -57 -41 -62 -47 -62 -84 0 -24 2 -27 15 -16 8 7 15 17 15
22 0 11 69 78 81 78 5 0 9 -6 9 -14 0 -10 11 -12 45 -8 37 4 49 1 60 -14 8
-11 15 -22 15 -26 0 -11 -44 -14 -62 -4 -11 7 -24 6 -40 -1 -23 -11 -23 -12 6
-12 28 -1 28 -2 11 -15 -10 -7 -16 -20 -12 -29 7 -19 -23 -47 -50 -47 -21 0
-38 -24 -28 -40 10 -17 51 5 93 48 23 25 42 49 42 54 0 14 20 9 27 -8 13 -34
-161 -174 -217 -174 -38 0 -62 37 -36 55 20 15 21 25 1 25 -8 0 -22 -11 -31
-25 -16 -25 -16 -27 11 -55 28 -29 68 -40 79 -21 3 4 23 11 45 15 38 6 78 39
139 116 27 34 38 19 22 -29 -16 -50 0 -125 38 -170 32 -37 120 -65 159 -50 37
14 27 24 -19 21 -28 -2 -50 2 -63 12 -18 14 -18 15 -2 16 18 0 22 17 8 39 -8
13 7 71 19 71 4 0 11 -17 16 -37 10 -43 40 -63 97 -63 29 0 37 4 37 18 0 15
-6 18 -28 14 -23 -3 -33 3 -55 31 -31 42 -33 54 -10 86 l16 24 8 -21 c5 -13
17 -22 29 -22 21 0 27 15 9 25 -19 13 -26 48 -17 94 24 128 27 190 13 267 -18
94 -43 169 -70 210 -23 36 -85 105 -107 119 -9 6 -36 24 -60 41 -53 37 -72 43
-163 54 -38 4 -88 13 -109 18 -22 6 -82 13 -135 16 -79 5 -108 2 -166 -15z
m527 -75 c54 -26 58 -29 129 -98 42 -41 89 -110 89 -131 0 -4 -25 18 -55 49
-54 54 -64 60 -93 57 -6 -1 -17 8 -23 21 -12 27 -80 78 -103 78 -9 0 -16 4
-16 8 0 5 -19 14 -42 21 -31 10 -38 15 -27 22 20 13 86 1 141 -27z m-12 -69
c17 -9 30 -20 30 -25 0 -16 -13 -12 -45 15 -34 28 -28 32 15 10z m43 -105 c7
0 21 -14 32 -30 23 -35 41 -38 50 -10 8 24 23 26 32 5 7 -20 -6 -33 -16 -16
-6 9 -10 7 -14 -8 -3 -12 -1 -24 4 -27 5 -3 9 0 9 6 0 6 5 8 11 4 8 -5 10 -31
6 -80 -3 -41 -1 -76 4 -79 5 -4 9 9 9 27 0 46 11 79 24 75 13 -4 27 -70 16
-77 -4 -3 -3 -16 3 -30 10 -25 10 -25 14 -2 4 20 22 32 24 15 0 -5 3 -19 5
-32 3 -16 -1 -28 -10 -33 -20 -11 -47 -104 -40 -133 3 -13 2 -25 -3 -28 -8 -5
-14 32 -17 111 -2 35 -15 22 -43 -43 -33 -73 -29 -68 -43 -60 -7 4 -8 11 -1
18 12 16 45 147 37 154 -8 8 -34 -55 -41 -101 -8 -51 -17 -40 -19 25 -1 37 4
59 16 75 21 25 23 59 6 70 -8 5 -9 2 -5 -9 3 -10 2 -17 -3 -17 -6 0 -7 29 -3
75 5 64 3 75 -11 81 -9 3 -16 14 -16 23 0 9 -9 24 -20 34 -11 9 -20 22 -19 29
0 10 2 10 6 1 2 -7 10 -13 16 -13z m67 -6 c0 -8 -5 -12 -10 -9 -6 4 -8 11 -5
16 9 14 15 11 15 -7z m-84 -71 c-3 -4 -1 -12 5 -19 16 -19 1 -54 -23 -54 -20
0 -21 1 -3 20 15 17 16 24 6 46 -13 30 -3 56 11 30 6 -10 7 -20 4 -23z m206
-31 c17 -44 26 -92 18 -92 -13 0 -20 16 -28 62 -7 41 -32 66 -32 32 0 -9 -3
-14 -7 -10 -10 10 -13 37 -3 31 5 -3 11 -1 15 5 9 15 24 3 37 -28z m-236 -9
c-10 -10 -19 5 -10 18 6 11 8 11 12 0 2 -7 1 -15 -2 -18z m71 -95 c-3 -8 -6
-5 -6 6 -1 11 2 17 5 13 3 -3 4 -12 1 -19z m-73 -65 c-25 -18 -28 -9 -7 23 16
24 18 26 22 9 2 -10 -5 -25 -15 -32z m-47 -19 c-3 -3 -12 -4 -19 -1 -8 3 -5 6
6 6 11 1 17 -2 13 -5z m18 -33 c-3 -6 -14 -11 -23 -11 -15 1 -15 2 2 15 21 16
32 13 21 -4z m292 -103 c-3 -8 -6 -5 -6 6 -1 11 2 17 5 13 3 -3 4 -12 1 -19z
m-102 -29 c4 -5 -1 -26 -10 -45 -10 -22 -14 -46 -10 -61 3 -14 1 -31 -6 -39
-7 -8 -9 -27 -5 -45 4 -22 2 -29 -6 -27 -19 7 -31 82 -19 124 6 21 8 41 5 45
-6 10 25 59 37 59 4 0 11 -5 14 -11z"/>
<g>
<path d="M3521 7550 c0 -29 1 -32 10 -17 7 11 7 23 0 35 -9 14 -10 11 -10 -18z"/>
</g>
<g>
<path d="M3511 7494 c0 -11 3 -14 6 -6 3 7 2 16 -1 19 -3 4 -6 -2 -5 -13z"/>
</g>
</g>
<g>
<path d="M913 7893 c-41 -16 -45 -38 -5 -28 31 7 46 19 41 33 -2 5 -18 3 -36
-5z"/>
</g>
<g>
<path d="M580 7887 c0 -46 128 -167 163 -154 7 3 0 9 -14 15 -34 13 -119 109
-119 133 0 10 -7 19 -15 19 -8 0 -15 -6 -15 -13z"/>
</g>
<g>
<path d="M1035 7840 c-22 -12 -49 -22 -60 -24 -19 -3 -29 -26 -12 -26 22 -1
89 26 113 46 37 30 13 32 -41 4z"/>
</g>
<g>
<path d="M2880 7823 c-43 -7 -90 -33 -106 -59 -9 -13 -22 -24 -30 -24 -8 0
-24 -17 -37 -37 -20 -33 -24 -52 -18 -105 2 -15 20 -8 25 10 5 14 14 17 39 14
31 -3 34 -1 43 33 l9 37 29 -27 c26 -24 28 -31 23 -76 -5 -37 -3 -49 6 -46 25
8 31 54 13 100 -14 37 -22 46 -57 56 -22 7 -37 16 -34 20 7 12 69 -3 100 -23
27 -18 35 -20 35 -8 0 13 -66 52 -88 52 -22 0 -30 14 -14 24 23 14 119 15 146
1 37 -20 48 -19 44 3 -1 9 1 23 6 31 5 8 3 16 -5 22 -14 9 -83 10 -129 2z"/>
</g>
<g>
<path d="M706 7780 c6 -6 40 -16 76 -24 35 -7 74 -19 86 -25 24 -13 118 -17
150 -7 12 4 22 14 22 22 0 11 -6 13 -22 8 -37 -11 -142 -5 -153 10 -6 7 -43
15 -90 19 -53 5 -76 4 -69 -3z"/>
</g>
<g>
<path d="M2262 7700 c-34 -32 -22 -83 36 -142 46 -48 46 -48 19 -48 -15 0 -49
-11 -75 -24 -26 -13 -59 -26 -74 -30 -34 -8 -140 -133 -136 -160 4 -27 28 -33
28 -7 0 34 22 71 47 77 16 4 22 11 18 21 -4 11 -1 13 10 9 9 -3 38 -1 66 5 28
6 53 8 57 5 3 -4 -14 -26 -40 -49 -42 -39 -128 -164 -128 -187 0 -19 17 -10
31 17 18 34 49 66 124 127 49 39 61 45 63 31 2 -10 -5 -30 -17 -46 -25 -33
-26 -39 -7 -39 7 0 16 9 19 21 7 27 33 19 29 -9 -4 -26 13 -29 27 -5 16 29 25
6 11 -27 -9 -23 -10 -34 -2 -42 11 -11 13 -7 43 70 6 16 15 22 25 18 9 -3 24
-6 34 -6 29 0 45 -118 19 -144 -12 -13 -12 -46 0 -46 10 0 71 115 71 133 0 7
7 24 14 39 14 25 13 29 -4 38 -11 6 -27 27 -36 48 -10 20 -19 38 -20 40 -5 7
-60 -34 -82 -60 -24 -29 -42 -36 -42 -18 0 6 7 10 15 10 11 0 15 8 13 27 -2
21 3 30 25 41 15 7 25 17 22 23 -8 13 -59 11 -72 -2 -13 -13 -43 -6 -43 9 0 5
14 15 30 22 35 14 35 35 0 35 -13 0 -25 6 -28 13 -2 6 3 12 12 12 9 0 16 5 16
10 0 18 16 11 50 -22 l34 -32 9 28 c6 18 6 36 -2 52 -9 20 -18 24 -55 24 -33
0 -45 -4 -48 -16 -2 -12 -15 -5 -50 28 -49 46 -63 89 -37 115 22 22 4 34 -19
13z m48 -290 c14 -11 20 -20 13 -20 -6 0 -20 -3 -30 -7 -15 -6 -16 -5 -5 9 11
14 10 18 -5 27 -10 6 -13 10 -8 10 6 1 21 -8 35 -19z"/>
</g>
<g>
<path d="M2450 7636 c0 -9 5 -16 10 -16 6 0 10 4 10 9 0 6 -4 13 -10 16 -5 3
-10 -1 -10 -9z"/>
</g>
<g>
<path d="M2522 7579 c2 -6 8 -10 13 -10 5 0 11 4 13 10 2 6 -4 11 -13 11 -9 0
-15 -5 -13 -11z"/>
</g>
<g>
<path d="M2780 7568 c0 -18 18 -34 28 -24 3 4 -2 14 -11 23 -16 16 -17 16 -17
1z"/>
</g>
<g>
<path d="M2720 7552 c0 -5 12 -15 26 -22 14 -8 30 -22 35 -32 12 -21 29 -24
29 -4 0 8 -14 26 -31 40 -30 26 -59 34 -59 18z"/>
</g>
<g>
<path d="M2569 7540 c-1 -3 -2 -22 -3 -44 -2 -27 -10 -44 -27 -57 -27 -20 -20
-36 9 -20 30 16 30 15 37 -36 9 -65 24 -101 58 -140 26 -30 34 -47 36 -80 2
-30 21 -10 21 22 0 25 -9 45 -33 72 -48 54 -61 93 -54 163 4 48 2 58 -9 53
-10 -3 -14 2 -14 18 0 21 -18 62 -21 49z"/>
</g>
<g>
<path d="M3120 7510 c0 -5 -11 -12 -25 -16 -18 -4 -25 -13 -25 -30 0 -28 10
-30 50 -9 33 17 43 65 15 65 -8 0 -15 -4 -15 -10z"/>
</g>
<g>
<path d="M2291 7209 c-13 -38 -14 -49 -3 -49 12 0 33 63 23 73 -5 5 -13 -6
-20 -24z"/>
</g>
<g>
<path d="M2396 7194 c-4 -15 -2 -32 3 -37 8 -8 11 -7 11 4 0 7 3 24 6 37 4 12
2 22 -4 22 -5 0 -13 -12 -16 -26z"/>
</g>
<g>
<path d="M2556 7164 c-3 -9 -6 -22 -6 -31 0 -30 -43 -74 -103 -104 -69 -34
-97 -59 -97 -87 0 -42 76 -76 134 -61 53 15 126 105 126 156 0 23 -27 -2 -34
-31 -9 -37 -88 -96 -129 -96 -37 0 -63 21 -54 43 3 8 26 24 52 36 86 40 135
103 135 174 0 21 -16 22 -24 1z"/>
</g>
<g>
<path d="M3082 7094 c1 -9 9 -19 16 -22 9 -3 13 2 10 14 -1 9 -9 19 -16 22 -9
3 -13 -2 -10 -14z"/>
</g>
<g>
<path d="M2657 7048 c-18 -36 -14 -48 13 -48 27 0 44 34 30 60 -15 28 -25 25
-43 -12z"/>
</g>
<g>
<path d="M3046 7052 c-6 -10 21 -52 35 -52 5 0 9 6 9 13 0 18 -36 51 -44 39z"/>
</g>
<g>
<path d="M3020 7002 c0 -5 14 -21 30 -37 28 -27 30 -28 30 -7 0 11 -10 28 -22
36 -25 18 -38 20 -38 8z"/>
</g>
<g>
<path d="M2922 6988 c6 -18 28 -21 28 -4 0 9 -7 16 -16 16 -9 0 -14 -5 -12
-12z"/>
</g>
<g>
<path d="M2964 6934 c3 -9 6 -29 6 -45 0 -19 5 -29 15 -29 8 0 15 9 15 19 0
30 -18 71 -31 71 -6 0 -8 -7 -5 -16z"/>
</g>
<g>
<path d="M3047 6923 c-7 -13 4 -73 14 -73 12 0 12 67 0 75 -5 3 -12 2 -14 -2z"/>
</g>
<g>
<path d="M3415 6853 c-20 -43 -47 -99 -58 -125 -23 -48 -36 -56 -107 -65 -71
-8 -153 -55 -249 -140 -27 -24 -55 -43 -65 -43 -9 0 -16 -7 -16 -15 0 -8 -5
-15 -11 -15 -15 0 -2 70 17 91 19 21 18 27 -12 66 -27 36 -41 41 -50 18 -3 -8
-25 -34 -47 -57 -95 -98 -97 -101 -113 -217 -5 -31 -3 -45 7 -52 25 -16 31
-10 25 24 -8 45 3 53 25 17 24 -38 43 -38 71 1 13 16 39 40 58 52 19 12 60 47
91 78 102 102 199 157 307 173 94 14 172 75 159 125 -3 13 1 24 11 30 16 9 16
11 -1 23 -15 11 -16 18 -7 42 8 23 14 27 33 21 34 -11 62 -11 65 0 1 6 -7 11
-18 11 -11 1 -29 9 -39 18 -9 9 -22 16 -28 16 -6 0 -27 -35 -48 -77z m-557
-309 c-9 -18 -9 -27 0 -36 10 -10 5 -16 -20 -28 -32 -15 -33 -18 -33 -73 0
-37 -4 -57 -11 -57 -13 0 -28 46 -19 60 3 5 1 11 -5 15 -5 3 -10 1 -10 -4 0
-6 -5 -11 -11 -11 -16 0 -1 39 34 90 51 73 102 103 75 44z"/>
</g>
<g>
<path d="M2570 6902 c0 -19 12 -42 22 -42 14 0 5 43 -9 48 -7 2 -13 -1 -13 -6z"/>
</g>
<g>
<path d="M2892 6898 c-7 -7 -12 -17 -12 -24 0 -15 -52 -26 -64 -13 -18 17 -28
9 -24 -16 7 -35 -5 -39 -34 -12 -14 13 -30 21 -36 19 -15 -5 -16 -29 -1 -34
14 -5 2 -88 -12 -88 -19 0 -21 31 -4 50 10 11 16 21 14 21 -2 1 -23 3 -46 4
-29 2 -43 -1 -47 -11 -3 -8 -12 -14 -21 -14 -9 0 -15 -9 -15 -24 0 -39 -17
-74 -46 -92 -37 -25 -166 -56 -178 -44 -15 15 -56 12 -56 -4 0 -20 78 -31 122
-18 96 29 116 37 150 58 24 16 40 36 48 61 19 57 23 60 36 28 11 -28 10 -30
-32 -62 -24 -19 -44 -38 -44 -43 0 -6 -6 -10 -14 -10 -8 0 -39 -14 -70 -32
-38 -22 -53 -35 -46 -42 7 -7 16 -7 28 2 9 7 35 21 57 32 22 10 55 32 74 49
36 32 64 32 35 0 -9 -11 -14 -22 -11 -25 9 -10 35 14 43 39 4 12 20 37 35 55
16 18 29 42 29 52 0 11 4 20 9 20 16 0 22 -32 16 -79 -6 -42 -5 -45 9 -27 8
10 17 24 20 30 6 15 26 -13 26 -38 0 -11 -7 -28 -17 -38 -9 -10 -13 -21 -9
-26 4 -4 20 7 34 24 15 17 41 47 58 67 42 49 60 120 43 176 -12 42 -26 50 -47
29z m11 -110 c2 -18 2 -39 0 -45 -9 -24 -23 -13 -23 16 0 16 -3 36 -6 45 -4
10 -1 16 9 16 9 0 17 -12 20 -32z m-49 -4 c3 -9 6 -27 6 -41 0 -39 -25 -22
-28 20 -3 37 11 50 22 21z"/>
</g>
<g>
<path d="M2617 6884 c-8 -8 3 -34 14 -34 11 0 12 27 0 34 -4 3 -11 3 -14 0z"/>
</g>
<g>
<path d="M2525 6817 c-11 -17 -33 -38 -48 -45 -31 -15 -36 -32 -8 -32 27 0 91
63 91 89 0 29 -12 26 -35 -12z"/>
</g>
<g>
<path d="M3500 6745 c0 -3 7 -17 17 -31 9 -14 16 -42 15 -65 -1 -29 2 -39 13
-39 25 0 20 81 -8 113 -21 25 -37 34 -37 22z"/>
</g>
<g>
<path d="M3441 6663 c-7 -25 -7 -41 0 -49 15 -19 -18 -71 -53 -83 -32 -11 -35
-5 -12 27 20 29 17 32 -22 24 -41 -9 -118 -103 -109 -132 7 -23 2 -24 -26 -9
-19 10 -19 12 -5 34 9 14 16 30 16 38 0 7 14 28 32 46 22 23 28 35 20 43 -7 7
-24 -4 -59 -40 -26 -27 -59 -53 -73 -57 -69 -20 -121 -50 -139 -79 -30 -49
-71 -83 -80 -68 -6 9 -12 8 -24 -6 -16 -17 -16 -21 -2 -32 13 -11 13 -15 0
-33 -8 -12 -15 -29 -15 -39 0 -23 30 -23 37 0 2 10 17 23 33 31 17 7 42 25 57
41 21 23 38 30 87 35 34 4 86 16 116 27 133 51 227 93 251 112 14 12 36 28 49
36 46 31 70 52 70 61 0 15 -41 0 -66 -22 -11 -11 -24 -16 -27 -12 -4 3 -7 1
-7 -5 0 -7 -12 -12 -27 -12 -21 0 -24 3 -15 12 7 7 12 19 12 28 0 10 7 31 16
48 17 35 11 72 -11 72 -8 0 -19 -17 -24 -37z m-120 -145 c-12 -12 -21 -16 -21
-10 0 15 34 51 38 40 2 -4 -6 -17 -17 -30z m-139 -63 c-25 -40 -75 -76 -88
-62 -16 16 67 106 98 107 15 0 13 -7 -10 -45z"/>
</g>
<g>
<path d="M2945 6659 c-10 -15 1 -23 20 -15 9 3 13 10 10 16 -8 13 -22 13 -30
-1z"/>
</g>
<g>
<path d="M2710 6590 c-8 -16 -8 -20 4 -20 16 0 29 27 16 35 -5 3 -14 -4 -20
-15z"/>
</g>
<g>
<path d="M3490 6599 c0 -5 5 -7 10 -4 6 3 10 8 10 11 0 2 -4 4 -10 4 -5 0 -10
-5 -10 -11z"/>
</g>
<g>
<path d="M2757 6273 c-16 -15 -5 -45 24 -62 31 -19 59 -18 59 1 0 6 8 17 17
24 22 15 16 22 -27 30 -28 6 -32 5 -27 -9 4 -10 2 -17 -4 -17 -6 0 -13 9 -16
20 -5 21 -15 25 -26 13z"/>
</g>
<g>
<path d="M2642 6200 c-17 -18 -35 -56 -46 -97 -10 -38 -34 -105 -54 -150 -30
-72 -34 -86 -24 -108 16 -35 34 -22 26 19 -4 25 1 46 19 82 14 27 35 87 48
132 18 66 30 90 58 118 27 26 31 34 18 34 -10 0 -30 -13 -45 -30z"/>
</g>
<g>
<path d="M2418 4794 c-5 -4 -8 -16 -8 -28 0 -14 3 -17 11 -9 6 6 9 19 7 28 -1
9 -6 13 -10 9z"/>
</g>
<g>
<path d="M2310 4760 c0 -5 5 -10 10 -10 6 0 10 5 10 10 0 6 -4 10 -10 10 -5 0
-10 -4 -10 -10z"/>
</g>
<g>
<path d="M1545 984 c-35 -18 -45 -31 -45 -62 0 -28 37 -44 80 -36 19 4 30 2
30 -5 0 -13 -40 -31 -90 -40 -21 -4 -36 -13 -38 -23 -4 -21 31 -32 58 -18 11
6 36 11 55 12 28 1 39 8 55 33 11 18 20 39 20 48 0 16 -48 37 -87 37 -14 0
-21 4 -18 10 3 6 21 10 40 10 41 0 54 16 29 35 -25 19 -52 18 -89 -1z"/>
</g>
<g>
<path d="M1764 913 c-12 -2 -30 -14 -40 -25 -11 -12 -14 -18 -7 -15 16 10 26
-26 18 -63 -5 -23 -2 -31 15 -40 23 -12 40 -6 40 15 0 14 29 35 49 35 6 0 11
-10 11 -22 0 -37 14 -50 51 -46 39 3 53 32 19 41 -21 5 -29 50 -10 62 6 3 10
19 10 36 l0 29 -67 -1 c-38 -1 -78 -4 -89 -6z m91 -43 c-3 -5 -19 -10 -36 -10
-16 0 -29 5 -29 10 0 6 16 10 36 10 21 0 33 -4 29 -10z"/>
</g>
<g>
<path d="M1974 859 c-31 -34 -26 -70 15 -97 22 -15 37 -20 39 -13 2 6 16 11
32 11 15 0 33 7 40 15 12 14 15 14 30 0 9 -8 29 -15 43 -15 44 0 31 -18 -25
-34 -75 -21 -286 -56 -341 -56 -26 0 -64 -6 -84 -14 -21 -8 -53 -17 -72 -20
-41 -7 -61 -22 -61 -46 0 -31 49 -40 137 -26 90 16 131 30 139 50 5 13 48 24
194 46 89 14 172 39 183 54 9 14 -2 118 -15 131 -6 7 -17 0 -32 -18 -24 -30
-36 -27 -36 10 0 28 -14 30 -32 5 -23 -33 -51 -43 -71 -25 -13 13 -20 14 -29
5 -16 -16 -28 -15 -28 3 0 8 9 15 20 15 13 0 20 7 20 20 0 27 -41 27 -66 -1z"/>
</g>
<g>
<path d="M1666 831 c-7 -10 22 -37 30 -28 9 8 -3 37 -15 37 -5 0 -12 -4 -15
-9z"/>
</g>
<g>
<path d="M2241 681 c-16 -10 -6 -31 15 -31 8 0 14 9 14 20 0 22 -7 25 -29 11z"/>
</g>
</g>
</svg>
