<?xml version="1.0" standalone="no"?>
<!DOCTYPE svg PUBLIC "-//W3C//DTD SVG 20010904//EN"
 "http://www.w3.org/TR/2001/REC-SVG-20010904/DTD/svg10.dtd">
<svg version="1.0" xmlns="http://www.w3.org/2000/svg"
 width="788.000000pt" height="1001.000000pt" viewBox="0 0 788.000000 1001.000000"
 preserveAspectRatio="xMidYMid meet">
<metadata>
Created by potrace 1.15, written by Peter Selinger 2001-2017
</metadata>
<g transform="translate(0.000000,1001.000000) scale(0.100000,-0.100000)"
fill="#000000" stroke="none">
<g>
<path d="M3766 9495 c-25 -20 -46 -40 -46 -44 0 -5 -10 -24 -23 -43 -26 -38
-50 -121 -43 -146 3 -10 7 -35 11 -57 7 -49 78 -122 119 -122 47 0 166 -70
166 -98 0 -12 113 -105 129 -105 5 0 15 -10 23 -22 14 -20 18 -21 42 -10 34
15 46 9 46 -26 0 -21 19 -44 82 -102 151 -139 165 -156 172 -204 4 -27 20 -60
41 -87 33 -44 38 -57 36 -91 -1 -24 -18 -23 -26 2 -3 11 -13 20 -21 20 -16 0
-19 -16 -4 -25 6 -3 10 -13 10 -22 0 -15 -2 -14 -18 0 -10 10 -31 17 -45 17
-30 0 -35 14 -11 28 15 8 15 11 -5 31 -28 28 -69 28 -80 -1 -22 -61 -22 -76 1
-80 20 -3 17 -7 -22 -31 -25 -15 -35 -25 -22 -22 14 4 22 2 22 -7 0 -7 7 -2
16 10 12 17 19 20 29 12 10 -8 15 -8 20 1 4 6 1 16 -6 21 -9 6 3 7 36 3 49 -7
87 -25 51 -25 -14 0 -17 -5 -13 -22 4 -12 1 -28 -5 -35 -8 -10 -6 -18 7 -33
17 -19 17 -22 0 -62 -10 -24 -24 -47 -30 -53 -6 -5 -21 -31 -34 -57 -13 -27
-27 -48 -32 -48 -4 0 -6 7 -3 15 11 28 -12 15 -46 -27 -19 -23 -52 -59 -73
-80 -38 -38 -41 -58 -9 -58 9 0 32 -16 49 -35 18 -19 36 -35 41 -35 11 0 81
85 95 117 30 66 72 123 92 123 15 0 27 16 49 70 17 39 32 70 34 70 2 0 11 -4
21 -10 17 -9 14 -18 -35 -118 -29 -60 -60 -115 -69 -122 -21 -17 -19 -1 5 35
11 17 20 36 20 43 0 22 -20 13 -31 -14 -11 -31 -56 -92 -107 -146 -29 -31 -33
-38 -19 -44 9 -3 21 -3 27 1 6 4 17 2 24 -4 14 -12 46 -5 46 10 0 5 5 9 11 9
8 0 7 -6 -2 -17 -11 -13 -11 -17 -1 -20 6 -3 12 -12 13 -21 0 -11 2 -12 6 -4
2 6 21 12 41 12 26 0 33 -3 25 -11 -21 -21 -3 -47 39 -54 29 -5 38 -11 34 -22
-3 -8 -3 -39 0 -70 6 -43 12 -57 28 -63 17 -7 18 -9 3 -9 -15 -1 -15 -4 -5
-21 13 -20 13 -20 34 3 11 12 29 44 39 70 17 48 17 49 -4 71 -25 26 -26 36 -6
36 25 0 48 -58 42 -107 -5 -44 -29 -83 -53 -83 -7 0 -16 -9 -19 -21 -10 -29
-46 -41 -68 -21 -9 8 -20 12 -24 9 -14 -15 -11 -63 7 -92 16 -27 18 -37 9 -70
-6 -21 -8 -52 -5 -68 5 -23 0 -38 -19 -63 -14 -18 -25 -45 -25 -59 0 -17 -9
-35 -25 -47 -29 -22 -32 -40 -10 -58 8 -7 15 -16 15 -21 0 -17 -40 -9 -57 11
-19 22 -48 26 -58 10 -4 -6 4 -19 17 -30 l23 -19 -22 -1 c-13 0 -23 -4 -23
-10 0 -18 -25 -11 -38 11 -7 11 -19 18 -26 16 -8 -3 -19 0 -25 6 -8 8 -14 8
-23 -1 -9 -9 -14 -7 -24 6 -12 16 -13 16 -19 0 -11 -28 -28 -21 -21 8 5 19 3
25 -6 22 -7 -3 -13 -16 -13 -29 0 -20 -5 -24 -29 -24 -22 -1 -31 5 -40 27 -8
19 -15 25 -22 18 -13 -13 -44 -2 -44 15 0 8 22 15 64 20 46 4 72 13 92 30 27
23 54 38 87 49 12 4 17 14 15 28 -2 19 -11 24 -48 29 -25 3 -57 12 -73 19 -30
15 -32 14 -41 -17 -6 -20 -4 -23 21 -23 15 -1 39 -7 53 -15 l25 -14 -40 -17
c-65 -28 -114 -26 -141 5 -20 23 -23 24 -29 9 -4 -10 -18 -18 -31 -18 -15 0
-24 -6 -24 -15 0 -8 -4 -15 -10 -15 -5 0 -10 -7 -10 -15 0 -8 -5 -15 -10 -15
-6 0 -13 7 -16 15 -11 28 -26 16 -19 -15 9 -41 -3 -38 -21 5 -21 50 -18 98 6
113 11 7 20 19 20 27 0 11 11 15 43 14 47 -2 67 5 67 25 0 21 145 63 201 58
18 -2 28 3 33 15 3 10 9 24 12 31 4 10 -1 11 -23 6 -23 -5 -26 -4 -15 7 6 7
12 19 12 26 0 21 -27 15 -33 -7 -3 -11 -12 -20 -21 -20 -15 0 -15 3 -1 30 14
27 14 30 0 30 -8 0 -15 4 -15 9 0 5 -3 16 -6 25 -4 10 -1 16 7 16 8 0 21 5 29
10 13 8 12 12 -7 25 -13 9 -23 27 -23 41 0 22 3 24 43 22 64 -4 54 21 -17 43
-67 22 -100 17 -93 -12 3 -10 1 -19 -4 -19 -14 0 -10 -39 7 -73 42 -80 41 -77
10 -77 -36 0 -43 -20 -15 -41 23 -18 23 -19 3 -19 -22 0 -116 -95 -105 -106 3
-4 -4 -3 -16 0 -14 5 -23 3 -23 -3 0 -14 -52 -14 -82 -1 -25 12 -48 52 -48 83
0 20 59 137 74 149 12 8 -33 47 -55 48 -36 0 -32 98 5 129 9 7 16 17 16 22 0
17 -22 9 -40 -13 -10 -13 -21 -20 -24 -17 -4 3 3 18 15 33 12 15 18 30 14 34
-4 4 -18 -6 -31 -23 -27 -33 -34 -14 -9 22 13 19 13 26 3 43 -7 11 -19 18 -25
15 -15 -5 -17 23 -3 45 8 13 10 12 10 -2 0 -10 7 -18 16 -18 12 0 15 7 12 30
-4 26 -2 29 14 24 13 -4 18 0 18 13 0 33 32 124 84 235 25 55 88 127 156 179
29 22 33 29 22 41 -10 12 -7 22 19 54 37 47 64 63 107 64 17 0 32 3 32 8 0 11
-60 42 -82 42 -23 0 -84 -33 -160 -87 -26 -18 -52 -33 -57 -33 -17 0 -18 25
-2 37 14 11 13 15 -9 33 -29 24 -66 23 -62 -1 1 -11 -8 -21 -25 -27 -34 -13
-124 -63 -138 -77 -21 -20 -55 -68 -55 -76 0 -20 27 -6 50 26 26 36 40 44 40
22 0 -17 -35 -54 -58 -61 -10 -4 -24 -17 -31 -29 -11 -20 -80 -62 -88 -53 -6
5 30 86 39 86 4 0 8 9 8 20 0 11 9 25 20 32 23 15 27 38 6 38 -18 0 -59 -52
-78 -100 -18 -42 -50 -74 -41 -41 8 32 -14 25 -32 -9 -8 -16 -16 -33 -16 -37
0 -5 -3 -10 -5 -12 -16 -16 18 155 38 193 6 11 17 27 25 34 14 15 18 42 5 42
-19 0 -42 -28 -62 -75 -12 -27 -30 -67 -41 -87 -14 -28 -17 -43 -9 -62 6 -16
6 -27 0 -31 -22 -14 -2 -125 22 -125 4 0 8 -7 8 -15 0 -31 -27 -14 -40 26 -15
43 -28 58 -39 41 -3 -6 -15 -10 -26 -9 -18 2 -20 -3 -17 -50 2 -29 0 -53 -6
-53 -9 0 -64 -50 -91 -83 -39 -48 -30 -162 17 -232 15 -22 29 -46 33 -54 5
-13 71 -41 100 -41 8 0 38 -11 65 -25 27 -14 61 -25 75 -25 20 0 29 -8 43 -40
10 -22 27 -45 39 -52 26 -14 78 -12 88 3 3 6 9 -5 13 -25 8 -41 6 -39 41 -26
38 14 50 2 21 -21 -24 -19 -25 -19 -60 1 -20 11 -37 19 -37 17 -5 -9 -9 -62
-9 -115 1 -62 -3 -69 -42 -76 -22 -5 -68 -29 -68 -37 0 -4 -64 -39 -143 -78
-131 -65 -161 -83 -220 -133 -11 -10 -27 -18 -35 -18 -8 0 -22 -10 -32 -23
-10 -13 -38 -30 -62 -38 -47 -15 -131 -68 -163 -102 -12 -12 -44 -57 -72 -101
-29 -43 -65 -86 -80 -96 -25 -15 -103 -81 -191 -161 -18 -16 -48 -40 -67 -53
-18 -13 -49 -39 -68 -57 -18 -19 -52 -49 -75 -67 -42 -33 -53 -64 -29 -79 6
-4 20 -23 31 -41 16 -30 17 -37 5 -60 -8 -15 -22 -33 -31 -40 -9 -7 -31 -36
-48 -65 -30 -50 -70 -111 -88 -132 -27 -33 -142 -291 -142 -319 0 -22 -48
-122 -87 -181 -50 -76 -74 -102 -120 -132 -24 -15 -43 -33 -43 -40 0 -7 -11
-30 -24 -51 -12 -20 -35 -79 -50 -129 -15 -51 -33 -105 -41 -120 -7 -16 -20
-44 -29 -64 -10 -20 -48 -67 -86 -105 -66 -65 -83 -95 -60 -109 6 -4 5 -15 -2
-30 -14 -30 -2 -95 17 -95 8 0 14 5 12 12 -1 7 15 15 41 18 47 7 52 2 22 -25
-21 -19 -29 -85 -9 -85 5 0 8 -4 4 -9 -3 -6 3 -15 14 -20 15 -9 20 -7 25 12 5
21 6 22 21 2 15 -20 16 -20 13 0 -2 12 3 20 12 20 16 0 39 22 107 98 23 26 43
44 46 40 5 -9 -24 -72 -65 -143 l-27 -45 31 -34 c28 -31 32 -32 54 -20 14 7
46 46 71 86 54 88 67 98 57 48 -8 -44 3 -55 59 -55 24 0 40 5 43 15 4 8 12 15
20 15 7 0 21 15 30 33 9 17 22 39 29 47 16 20 34 97 32 140 -2 27 2 34 13 31
8 -2 37 -6 64 -9 39 -4 52 -1 62 13 11 15 8 26 -19 74 -17 31 -34 58 -38 61
-4 3 -10 39 -14 80 -3 41 -13 107 -22 147 -12 57 -12 79 -3 107 12 37 106 166
121 166 5 0 9 5 9 11 0 6 18 32 40 58 22 26 40 51 40 57 1 17 78 94 95 94 11
0 15 6 11 18 -4 13 9 36 41 74 58 67 107 128 111 139 6 14 32 10 29 -3 -1 -8
10 -13 28 -14 17 0 40 -6 53 -13 12 -6 32 -9 43 -6 11 4 26 1 34 -5 12 -10 15
-9 15 2 0 8 13 28 30 44 16 16 30 37 30 46 0 9 5 20 10 23 6 3 10 16 10 27 0
22 30 54 60 63 10 3 21 13 24 21 4 9 13 13 24 10 13 -4 21 2 29 24 6 17 18 30
26 30 8 0 20 14 27 30 7 17 21 35 31 40 23 13 38 13 19 0 -13 -8 -12 -10 3
-10 9 0 17 6 17 13 1 6 9 2 19 -10 10 -11 29 -23 42 -25 24 -3 59 -46 59 -72
0 -7 -7 -19 -15 -26 -23 -19 -74 -97 -80 -123 -3 -12 3 -56 14 -97 24 -93 19
-124 -24 -150 -47 -29 -95 -103 -95 -146 0 -13 -9 -33 -19 -43 -19 -19 -35
-46 -64 -106 -19 -39 -182 -209 -228 -238 -69 -42 -169 -145 -169 -173 0 -8 4
-13 9 -9 5 3 12 1 16 -5 3 -5 -1 -10 -9 -10 -28 0 -18 -37 12 -48 16 -5 35
-16 43 -25 13 -12 74 -49 89 -52 3 -1 18 -7 33 -13 44 -19 66 -22 172 -30
l100 -7 2 -80 c2 -77 -4 -98 -39 -140 -29 -33 -79 -124 -93 -168 -9 -29 -21
-57 -25 -62 -5 -6 -16 -42 -24 -80 -9 -39 -20 -79 -25 -90 -5 -11 -14 -51 -20
-90 -6 -38 -15 -71 -20 -73 -6 -2 -8 -16 -5 -32 4 -15 1 -83 -6 -151 -16 -174
-16 -204 -1 -233 14 -25 11 -33 -56 -141 -7 -11 -16 -28 -19 -38 -8 -22 -66
-138 -97 -192 -64 -115 -79 -190 -72 -351 3 -71 8 -136 11 -145 5 -19 -27 -99
-50 -121 -15 -15 -86 -159 -86 -175 0 -3 -20 -40 -44 -82 -24 -42 -49 -94 -56
-116 -20 -68 -129 -282 -155 -307 -14 -13 -25 -29 -25 -35 0 -23 -74 -92 -120
-112 -25 -11 -58 -34 -75 -51 -28 -29 -32 -44 -34 -118 -1 -22 -7 -35 -18 -38
-57 -19 -78 -34 -112 -79 -36 -47 -42 -51 -112 -67 -41 -9 -96 -20 -124 -23
-27 -4 -70 -14 -95 -22 -25 -8 -89 -26 -142 -38 -54 -13 -117 -32 -140 -43
-24 -11 -63 -26 -88 -32 -25 -6 -83 -25 -130 -42 -47 -16 -132 -45 -190 -64
-58 -20 -128 -46 -155 -60 -28 -13 -56 -24 -62 -24 -11 0 -97 -36 -143 -59 -8
-5 -56 -25 -105 -45 -159 -64 -260 -119 -263 -144 -2 -13 3 -25 13 -28 8 -4
20 -15 26 -26 9 -16 7 -23 -12 -36 -13 -10 -37 -22 -53 -28 -46 -16 -55 -39
-28 -66 22 -22 23 -22 71 -5 60 21 91 22 91 2 0 -11 11 -15 38 -15 31 0 46 7
75 37 21 20 37 31 37 24 0 -7 9 -9 23 -7 12 3 58 12 102 21 82 17 142 33 229
60 51 16 78 13 32 -4 -14 -6 -26 -17 -26 -26 0 -16 46 -12 90 10 14 7 57 22
95 34 39 12 90 30 115 41 42 18 133 46 275 85 33 9 69 21 80 26 11 5 56 18
100 30 44 12 85 25 91 30 9 8 89 34 129 44 6 1 17 5 25 8 8 4 57 20 109 37 52
17 99 34 105 39 27 21 96 20 96 -1 0 -15 -89 -50 -110 -43 -11 4 -20 2 -20 -2
0 -9 -104 -43 -255 -84 -75 -20 -170 -47 -342 -98 -48 -14 -73 -27 -73 -36 0
-21 29 -19 118 9 42 13 97 29 122 36 25 7 60 18 78 26 18 8 73 23 123 34 49
11 128 33 174 50 63 21 85 25 85 16 0 -22 37 -25 72 -6 18 9 53 21 78 25 25 4
61 16 82 26 20 10 56 21 80 24 l43 5 -48 -17 c-26 -9 -46 -21 -44 -27 4 -12 9
-12 77 -3 l45 7 -45 -23 c-72 -36 -70 -34 -53 -67 17 -35 51 -39 110 -15 19 8
45 15 57 15 12 0 26 4 31 9 6 5 21 12 35 16 l25 6 -25 -20 c-14 -11 -35 -21
-47 -21 -32 0 -53 -10 -53 -26 0 -17 19 -18 57 -2 15 6 43 12 62 14 19 2 38 8
42 15 4 7 19 9 40 5 19 -3 70 -8 114 -11 44 -3 102 -7 128 -10 38 -3 56 0 83
18 18 12 34 27 34 32 0 6 9 17 20 25 14 10 20 26 20 54 0 35 -12 66 -72 192
-12 25 -57 79 -66 79 -40 3 -72 41 -72 85 0 11 -5 20 -11 20 -7 0 -9 -10 -5
-25 4 -15 2 -25 -4 -25 -15 0 -29 43 -18 56 6 8 -3 19 -28 35 -34 21 -35 23
-18 36 10 7 26 13 36 13 10 0 61 22 114 50 56 28 128 56 171 66 40 9 79 21 86
28 20 18 116 56 207 82 47 13 114 35 149 49 36 14 68 25 73 25 5 0 27 9 51 20
37 17 68 26 207 60 90 21 157 42 175 54 32 20 77 29 85 16 5 -9 35 -2 106 24
104 37 185 58 193 50 3 -3 -1 -9 -9 -14 -15 -9 64 -3 90 8 8 3 63 7 121 8 59
1 112 5 119 9 7 4 16 1 22 -6 8 -12 9 -11 5 1 -2 8 6 25 19 36 19 18 23 36 29
123 7 90 6 101 -9 101 -9 0 -16 5 -16 10 0 6 -27 37 -60 69 -59 58 -99 126
-100 167 0 11 -5 25 -11 31 -13 13 -38 127 -34 151 2 10 4 20 4 23 2 12 37 46
86 83 39 29 56 36 77 32 21 -4 42 5 93 39 36 25 69 45 74 45 4 0 16 9 26 20
10 11 24 20 30 20 23 0 125 51 120 60 -5 9 63 70 78 70 4 0 34 19 65 43 31 23
80 51 108 62 54 21 114 61 114 77 0 27 62 61 98 54 23 -5 32 1 57 34 17 21 48
52 70 68 22 17 51 40 65 52 14 12 40 34 58 47 17 14 32 30 32 35 0 12 69 91
84 97 6 2 48 42 94 88 45 46 87 81 92 78 6 -3 7 1 4 9 -3 9 -1 16 5 16 6 0 11
5 11 11 0 6 11 25 25 41 14 17 31 50 37 74 13 46 22 54 32 29 7 -19 25 -19 32
-1 5 13 -12 57 -89 230 -20 46 -89 126 -109 126 -5 0 -33 18 -62 40 -29 22
-58 40 -64 40 -7 0 -12 3 -12 8 0 20 -155 65 -281 82 -45 6 -83 19 -125 43
-32 19 -104 49 -159 67 -55 19 -116 41 -135 51 -19 10 -47 20 -62 21 -15 2
-30 7 -34 11 -4 4 -16 7 -26 7 -12 0 -18 7 -18 21 0 18 3 19 15 9 32 -27 61
13 31 42 -7 8 -14 34 -14 59 -2 149 -5 175 -17 189 -8 9 -26 43 -40 75 -16 35
-44 75 -67 96 -47 43 -68 80 -68 120 0 17 -12 42 -30 62 -38 43 -38 61 0 84
17 10 30 26 30 38 0 11 7 28 15 39 17 22 32 96 39 188 2 37 10 77 17 89 7 14
11 57 10 108 -2 123 -6 119 92 113 45 -3 84 -9 85 -13 2 -5 10 -9 18 -9 8 0
14 -6 14 -14 0 -7 8 -17 18 -20 30 -11 62 -33 56 -38 -3 -3 11 -11 31 -18 52
-17 86 -36 78 -43 -3 -4 1 -7 10 -7 10 0 17 -4 17 -10 0 -8 71 -5 125 5 24 5
50 47 59 95 6 37 25 58 73 84 15 8 37 27 48 41 11 14 34 41 52 60 18 18 35 45
39 59 3 14 9 26 13 26 4 0 20 20 35 45 16 25 32 45 36 45 13 0 80 73 80 88 0
8 11 35 24 61 42 80 124 255 130 277 8 26 55 68 81 72 26 5 65 30 65 42 0 22
43 8 71 -22 16 -18 29 -35 29 -39 0 -4 14 -12 30 -19 17 -7 30 -16 30 -20 0
-4 14 -13 30 -20 17 -7 30 -16 30 -21 0 -5 7 -9 15 -9 8 0 50 -18 92 -40 43
-22 84 -40 91 -40 6 0 12 -5 12 -11 0 -6 7 -8 15 -5 9 3 34 -5 55 -19 22 -14
42 -25 45 -25 14 0 114 -52 124 -64 6 -7 24 -16 39 -20 15 -3 62 -39 105 -81
43 -41 85 -75 94 -75 8 0 17 -9 20 -20 3 -11 10 -20 16 -20 5 0 25 -16 44 -35
19 -19 41 -35 49 -35 11 0 13 -6 9 -20 -9 -28 12 -60 40 -60 13 0 26 -4 29 -9
9 -15 46 0 58 23 6 11 15 23 19 26 4 3 13 26 20 51 11 42 11 47 -9 67 -12 12
-27 22 -33 22 -6 0 -16 6 -24 13 -7 6 -41 37 -76 67 -34 30 -93 84 -131 119
-61 58 -68 68 -68 103 0 46 -10 67 -53 112 -18 18 -41 53 -51 77 -36 87 -81
175 -106 204 -52 62 -165 169 -209 196 l-45 29 0 77 -1 78 -30 3 c-25 2 -34
10 -48 42 -11 26 -25 42 -41 46 -13 3 -29 16 -36 30 -15 27 -7 42 13 26 16
-14 28 -6 20 14 -6 16 -84 19 -112 5 -20 -11 -34 -4 -49 25 -16 29 -75 38
-119 17 -60 -28 -73 -12 -171 197 -30 64 -87 127 -132 146 -19 8 -44 23 -55
34 -21 19 -92 31 -97 16 -3 -7 31 -30 107 -72 45 -25 64 -44 58 -60 -7 -19
-25 -18 -50 5 -14 14 -24 16 -31 9 -10 -10 -67 25 -102 63 -8 9 -53 42 -100
74 -47 32 -90 62 -95 69 -24 26 -78 57 -91 52 -8 -3 -31 1 -52 8 -20 8 -58 20
-85 27 -26 8 -46 18 -44 23 2 5 21 15 43 23 60 21 100 83 52 83 -17 0 -19 3
-10 12 16 16 15 38 -2 38 -21 0 -46 -28 -40 -45 4 -9 0 -15 -7 -16 -8 -1 -30
-3 -49 -5 l-35 -3 28 15 c36 20 35 50 -4 97 -17 21 -29 41 -26 44 7 6 58 -43
74 -71 6 -10 15 -16 22 -12 14 9 15 46 1 46 -5 0 -10 5 -10 11 0 15 -56 84
-116 144 -28 28 -56 61 -63 73 -7 14 -21 22 -36 22 -14 0 -25 5 -25 10 0 41
-146 194 -220 230 -25 12 -53 26 -62 31 -45 24 -78 -2 -42 -32 17 -14 20 -15
62 -17 13 -1 20 -6 17 -12 -3 -5 2 -10 12 -10 19 0 88 -68 79 -78 -3 -3 -32
13 -63 34 -32 21 -62 41 -68 43 -5 2 -29 12 -53 23 -23 10 -55 17 -70 16 -19
-2 -27 2 -27 12 0 11 9 14 33 12 24 -2 32 1 32 12 0 9 -8 16 -20 16 -10 0 -28
9 -39 21 -22 24 -59 23 -74 -2 -8 -13 -4 -23 16 -45 15 -16 27 -34 27 -40 0
-6 9 -21 20 -34 24 -28 18 -40 -20 -40 -18 0 -35 9 -47 23 -10 12 -49 49 -88
81 -38 32 -124 110 -191 175 -155 149 -224 208 -303 257 -91 57 -112 75 -126
117 -13 37 -13 37 15 37 15 0 33 -6 39 -14 6 -7 24 -16 39 -19 20 -4 39 -24
70 -71 45 -69 64 -80 122 -74 37 3 68 43 69 87 1 23 -1 23 -57 17 -49 -6 -58
-4 -67 12 -28 52 -51 82 -62 82 -6 0 -15 9 -18 20 -8 24 -65 50 -111 50 -19 0
-34 5 -34 10 0 20 -19 9 -22 -12 -2 -17 -9 -22 -25 -20 -15 2 -23 -4 -28 -20
-4 -13 -16 -33 -27 -45 -25 -27 -16 -61 19 -69 15 -4 39 -22 56 -40 16 -19 36
-34 44 -34 19 0 125 -62 152 -89 12 -12 26 -21 31 -21 6 0 9 -3 8 -7 -4 -15
27 -53 43 -53 9 0 24 -10 35 -21 10 -12 36 -32 57 -46 21 -13 41 -32 44 -41 7
-18 39 -50 117 -117 26 -22 69 -60 97 -84 27 -24 65 -56 84 -70 19 -14 38 -36
41 -48 3 -13 12 -23 19 -23 21 0 29 -21 13 -36 -22 -22 -70 3 -63 34 7 28 -15
30 -33 2 -13 -21 -32 -27 -32 -9 0 6 7 18 16 27 20 19 1 30 -20 12 -21 -16
-30 5 -10 24 8 9 12 20 9 26 -10 17 -32 11 -38 -10 -3 -11 -10 -20 -16 -20
-17 0 -13 31 6 52 22 24 10 34 -19 14 -31 -22 -38 -20 -38 8 0 19 -4 23 -19
19 -12 -3 -20 2 -24 16 -3 14 -10 19 -21 15 -12 -4 -16 0 -16 15 0 12 -5 21
-12 21 -7 0 -30 19 -53 43 -22 24 -52 51 -68 60 -23 15 -26 21 -17 37 9 17 7
20 -9 20 -11 0 -23 -5 -26 -10 -10 -17 -24 -2 -18 20 4 16 1 20 -17 18 -17 -2
-28 7 -45 36 -12 22 -32 43 -44 47 -22 9 -29 29 -10 29 5 0 7 4 4 10 -4 6 -16
3 -31 -7 -23 -15 -26 -15 -43 4 -11 11 -40 25 -66 32 -26 6 -56 20 -67 31 -14
13 -29 18 -44 14 -20 -5 -23 -1 -29 40 -8 53 2 172 18 201 16 32 53 62 91 75
56 18 171 -17 224 -67 7 -7 20 -13 28 -13 8 0 14 -6 14 -14 0 -7 12 -22 27
-32 15 -9 35 -26 44 -37 26 -33 41 -12 23 31 -8 20 -20 39 -25 41 -6 1 -22 14
-36 27 -14 13 -32 24 -40 24 -8 0 -24 12 -36 26 -25 28 -116 53 -198 54 -38 0
-55 -6 -93 -35z m944 -885 c0 -5 -7 -10 -15 -10 -8 0 -15 5 -15 10 0 6 7 10
15 10 8 0 15 -4 15 -10z m273 -22 c-5 -10 -33 10 -33 23 0 5 9 4 19 -3 11 -7
17 -16 14 -20z m-263 -27 c0 -5 10 -7 21 -4 19 5 20 3 14 -18 -11 -34 -11 -34
-44 -6 -16 13 -27 28 -24 31 10 9 33 7 33 -3z m-194 -68 c-11 -11 -19 6 -11
24 8 17 8 17 12 0 3 -10 2 -21 -1 -24z m321 -35 c21 -18 40 -36 41 -41 2 -4
19 -14 38 -22 19 -8 34 -19 34 -24 0 -21 -28 -10 -68 27 -22 20 -53 45 -68 54
-16 9 -30 21 -32 27 -7 20 17 11 55 -21z m-237 6 c0 -8 -4 -12 -10 -9 -5 3
-10 10 -10 16 0 5 5 9 10 9 6 0 10 -7 10 -16z m373 -27 c20 -19 37 -37 37 -40
0 -14 -23 -6 -52 18 -16 14 -36 25 -44 25 -8 0 -14 7 -14 15 0 25 33 17 73
-18z m-443 -3 c0 -14 -3 -14 -15 -4 -8 7 -15 14 -15 16 0 2 7 4 15 4 8 0 15
-7 15 -16z m315 -50 c14 -9 25 -20 25 -26 0 -5 -20 5 -44 22 -49 33 -77 66
-33 38 15 -10 38 -25 52 -34z m258 11 c20 -14 37 -30 37 -36 0 -12 -24 1 -65
35 -39 33 -20 33 28 1z m-350 -9 c4 -10 1 -13 -9 -9 -7 3 -14 9 -14 14 0 14
17 10 23 -5z m-43 -47 c0 -5 -16 1 -35 13 -45 30 -45 43 0 17 19 -12 35 -25
35 -30z m-577 12 c-20 -13 -43 -57 -43 -81 0 -20 -15 -38 -60 -76 -61 -50 -95
-94 -119 -151 -7 -18 -18 -33 -23 -33 -5 0 -6 -4 -3 -10 3 -5 1 -10 -4 -10 -6
0 -11 2 -11 5 0 12 67 142 83 159 9 11 17 23 17 28 0 4 14 23 31 43 18 20 29
38 26 41 -12 12 -109 -82 -128 -123 -11 -24 -26 -43 -35 -43 -18 0 -18 0 16
68 16 32 33 53 47 56 13 4 30 17 39 31 9 14 22 25 28 25 7 0 41 22 77 50 35
27 66 45 68 39 2 -6 -1 -14 -6 -18z m-185 -8 c-9 -10 -23 -35 -32 -56 -8 -20
-22 -40 -31 -43 -13 -5 -13 -9 -3 -22 11 -13 10 -14 -2 -10 -25 8 -39 46 -27
71 12 25 75 75 96 76 11 1 11 -2 -1 -16z m1073 -19 c7 -8 29 -24 48 -35 50
-26 84 -57 76 -68 -6 -10 -36 -4 -45 10 -3 4 -31 27 -62 52 -32 24 -55 47 -51
51 10 10 20 7 34 -10z m-276 -4 c3 -5 -1 -10 -9 -10 -9 0 -16 5 -16 10 0 6 4
10 9 10 6 0 13 -4 16 -10z m-247 -130 c1 -23 5 -47 9 -53 18 -29 -23 -127 -53
-127 -7 0 -25 -21 -38 -47 -28 -56 -80 -124 -104 -137 -12 -7 -11 -2 4 15 63
73 145 257 150 336 4 74 29 84 32 13z m374 23 c10 -9 18 -22 18 -29 0 -7 8
-10 20 -7 11 3 20 0 20 -6 0 -23 -41 -10 -78 24 -30 28 -33 35 -18 35 11 0 28
-7 38 -17z m-1012 -17 c0 -18 -22 -56 -30 -51 -11 7 8 55 22 55 4 0 8 -2 8 -4z
m1170 -98 c0 -13 -29 -9 -56 8 -19 13 -22 20 -13 30 9 11 16 9 40 -8 16 -12
29 -25 29 -30z m-1287 -4 c-4 -10 -9 -12 -15 -6 -12 12 -1 35 12 27 5 -3 6
-13 3 -21z m1477 8 c0 -5 -12 -15 -27 -23 -16 -7 -35 -20 -44 -29 -37 -34 -59
-49 -59 -40 0 6 12 20 26 33 15 12 32 27 38 33 27 26 66 41 66 26z m-1530 -31
c0 -4 -16 -29 -35 -54 -19 -25 -35 -51 -35 -56 0 -6 -4 -11 -10 -11 -5 0 -10
2 -10 4 0 5 32 62 57 104 13 22 33 30 33 13z m940 -15 c0 -16 -28 -42 -36 -33
-8 7 14 47 26 47 6 0 10 -6 10 -14z m16 -78 c-6 -35 -50 -97 -61 -87 -3 4 8
34 26 68 33 66 45 73 35 19z m654 17 c7 -8 17 -15 23 -15 5 0 24 -10 41 -23
17 -13 39 -26 49 -30 9 -3 17 -11 17 -16 0 -12 -41 -2 -61 16 -9 7 -24 11 -33
7 -11 -4 -16 -1 -16 10 0 8 -13 22 -30 31 -16 9 -30 20 -30 25 0 15 26 12 40
-5z m-1470 -2 c0 -5 -5 -15 -10 -23 -8 -12 -10 -11 -10 8 0 12 5 22 10 22 6 0
10 -3 10 -7z m750 -22 c-6 -12 -15 -21 -21 -21 -10 0 -5 13 14 38 15 19 20 7
7 -17z m169 -1 c17 -17 31 -26 31 -21 0 5 24 0 54 -12 30 -12 52 -25 49 -30
-3 -5 5 -6 17 -2 14 4 20 3 16 -3 -3 -5 12 -12 35 -15 53 -7 57 -13 26 -38
-15 -11 -27 -25 -27 -30 0 -19 -34 -44 -59 -44 -17 0 -29 -8 -37 -24 -16 -31
-32 -41 -72 -41 -32 0 -33 0 -27 38 7 39 20 83 37 118 12 25 7 59 -7 59 -6 0
-11 -16 -13 -35 -2 -20 -13 -43 -28 -57 -40 -37 -61 -28 -25 11 21 24 36 76
22 76 -5 0 -13 -9 -16 -20 -12 -37 -25 -21 -19 21 7 40 6 41 -16 34 -12 -4
-20 -3 -18 1 3 5 8 17 11 27 9 25 30 21 66 -13z m-1059 2 c0 -5 -7 -17 -16
-28 -8 -10 -14 -14 -11 -9 2 6 7 18 10 28 7 17 17 23 17 9z m-234 -37 c15 -14
25 -27 22 -30 -7 -7 -58 34 -58 46 0 14 7 11 36 -16z m1646 -27 c1 -24 1 -55
0 -70 -1 -15 5 -53 13 -85 8 -31 15 -89 15 -128 0 -61 11 -109 23 -95 33 41
57 80 57 93 0 27 12 20 60 -34 25 -27 71 -77 104 -112 32 -34 65 -72 73 -84 8
-12 23 -25 34 -28 10 -4 19 -13 19 -21 0 -8 7 -14 15 -14 7 0 18 -6 22 -14 11
-19 108 -96 121 -96 6 0 18 -7 26 -16 9 -8 28 -17 43 -19 16 -1 27 -8 26 -14
-4 -13 8 -14 40 -2 41 16 51 1 37 -59 -7 -31 -10 -74 -6 -108 10 -88 9 -96
-19 -118 -23 -18 -55 -66 -55 -81 0 -3 6 0 14 6 8 6 20 10 27 9 7 -2 19 10 27
25 10 21 17 26 25 18 15 -15 -31 -80 -126 -175 -44 -45 -90 -97 -102 -117 -22
-33 -27 -36 -77 -37 -30 -1 -67 -6 -82 -12 -38 -14 -56 -4 -156 90 -21 19 -46
42 -56 51 -36 30 -83 87 -106 129 -13 24 -28 52 -35 63 -13 22 -141 146 -188
182 -16 12 -60 32 -97 45 -40 13 -68 27 -68 35 0 8 -15 26 -34 40 -61 47 -88
184 -44 225 12 11 27 20 34 20 6 0 15 8 18 18 4 9 14 31 23 47 17 30 20 64 13
144 -4 37 -1 45 14 47 31 4 84 33 90 49 8 21 28 19 25 -2 -4 -42 -1 -45 44
-38 23 4 55 17 71 28 l28 20 -5 -64 c-3 -35 -11 -90 -17 -121 -16 -73 -10 -92
24 -77 31 15 36 28 42 109 2 36 7 94 11 130 3 36 5 70 3 75 -1 6 -4 17 -5 25
-4 30 -24 69 -45 88 -22 21 -20 42 4 42 8 0 19 7 26 15 21 25 30 17 32 -27z
m159 -32 c28 -14 117 -83 189 -145 25 -21 62 -53 83 -71 36 -31 47 -50 28 -50
-5 0 -29 19 -54 43 -81 75 -165 147 -172 147 -4 0 -5 -9 -2 -20 6 -25 1 -25
-21 -2 -34 33 -93 112 -85 112 4 0 20 -6 34 -14z m-1841 -10 c0 -7 -7 -33 -15
-57 -18 -49 -18 -144 -2 -202 13 -46 7 -53 -30 -34 -35 18 -59 44 -71 78 -14
36 30 167 72 216 15 17 46 16 46 -1z m2090 -1 c7 -8 18 -15 24 -15 11 0 96
-76 96 -85 0 -14 -40 -2 -63 18 -14 12 -44 35 -66 51 -23 17 -41 33 -41 38 0
14 37 9 50 -7z m-1854 -17 c-3 -13 -6 -29 -6 -35 0 -7 -4 -13 -8 -13 -4 0 -6
16 -4 35 2 19 9 35 14 35 6 0 8 -10 4 -22z m-148 -22 c3 -11 0 -16 -7 -12 -6
4 -11 1 -11 -7 0 -8 -11 -38 -23 -67 -17 -38 -26 -49 -32 -40 -5 9 -4 15 3 18
7 2 12 21 12 42 0 22 5 51 12 65 13 29 41 30 46 1z m1526 -23 c-4 -27 -7 -53
-7 -60 0 -7 -3 -11 -6 -10 -3 1 -16 -4 -28 -11 -30 -16 -29 -7 2 30 45 54 29
66 -22 16 -43 -41 -43 -20 -1 29 59 69 72 70 62 6z m-345 -55 c-12 -20 -14
-21 -17 -5 -2 10 2 25 9 34 18 21 23 0 8 -29z m-1009 -41 c0 -5 -4 -5 -10 -2
-5 3 -10 14 -10 23 0 15 2 15 10 2 5 -8 10 -19 10 -23z m1012 -35 c-19 -6 -44
6 -37 18 4 7 14 6 28 -2 14 -7 17 -13 9 -16z m-892 -11 c-6 -12 -15 -21 -21
-21 -5 0 -2 11 7 25 20 30 31 26 14 -4z m-53 -33 c-2 -49 -4 -53 -27 -53 -14
0 -25 6 -24 13 1 6 2 26 3 43 1 23 5 30 16 25 9 -3 15 0 15 9 0 8 4 15 10 15
5 0 9 -23 7 -52z m1323 42 c0 -5 -4 -10 -10 -10 -5 0 -10 5 -10 10 0 6 5 10
10 10 6 0 10 -4 10 -10z m687 -20 c14 -11 21 -20 15 -20 -12 0 -60 39 -49 40
5 0 20 -9 34 -20z m163 -10 c0 -5 -4 -10 -9 -10 -6 0 -13 5 -16 10 -3 6 1 10
9 10 9 0 16 -4 16 -10z m-874 -128 c-12 -11 -14 4 -7 58 l6 55 3 -54 c2 -29 1
-56 -2 -59z m794 60 c-7 -3 -16 2 -21 9 -16 25 -9 32 12 13 13 -12 16 -20 9
-22z m-2046 -20 c-6 -9 -19 -19 -28 -20 -16 -4 -16 -2 -1 28 13 24 20 29 28
21 8 -8 9 -16 1 -29z m1846 -7 c25 -26 21 -32 -9 -15 -20 10 -36 40 -22 40 4
0 18 -11 31 -25z m285 -5 c16 -18 16 -20 1 -26 -19 -7 -46 12 -46 32 0 20 24
17 45 -6z m-100 0 c3 -5 2 -10 -4 -10 -5 0 -13 5 -16 10 -3 6 -2 10 4 10 5 0
13 -4 16 -10z m-1985 -29 c0 -28 -12 -33 -28 -10 -12 18 -12 23 -1 29 17 11
29 3 29 -19z m-80 -46 c-7 -9 -15 -13 -17 -11 -7 7 7 26 19 26 6 0 6 -6 -2
-15z m2130 -5 c9 -16 8 -18 -5 -14 -8 4 -15 12 -15 20 0 20 7 17 20 -6z
m-2183 -12 c-3 -8 -6 -5 -6 6 -1 11 2 17 5 13 3 -3 4 -12 1 -19z m2063 12 c0
-5 -7 -10 -16 -10 -8 0 -12 5 -9 10 3 6 10 10 16 10 5 0 9 -4 9 -10z m200 -35
c0 -3 -9 -1 -20 5 -11 6 -20 17 -20 25 0 11 5 10 20 -5 11 -11 20 -22 20 -25z
m-2112 -29 c4 -18 -13 -36 -34 -36 -7 0 -14 14 -16 31 -4 27 -2 30 21 27 16
-2 27 -10 29 -22z m2052 -1 c0 -12 -19 -12 -23 0 -4 9 -1 12 9 8 7 -3 14 -7
14 -8z m418 -3 c2 -7 -5 -12 -17 -12 -11 0 -31 -10 -44 -22 -55 -51 -78 -68
-89 -68 -9 0 -9 3 0 12 7 7 12 20 12 29 0 10 12 31 26 49 23 27 32 30 67 27
23 -2 43 -9 45 -15z m-292 -47 c9 -18 8 -39 -2 -87 -19 -89 -17 -110 11 -153
21 -30 25 -47 23 -89 -2 -37 -7 -51 -18 -51 -8 0 -16 -10 -18 -23 -3 -18 -6
-21 -17 -12 -16 13 -39 4 -29 -12 4 -6 -3 -8 -17 -6 -16 2 -25 -3 -27 -14 -3
-17 22 -25 53 -18 62 15 76 17 80 11 2 -4 -7 -19 -21 -34 -13 -14 -24 -29 -24
-33 0 -4 -7 -15 -16 -25 -14 -16 -15 -25 -4 -70 8 -31 10 -76 6 -112 -7 -66
-26 -103 -26 -52 -1 47 -16 11 -29 -70 -13 -74 -19 -91 -57 -167 -29 -57 -118
-182 -159 -221 -16 -16 -51 -40 -77 -53 -56 -28 -67 -43 -39 -51 26 -7 15 -31
-27 -55 -25 -15 -32 -16 -41 -4 -9 11 -8 15 5 20 14 5 15 9 5 19 -10 9 -15 8
-25 -5 -21 -29 -39 -22 -31 12 4 17 2 30 -3 30 -13 0 -32 -47 -26 -65 5 -12
-2 -15 -35 -15 -36 0 -41 3 -41 23 0 12 14 39 31 60 33 40 32 60 -2 39 -18
-12 -19 -10 -13 15 4 16 15 48 25 72 11 24 19 54 19 68 0 28 26 83 40 83 5 0
17 17 25 37 46 109 95 191 145 242 87 90 193 209 213 242 12 18 16 36 12 47
-9 22 -18 239 -11 267 3 12 21 41 41 66 19 24 35 50 35 57 0 6 4 12 10 12 15
0 34 43 32 73 -3 34 9 35 24 2z m-119 -17 c-3 -7 -5 -2 -5 12 0 14 2 19 5 13
2 -7 2 -19 0 -25z m508 13 c5 -9 -53 -57 -65 -55 -12 3 -50 -29 -50 -42 0 -18
-37 -37 -45 -23 -7 11 0 21 62 84 37 39 85 56 98 36z m-2245 -66 c0 -8 -4 -15
-10 -15 -5 0 -10 7 -10 15 0 8 5 15 10 15 6 0 10 -7 10 -15z m-360 -36 c0 -11
5 -30 11 -41 9 -16 8 -22 -2 -29 -10 -6 -16 -2 -20 14 -3 13 -12 34 -19 46
-10 19 -10 25 1 32 18 11 29 2 29 -22z m2668 15 c44 -12 13 -60 -35 -55 -6 1
-27 -8 -47 -20 -62 -36 -71 0 -13 54 31 27 52 32 95 21z m-1878 -178 c0 -8 -3
-22 -6 -30 -6 -15 -8 -15 -20 1 -19 26 -17 43 6 43 11 0 20 -6 20 -14z m1648
-30 c15 -8 37 -27 49 -43 12 -15 33 -41 47 -58 30 -34 32 -45 11 -45 -8 0 -15
3 -15 8 0 4 -29 37 -65 74 -78 80 -84 94 -27 64z m193 -49 c-14 -14 -28 0 -36
38 l-6 30 26 -29 c19 -20 23 -32 16 -39z m273 -100 c21 -26 36 -51 32 -54 -4
-4 -21 11 -38 33 -18 21 -61 69 -95 105 -35 36 -60 68 -57 72 7 6 100 -86 158
-156z m-128 66 c69 -67 164 -174 164 -185 0 -5 -7 -8 -15 -8 -8 0 -15 4 -15 9
0 8 -20 31 -128 146 -73 77 -87 95 -75 95 5 0 36 -26 69 -57z m173 -49 c12
-15 21 -31 21 -37 0 -13 -38 21 -51 45 -15 28 7 22 30 -8z m-240 -31 c17 -15
31 -31 31 -35 0 -17 -27 -7 -48 17 -12 14 -26 25 -32 25 -5 0 -10 5 -10 10 0
18 28 10 59 -17z m-109 -3 c0 -5 -4 -10 -10 -10 -5 0 -10 5 -10 10 0 6 5 10
10 10 6 0 10 -4 10 -10z m-282 -83 c2 -28 0 -37 -12 -37 -9 0 -16 5 -16 11 0
5 -4 7 -10 4 -5 -3 -10 -16 -10 -28 -1 -20 -2 -21 -14 -4 -7 9 -19 17 -25 17
-7 0 -11 8 -9 18 2 9 9 16 16 15 6 -2 19 9 28 23 24 36 48 27 52 -19z m474 16
c10 -9 18 -22 18 -30 0 -12 -3 -12 -16 1 -8 9 -20 16 -25 16 -5 0 -9 7 -9 15
0 19 9 19 32 -2z m243 9 c17 -12 36 -52 30 -62 -10 -16 -20 -11 -38 19 -25 42
-21 64 8 43z m-1875 -62 c0 -5 -2 -10 -4 -10 -3 0 -8 5 -11 10 -3 6 -1 10 4
10 6 0 11 -4 11 -10z m1700 -15 c21 -25 1 -31 -22 -7 -18 18 -19 22 -6 22 8 0
21 -7 28 -15z m-200 -145 c0 -13 -11 -13 -30 0 -12 8 -11 10 8 10 12 0 22 -4
22 -10z m488 -8 c2 -7 -3 -12 -12 -12 -9 0 -16 7 -16 16 0 17 22 14 28 -4z
m-328 -2 c13 -9 13 -11 1 -19 -18 -12 -41 -3 -41 15 0 16 18 18 40 4z m297
-52 c-3 -8 -6 -5 -6 6 -1 11 2 17 5 13 3 -3 4 -12 1 -19z m63 -23 c0 -42 -11
-58 -25 -35 -8 13 5 80 16 80 5 0 9 -20 9 -45z m-1830 -15 c0 -5 -4 -10 -9
-10 -6 0 -13 5 -16 10 -3 6 1 10 9 10 9 0 16 -4 16 -10z m-229 -35 c-7 -44
-26 -42 -26 3 -1 23 4 32 16 32 13 0 15 -7 10 -35z m1934 14 c5 -6 5 -13 -2
-20 -7 -7 -19 -3 -39 16 l-29 26 30 -6 c17 -4 34 -11 40 -16z m41 -37 c-12
-11 -18 7 -10 30 l8 23 4 -23 c2 -13 1 -26 -2 -30z m-3416 -24 c0 -19 -18 -43
-25 -36 -9 9 4 48 16 48 5 0 9 -6 9 -12z m3625 -80 c6 -4 2 -8 -7 -8 -10 0
-18 7 -18 17 0 9 3 12 8 7 4 -5 12 -12 17 -16z m-3649 -44 c-3 -8 -10 -12 -16
-9 -7 4 -6 14 2 28 12 24 24 8 14 -19z m873 12 c-2 -2 -15 -9 -29 -16 -23 -12
-24 -12 -11 3 7 10 20 17 29 17 8 0 13 -2 11 -4z m-527 -78 c-7 -7 -12 -8 -12
-2 0 14 12 26 19 19 2 -3 -1 -11 -7 -17z m399 1 c-12 -12 -25 -18 -28 -15 -4
3 2 13 13 21 29 22 41 18 15 -6z m-766 -19 c-10 -11 -23 -20 -28 -20 -6 0 0
11 13 25 27 29 42 25 15 -5z m1685 20 c0 -5 -2 -10 -4 -10 -3 0 -8 5 -11 10
-3 6 -1 10 4 10 6 0 11 -4 11 -10z m-2058 -42 c-7 -7 -12 -8 -12 -2 0 14 12
26 19 19 2 -3 -1 -11 -7 -17z m684 7 c-11 -8 -25 -15 -31 -15 -6 0 -29 -17
-51 -37 -62 -59 -144 -128 -157 -131 -7 -2 15 21 48 50 33 29 75 69 95 88 19
19 49 40 65 46 42 16 53 16 31 -1z m74 -36 c0 -5 -4 -9 -10 -9 -5 0 -10 7 -10
16 0 8 5 12 10 9 6 -3 10 -10 10 -16z m-430 -1 c0 -19 -18 -43 -25 -36 -4 3
-2 16 5 27 12 24 20 27 20 9z m3970 -51 c0 -5 -4 -5 -10 -2 -5 3 -10 14 -10
23 0 15 2 15 10 2 5 -8 10 -19 10 -23z m-2625 -17 c-3 -5 -10 -10 -16 -10 -5
0 -9 5 -9 10 0 6 7 10 16 10 8 0 12 -4 9 -10z m-1778 -32 c-3 -8 -6 -5 -6 6
-1 11 2 17 5 13 3 -3 4 -12 1 -19z m1858 -28 c-3 -5 -10 -10 -16 -10 -5 0 -9
5 -9 10 0 6 7 10 16 10 8 0 12 -4 9 -10z m-1389 -53 c-14 -15 -26 -31 -26 -37
0 -5 -4 -10 -10 -10 -19 0 -10 22 21 51 38 36 51 32 15 -4z m-986 -31 c0 -8
14 -26 30 -39 17 -14 30 -30 30 -35 0 -18 37 -42 54 -36 13 5 17 2 14 -12 -2
-13 3 -19 15 -18 9 1 17 -5 18 -15 0 -10 2 -11 6 -3 7 19 23 14 16 -5 -6 -15
-4 -16 9 -5 21 17 35 -3 17 -24 -16 -19 -4 -30 16 -14 13 10 15 9 15 -8 0 -20
-34 -67 -112 -155 -42 -47 -78 -100 -98 -144 -5 -13 -13 -23 -17 -23 -5 0 -19
-16 -32 -35 -13 -19 -48 -61 -78 -93 -30 -31 -71 -82 -91 -112 -20 -30 -40
-57 -43 -60 -4 -3 -19 -32 -33 -64 -26 -56 -27 -63 -15 -105 7 -26 15 -50 19
-56 11 -15 19 -56 30 -140 9 -68 29 -119 54 -136 14 -10 -1 -39 -17 -33 -8 3
-25 27 -38 54 -28 58 -50 63 -67 17 -13 -38 -16 -117 -4 -117 4 0 9 -16 10
-35 4 -48 -58 -165 -87 -165 -13 0 2 34 26 58 15 16 9 52 -16 97 -13 23 -23
29 -42 27 -25 -4 -53 -22 -45 -29 7 -7 -49 -119 -78 -158 -38 -49 -48 -43 -20
12 13 25 24 59 24 75 0 16 7 45 15 65 21 49 19 62 -11 74 -35 13 -61 4 -68
-24 -8 -30 -52 -84 -62 -74 -4 4 -2 29 5 55 16 57 15 92 -3 110 -11 12 -18 11
-45 -2 -29 -15 -31 -15 -31 0 0 9 6 28 14 42 8 15 24 56 36 92 12 36 35 92 50
125 15 33 30 76 34 96 4 21 13 42 21 49 8 7 15 19 15 26 0 8 5 14 11 14 6 0
20 11 31 25 11 14 26 25 34 25 15 0 69 69 80 103 4 12 17 38 29 57 13 19 29
53 35 75 7 22 23 56 35 75 12 19 34 69 50 110 15 41 33 80 39 85 7 6 20 31 30
58 10 26 23 53 30 60 7 6 28 41 47 77 67 124 109 176 109 136z m1730 10 c0 -3
-4 -8 -10 -11 -5 -3 -10 -1 -10 4 0 6 5 11 10 11 6 0 10 -2 10 -4z m-853 -12
c-3 -3 -12 -4 -19 -1 -8 3 -5 6 6 6 11 1 17 -2 13 -5z m279 -19 c-26 -19 -42
-19 -26 0 7 8 20 15 29 15 13 -1 13 -3 -3 -15z m1461 9 c-3 -3 -12 -4 -19 -1
-8 3 -5 6 6 6 11 1 17 -2 13 -5z m-1517 -44 c0 -5 -3 -10 -8 -10 -4 0 -19 -11
-33 -24 -29 -27 -69 -50 -75 -43 -5 5 96 85 109 86 4 1 7 -3 7 -9z m1350 -10
c0 -5 -4 -10 -10 -10 -5 0 -10 5 -10 10 0 6 5 10 10 10 6 0 10 -4 10 -10z
m-170 -29 c0 -5 -7 -11 -15 -15 -9 -3 -15 0 -15 9 0 8 7 15 15 15 8 0 15 -4
15 -9z m747 -17 c8 -22 -17 -64 -39 -64 -10 0 -18 4 -18 9 0 5 -3 23 -6 40 -6
29 -5 31 25 31 19 0 34 -6 38 -16z m-740 -90 c-3 -3 -12 -4 -19 -1 -8 3 -5 6
6 6 11 1 17 -2 13 -5z m-1277 -314 c0 -5 -5 -10 -11 -10 -5 0 -7 5 -4 10 3 6
8 10 11 10 2 0 4 -4 4 -10z m926 -87 c-10 -10 -19 5 -10 18 6 11 8 11 12 0 2
-7 1 -15 -2 -18z m-933 -57 c-21 -17 -66 -60 -100 -95 -35 -35 -63 -60 -63
-54 0 11 48 70 93 115 15 15 27 32 27 37 0 6 7 8 15 4 10 -3 15 0 13 8 -2 8 4
13 14 13 10 -1 15 3 12 8 -4 6 0 14 7 19 10 6 15 3 17 -7 2 -9 -13 -30 -35
-48z m-93 -14 c0 -4 -9 -13 -20 -20 -22 -13 -23 -12 -14 12 6 16 34 23 34 8z
m280 -32 c0 -5 -7 -10 -16 -10 -8 0 -12 5 -9 10 3 6 10 10 16 10 5 0 9 -4 9
-10z m-334 -27 c-10 -10 -19 5 -10 18 6 11 8 11 12 0 2 -7 1 -15 -2 -18z m980
12 c-22 -17 -36 -19 -36 -7 0 14 12 22 34 22 21 -1 21 -1 2 -15z m-121 -15 c3
-5 0 -10 -8 -10 -8 0 -28 -7 -46 -16 -46 -23 -50 -9 -4 15 44 23 50 24 58 11z
m-288 -26 c-3 -3 -12 -4 -19 -1 -8 3 -5 6 6 6 11 1 17 -2 13 -5z m723 3 c0 -2
-10 -12 -22 -23 l-23 -19 19 23 c18 21 26 27 26 19z m-810 -17 c0 -13 -28 -25
-38 -16 -3 4 0 11 8 16 20 13 30 12 30 0z m210 -8 c0 -4 -15 -7 -32 -7 -21 0
-33 -5 -33 -14 0 -14 -34 -32 -47 -24 -5 2 -8 0 -8 -5 0 -11 -65 -27 -93 -24
-10 1 -28 -7 -39 -18 -12 -11 -28 -20 -35 -20 -7 0 -13 -4 -13 -10 0 -5 -22
-17 -50 -27 -31 -11 -45 -20 -37 -25 8 -5 7 -8 -5 -8 -9 0 -29 -11 -43 -25
-26 -23 -122 -62 -131 -52 -3 3 15 15 40 27 26 12 46 26 46 32 0 6 8 7 17 4
10 -4 14 -4 10 0 -8 8 71 64 91 64 6 0 12 4 12 10 0 5 12 13 28 16 15 4 38 14
52 23 41 27 92 50 137 61 23 6 45 15 48 20 7 12 85 14 85 2z m-747 -22 c-3
-12 -8 -19 -11 -16 -5 6 5 36 12 36 2 0 2 -9 -1 -20z m1253 -58 c-20 -19 -40
-31 -44 -28 -4 4 11 24 33 44 22 21 42 33 44 28 2 -5 -13 -24 -33 -44z m-1294
-24 c-7 -7 -12 -8 -12 -2 0 6 3 14 7 17 3 4 9 5 12 2 2 -3 -1 -11 -7 -17z
m1483 -55 c-2 -64 -25 -105 -80 -150 -47 -38 -65 -44 -65 -23 0 4 16 15 36 26
32 17 64 58 64 82 0 11 39 102 44 102 1 0 2 -17 1 -37z m-1440 -53 c3 -5 -1
-10 -9 -10 -9 0 -16 5 -16 10 0 6 4 10 9 10 6 0 13 -4 16 -10z m-201 -25 c-5
-13 -34 -30 -34 -19 0 3 5 14 11 25 11 22 31 17 23 -6z m1861 -96 c-8 -12 -35
-12 -35 0 0 11 22 20 33 14 4 -2 5 -9 2 -14z m-1610 -19 c3 -5 1 -10 -4 -10
-6 0 -11 5 -11 10 0 6 2 10 4 10 3 0 8 -4 11 -10z m1325 -30 c0 -5 -5 -10 -11
-10 -5 0 -7 5 -4 10 3 6 8 10 11 10 2 0 4 -4 4 -10z m-660 -49 c0 -9 -24 -21
-41 -21 -16 0 -10 18 9 23 28 8 32 7 32 -2z m640 -21 c0 -18 -38 -53 -49 -46
-16 10 9 56 31 56 10 0 18 -5 18 -10z m-180 -5 c0 -2 -13 -25 -29 -50 -33 -51
-46 -46 -36 15 6 36 10 40 36 40 16 0 29 -2 29 -5z m235 -15 c-10 -11 -24 -20
-32 -20 -7 0 -13 -4 -13 -10 0 -15 14 -12 67 14 46 24 68 30 106 27 28 -2 19
-15 -25 -37 -43 -21 -68 -48 -56 -59 3 -4 16 3 28 15 22 22 95 59 118 60 24 0
12 -18 -24 -35 -35 -16 -42 -43 -11 -37 10 2 27 -6 39 -18 12 -11 35 -20 50
-20 17 0 39 -10 53 -24 13 -13 25 -22 27 -20 9 8 400 -128 418 -146 5 -5 27
-16 92 -44 20 -9 51 -16 70 -16 18 0 50 -9 71 -20 21 -11 42 -18 46 -16 24 15
181 -47 235 -93 17 -15 44 -33 60 -41 16 -8 33 -25 39 -37 6 -13 14 -23 18
-23 9 0 30 -86 31 -129 1 -18 -8 -44 -19 -59 -11 -15 -23 -37 -27 -50 -4 -12
-11 -22 -16 -22 -5 0 -15 -12 -22 -27 -21 -44 -33 -37 -33 19 0 42 -4 53 -17
56 -14 3 -18 -3 -18 -28 0 -18 -6 -33 -15 -36 -8 -4 -15 -19 -15 -35 0 -31
-29 -99 -42 -99 -4 0 -8 -7 -8 -16 0 -12 7 -14 33 -9 54 11 97 28 97 40 0 5
18 27 39 48 25 24 42 52 46 74 4 24 10 32 17 25 6 -6 5 -20 -6 -40 -9 -17 -16
-39 -16 -50 0 -10 -8 -27 -17 -38 -10 -10 -31 -37 -48 -59 -36 -48 -116 -125
-131 -125 -6 0 -23 -17 -39 -37 -46 -59 -149 -159 -181 -176 -16 -8 -44 -29
-61 -46 -33 -31 -53 -39 -53 -21 0 17 -36 11 -55 -10 -21 -23 -104 -43 -165
-38 -39 3 -45 6 -43 25 2 15 -9 32 -34 52 l-36 30 34 20 c19 12 39 23 44 25 6
2 7 6 4 10 -8 8 -68 -18 -96 -43 -26 -21 -30 -41 -10 -41 8 0 26 -11 41 -24
24 -20 26 -24 10 -30 -18 -7 -37 4 -98 57 l-38 34 37 22 c31 18 40 20 47 9 7
-10 9 -9 5 4 -7 21 6 31 63 47 109 32 217 98 195 120 -6 5 -23 11 -40 13 -27
3 -30 7 -30 37 0 32 -24 59 -26 29 -1 -28 -10 -63 -17 -70 -4 -3 -20 -9 -37
-12 -16 -4 -24 -3 -17 0 6 3 12 16 12 28 0 13 11 35 25 49 26 25 21 42 -9 31
-21 -8 -21 14 1 38 9 10 13 21 10 25 -11 10 -59 -41 -92 -97 -17 -27 -35 -50
-41 -50 -15 0 -26 28 -14 35 15 9 12 25 -5 25 -7 0 -18 -8 -24 -17 -16 -30
-24 -7 -8 24 24 44 185 190 230 206 9 3 17 11 17 17 0 14 -8 13 -39 -9 -14
-10 -44 -24 -66 -30 -26 -7 -46 -20 -58 -38 -18 -31 -74 -93 -82 -93 -14 0 -2
47 21 77 36 48 3 45 -39 -4 -18 -20 -45 -50 -60 -67 l-29 -31 24 44 c12 25 42
63 65 85 24 23 43 45 43 49 0 5 16 29 36 53 20 24 32 44 26 44 -6 0 -28 -21
-49 -46 -21 -26 -58 -68 -83 -94 -25 -26 -56 -66 -69 -88 -14 -23 -28 -39 -32
-37 -16 11 12 80 47 116 21 21 34 42 30 46 -4 5 -19 -5 -32 -21 -46 -53 -38
-17 10 45 26 33 45 63 43 66 -10 9 -46 -22 -72 -63 -15 -24 -36 -51 -46 -60
-10 -9 -19 -23 -19 -31 0 -7 -7 -13 -15 -13 -8 0 -15 2 -15 4 0 2 -3 11 -6 20
-4 10 -1 16 9 16 27 0 31 22 8 40 l-23 16 56 60 c31 32 56 62 56 67 0 17 -20
3 -78 -55 -58 -57 -92 -72 -64 -28 7 12 8 20 2 20 -18 0 -10 14 30 55 35 36
50 65 34 65 -3 0 -36 -32 -73 -70 -49 -52 -72 -69 -84 -64 -15 6 -15 11 9 53
14 25 46 62 71 81 54 41 93 79 93 91 0 5 -9 9 -21 9 -18 0 -128 -93 -166 -140
-9 -12 -14 -12 -24 -3 -9 9 -9 19 2 45 16 38 33 56 80 82 19 10 43 27 54 36
11 9 29 21 40 25 17 7 15 9 -14 14 l-34 6 26 31 c15 18 27 35 27 38 0 13 -21
5 -38 -15 -75 -93 -156 -179 -163 -172 -7 8 -12 43 -10 74 1 15 100 119 148
155 10 8 29 22 42 32 14 11 21 24 17 31 -5 8 -19 2 -46 -19 -38 -30 -39 -30
-42 -8 -3 20 -12 12 -63 -52 -32 -41 -61 -77 -63 -80 -5 -7 -22 23 -22 41 0
19 23 71 50 114 31 50 60 105 60 116 0 5 -21 -6 -46 -26 -46 -34 -64 -42 -64
-27 0 12 59 110 70 117 5 3 10 11 10 17 0 18 -52 -2 -75 -28 -11 -13 -28 -24
-38 -24 -14 0 -16 6 -11 28 4 15 14 36 24 47 29 34 54 84 46 92 -4 4 -14 -1
-22 -12 -45 -62 -60 -67 -75 -26 -9 22 -7 25 54 80 21 18 31 11 12 -9z m-410
-10 c-3 -5 -12 -10 -18 -10 -7 0 -6 4 3 10 19 12 23 12 15 0z m218 -27 c5 -27
1 -45 -13 -67 -24 -40 -58 -76 -70 -76 -14 0 -12 67 2 93 17 33 59 87 68 87 4
0 10 -17 13 -37z m-200 -61 c-20 -41 -28 -73 -28 -114 0 -64 -14 -80 -27 -33
-19 63 -10 122 28 182 30 46 38 53 46 39 7 -12 1 -33 -19 -74z m667 12 c0 -2
-12 -4 -27 -4 -21 0 -24 3 -14 9 13 8 41 5 41 -5z m-1289 -9 c-1 -5 -9 -10
-19 -11 -11 -1 -31 -4 -45 -8 -14 -3 -29 -2 -32 4 -3 6 4 10 17 10 13 0 30 5
38 10 18 12 41 9 41 -5z m677 -13 c3 -23 -44 -112 -59 -112 -14 0 -11 24 13
84 21 57 40 68 46 28z m-348 -37 c0 -2 -24 -16 -54 -31 -29 -14 -71 -41 -92
-60 -87 -75 -152 -124 -164 -124 -11 0 -49 -36 -114 -109 -19 -21 -19 -21 6
-21 16 0 29 9 38 25 7 14 22 25 32 25 10 0 34 15 53 33 48 45 63 57 73 57 5 0
16 7 23 16 7 9 38 28 68 43 34 16 64 39 79 61 22 33 95 84 105 74 8 -8 -4 -44
-15 -44 -17 0 -92 -57 -171 -131 -56 -52 -74 -75 -65 -80 22 -14 34 -10 48 17
8 14 28 33 45 41 16 8 41 26 55 39 94 88 139 117 160 104 12 -7 1 -23 -50 -72
-35 -35 -76 -72 -91 -83 -68 -52 -101 -87 -92 -96 13 -13 64 17 93 54 12 15
26 27 31 27 5 0 39 30 74 67 35 37 66 65 67 62 25 -39 27 -48 13 -59 -8 -7
-15 -19 -15 -26 0 -8 -5 -14 -10 -14 -6 0 -36 -19 -66 -41 -30 -23 -69 -50
-87 -59 -36 -20 -45 -57 -12 -52 11 2 25 9 30 16 17 20 127 100 165 118 43 21
50 22 50 3 0 -8 4 -15 9 -15 5 0 13 -21 18 -47 l8 -48 -119 -65 c-123 -67
-150 -90 -129 -111 15 -15 44 -4 85 31 18 16 36 30 40 30 4 0 31 18 60 40 29
22 58 40 64 40 34 0 25 -271 -12 -390 -7 -25 -20 -98 -28 -162 -9 -65 -20
-125 -26 -135 -5 -10 -19 -47 -31 -83 -11 -36 -27 -75 -35 -88 -8 -12 -12 -27
-8 -33 3 -6 -8 -28 -25 -49 -17 -21 -33 -53 -36 -72 -8 -41 -53 -144 -70 -158
-9 -7 -15 -8 -19 -1 -12 18 -58 -8 -114 -65 -29 -29 -60 -54 -68 -54 -8 0 -14
-4 -14 -8 0 -19 -111 -79 -200 -109 -52 -17 -94 -34 -92 -37 1 -3 2 -10 2 -16
0 -20 113 -3 169 26 14 7 27 11 29 9 10 -9 -13 -26 -93 -66 -47 -23 -85 -46
-85 -51 0 -10 -23 -33 -79 -78 -24 -19 -48 -40 -55 -45 -47 -43 -138 -105
-146 -100 -6 4 -33 2 -59 -5 -41 -10 -56 -9 -103 8 -30 11 -68 18 -86 16 -34
-4 -62 16 -62 46 0 34 23 35 50 2 31 -37 40 -40 40 -11 0 29 44 81 58 67 14
-14 28 -3 40 32 10 27 9 30 -9 30 -10 0 -19 7 -19 15 0 21 -17 19 -30 -5 -14
-27 -28 -25 -41 4 -10 20 -6 35 26 95 39 73 41 103 6 60 -17 -20 -20 -21 -21
-6 0 10 18 40 40 68 38 49 48 69 33 69 -13 0 -73 -64 -73 -77 0 -7 -7 -13 -15
-13 -8 0 -15 -7 -15 -16 0 -22 -39 -84 -52 -84 -15 0 -3 68 16 89 8 9 18 30
22 46 6 25 50 96 86 140 47 57 76 101 71 108 -7 11 -56 -44 -110 -123 -21 -30
-43 -60 -50 -67 -6 -7 -17 -29 -23 -48 -11 -34 -30 -48 -30 -22 0 8 14 41 30
75 17 34 30 69 30 77 0 8 4 15 8 15 5 0 17 18 27 40 10 22 39 60 65 84 33 31
50 55 54 80 4 23 3 36 -4 36 -18 0 -11 18 21 50 17 17 29 34 25 37 -3 3 9 17
26 29 18 14 37 41 46 65 22 66 6 61 -48 -15 -24 -33 -61 -53 -43 -22 35 59
133 167 163 180 48 20 68 46 62 84 -3 22 -8 29 -19 25 -13 -5 -13 -3 -2 16 8
11 19 21 26 21 7 0 17 18 23 40 6 22 15 40 21 40 5 0 22 11 37 25 15 14 32 25
39 25 6 0 35 22 65 48 29 27 92 75 140 106 48 32 92 64 99 72 21 26 3 25 -25
-1 -14 -13 -30 -25 -34 -26 -4 0 -38 -20 -75 -43 -38 -22 -85 -51 -104 -62
-20 -12 -38 -26 -42 -30 -9 -14 -52 -36 -58 -31 -2 3 9 13 26 23 17 10 31 22
31 26 0 4 14 15 32 24 35 18 138 112 138 125 0 5 -5 9 -11 9 -14 0 -101 -63
-145 -105 -17 -16 -48 -43 -68 -60 -63 -52 -107 -99 -102 -111 5 -13 -36 -55
-71 -73 -33 -17 -28 -4 15 44 126 142 157 175 165 175 4 0 33 25 63 55 31 30
60 55 65 55 5 0 9 5 9 10 0 52 -184 -82 -244 -177 -14 -24 -31 -43 -36 -43 -6
0 -10 -6 -10 -13 0 -7 -18 -33 -40 -57 -22 -25 -45 -51 -51 -57 -14 -18 -32
-16 -25 2 3 8 1 15 -5 15 -16 0 -3 44 21 72 10 12 55 66 99 118 43 52 113 128
155 169 42 41 76 78 76 82 0 15 -28 10 -34 -6 -3 -8 -28 -29 -56 -46 -27 -17
-50 -35 -50 -40 0 -11 -45 -63 -104 -120 -39 -38 -72 -56 -82 -46 -10 10 26
67 68 108 23 23 54 60 68 83 15 22 65 82 113 131 48 50 87 93 87 98 1 28 -66
-32 -168 -151 -25 -29 -47 -50 -50 -47 -3 2 0 10 5 17 5 7 13 20 16 29 4 13 1
16 -16 11 -21 -5 -21 -5 -1 15 10 12 37 36 59 54 45 37 53 56 22 51 -19 -4
-19 -3 2 26 12 17 50 57 85 89 50 46 72 59 100 61 38 3 46 -7 21 -28 -16 -13
-20 -40 -7 -40 5 0 17 9 27 20 22 25 90 60 115 60 40 0 29 -24 -40 -90 -43
-40 -70 -72 -66 -79 5 -8 17 -4 39 11 47 34 111 98 98 98 -7 0 -9 5 -5 11 4 8
9 7 14 -2 6 -9 20 -4 53 23 24 20 59 43 78 51 34 15 69 21 69 12z m498 -22 c3
-20 -45 -103 -60 -103 -4 0 -10 11 -14 24 -4 17 3 37 22 65 28 43 47 48 52 14z
m-1179 -20 c-32 -36 -52 -52 -65 -53 -16 0 59 79 75 79 10 1 7 -8 -10 -26z
m89 -5 c2 -9 -17 -38 -42 -65 -25 -26 -51 -60 -57 -75 -6 -16 -15 -28 -20 -28
-5 0 -9 -4 -9 -10 0 -5 -15 -25 -32 -44 -18 -18 -38 -42 -45 -52 -11 -18 -12
-18 -12 4 -1 12 8 30 19 39 11 10 20 26 20 36 0 24 18 58 42 78 10 9 18 21 18
26 0 6 9 18 20 28 11 10 20 22 20 26 0 5 10 20 22 34 24 28 51 29 56 3z m974
-31 c-1 -15 -20 -52 -41 -81 -31 -45 -39 -51 -47 -38 -12 18 -1 58 34 115 27
46 59 48 54 4z m-878 14 c6 -9 -41 -61 -55 -61 -5 0 -9 7 -9 16 0 33 -25 5
-28 -32 -3 -36 -53 -110 -134 -198 -28 -31 -21 -6 12 43 17 24 30 52 30 61 0
19 36 74 89 139 25 30 41 41 62 41 15 0 30 -4 33 -9z m-1874 -11 c0 -5 -4 -10
-10 -10 -5 0 -10 5 -10 10 0 6 5 10 10 10 6 0 10 -4 10 -10z m2893 -58 c0 -27
-7 -46 -22 -61 -11 -11 -21 -27 -21 -35 0 -8 -14 -25 -30 -38 -17 -13 -43 -35
-57 -50 -32 -34 -53 -36 -53 -4 0 15 12 35 32 51 27 23 98 125 98 141 0 3 7
16 16 30 22 32 37 18 37 -34z m-2453 29 c0 -10 -7 -24 -15 -31 -8 -7 -15 -19
-15 -26 0 -8 -5 -14 -11 -14 -7 0 -8 7 -4 18 3 9 9 29 12 45 6 30 33 37 33 8z
m-290 -33 c0 -16 -41 -58 -57 -58 -20 0 -16 10 15 41 29 31 42 36 42 17z
m2639 -2 c17 -20 0 -50 -38 -66 -46 -19 -53 -9 -23 37 29 46 42 52 61 29z
m301 -43 c0 -5 -4 -15 -10 -23 -11 -18 -25 -7 -17 15 6 15 27 21 27 8z m-185
-43 c3 -5 8 -18 10 -27 2 -10 12 -38 22 -63 13 -33 17 -73 17 -145 0 -68 4
-103 12 -110 7 -5 16 -35 19 -67 6 -49 5 -57 -11 -61 -15 -4 -14 -5 5 -6 17
-1 21 -4 14 -13 -6 -8 -10 -91 -10 -191 l-1 -178 -31 -50 c-17 -28 -31 -53
-31 -57 0 -4 -11 -20 -24 -37 -20 -25 -26 -28 -40 -16 -9 7 -16 19 -16 26 0 7
-7 15 -15 19 -12 4 -13 11 -5 32 6 15 8 29 6 32 -3 2 -1 12 3 21 23 41 40 208
42 388 2 180 1 193 -19 228 -12 20 -22 47 -22 61 0 13 -4 24 -9 24 -12 0 -25
-56 -16 -70 3 -5 8 -28 11 -51 5 -44 1 -51 -61 -95 -54 -37 -55 -37 -55 -10 0
15 10 35 25 48 14 12 25 27 25 34 0 6 9 14 20 17 24 6 27 27 3 27 -13 0 -14 3
-5 12 7 7 12 18 12 26 0 10 -4 10 -22 -2 -12 -9 -28 -16 -35 -16 -15 0 -17 46
-3 55 6 4 20 27 32 51 11 24 30 52 42 62 12 9 37 38 55 65 35 48 45 55 56 37z
m95 -110 c0 -5 -5 -10 -11 -10 -5 0 -7 5 -4 10 3 6 8 10 11 10 2 0 4 -4 4 -10z
m-1458 -35 c-4 -24 -38 -53 -48 -42 -4 4 43 67 51 67 1 0 0 -11 -3 -25z m1168
-5 c0 -5 -5 -10 -11 -10 -5 0 -7 5 -4 10 3 6 8 10 11 10 2 0 4 -4 4 -10z
m-1159 -123 c-22 -36 -71 -67 -71 -44 0 12 82 88 89 82 2 -2 -6 -19 -18 -38z
m1158 -59 c-8 -14 -14 -18 -17 -10 -4 13 17 46 25 38 3 -2 -1 -15 -8 -28z
m111 -101 c0 -18 -8 -40 -17 -49 -10 -9 -23 -23 -30 -30 -21 -23 -42 -38 -53
-38 -16 0 -12 10 15 46 14 18 25 39 25 46 0 21 29 58 46 58 9 0 14 -11 14 -33z
m-1240 -22 c0 -14 -44 -86 -71 -116 -17 -19 -34 -38 -37 -44 -11 -16 -72 -56
-72 -48 0 5 16 32 35 60 19 29 35 56 35 60 0 10 89 93 101 93 5 0 9 -2 9 -5z
m1150 -9 c0 -8 -5 -18 -11 -21 -5 -4 -15 -19 -22 -33 l-11 -27 -4 33 c-4 35
11 62 34 62 8 0 14 -6 14 -14z m73 -60 c-15 -26 -71 -84 -96 -101 -25 -16 -25
-16 -20 5 3 11 30 41 60 66 58 46 69 53 56 30z m347 -12 c0 -8 -4 -12 -10 -9
-5 3 -10 10 -10 16 0 5 5 9 10 9 6 0 10 -7 10 -16z m100 -18 c0 -3 -4 -8 -10
-11 -5 -3 -10 -1 -10 4 0 6 5 11 10 11 6 0 10 -2 10 -4z m-440 -41 c0 -30 -3
-35 -23 -35 -13 0 -28 -5 -35 -12 -9 -9 -12 -8 -12 5 0 9 3 17 8 17 4 0 16 14
27 30 26 39 35 38 35 -5z m370 11 c0 -16 -24 -38 -33 -30 -7 7 14 44 25 44 5
0 8 -6 8 -14z m70 -25 c0 -23 -36 -69 -46 -59 -4 5 0 16 8 25 8 10 18 26 21
36 8 23 17 22 17 -2z m-193 -13 c-3 -8 -6 -5 -6 6 -1 11 2 17 5 13 3 -3 4 -12
1 -19z m-258 -45 c-1 -31 -15 -58 -23 -45 -5 8 -14 4 -29 -12 -12 -14 -32 -27
-44 -31 -39 -11 -28 29 19 69 45 39 78 47 77 19z m836 -80 c-12 -17 -20 -23
-23 -15 -4 14 28 56 36 47 3 -2 -3 -17 -13 -32z m-184 -6 c-16 -16 -26 0 -10
19 9 11 15 12 17 4 2 -6 -1 -17 -7 -23z m-681 -15 c0 -23 -50 -94 -82 -116
-13 -9 -23 -22 -23 -29 0 -6 -8 -13 -17 -15 -25 -5 -23 30 2 46 11 6 29 30 40
52 35 68 80 103 80 62z m-1380 1 c0 -15 -35 -93 -41 -93 -16 0 -19 54 -4 76
14 22 45 33 45 17z m1890 -17 c0 -15 -14 -35 -21 -30 -15 9 -10 34 6 34 8 0
15 -2 15 -4z m110 -26 c0 -27 -3 -30 -30 -30 -34 0 -40 19 -14 44 25 26 44 20
44 -14z m195 -10 c0 -18 -33 -26 -47 -12 -6 6 -7 15 -3 22 10 16 50 8 50 -10z
m-511 -22 c8 -14 7 -20 -6 -30 -9 -7 -32 -40 -50 -72 -40 -72 -67 -88 -40 -24
11 23 17 49 15 56 -3 7 9 17 28 24 29 10 31 12 14 24 -21 16 -13 47 11 42 9
-2 22 -11 28 -20z m83 -62 c-1 -6 4 -10 12 -8 20 4 71 -8 71 -17 0 -4 -47 -55
-105 -113 -58 -58 -105 -110 -105 -116 0 -6 -29 -40 -65 -77 -36 -36 -65 -69
-65 -73 0 -4 -25 -34 -55 -67 -83 -91 -99 -105 -111 -105 -7 0 -14 -4 -16 -9
-4 -11 -126 -71 -145 -71 -8 0 -34 -11 -59 -25 -25 -14 -50 -25 -57 -25 -7 0
-29 -11 -49 -25 -20 -14 -44 -25 -52 -25 -9 0 -16 -4 -16 -9 0 -5 -12 -12 -27
-16 -36 -7 -88 -53 -96 -83 -8 -34 17 -119 44 -148 12 -13 40 -29 60 -35 20
-7 51 -27 69 -45 17 -19 36 -34 41 -34 6 0 8 -4 4 -9 -3 -5 -1 -13 5 -16 6 -4
10 -3 9 2 -4 21 3 22 31 8 17 -9 35 -26 40 -38 4 -12 31 -50 58 -83 51 -63 68
-96 63 -126 -1 -10 2 -18 7 -18 5 0 12 -11 14 -24 5 -22 0 -24 -121 -51 -207
-45 -272 -57 -346 -62 -52 -4 -75 -10 -88 -24 -10 -10 -28 -19 -40 -19 -12 0
-44 -7 -72 -16 -85 -26 -239 -53 -251 -43 -6 5 -19 2 -31 -6 -12 -8 -28 -13
-35 -10 -16 7 -95 -20 -118 -39 -8 -7 -42 -18 -75 -25 -33 -6 -91 -26 -130
-45 -38 -19 -117 -49 -175 -67 -58 -18 -110 -39 -116 -48 -6 -8 -25 -14 -42
-13 -17 0 -32 -5 -34 -11 -6 -17 -2 -87 7 -122 6 -24 5 -28 -5 -18 -21 20 -40
106 -26 122 8 11 8 15 -1 18 -7 3 -13 9 -13 14 0 4 6 6 13 3 8 -3 22 14 37 43
13 26 34 62 47 79 13 17 23 36 23 43 0 7 5 9 11 6 5 -4 15 7 22 24 6 17 14 31
18 31 4 0 26 26 50 57 24 31 57 71 72 87 16 17 37 47 47 67 10 19 36 53 57 75
21 22 49 54 63 72 14 18 31 39 37 47 7 7 13 16 13 19 0 3 16 27 36 52 22 30
31 50 24 54 -7 4 -4 13 9 24 12 11 20 13 23 6 5 -16 134 12 183 41 22 13 60
39 85 57 25 19 58 43 74 55 51 38 78 61 121 102 23 22 75 72 116 111 100 96
189 192 189 205 0 6 6 17 14 25 8 7 16 19 18 26 6 17 120 17 126 0 2 -7 11
-12 20 -12 25 0 155 87 142 95 -15 9 -2 25 22 25 13 0 18 -5 15 -14 -6 -14 56
11 123 49 14 8 44 23 67 34 39 19 49 31 90 111 10 19 34 51 54 70 32 31 56 71
72 122 6 18 77 22 74 4z m383 -11 c0 -9 -36 -41 -53 -48 -29 -11 -20 21 11 37
28 16 42 19 42 11z m-850 -56 c0 -5 -7 -9 -15 -9 -15 0 -20 12 -9 23 8 8 24
-1 24 -14z m-110 -23 c0 -15 -30 -50 -37 -43 -6 7 19 57 29 57 4 0 8 -6 8 -14z
m80 -11 c0 -20 -57 -82 -66 -73 -4 5 0 16 9 26 10 10 17 25 17 33 0 19 20 40
32 33 4 -3 8 -12 8 -19z m80 15 c0 -5 -4 -10 -10 -10 -5 0 -10 5 -10 10 0 6 5
10 10 10 6 0 10 -4 10 -10z m80 -20 c0 -5 -4 -10 -10 -10 -5 0 -10 5 -10 10 0
6 5 10 10 10 6 0 10 -4 10 -10z m-1381 -56 c-37 -67 -59 -84 -59 -44 0 19 68
96 76 87 3 -3 -5 -22 -17 -43z m1951 -7 c0 -13 -56 -41 -107 -53 -15 -4 -38
-14 -50 -22 -21 -13 -23 -13 -23 2 0 9 6 18 13 20 78 22 106 33 126 48 28 21
41 23 41 5z m65 -78 c-4 -5 -14 -9 -24 -9 -10 0 -29 -8 -42 -18 -13 -10 -40
-25 -59 -34 -19 -9 -84 -39 -143 -67 -60 -28 -111 -51 -114 -51 -3 0 -30 -12
-60 -26 -52 -26 -69 -29 -55 -9 18 25 98 68 319 172 23 11 41 22 39 24 -3 2 8
5 22 5 15 1 45 8 67 17 40 15 60 14 50 -4z m-2031 -7 c-6 -4 -13 -15 -17 -24
-6 -16 -27 -26 -27 -13 0 15 27 45 40 45 9 0 11 -3 4 -8z m2126 -10 c0 -4 -33
-22 -72 -41 -40 -18 -127 -59 -193 -91 -66 -32 -154 -72 -195 -90 -41 -18 -79
-36 -85 -40 -22 -17 -197 -81 -203 -75 -9 8 28 36 39 30 4 -3 20 8 36 23 15
16 40 32 55 35 15 4 84 34 153 67 68 33 129 60 134 60 5 0 25 9 43 19 18 11
65 31 103 46 39 14 86 35 105 45 35 20 80 26 80 12z m-400 -16 c0 -3 -4 -8
-10 -11 -5 -3 -10 -1 -10 4 0 6 5 11 10 11 6 0 10 -2 10 -4z m35 -16 c3 -5 1
-10 -4 -10 -6 0 -11 5 -11 10 0 6 2 10 4 10 3 0 8 -4 11 -10z m393 -11 c-2 -7
-26 -20 -53 -31 -28 -11 -51 -24 -53 -29 -2 -5 -10 -9 -19 -9 -8 0 -27 -8 -41
-18 -25 -16 -110 -58 -336 -162 -49 -22 -115 -50 -148 -61 -33 -11 -67 -24
-76 -28 -38 -20 -183 -63 -190 -57 -9 9 18 26 42 26 11 0 27 6 35 14 9 7 45
24 81 36 36 12 101 40 145 61 142 68 268 126 335 154 36 15 70 31 77 36 6 6
24 14 40 19 15 5 55 20 88 34 68 29 78 31 73 15z m81 -33 c-15 -13 -62 -38
-105 -56 -44 -17 -84 -38 -90 -46 -6 -7 -13 -11 -16 -8 -3 3 -53 -18 -112 -46
-59 -27 -109 -50 -112 -50 -3 0 -42 -18 -88 -40 -45 -22 -88 -40 -95 -40 -7 0
-27 -7 -44 -16 -57 -30 -64 -32 -111 -39 -25 -4 -46 -11 -46 -15 0 -9 -46 -30
-65 -30 -8 0 -15 5 -15 10 0 6 4 10 10 10 5 0 33 11 62 24 29 14 87 39 128 56
41 18 103 45 138 61 34 16 65 29 68 29 3 0 65 29 137 64 296 144 362 171 377
158 3 -2 -7 -14 -21 -26z m-1028 -19 c-1 -12 -15 -9 -19 4 -3 6 1 10 8 8 6 -3
11 -8 11 -12z m769 -137 c0 -6 -42 -30 -92 -54 -182 -86 -234 -109 -278 -127
-25 -9 -84 -33 -132 -52 -49 -20 -88 -32 -88 -28 0 4 19 16 43 26 23 10 60 26
82 36 22 9 92 40 155 68 64 27 158 70 210 95 110 52 100 49 100 36z m-1120 -4
c0 -3 -6 -11 -12 -18 -7 -7 -33 -40 -58 -73 -24 -33 -61 -76 -81 -95 -73 -70
-131 -121 -135 -117 -8 8 57 84 100 117 38 29 45 39 40 60 -4 20 1 29 26 43
16 10 30 22 30 27 0 5 19 20 43 34 45 27 47 28 47 22z m-1113 -206 c-26 -63
-47 -103 -52 -98 -10 10 17 112 36 138 33 44 42 23 16 -40z m183 -10 c0 -5 -4
-10 -10 -10 -5 0 -10 5 -10 10 0 6 5 10 10 10 6 0 10 -4 10 -10z m1357 -25
c-21 -8 -54 -16 -73 -17 -19 -1 -34 -5 -34 -9 0 -4 -17 -13 -37 -19 -21 -6
-45 -14 -53 -17 -8 -4 -19 -5 -24 -4 -4 1 -13 -2 -20 -7 -17 -13 -95 -36 -102
-30 -3 3 14 15 38 26 86 39 116 52 123 52 4 0 21 7 38 15 31 14 75 21 147 23
l35 1 -38 -14z m257 -14 c-21 -16 -53 -42 -71 -59 -18 -17 -58 -40 -90 -52
-32 -11 -72 -27 -90 -35 -35 -17 -43 -18 -43 -7 0 4 18 17 41 30 22 13 44 34
49 48 5 13 22 29 37 35 16 5 47 19 69 30 23 11 52 22 64 24 13 2 25 7 28 10 3
3 14 5 25 5 16 0 11 -7 -19 -29z m-1764 -18 c0 -24 -31 -83 -41 -77 -13 8 -11
30 6 70 14 34 35 39 35 7z m751 -30 c-78 -102 -112 -133 -169 -155 -26 -10
-53 -18 -59 -18 -19 0 -15 30 5 37 21 8 117 80 207 157 36 31 45 18 16 -21z
m824 27 c-3 -5 -14 -10 -23 -10 -15 0 -15 2 -2 10 20 13 33 13 25 0z m-45 -20
c0 -6 -8 -13 -17 -16 -10 -3 -34 -13 -55 -21 -46 -19 -63 -10 -42 23 14 20 24
24 65 24 27 0 49 -5 49 -10z m-1510 -45 c-6 -15 -13 -25 -17 -22 -3 4 0 21 8
38 16 39 24 24 9 -16z m1370 26 c0 -15 -29 -33 -41 -25 -9 5 -7 11 6 21 22 15
35 17 35 4z m125 -30 c-6 -5 -41 -25 -79 -45 -68 -36 -69 -36 -87 -18 -17 19
-17 20 6 30 13 6 32 10 42 8 10 -2 34 4 53 14 37 19 81 26 65 11z m-271 -26
c-3 -8 -21 -17 -40 -21 -19 -3 -37 -10 -40 -15 -7 -11 -54 -12 -54 -1 0 16
116 63 132 55 4 -2 5 -10 2 -18z m356 -35 c0 -5 -8 -10 -17 -10 -15 0 -16 2
-3 10 19 12 20 12 20 0z m-79 -39 c-19 -17 -40 -27 -50 -24 -14 4 -14 3 -1 -6
13 -9 12 -11 -3 -11 -11 0 -31 -8 -45 -19 -15 -10 -52 -27 -82 -39 -30 -11
-63 -23 -72 -27 -28 -11 -22 20 7 35 14 7 25 17 25 20 0 4 24 17 53 29 28 12
61 26 72 32 22 11 105 37 119 38 5 1 -5 -12 -23 -28z m-261 -1 c12 -7 7 -12
-23 -25 -51 -21 -81 -23 -84 -5 -6 28 74 51 107 30z m373 -1 c21 0 21 -1 -3
-10 -13 -6 -27 -14 -30 -19 -3 -5 -59 -36 -124 -70 -108 -55 -161 -71 -161
-46 0 5 51 36 114 67 63 32 118 64 122 71 5 7 9 9 9 4 0 -6 5 -5 12 2 7 7 19
10 26 7 8 -3 23 -5 35 -6z m-378 -58 c6 -11 -33 -36 -42 -27 -7 7 16 36 28 36
4 0 10 -4 14 -9z m345 -26 c0 -9 -12 -21 -27 -28 -16 -6 -61 -31 -102 -55 -70
-41 -101 -47 -101 -20 0 15 186 117 213 118 9 0 17 -7 17 -15z m70 -25 c0 -5
-4 -10 -10 -10 -5 0 -10 5 -10 10 0 6 5 10 10 10 6 0 10 -4 10 -10z m-80 -34
c0 -13 -142 -106 -162 -106 -5 0 -8 7 -6 17 2 9 37 35 78 59 85 48 90 49 90
30z m-1591 -21 c5 -5 -41 -44 -52 -45 -9 0 -68 -25 -98 -40 -22 -11 -27 -5
-21 25 7 39 77 77 127 70 21 -3 41 -8 44 -10z m1651 -9 c0 -24 -191 -138 -207
-123 -10 11 4 32 33 47 16 8 53 32 84 52 57 39 90 48 90 24z m-1550 -25 c0
-13 -316 -148 -325 -139 -10 10 28 39 85 65 88 41 103 46 118 44 6 -1 12 3 12
9 0 5 6 10 14 10 7 0 26 6 41 14 26 14 55 12 55 -3z m84 -18 c11 -11 -87 -66
-120 -67 -21 -1 -30 -5 -26 -14 2 -7 1 -12 -4 -10 -5 1 -23 -6 -41 -15 -18 -9
-38 -17 -45 -17 -7 0 -61 -25 -120 -54 -70 -35 -108 -49 -108 -40 0 22 63 73
98 80 18 3 34 10 37 14 6 10 106 45 118 42 5 -1 21 7 37 18 15 11 34 20 42 21
7 0 36 11 63 24 56 27 59 28 69 18z m1494 -15 c4 -19 -172 -132 -193 -124 -30
11 -13 35 57 77 124 75 130 78 136 47z m82 -38 c0 -5 -4 -10 -10 -10 -5 0 -10
5 -10 10 0 6 5 10 10 10 6 0 10 -4 10 -10z m-52 -22 c-3 -23 -54 -63 -120 -95
-21 -10 -38 -21 -38 -25 0 -14 -38 -8 -43 6 -7 18 11 33 93 83 98 59 113 64
108 31z m-1543 -8 c-3 -5 -13 -10 -21 -10 -8 0 -12 5 -9 10 3 6 13 10 21 10 8
0 12 -4 9 -10z m1621 -27 c-10 -10 -19 5 -10 18 6 11 8 11 12 0 2 -7 1 -15 -2
-18z m-1676 4 c0 -2 -26 -17 -57 -33 -32 -16 -67 -36 -77 -46 -11 -10 -24 -18
-28 -18 -5 0 -54 -22 -110 -50 -127 -63 -162 -66 -98 -9 25 22 59 46 75 54
101 47 170 75 184 75 9 1 27 7 41 15 22 13 70 21 70 12z m1716 -44 c-27 -23
-56 -31 -56 -15 0 11 30 38 50 44 30 10 33 -6 6 -29z m-116 8 c0 -17 -133
-102 -144 -91 -12 12 -15 9 63 59 65 42 81 48 81 32z m-1614 -43 c-35 -70
-184 -276 -212 -291 -7 -4 -14 -16 -14 -27 0 -27 -81 -145 -113 -163 -16 -10
-25 -22 -21 -28 3 -6 1 -28 -6 -50 -11 -34 -10 -45 8 -96 11 -32 22 -69 24
-83 4 -32 43 -41 53 -12 3 12 35 34 80 56 119 56 385 160 385 150 0 -3 17 4
37 16 74 44 233 93 328 103 22 2 48 7 59 12 33 14 13 -17 -25 -39 -23 -13 -55
-20 -99 -21 -104 -2 -219 -44 -305 -110 -28 -21 -58 -35 -75 -35 -16 0 -62
-18 -104 -40 -41 -22 -80 -40 -85 -40 -5 0 -50 -19 -98 -41 -123 -58 -122 -58
-178 -62 -75 -6 -165 -35 -184 -59 -28 -34 -66 -18 -91 38 -11 26 -20 55 -20
65 0 10 -12 26 -26 35 -22 15 -27 15 -34 3 -7 -11 -12 -11 -22 -1 -9 9 -9 15
-1 23 9 9 9 16 0 29 -8 14 -8 22 2 34 19 22 29 20 33 -6 4 -30 41 -32 46 -3 2
11 8 30 14 42 14 28 3 41 -21 26 -18 -12 -31 -8 -31 9 0 4 9 8 19 8 11 0 23 4
26 10 8 13 93 53 215 100 89 35 124 60 83 60 -10 0 -56 -14 -103 -30 -58 -20
-86 -26 -89 -18 -6 17 35 46 82 59 23 6 67 24 99 40 83 42 92 68 10 33 -58
-25 -154 -56 -158 -51 -7 7 41 35 72 43 16 4 52 18 81 31 28 12 63 27 77 33
14 5 26 14 26 20 0 5 -2 10 -4 10 -7 0 -92 -31 -121 -44 -43 -20 -75 -28 -75
-21 0 13 46 44 75 51 17 3 35 10 40 14 6 4 38 22 73 40 34 17 62 35 62 40 0
23 -26 16 -118 -30 -55 -27 -103 -50 -106 -50 -4 0 1 12 10 26 11 16 64 48
150 90 73 35 135 64 137 64 3 0 31 16 63 35 55 34 86 35 70 3z m1634 -16 c0
-19 -97 -85 -113 -75 -11 6 82 93 101 93 6 0 12 -8 12 -18z m130 -52 c0 -5 -7
-10 -16 -10 -8 0 -12 5 -9 10 3 6 10 10 16 10 5 0 9 -4 9 -10z m-130 -18 c0
-14 -24 -32 -42 -32 -16 0 -17 3 -8 20 10 19 50 29 50 12z m40 -42 c0 -16 -51
-33 -63 -21 -7 7 -2 14 14 20 32 13 49 13 49 1z m30 -30 c0 -5 -4 -10 -10 -10
-5 0 -10 5 -10 10 0 6 5 10 10 10 6 0 10 -4 10 -10z m-270 -10 c0 -5 -5 -10
-11 -10 -5 0 -7 5 -4 10 3 6 8 10 11 10 2 0 4 -4 4 -10z m-130 -10 c0 -5 -15
-10 -32 -9 -28 0 -30 2 -13 9 28 12 45 12 45 0z m-115 -21 c-9 -14 -72 -29
-205 -49 -147 -23 -179 -25 -163 -9 6 6 46 15 89 20 44 5 95 16 114 24 65 28
179 38 165 14z m175 -29 c0 -5 -5 -10 -11 -10 -5 0 -7 5 -4 10 3 6 8 10 11 10
2 0 4 -4 4 -10z m-180 -20 c0 -10 -5 -12 -32 -14 -7 -1 -15 -4 -19 -8 -3 -5
-27 -10 -55 -14 -27 -3 -58 -9 -69 -14 -32 -14 -272 -64 -450 -94 -137 -24
-175 -33 -244 -60 -75 -30 -81 -31 -81 -12 0 23 24 35 96 50 38 8 96 21 129
30 33 8 94 23 135 31 41 9 102 25 135 35 33 10 110 24 170 31 61 6 142 20 180
29 85 21 105 23 105 10z m-830 -124 c-18 -17 -111 -34 -95 -17 6 6 28 15 50
20 57 13 61 13 45 -3z m-144 -41 c-11 -8 -27 -15 -35 -15 -13 1 -12 4 3 15 11
8 27 15 35 15 13 -1 12 -4 -3 -15z m-106 -39 c-8 -8 -26 -17 -40 -21 l-25 -6
25 20 c30 24 64 30 40 7z m104 -25 c8 -12 -13 -28 -49 -37 -17 -4 -62 -22
-102 -40 -39 -19 -74 -34 -79 -34 -6 0 -47 -18 -160 -71 -22 -10 -48 -19 -57
-19 -9 0 -19 -4 -22 -10 -10 -16 -25 -11 -25 9 0 32 14 40 170 95 36 13 86 34
110 46 113 58 201 83 214 61z m-264 -45 c-8 -7 -28 -16 -45 -20 l-30 -7 25 21
c30 23 74 29 50 6z m-110 -40 c0 -11 -19 -15 -25 -6 -3 5 1 10 9 10 9 0 16 -2
16 -4z m-95 -36 c-3 -5 -10 -10 -16 -10 -5 0 -9 5 -9 10 0 6 7 10 16 10 8 0
12 -4 9 -10z m-505 -74 c0 -3 -4 -8 -10 -11 -5 -3 -10 -1 -10 4 0 6 5 11 10
11 6 0 10 -2 10 -4z m68 -88 c7 -7 12 -23 12 -37 l0 -26 -20 25 c-30 38 -23
69 8 38z m-243 -40 c-4 -35 -28 -64 -43 -54 -16 10 -5 49 19 69 28 23 29 22
24 -15z m58 -25 c11 -10 -24 -43 -46 -43 -19 0 -19 1 4 24 27 26 33 29 42 19z
m3 -69 c-8 -8 -22 -14 -30 -14 -25 0 -19 28 7 32 31 6 40 -1 23 -18z m324 -45
c27 -37 22 -44 -24 -29 -37 12 -45 27 -24 48 18 18 24 15 48 -19z m-248 0
c-12 -5 -22 -15 -22 -24 0 -18 -5 -19 -31 -5 -30 16 -23 37 12 38 17 0 33 3
36 6 3 3 10 3 16 -1 6 -3 1 -10 -11 -14z m-373 -4 c-8 -8 -213 -75 -229 -75
-9 0 -44 -13 -78 -30 -34 -16 -71 -30 -82 -30 -10 0 -31 -5 -47 -11 -15 -6
-50 -17 -78 -24 -44 -11 -195 -64 -320 -112 -22 -8 -60 -21 -85 -30 -25 -8
-76 -29 -115 -47 -38 -18 -86 -37 -105 -40 -35 -8 -168 -50 -205 -65 -11 -5
-41 -16 -67 -26 -26 -9 -50 -21 -53 -26 -4 -5 -11 -9 -17 -9 -7 0 -6 6 2 15
13 15 217 117 261 130 13 4 44 16 69 27 48 21 65 28 120 47 380 136 487 172
528 175 18 2 40 10 50 19 9 8 78 31 152 51 74 20 155 43 180 51 42 13 129 21
119 10z m161 -23 c0 -14 -18 -23 -77 -40 -43 -12 -91 -27 -108 -33 -56 -20
-270 -90 -285 -93 -8 -2 -22 -6 -30 -9 -8 -3 -60 -20 -115 -37 -55 -17 -138
-43 -184 -57 -46 -15 -91 -28 -100 -28 -24 -3 -102 -26 -136 -40 -16 -8 -82
-31 -145 -53 -200 -69 -214 -74 -248 -88 -18 -8 -38 -14 -45 -14 -7 0 -44 -16
-83 -35 -38 -19 -78 -35 -89 -35 -19 1 -19 1 2 19 27 23 258 119 332 138 29 8
78 25 110 39 31 14 108 43 171 65 120 42 159 55 350 114 63 19 124 39 135 44
11 5 47 17 80 26 33 9 74 23 92 31 17 8 40 14 50 14 10 0 23 4 28 9 6 4 48 20
95 34 186 55 200 57 200 29z m260 -7 c0 -8 9 -15 20 -15 11 0 20 -5 20 -11 0
-6 -9 -8 -22 -4 -13 4 -31 9 -40 11 -25 7 -23 34 2 34 11 0 20 -7 20 -15z
m536 -40 c-8 -8 -27 -15 -43 -15 -27 1 -27 1 -9 15 11 8 31 15 44 15 21 0 22
-2 8 -15z m-336 -5 c0 -5 -5 -10 -11 -10 -5 0 -7 5 -4 10 3 6 8 10 11 10 2 0
4 -4 4 -10z m-450 -10 c0 -5 -20 -15 -45 -21 -25 -6 -48 -15 -51 -20 -3 -5
-14 -9 -25 -9 -10 0 -27 -4 -37 -9 -9 -5 -39 -17 -67 -26 -27 -9 -59 -20 -70
-25 -11 -4 -49 -16 -85 -25 -125 -33 -225 -70 -279 -102 -30 -18 -64 -35 -75
-38 -12 -3 -104 -32 -206 -65 -220 -70 -401 -126 -565 -175 -66 -19 -124 -40
-129 -45 -6 -6 -21 -10 -36 -9 -25 0 -25 0 5 14 189 86 232 105 240 105 5 0
16 6 24 13 9 7 77 33 151 56 74 24 153 52 175 61 22 9 63 23 90 30 28 7 91 25
140 40 50 16 137 43 195 60 58 18 109 36 114 41 6 5 18 9 27 9 10 0 55 11 101
25 46 14 101 30 123 36 22 6 48 15 57 20 10 5 27 9 38 9 11 0 20 3 20 8 0 4
21 13 48 20 26 7 61 16 77 21 41 12 45 12 45 1z m700 3 c0 -12 -71 -55 -78
-49 -7 8 9 24 40 41 28 16 38 18 38 8z m-5 -59 c-14 -15 -25 -32 -25 -37 0 -7
-4 -7 -11 0 -16 16 -4 42 23 53 37 14 39 12 13 -16z m-605 1 c0 -8 -9 -15 -20
-15 -20 0 -26 11 -13 23 12 13 33 7 33 -8z m-100 -24 c0 -9 -154 -79 -245
-111 -27 -10 -70 -27 -95 -38 -25 -11 -74 -25 -110 -32 -36 -6 -85 -17 -110
-25 -25 -8 -76 -21 -115 -30 -38 -9 -74 -20 -80 -24 -5 -5 -28 -11 -50 -15
-37 -6 -39 -5 -21 9 11 8 27 15 35 15 9 0 25 7 35 15 11 8 34 15 52 15 17 0
64 15 105 34 74 33 154 59 283 92 37 9 89 27 115 40 25 13 53 24 61 24 8 0 38
9 65 19 57 22 75 25 75 12z m348 -29 c2 -8 -10 -12 -40 -11 -23 1 -34 3 -23 6
11 3 24 9 30 14 11 11 27 7 33 -9z m211 -16 c22 -23 29 -36 21 -41 -7 -4 -24
7 -41 26 -50 56 -33 70 20 15z m-481 2 c-4 -12 -16 -19 -58 -35 -104 -41 -220
-74 -220 -64 0 8 109 54 215 92 61 21 68 22 63 7z m160 -16 c2 -7 -6 -12 -17
-12 -21 0 -27 11 -14 24 9 9 26 2 31 -12z m166 0 c2 -4 -15 -12 -40 -18 -52
-12 -56 -8 -11 11 38 17 44 18 51 7z m-119 -42 c-3 -5 -13 -10 -21 -10 -8 0
-12 5 -9 10 3 6 13 10 21 10 8 0 12 -4 9 -10z m328 -7 c-7 -2 -19 -2 -25 0 -7
3 -2 5 12 5 14 0 19 -2 13 -5z m-443 -33 c-8 -5 -19 -10 -25 -10 -5 0 -3 5 5
10 8 5 20 10 25 10 6 0 3 -5 -5 -10z m530 6 c0 -2 -7 -7 -16 -10 -8 -3 -12 -2
-9 4 6 10 25 14 25 6z m-930 -23 c-8 -2 -30 -12 -48 -20 -19 -8 -36 -12 -39
-9 -7 7 57 34 82 34 13 0 15 -1 5 -5z m-265 -85 c-16 -4 -31 -5 -33 -3 -8 7
42 23 53 17 5 -3 -4 -9 -20 -14z m-87 -23 c-15 -8 -55 -21 -90 -29 -35 -8 -98
-28 -140 -44 -83 -32 -160 -50 -143 -34 16 15 139 62 164 62 12 0 32 5 43 11
31 17 139 47 168 48 l25 0 -27 -14z m-304 -35 c-9 -9 -95 -41 -164 -61 -36
-10 -44 -14 -121 -47 -25 -11 -70 -25 -100 -31 -81 -16 -99 -20 -133 -30 -17
-5 -42 -11 -54 -14 -23 -5 -23 -5 -7 13 9 10 31 22 49 26 17 3 36 9 41 13 11
8 67 25 225 72 238 70 285 80 264 59z"/>
<g>
<path d="M4820 7764 c0 -8 5 -12 10 -9 6 4 8 11 5 16 -9 14 -15 11 -15 -7z"/>
</g>
<g>
<path d="M3360 7660 c0 -5 5 -10 10 -10 6 0 10 5 10 10 0 6 -4 10 -10 10 -5 0
-10 -4 -10 -10z"/>
</g>
<g>
<path d="M5335 3923 c-33 -26 -61 -50 -63 -55 -2 -4 -10 -8 -18 -8 -8 0 -14
-4 -14 -10 0 -16 9 -12 70 33 32 23 73 52 91 65 27 17 30 22 14 22 -11 0 -47
-21 -80 -47z"/>
</g>
<g>
<path d="M5254 3935 c-16 -12 -17 -14 -3 -15 9 0 19 7 23 15 7 19 5 19 -20 0z"/>
</g>
<g>
<path d="M5736 3782 c-3 -3 -3 -9 0 -13 7 -12 54 -12 54 0 0 10 -47 21 -54 13z"/>
</g>
<g>
<path d="M5840 3780 c0 -5 5 -10 10 -10 6 0 10 5 10 10 0 6 -4 10 -10 10 -5 0
-10 -4 -10 -10z"/>
</g>
<g>
<path d="M5470 3755 c-14 -8 -33 -14 -42 -15 -22 0 -24 -20 -3 -20 28 0 87 29
80 40 -7 12 -4 12 -35 -5z"/>
</g>
<g>
<path d="M3740 4480 c0 -5 5 -10 11 -10 5 0 7 5 4 10 -3 6 -8 10 -11 10 -2 0
-4 -4 -4 -10z"/>
</g>
<g>
<path d="M3652 4426 c-28 -31 -32 -46 -11 -46 15 0 69 52 69 66 0 24 -26 15
-58 -20z"/>
</g>
<g>
<path d="M3770 4191 c0 -5 6 -14 14 -20 16 -13 32 2 21 19 -8 12 -35 13 -35 1z"/>
</g>
<g>
<path d="M3711 4116 c-12 -13 -19 -26 -14 -29 11 -6 66 26 65 38 -2 20 -28 15
-51 -9z"/>
</g>
<g>
<path d="M4196 3969 c-29 -64 -48 -89 -67 -89 -10 0 -10 -3 -1 -12 16 -16 61
27 94 88 17 33 20 46 11 55 -9 9 -18 -1 -37 -42z"/>
</g>
<g>
<path d="M4161 3778 c-8 -13 -20 -33 -27 -46 -15 -29 -78 -98 -101 -111 -23
-12 -11 -25 16 -16 25 8 101 85 101 103 0 6 4 12 10 12 10 0 40 52 40 70 0 18
-25 11 -39 -12z"/>
</g>
<g>
<path d="M4070 3780 c0 -5 4 -10 9 -10 6 0 13 5 16 10 3 6 -1 10 -9 10 -9 0
-16 -4 -16 -10z"/>
</g>
<g>
<path d="M4115 3589 c-4 -6 -5 -13 -2 -16 7 -7 27 6 27 18 0 12 -17 12 -25 -2z"/>
</g>
<g>
<path d="M4007 3278 c-8 -18 -15 -43 -15 -56 0 -12 -14 -40 -31 -60 -32 -41
-181 -181 -210 -197 -18 -11 -37 -26 -77 -62 -13 -12 -51 -34 -84 -49 -33 -14
-65 -33 -71 -40 -20 -24 17 -28 63 -6 24 11 61 28 82 38 22 10 58 35 80 57 23
22 74 62 114 90 82 57 129 113 138 166 4 20 17 47 29 61 48 53 54 90 15 90
-12 0 -24 -12 -33 -32z"/>
</g>
<g>
<path d="M3130 3135 c-18 -21 -3 -32 16 -13 10 9 12 18 6 22 -5 3 -15 -1 -22
-9z"/>
</g>
<g>
<path d="M3440 2790 c0 -5 7 -10 15 -10 8 0 15 5 15 10 0 6 -7 10 -15 10 -8 0
-15 -4 -15 -10z"/>
</g>
<g>
<path d="M4540 3760 c0 -5 7 -10 15 -10 8 0 15 5 15 10 0 6 -7 10 -15 10 -8 0
-15 -4 -15 -10z"/>
</g>
<g>
<path d="M2520 1570 c0 -5 5 -10 11 -10 5 0 7 5 4 10 -3 6 -8 10 -11 10 -2 0
-4 -4 -4 -10z"/>
</g>
</g>
<g>
<path d="M3906 9161 c-4 -7 -5 -15 -2 -18 9 -9 19 4 14 18 -4 11 -6 11 -12 0z"/>
</g>
<g>
<path d="M4360 8196 c0 -49 -3 -57 -35 -85 -20 -17 -40 -31 -46 -31 -14 0 -31
-18 -59 -65 -32 -54 -66 -95 -73 -88 -10 9 42 85 99 145 30 31 54 63 54 71 0
8 9 22 20 32 22 20 26 40 10 50 -17 11 -159 -76 -206 -125 -61 -64 -134 -167
-137 -192 -1 -14 4 -23 15 -26 12 -2 17 5 20 24 3 31 28 46 28 17 0 -27 10
-35 27 -22 17 14 19 -11 2 -28 -14 -14 -2 -73 16 -73 7 0 15 9 18 20 3 11 9
19 14 18 4 -2 23 11 42 27 32 29 48 49 107 140 15 22 45 60 69 85 31 33 44 56
49 87 7 48 0 73 -20 73 -10 0 -14 -15 -14 -54z m-90 -52 c0 -4 -15 -23 -32
-43 -18 -20 -45 -52 -60 -71 -17 -20 -28 -28 -28 -19 0 9 16 34 35 56 19 23
35 44 35 48 0 9 31 34 43 35 4 0 7 -3 7 -6z"/>
</g>
<g>
<path d="M4205 8220 c-3 -5 1 -10 9 -10 9 0 16 5 16 10 0 6 -4 10 -9 10 -6 0
-13 -4 -16 -10z"/>
</g>
<g>
<path d="M135 8210 c-3 -5 -1 -10 4 -10 6 0 11 5 11 10 0 6 -2 10 -4 10 -3 0
-8 -4 -11 -10z"/>
</g>
<g>
<path d="M4065 8134 c-60 -63 -141 -212 -125 -228 12 -12 7 -19 55 77 22 43
63 104 92 135 29 32 53 60 53 65 0 19 -26 2 -75 -49z"/>
</g>
<g>
<path d="M2530 8115 c0 -19 24 -30 41 -19 9 5 7 11 -6 21 -24 17 -35 17 -35
-2z"/>
</g>
<g>
<path d="M5480 8112 c0 -5 -11 -7 -25 -4 -15 2 -25 0 -25 -7 0 -6 8 -11 18
-11 19 -1 79 -46 71 -54 -3 -3 -21 5 -40 18 -44 29 -67 37 -74 26 -3 -5 15
-19 40 -31 25 -12 45 -25 45 -29 0 -4 8 -10 18 -14 24 -8 83 -45 107 -66 11
-10 43 -30 72 -45 28 -14 54 -32 56 -38 7 -18 18 -2 22 31 3 24 -1 32 -16 37
-10 4 -19 11 -19 16 0 5 -18 16 -40 25 -22 9 -40 20 -40 25 0 5 -12 14 -26 19
-14 6 -48 31 -76 58 -52 49 -68 60 -68 44z m205 -172 c3 -5 1 -10 -4 -10 -6 0
-11 5 -11 10 0 6 2 10 4 10 3 0 8 -4 11 -10z"/>
</g>
<g>
<path d="M4160 7673 c-26 -9 -90 -76 -90 -94 0 -9 7 -22 15 -29 12 -10 22 -5
57 29 32 31 51 41 75 41 41 0 43 20 4 43 -30 18 -37 19 -61 10z"/>
</g>
<g>
<path d="M4008 7623 c-14 -38 -16 -105 -1 -110 7 -3 13 14 16 44 2 26 8 58 12
71 11 33 -13 28 -27 -5z"/>
</g>
<g>
<path d="M3886 7554 c-9 -22 3 -32 14 -14 12 19 12 30 1 30 -5 0 -12 -7 -15
-16z"/>
</g>
<g>
<path d="M4340 7260 c0 -17 41 -33 53 -21 7 7 5 12 -6 16 -9 3 -24 7 -32 10
-8 2 -15 0 -15 -5z"/>
</g>
<g>
<path d="M4390 7179 c0 -6 9 -13 20 -16 11 -3 20 -12 20 -19 0 -8 4 -14 9 -14
10 0 24 -31 16 -38 -2 -3 -14 7 -25 21 -30 37 -160 84 -160 57 0 -5 8 -10 19
-10 10 0 33 -10 52 -23 19 -12 46 -28 62 -34 15 -7 27 -17 27 -23 0 -19 42
-11 47 9 3 14 13 19 31 18 24 -2 27 2 30 35 3 30 -1 37 -19 43 -13 5 -24 2
-29 -6 -7 -10 -16 -10 -48 -1 -48 15 -52 15 -52 1z"/>
</g>
<g>
<path d="M4105 7170 c-4 -6 5 -10 19 -10 14 0 26 5 26 10 0 6 -9 10 -19 10
-11 0 -23 -4 -26 -10z"/>
</g>
<g>
<path d="M4133 7123 c-17 -6 -16 -23 1 -23 8 0 16 7 20 15 6 15 1 17 -21 8z"/>
</g>
<g>
<path d="M6116 6612 c-2 -4 0 -14 5 -22 8 -13 10 -13 18 0 10 15 6 30 -9 30
-5 0 -11 -4 -14 -8z"/>
</g>
<g>
<path d="M2848 5583 c7 -3 16 -2 19 1 4 3 -2 6 -13 5 -11 0 -14 -3 -6 -6z"/>
</g>
<g>
<path d="M5118 2883 c7 -3 16 -2 19 1 4 3 -2 6 -13 5 -11 0 -14 -3 -6 -6z"/>
</g>
<g>
<path d="M5877 2374 c-4 -4 -7 -17 -7 -29 0 -42 -53 -64 -63 -25 -7 28 -24 25
-42 -9 -29 -58 -95 -83 -95 -37 0 32 -24 39 -63 19 -31 -16 -77 -61 -77 -75 0
-11 -56 -38 -78 -38 -15 0 -20 6 -19 28 1 15 8 33 15 41 44 46 -51 54 -142 12
-35 -17 -67 -35 -71 -41 -10 -16 25 -11 53 8 55 37 104 53 123 42 11 -7 9 -13
-10 -29 -13 -12 -32 -21 -43 -21 -10 0 -18 -7 -18 -16 0 -12 7 -14 30 -9 26 6
31 3 39 -18 9 -24 12 -25 53 -16 62 14 129 38 156 55 15 10 34 13 52 9 23 -5
37 0 63 19 19 14 45 26 58 26 13 0 35 1 49 2 20 2 26 -2 28 -23 3 -29 -24 -53
-74 -65 -16 -4 -49 -16 -74 -26 -67 -30 -83 -36 -105 -41 -11 -3 -66 -22 -123
-41 -56 -20 -108 -36 -115 -36 -18 0 -107 -43 -107 -52 0 -11 34 -10 46 2 5 5
45 18 88 29 43 11 85 26 94 34 10 8 33 19 52 26 19 6 76 25 125 42 50 17 104
35 120 40 56 17 120 56 116 70 -2 8 -5 43 -7 79 -3 60 -11 80 -27 64z"/>
</g>
<g>
<path d="M5926 2301 c-3 -5 11 -11 32 -14 41 -5 55 -1 47 14 -8 12 -72 12 -79
0z"/>
</g>
<g>
<path d="M5297 2213 c-3 -5 -7 -21 -8 -38 -3 -21 0 -30 10 -30 16 0 26 61 12
70 -5 3 -12 2 -14 -2z"/>
</g>
<g>
<path d="M5080 2187 c-47 -23 -110 -67 -110 -79 0 -7 18 -9 58 -4 54 6 56 6
35 -9 -12 -9 -40 -22 -61 -29 -70 -25 -137 -59 -125 -63 7 -3 27 3 44 11 18 9
37 16 44 16 6 0 48 18 94 40 63 30 82 44 79 57 -4 18 -17 20 -70 9 -42 -8 -34
10 12 28 22 9 40 20 40 26 0 12 -8 12 -40 -3z"/>
</g>
<g>
<path d="M5195 2101 c-3 -5 -1 -12 5 -16 12 -7 30 2 30 16 0 12 -27 12 -35 0z"/>
</g>
<g>
<path d="M4665 1810 c-3 -5 1 -10 9 -10 8 0 18 5 21 10 3 6 -1 10 -9 10 -8 0
-18 -4 -21 -10z"/>
</g>
<g>
<path d="M6119 1348 c-36 -8 -60 -22 -104 -65 -31 -30 -63 -72 -70 -92 -11
-31 -16 -36 -40 -33 -16 2 -47 10 -69 18 -23 9 -99 23 -171 33 -139 19 -192
14 -262 -22 -45 -24 -55 -48 -57 -136 -2 -74 -2 -77 30 -108 19 -18 52 -37 74
-43 22 -5 59 -15 83 -21 120 -32 316 -44 339 -21 7 7 23 12 38 12 30 1 166 33
175 42 4 3 18 0 33 -8 18 -9 28 -10 33 -3 8 14 128 13 182 -2 49 -13 151 -30
185 -29 13 0 32 -5 42 -10 18 -10 66 2 148 36 18 8 40 14 49 14 9 0 31 16 50
35 19 19 40 35 47 35 7 0 18 11 24 25 15 34 -4 94 -58 180 -34 54 -57 74 -94
79 -17 3 -51 8 -76 12 -73 11 -138 7 -176 -11 -25 -12 -50 -15 -87 -11 -44 5
-57 11 -83 41 -17 19 -39 35 -48 35 -10 0 -24 7 -32 15 -17 17 -37 17 -105 3z
m201 -113 c0 -5 -5 -3 -10 5 -5 8 -10 20 -10 25 0 6 5 3 10 -5 5 -8 10 -19 10
-25z m245 16 c-6 -4 -23 -11 -40 -15 -28 -6 -29 -5 -11 9 21 16 67 22 51 6z
m-127 -38 c-3 -5 -11 -22 -18 -40 -13 -31 -50 -50 -70 -38 -11 7 10 45 25 45
6 0 16 9 23 20 11 18 49 30 40 13z m-695 -49 c28 -5 41 -14 48 -30 7 -20 15
-24 54 -24 51 0 62 -14 13 -17 -34 -3 -65 -23 -35 -23 9 0 17 -7 17 -16 0 -16
13 -16 73 2 9 3 17 1 17 -5 0 -17 -63 -39 -134 -46 -42 -5 -69 -13 -75 -22
-10 -19 -125 -31 -135 -14 -4 6 -22 11 -39 11 -37 0 -102 21 -119 38 -7 7 -18
12 -25 12 -16 0 -17 52 -1 95 8 24 20 35 47 43 37 11 224 8 294 -4z m240 -4
c3 -11 1 -20 -4 -20 -5 0 -9 9 -9 20 0 11 2 20 4 20 2 0 6 -9 9 -20z m477 6
c0 -3 -4 -8 -10 -11 -5 -3 -10 -1 -10 4 0 6 5 11 10 11 6 0 10 -2 10 -4z
m-280 -16 c0 -5 -4 -10 -10 -10 -5 0 -10 5 -10 10 0 6 5 10 10 10 6 0 10 -4
10 -10z m108 -72 c-9 -19 -28 -24 -28 -8 0 5 5 21 12 35 11 24 13 25 19 8 3
-10 2 -26 -3 -35z m167 42 c-3 -5 -13 -10 -21 -10 -8 0 -12 5 -9 10 3 6 13 10
21 10 8 0 12 -4 9 -10z m95 -13 c0 -2 -8 -11 -18 -20 -17 -15 -18 -15 -19 3
-1 14 5 20 18 20 10 0 19 -2 19 -3z m-570 -27 c0 -5 -4 -10 -10 -10 -5 0 -10
5 -10 10 0 6 5 10 10 10 6 0 10 -4 10 -10z m48 -53 c2 -10 -5 -20 -15 -23 -10
-3 -26 -10 -35 -15 -23 -12 -51 -12 -43 1 3 6 1 10 -4 10 -6 0 -11 7 -11 15 0
18 17 20 23 3 3 -9 13 -7 33 9 32 24 47 24 52 0z m502 9 c0 -2 -7 -6 -15 -10
-8 -3 -15 -1 -15 4 0 6 7 10 15 10 8 0 15 -2 15 -4z m-114 -43 c-11 -11 -19 6
-11 24 8 17 8 17 12 0 3 -10 2 -21 -1 -24z m-31 7 c8 -13 -5 -13 -25 0 -13 8
-13 10 2 10 9 0 20 -4 23 -10z m240 0 c-11 -5 -33 -9 -50 -9 -23 -1 -26 2 -15
9 8 5 31 9 50 9 29 0 31 -2 15 -9z m-705 -16 c0 -8 -4 -12 -10 -9 -5 3 -10 10
-10 16 0 5 5 9 10 9 6 0 10 -7 10 -16z m-110 -86 c0 -13 -43 -6 -47 8 -2 7 6
10 22 7 14 -3 25 -10 25 -15z"/>
</g>
</g>
</svg>
