<?xml version="1.0" encoding="UTF-8" standalone="no"?>
<svg
   xmlns:dc="http://purl.org/dc/elements/1.1/"
   xmlns:cc="http://creativecommons.org/ns#"
   xmlns:rdf="http://www.w3.org/1999/02/22-rdf-syntax-ns#"
   xmlns:svg="http://www.w3.org/2000/svg"
   xmlns="http://www.w3.org/2000/svg"
   xmlns:sodipodi="http://sodipodi.sourceforge.net/DTD/sodipodi-0.dtd"
   xmlns:inkscape="http://www.inkscape.org/namespaces/inkscape"
   version="1.0"
   width="736.000000pt"
   height="1034.000000pt"
   viewBox="0 0 736.000000 1034.000000"
   preserveAspectRatio="xMidYMid meet"
   id="svg522"
   sodipodi:docname="note-boi.svg"
   inkscape:version="0.92.4 (5da689c313, 2019-01-14)">
  <defs
     id="defs526" />
  <sodipodi:namedview
     pagecolor="#ffffff"
     bordercolor="#666666"
     borderopacity="1"
     objecttolerance="10"
     gridtolerance="10"
     guidetolerance="10"
     inkscape:pageopacity="0"
     inkscape:pageshadow="2"
     inkscape:window-width="1920"
     inkscape:window-height="1015"
     id="namedview524"
     showgrid="false"
     inkscape:zoom="0.34235977"
     inkscape:cx="490.66667"
     inkscape:cy="689.33333"
     inkscape:window-x="0"
     inkscape:window-y="0"
     inkscape:window-maximized="1"
     inkscape:current-layer="svg522" />
  <metadata
     id="metadata2">
Created by potrace 1.15, written by Peter Selinger 2001-2017
<rdf:RDF>
  <cc:Work
     rdf:about="">
    <dc:format>image/svg+xml</dc:format>
    <dc:type
       rdf:resource="http://purl.org/dc/dcmitype/StillImage" />
  </cc:Work>
</rdf:RDF>
</metadata>
  <g
     transform="matrix(0.14286353,0,0,-0.14286353,-298.68271,1454.4178)"
     id="g520"
     style="fill:#000000;stroke:none">
    <g
       id="g6">
      <path
         d="m 3545,9786 c -22,-12 -46,-35 -53,-49 -16,-32 -13,-32 -81,-6 -33,12 -88,22 -140,25 -47,2 -96,7 -108,9 -13,3 -49,-4 -82,-14 -81,-28 -191,-50 -197,-39 -12,19 -55,5 -100,-32 -27,-22 -52,-40 -55,-40 -4,0 -20,7 -35,15 -41,21 -61,19 -80,-9 -18,-29 -44,-119 -44,-158 0,-26 -3,-28 -44,-28 -36,0 -52,-7 -88,-36 -66,-56 -97,-94 -110,-137 -11,-38 -11,-41 16,-63 31,-27 61,-30 169,-13 52,8 72,8 75,0 6,-18 22,-12 22,8 0,25 -50,61 -83,61 -14,0 -39,-13 -57,-30 -50,-47 -120,-40 -120,12 0,79 110,178 199,178 23,0 34,-8 52,-37 13,-21 26,-42 28,-48 2,-5 15,-18 28,-28 53,-42 61,-101 19,-136 -18,-15 -12,-33 8,-25 23,9 38,59 34,110 -3,44 -1,50 25,62 29,14 34,31 16,49 -9,9 -9,31 -1,85 9,62 9,77 -4,97 -12,18 -14,29 -5,47 20,45 155,61 216,25 28,-16 36,-17 45,-6 9,11 6,17 -14,30 -32,21 -33,35 -3,35 13,0 38,7 55,16 23,11 62,16 134,16 141,0 204,-8 250,-32 47,-25 67,-25 75,-2 11,32 46,62 72,62 14,0 33,5 41,10 13,9 12,12 -4,25 -25,19 -23,19 -71,-9 z m -863,-148 c 30,-25 45,-89 43,-180 -2,-89 -13,-118 -44,-118 -22,1 -45,35 -65,101 -17,53 -17,62 -3,124 18,80 36,99 69,73 z"
         id="path4"
         inkscape:connector-curvature="0" />
    </g>
    <g
       id="g10">
      <path
         d="m 3587,9698 c -19,-7 -26,-15 -23,-25 3,-8 6,-18 6,-23 0,-4 44,-8 98,-7 91,1 101,0 159,-31 34,-17 65,-32 68,-32 3,0 3,12 -1,28 -8,36 -54,78 -101,91 -47,14 -169,13 -206,-1 z m 237,-30 c 26,-14 61,-47 55,-52 -2,-2 -35,9 -73,25 -37,16 -77,29 -88,29 -11,0 -16,4 -12,11 7,12 87,3 118,-13 z"
         id="path8"
         inkscape:connector-curvature="0" />
    </g>
    <g
       id="g14">
      <path
         d="m 2821,9577 c -14,-17 -16,-65 -6,-114 5,-23 14,-33 34,-38 14,-3 34,-8 44,-11 27,-8 20,15 -8,28 -18,8 -25,18 -23,32 3,24 34,24 80,0 16,-9 29,-10 33,-4 3,5 -24,23 -60,39 -41,19 -65,35 -62,43 5,15 61,12 91,-4 12,-6 22,-6 28,0 11,11 -31,27 -97,38 -30,4 -44,2 -54,-9 z"
         id="path12"
         inkscape:connector-curvature="0" />
    </g>
    <g
       id="g274">
      <path
         d="m 3690,9563 c 0,-25 -16,-39 -52,-48 -15,-4 -34,-17 -42,-28 -9,-12 -22,-31 -30,-42 -20,-27 -30,-14 -15,19 11,23 10,30 -8,48 -20,19 -25,20 -53,8 -25,-11 -33,-11 -40,-1 -12,20 -49,-41 -56,-93 -7,-47 8,-66 21,-26 3,11 11,20 16,20 13,0 11,-12 -6,-34 -18,-23 -19,-36 -5,-36 6,0 15,11 20,24 5,14 19,30 30,36 20,11 21,10 15,-12 -4,-12 -10,-29 -12,-35 -9,-22 14,-14 30,11 18,27 82,41 121,27 68,-27 74,-155 12,-280 l -36,-74 19,-70 c 21,-77 20,-86 -16,-135 -28,-38 -25,-69 6,-53 10,6 21,17 25,26 3,8 10,15 16,15 14,0 12,-32 -4,-55 -38,-55 -81,-275 -73,-372 7,-81 13,-100 35,-106 14,-4 12,-6 -6,-12 -14,-5 -21,-13 -18,-22 4,-8 -5,-18 -22,-25 -15,-6 -56,-25 -92,-42 -38,-18 -92,-33 -130,-37 -36,-4 -74,-10 -85,-14 -15,-5 -32,4 -62,29 -39,35 -40,37 -46,116 -5,72 -9,87 -46,144 -23,38 -38,72 -35,81 3,8 1,15 -5,15 -6,0 -11,8 -12,18 -1,28 -34,123 -41,117 -14,-14 20,-167 44,-201 27,-38 60,-113 65,-150 6,-47 -7,-74 -36,-74 -22,0 -48,80 -57,171 -4,35 -10,69 -14,74 -9,12 -36,122 -45,185 -4,25 -15,78 -26,119 -10,40 -16,77 -14,81 3,5 -2,39 -10,76 -9,37 -14,73 -11,81 3,8 21,20 40,28 19,8 37,19 41,25 10,16 -37,11 -56,-6 -22,-20 -49,-12 -49,16 0,22 5,24 66,21 23,-2 45,2 49,8 9,16 55,13 61,-4 4,-8 13,-15 21,-15 12,0 13,9 8,43 -4,23 -11,46 -16,51 -5,5 -32,-2 -67,-17 -33,-15 -73,-30 -90,-33 -27,-6 -33,-2 -51,26 -10,18 -22,49 -26,68 -4,20 -11,45 -17,55 -17,33 -28,4 -16,-42 8,-33 8,-48 0,-62 -10,-16 -8,-21 13,-35 15,-10 29,-33 36,-57 13,-48 0,-63 -60,-72 -20,-3 -56,-11 -81,-18 -25,-6 -52,-10 -60,-9 -22,5 -40,32 -40,60 0,35 -80,145 -95,130 -3,-3 11,-26 32,-52 20,-26 42,-68 48,-93 12,-45 20,-55 58,-67 12,-4 17,-16 17,-46 0,-34 6,-47 33,-73 l 33,-32 27,32 c 29,33 20,58 -9,29 -19,-20 -29,-20 -48,0 -17,17 -20,33 -10,58 8,22 33,34 102,52 48,13 57,13 70,0 18,-18 42,-108 35,-134 -3,-11 2,-45 11,-75 21,-71 20,-94 -2,-106 -21,-11 -42,3 -42,27 0,7 -4,10 -10,7 -5,-3 -10,-17 -10,-31 0,-35 -17,-29 -30,11 -9,29 -15,34 -25,25 -20,-17 -35,-3 -35,31 0,16 -4,29 -10,29 -13,0 -13,-41 0,-76 19,-49 64,-94 142,-140 36,-22 81,-69 94,-101 19,-44 18,-93 -1,-93 -21,0 -97,-100 -133,-174 -62,-130 -128,-375 -103,-390 12,-8 21,18 21,62 0,74 84,306 140,391 44,67 63,84 86,79 25,-5 51,-84 59,-177 7,-73 6,-83 -11,-96 -11,-8 -15,-15 -10,-15 5,0 2,-8 -6,-17 -8,-10 -25,-54 -36,-98 -12,-44 -36,-127 -53,-185 -82,-278 -82,-275 -83,-520 -1,-124 2,-254 6,-290 8,-72 29,-169 41,-187 4,-6 9,-38 11,-70 2,-32 6,-65 10,-73 7,-17 14,-127 19,-325 5,-169 10,-201 49,-302 16,-43 34,-94 39,-113 6,-19 14,-44 19,-55 19,-43 39,-174 40,-257 0,-82 -1,-88 -20,-88 -24,0 -37,-27 -21,-43 13,-13 15,-37 2,-37 -5,0 -14,14 -20,32 -13,36 -107,128 -131,128 -9,0 -21,-5 -26,-10 -7,-7 -23,-5 -49,6 l -39,16 -23,-28 c -13,-16 -20,-36 -18,-45 8,-24 -5,-49 -24,-49 -9,0 -23,-6 -29,-12 -10,-10 -17,-6 -36,17 -22,27 -26,28 -51,17 -16,-7 -31,-9 -35,-5 -12,13 -40,125 -34,135 3,5 1,14 -4,21 -28,33 -43,141 -42,295 1,197 2,184 -10,177 -13,-8 -13,-332 0,-410 6,-33 13,-84 15,-114 2,-30 8,-57 12,-60 16,-11 64,-246 56,-269 -4,-8 -15,-12 -30,-9 -15,3 -27,-1 -30,-9 -11,-30 -25,-12 -21,29 3,36 1,42 -16,39 -15,-3 -17,1 -12,22 6,25 -27,85 -84,151 -21,25 -61,112 -62,134 0,9 1,102 1,206 1,105 -3,233 -8,285 -5,52 -7,118 -5,145 6,86 24,247 33,305 5,30 14,93 21,140 16,117 29,187 46,244 8,26 14,63 14,81 0,19 5,46 11,62 6,16 12,126 14,258 3,243 11,373 24,390 4,5 13,30 20,55 7,25 16,52 20,60 72,144 113,218 153,279 27,40 47,75 45,77 -6,7 -62,-53 -77,-83 -8,-15 -18,-30 -21,-33 -10,-8 -46,-70 -64,-110 -9,-19 -21,-39 -28,-45 -32,-25 -92,-131 -93,-165 0,-19 -9,-53 -19,-75 -37,-81 -45,-111 -45,-175 0,-36 -6,-90 -14,-120 -8,-30 -17,-78 -21,-107 -8,-60 -30,-77 -46,-35 -34,96 -82,185 -131,243 -20,24 -40,57 -44,73 -4,16 -24,65 -46,109 -35,72 -38,83 -27,109 20,48 4,84 -62,148 -34,33 -65,57 -69,55 -13,-8 -28,46 -35,120 -9,106 -17,145 -28,145 -10,0 -7,-32 12,-175 4,-33 11,-68 16,-77 4,-11 3,-18 -4,-18 -7,0 -15,-8 -18,-17 -7,-19 -63,-94 -87,-118 -8,-8 -20,-28 -28,-45 -7,-16 -18,-30 -24,-30 -6,0 -17,-12 -24,-27 -8,-16 -22,-39 -31,-53 -45,-68 -90,-164 -108,-234 -10,-43 -26,-85 -34,-94 -8,-9 -20,-51 -27,-92 -6,-41 -16,-83 -21,-93 -5,-9 -7,-28 -4,-40 5,-20 18,-26 86,-42 47,-10 101,-16 134,-13 49,4 57,2 70,-18 8,-13 15,-30 15,-37 0,-8 11,-31 25,-51 14,-20 25,-46 25,-57 0,-11 11,-41 25,-66 14,-24 28,-66 32,-91 3,-26 11,-54 18,-62 7,-8 49,-90 95,-182 102,-208 142,-254 232,-264 l 57,-6 6,-42 c 9,-70 10,-338 1,-398 -6,-39 -5,-71 3,-100 8,-28 9,-52 3,-68 -9,-25 11,-126 29,-145 5,-5 9,-16 9,-25 0,-8 22,-38 50,-67 52,-55 72,-106 60,-153 -4,-14 -10,-68 -14,-120 -5,-52 -13,-104 -18,-114 -16,-30 -29,-222 -28,-418 0,-116 -3,-178 -10,-178 -5,0 -10,-12 -10,-27 0,-16 -10,-43 -23,-62 -37,-56 -66,-104 -84,-141 -10,-19 -22,-38 -26,-41 -4,-3 5,-19 20,-36 23,-24 39,-31 86,-37 32,-3 74,-13 94,-21 49,-21 133,-20 133,1 0,9 6,14 13,11 6,-2 11,-15 9,-28 -2,-13 -7,-100 -11,-194 -5,-93 -13,-188 -19,-210 -6,-22 -16,-94 -22,-160 -6,-66 -15,-163 -20,-215 -6,-52 -11,-132 -12,-178 -1,-46 -5,-85 -9,-87 -13,-9 -9,-191 6,-279 11,-60 15,-146 14,-270 -1,-210 8,-325 27,-347 10,-11 11,-24 4,-50 -6,-18 -10,-47 -10,-64 0,-16 -7,-43 -15,-59 -8,-15 -15,-36 -15,-45 0,-27 -51,-175 -66,-192 -8,-8 -14,-23 -14,-31 0,-9 -7,-21 -15,-28 -8,-7 -15,-18 -15,-24 0,-7 -13,-53 -30,-104 -31,-96 -63,-152 -88,-152 -10,0 -12,-8 -7,-31 7,-30 6,-31 -20,-25 -23,6 -26,4 -21,-12 4,-11 0,-24 -9,-32 -12,-10 -15,-10 -15,0 0,17 -46,4 -78,-21 -14,-10 -36,-19 -51,-19 l -26,-1 24,-20 c 17,-13 33,-18 50,-15 14,3 20,3 14,0 -7,-3 -13,-12 -13,-20 0,-17 -31,-19 -48,-2 -9,9 -12,4 -12,-25 v -37 h -59 c -35,0 -63,-5 -67,-12 -5,-8 3,-9 29,-5 45,7 55,-5 25,-32 -24,-23 -38,-27 -38,-10 0,6 -9,8 -20,4 -11,-4 -81,-7 -155,-7 -74,0 -137,-4 -141,-9 -3,-5 13,-9 35,-9 23,0 41,-3 41,-7 0,-5 -22,-18 -48,-29 -35,-16 -63,-20 -109,-18 -72,3 -86,-7 -43,-32 16,-10 30,-21 30,-24 0,-9 -39,-40 -50,-40 -13,0 -13,-13 1,-27 8,-8 5,-15 -11,-26 -12,-8 -19,-20 -16,-25 3,-5 -1,-15 -9,-22 -14,-12 -113,-9 -204,7 -24,4 -32,2 -27,-6 4,-6 23,-11 42,-11 22,0 37,-6 40,-15 4,-10 13,-13 26,-9 11,3 46,3 79,-1 53,-6 59,-9 54,-26 -13,-40 5,-79 43,-95 105,-45 196,-53 336,-28 93,17 113,20 178,22 20,1 43,8 50,15 12,13 74,38 106,43 7,1 28,14 47,28 28,22 40,25 82,21 26,-3 53,-5 58,-4 48,5 375,9 392,4 22,-5 33,-35 13,-35 -5,0 -10,-4 -10,-10 0,-5 14,-10 31,-10 24,0 29,3 21,13 -8,9 -6,18 6,34 13,16 22,19 40,12 26,-10 29,-44 5,-58 -17,-10 -17,-10 0,-11 10,0 29,-11 43,-25 32,-33 98,-66 121,-62 10,2 32,10 48,17 17,7 49,14 72,14 24,1 45,6 47,13 6,14 69,33 109,33 16,0 35,7 43,15 9,8 27,15 41,15 23,0 24,-2 12,-17 -13,-15 -11,-16 21,-8 19,4 42,7 50,7 162,0 654,-13 661,-18 5,-3 58,-6 117,-6 58,0 118,-5 132,-12 21,-9 3,-12 -105,-16 -71,-3 -134,-3 -139,-1 -21,10 -164,12 -170,3 -6,-10 182,-20 474,-27 80,-1 157,-6 173,-10 50,-13 28,-22 -45,-19 -134,6 -523,11 -535,7 -40,-14 14,-18 244,-18 262,0 379,-7 397,-25 6,-6 8,-10 6,-10 -3,0 -75,-3 -160,-7 -85,-3 -165,-7 -177,-7 -45,-2 -22,-16 26,-16 31,0 53,-5 61,-15 8,-10 21,-13 33,-9 11,3 38,8 60,10 23,2 44,9 48,16 7,11 128,5 163,-8 24,-9 41,-45 26,-54 -17,-10 -110,0 -144,16 -36,18 -46,18 -46,0 0,-15 -42,-26 -101,-26 -22,0 -39,-5 -39,-11 0,-8 25,-9 88,-4 48,5 96,7 107,6 11,-1 51,-3 90,-4 57,-2 70,-5 73,-19 3,-15 -7,-17 -93,-16 -60,0 -100,-3 -108,-11 -8,-8 9,-12 68,-13 44,-1 96,-1 116,0 45,3 79,-28 59,-53 -9,-11 -24,-13 -54,-9 -35,5 -38,4 -21,-7 11,-7 60,-16 110,-20 71,-5 100,-13 138,-34 43,-24 57,-27 146,-26 54,0 110,5 125,11 15,5 42,10 60,10 17,0 37,5 43,11 9,9 16,7 29,-5 20,-21 58,-17 62,7 3,13 -2,16 -19,15 -23,-3 -24,2 -20,67 1,22 20,18 42,-7 l 20,-23 -3,37 c -2,28 3,41 22,57 l 25,20 -23,1 c -16,0 -23,5 -21,17 1,10 -1,32 -5,48 -4,17 -9,39 -11,50 -2,11 -22,48 -44,82 -56,85 -140,139 -226,145 -36,2 -62,26 -77,71 -17,49 -48,85 -79,92 -16,4 -31,11 -34,16 -4,5 -18,9 -33,10 -40,1 -86,32 -90,60 -2,13 -10,28 -18,32 -8,4 -14,15 -14,23 0,19 -56,130 -70,139 -31,19 -128,290 -116,322 4,8 -1,42 -10,75 -8,34 -17,89 -20,122 -2,34 -8,81 -14,106 -30,143 -28,175 11,240 5,8 14,26 19,40 6,14 15,33 20,42 6,10 10,26 10,37 0,11 5,21 12,23 11,4 33,72 44,138 9,52 5,232 -6,270 -6,21 -6,39 0,51 22,40 17,290 -11,579 -28,287 -29,292 -39,326 -6,17 -12,58 -15,90 -11,164 -51,423 -68,440 -4,4 -7,13 -7,20 0,20 101,114 122,114 27,0 58,36 58,69 0,15 9,40 20,54 11,14 20,38 20,53 0,57 -22,250 -32,283 -6,18 -12,54 -14,80 -3,25 -9,69 -15,96 -6,28 -12,84 -15,125 -2,41 -11,102 -19,135 -9,33 -18,89 -21,125 -3,36 -14,110 -24,165 -10,55 -21,125 -25,155 -3,30 -10,64 -15,75 -12,30 -43,147 -44,170 -1,11 -4,25 -9,32 -4,6 -4,18 -1,27 10,26 -7,42 -22,21 -17,-23 -21,-20 -32,33 -10,42 -10,42 18,42 36,0 104,31 157,73 46,36 188,127 198,127 14,0 -52,-73 -79,-87 -26,-14 -27,-16 -12,-31 15,-16 19,-14 51,23 20,22 47,51 60,65 14,14 25,29 25,34 0,15 93,96 117,102 14,4 32,-2 49,-15 33,-26 35,-26 64,-1 28,24 46,25 54,4 5,-13 16,-16 55,-12 40,4 54,11 84,44 22,23 37,49 37,64 0,15 4,30 9,35 5,6 16,50 26,99 14,75 16,120 11,275 -7,179 -15,233 -43,276 -24,37 -15,65 42,123 30,31 55,60 55,64 0,4 6,8 13,8 8,0 24,11 36,24 13,14 70,43 126,65 84,33 115,40 167,40 34,-1 106,2 158,6 52,4 111,7 130,6 39,0 131,16 170,30 14,5 49,31 78,58 l 53,48 -25,30 c -28,33 -25,43 10,43 13,0 26,5 29,10 3,6 15,10 26,10 24,0 35,25 20,44 -7,8 -32,24 -57,35 -41,20 -58,41 -33,41 7,0 0,9 -14,20 l -26,21 31,27 c 38,33 65,61 98,98 14,16 50,49 80,74 30,25 86,77 125,115 80,79 105,101 190,166 77,59 99,84 92,104 -9,23 -70,19 -92,-5 -10,-11 -21,-18 -23,-15 -3,3 5,17 18,30 21,22 23,29 12,46 -11,18 -10,23 12,40 35,27 34,89 -1,89 -9,0 -13,6 -9,15 3,8 -4,21 -16,29 -16,11 -18,19 -11,28 6,7 14,27 17,43 5,23 2,32 -13,40 -10,6 -33,18 -52,29 -42,24 -154,56 -195,56 -17,0 -50,13 -75,28 -24,16 -64,41 -89,57 -52,34 -141,72 -187,81 -35,7 -41,2 -108,-81 -48,-60 -96,-110 -110,-116 -6,-2 -39,-38 -74,-79 -35,-41 -82,-95 -105,-120 -23,-25 -53,-61 -67,-80 -14,-19 -68,-79 -120,-134 -51,-54 -109,-118 -127,-142 -18,-23 -41,-45 -49,-48 -17,-7 -53,20 -53,39 0,17 -46,39 -66,31 -14,-6 -15,-14 -8,-69 14,-101 9,-151 -24,-239 -36,-96 -52,-185 -50,-280 1,-92 -14,-127 -62,-134 -34,-6 -38,-9 -50,-56 -9,-36 -20,-54 -41,-67 -21,-13 -26,-20 -17,-29 15,-15 -7,-42 -33,-42 -23,0 -25,28 -4,36 8,4 15,10 15,15 0,16 -52,-17 -105,-65 -27,-25 -56,-46 -65,-46 -8,0 -26,-9 -40,-20 -14,-11 -31,-20 -37,-20 -7,0 -13,-4 -13,-9 0,-5 -20,-22 -45,-38 -25,-15 -45,-34 -45,-41 0,-8 -6,-12 -12,-10 -8,3 -13,23 -14,49 -1,33 -14,68 -53,138 -28,52 -54,104 -57,115 -4,12 -27,61 -51,110 -33,66 -43,97 -39,117 5,25 3,28 -17,26 -12,-1 -22,3 -23,8 0,6 -4,19 -9,30 -4,11 -19,49 -33,85 -14,36 -45,92 -69,125 -24,33 -64,96 -90,140 -54,91 -153,200 -200,220 -18,8 -33,19 -33,25 0,10 -36,29 -87,44 -17,5 -23,3 -23,-8 0,-8 -4,-17 -9,-20 -4,-3 -6,7 -3,21 4,20 -1,32 -21,47 -14,12 -40,46 -57,76 -44,75 -125,156 -163,164 -48,10 -57,-11 -13,-29 44,-19 136,-101 136,-122 0,-9 11,-29 25,-45 14,-16 23,-33 20,-38 -2,-4 4,-15 15,-25 13,-12 20,-31 20,-57 0,-32 -3,-38 -21,-38 -11,0 -18,4 -15,9 3,5 -3,19 -13,32 -10,13 -25,38 -34,54 -21,42 -116,145 -133,145 -8,0 -14,-1 -14,-3 0,-2 23,-27 50,-57 53,-58 110,-148 110,-176 0,-9 10,-24 23,-34 12,-10 31,-43 41,-74 17,-48 24,-57 50,-64 22,-6 33,-16 36,-33 3,-13 12,-37 21,-54 9,-16 20,-50 24,-75 4,-25 10,-49 14,-55 4,-5 13,-30 20,-55 7,-25 17,-53 23,-64 16,-30 39,-129 34,-143 -8,-20 37,-197 56,-220 5,-7 16,-45 25,-85 14,-68 52,-198 72,-243 17,-38 60,-249 66,-325 4,-41 30,-202 51,-315 35,-184 41,-335 20,-490 -17,-119 -57,-266 -81,-295 -7,-8 -16,-29 -20,-47 -8,-39 -79,-118 -96,-107 -9,5 -8,10 3,18 30,23 41,55 27,88 -10,25 -16,29 -38,24 -91,-21 -102,-17 -94,40 7,52 -7,74 -47,74 -30,0 -60,-27 -60,-55 0,-11 -14,-34 -32,-52 -22,-23 -27,-33 -16,-33 8,0 27,12 41,26 42,42 66,11 25,-33 -14,-15 -17,-23 -8,-23 7,0 19,8 26,18 12,15 15,15 24,2 5,-8 7,-22 4,-32 -3,-10 4,-22 16,-31 19,-13 20,-18 10,-37 -19,-35 -4,-34 29,2 27,30 30,31 37,14 13,-34 -35,-65 -97,-63 -61,3 -71,16 -34,46 15,11 25,26 23,33 -3,8 -15,2 -33,-16 -27,-27 -30,-28 -40,-11 -32,54 -40,59 -74,46 -25,-11 -34,-11 -46,-1 -19,16 -19,85 0,140 8,23 15,61 15,84 0,22 5,57 10,77 12,44 17,490 6,574 -4,33 -12,67 -16,75 -12,23 -39,143 -46,203 -3,29 -9,73 -14,100 -6,26 -9,51 -8,55 1,4 -2,34 -6,67 -5,33 -8,86 -7,117 2,65 -14,85 -32,39 -12,-34 -41,-40 -91,-21 -31,11 -36,34 -5,25 38,-12 83,3 101,35 18,31 16,71 -12,295 -6,44 -13,161 -15,260 -5,187 -18,367 -35,470 -5,33 -12,88 -15,123 -3,35 -10,72 -15,82 -6,10 -10,28 -10,40 0,12 -14,36 -31,53 l -31,31 6,85 c 14,169 41,250 90,272 37,17 169,185 187,237 10,31 15,75 14,129 -2,84 -9,110 -51,198 -28,58 -46,115 -36,115 17,-1 51,-38 70,-75 20,-40 20,-40 27,-13 8,33 -31,106 -59,110 -11,2 -27,17 -36,33 -9,17 -31,37 -49,47 -18,9 -41,24 -52,34 -18,16 -19,16 -19,-3 z m 20,-113 c 0,-5 -2,-10 -4,-10 -3,0 -8,5 -11,10 -3,6 -1,10 4,10 6,0 11,-4 11,-10 z m 38,-49 c 3,-8 -1,-12 -9,-9 -7,2 -15,10 -17,17 -3,8 1,12 9,9 7,-2 15,-10 17,-17 z m -38,-26 c 0,-8 -7,-15 -16,-15 -14,0 -14,3 -4,15 7,8 14,15 16,15 2,0 4,-7 4,-15 z m 75,-365 c -3,-5 -10,-10 -16,-10 -5,0 -9,5 -9,10 0,6 7,10 16,10 8,0 12,-4 9,-10 z m -1,-77 c -7,-28 -24,-60 -69,-138 -19,-31 -25,-36 -30,-23 -4,11 6,40 25,75 18,32 39,70 47,86 8,15 19,27 24,27 5,0 6,-12 3,-27 z m -84,3 c 0,-3 -4,-8 -10,-11 -5,-3 -10,-1 -10,4 0,6 5,11 10,11 6,0 10,-2 10,-4 z m 2682,-125 c 62,-32 131,-70 152,-85 23,-15 53,-26 72,-26 53,0 141,-27 200,-60 57,-33 62,-41 40,-59 -8,-6 -19,-25 -26,-41 -7,-16 -15,-29 -19,-28 -17,2 -31,-3 -31,-11 0,-14 -48,-69 -127,-147 -63,-62 -87,-94 -68,-94 3,0 26,21 50,48 25,26 45,42 45,36 0,-6 -7,-17 -15,-24 -8,-7 -15,-20 -15,-28 0,-20 -183,-197 -188,-182 -2,6 19,35 47,65 45,48 58,65 48,65 -8,0 -95,-87 -115,-114 -23,-33 -52,-69 -115,-145 -42,-51 -47,-59 -63,-86 -14,-24 -104,-76 -122,-70 -7,3 -27,-2 -43,-11 -17,-8 -40,-14 -52,-14 -51,5 -71,-2 -98,-31 -25,-27 -34,-31 -67,-26 -39,5 -171,78 -291,160 -57,39 -71,54 -77,81 -10,58 8,82 222,302 106,110 212,228 243,271 17,23 50,57 74,74 43,33 99,100 126,149 24,45 61,78 98,89 1,1 53,-25 115,-58 z m 505,-398 c -21,-22 -32,-11 -17,17 9,16 15,19 23,11 8,-8 7,-16 -6,-28 z m -33,-81 c 5,-8 -33,-51 -96,-107 -69,-63 -145,-125 -153,-125 -10,0 -115,-88 -158,-132 -27,-27 -47,-36 -47,-20 0,10 140,148 202,199 26,21 47,44 47,52 1,14 46,61 59,61 4,0 12,10 17,23 6,13 21,23 37,25 14,2 32,10 38,18 13,15 46,19 54,6 z m -46,-119 c -15,-15 -31,-24 -34,-20 -10,10 26,47 45,47 11,0 8,-7 -11,-27 z m -58,-43 c 0,-12 -20,-34 -52,-58 -29,-22 -73,-59 -98,-83 -70,-68 -134,-119 -147,-119 -7,0 -13,-4 -13,-10 0,-5 -7,-10 -15,-10 -8,0 -15,4 -15,9 0,13 158,160 198,183 17,11 32,24 32,29 0,5 6,9 13,9 8,0 31,16 53,35 21,19 40,34 42,35 1,0 2,-9 2,-20 z m -3130,-14 c 0,-8 -4,-17 -9,-21 -12,-7 -24,12 -16,25 9,15 25,12 25,-4 z m 310,-16 c 0,-5 -5,-10 -11,-10 -5,0 -7,5 -4,10 3,6 8,10 11,10 2,0 4,-4 4,-10 z m -450,-35 c 0,-8 -4,-15 -9,-15 -13,0 -22,16 -14,24 11,11 23,6 23,-9 z m 480,-25 c 0,-11 -4,-20 -10,-20 -5,0 -10,9 -10,20 0,11 5,20 10,20 6,0 10,-9 10,-20 z m -853,-25 c 0,-8 -4,-15 -9,-15 -4,0 -8,7 -8,15 0,8 4,15 8,15 5,0 9,-7 9,-15 z m 332,-70 c 1,-75 -15,-87 -24,-17 -3,26 -8,55 -9,64 -4,16 12,29 25,22 4,-2 7,-33 8,-69 z m 2031,38 c 24,-83 30,-110 33,-153 2,-40 4,-43 13,-21 l 10,23 18,-27 c 24,-36 24,-177 0,-213 -11,-17 -14,-35 -9,-65 4,-23 9,-45 12,-49 10,-19 42,32 53,85 7,33 18,61 26,64 8,3 14,15 13,27 -3,41 1,46 37,46 28,0 44,-8 78,-42 42,-41 54,-74 59,-156 1,-29 22,-3 23,30 0,19 4,40 8,46 13,22 52,12 83,-20 44,-47 55,-73 52,-123 -2,-25 0,-47 3,-51 18,-17 138,-30 197,-20 73,12 81,29 12,25 -28,-2 -56,3 -64,10 -10,8 -17,9 -22,1 -7,-11 -47,-13 -81,-4 -18,5 -21,10 -15,32 l 7,27 160,2 c 184,3 204,0 204,-27 0,-24 -34,-43 -60,-35 -11,4 -29,4 -40,0 -18,-6 -19,-8 -4,-30 8,-13 11,-26 6,-29 -22,-14 -104,-28 -172,-31 -183,-6 -388,-25 -429,-39 -24,-9 -50,-16 -57,-16 -8,0 -31,-11 -52,-24 -20,-12 -41,-24 -47,-25 -5,-1 -40,-32 -77,-68 -47,-46 -71,-64 -78,-57 -7,7 -6,22 5,47 8,20 15,39 15,42 0,12 -34,3 -46,-12 -13,-17 -15,-17 -29,1 -8,10 -12,22 -10,26 3,4 -9,13 -25,20 -17,7 -30,19 -30,26 0,8 -4,14 -10,14 -18,0 -11,36 15,74 14,20 25,40 25,44 0,4 9,25 19,47 40,83 44,101 42,187 -2,74 2,101 27,175 16,48 34,121 41,162 6,40 14,77 17,82 12,20 33,7 44,-28 z m -2180,23 c 0,-2 -7,-9 -15,-16 -13,-11 -14,-10 -9,4 5,14 24,23 24,12 z m -210,-36 c 0,-5 -4,-10 -10,-10 -5,0 -10,5 -10,10 0,6 5,10 10,10 6,0 10,-4 10,-10 z m 3340,0 c 0,-5 -4,-10 -10,-10 -5,0 -10,5 -10,10 0,6 5,10 10,10 6,0 10,-4 10,-10 z M 3197,7868 c 6,-13 14,-32 17,-43 3,-11 19,-58 36,-105 43,-118 52,-149 46,-159 -3,-5 1,-22 9,-37 8,-16 15,-34 15,-40 0,-6 13,-28 30,-50 16,-21 30,-47 30,-56 0,-10 7,-18 15,-18 20,0 20,-46 0,-54 -15,-5 -26,12 -76,114 -17,35 -57,155 -99,300 -12,41 -29,87 -36,102 -15,29 -19,68 -6,68 5,0 14,-10 19,-22 z m 3113,8 c 0,-34 -128,-141 -147,-123 -6,6 66,79 112,113 37,27 35,27 35,10 z M 3450,7775 c 0,-35 -4,-45 -16,-45 -13,0 -15,7 -10,31 3,17 6,38 6,45 0,8 5,14 10,14 6,0 10,-20 10,-45 z m 2694,-4 c -31,-28 -97,-45 -173,-43 -116,3 38,67 169,71 h 35 z m -500,-12 c -8,-14 -31,-11 -37,4 -4,10 2,13 19,9 13,-2 21,-8 18,-13 z m -3804,1 c 12,-8 11,-10 -7,-10 -13,0 -23,5 -23,10 0,13 11,13 30,0 z m 3760,-40 c 0,-5 -5,-10 -11,-10 -5,0 -7,5 -4,10 3,6 8,10 11,10 2,0 4,-4 4,-10 z m 460,-20 c 0,-16 -79,-35 -92,-22 -8,8 -8,12 3,15 8,2 28,9 44,14 31,10 45,8 45,-7 z m 131,1 c -11,-21 -60,-55 -68,-48 -6,6 57,67 69,67 5,0 4,-8 -1,-19 z m -81,-6 c 0,-8 -2,-15 -4,-15 -2,0 -11,-3 -20,-6 -10,-4 -16,-1 -16,9 0,14 13,24 33,26 4,1 7,-6 7,-14 z m -1840,1 c 0,-3 -4,-8 -10,-11 -5,-3 -10,-1 -10,4 0,6 5,11 10,11 6,0 10,-2 10,-4 z m 2080,-6 c 11,-7 11,-10 2,-10 -7,0 -12,-8 -10,-17 2,-13 -5,-19 -26,-21 -42,-5 -54,13 -25,37 27,23 38,25 59,11 z m -4330,-24 c 0,-7 -13,-22 -30,-34 -26,-20 -30,-21 -30,-5 0,9 10,27 21,40 22,23 39,22 39,-1 z m 1155,14 c -3,-5 -11,-10 -16,-10 -6,0 -7,5 -4,10 3,6 11,10 16,10 6,0 7,-4 4,-10 z m 1055,6 c 0,-3 -4,-8 -10,-11 -5,-3 -10,-1 -10,4 0,6 5,11 10,11 6,0 10,-2 10,-4 z m 1363,-31 c -7,-21 -13,-19 -13,6 0,11 4,18 10,14 5,-3 7,-12 3,-20 z m -3873,-9 c 0,-3 -4,-8 -10,-11 -5,-3 -10,-1 -10,4 0,6 5,11 10,11 6,0 10,-2 10,-4 z m 55,-6 c -3,-5 -14,-10 -23,-9 -14,0 -13,2 3,9 27,11 27,11 20,0 z m 1679,-29 c 6,-37 5,-46 -10,-88 -11,-31 -19,9 -16,72 4,64 17,72 26,16 z m 2393,33 c -3,-3 -12,-4 -19,-1 -8,3 -5,6 6,6 11,1 17,-2 13,-5 z m 256,-15 c 5,-8 -56,-79 -68,-79 -15,0 -48,66 -40,80 6,9 102,8 108,-1 z m -2546,-5 c -3,-3 -12,-4 -19,-1 -8,3 -5,6 6,6 11,1 17,-2 13,-5 z m 2871,-17 c 17,-10 32,-21 32,-26 0,-10 -66,-25 -93,-22 -10,1 -26,-4 -36,-13 -13,-12 -25,-13 -60,-5 -25,6 -48,6 -55,1 -22,-18 -76,-23 -82,-8 -9,22 25,66 51,66 12,0 27,6 33,13 16,19 169,15 210,-6 z m -4520,-29 c -8,-12 -20,-24 -27,-26 -9,-3 -7,5 4,22 10,14 22,26 27,26 6,0 4,-10 -4,-22 z m 48,-7 c -4,-6 -14,-11 -22,-11 -12,0 -12,3 -2,20 7,11 16,16 21,11 5,-5 6,-14 3,-20 z m 1244,14 c 0,-8 -4,-15 -10,-15 -5,0 -10,7 -10,15 0,8 5,15 10,15 6,0 10,-7 10,-15 z m -1535,-15 c -3,-5 -12,-7 -20,-3 -21,7 -19,13 6,13 11,0 18,-4 14,-10 z m 1415,-20 c 0,-5 -2,-10 -4,-10 -3,0 -8,5 -11,10 -3,6 -1,10 4,10 6,0 11,-4 11,-10 z m -1203,-32 c -2,-7 -12,-39 -21,-70 -18,-65 -43,-81 -31,-22 8,45 36,104 48,104 5,0 7,-6 4,-12 z m 1139,-115 c -4,-4 -12,-1 -19,7 -9,10 -9,11 1,6 7,-4 12,-2 13,6 0,11 2,11 6,0 3,-7 2,-16 -1,-19 z m 180,-33 c -1,-42 -16,-57 -16,-16 0,13 -3,31 -6,40 -4,10 -1,16 9,16 10,0 14,-11 13,-40 z m 104,-10 c 0,-5 -4,-10 -10,-10 -5,0 -10,5 -10,10 0,6 5,10 10,10 6,0 10,-4 10,-10 z m -1486,-65 c -3,-14 -10,-25 -15,-25 -11,0 -12,63 -2,74 12,12 24,-22 17,-49 z m 1526,31 c 0,-2 -7,-7 -16,-10 -8,-3 -12,-2 -9,4 6,10 25,14 25,6 z m 127,-97 c 7,-38 -10,-38 -36,0 -24,34 -25,44 -9,74 11,21 12,21 25,-12 8,-18 17,-46 20,-62 z m -467,77 c 0,-3 -4,-8 -10,-11 -5,-3 -10,-1 -10,4 0,6 5,11 10,11 6,0 10,-2 10,-4 z m 350,-16 c 0,-5 -4,-10 -10,-10 -5,0 -10,5 -10,10 0,6 5,10 10,10 6,0 10,-4 10,-10 z m -77,-22 c 4,-12 5,-24 3,-26 -7,-7 -36,30 -31,39 10,16 22,10 28,-13 z m -913,-8 c 0,-11 -4,-20 -10,-20 -5,0 -10,9 -10,20 0,11 5,20 10,20 6,0 10,-9 10,-20 z m -600,0 c 0,-5 -2,-10 -4,-10 -3,0 -8,5 -11,10 -3,6 -1,10 4,10 6,0 11,-4 11,-10 z m 100,6 c 0,-11 -19,-15 -25,-6 -3,5 1,10 9,10 9,0 16,-2 16,-4 z m -365,-83 c -3,-19 -9,-32 -13,-29 -8,8 -3,87 6,101 10,15 15,-33 7,-72 z m 1452,45 c -3,-8 -6,-5 -6,6 -1,11 2,17 5,13 3,-3 4,-12 1,-19 z m 252,-173 c -4,-243 -4,-261 5,-475 10,-227 10,-231 1,-277 -9,-49 -24,-40 -23,15 1,26 -4,144 -11,262 -8,132 -9,256 -4,320 4,58 8,132 8,165 2,154 6,191 16,165 6,-14 10,-89 8,-175 z m 54,163 c 3,-12 2,-29 -3,-37 -8,-13 -9,-12 -10,6 0,12 -3,28 -6,37 -3,9 -2,16 4,16 5,0 12,-10 15,-22 z m 92,1 c 9,-13 7,-15 -30,-23 l -30,-8 20,21 c 23,23 31,25 40,10 z m -1515,-19 c 0,-26 -27,-80 -40,-80 -13,0 -13,3 5,36 8,16 15,37 15,47 0,9 5,17 10,17 6,0 10,-9 10,-20 z m 1245,10 c 3,-5 1,-10 -4,-10 -6,0 -11,5 -11,10 0,6 2,10 4,10 3,0 8,-4 11,-10 z m -145,-20 c 0,-5 -2,-10 -4,-10 -3,0 -8,5 -11,10 -3,6 -1,10 4,10 6,0 11,-4 11,-10 z m 597,-12 c 23,-22 30,-52 15,-62 -14,-9 -65,51 -59,68 8,21 16,20 44,-6 z m -637,3 c 0,-12 -20,-25 -27,-18 -7,7 6,27 18,27 5,0 9,-4 9,-9 z m 386,-17 c -4,-9 -9,-15 -11,-12 -3,3 -3,13 1,22 4,9 9,15 11,12 3,-3 3,-13 -1,-22 z m 188,-46 c 2,-50 -21,-44 -32,9 -6,26 -8,51 -5,56 9,14 35,-33 37,-65 z m 1186,42 c 0,-11 -4,-20 -10,-20 -5,0 -10,9 -10,20 0,11 5,20 10,20 6,0 10,-9 10,-20 z m -1510,-10 c 0,-5 -5,-10 -11,-10 -5,0 -7,5 -4,10 3,6 8,10 11,10 2,0 4,-4 4,-10 z m -762,-22 c 16,-16 16,-61 0,-55 -7,2 -13,9 -13,15 0,5 -3,14 -7,18 -10,10 -10,34 0,34 4,0 13,-5 20,-12 z m 982,-18 c 0,-5 -4,-10 -10,-10 -5,0 -10,5 -10,10 0,6 5,10 10,10 6,0 10,-4 10,-10 z m 160,-37 c 0,-7 -4,-13 -8,-13 -15,0 -32,24 -32,44 0,18 1,19 20,1 11,-10 20,-24 20,-32 z m 1135,18 c -3,-6 -11,-8 -17,-5 -7,5 -8,2 -3,-5 5,-9 0,-12 -16,-9 -32,4 -31,30 1,39 28,7 46,-3 35,-20 z m -1055,15 c 0,-3 -4,-8 -10,-11 -5,-3 -10,-1 -10,4 0,6 5,11 10,11 6,0 10,-2 10,-4 z m 960,-20 c 0,-19 -39,-31 -53,-17 -7,7 -3,13 14,20 34,14 39,13 39,-3 z m -1334,-33 c -10,-10 -19,5 -10,18 6,11 8,11 12,0 2,-7 1,-15 -2,-18 z m 252,-40 c 6,-21 11,-67 11,-103 0,-36 3,-135 7,-220 10,-221 6,-310 -16,-310 -13,0 -22,71 -20,162 3,115 -7,337 -19,433 -5,44 -7,83 -4,88 9,14 29,-11 41,-50 z m 262,42 c 0,-8 -4,-15 -10,-15 -5,0 -10,7 -10,15 0,8 5,15 10,15 6,0 10,-7 10,-15 z m 740,-4 c 0,-13 -15,-26 -47,-41 -27,-12 -52,-28 -56,-36 -13,-22 -29,-16 -25,9 2,16 9,21 26,20 16,-2 22,2 22,17 0,11 12,26 28,34 37,21 52,20 52,-3 z m 345,9 c 3,-5 1,-10 -4,-10 -6,0 -11,5 -11,10 0,6 2,10 4,10 3,0 8,-4 11,-10 z m -1235,-47 c 0,-19 -18,-16 -30,6 -17,33 -12,46 10,26 11,-10 20,-24 20,-32 z m 1070,37 c 0,-10 -41,-30 -61,-30 -17,0 -9,17 14,28 29,14 47,15 47,2 z m -2715,-10 c -3,-5 -10,-10 -16,-10 -5,0 -9,5 -9,10 0,6 7,10 16,10 8,0 12,-4 9,-10 z m 1375,-10 c 0,-5 -2,-10 -4,-10 -3,0 -8,5 -11,10 -3,6 -1,10 4,10 6,0 11,-4 11,-10 z m 185,0 c 3,-5 1,-10 -4,-10 -6,0 -11,5 -11,10 0,6 2,10 4,10 3,0 8,-4 11,-10 z m -132,-17 c -7,-2 -19,-2 -25,0 -7,3 -2,5 12,5 14,0 19,-2 13,-5 z m 1167,-28 c 0,-8 -4,-15 -10,-15 -5,0 -10,-7 -10,-15 0,-8 9,-15 20,-15 30,0 25,-30 -15,-75 -19,-22 -35,-43 -35,-47 0,-5 -4,-8 -10,-8 -13,0 -13,63 1,77 5,5 11,26 11,44 1,46 48,99 48,54 z m 70,-15 c -13,-25 -27,-33 -35,-20 -8,13 24,52 36,44 5,-3 5,-14 -1,-24 z m -1365,-1 c 4,-6 5,-12 2,-15 -7,-7 -37,7 -37,17 0,13 27,11 35,-2 z m 1465,-4 c 0,-8 -9,-15 -20,-15 -20,0 -26,11 -13,23 12,13 33,7 33,-8 z m 75,-35 c 3,-5 1,-10 -4,-10 -6,0 -11,5 -11,10 0,6 2,10 4,10 3,0 8,-4 11,-10 z m -1385,-29 c 0,-5 -7,-14 -16,-22 -13,-10 -17,-10 -25,2 -14,23 -11,29 16,29 14,0 25,-4 25,-9 z m 1261,-20 c -13,-8 -71,-135 -71,-156 0,-5 -7,-23 -16,-40 -10,-20 -18,-77 -24,-165 -9,-148 -17,-190 -33,-190 -14,0 -2,227 18,317 20,93 45,157 85,217 24,35 35,45 44,36 8,-8 7,-13 -3,-19 z m -221,-36 c 0,-8 -4,-15 -10,-15 -5,0 -10,7 -10,15 0,8 5,15 10,15 6,0 10,-7 10,-15 z m -2510,-55 c 0,-5 -4,-10 -10,-10 -5,0 -10,5 -10,10 0,6 5,10 10,10 6,0 10,-4 10,-10 z m 3466,-124 c 5,-27 4,-37 -3,-33 -14,9 -36,134 -26,150 5,7 10,-6 14,-33 4,-25 10,-63 15,-84 z m -1976,93 c 0,-5 -4,-9 -10,-9 -5,0 -10,7 -10,16 0,8 5,12 10,9 6,-3 10,-10 10,-16 z m 1250,6 c 0,-8 -4,-15 -10,-15 -5,0 -10,7 -10,15 0,8 5,15 10,15 6,0 10,-7 10,-15 z m -1370,-39 c 0,-3 -4,-8 -10,-11 -5,-3 -10,-1 -10,4 0,6 5,11 10,11 6,0 10,-2 10,-4 z m 105,-6 c -3,-5 -11,-10 -16,-10 -6,0 -7,5 -4,10 3,6 11,10 16,10 6,0 7,-4 4,-10 z m 275,0 c 0,-5 -5,-10 -11,-10 -5,0 -7,5 -4,10 3,6 8,10 11,10 2,0 4,-4 4,-10 z m 720,-10 c 0,-5 -4,-10 -10,-10 -5,0 -10,5 -10,10 0,6 5,10 10,10 6,0 10,-4 10,-10 z m -750,-20 c 0,-5 -4,-10 -10,-10 -5,0 -10,5 -10,10 0,6 5,10 10,10 6,0 10,-4 10,-10 z m -295,-28 c 16,-12 35,-50 35,-72 0,-31 -17,-24 -24,11 -7,35 -27,35 -37,-2 l -7,-24 -7,23 c -10,30 -25,28 -25,-3 0,-28 31,-50 47,-34 8,8 13,7 18,-1 20,-33 -69,-46 -92,-14 -21,28 -17,91 6,104 11,5 26,7 34,4 8,-3 18,-1 22,5 7,13 16,14 30,3 z m 410,-32 c -3,-5 -10,-10 -16,-10 -5,0 -9,5 -9,10 0,6 7,10 16,10 8,0 12,-4 9,-10 z m -169,-66 c -5,-89 -16,-94 -16,-6 0,40 4,72 10,72 5,0 8,-28 6,-66 z m -161,16 c -5,-8 -11,-8 -17,-2 -6,6 -7,16 -3,22 5,8 11,8 17,2 6,-6 7,-16 3,-22 z m 1215,-115 c 0,-43 -11,-58 -25,-34 -9,14 4,79 15,79 6,0 10,-20 10,-45 z m -1020,15 c 0,-5 -8,-10 -17,-10 -15,0 -16,2 -3,10 19,12 20,12 20,0 z m 30,-10 c 0,-5 -2,-10 -4,-10 -3,0 -8,5 -11,10 -3,6 -1,10 4,10 6,0 11,-4 11,-10 z m -48,-82 c 2,-79 -2,-112 -16,-126 -10,-10 -12,7 -12,83 0,72 3,95 13,95 9,0 13,-16 15,-52 z m 123,12 c -3,-5 -10,-10 -16,-10 -5,0 -9,5 -9,10 0,6 7,10 16,10 8,0 12,-4 9,-10 z m -70,-20 c 3,-5 -3,-10 -14,-10 -12,0 -21,5 -21,10 0,6 6,10 14,10 8,0 18,-4 21,-10 z m -154,-70 c 6,-47 -8,-133 -21,-125 -4,3 -8,34 -8,70 0,35 -3,69 -7,75 -3,5 -3,15 0,21 13,21 30,1 36,-41 z m 1820,4 c -15,-34 -23,-26 -15,15 5,22 10,29 17,22 7,-7 7,-19 -2,-37 z m -852,-26 c 6,-29 12,-64 14,-78 1,-14 8,-24 15,-23 6,2 19,-8 28,-22 9,-14 25,-25 35,-25 11,0 19,-7 19,-16 0,-9 16,-32 37,-51 29,-27 33,-37 22,-43 -44,-28 -140,53 -164,138 -9,30 -14,56 -11,59 2,3 -2,23 -10,45 -16,47 -18,68 -5,68 5,0 14,-24 20,-52 z m -829,-68 c 15,-29 27,-40 43,-40 13,0 27,-4 33,-9 15,-14 62,-22 69,-11 3,5 15,10 26,10 13,0 19,-7 19,-24 0,-50 -100,-38 -180,22 -55,42 -65,58 -50,78 17,19 17,19 40,-26 z m 1500,20 c 0,-5 -9,-10 -19,-10 -11,0 -23,5 -26,10 -4,6 5,10 19,10 14,0 26,-4 26,-10 z M 3202,6127 c -5,-89 -22,-97 -22,-11 0,67 6,91 19,78 3,-3 4,-33 3,-67 z m 41,-140 c 3,-164 3,-165 33,-213 27,-44 34,-49 62,-46 86,9 154,94 137,172 -5,24 -3,30 10,30 13,0 16,5 10,23 -10,31 -7,166 4,185 8,14 10,13 15,-8 2,-14 7,-72 10,-130 7,-120 -18,-245 -51,-264 -55,-33 -194,-47 -223,-23 -9,7 -15,31 -16,62 -1,28 -4,106 -6,175 -5,117 0,216 9,206 2,-2 5,-78 6,-169 z m 467,73 c 0,-5 -2,-10 -4,-10 -3,0 -8,5 -11,10 -3,6 -1,10 4,10 6,0 11,-4 11,-10 z m -65,-10 c 3,-5 2,-10 -4,-10 -5,0 -13,5 -16,10 -3,6 -2,10 4,10 5,0 13,-4 16,-10 z m 29,-85 c 3,-8 1,-15 -4,-15 -6,0 -10,7 -10,15 0,8 2,15 4,15 2,0 6,-7 10,-15 z m 737,-381 c 7,-42 -4,-62 -67,-117 -46,-39 -52,-16 -9,31 37,42 44,58 20,49 -25,-10 -25,9 0,33 14,13 25,30 25,38 0,30 25,3 31,-34 z M 2854,5466 c 29,5 37,3 35,-7 -1,-8 1,-22 6,-32 5,-11 2,-24 -9,-36 -21,-23 -20,-31 5,-31 16,0 19,-4 14,-22 -4,-13 -17,-33 -28,-46 l -21,-22 -33,32 c -18,17 -33,38 -33,45 0,7 -5,22 -12,33 -10,16 -9,23 7,41 15,16 17,23 7,26 -10,4 -10,8 -1,19 9,11 14,12 19,4 5,-7 20,-9 44,-4 z m 401,-46 c 3,-5 1,-10 -4,-10 -6,0 -11,5 -11,10 0,6 2,10 4,10 3,0 8,-4 11,-10 z m -615,-15 c 11,-13 10,-22 -4,-52 -16,-34 -18,-35 -31,-17 -18,23 -19,56 -3,72 16,16 23,15 38,-3 z m 364,-3 c -1,-7 -2,-23 -2,-37 -1,-14 -7,-25 -12,-25 -6,0 -10,17 -8,40 1,23 6,39 12,37 6,-2 11,-9 10,-15 z m -308,-44 c -6,-30 -20,-47 -38,-48 -13,0 -9,20 9,51 23,38 37,37 29,-3 z m 44,0 c 0,-30 -13,-58 -27,-58 -11,0 -13,5 -8,18 4,9 10,25 12,35 6,20 23,23 23,5 z m 220,-38 c 0,-12 -40,-34 -48,-26 -3,4 3,13 14,21 22,17 34,19 34,5 z m -190,-30 c 0,-5 -2,-10 -4,-10 -3,0 -8,5 -11,10 -3,6 -1,10 4,10 6,0 11,-4 11,-10 z m 1400,-460 c 0,-5 -4,-10 -9,-10 -6,0 -13,5 -16,10 -3,6 1,10 9,10 9,0 16,-4 16,-10 z M 2600,4714 c 0,-8 -5,-12 -10,-9 -6,4 -8,11 -5,16 9,14 15,11 15,-7 z m 740,-64 c 0,-5 -4,-10 -10,-10 -5,0 -10,5 -10,10 0,6 5,10 10,10 6,0 10,-4 10,-10 z m -910,-186 c 0,-22 -36,-17 -37,5 -1,14 3,17 18,14 10,-3 19,-12 19,-19 z m 1000,-14 c 0,-5 -5,-10 -11,-10 -5,0 -7,5 -4,10 3,6 8,10 11,10 2,0 4,-4 4,-10 z m 170,-4 c 0,-3 -4,-8 -10,-11 -5,-3 -10,-1 -10,4 0,6 5,11 10,11 6,0 10,-2 10,-4 z m -115,-86 c 3,-5 1,-10 -4,-10 -6,0 -11,5 -11,10 0,6 2,10 4,10 3,0 8,-4 11,-10 z m -105,-80 c 0,-5 -5,-10 -11,-10 -5,0 -7,5 -4,10 3,6 8,10 11,10 2,0 4,-4 4,-10 z m -710,-230 c 0,-5 -4,-10 -10,-10 -5,0 -10,5 -10,10 0,6 5,10 10,10 6,0 10,-4 10,-10 z m 1880,-9 c 5,-11 10,-40 10,-65 0,-24 6,-73 14,-108 8,-35 19,-110 26,-168 6,-58 18,-139 26,-181 8,-42 19,-135 24,-205 5,-71 15,-174 21,-229 16,-132 18,-388 3,-406 -6,-8 -14,-27 -18,-43 -4,-16 -22,-52 -40,-80 -41,-64 -138,-257 -132,-263 10,-11 28,12 57,72 16,35 36,68 44,75 8,7 15,19 15,26 0,22 70,125 80,119 23,-14 4,-136 -37,-241 -3,-8 0,-14 6,-14 6,0 11,9 11,20 0,11 5,20 10,20 17,0 11,-44 -10,-70 -17,-22 -20,-22 -20,-6 0,15 -3,16 -15,6 -17,-14 -20,-40 -5,-40 6,0 10,-11 10,-25 0,-25 -20,-37 -20,-12 0,6 -5,4 -11,-6 -6,-9 -8,-26 -4,-36 3,-11 1,-22 -5,-26 -6,-3 -16,-21 -24,-38 -22,-52 -106,-134 -151,-147 -78,-23 -145,-61 -145,-82 0,-15 4,-18 23,-12 12,4 24,10 27,14 3,5 22,11 44,15 64,12 40,-14 -43,-47 -69,-28 -76,-29 -124,-17 -29,7 -56,16 -62,21 -5,4 -19,8 -31,8 -34,0 -54,10 -54,27 0,11 6,13 23,9 12,-4 49,-10 83,-13 48,-4 63,-2 77,12 24,24 12,35 -37,35 -23,0 -68,5 -99,11 -52,11 -63,18 -146,100 -49,49 -93,89 -99,89 -5,0 -12,8 -15,18 -3,9 -14,42 -25,72 -18,51 -34,108 -62,220 -6,25 -12,60 -12,78 -1,18 -4,35 -9,37 -4,3 -12,27 -19,55 -7,27 -16,50 -21,50 -13,0 2,-93 18,-109 19,-19 9,-25 -15,-10 -24,15 -28,33 -31,138 -2,86 15,115 22,39 2,-24 3,0 1,52 -1,52 -6,114 -9,138 -5,28 -3,42 4,42 6,0 11,-8 11,-17 1,-34 28,44 34,98 5,50 5,52 -7,23 -6,-17 -27,-46 -44,-63 -20,-19 -33,-43 -33,-57 0,-14 -4,-23 -9,-20 -9,6 -7,97 4,179 11,77 14,115 20,217 3,52 10,106 15,120 5,14 14,52 21,85 6,33 17,78 25,100 7,22 16,65 19,95 4,30 9,64 10,75 17,94 15,91 46,75 14,-8 25,-7 42,5 13,8 26,13 29,10 9,-10 -34,-219 -55,-262 -6,-13 -7,-26 -4,-30 4,-3 7,1 7,9 0,9 6,21 13,27 24,19 8,-98 -20,-149 l -24,-45 6,55 c 9,75 -4,57 -21,-31 -9,-49 -10,-76 -4,-85 6,-6 11,-29 11,-50 1,-98 1,-257 -2,-454 -4,-309 3,-372 57,-523 31,-87 42,-107 71,-130 12,-10 23,-25 23,-32 0,-23 102,-117 121,-112 10,3 39,-12 69,-34 51,-39 71,-44 140,-40 64,5 54,20 -12,18 -61,-2 -66,0 -100,33 -34,33 -48,54 -105,158 -12,24 -30,75 -38,115 -20,96 -58,217 -68,217 -10,0 -1,-45 24,-120 10,-30 19,-73 19,-95 0,-28 14,-68 46,-129 25,-48 43,-90 40,-93 -7,-8 -96,87 -96,103 0,8 -4,14 -8,14 -8,0 -41,62 -48,90 -41,177 -57,263 -65,345 -6,55 -14,102 -20,103 -12,5 -12,79 1,87 6,3 10,24 10,45 0,30 -3,38 -14,34 -13,-5 -14,6 -10,68 12,180 16,218 26,218 10,0 3,-202 -9,-245 -4,-14 -2,-17 5,-10 18,17 43,192 47,327 4,117 29,310 44,333 6,10 12,33 46,190 9,43 23,88 30,100 7,11 13,33 13,48 -1,36 0,36 58,43 27,3 61,14 75,24 26,18 84,26 169,22 77,-4 78,-6 42,-129 -18,-59 -42,-148 -53,-198 -12,-49 -25,-94 -29,-100 -4,-5 -10,-26 -13,-45 -4,-19 -13,-63 -20,-98 -8,-35 -10,-65 -5,-68 16,-10 28,8 28,44 0,41 26,176 39,201 5,9 16,51 25,93 19,84 31,101 70,93 14,-3 37,-7 51,-10 14,-3 25,-1 25,4 0,11 -76,35 -88,27 -20,-12 -33,11 -22,38 9,24 15,28 40,24 37,-6 40,7 4,16 -24,6 -26,10 -19,44 8,45 28,62 71,62 18,0 36,5 39,10 10,17 44,11 55,-9 z M 2696,3913 c -4,-48 -11,-94 -16,-103 -13,-25 -6,-270 8,-279 7,-4 13,-27 14,-52 1,-24 5,-51 9,-59 4,-8 10,-23 13,-34 5,-15 9,-16 21,-6 13,10 15,8 15,-12 0,-14 3,-28 7,-31 26,-27 -24,-339 -60,-370 -11,-10 -21,-28 -22,-40 -1,-12 -9,-56 -18,-97 -10,-41 -38,-164 -63,-274 -25,-109 -43,-201 -40,-203 9,-9 26,46 36,117 5,37 19,89 30,114 11,26 20,56 20,66 0,10 5,22 10,25 6,3 10,17 10,30 0,13 5,27 10,30 20,12 9,-81 -31,-250 -10,-44 -21,-98 -25,-120 -4,-22 -10,-45 -15,-50 -4,-6 -17,-46 -28,-90 -21,-77 -43,-116 -58,-101 -6,6 -7,81 -1,256 2,30 -5,138 -14,240 -28,300 -29,326 -17,377 6,26 13,98 14,158 2,61 6,139 10,175 3,36 10,114 16,173 5,59 16,134 24,165 8,31 16,87 19,124 4,69 10,88 27,88 6,0 9,-25 8,-60 -2,-36 2,-65 9,-72 7,-7 12,-20 12,-30 0,-10 4,-18 9,-18 8,0 14,49 27,210 6,78 10,90 25,90 9,0 10,-23 5,-87 z m 59,5 c -7,-85 -27,-196 -44,-239 -8,-20 -10,-16 -10,26 0,100 17,265 29,280 25,30 30,14 25,-67 z m 145,68 c 0,-3 -4,-8 -10,-11 -5,-3 -10,-1 -10,4 0,6 5,11 10,11 6,0 10,-2 10,-4 z m -296,-15 c 4,-5 2,-20 -3,-32 -8,-22 -8,-22 -13,9 -4,30 4,43 16,23 z m 211,-48 c -12,-124 -49,-324 -66,-355 -5,-10 -9,-25 -9,-33 0,-8 -4,-15 -10,-15 -15,0 -12,93 4,126 8,16 19,74 25,129 16,140 32,205 48,205 10,0 12,-13 8,-57 z m 200,47 c 3,-5 -3,-10 -14,-10 -12,0 -21,5 -21,10 0,6 6,10 14,10 8,0 18,-4 21,-10 z m 139,-5 c -4,-8 -12,-15 -20,-15 -8,0 -14,7 -14,15 0,8 9,15 20,15 13,0 18,-5 14,-15 z m 126,-5 c 0,-5 -4,-10 -10,-10 -5,0 -10,5 -10,10 0,6 5,10 10,10 6,0 10,-4 10,-10 z m 710,4 c 0,-4 -11,-27 -24,-53 -13,-25 -29,-61 -36,-78 -14,-37 -36,-46 -26,-10 4,12 11,45 17,72 6,28 13,56 15,63 3,12 54,18 54,6 z m -725,-44 c -2,-4 1,-35 7,-71 5,-35 11,-129 13,-209 1,-80 8,-208 14,-285 17,-210 21,-265 26,-445 2,-91 9,-181 15,-200 5,-19 10,-49 10,-65 0,-17 5,-36 11,-42 6,-6 14,-65 19,-132 4,-67 10,-125 14,-128 8,-9 0,197 -14,332 -5,55 -10,108 -10,118 0,9 -7,17 -15,17 -17,0 -22,55 -6,64 9,6 7,97 -9,401 -5,94 -6,222 -3,285 6,135 5,162 -3,253 -3,38 -3,79 0,91 5,21 11,23 59,21 67,-3 125,-24 133,-47 7,-23 -6,-157 -16,-163 -11,-7 12,-384 26,-442 4,-15 2,-23 -6,-23 -10,0 -11,-27 -7,-116 3,-64 8,-119 11,-122 4,-3 6,-1 6,4 1,5 5,28 9,52 5,23 5,45 0,48 -13,8 -11,21 7,39 14,13 15,21 5,41 -16,35 -14,71 5,82 19,10 33,122 15,122 -6,0 -11,13 -11,29 0,16 -6,31 -13,34 -16,6 -31,142 -18,165 4,8 5,31 1,51 -9,52 -1,111 16,111 8,0 14,-7 14,-16 0,-8 5,-12 10,-9 6,4 8,15 5,26 -8,26 3,59 20,59 11,0 14,-25 17,-107 2,-60 1,-112 -2,-118 -3,-5 -10,-50 -16,-100 -10,-77 -10,-91 4,-101 15,-11 13,-76 -4,-148 -5,-21 -4,-27 5,-22 23,14 13,-114 -13,-165 -12,-26 -26,-71 -29,-102 -9,-76 -16,-91 -33,-76 -17,14 -18,3 -4,-59 6,-24 17,-98 25,-165 8,-67 19,-147 24,-177 5,-30 10,-83 10,-117 1,-51 4,-63 17,-63 9,0 14,-6 11,-13 -2,-7 8,-82 24,-167 33,-177 36,-211 14,-165 l -15,30 4,-30 c 4,-39 22,-109 55,-215 14,-47 27,-94 28,-105 1,-11 11,-51 22,-90 11,-38 20,-82 20,-96 1,-14 8,-34 16,-45 20,-26 19,-9 -6,96 -11,47 -22,101 -23,120 -3,34 -9,63 -42,205 -8,39 -20,97 -24,130 -5,33 -19,112 -31,175 -11,63 -22,133 -24,155 -1,22 -7,72 -13,110 -17,107 -22,218 -12,235 14,23 25,3 23,-43 -2,-62 16,-185 37,-242 9,-27 23,-75 30,-105 7,-30 16,-59 20,-65 4,-5 13,-32 20,-58 20,-74 89,-182 169,-264 8,-9 29,-13 52,-12 33,3 44,-2 69,-29 16,-18 36,-32 44,-32 9,0 23,-11 32,-25 9,-14 24,-25 33,-25 28,0 69,-54 74,-97 9,-77 38,-163 95,-275 32,-63 64,-130 72,-149 7,-19 29,-67 48,-108 38,-84 63,-202 44,-209 -7,-2 -12,-13 -13,-25 0,-12 -9,-35 -20,-52 -10,-16 -21,-37 -25,-45 -24,-63 -15,-58 -111,-54 -57,3 -81,1 -68,-5 11,-5 45,-9 74,-9 51,0 77,-14 65,-34 -9,-13 -215,-9 -320,7 -97,15 -212,20 -202,10 10,-10 300,-38 409,-40 100,-1 169,-16 169,-36 0,-15 -16,-18 -56,-7 -54,15 -227,27 -499,34 -126,3 -232,8 -235,10 -13,13 34,24 107,24 45,0 84,4 88,9 3,6 -15,8 -42,6 -63,-6 -123,4 -123,20 0,7 16,15 38,17 56,7 379,2 447,-7 33,-4 57,-5 54,-1 -16,17 -138,28 -351,30 -155,1 -241,5 -248,12 -11,11 15,42 64,77 11,8 16,19 12,26 -6,9 -12,9 -24,-2 -32,-28 -60,-30 -75,-5 -15,23 -36,110 -35,138 1,8 -2,34 -6,58 -6,33 -5,42 6,40 7,-2 12,4 10,12 -9,37 -32,171 -41,235 -5,39 -17,113 -25,165 -9,52 -16,104 -15,115 1,11 -4,52 -11,90 -6,39 -18,122 -25,185 -8,63 -21,140 -29,170 -9,30 -16,88 -16,129 v 74 l -25,-26 c -25,-24 -26,-29 -19,-100 6,-64 4,-75 -10,-80 -13,-5 -15,-11 -6,-26 5,-11 10,-43 10,-71 0,-30 7,-61 16,-76 12,-18 15,-37 11,-69 -4,-28 -2,-47 5,-51 7,-5 9,-35 5,-93 -3,-47 -2,-102 3,-121 16,-65 40,-224 51,-334 5,-60 12,-112 14,-116 2,-4 9,-47 15,-96 6,-49 18,-117 27,-151 14,-56 14,-64 -1,-85 -9,-12 -16,-20 -17,-18 0,3 -2,25 -4,50 -3,25 -9,72 -14,105 -6,33 -13,86 -16,117 -4,32 -11,58 -17,58 -5,0 -7,-12 -4,-28 4,-15 8,-47 11,-72 3,-25 9,-81 13,-125 5,-44 7,-82 5,-84 -20,-24 -61,158 -68,309 -7,134 -14,178 -24,161 -4,-6 -3,-50 1,-98 4,-49 10,-125 12,-171 3,-48 10,-92 19,-105 7,-12 17,-37 20,-54 6,-30 4,-33 -18,-33 -14,0 -26,7 -30,19 -14,47 -32,164 -28,184 4,16 3,19 -6,12 -8,-8 -8,-39 -1,-112 5,-56 10,-105 11,-110 4,-22 -3,-33 -20,-33 -11,0 -23,-4 -26,-10 -3,-5 -24,-10 -45,-10 -43,0 -64,-18 -31,-27 34,-9 24,-30 -16,-38 -73,-13 -172,-16 -190,-6 -24,12 -46,0 -37,-22 3,-10 1,-17 -5,-17 -7,0 -20,20 -31,45 -19,44 -40,60 -40,30 0,-25 -17,-17 -25,12 -8,35 -23,53 -51,63 -35,14 -41,121 -18,330 3,25 8,71 11,103 4,46 9,57 22,55 18,-3 19,2 23,164 1,77 6,109 15,112 18,7 16,26 -2,26 -22,0 -18,26 6,49 18,17 38,72 39,109 0,6 -7,12 -16,12 -15,0 -16,10 -10,83 16,187 40,337 56,347 8,5 10,17 6,34 -4,15 -3,32 1,39 4,7 8,23 9,37 0,14 9,79 19,145 10,66 18,133 17,149 -1,16 3,35 9,42 7,9 7,19 0,32 -6,11 -8,21 -6,23 2,3 6,53 9,111 3,59 12,135 20,170 7,35 17,93 21,130 4,43 11,68 21,72 8,3 14,13 13,23 0,16 -2,16 -10,-2 -6,-14 -7,-9 -3,20 3,22 7,66 9,97 1,31 6,61 9,66 3,6 1,12 -6,14 -7,3 -8,9 -2,19 5,8 9,55 10,106 0,54 5,97 12,106 7,7 16,58 22,113 19,182 21,191 44,202 11,6 30,13 41,15 21,3 56,-13 50,-23 z m 605,20 c 0,-5 -6,-10 -14,-10 -8,0 -18,5 -21,10 -3,6 3,10 14,10 12,0 21,-4 21,-10 z m -840,-25 c 0,-15 -6,-38 -14,-53 -7,-15 -17,-45 -20,-66 -4,-21 -13,-48 -21,-60 -14,-22 -30,-86 -22,-86 10,0 75,145 81,180 7,39 22,68 31,59 11,-11 9,-225 -2,-274 -7,-27 -17,-177 -22,-333 -8,-202 -15,-290 -25,-310 -13,-26 -20,-88 -31,-292 -9,-142 -24,-255 -50,-355 -13,-49 -26,-117 -30,-150 -3,-33 -15,-105 -25,-160 -21,-112 -43,-274 -44,-322 -1,-17 -4,-35 -8,-39 -5,-4 -8,-27 -8,-52 0,-24 -7,-90 -15,-146 -8,-55 -19,-168 -25,-251 -6,-82 -14,-172 -19,-200 -5,-29 -5,-60 1,-76 5,-15 8,-47 6,-70 l -3,-44 -45,3 c -25,2 -49,8 -55,13 -5,5 -19,9 -32,9 -12,0 -38,8 -58,17 l -35,17 -30,-34 c -16,-18 -31,-38 -34,-44 -3,-7 -8,-6 -16,4 -17,23 -1,138 27,193 8,15 22,74 33,130 10,56 30,140 44,186 28,89 32,131 16,131 -5,0 -10,-8 -10,-18 0,-11 -17,-88 -39,-173 -21,-85 -41,-171 -45,-192 -9,-46 -31,-49 -49,-4 -8,17 -24,41 -36,51 -11,11 -21,29 -21,40 -1,20 -1,20 -15,2 -15,-19 -37,-14 -29,7 2,7 20,82 39,167 48,219 69,298 92,350 11,25 23,58 27,74 4,16 14,39 23,50 14,19 15,16 9,-48 -3,-38 -10,-74 -16,-80 -5,-5 -10,-26 -9,-45 l 1,-36 12,35 c 6,19 14,40 17,45 15,24 21,77 24,182 1,62 6,118 12,125 6,7 14,36 17,63 9,65 52,240 70,285 8,19 22,74 32,122 18,94 35,113 23,26 -10,-74 -11,-104 0,-93 4,6 16,62 25,125 10,63 24,135 31,160 8,25 23,103 35,173 11,71 25,137 30,147 6,10 21,83 34,162 13,79 26,157 29,173 3,17 12,62 21,100 17,78 35,215 28,215 -3,0 -11,-8 -19,-17 -13,-17 -14,-16 -8,7 4,14 16,63 26,110 44,190 51,210 70,210 14,0 19,-7 19,-25 z m -161,-34 c 10,-22 9,-40 -2,-87 -8,-32 -18,-81 -22,-108 -4,-27 -10,-56 -15,-65 -14,-29 -30,-87 -30,-110 0,-27 -17,-61 -30,-61 -17,0 -11,51 16,140 16,51 30,132 37,203 10,122 23,146 46,88 z m 701,-22 c 0,-5 -4,-9 -10,-9 -5,0 -10,7 -10,16 0,8 5,12 10,9 6,-3 10,-10 10,-16 z m -663,-389 c -4,-32 -15,-96 -26,-142 -11,-46 -24,-119 -31,-163 -6,-44 -24,-141 -41,-215 -17,-74 -35,-160 -41,-190 -13,-63 -23,-79 -39,-63 -13,13 3,178 26,273 7,30 19,82 25,115 7,33 18,80 26,105 20,67 44,176 44,200 0,11 5,20 10,20 6,0 10,9 10,20 0,20 31,100 39,100 2,0 1,-27 -2,-60 z m 928,-64 c 8,-88 -17,-197 -41,-174 -8,8 17,248 26,248 4,0 11,-33 15,-74 z m -241,-522 c 4,-14 4,-47 0,-73 l -8,-46 -12,59 c -12,58 -10,86 6,86 4,0 11,-12 14,-26 z m 86,-65 c 0,-11 -4,-18 -10,-14 -5,3 -7,12 -3,20 7,21 13,19 13,-6 z m -40,-24 c 0,-14 -4,-25 -10,-25 -5,0 -10,11 -10,25 0,14 5,25 10,25 6,0 10,-11 10,-25 z m 0,-72 c 0,-10 -5,-25 -10,-33 -7,-11 -10,-7 -10,18 0,17 5,32 10,32 6,0 10,-8 10,-17 z m -904,-108 c -4,-19 -11,-33 -17,-30 -8,6 -3,48 8,68 10,18 15,-4 9,-38 z m 982,-119 c 17,-35 28,-105 15,-91 -19,18 -55,127 -41,123 7,-3 19,-17 26,-32 z m 75,-264 c 41,-113 42,-116 29,-108 -15,9 -37,58 -56,125 -19,63 -18,61 -8,61 4,0 20,-35 35,-78 z m 134,-229 c 6,-11 8,-25 3,-32 -8,-14 -90,93 -90,119 0,15 64,-50 87,-87 z m -528,40 c 0,-25 -1,-25 -8,-8 -5,11 -7,23 -4,28 8,14 13,7 12,-20 z m 25,-115 c 15,-118 18,-208 9,-208 -12,0 -23,57 -23,125 0,28 -5,67 -11,88 -10,37 -5,62 10,52 5,-2 11,-28 15,-57 z m 1076,-32 c 0,-41 5,-58 18,-68 32,-25 41,-44 53,-119 6,-40 18,-99 26,-129 8,-30 23,-101 34,-158 11,-56 26,-122 35,-145 9,-23 22,-62 29,-87 7,-25 22,-65 33,-90 11,-25 26,-60 32,-77 7,-18 16,-33 21,-33 16,0 109,-133 109,-156 0,-37 -73,-85 -119,-80 -20,3 -53,2 -73,-1 -33,-5 -38,-10 -44,-39 -3,-18 -1,-47 5,-64 10,-29 9,-31 -11,-28 -13,2 -32,22 -51,57 -25,44 -28,57 -18,72 12,21 4,46 -23,68 -8,7 -18,31 -22,54 -4,23 -9,49 -10,57 -2,8 -9,50 -16,92 -8,45 -20,83 -29,90 -8,7 -23,40 -33,73 -10,33 -24,67 -31,75 -7,8 -15,27 -19,42 -3,15 -12,33 -20,41 -8,8 -19,32 -25,53 -6,21 -17,48 -24,59 -15,21 -66,164 -73,204 -3,13 -11,36 -19,52 -19,36 -11,56 28,65 18,3 52,15 77,26 25,11 60,27 78,35 37,16 38,20 15,52 -16,23 -15,25 6,43 13,10 32,18 42,18 16,0 19,-8 19,-54 z M 3450,1650 c 0,-11 -4,-20 -10,-20 -5,0 -10,9 -10,20 0,11 5,20 10,20 6,0 10,-9 10,-20 z m 6,-98 c 1,-20 7,-79 14,-130 12,-91 8,-142 -5,-66 -4,22 -11,53 -16,71 -13,40 -21,151 -13,164 10,17 18,1 20,-39 z M 2350,1301 c 0,-6 -7,-40 -15,-78 -19,-81 -43,-136 -56,-128 -16,10 -10,54 15,103 13,26 27,62 31,80 6,29 25,46 25,23 z m 1140,-8 c 0,-5 6,-37 14,-73 14,-68 24,-134 30,-211 3,-25 12,-71 21,-103 9,-32 14,-60 11,-63 -10,-10 -47,89 -51,136 -2,25 -13,105 -24,176 -24,152 -24,145 -11,145 6,0 10,-3 10,-7 z m -1230,-97 c 0,-3 -4,-8 -10,-11 -5,-3 -10,-1 -10,4 0,6 5,11 10,11 6,0 10,-2 10,-4 z m -105,-16 c 3,-5 1,-10 -4,-10 -6,0 -11,5 -11,10 0,6 2,10 4,10 3,0 8,-4 11,-10 z m 80,-50 c 10,-17 -16,-41 -39,-38 -13,2 -22,12 -24,26 -3,19 1,22 27,22 16,0 33,-5 36,-10 z m 138,-78 c 10,-10 14,-21 11,-24 -5,-6 -74,30 -74,38 0,12 49,1 63,-14 z m -313,-12 c 0,-5 -7,-10 -15,-10 -8,0 -15,5 -15,10 0,6 7,10 15,10 8,0 15,-4 15,-10 z m 230,-36 c 0,-13 -6,-15 -27,-9 -46,11 -51,25 -10,25 27,0 37,-4 37,-16 z m -495,-24 c 3,-5 1,-10 -4,-10 -6,0 -11,5 -11,10 0,6 2,10 4,10 3,0 8,-4 11,-10 z m 270,-23 c 7,-7 4,-8 -9,-3 -10,3 -25,1 -33,-5 -17,-15 -28,-5 -19,16 6,17 41,13 61,-8 z m 85,-10 c 0,-23 -47,-77 -66,-77 -5,0 -16,5 -24,10 -12,9 -7,17 30,50 52,46 60,48 60,17 z m 193,-20 c 16,-18 31,-32 35,-32 4,-1 18,-5 31,-9 21,-7 23,-12 18,-54 -3,-29 -12,-52 -25,-62 -23,-19 -138,-28 -127,-11 3,6 24,11 46,11 59,0 79,14 79,55 0,28 -4,35 -19,35 -11,0 -21,5 -23,10 -2,6 -19,2 -42,-10 -46,-23 -54,-20 -36,15 11,20 11,27 0,40 -16,20 -36,19 -44,-2 -11,-27 -30,1 -22,32 7,26 9,27 54,20 35,-5 54,-15 75,-38 z m 117,31 c 0,-29 -17,-41 -39,-29 -11,7 -21,16 -21,21 0,7 10,11 53,19 4,0 7,-5 7,-11 z m -681,-7 c 7,-5 12,-13 10,-18 -2,-5 -12,-1 -21,9 -19,19 -13,24 11,9 z m 111,-46 c 0,-18 -4,-23 -15,-19 -10,4 -15,0 -15,-15 0,-12 -7,-24 -15,-27 -8,-4 -15,-11 -15,-16 0,-6 7,-8 15,-5 19,8 27,-7 19,-38 -5,-19 -12,-25 -35,-25 -30,0 -38,17 -17,38 9,9 7,12 -8,12 -14,0 -28,-13 -40,-35 -19,-37 -63,-52 -49,-17 3,9 9,30 12,46 l 6,29 -38,-26 c -41,-28 -61,-27 -46,1 13,24 88,65 96,52 4,-6 16,-3 32,7 14,10 35,19 45,20 22,4 48,26 48,43 0,6 5,8 10,5 6,-3 10,-17 10,-30 z m 55,-46 c 9,-7 11,-38 6,-106 -1,-27 -29,-31 -38,-7 -3,9 -1,25 6,35 9,15 8,19 -4,19 -11,0 -15,11 -15,40 0,33 3,38 18,33 9,-3 22,-10 27,-14 z m 305,11 c 0,-5 -4,-10 -10,-10 -5,0 -10,5 -10,10 0,6 5,10 10,10 6,0 10,-4 10,-10 z m -641,-3 c -2,-1 -12,-9 -22,-16 -15,-12 -17,-12 -11,3 3,9 13,16 22,16 8,0 13,-1 11,-3 z m 61,-1 c 0,-9 -30,-14 -35,-6 -4,6 3,10 14,10 12,0 21,-2 21,-4 z m 376,-11 c 7,-18 -12,-45 -32,-45 -14,0 -20,41 -7,53 11,12 33,7 39,-8 z m -492,-21 c 11,-29 6,-44 -14,-44 -20,0 -43,36 -33,53 8,13 41,7 47,-9 z m 656,-7 c 0,-8 -11,-23 -23,-36 -21,-19 -25,-20 -37,-6 -11,13 -9,19 10,35 26,23 50,26 50,7 z m 150,-12 c -6,-7 -25,-16 -43,-19 -93,-18 -104,-16 -85,14 10,15 24,19 76,19 52,0 61,-3 52,-14 z m 268,-33 c 6,-18 -74,-15 -92,4 -9,8 -14,19 -11,23 6,11 98,-14 103,-27 z m 1901,7 c 30,-25 21,-35 -19,-19 -30,12 -36,21 -23,33 10,10 16,8 42,-14 z m 481,-19 c 0,-22 81,-90 107,-90 20,0 63,-34 63,-50 0,-5 8,-11 19,-15 10,-3 30,-16 43,-28 13,-12 40,-29 59,-38 49,-23 71,-95 61,-196 -5,-40 -11,-75 -13,-78 -3,-3 -27,-2 -52,1 -51,7 -62,26 -27,44 11,6 18,15 14,21 -7,12 -29,6 -103,-28 -36,-16 -57,-21 -64,-14 -12,12 22,43 66,62 15,6 27,18 27,26 0,11 -5,13 -17,8 -45,-18 -53,-18 -53,4 0,12 6,21 14,21 16,0 31,18 23,27 -7,6 -78,-27 -150,-69 -51,-30 -67,-29 -67,2 0,19 13,28 100,72 l 45,22 -32,4 c -37,4 -40,9 -16,28 10,7 15,16 10,20 -4,4 -43,-11 -87,-33 -44,-23 -82,-37 -85,-33 -11,18 9,36 70,65 35,17 65,36 65,43 0,8 -21,2 -60,-18 -33,-16 -62,-30 -65,-30 -4,0 -5,12 -3,26 2,20 12,29 41,39 43,15 53,22 44,32 -4,3 -25,-2 -47,-12 -27,-12 -44,-15 -51,-8 -16,16 27,46 89,64 68,19 76,34 21,42 -41,5 -88,-6 -99,-23 -11,-17 -115,-59 -124,-50 -22,22 17,51 123,89 31,11 49,26 60,47 17,34 51,36 51,4 z M 3440,725 c 0,-17 5,-36 12,-43 19,-19 -4,-37 -30,-23 -27,15 -48,14 -85,-3 -39,-18 -220,-67 -225,-61 -7,7 71,70 87,71 9,1 21,2 26,4 6,1 19,3 30,4 14,1 21,9 23,27 2,20 13,30 45,44 23,9 53,23 67,31 22,12 27,11 38,-3 6,-9 12,-31 12,-48 z m -1404,19 c -5,-13 -10,-14 -18,-6 -6,6 -8,18 -4,28 5,13 10,14 18,6 6,-6 8,-18 4,-28 z m 1554,17 c 0,-10 -6,-24 -14,-30 -22,-18 -84,-25 -100,-12 -24,20 -8,41 30,41 19,0 34,5 34,10 0,6 11,10 25,10 18,0 25,-5 25,-19 z m 1350,5 c 0,-14 -48,-36 -77,-36 -22,0 -5,19 30,34 42,19 47,19 47,2 z M 1662,738 c -15,-15 -26,-4 -18,18 5,13 9,15 18,6 9,-9 9,-15 0,-24 z m -137,5 c 3,-10 1,-19 -4,-21 -6,-2 -8,-8 -5,-14 3,-5 -3,-4 -15,4 -21,13 -27,29 -14,41 12,13 31,7 38,-10 z m 1209,11 c 19,-7 21,-40 3,-47 -19,-7 -43,8 -28,18 9,5 9,10 0,21 -12,15 -2,18 25,8 z M 1594,734 c 9,-22 8,-24 -9,-24 -8,0 -15,9 -15,20 0,24 15,27 24,4 z m 861,-9 c 0,-16 -7,-20 -37,-22 -43,-2 -48,9 -15,32 28,20 52,15 52,-10 z m 1198,18 c 8,-7 -11,-33 -24,-33 -5,0 -9,9 -9,20 0,19 20,27 33,13 z m 807,-23 c 0,-5 -5,-10 -11,-10 -5,0 -7,5 -4,10 3,6 8,10 11,10 2,0 4,-4 4,-10 z m -2286,-20 30,-19 -48,-21 c -46,-19 -86,-19 -86,0 0,12 52,60 65,60 5,0 23,-9 39,-20 z m 2587,10 c 29,-16 23,-27 -16,-32 -36,-4 -45,8 -23,30 15,15 15,15 39,2 z M 1868,686 c 3,-12 -1,-17 -10,-14 -7,3 -15,13 -16,22 -3,12 1,17 10,14 7,-3 15,-13 16,-22 z m 2622,14 c 0,-5 -5,-10 -11,-10 -5,0 -7,5 -4,10 3,6 8,10 11,10 2,0 4,-4 4,-10 z M 1537,670 c 0,-18 -6,-30 -14,-30 -7,0 -13,-4 -13,-10 0,-5 6,-10 14,-10 18,0 30,-17 17,-24 -13,-9 -41,22 -41,45 0,14 27,59 36,59 0,0 1,-13 1,-30 z m 414,17 c -1,-12 -15,-9 -19,4 -3,6 1,10 8,8 6,-3 11,-8 11,-12 z m -338,-25 c 37,-32 6,-45 -33,-14 -14,11 -20,24 -16,31 8,12 19,8 49,-17 z m 168,15 c -1,-12 -15,-9 -19,4 -3,6 1,10 8,8 6,-3 11,-8 11,-12 z m 1814,4 c 6,-11 -33,-26 -43,-16 -4,3 0,10 8,15 19,12 27,12 35,1 z m -665,-37 c 6,-14 10,-32 10,-40 0,-21 -35,3 -49,33 -15,32 -14,33 9,33 13,0 24,-10 30,-26 z m -880,6 c 0,-20 -89,-53 -110,-40 -9,6 1,15 31,29 48,22 79,27 79,11 z m 2507,-12 c -3,-8 -6,-5 -6,6 -1,11 2,17 5,13 3,-3 4,-12 1,-19 z m -511,0 c 3,-4 -99,-8 -226,-8 -151,0 -229,3 -225,10 7,12 444,10 451,-2 z M 1728,622 c 2,-7 -3,-12 -12,-12 -9,0 -16,7 -16,16 0,17 22,14 28,-4 z m 157,-13 c 0,-8 -10,-15 -23,-17 -21,-3 -22,-1 -12,18 12,23 35,22 35,-1 z m -202,-30 c -15,-13 -48,-18 -63,-9 -12,7 -10,12 9,30 23,19 25,19 43,3 10,-9 15,-20 11,-24 z m 1342,31 c 3,-5 -1,-10 -10,-10 -9,0 -13,5 -10,10 3,6 8,10 10,10 2,0 7,-4 10,-10 z m -1225,-8 c 0,-18 -26,-32 -57,-32 -31,0 -33,2 -23,20 8,14 21,20 45,20 19,0 35,-4 35,-8 z m 2685,-4 c 39,-17 32,-38 -13,-38 -48,0 -57,8 -35,32 19,21 16,21 48,6 z m 370,-7 c 0,-7 -17,-19 -37,-26 -35,-12 -38,-11 -38,7 0,19 33,39 60,35 8,-1 15,-8 15,-16 z M 3010,570 c 0,-5 -9,-10 -19,-10 -11,0 -23,5 -26,10 -4,6 5,10 19,10 14,0 26,-4 26,-10 z m 1820,-48 c 0,-5 -9,-17 -20,-27 -19,-17 -22,-17 -36,-3 -9,9 -13,21 -10,27 8,13 66,15 66,3 z m 270,-171 c 0,-5 -8,-11 -17,-15 -10,-3 -24,-9 -30,-12 -7,-3 -13,-1 -13,5 0,7 10,16 23,21 29,12 37,12 37,1 z m -250,-27 c 0,-8 -4,-12 -10,-9 -5,3 -10,10 -10,16 0,5 5,9 10,9 6,0 10,-7 10,-16 z m 270,-144 c 0,-12 -27,-12 -55,0 -16,7 -13,9 18,9 20,1 37,-3 37,-9 z"
         id="path16"
         inkscape:connector-curvature="0" />
      <g
         id="g20">
        <path
           d="m 6101,8647 c -11,-13 -21,-30 -21,-38 0,-8 -14,-27 -30,-43 -29,-28 -39,-56 -21,-56 5,0 14,7 21,15 18,22 50,19 50,-4 0,-43 44,-38 75,9 11,17 28,33 38,36 9,3 17,9 17,14 0,15 -32,21 -47,8 -12,-10 -18,-9 -29,7 -8,10 -14,29 -14,41 0,33 -14,37 -39,11 z"
           id="path18"
           inkscape:connector-curvature="0" />
      </g>
      <g
         id="g24">
        <path
           d="m 6233,8520 c -28,-11 -57,-55 -50,-75 4,-8 18,-17 32,-21 21,-5 33,0 56,22 52,50 26,101 -38,74 z m 22,-57 c -41,-36 -63,-11 -24,28 17,17 23,18 36,8 13,-12 12,-16 -12,-36 z"
           id="path22"
           inkscape:connector-curvature="0" />
      </g>
      <g
         id="g28">
        <path
           d="m 6354,8496 c -3,-8 -3,-19 0,-25 4,-5 2,-12 -3,-16 -20,-11 -51,-64 -42,-69 4,-3 22,8 40,24 29,28 47,35 79,31 27,-4 10,27 -28,48 -34,19 -41,20 -46,7 z"
           id="path26"
           inkscape:connector-curvature="0" />
      </g>
      <g
         id="g32">
        <path
           d="m 6442,8399 c -23,-28 -42,-57 -42,-64 0,-17 61,-38 73,-26 5,5 1,12 -12,16 -33,10 -26,35 9,35 17,0 30,5 30,10 0,6 -4,10 -10,10 -5,0 -10,5 -10,10 0,6 18,10 39,10 22,0 43,5 46,10 3,6 0,10 -9,10 -8,0 -16,4 -18,9 -1,5 -14,12 -28,16 -22,5 -32,-1 -68,-46 z"
           id="path30"
           inkscape:connector-curvature="0" />
      </g>
      <g
         id="g36">
        <path
           d="m 5904,8365 c -24,-25 -44,-48 -44,-52 1,-5 11,-20 23,-34 l 22,-27 43,19 c 32,14 42,24 42,41 0,13 9,31 20,41 26,22 25,43 -2,51 -45,12 -61,5 -104,-39 z m 90,17 c 7,-12 -42,-38 -51,-28 -5,4 1,14 11,22 23,16 33,18 40,6 z m -46,-69 c 2,-9 -8,-13 -33,-13 -33,0 -36,2 -25,15 15,18 51,16 58,-2 z"
           id="path34"
           inkscape:connector-curvature="0" />
      </g>
      <g
         id="g40">
        <path
           d="m 6052,8320 c -25,-10 -57,-74 -48,-96 8,-20 35,-17 73,6 36,22 52,62 33,85 -14,17 -25,18 -58,5 z m 23,-40 c 8,-13 -13,-40 -31,-40 -14,0 -19,31 -7,43 10,10 31,8 38,-3 z"
           id="path38"
           inkscape:connector-curvature="0" />
      </g>
      <g
         id="g44">
        <path
           d="m 6190,8241 c 0,-6 5,-13 10,-16 6,-4 8,-16 4,-28 l -6,-22 22,22 c 26,25 21,53 -10,53 -11,0 -20,-4 -20,-9 z"
           id="path42"
           inkscape:connector-curvature="0" />
      </g>
      <g
         id="g48">
        <path
           d="m 6144,8223 c -3,-10 -9,-25 -14,-34 -10,-20 6,-39 32,-39 20,0 24,15 7,26 -6,3 -9,19 -5,35 6,31 -11,41 -20,12 z"
           id="path46"
           inkscape:connector-curvature="0" />
      </g>
      <g
         id="g52">
        <path
           d="m 6289,8178 c -13,-18 -29,-37 -36,-41 -22,-13 -14,-28 11,-21 20,5 25,2 28,-17 5,-33 26,-35 34,-2 4,15 14,33 23,40 14,11 12,12 -11,13 -31,0 -36,11 -13,30 19,16 19,30 1,30 -8,0 -25,-15 -37,-32 z"
           id="path50"
           inkscape:connector-curvature="0" />
      </g>
      <g
         id="g56">
        <path
           d="m 5950,8074 c 0,-12 34,-33 53,-34 25,0 21,15 -8,28 -29,13 -45,15 -45,6 z"
           id="path54"
           inkscape:connector-curvature="0" />
      </g>
      <g
         id="g60">
        <path
           d="m 4145,3946 c -8,-19 -21,-72 -30,-118 -8,-46 -24,-114 -36,-153 -12,-38 -25,-93 -30,-122 -5,-29 -14,-65 -20,-80 -6,-15 -12,-42 -14,-59 -3,-16 -13,-77 -25,-135 -11,-57 -20,-118 -20,-134 0,-17 -4,-35 -9,-40 -6,-6 -6,-27 1,-55 6,-25 10,-69 9,-97 -1,-29 3,-53 8,-53 10,0 23,108 19,145 -2,15 3,20 22,20 24,0 25,-3 23,-50 0,-27 -4,-64 -8,-80 -6,-28 -4,-31 27,-40 40,-12 46,-40 24,-114 l -15,-50 45,-31 c 50,-34 64,-37 64,-15 0,8 -6,15 -13,15 -7,0 -28,12 -46,28 l -33,27 22,42 c 31,60 24,94 -22,115 -37,18 -38,19 -32,65 10,92 12,96 42,88 15,-4 29,-7 32,-8 3,-1 7,3 8,8 2,6 -10,14 -26,19 -30,9 -30,11 -31,77 0,50 3,71 14,76 15,9 10,53 -5,53 -13,0 -21,-33 -25,-102 -4,-77 -12,-98 -36,-98 -29,0 -37,29 -28,105 5,39 12,77 15,85 4,8 12,51 19,95 18,109 43,222 60,270 7,22 21,83 30,135 10,52 26,114 36,137 22,48 24,63 8,63 -5,0 -16,-15 -24,-34 z"
           id="path58"
           inkscape:connector-curvature="0" />
      </g>
      <g
         id="g64">
        <path
           d="m 4041,3938 c -6,-18 -19,-69 -30,-113 -10,-44 -27,-107 -36,-140 -22,-79 -54,-209 -55,-227 0,-5 5,-8 10,-8 6,0 10,5 10,11 0,6 7,17 15,25 8,9 15,26 15,38 0,13 7,43 16,67 8,24 22,88 30,141 8,54 23,126 34,160 23,72 23,78 11,78 -5,0 -14,-15 -20,-32 z"
           id="path62"
           inkscape:connector-curvature="0" />
      </g>
      <g
         id="g68">
        <path
           d="m 4396,3741 c 14,-14 74,-24 74,-13 0,13 -25,22 -58,22 -16,0 -22,-4 -16,-9 z"
           id="path66"
           inkscape:connector-curvature="0" />
      </g>
      <g
         id="g72">
        <path
           d="m 4406,3624 c -9,-24 -7,-62 4,-69 6,-3 10,4 10,17 0,13 3,33 6,46 7,25 -11,31 -20,6 z"
           id="path70"
           inkscape:connector-curvature="0" />
      </g>
      <g
         id="g76">
        <path
           d="m 4448,3564 c -4,-3 0,-24 8,-46 8,-22 14,-53 14,-69 0,-19 5,-29 15,-29 8,0 19,-17 25,-42 16,-62 22,-75 27,-61 5,13 -16,93 -47,178 -24,64 -33,79 -42,69 z"
           id="path74"
           inkscape:connector-curvature="0" />
      </g>
      <g
         id="g80">
        <path
           d="m 4405,3530 c -3,-5 -1,-10 4,-10 6,0 11,5 11,10 0,6 -2,10 -4,10 -3,0 -8,-4 -11,-10 z"
           id="path78"
           inkscape:connector-curvature="0" />
      </g>
      <g
         id="g84">
        <path
           d="m 4565,3470 c -3,-5 -1,-10 4,-10 6,0 11,5 11,10 0,6 -2,10 -4,10 -3,0 -8,-4 -11,-10 z"
           id="path82"
           inkscape:connector-curvature="0" />
      </g>
      <g
         id="g88">
        <path
           d="m 4572,3415 c 0,-16 2,-22 5,-12 2,9 2,23 0,30 -3,6 -5,-1 -5,-18 z"
           id="path86"
           inkscape:connector-curvature="0" />
      </g>
      <g
         id="g92">
        <path
           d="m 4090,3335 c 0,-8 4,-15 10,-15 5,0 7,7 4,15 -4,8 -8,15 -10,15 -2,0 -4,-7 -4,-15 z"
           id="path90"
           inkscape:connector-curvature="0" />
      </g>
      <g
         id="g96">
        <path
           d="m 4470,3301 c 0,-60 16,-77 22,-23 4,46 0,72 -13,72 -5,0 -9,-22 -9,-49 z"
           id="path94"
           inkscape:connector-curvature="0" />
      </g>
      <g
         id="g100">
        <path
           d="m 4533,3212 c 1,-43 6,-70 12,-68 5,2 9,9 7,16 -1,7 -3,32 -4,55 0,24 -4,49 -9,56 -5,8 -7,-16 -6,-59 z"
           id="path98"
           inkscape:connector-curvature="0" />
      </g>
      <g
         id="g104">
        <path
           d="m 3715,3260 c -3,-5 -1,-10 4,-10 6,0 11,5 11,10 0,6 -2,10 -4,10 -3,0 -8,-4 -11,-10 z"
           id="path102"
           inkscape:connector-curvature="0" />
      </g>
      <g
         id="g108">
        <path
           d="m 3740,3205 c 0,-8 2,-15 4,-15 2,0 6,7 10,15 3,8 1,15 -4,15 -6,0 -10,-7 -10,-15 z"
           id="path106"
           inkscape:connector-curvature="0" />
      </g>
      <g
         id="g112">
        <path
           d="m 4477,3153 c -13,-13 -7,-53 8,-53 10,0 15,10 15,30 0,29 -9,38 -23,23 z"
           id="path110"
           inkscape:connector-curvature="0" />
      </g>
      <g
         id="g116">
        <path
           d="m 4035,2811 c -3,-5 -1,-12 5,-16 5,-3 10,1 10,9 0,18 -6,21 -15,7 z"
           id="path114"
           inkscape:connector-curvature="0" />
      </g>
      <g
         id="g120">
        <path
           d="m 3725,2770 c 3,-5 8,-10 11,-10 2,0 4,5 4,10 0,6 -5,10 -11,10 -5,0 -7,-4 -4,-10 z"
           id="path118"
           inkscape:connector-curvature="0" />
      </g>
      <g
         id="g124">
        <path
           d="m 3706,2747 c 3,-10 9,-15 12,-12 3,3 0,11 -7,18 -10,9 -11,8 -5,-6 z"
           id="path122"
           inkscape:connector-curvature="0" />
      </g>
      <g
         id="g128">
        <path
           d="m 4005,2489 c 3,-19 15,-53 26,-76 10,-24 19,-50 19,-58 0,-8 7,-15 15,-15 12,0 12,6 -2,43 -9,23 -21,62 -28,86 -15,55 -41,71 -30,20 z"
           id="path126"
           inkscape:connector-curvature="0" />
      </g>
      <g
         id="g132">
        <path
           d="m 4200,2379 c 0,-6 12,-30 26,-54 19,-34 40,-51 85,-74 61,-30 101,-33 78,-5 -6,8 -19,14 -29,14 -10,0 -34,7 -53,15 -33,14 -49,33 -76,93 -11,23 -31,30 -31,11 z"
           id="path130"
           inkscape:connector-curvature="0" />
      </g>
      <g
         id="g136">
        <path
           d="m 4084,2306 c -7,-19 10,-52 56,-101 20,-22 42,-54 50,-70 17,-39 54,-67 83,-63 19,3 17,6 -15,22 -20,10 -41,29 -47,44 -14,36 -29,57 -68,97 -18,18 -33,42 -33,53 0,26 -18,38 -26,18 z"
           id="path134"
           inkscape:connector-curvature="0" />
      </g>
      <g
         id="g140">
        <path
           d="m 4198,2187 c 8,-9 32,-18 55,-21 130,-16 139,-16 135,-3 -3,7 -34,15 -79,19 -41,3 -85,10 -99,14 -22,7 -24,6 -12,-9 z"
           id="path138"
           inkscape:connector-curvature="0" />
      </g>
      <g
         id="g144">
        <path
           d="m 2632,3649 c 2,-7 10,-15 17,-17 8,-3 12,1 9,9 -2,7 -10,15 -17,17 -8,3 -12,-1 -9,-9 z"
           id="path142"
           inkscape:connector-curvature="0" />
      </g>
      <g
         id="g148">
        <path
           d="m 2732,3165 c 0,-16 2,-22 5,-12 2,9 2,23 0,30 -3,6 -5,-1 -5,-18 z"
           id="path146"
           inkscape:connector-curvature="0" />
      </g>
      <g
         id="g152">
        <path
           d="m 3380,3805 c -6,-23 -6,-95 1,-95 12,0 15,23 8,65 -3,22 -7,36 -9,30 z"
           id="path150"
           inkscape:connector-curvature="0" />
      </g>
      <g
         id="g156">
        <path
           d="m 3240,3755 c 0,-27 3,-45 7,-41 7,7 5,77 -3,85 -2,2 -4,-17 -4,-44 z"
           id="path154"
           inkscape:connector-curvature="0" />
      </g>
      <g
         id="g160">
        <path
           d="m 3440,3728 c 0,-26 4,-38 8,-30 8,12 4,72 -4,72 -2,0 -4,-19 -4,-42 z"
           id="path158"
           inkscape:connector-curvature="0" />
      </g>
      <g
         id="g164">
        <path
           d="m 3237,3645 c -10,-66 -9,-115 2,-115 11,0 22,129 12,147 -5,10 -10,0 -14,-32 z"
           id="path162"
           inkscape:connector-curvature="0" />
      </g>
      <g
         id="g168">
        <path
           d="m 3381,3644 c 0,-11 3,-14 6,-6 3,7 2,16 -1,19 -3,4 -6,-2 -5,-13 z"
           id="path166"
           inkscape:connector-curvature="0" />
      </g>
      <g
         id="g172">
        <path
           d="m 3566,3638 c -3,-13 -5,-54 -4,-93 l 1,-70 7,90 c 8,93 7,112 -4,73 z"
           id="path170"
           inkscape:connector-curvature="0" />
      </g>
      <g
         id="g176">
        <path
           d="m 3220,3430 c 0,-5 5,-10 10,-10 6,0 10,5 10,10 0,6 -4,10 -10,10 -5,0 -10,-4 -10,-10 z"
           id="path174"
           inkscape:connector-curvature="0" />
      </g>
      <g
         id="g180">
        <path
           d="m 3076,3068 c -10,-49 -14,-133 -6,-112 11,27 24,134 16,134 -3,0 -8,-10 -10,-22 z"
           id="path178"
           inkscape:connector-curvature="0" />
      </g>
      <g
         id="g184">
        <path
           d="m 3254,2583 c 13,-56 8,-266 -6,-303 -16,-40 -26,-110 -24,-160 5,-101 27,-295 37,-335 6,-21 11,-82 12,-135 v -95 l 8,65 c 5,41 3,109 -6,185 -13,117 -15,155 -19,340 -2,100 7,134 28,112 7,-7 19,-37 26,-67 28,-119 33,-83 9,59 -5,29 -6,57 -3,62 3,5 -2,44 -10,86 -8,43 -21,106 -27,141 -7,34 -16,65 -21,69 -6,3 -8,-6 -4,-24 z m 44,-263 c 0,-22 -4,-40 -9,-40 -5,0 -9,21 -9,46 0,25 4,43 9,39 6,-3 9,-23 9,-45 z"
           id="path182"
           inkscape:connector-curvature="0" />
      </g>
      <g
         id="g188">
        <path
           d="m 3581,2283 c 0,-16 4,-37 9,-48 6,-15 9,-8 9,28 1,26 -3,47 -9,47 -5,0 -10,-12 -9,-27 z"
           id="path186"
           inkscape:connector-curvature="0" />
      </g>
      <g
         id="g192">
        <path
           d="m 3601,2165 c -1,-32 23,-133 35,-144 9,-9 -4,80 -21,131 -12,40 -13,41 -14,13 z"
           id="path190"
           inkscape:connector-curvature="0" />
      </g>
      <g
         id="g196">
        <path
           d="m 2960,1935 c 0,-8 -4,-15 -9,-15 -9,0 -23,-36 -35,-92 -5,-22 -3,-26 9,-22 10,4 15,20 15,45 0,28 4,39 15,39 10,0 15,10 15,30 0,17 -2,30 -5,30 -3,0 -5,-7 -5,-15 z"
           id="path194"
           inkscape:connector-curvature="0" />
      </g>
      <g
         id="g200">
        <path
           d="m 3491,1870 c -1,-14 4,-54 10,-90 5,-36 12,-103 15,-149 2,-46 8,-100 14,-120 5,-20 11,-70 14,-111 9,-124 28,-250 39,-250 6,0 7,15 3,38 -3,20 -9,73 -12,117 -3,44 -9,92 -14,107 -5,15 -6,36 -3,47 3,12 1,27 -5,34 -5,6 -13,57 -17,112 -8,133 -25,256 -35,275 -7,12 -9,9 -9,-10 z"
           id="path198"
           inkscape:connector-curvature="0" />
      </g>
      <g
         id="g204">
        <path
           d="m 3167,1753 c -8,-13 0,-466 8,-505 4,-21 12,-38 17,-38 6,0 7,16 4,38 -15,101 -17,139 -18,318 -1,107 -2,194 -4,194 -2,0 -5,-3 -7,-7 z"
           id="path202"
           inkscape:connector-curvature="0" />
      </g>
      <g
         id="g208">
        <path
           d="m 3282,1458 c 4,-40 13,-102 20,-138 6,-36 14,-114 18,-175 3,-60 7,-105 9,-100 7,28 -2,196 -14,264 -7,42 -13,84 -12,92 3,26 -14,129 -22,129 -4,0 -3,-33 1,-72 z"
           id="path206"
           inkscape:connector-curvature="0" />
      </g>
      <g
         id="g212">
        <path
           d="m 3796,1400 c -4,-9 9,-63 28,-120 66,-205 78,-250 70,-283 -4,-18 -8,-36 -9,-42 -2,-28 -18,-55 -33,-55 -33,0 -109,-33 -121,-53 -12,-18 -11,-19 6,-13 10,4 39,11 66,16 26,5 57,14 68,20 24,13 42,55 34,80 -3,10 0,29 6,43 9,21 6,47 -21,148 -17,68 -36,129 -41,135 -6,7 -18,41 -28,76 -12,40 -21,57 -25,48 z"
           id="path210"
           inkscape:connector-curvature="0" />
      </g>
      <g
         id="g216">
        <path
           d="m 2905,1315 c -9,-60 0,-69 15,-15 7,27 8,46 2,52 -6,6 -12,-8 -17,-37 z"
           id="path214"
           inkscape:connector-curvature="0" />
      </g>
      <g
         id="g220">
        <path
           d="m 2830,1218 c 0,-32 3,-39 10,-28 13,20 13,70 0,70 -5,0 -10,-19 -10,-42 z"
           id="path218"
           inkscape:connector-curvature="0" />
      </g>
      <g
         id="g224">
        <path
           d="m 2896,1145 c -10,-140 -8,-374 4,-394 13,-22 13,-20 6,139 -1,19 1,54 4,76 4,23 3,50 -1,61 -4,11 -3,40 2,66 4,26 5,73 1,104 -8,57 -8,57 -16,-52 z"
           id="path222"
           inkscape:connector-curvature="0" />
      </g>
      <g
         id="g228">
        <path
           d="m 2829,1090 c -3,-41 -4,-77 -2,-79 10,-13 14,15 11,80 l -3,74 z"
           id="path226"
           inkscape:connector-curvature="0" />
      </g>
      <g
         id="g232">
        <path
           d="m 3760,1005 c -36,-26 -56,-53 -46,-63 4,-3 16,5 28,17 11,13 36,30 54,37 19,8 34,19 34,24 0,17 -34,10 -70,-15 z"
           id="path230"
           inkscape:connector-curvature="0" />
      </g>
      <g
         id="g236">
        <path
           d="m 3783,950 c -42,-19 -57,-40 -29,-40 22,0 76,34 76,48 0,15 3,15 -47,-8 z"
           id="path234"
           inkscape:connector-curvature="0" />
      </g>
      <g
         id="g240">
        <path
           d="m 2822,930 c 0,-19 2,-27 5,-17 2,9 2,25 0,35 -3,9 -5,1 -5,-18 z"
           id="path238"
           inkscape:connector-curvature="0" />
      </g>
      <g
         id="g244">
        <path
           d="m 2887,2404 c -4,-4 -7,-20 -7,-36 0,-15 -5,-37 -12,-47 -6,-10 -8,-26 -3,-37 5,-15 12,-4 26,46 17,57 15,92 -4,74 z"
           id="path242"
           inkscape:connector-curvature="0" />
      </g>
      <g
         id="g248">
        <path
           d="m 2836,2153 c -10,-118 -5,-147 10,-53 15,104 17,130 5,130 -4,0 -11,-34 -15,-77 z"
           id="path246"
           inkscape:connector-curvature="0" />
      </g>
      <g
         id="g252">
        <path
           d="m 2817,1933 c -6,-49 -21,-145 -57,-363 -42,-256 -59,-450 -40,-450 6,0 10,27 10,61 0,34 4,89 10,123 5,33 14,97 20,140 6,44 15,85 20,91 6,7 7,33 4,58 -4,27 -2,52 3,59 6,7 18,72 27,143 9,72 19,142 21,158 3,15 1,27 -4,27 -5,0 -11,-21 -14,-47 z"
           id="path250"
           inkscape:connector-curvature="0" />
      </g>
      <g
         id="g256">
        <path
           d="m 2634,1733 c -3,-15 -9,-39 -14,-53 -15,-44 -40,-168 -40,-197 1,-44 16,-9 34,82 10,44 24,95 32,113 16,38 18,68 4,77 -5,3 -12,-7 -16,-22 z"
           id="path254"
           inkscape:connector-curvature="0" />
      </g>
      <g
         id="g260">
        <path
           d="m 2486,1558 c -8,-32 -7,-38 4,-38 6,0 10,6 10,14 0,8 5,16 12,18 6,2 8,10 4,16 -11,18 -23,14 -30,-10 z"
           id="path258"
           inkscape:connector-curvature="0" />
      </g>
      <g
         id="g264">
        <path
           d="m 2462,1460 c -19,-76 -59,-213 -71,-243 -13,-34 -14,-50 -2,-43 16,10 94,289 88,315 -2,9 -8,-4 -15,-29 z"
           id="path262"
           inkscape:connector-curvature="0" />
      </g>
      <g
         id="g268">
        <path
           d="m 2704,1004 c -11,-83 -7,-144 8,-144 7,0 8,24 4,68 -3,37 -2,84 3,105 5,20 6,39 2,42 -5,2 -12,-30 -17,-71 z"
           id="path266"
           inkscape:connector-curvature="0" />
      </g>
      <g
         id="g272">
        <path
           d="m 3321,721 c -14,-4 -26,-12 -29,-19 -6,-20 43,-14 63,8 20,22 12,24 -34,11 z"
           id="path270"
           inkscape:connector-curvature="0" />
      </g>
    </g>
    <g
       id="g278">
      <path
         d="m 3552,9288 c -18,-18 -15,-49 3,-42 31,12 13,-25 -35,-72 -55,-55 -60,-64 -29,-64 53,0 105,56 124,133 12,45 -32,76 -63,45 z"
         id="path276"
         inkscape:connector-curvature="0" />
    </g>
    <g
       id="g282">
      <path
         d="m 2600,9147 c 0,-16 59,-71 67,-63 6,6 -47,76 -58,76 -5,0 -9,-6 -9,-13 z"
         id="path280"
         inkscape:connector-curvature="0" />
    </g>
    <g
       id="g286">
      <path
         d="m 3361,9024 c -1,-17 -8,-37 -17,-45 -13,-11 -15,-28 -9,-103 6,-86 16,-118 31,-103 16,16 19,203 4,253 l -8,29 z"
         id="path284"
         inkscape:connector-curvature="0" />
    </g>
    <g
       id="g290">
      <path
         d="m 3405,9000 c -12,-19 7,-30 53,-30 47,0 82,13 70,25 -3,4 -15,2 -26,-4 -29,-15 -58,-14 -76,4 -9,9 -17,11 -21,5 z"
         id="path288"
         inkscape:connector-curvature="0" />
    </g>
    <g
       id="g294">
      <path
         d="m 3281,8903 c 1,-16 -1,-35 -4,-43 -21,-58 -15,-143 9,-133 9,3 14,-2 14,-13 0,-11 3,-14 9,-8 24,24 5,224 -21,224 -5,0 -9,-12 -7,-27 z"
         id="path292"
         inkscape:connector-curvature="0" />
    </g>
    <g
       id="g298">
      <path
         d="m 560,8835 c 0,-8 12,-21 28,-30 36,-20 102,-79 102,-92 0,-6 15,-16 33,-24 17,-7 34,-16 37,-20 3,-3 19,-10 36,-13 25,-6 33,-3 38,11 5,11 10,13 14,7 9,-14 52,-28 52,-17 0,4 -18,21 -40,36 -22,16 -40,33 -40,38 0,5 -16,9 -36,9 -39,0 -63,20 -64,53 0,21 -19,22 -34,1 -11,-14 -17,-12 -54,12 -23,15 -42,31 -42,36 0,4 -7,8 -15,8 -8,0 -15,-7 -15,-15 z"
         id="path296"
         inkscape:connector-curvature="0" />
    </g>
    <g
       id="g302">
      <path
         d="m 3226,8683 c 9,-37 14,-44 25,-38 16,10 10,40 -11,53 -19,12 -20,11 -14,-15 z"
         id="path300"
         inkscape:connector-curvature="0" />
    </g>
    <g
       id="g306">
      <path
         d="m 3155,8669 c 12,-39 27,-48 23,-15 -2,16 -9,31 -17,34 -10,3 -11,-2 -6,-19 z"
         id="path304"
         inkscape:connector-curvature="0" />
    </g>
    <g
       id="g310">
      <path
         d="m 1037,8674 c -13,-13 -7,-24 14,-24 11,0 19,5 17,12 -5,14 -22,21 -31,12 z"
         id="path308"
         inkscape:connector-curvature="0" />
    </g>
    <g
       id="g314">
      <path
         d="m 3121,8653 c 0,-15 4,-37 9,-48 7,-16 9,-11 9,22 1,23 -3,45 -9,48 -6,4 -10,-6 -9,-22 z"
         id="path312"
         inkscape:connector-curvature="0" />
    </g>
    <g
       id="g318">
      <path
         d="m 3054,8623 c 3,-21 6,-48 6,-60 0,-13 5,-23 10,-23 11,0 13,42 4,89 -9,45 -28,39 -20,-6 z"
         id="path316"
         inkscape:connector-curvature="0" />
    </g>
    <g
       id="g322">
      <path
         d="m 1088,8643 c -16,-4 -15,-22 7,-75 12,-30 -30,-22 -62,12 -15,17 -36,30 -45,30 -9,0 -24,7 -32,16 -9,8 -21,14 -28,12 -7,-3 -4,-12 10,-26 24,-24 22,-42 -5,-42 -14,0 -14,-2 1,-19 14,-15 18,-40 19,-122 1,-72 6,-104 15,-107 6,-2 12,-8 12,-14 0,-6 18,-30 40,-54 22,-24 40,-52 40,-63 0,-37 -29,-30 -97,25 -37,29 -71,54 -74,54 -4,0 -14,-12 -24,-26 -15,-23 -15,-28 -2,-42 8,-10 22,-31 30,-48 9,-17 35,-44 58,-60 24,-16 51,-37 61,-46 20,-20 132,-26 143,-8 11,18 121,12 157,-9 29,-17 186,-61 218,-61 52,0 140,-92 140,-147 0,-13 5,-23 10,-23 19,0 10,43 -22,100 -34,62 -86,100 -136,100 -48,0 -156,27 -212,53 -51,24 -61,25 -125,17 -131,-17 -150,-14 -211,32 -54,40 -101,109 -89,128 8,14 39,-4 90,-51 39,-36 47,-39 99,-39 77,0 74,16 -21,112 l -77,77 -2,99 c -3,104 5,137 28,114 6,-6 21,-12 31,-12 29,0 126,-50 173,-89 6,-5 30,-18 55,-30 46,-22 185,-106 213,-130 9,-7 16,-20 16,-27 0,-27 -18,-19 -149,61 -9,6 -47,29 -83,53 -37,23 -74,42 -81,42 -7,0 -26,14 -42,30 -16,17 -38,30 -49,30 -19,-1 -17,-4 11,-29 23,-19 30,-30 22,-38 -7,-7 -5,-14 6,-23 25,-21 18,-33 -17,-26 -33,6 -33,6 -13,-13 11,-11 46,-27 79,-35 70,-19 89,-32 80,-59 -6,-18 -3,-19 27,-12 46,11 75,10 134,-4 28,-7 69,-14 92,-16 42,-3 43,-2 37,24 -9,37 -19,46 -72,71 -26,12 -56,30 -67,40 -11,9 -41,30 -67,44 -49,29 -49,29 -39,99 2,17 44,5 69,-20 22,-23 82,-54 207,-107 17,-8 63,-26 103,-41 40,-15 86,-38 103,-52 29,-25 48,-26 34,-3 -14,23 -111,76 -170,94 -33,9 -73,23 -90,31 -96,42 -149,69 -174,91 -63,52 -120,48 -109,-10 6,-31 -5,-42 -22,-21 -7,8 -9,15 -5,15 3,0 -3,12 -14,26 -11,14 -27,49 -37,77 -9,29 -21,58 -27,65 -9,12 -45,14 -79,5 z m 77,-81 c 19,-81 -10,-85 -45,-6 -23,49 -19,67 13,62 16,-2 23,-15 32,-56 z m 20,-212 c 3,-5 -1,-10 -9,-10 -9,0 -16,5 -16,10 0,6 4,10 9,10 6,0 13,-4 16,-10 z m 145,-81 c 0,-14 -23,-11 -48,7 -25,17 -30,36 -7,28 9,-4 15,0 15,7 1,15 40,-27 40,-42 z"
         id="path320"
         inkscape:connector-curvature="0" />
    </g>
    <g
       id="g326">
      <path
         d="m 3324,8613 c -14,-33 -15,-51 -5,-137 6,-57 17,-103 24,-108 18,-11 20,8 8,57 -14,55 -14,170 -1,195 7,13 7,21 0,25 -6,4 -18,-11 -26,-32 z"
         id="path324"
         inkscape:connector-curvature="0" />
    </g>
    <g
       id="g330">
      <path
         d="m 850,8630 c 0,-12 28,-25 36,-17 3,3 -4,10 -15,17 -15,7 -21,7 -21,0 z"
         id="path328"
         inkscape:connector-curvature="0" />
    </g>
    <g
       id="g334">
      <path
         d="m 1031,8487 c -1,-21 28,-81 36,-74 2,3 -4,25 -15,49 -11,24 -21,35 -21,25 z"
         id="path332"
         inkscape:connector-curvature="0" />
    </g>
    <g
       id="g338">
      <path
         d="m 2782,8270 c -23,-17 -42,-35 -42,-40 0,-16 10,-12 47,20 18,17 38,30 43,30 6,0 10,5 10,10 0,17 -15,11 -58,-20 z"
         id="path336"
         inkscape:connector-curvature="0" />
    </g>
    <g
       id="g342">
      <path
         d="m 1568,8168 c 12,-12 25,-19 28,-15 4,4 -1,14 -12,22 -29,22 -41,18 -16,-7 z"
         id="path340"
         inkscape:connector-curvature="0" />
    </g>
    <g
       id="g346">
      <path
         d="m 2736,7769 c -2,-8 -7,-25 -9,-39 -3,-14 -10,-43 -16,-65 -5,-22 -7,-67 -4,-100 6,-51 8,-56 14,-30 4,17 7,51 8,76 0,25 8,69 17,98 11,37 12,57 5,64 -7,7 -12,6 -15,-4 z"
         id="path344"
         inkscape:connector-curvature="0" />
    </g>
    <g
       id="g350">
      <path
         d="m 4040,7251 c 0,-10 14,-71 30,-136 17,-65 30,-128 30,-141 0,-13 5,-26 10,-29 6,-3 10,-21 10,-39 0,-18 13,-68 29,-112 48,-129 50,-135 70,-224 45,-196 53,-262 49,-402 -2,-98 0,-138 8,-138 24,0 26,322 3,400 -24,84 -41,149 -54,210 -14,67 -35,131 -61,187 -8,17 -16,44 -18,60 -4,32 -31,137 -51,203 -8,25 -20,75 -27,113 -12,62 -28,91 -28,48 z"
         id="path348"
         inkscape:connector-curvature="0" />
    </g>
    <g
       id="g354">
      <path
         d="m 2650,7150 c 0,-27 5,-50 10,-50 6,0 10,23 10,50 0,28 -4,50 -10,50 -5,0 -10,-22 -10,-50 z"
         id="path352"
         inkscape:connector-curvature="0" />
    </g>
    <g
       id="g358">
      <path
         d="m 2655,6978 c 0,-40 -6,-134 -13,-208 -7,-74 -16,-218 -21,-320 -5,-102 -10,-189 -12,-195 -11,-38 42,-355 60,-355 3,0 12,-14 18,-31 7,-18 16,-28 23,-24 12,7 4,42 -15,65 -21,25 -70,306 -60,340 2,8 7,94 9,190 3,96 11,238 17,315 15,183 17,287 4,292 -7,2 -11,-24 -10,-69 z"
         id="path356"
         inkscape:connector-curvature="0" />
    </g>
    <g
       id="g362">
      <path
         d="m 3812,6917 c -1,-17 2,-41 7,-52 5,-11 17,-72 26,-135 8,-63 24,-160 35,-215 50,-253 72,-600 43,-652 -13,-21 -8,-53 7,-53 14,0 21,81 22,270 2,206 -5,266 -56,480 -16,65 -46,265 -51,330 -4,57 -4,60 -17,60 -7,0 -14,-15 -16,-33 z"
         id="path360"
         inkscape:connector-curvature="0" />
    </g>
    <g
       id="g366">
      <path
         d="m 2854,6625 c 15,-134 18,-305 6,-321 -11,-12 -11,-18 2,-30 11,-11 13,-25 9,-47 -10,-46 6,-226 30,-337 11,-52 22,-105 25,-117 3,-15 9,-20 19,-17 11,4 12,11 5,24 -13,23 -39,147 -52,250 -11,79 -14,176 -8,260 5,65 -21,365 -31,375 -8,7 -9,-5 -5,-40 z"
         id="path364"
         inkscape:connector-curvature="0" />
    </g>
    <g
       id="g370">
      <path
         d="m 1845,2180 c 3,-5 8,-10 11,-10 2,0 4,5 4,10 0,6 -5,10 -11,10 -5,0 -7,-4 -4,-10 z"
         id="path368"
         inkscape:connector-curvature="0" />
    </g>
    <g
       id="g374">
      <path
         d="m 6400,1930 c 0,-5 5,-10 11,-10 5,0 7,5 4,10 -3,6 -8,10 -11,10 -2,0 -4,-4 -4,-10 z"
         id="path372"
         inkscape:connector-curvature="0" />
    </g>
    <g
       id="g378">
      <path
         d="m 1185,1549 c -4,-5 -19,-15 -33,-20 l -27,-11 24,-19 c 13,-10 32,-19 42,-19 12,0 19,-7 19,-19 0,-13 -14,-23 -47,-36 -27,-9 -66,-25 -88,-35 -22,-10 -60,-24 -84,-32 -25,-8 -47,-20 -49,-26 -4,-14 30,-16 56,-3 35,17 89,41 161,71 86,36 107,56 84,82 -9,10 -19,16 -23,13 -4,-2 -16,2 -26,10 -18,13 -18,14 9,24 16,6 35,11 43,11 8,0 14,5 14,10 0,13 -67,13 -75,-1 z"
         id="path376"
         inkscape:connector-curvature="0" />
    </g>
    <g
       id="g382">
      <path
         d="m 1449,1471 c -28,-27 -29,-30 -12,-39 10,-6 18,-24 20,-44 1,-18 4,-44 6,-58 3,-14 5,-30 6,-36 0,-7 31,-19 69,-27 37,-9 75,-19 85,-22 11,-5 17,-2 17,8 0,18 -12,23 -76,32 -49,7 -74,20 -74,36 0,5 7,6 15,3 22,-9 22,138 -1,160 -20,21 -19,21 -55,-13 z"
         id="path380"
         inkscape:connector-curvature="0" />
    </g>
    <g
       id="g386">
      <path
         d="m 1339,1468 c -11,-10 -14,-30 -11,-85 4,-75 22,-103 22,-34 0,25 5,41 15,45 8,3 15,10 15,16 0,5 -7,10 -15,10 -8,0 -15,4 -15,9 0,5 7,14 15,21 8,7 15,16 15,21 0,13 -24,11 -41,-3 z"
         id="path384"
         inkscape:connector-curvature="0" />
    </g>
    <g
       id="g390">
      <path
         d="m 1144,1305 c -4,-9 -3,-19 0,-23 9,-8 42,12 39,24 -4,16 -33,16 -39,-1 z"
         id="path388"
         inkscape:connector-curvature="0" />
    </g>
    <g
       id="g394">
      <path
         d="m 1600,1200 c -11,-6 -12,-12 -4,-20 14,-14 44,-2 37,16 -6,16 -12,17 -33,4 z"
         id="path392"
         inkscape:connector-curvature="0" />
    </g>
    <g
       id="g398">
      <path
         d="m 1879,1170 c -21,-12 -223,-42 -268,-39 -61,3 -91,-1 -91,-12 0,-11 225,-8 237,4 3,4 26,7 49,7 24,0 53,4 66,9 13,5 35,12 51,15 15,4 27,11 27,16 0,13 -50,12 -71,0 z"
         id="path396"
         inkscape:connector-curvature="0" />
    </g>
    <g
       id="g402">
      <path
         d="m 1320,1128 c 0,-4 4,-9 9,-13 12,-7 183,6 175,14 -8,8 -184,8 -184,-1 z"
         id="path400"
         inkscape:connector-curvature="0" />
    </g>
    <g
       id="g406">
      <path
         d="m 1765,1050 c 3,-5 12,-10 20,-10 8,0 17,5 20,10 4,6 -5,10 -20,10 -15,0 -24,-4 -20,-10 z"
         id="path404"
         inkscape:connector-curvature="0" />
    </g>
    <g
       id="g410">
      <path
         d="m 1533,1043 c -18,-2 -33,-9 -33,-15 0,-6 14,-8 38,-4 20,4 54,8 75,10 21,2 41,7 44,10 7,6 -70,6 -124,-1 z"
         id="path408"
         inkscape:connector-curvature="0" />
    </g>
    <g
       id="g414">
      <path
         d="m 1430,1030 c 0,-5 11,-10 25,-10 14,0 25,5 25,10 0,6 -11,10 -25,10 -14,0 -25,-4 -25,-10 z"
         id="path412"
         inkscape:connector-curvature="0" />
    </g>
    <g
       id="g418">
      <path
         d="m 1218,1015 c -2,-3 -20,-6 -39,-8 -22,-2 -34,-8 -34,-17 0,-18 4,-18 78,-1 31,8 57,18 57,23 0,9 -53,11 -62,3 z"
         id="path416"
         inkscape:connector-curvature="0" />
    </g>
    <g
       id="g422">
      <path
         d="m 1413,982 c -35,-2 -63,-7 -63,-12 0,-15 212,-8 217,7 4,12 -2,12 -154,5 z"
         id="path420"
         inkscape:connector-curvature="0" />
    </g>
    <g
       id="g426">
      <path
         d="m 905,970 c -4,-6 20,-10 65,-10 45,0 69,4 65,10 -3,6 -33,10 -65,10 -32,0 -62,-4 -65,-10 z"
         id="path424"
         inkscape:connector-curvature="0" />
    </g>
    <g
       id="g430">
      <path
         d="m 1275,930 c -4,-6 5,-10 19,-10 14,0 26,5 26,10 0,6 -9,10 -19,10 -11,0 -23,-4 -26,-10 z"
         id="path428"
         inkscape:connector-curvature="0" />
    </g>
    <g
       id="g434">
      <path
         d="m 1390,930 -45,-7 53,-1 c 29,-1 52,2 52,8 0,6 -3,9 -7,8 -5,0 -28,-4 -53,-8 z"
         id="path432"
         inkscape:connector-curvature="0" />
    </g>
    <g
       id="g438">
      <path
         d="m 1010,893 -35,-14 34,6 c 18,3 42,5 52,5 11,0 19,5 19,10 0,13 -27,11 -70,-7 z"
         id="path436"
         inkscape:connector-curvature="0" />
    </g>
    <g
       id="g442">
      <path
         d="m 930,880 c 0,-5 5,-10 10,-10 6,0 10,5 10,10 0,6 -4,10 -10,10 -5,0 -10,-4 -10,-10 z"
         id="path440"
         inkscape:connector-curvature="0" />
    </g>
    <g
       id="g446">
      <path
         d="m 1198,842 c -41,-8 -13,-18 47,-19 49,0 65,3 65,14 0,10 -12,13 -47,11 -27,-2 -56,-4 -65,-6 z"
         id="path444"
         inkscape:connector-curvature="0" />
    </g>
    <g
       id="g450">
      <path
         d="m 1038,833 c 12,-2 32,-2 45,0 12,2 2,4 -23,4 -25,0 -35,-2 -22,-4 z"
         id="path448"
         inkscape:connector-curvature="0" />
    </g>
    <g
       id="g454">
      <path
         d="m 1248,784 c -3,-3 -41,-7 -84,-10 -147,-8 -195,-12 -201,-18 -4,-3 30,-6 74,-6 44,0 83,3 87,7 3,4 35,8 69,10 34,2 100,7 147,12 l 85,8 -86,2 c -47,0 -88,-2 -91,-5 z"
         id="path452"
         inkscape:connector-curvature="0" />
    </g>
    <g
       id="g458">
      <path
         d="m 761,761 c -8,-5 -9,-11 -3,-15 13,-8 72,4 72,15 0,11 -51,11 -69,0 z"
         id="path456"
         inkscape:connector-curvature="0" />
    </g>
    <g
       id="g462">
      <path
         d="m 856,761 c -31,-12 -2,-22 43,-15 22,4 38,10 35,15 -6,11 -51,11 -78,0 z"
         id="path460"
         inkscape:connector-curvature="0" />
    </g>
    <g
       id="g466">
      <path
         d="m 1180,700 c -19,-5 -38,-6 -41,-4 -4,2 -20,-1 -35,-6 -19,-8 -24,-14 -17,-21 7,-7 16,-7 29,0 11,6 52,15 92,22 39,6 72,13 72,15 0,6 -62,3 -100,-6 z"
         id="path464"
         inkscape:connector-curvature="0" />
    </g>
    <g
       id="g470">
      <path
         d="m 2305,640 c -4,-6 15,-10 51,-10 32,0 55,3 52,6 -11,10 -97,14 -103,4 z"
         id="path468"
         inkscape:connector-curvature="0" />
    </g>
    <g
       id="g474">
      <path
         d="m 2485,640 c -3,-5 -1,-10 4,-10 6,0 11,5 11,10 0,6 -2,10 -4,10 -3,0 -8,-4 -11,-10 z"
         id="path472"
         inkscape:connector-curvature="0" />
    </g>
    <g
       id="g478">
      <path
         d="m 2510,640 c 0,-5 7,-10 15,-10 8,0 15,5 15,10 0,6 -7,10 -15,10 -8,0 -15,-4 -15,-10 z"
         id="path476"
         inkscape:connector-curvature="0" />
    </g>
    <g
       id="g482">
      <path
         d="m 2626,641 c 5,-6 24,-6 44,-1 l 35,8 -44,1 c -28,1 -41,-3 -35,-8 z"
         id="path480"
         inkscape:connector-curvature="0" />
    </g>
    <g
       id="g486">
      <path
         d="m 3440,580 c 0,-5 5,-10 11,-10 5,0 7,5 4,10 -3,6 -8,10 -11,10 -2,0 -4,-4 -4,-10 z"
         id="path484"
         inkscape:connector-curvature="0" />
    </g>
    <g
       id="g490">
      <path
         d="m 3205,570 c -4,-6 7,-10 27,-10 25,0 29,3 18,10 -19,13 -37,13 -45,0 z"
         id="path488"
         inkscape:connector-curvature="0" />
    </g>
    <g
       id="g494">
      <path
         d="m 3358,573 c 12,-2 30,-2 40,0 9,3 -1,5 -23,4 -22,0 -30,-2 -17,-4 z"
         id="path492"
         inkscape:connector-curvature="0" />
    </g>
    <g
       id="g498">
      <path
         d="m 3490,569 c 0,-5 5,-7 10,-4 6,3 10,8 10,11 0,2 -4,4 -10,4 -5,0 -10,-5 -10,-11 z"
         id="path496"
         inkscape:connector-curvature="0" />
    </g>
    <g
       id="g502">
      <path
         d="m 3688,568 c 9,-9 15,-9 24,0 9,9 7,12 -12,12 -19,0 -21,-3 -12,-12 z"
         id="path500"
         inkscape:connector-curvature="0" />
    </g>
    <g
       id="g506">
      <path
         d="m 3750,570 c 0,-5 7,-10 15,-10 8,0 15,5 15,10 0,6 -7,10 -15,10 -8,0 -15,-4 -15,-10 z"
         id="path504"
         inkscape:connector-curvature="0" />
    </g>
    <g
       id="g510">
      <path
         d="m 3820,570 c 0,-5 14,-10 31,-10 17,0 28,4 24,10 -3,6 -17,10 -31,10 -13,0 -24,-4 -24,-10 z"
         id="path508"
         inkscape:connector-curvature="0" />
    </g>
    <g
       id="g514">
      <path
         d="m 4140,440 c 0,-5 4,-10 9,-10 6,0 13,5 16,10 3,6 -1,10 -9,10 -9,0 -16,-4 -16,-10 z"
         id="path512"
         inkscape:connector-curvature="0" />
    </g>
    <g
       id="g518">
      <path
         d="m 4180,440 c 0,-5 18,-10 39,-10 22,0 43,5 46,10 4,6 -12,10 -39,10 -25,0 -46,-4 -46,-10 z"
         id="path516"
         inkscape:connector-curvature="0" />
    </g>
  </g>
</svg>
