<?xml version="1.0" standalone="no"?>
<!DOCTYPE svg PUBLIC "-//W3C//DTD SVG 20010904//EN"
 "http://www.w3.org/TR/2001/REC-SVG-20010904/DTD/svg10.dtd">
<svg version="1.0" xmlns="http://www.w3.org/2000/svg"
 width="924.000000pt" height="701.000000pt" viewBox="0 0 924.000000 701.000000"
 preserveAspectRatio="xMidYMid meet">
<metadata>
Created by potrace 1.15, written by Peter Selinger 2001-2017
</metadata>
<g transform="translate(0.000000,701.000000) scale(0.100000,-0.100000)"
fill="#000000" stroke="none">
<g>
<path d="M5636 6701 c-4 -5 -3 -16 0 -25 9 -24 -32 -21 -53 4 -20 22 -42 26
-44 8 -1 -7 -2 -17 -4 -23 -1 -5 -3 -21 -4 -35 -2 -14 -5 -19 -8 -12 -6 14
-33 16 -33 2 0 -21 -18 -8 -44 31 -32 47 -53 47 -48 -2 4 -33 3 -33 -15 -16
-11 9 -27 17 -36 17 -21 0 -22 -29 -2 -36 29 -12 15 -23 -32 -26 -36 -2 -49
-7 -51 -20 -3 -16 5 -18 61 -17 85 1 94 -5 57 -42 -16 -17 -30 -35 -30 -40 0
-6 -21 -42 -46 -81 -46 -71 -74 -146 -74 -203 0 -18 -14 -49 -34 -78 -19 -26
-37 -59 -40 -73 -6 -21 -12 -25 -39 -22 -28 3 -32 7 -35 35 -5 46 12 71 50 75
34 3 49 24 24 34 -48 18 -106 -39 -106 -104 0 -26 19 -82 35 -100 1 -2 19 6
39 18 48 26 49 26 43 -12 -4 -28 1 -38 32 -65 20 -17 33 -34 29 -38 -9 -9
-130 50 -153 75 -23 26 -31 25 -39 -2 -7 -28 12 -48 56 -62 26 -9 34 -18 40
-46 4 -19 18 -57 31 -85 24 -49 24 -50 6 -74 -11 -13 -19 -32 -19 -42 0 -28
37 -48 76 -42 41 7 89 -11 129 -48 17 -15 54 -35 83 -44 29 -10 55 -21 58 -26
3 -5 22 -9 42 -9 l37 -1 -55 -23 c-30 -13 -98 -45 -150 -71 -68 -34 -111 -49
-152 -53 -32 -2 -58 -7 -58 -10 0 -3 11 -20 25 -38 37 -48 30 -65 -9 -21 -19
20 -38 37 -43 37 -12 0 -72 61 -96 99 -12 18 -40 43 -62 55 -22 11 -41 24 -43
28 -2 4 -19 10 -37 14 -19 3 -41 15 -51 25 -9 10 -22 19 -27 19 -20 0 -173
110 -221 160 -27 27 -54 50 -59 50 -4 0 -5 10 -2 22 6 16 4 20 -8 15 -12 -5
-19 3 -26 28 -11 42 -29 61 -75 80 -32 14 -35 19 -51 92 -9 43 -20 97 -26 121
-5 23 -9 53 -9 66 0 13 -7 29 -15 36 -8 7 -15 17 -15 22 0 17 -83 108 -98 108
-16 0 -66 33 -100 67 -13 13 -33 23 -45 23 -12 0 -46 3 -74 6 -45 6 -53 4 -53
-10 0 -10 -8 -16 -24 -16 -48 0 -50 -70 -3 -120 18 -19 39 -45 47 -56 8 -12
28 -38 43 -57 16 -20 30 -51 32 -69 2 -18 7 -52 11 -75 6 -41 6 -43 -19 -43
-15 0 -45 10 -67 21 -68 36 -139 25 -140 -20 0 -31 155 -155 268 -213 60 -31
74 -52 52 -74 -5 -5 -10 -44 -11 -85 -2 -64 1 -81 20 -107 26 -37 49 -46 86
-32 27 10 32 7 89 -52 37 -38 79 -70 106 -81 99 -41 176 -83 195 -106 41 -51
150 -153 208 -195 14 -10 41 -33 60 -51 18 -17 58 -41 87 -53 30 -11 69 -27
85 -36 17 -9 40 -16 53 -16 13 0 31 -4 41 -9 55 -30 316 -16 429 23 88 30 87
31 80 -96 -4 -59 -1 -111 8 -149 14 -60 13 -67 -26 -154 -7 -16 -18 -128 -21
-210 0 -5 3 -27 7 -49 6 -31 4 -38 -7 -34 -8 3 -16 23 -19 48 -5 40 -8 44 -45
55 -22 6 -49 16 -60 22 -42 22 -168 39 -230 30 -81 -11 -132 -3 -161 24 -22
21 -37 24 -119 26 -87 2 -97 5 -138 34 -50 35 -125 53 -160 40 -13 -5 -35 -23
-50 -40 -32 -39 -46 -39 -82 -1 -32 33 -32 34 13 53 24 10 160 144 162 160 29
214 -34 441 -139 498 -20 11 -43 23 -51 29 -8 5 -46 23 -85 40 -38 18 -88 40
-111 51 -23 10 -44 19 -46 19 -12 0 -116 67 -158 101 -56 46 -95 65 -145 74
-22 4 -65 14 -95 21 -30 8 -60 14 -68 14 -24 0 -6 -24 24 -32 16 -4 61 -15 99
-24 78 -18 107 -30 132 -53 66 -60 120 -94 208 -131 144 -60 197 -86 222 -107
12 -10 41 -30 65 -44 40 -24 47 -34 70 -100 50 -148 69 -261 48 -297 -5 -9
-14 -29 -20 -44 -12 -35 -33 -37 -24 -3 9 37 -17 24 -40 -20 -17 -31 -20 -33
-31 -18 -7 9 -20 14 -31 11 -17 -4 -20 0 -19 26 0 29 -3 31 -37 34 -27 2 -35
7 -31 18 3 8 0 15 -6 15 -6 1 -15 3 -21 4 -5 1 -13 3 -17 4 -14 2 22 21 41 21
22 0 45 27 46 53 0 15 -6 17 -41 13 -28 -3 -39 -1 -36 7 2 7 20 13 41 15 41 4
46 27 5 28 -13 0 -23 6 -21 12 3 19 -30 14 -53 -8 -51 -49 -67 -61 -73 -56 -3
3 14 23 38 44 64 55 75 61 116 70 21 4 40 14 42 21 6 17 -48 6 -101 -21 -22
-11 -41 -17 -45 -14 -8 8 29 46 45 46 22 0 15 37 -9 43 -24 7 -66 -13 -116
-55 -18 -16 -37 -28 -42 -28 -6 0 -10 -6 -10 -14 0 -15 -40 -49 -48 -41 -8 8
58 84 78 90 11 4 20 11 20 16 0 22 -33 20 -81 -6 -28 -14 -53 -24 -56 -21 -10
9 27 56 53 68 25 12 33 38 12 38 -7 0 -35 -16 -63 -34 -53 -36 -68 -32 -40 10
21 33 13 41 -22 23 -16 -7 -31 -15 -35 -17 -4 -2 -4 13 -1 32 3 20 3 36 0 36
-3 0 -23 -11 -43 -25 -47 -32 -59 -24 -33 22 11 19 18 38 15 41 -12 11 -42
-29 -80 -102 -42 -83 -62 -100 -39 -33 11 32 12 46 3 60 -9 15 -6 25 14 52 28
36 32 50 17 60 -5 3 -25 -19 -43 -49 -28 -46 -37 -54 -60 -53 -33 2 -33 1 -9
41 23 37 30 64 17 66 -5 1 -25 -29 -45 -67 -20 -37 -45 -69 -54 -71 -20 -4
-15 17 15 60 24 34 5 49 -21 16 -11 -13 -22 -20 -26 -17 -7 8 36 99 47 99 4 0
8 7 8 15 0 26 -17 17 -40 -21 -16 -25 -26 -32 -33 -25 -8 8 -18 5 -34 -11 -13
-12 -25 -19 -27 -17 -3 3 8 33 24 67 34 71 35 72 16 72 -8 0 -19 -14 -25 -30
-5 -17 -18 -33 -28 -36 -10 -3 -26 -10 -35 -15 -25 -13 -23 -4 16 74 20 38 29
67 22 67 -13 0 -104 -164 -128 -234 -24 -68 -31 -70 -26 -8 4 35 15 69 37 103
17 28 31 52 31 55 0 13 -30 1 -43 -18 l-16 -23 6 22 c3 12 11 28 19 34 8 6 14
16 14 21 0 6 12 24 26 40 17 22 22 34 15 41 -6 6 -12 9 -14 6 -25 -30 -73
-111 -96 -161 -23 -49 -51 -152 -51 -186 0 -2 9 0 21 3 17 6 19 4 11 -12 -6
-10 -18 -40 -27 -68 -10 -27 -25 -61 -34 -75 -9 -14 -16 -32 -17 -41 -2 -26
-63 -149 -74 -149 -6 0 -13 7 -16 14 -7 18 58 209 97 288 30 60 36 88 18 88
-16 0 -83 -156 -126 -292 -15 -50 -26 -59 -41 -33 -8 15 22 118 61 209 10 21
17 42 17 46 0 5 4 10 8 12 12 5 52 77 52 93 0 59 -74 -68 -137 -235 -13 -35
-27 -68 -30 -73 -6 -10 -33 39 -33 62 0 21 34 110 70 182 36 74 44 99 31 99
-10 0 -80 -139 -111 -220 -19 -49 -24 -53 -44 -31 -16 17 -16 21 0 62 18 46
72 133 111 182 13 16 23 40 23 53 0 25 57 120 67 111 2 -3 -8 -31 -22 -62 -15
-31 -24 -59 -21 -62 9 -9 36 18 36 36 1 29 34 78 76 113 22 18 39 39 36 46 -2
6 3 12 11 12 15 0 36 43 35 70 -1 8 6 41 16 73 19 65 31 70 80 32 18 -14 48
-28 67 -31 19 -3 54 -16 79 -28 52 -26 74 -27 77 -6 4 18 -55 46 -113 54 -23
3 -67 19 -99 36 -31 16 -63 30 -70 30 -19 0 -25 71 -8 98 7 12 27 25 43 28 37
8 51 25 85 104 16 36 36 73 44 83 12 15 16 46 16 145 0 185 -28 286 -88 317
-18 9 -47 27 -64 39 l-33 24 23 15 c22 15 22 15 -23 36 -25 11 -55 21 -66 21
-12 0 -27 7 -34 15 -8 10 -22 12 -43 8 -30 -6 -31 -6 -14 11 16 16 24 46 12
46 -3 0 -24 -9 -46 -21 -23 -11 -55 -20 -72 -19 -47 3 -49 2 -37 -20 12 -22
-7 -38 -73 -61 -42 -15 -61 -54 -35 -73 68 -52 82 -65 61 -60 -18 5 -23 2 -23
-14 0 -12 5 -24 10 -27 6 -3 10 -14 10 -23 -1 -12 -11 -6 -34 21 -18 20 -36
37 -40 37 -12 0 -6 -21 12 -41 19 -19 26 -33 57 -102 14 -33 21 -61 24 -100 1
-5 7 -7 14 -4 6 2 18 -10 25 -26 10 -26 10 -33 -4 -48 -19 -21 -15 -74 6 -74
9 0 15 -11 17 -27 1 -15 9 -38 18 -52 16 -24 16 -27 -9 -59 -49 -64 -30 -84
54 -56 69 23 65 23 67 -2 3 -31 31 -57 66 -61 26 -3 32 -8 38 -35 9 -47 -14
-136 -47 -177 -41 -52 -131 -119 -187 -140 -59 -22 -216 -19 -257 5 -24 13
-22 14 38 17 44 2 62 7 59 15 -2 7 -14 11 -26 10 -11 -2 -21 1 -21 6 0 4 26
11 58 14 107 11 212 66 212 110 0 20 -1 19 -27 -5 -16 -15 -45 -29 -68 -33
l-40 -6 40 22 c21 12 55 37 75 56 23 22 42 32 54 29 23 -6 46 10 46 30 0 25
-63 2 -116 -43 -28 -23 -55 -43 -60 -43 -5 0 -25 -8 -44 -18 -19 -10 -69 -26
-110 -37 -99 -23 -159 -12 -230 44 -49 39 -50 40 -23 43 24 3 28 8 31 39 3 34
-3 43 -68 108 -39 39 -73 71 -75 71 -15 0 2 -24 61 -84 73 -75 83 -112 13 -50
-24 22 -52 46 -62 53 -19 15 -94 32 -135 31 -12 0 -25 7 -28 15 -9 21 -24 19
-24 -4 0 -11 12 -23 31 -31 17 -7 37 -24 46 -37 13 -19 24 -23 65 -23 51 0 98
-22 98 -46 0 -8 -6 -14 -14 -14 -8 0 -27 -10 -41 -23 l-27 -23 20 -24 c14 -17
33 -25 67 -29 81 -10 88 -60 8 -61 -17 0 -33 -4 -35 -8 -1 -5 -41 -23 -88 -41
-73 -27 -153 -71 -170 -92 -3 -3 -18 -13 -35 -22 -63 -34 -106 -84 -130 -152
-12 -36 -25 -69 -29 -72 -3 -4 -6 -34 -6 -67 0 -34 -5 -79 -10 -101 -6 -22
-12 -57 -15 -78 -5 -50 -34 -147 -43 -147 -4 0 -17 7 -29 15 -35 24 -144 49
-153 35 -4 -7 -16 -9 -29 -5 -14 4 -23 1 -27 -9 -11 -29 -19 -17 -37 52 -16
61 -23 73 -69 113 -66 57 -88 80 -88 94 0 6 -7 34 -15 63 -17 55 -60 97 -89
86 -23 -9 -46 -57 -46 -95 0 -26 -3 -30 -17 -23 -54 23 -133 11 -133 -21 0
-15 -34 -30 -49 -21 -5 3 -22 1 -39 -5 -26 -9 -30 -16 -36 -59 -4 -26 -13 -53
-21 -60 -8 -7 -20 -30 -26 -52 -13 -51 2 -93 42 -114 33 -17 35 -22 13 -39
-27 -19 -9 -57 40 -88 46 -28 77 -35 112 -24 14 5 33 -1 58 -18 20 -14 43 -25
49 -25 7 0 18 -5 24 -11 6 -6 42 -13 80 -16 37 -2 80 -9 95 -15 l26 -10 -24
-54 c-27 -61 -30 -90 -11 -98 6 -3 2 -3 -10 0 -19 4 -23 1 -23 -17 0 -12 7
-30 16 -40 14 -16 12 -19 -31 -49 -25 -17 -65 -40 -88 -51 -126 -59 -348 -196
-378 -234 -9 -11 -26 -30 -36 -42 -11 -12 -28 -34 -39 -49 -10 -15 -64 -78
-119 -141 -97 -111 -157 -159 -250 -197 -18 -8 -61 -33 -96 -55 -35 -23 -71
-41 -80 -41 -9 0 -22 -7 -29 -15 -7 -8 -21 -15 -31 -15 -11 0 -19 -4 -19 -9 0
-5 -2 -16 -5 -23 -3 -8 11 -33 31 -56 45 -53 92 -58 133 -14 49 53 97 82 147
88 27 4 52 13 56 19 11 19 127 72 173 80 22 4 60 13 85 20 25 7 78 16 118 19
58 4 72 2 72 -10 0 -8 5 -14 10 -14 6 0 10 9 10 20 0 11 6 20 14 20 8 0 40 14
72 31 52 27 164 69 187 69 5 0 -5 -17 -22 -38 -47 -60 -111 -204 -111 -251 0
-35 -5 -43 -41 -68 -22 -15 -53 -38 -67 -51 -14 -13 -34 -21 -43 -19 -12 3
-21 -4 -29 -23 -7 -16 -18 -31 -26 -34 -7 -3 -11 -12 -8 -21 4 -10 0 -15 -15
-15 -12 0 -21 -5 -21 -12 0 -6 -19 -36 -42 -67 -66 -87 -127 -268 -133 -396
-9 -164 -7 -188 19 -254 14 -36 26 -70 26 -75 1 -6 26 -45 56 -86 54 -74 144
-246 144 -275 0 -8 6 -15 14 -15 24 0 29 -20 10 -41 -9 -10 -41 -30 -71 -45
-80 -38 -243 -203 -329 -334 -57 -87 -76 -131 -78 -180 -1 -34 0 -35 34 -32
71 5 180 5 185 0 12 -11 11 -98 -1 -146 -28 -108 -12 -142 69 -142 25 0 48 -4
51 -9 10 -16 100 2 141 28 46 29 92 47 147 56 30 5 38 4 38 -9 0 -16 80 -34
99 -21 20 11 31 -4 21 -30 -6 -16 -5 -25 3 -29 7 -2 4 -5 -5 -5 -10 -1 -18 -5
-18 -9 0 -15 -49 -32 -90 -32 -21 0 -41 -4 -45 -9 -3 -5 -20 -13 -37 -17 -18
-3 -44 -14 -58 -22 -31 -20 -170 -159 -170 -171 0 -5 -7 -22 -15 -37 -21 -41
-19 -110 4 -143 12 -16 40 -33 73 -45 29 -10 62 -22 73 -26 21 -9 85 -17 195
-25 35 -2 94 -9 131 -15 61 -10 69 -10 110 12 24 12 64 43 89 69 25 25 62 56
84 69 24 15 55 50 84 94 102 158 160 219 252 263 48 23 95 66 114 105 9 19 20
23 56 24 55 2 98 18 107 40 3 9 -6 41 -20 72 -14 32 -36 84 -48 117 -13 33
-27 63 -32 67 -19 12 1 126 43 249 23 68 44 126 47 129 2 2 20 -12 39 -33 19
-20 53 -42 75 -49 23 -6 48 -22 57 -35 10 -13 32 -41 49 -61 18 -20 33 -40 33
-44 0 -5 7 -8 16 -8 8 0 20 -14 26 -31 l10 -30 77 1 c42 1 101 0 131 -3 35 -3
67 0 89 9 44 19 81 18 81 -1 0 -10 10 -15 30 -15 17 0 48 -9 70 -20 22 -11 63
-26 92 -34 65 -17 244 -85 315 -120 29 -14 60 -37 69 -51 15 -23 15 -31 3 -77
-16 -57 -17 -58 -116 -89 -87 -27 -97 -41 -79 -116 4 -20 3 -47 -4 -67 -9 -27
-20 -37 -58 -51 -77 -29 -141 -81 -179 -146 -10 -16 -21 -29 -25 -29 -12 0
-10 -115 3 -142 19 -43 104 -67 251 -72 57 -2 130 0 163 6 179 29 197 35 283
97 58 41 82 73 129 166 71 142 85 166 118 205 19 23 35 46 35 50 0 4 14 13 31
19 17 6 33 20 36 30 3 11 24 31 47 45 52 30 70 51 87 99 12 34 11 41 -6 75
-26 48 -43 61 -82 62 -18 0 -33 4 -33 8 0 34 -121 102 -181 102 -8 0 -46 15
-84 33 -39 19 -92 42 -118 53 -26 10 -74 44 -106 74 -32 30 -81 77 -109 103
-29 26 -52 50 -52 53 0 10 -75 74 -107 91 -36 19 -40 37 -18 79 32 62 10 271
-34 318 -11 12 -21 26 -21 30 0 4 -12 23 -26 42 -14 18 -24 41 -20 49 3 8 1
15 -4 15 -17 0 -11 16 30 78 22 33 40 64 40 70 0 5 6 20 13 33 29 57 61 90
125 130 117 73 229 206 267 317 12 37 39 102 60 146 50 107 53 132 22 200 -14
31 -31 56 -37 56 -6 0 -18 16 -26 36 -14 34 -14 40 6 86 18 41 20 60 15 126
-4 42 -13 97 -20 122 -8 25 -17 65 -21 90 -3 24 -13 55 -21 67 -18 27 -11 40
54 111 46 49 59 52 75 17 9 -20 18 -25 47 -25 29 0 49 11 101 55 67 57 89 90
90 137 0 29 19 78 30 78 8 0 73 -22 79 -26 2 -2 5 -18 7 -35 6 -51 21 -62 77
-55 34 3 58 1 77 -9 45 -23 134 -23 161 0 22 20 22 20 15 -1 -5 -18 -2 -22 22
-27 16 -3 62 -21 103 -40 97 -45 140 -56 284 -72 197 -22 274 -35 323 -53 32
-12 80 -17 152 -18 155 -1 150 2 90 -65 -22 -24 -40 -50 -40 -58 0 -8 -7 -23
-17 -33 -20 -22 -52 -113 -53 -149 0 -14 -5 -30 -11 -36 -6 -6 -13 -31 -15
-55 -5 -63 -30 -208 -42 -243 -6 -16 -18 -52 -27 -80 -10 -27 -18 -59 -19 -70
-4 -46 -31 -142 -48 -170 -10 -16 -18 -36 -18 -44 0 -8 -7 -22 -15 -31 -8 -9
-17 -43 -20 -75 -4 -33 -16 -90 -27 -128 -20 -65 -20 -68 -3 -87 10 -11 26
-22 36 -25 11 -4 19 -14 19 -23 0 -19 -44 -160 -65 -207 -7 -16 -21 -55 -31
-85 -9 -30 -23 -72 -31 -93 -7 -20 -13 -46 -13 -58 0 -22 -79 -159 -92 -159
-4 0 -8 -9 -8 -20 0 -32 -32 -42 -72 -21 -23 11 -56 17 -94 16 l-59 0 -3 -35
c-2 -19 -9 -40 -16 -45 -8 -6 -15 -19 -17 -29 -2 -10 -17 -26 -34 -35 -16 -9
-41 -24 -55 -33 -14 -9 -54 -22 -90 -27 -87 -14 -217 -68 -237 -97 -8 -13 -23
-24 -32 -24 -11 0 -20 -14 -27 -45 -9 -39 -8 -50 9 -78 26 -42 55 -66 86 -73
14 -3 44 -9 66 -14 22 -5 94 -8 160 -7 104 3 132 7 210 34 50 17 113 43 140
58 142 78 167 85 215 57 67 -38 175 -36 217 4 11 11 34 27 51 36 39 21 51 60
29 102 -8 17 -21 63 -28 101 -21 127 -28 145 -50 145 -18 0 -20 4 -14 32 4 18
32 78 63 133 61 107 89 144 144 191 7 6 23 24 35 40 12 16 37 50 57 77 20 26
36 51 36 56 0 5 7 16 15 24 15 16 35 66 63 158 12 39 27 65 50 84 l32 27 0
-29 c0 -16 -7 -54 -16 -84 -27 -91 0 -213 54 -246 11 -6 22 -24 25 -40 10 -53
40 -128 63 -155 12 -16 25 -36 28 -46 7 -19 149 -137 205 -168 82 -46 99 -53
149 -59 28 -4 52 -11 52 -15 0 -4 17 -11 38 -15 20 -4 78 -26 127 -50 120 -59
141 -63 166 -36 23 24 42 27 61 8 7 -7 33 -21 58 -31 25 -11 96 -44 158 -73
63 -29 119 -53 126 -53 15 0 121 -42 161 -64 46 -25 212 -86 234 -86 35 0 121
-44 121 -62 0 -9 3 -23 6 -32 4 -11 -5 -20 -34 -31 -50 -20 -56 -33 -53 -113
3 -64 -14 -119 -47 -151 -8 -8 -51 -33 -96 -55 -72 -36 -84 -46 -104 -88 -24
-47 -24 -48 -5 -85 14 -30 28 -42 68 -56 43 -17 67 -18 175 -13 119 6 129 8
206 45 69 34 86 47 120 96 59 86 92 144 115 205 25 68 45 93 86 107 36 13 55
30 101 93 40 55 44 109 9 144 -13 13 -30 39 -37 57 -7 19 -25 44 -39 57 -32
27 -125 72 -151 72 -10 0 -31 5 -45 12 -19 9 -28 9 -37 0 -32 -32 -193 14
-242 68 -14 17 -33 30 -40 30 -8 0 -49 30 -91 68 -42 37 -89 72 -104 77 -28
11 -57 30 -122 83 -23 17 -45 32 -50 32 -6 0 -15 5 -22 10 -24 20 -88 60 -97
60 -5 0 -22 11 -38 25 -19 16 -56 30 -103 40 -41 9 -77 19 -81 23 -4 4 -10 40
-14 81 -7 68 -18 94 -46 103 -6 2 -9 11 -6 20 4 9 30 20 70 27 34 7 80 17 102
22 21 6 79 13 130 15 50 3 117 10 149 16 50 9 60 9 76 -6 26 -24 124 -56 169
-56 21 0 64 7 95 15 32 8 67 15 78 15 44 0 130 54 193 122 63 67 128 181 156
273 7 22 23 54 36 72 13 17 24 39 24 47 0 8 4 25 9 38 5 13 12 35 15 49 5 23
16 30 93 54 57 17 106 41 140 66 29 21 57 39 62 39 14 0 75 78 105 135 30 56
50 167 37 211 -5 16 -18 48 -29 70 -29 57 -53 154 -61 250 -7 85 -20 114 -72
164 -37 37 -60 85 -104 215 -37 111 -77 193 -102 208 -7 4 -26 31 -43 59 -16
29 -57 82 -92 120 -133 144 -354 365 -388 388 -19 13 -48 36 -65 51 -25 22
-117 87 -210 147 -11 6 -54 28 -95 48 -68 32 -104 48 -252 113 -26 12 -58 21
-70 21 -19 0 -182 48 -273 80 -45 16 -93 30 -140 40 -27 6 -74 28 -105 49 -31
21 -67 41 -80 45 -14 4 -56 21 -94 38 -60 27 -72 29 -105 20 -20 -6 -83 -14
-139 -17 -100 -6 -105 -5 -137 19 -19 15 -47 26 -64 26 -26 0 -34 7 -52 41
l-21 41 31 37 c56 65 92 121 97 149 3 14 9 31 13 37 5 5 12 28 16 50 3 21 15
45 26 53 25 17 24 25 -3 37 -18 8 -24 20 -26 50 -4 67 -22 138 -38 156 -10 11
-12 19 -5 24 16 9 13 42 -4 49 -20 7 -19 25 1 48 16 16 16 18 0 24 -9 3 -23 1
-31 -6 -19 -15 -35 -5 -35 24 0 18 -6 22 -35 23 -34 1 -49 -17 -25 -32 6 -3
10 -16 9 -28 -1 -20 -2 -19 -12 6 -11 26 -47 39 -47 16 0 -7 -9 0 -20 14 -23
30 -25 37 -7 37 8 0 28 23 47 51 25 39 30 53 21 62 -9 9 -22 1 -56 -34 -38
-40 -43 -51 -40 -85 2 -21 11 -60 21 -85 10 -25 14 -53 11 -63 -11 -28 -55 44
-74 120 -17 68 -33 76 -33 16 l0 -37 -26 30 c-19 22 -27 26 -33 16 -7 -10 -17
-9 -50 7 -24 12 -43 16 -47 10 -6 -9 22 -37 38 -38 12 0 46 -65 52 -102 6 -33
4 -38 -12 -38 -12 0 -24 11 -32 30 -13 30 -30 41 -30 18 0 -7 11 -31 23 -53
25 -45 57 -59 57 -26 0 29 17 26 24 -5 9 -33 -2 -89 -25 -138 -19 -41 -18 -56
7 -56 8 0 14 -4 14 -10 0 -5 5 -10 10 -10 6 0 10 7 10 15 0 8 5 15 10 15 6 0
10 -9 10 -20 0 -11 7 -20 15 -20 8 0 15 9 15 19 0 11 5 23 10 26 17 11 11 -39
-9 -69 -10 -15 -29 -33 -42 -40 -29 -14 -35 -44 -15 -71 15 -19 15 -19 16 11
0 27 3 31 30 32 23 0 30 -4 30 -19 0 -13 -7 -19 -21 -19 -18 0 -20 -4 -14 -32
12 -57 28 -64 47 -23 11 25 28 34 28 15 0 -11 -23 -41 -66 -87 -36 -38 -69
-45 -61 -13 7 27 -7 33 -26 12 -20 -22 -18 -58 4 -78 22 -20 104 -23 121 -6
11 11 10 16 -5 27 -18 13 -18 14 0 39 39 55 72 26 114 -103 16 -50 39 -106 49
-124 30 -48 31 -46 -42 -132 -16 -18 -43 -38 -60 -46 -34 -13 -105 -64 -124
-88 -16 -20 -37 -5 -25 18 7 13 5 26 -9 48 -10 17 -20 41 -22 54 -2 14 -11 25
-23 28 -18 3 -44 28 -45 42 0 3 11 23 25 43 29 43 32 65 8 64 -10 0 -25 1 -33
3 -10 3 -18 -7 -25 -29 -7 -26 -17 -35 -50 -44 -58 -17 -161 -14 -225 5 -66
21 -135 80 -121 104 9 17 4 51 -12 71 -13 17 -27 15 -27 -3 0 -20 -6 -19 -45
10 -35 27 -61 77 -50 94 3 6 17 11 31 11 19 0 28 -7 35 -30 6 -16 17 -30 25
-30 17 0 17 0 -1 43 -25 59 -20 89 20 115 18 13 39 21 45 17 6 -4 30 -2 53 4
23 6 121 15 218 19 172 8 205 14 193 33 -6 10 -171 6 -294 -6 l-65 -7 -3 28
c-2 27 -31 64 -51 64 -5 0 -7 10 -3 22 5 22 -3 22 -48 4 -8 -3 -27 4 -43 16
-24 20 -28 31 -31 87 -3 59 -1 67 23 89 14 13 26 34 26 46 0 16 6 21 25 21 33
0 39 17 11 31 -19 10 -20 13 -6 24 8 7 22 27 30 45 9 17 33 42 55 56 22 13 40
29 40 34 0 6 26 25 57 43 43 25 59 29 65 20 6 -10 12 -9 23 6 13 18 15 18 32
0 10 -9 19 -21 19 -26 1 -4 2 -12 3 -16 1 -11 63 -8 83 4 19 12 32 61 17 69
-6 4 -17 -2 -25 -14 -16 -23 -39 -19 -30 5 3 8 -1 14 -8 14 -8 0 -17 15 -20
35 -5 25 -12 35 -26 35 -10 0 -21 -4 -24 -9z m-2196 -245 c-7 -7 -14 -6 -22 2
-7 7 -25 12 -41 12 -15 0 -26 4 -23 9 3 4 26 4 51 -2 31 -7 42 -14 35 -21z
m-70 -26 c19 -15 35 -18 68 -13 41 6 45 4 87 -39 24 -25 51 -48 59 -51 25 -10
20 -47 -5 -47 -15 0 -19 -4 -15 -16 3 -9 6 -21 6 -27 0 -7 4 -18 9 -26 8 -12
12 -12 24 -3 12 11 16 8 24 -15 11 -33 5 -123 -8 -123 -5 0 -9 12 -9 26 0 40
-34 28 -38 -14 -3 -32 -22 -46 -22 -16 0 25 -73 234 -82 234 -4 0 -8 -4 -8
-10 0 -21 -20 -9 -36 23 -23 44 -93 125 -113 130 -9 3 -6 5 9 6 14 0 36 -8 50
-19z m-27 -40 c10 -16 22 -30 27 -30 13 0 58 -101 75 -168 16 -60 25 -75 33
-52 7 19 31 -75 32 -122 0 -20 -3 -43 -6 -52 -11 -28 -24 -6 -24 40 0 68 -18
52 -25 -23 -12 -108 -27 -112 -20 -5 4 61 3 92 -4 92 -6 0 -11 34 -13 82 -2
49 -7 83 -14 85 -8 3 -10 -22 -6 -86 2 -49 2 -101 -2 -115 -7 -29 -26 -35 -26
-8 0 9 -12 31 -26 47 l-25 30 4 -73 c3 -52 1 -70 -6 -63 -6 6 -23 11 -39 11
-26 0 -27 2 -21 33 8 42 12 46 20 19 18 -72 35 43 18 123 -10 45 -16 52 -57
75 -35 18 -49 33 -57 59 -12 41 -7 50 19 33 24 -15 33 -15 25 -2 -4 7 3 8 21
4 24 -6 27 -5 21 16 -4 16 -1 23 14 27 18 5 23 15 20 41 -3 23 25 12 42 -18z
m2677 -13 c0 -46 11 -78 24 -74 6 2 11 16 11 31 -1 24 1 25 11 11 15 -20 12
-97 -3 -102 -6 -2 -14 1 -18 6 -3 6 -14 11 -23 11 -14 0 -17 12 -18 80 0 43 3
77 8 74 4 -3 8 -20 8 -37z m-1977 -24 c9 -9 17 -22 17 -30 0 -7 5 -13 10 -13
6 0 16 -11 22 -25 6 -14 17 -25 25 -25 18 0 16 9 -8 49 -11 18 -18 36 -15 38
3 3 24 -10 48 -29 24 -19 61 -46 84 -61 49 -33 80 -89 89 -162 14 -108 26
-172 37 -193 14 -26 0 -42 -37 -42 -23 0 -56 -20 -100 -61 -57 -53 -122 -40
-212 44 -54 51 -93 101 -93 120 0 7 61 -9 102 -27 50 -21 68 -13 68 33 0 65
-25 145 -68 218 -23 40 -46 74 -51 77 -5 3 -18 21 -29 40 -16 27 -18 36 -7 40
17 6 42 -17 79 -71 34 -51 52 -67 60 -55 3 6 -17 41 -44 78 -28 38 -50 73 -50
77 0 13 52 -2 73 -20z m2080 -103 c-3 -30 -10 -59 -16 -65 -6 -7 -8 3 -3 30 3
22 6 60 7 85 0 33 3 40 8 25 5 -11 6 -45 4 -75z m-2918 -83 c1 -26 -1 -47 -6
-47 -9 0 -28 81 -21 93 10 20 24 -3 27 -46z m2975 8 c0 -8 -2 -15 -4 -15 -2 0
-6 7 -10 15 -3 8 -1 15 4 15 6 0 10 -7 10 -15z m5 -143 c-11 -11 -22 11 -17
35 l5 28 8 -29 c5 -17 7 -32 4 -34z m-885 -22 c0 -63 -7 -80 -35 -80 -28 0
-43 17 -51 58 -5 25 -1 36 26 62 41 40 60 28 60 -40z m668 3 c10 -19 6 -43 -7
-43 -7 0 -31 43 -31 55 0 13 30 3 38 -12z m-550 -30 c-4 -22 -58 -31 -58 -10
0 20 10 27 37 27 18 0 24 -5 21 -17z m-2111 -38 c17 -12 21 -23 19 -58 -5 -65
-22 -96 -61 -112 -19 -8 -39 -15 -46 -15 -18 0 -4 25 17 29 27 5 54 31 54 52
0 12 -13 24 -35 33 -19 8 -35 20 -35 25 0 15 6 14 35 -5 27 -18 45 -12 45 16
0 21 -20 31 -49 23 -22 -6 -30 12 -8 20 23 10 42 7 64 -8z m1931 -312 c2 -8
-5 -13 -17 -13 -21 0 -35 13 -24 24 10 10 36 3 41 -11z m948 -51 c12 -10 27
-28 33 -40 23 -43 -22 -122 -69 -122 -8 0 0 10 18 21 40 26 43 70 7 123 -26
39 -22 46 11 18z m-3485 -45 c-13 -13 -26 -3 -16 12 3 6 11 8 17 5 6 -4 6 -10
-1 -17z m1549 1 c0 -18 -2 -20 -9 -8 -6 8 -7 18 -5 22 9 14 14 9 14 -14z m405
-47 c3 -5 1 -12 -5 -16 -5 -3 -10 1 -10 9 0 18 6 21 15 7z m105 -26 c20 -24 6
-28 -15 -5 -10 11 -13 20 -8 20 6 0 16 -7 23 -15z m205 -82 c34 -54 55 -113
55 -160 0 -55 -17 -45 -24 14 -7 57 -25 107 -58 155 -19 28 -22 38 -10 38 4 0
21 -21 37 -47z m-275 -13 c0 -5 -2 -10 -4 -10 -3 0 -8 5 -11 10 -3 6 -1 10 4
10 6 0 11 -4 11 -10z m1375 0 c-28 -12 -37 -12 -30 0 3 6 16 10 28 9 21 0 21
-1 2 -9z m-3170 -57 c11 -7 32 -13 47 -13 21 0 63 -13 86 -26 1 -1 -11 -26
-28 -57 -16 -30 -30 -60 -30 -66 0 -20 20 -11 30 14 16 43 62 104 82 111 40
12 36 -12 -14 -79 -45 -61 -57 -90 -29 -73 17 11 98 122 106 145 3 11 10 21
14 21 5 0 23 3 40 6 26 5 31 3 31 -12 0 -11 -14 -39 -30 -63 -17 -24 -30 -52
-30 -61 0 -10 -8 -28 -18 -41 -10 -13 -36 -61 -58 -106 -25 -54 -44 -81 -54
-80 -28 4 -22 44 14 95 35 48 46 82 26 82 -5 0 -21 -18 -35 -40 -17 -26 -33
-40 -46 -40 -20 0 -21 -4 -16 -45 8 -58 50 -124 88 -137 26 -9 29 -14 29 -52
0 -49 7 -61 28 -44 11 10 17 9 27 -5 7 -10 11 -27 8 -37 -4 -16 0 -20 19 -20
16 0 29 -8 36 -24 6 -13 20 -27 32 -31 13 -4 19 -13 16 -23 -3 -9 -7 -35 -11
-56 -3 -22 -7 -42 -10 -44 -8 -9 -85 -11 -85 -3 0 5 7 14 15 21 8 7 15 18 15
25 0 6 9 20 20 30 21 19 27 45 11 45 -9 0 -111 -134 -111 -146 0 -3 -7 -12
-15 -20 -25 -26 -17 -6 30 71 48 79 62 119 47 129 -12 7 -25 -9 -42 -54 -8
-19 -26 -55 -42 -80 -15 -25 -48 -83 -74 -130 -27 -47 -51 -86 -56 -88 -4 -2
-8 -9 -8 -15 0 -7 -6 -19 -13 -28 -11 -15 -15 -15 -31 -3 -17 12 -17 15 -4 36
9 13 35 59 58 103 45 84 87 155 127 217 14 20 22 42 18 48 -9 14 -70 -79 -186
-285 -67 -118 -73 -123 -65 -56 8 60 53 150 144 289 39 59 52 86 44 94 -11 11
-22 -4 -92 -121 -14 -23 -42 -67 -62 -99 -21 -31 -38 -62 -38 -69 0 -19 -18
-25 -40 -13 -21 11 -21 11 4 45 14 19 31 44 36 57 6 13 24 43 40 68 28 44 74
122 112 189 11 18 16 41 13 49 -4 11 -15 0 -38 -39 -18 -30 -36 -62 -40 -72
-18 -47 -133 -207 -149 -207 -9 0 -19 -4 -23 -9 -7 -13 -65 -41 -65 -33 1 10
26 42 34 42 4 0 18 7 32 16 19 13 22 19 13 31 -15 17 4 56 38 78 13 9 21 20
18 25 -11 18 -43 10 -75 -16 -17 -15 -33 -24 -36 -22 -2 3 13 34 35 69 39 63
102 165 162 263 20 32 27 52 20 59 -6 6 -15 -1 -24 -19 -9 -16 -49 -80 -91
-143 -42 -63 -76 -118 -76 -122 0 -4 -13 -12 -30 -18 -35 -12 -36 -9 -12 27
85 125 102 152 102 161 0 6 4 11 8 11 12 0 65 104 87 168 9 30 28 73 41 95 24
42 32 87 16 87 -10 0 -51 -90 -76 -163 -9 -26 -22 -58 -30 -70 -8 -12 -23 -38
-33 -57 -10 -19 -55 -89 -98 -155 -43 -66 -88 -136 -99 -157 -34 -60 -119
-159 -150 -175 l-29 -15 21 29 c12 17 28 36 37 43 8 7 15 22 15 34 0 12 17 38
39 59 22 21 61 69 86 107 25 38 51 72 56 76 29 17 137 221 131 247 -4 18 -22
24 -22 7 0 -5 -4 -10 -10 -10 -17 0 -11 22 15 56 14 18 25 37 24 41 -1 4 1 17
5 28 13 33 28 69 37 87 5 10 5 20 -1 23 -6 3 -14 -5 -19 -18 -10 -25 -112 -92
-131 -85 -6 2 13 27 41 55 50 51 52 54 35 72 -16 17 -16 20 0 35 17 18 18 18
89 -31z m-225 31 c0 -3 -5 -14 -11 -25 -5 -11 -9 -28 -7 -37 3 -12 11 -5 31
26 20 31 34 42 52 42 31 0 31 -4 0 -38 -14 -15 -25 -32 -25 -39 0 -7 -3 -13
-8 -13 -11 0 -252 -319 -252 -334 0 -14 -83 -127 -100 -136 -17 -9 -15 -2 12
42 17 29 44 68 60 86 15 18 28 39 28 46 0 8 12 25 28 38 28 25 38 40 75 111
11 23 38 65 59 94 24 34 34 54 27 59 -6 3 -15 0 -20 -7 -4 -8 -17 -25 -28 -39
-12 -14 -31 -39 -44 -56 -20 -29 -25 -31 -42 -18 -18 13 -18 15 6 41 13 15 32
34 42 41 9 7 17 18 17 24 0 18 70 98 86 98 8 0 14 -3 14 -6z m-97 -25 c-6 -6
-17 -8 -24 -3 -9 5 -8 9 7 14 23 9 31 3 17 -11z m182 -59 c-10 -11 -20 -18
-23 -15 -3 3 3 14 13 25 10 11 20 18 23 15 3 -3 -3 -14 -13 -25z m-225 0 c0
-5 -7 -10 -16 -10 -8 0 -12 5 -9 10 3 6 10 10 16 10 5 0 9 -4 9 -10z m-109
-61 c-13 -11 -26 -17 -29 -14 -8 8 20 35 37 35 12 -1 11 -5 -8 -21z m399 -17
c0 -14 -43 -49 -88 -72 -40 -20 -43 -20 -40 -3 6 32 128 103 128 75z m753 -80
c-42 -51 -60 -52 -26 -1 31 50 46 63 52 48 2 -6 -10 -27 -26 -47z m1412 38
c-3 -5 -13 -10 -21 -10 -8 0 -12 5 -9 10 3 6 13 10 21 10 8 0 12 -4 9 -10z
m-2495 -72 c-19 -21 -65 -84 -112 -157 -23 -33 -23 -10 -1 32 25 49 126 172
131 159 2 -6 -6 -22 -18 -34z m1180 36 c0 -3 -5 -14 -10 -25 -16 -28 -32 -23
-18 6 10 22 28 35 28 19z m2036 -36 c-4 -13 -9 -35 -12 -50 -4 -16 -11 -28
-16 -28 -6 0 -7 10 -4 23 4 12 9 34 12 50 4 15 11 27 16 27 6 0 7 -10 4 -22z
m-2946 -3 c0 -18 -108 -101 -118 -91 -4 4 0 13 8 20 8 6 20 20 26 31 10 18 59
53 77 54 4 1 7 -6 7 -14z m850 -2 c-1 -14 -30 -47 -36 -41 -8 8 14 48 26 48 6
0 10 -3 10 -7z m-1939 -34 c10 -11 23 -45 29 -75 10 -48 20 -63 81 -123 38
-38 69 -75 69 -83 0 -7 6 -25 14 -40 8 -15 20 -52 26 -83 9 -43 15 -55 28 -53
13 2 16 -4 14 -27 -3 -36 -52 -133 -71 -140 -19 -8 -39 12 -46 46 -7 33 -18
35 -67 15 -47 -20 -130 -24 -136 -7 -3 8 -14 23 -25 34 -19 19 -19 21 -3 52
10 17 16 36 15 41 -2 5 5 23 14 41 9 18 16 45 15 60 -3 40 13 133 23 133 5 0
9 -11 9 -25 0 -14 4 -25 10 -25 18 0 22 47 6 84 -9 21 -18 59 -22 86 -4 27
-13 51 -20 54 -14 6 -19 38 -7 49 11 12 25 8 44 -14z m2029 15 c0 -13 -21 -44
-30 -44 -14 0 -12 18 3 35 12 15 27 20 27 9z m-1149 -61 c-12 -30 -48 -59 -59
-48 -4 3 -2 9 4 13 5 4 20 22 33 40 27 38 39 35 22 -5z m1272 9 c-7 -19 -43
-68 -43 -59 0 19 33 86 41 82 4 -3 5 -13 2 -23z m193 -7 c-4 -14 -11 -25 -16
-25 -13 0 -13 16 1 42 14 26 23 16 15 -17z m-1236 4 c0 -20 -139 -219 -153
-219 -9 0 55 115 77 140 13 14 32 40 42 58 18 32 34 42 34 21z m1281 -52 c-6
-15 -15 -27 -21 -27 -14 0 -13 6 7 43 18 36 29 24 14 -16z m-121 13 c0 -5 -5
-10 -11 -10 -5 0 -7 5 -4 10 3 6 8 10 11 10 2 0 4 -4 4 -10z m-2350 -42 c38
-39 40 -43 24 -55 -15 -11 -21 -9 -45 20 -21 23 -28 27 -29 15 0 -9 4 -19 9
-23 12 -7 41 -64 41 -81 0 -7 -6 -15 -12 -17 -8 -3 -6 -6 5 -6 20 -1 23 -16 5
-27 -6 -4 -14 -2 -16 4 -2 7 -11 12 -20 12 -23 0 -62 40 -62 65 0 12 -7 30
-15 41 -8 10 -15 36 -15 57 l0 37 44 0 c38 0 49 -5 86 -42z m1064 -15 c-25
-43 -29 -45 -32 -24 -2 15 6 33 24 52 38 40 42 29 8 -28z m4833 35 c-3 -8 -6
-5 -6 6 -1 11 2 17 5 13 3 -3 4 -12 1 -19z m-4037 -12 c0 -10 -66 -183 -97
-253 -3 -7 1 -13 9 -13 15 0 48 69 85 177 9 29 25 63 35 75 15 21 17 21 24 5
4 -11 -11 -64 -37 -135 -23 -64 -48 -132 -54 -151 -7 -18 -18 -37 -26 -42 -14
-9 -78 -2 -91 10 -13 12 21 122 67 219 25 51 45 97 45 101 0 12 23 30 32 25 4
-3 8 -11 8 -18z m-2035 -48 c7 -18 27 -50 44 -72 17 -21 31 -43 31 -47 0 -5 7
-9 15 -9 13 0 13 -3 3 -20 -26 -42 -117 10 -161 93 -24 44 -10 87 28 87 20 0
29 -8 40 -32z m4859 -10 c-3 -18 -12 -51 -20 -73 -7 -22 -15 -49 -17 -60 -3
-12 -5 -8 -6 11 0 18 6 45 14 60 8 16 15 44 15 62 0 17 4 32 10 32 5 0 7 -14
4 -32z m-2770 -132 c-26 -80 -51 -143 -56 -140 -14 9 -9 32 27 127 50 135 65
170 72 163 3 -3 -16 -70 -43 -150z m131 145 c5 -9 -30 -116 -45 -136 -4 -5
-15 -44 -25 -85 -10 -41 -19 -80 -21 -87 -4 -17 -54 8 -54 27 0 15 58 202 82
263 10 27 50 38 63 18z m48 -69 c15 -16 14 -21 -4 -62 -51 -112 -65 -190 -35
-190 9 0 15 16 18 48 5 55 37 134 52 129 14 -5 11 -102 -5 -160 -12 -41 -11
-49 1 -57 10 -7 -3 -10 -42 -10 -39 0 -62 -5 -73 -16 -12 -13 -13 -19 -4 -24
8 -6 4 -12 -12 -23 -59 -37 -106 -57 -137 -57 -40 0 -122 19 -139 32 -20 16
-28 97 -11 114 18 19 134 27 158 11 14 -8 22 -8 34 2 13 11 16 11 16 -2 0 -9
-15 -20 -35 -27 -45 -15 -49 -45 -5 -35 17 4 30 2 30 -3 0 -5 18 -9 40 -10
l41 -2 -6 34 c-4 20 -2 36 4 40 6 4 11 23 11 43 0 20 5 53 12 72 26 82 62 171
68 171 4 0 14 -8 23 -18z m617 -7 c0 -8 -7 -15 -15 -15 -13 0 -14 3 -3 15 16
18 18 18 18 0z m-1726 -20 c-29 -22 -42 -17 -15 6 13 11 26 17 29 14 3 -3 -3
-12 -14 -20z m-1242 -33 c15 -16 47 -37 72 -46 25 -10 46 -24 46 -32 0 -8 5
-14 10 -14 6 0 10 -4 10 -8 0 -15 -75 -11 -100 5 -51 33 -80 68 -80 95 0 35 8
35 42 0z m1278 -7 c-7 -8 -17 -15 -23 -15 -5 0 -2 9 8 20 21 23 35 19 15 -5z
m-150 -15 c-8 -5 -21 -10 -29 -10 -11 0 -10 5 4 20 13 15 22 17 29 10 8 -8 6
-14 -4 -20z m70 -9 c0 -5 -20 -25 -45 -45 -32 -26 -45 -33 -45 -22 0 9 19 29
42 46 45 33 48 34 48 21z m1240 -11 c0 -5 -5 -10 -11 -10 -5 0 -7 5 -4 10 3 6
8 10 11 10 2 0 4 -4 4 -10z m3660 0 c0 -5 -2 -10 -4 -10 -3 0 -8 5 -11 10 -3
6 -1 10 4 10 6 0 11 -4 11 -10z m-5890 -10 c0 -5 -7 -10 -16 -10 -8 0 -12 5
-9 10 3 6 10 10 16 10 5 0 9 -4 9 -10z m2272 -35 c-9 -24 -23 -47 -30 -50 -21
-8 -25 0 -13 22 6 10 15 30 21 46 5 15 16 27 24 27 13 0 13 -6 -2 -45z m438
14 c119 -36 143 -46 169 -74 37 -38 71 -103 71 -133 0 -25 47 -77 81 -87 10
-4 19 -11 19 -17 0 -20 -65 -147 -76 -147 -20 -1 -73 30 -92 54 -13 17 -28 23
-55 23 -86 0 -307 69 -307 95 0 9 -77 0 -95 -12 -13 -7 -65 -8 -65 0 0 13 51
52 82 62 43 15 47 33 6 29 -31 -4 -32 3 -2 39 8 8 15 26 17 40 2 16 21 36 55
59 28 19 56 45 63 58 11 19 20 22 58 20 25 -1 57 -5 71 -9z m197 5 c-3 -3 -12
-4 -19 -1 -8 3 -5 6 6 6 11 1 17 -2 13 -5z m-2379 -39 c75 -44 87 -57 72 -84
-7 -14 -21 -21 -39 -21 -27 0 -28 -3 -40 -69 -12 -66 -40 -128 -41 -90 0 9 6
34 14 56 13 38 20 79 17 112 -1 7 -7 11 -16 7 -12 -4 -15 4 -15 45 0 42 -3 52
-20 56 -19 5 -19 23 0 23 5 0 35 -16 68 -35z m625 -17 c-10 -18 -40 -54 -66
-80 -36 -36 -47 -53 -42 -68 4 -11 0 -29 -9 -42 -24 -33 -20 -74 10 -108 25
-27 98 -60 135 -60 9 0 20 -7 23 -15 5 -14 9 -14 36 0 27 14 30 14 30 0 0 -11
10 -15 35 -15 50 0 88 -40 74 -78 -36 -96 -147 -289 -197 -341 -10 -10 -10
-16 -2 -25 9 -8 16 -5 28 13 26 37 103 113 109 107 9 -9 -40 -76 -56 -76 -9 0
-11 -8 -7 -25 5 -19 -1 -37 -24 -70 -32 -46 -36 -60 -20 -70 16 -10 50 18 50
42 0 12 5 25 11 28 21 14 22 -6 1 -46 -12 -23 -22 -43 -22 -45 0 -13 41 0 70
21 19 14 39 25 46 25 20 0 -8 -66 -38 -90 -31 -24 -36 -25 -34 -6 2 30 -19 20
-30 -14 -10 -31 -47 -61 -59 -48 -3 3 2 22 10 42 9 20 13 41 10 46 -10 16 -35
-1 -35 -23 0 -11 -15 -53 -34 -92 -19 -40 -49 -116 -68 -169 -31 -91 -35 -97
-67 -106 -41 -11 -50 -6 -33 20 7 11 12 26 12 33 0 35 132 318 166 358 16 18
19 59 4 59 -12 0 -186 -350 -196 -393 -8 -37 -19 -47 -55 -47 -15 0 -30 -7
-33 -16 -3 -8 -10 -13 -15 -10 -14 9 22 93 107 249 42 78 82 151 87 162 6 11
20 24 33 30 22 10 31 48 13 60 -24 14 -207 -316 -251 -451 -13 -40 -32 -78
-46 -89 -24 -21 -24 -21 -4 -38 11 -9 25 -17 30 -17 6 0 10 -7 10 -15 0 -21
-10 -19 -52 10 -35 24 -36 26 -26 62 5 21 14 43 18 48 4 6 24 51 43 100 66
169 86 205 113 205 27 0 44 28 24 40 -13 8 -10 42 5 83 5 12 2 17 -9 17 -11 0
-25 -18 -37 -47 -12 -27 -29 -67 -40 -90 -10 -24 -19 -49 -19 -57 0 -8 -4 -17
-9 -20 -4 -3 -14 -26 -21 -51 -7 -25 -17 -48 -21 -51 -5 -3 -9 -13 -9 -22 0
-10 -9 -36 -21 -57 -12 -22 -26 -60 -33 -85 -19 -71 -76 -65 -76 9 0 60 63
229 91 247 12 7 11 44 -1 44 -24 0 -110 -205 -110 -265 0 -22 -4 -26 -22 -23
-14 2 -24 11 -26 24 -4 27 37 120 94 210 41 67 54 104 36 104 -4 0 -12 -8 -17
-19 -6 -10 -29 -52 -52 -92 -24 -41 -53 -100 -65 -131 -15 -39 -28 -58 -40
-58 -9 0 -19 4 -22 8 -7 12 24 100 56 160 31 58 32 62 18 62 -9 0 -41 -63 -94
-178 l-10 -23 -28 30 c-16 17 -35 31 -43 31 -9 0 -12 6 -9 15 7 18 -7 20 -24
3 -6 -6 -15 -9 -19 -5 -4 4 10 24 30 45 20 21 37 43 37 50 0 18 -8 15 -38 -13
-24 -23 -52 -33 -52 -19 0 18 58 74 78 74 12 0 25 6 28 14 7 19 -13 56 -31 56
-8 0 -15 7 -15 15 0 8 3 15 8 15 4 0 22 9 41 21 25 15 31 23 23 31 -14 14 2
38 24 38 8 0 14 7 14 15 0 24 -31 17 -89 -20 -75 -48 -85 -33 -14 22 66 52
113 74 141 66 14 -3 24 3 34 20 41 76 91 137 111 137 6 0 -5 -17 -24 -37 -19
-21 -52 -64 -73 -96 -29 -46 -40 -56 -51 -47 -33 28 -24 -62 10 -96 11 -11 14
-25 10 -45 -7 -31 11 -42 21 -14 9 21 30 19 54 -7 11 -12 21 -20 23 -17 2 2
20 34 40 71 33 59 110 162 168 226 12 12 30 22 41 22 11 0 18 5 15 13 -6 19
32 67 54 67 11 0 19 7 19 18 0 9 9 32 20 50 19 31 19 52 0 52 -5 0 -12 -9 -15
-20 -7 -24 -40 -27 -49 -5 -3 10 -14 14 -29 11 -26 -4 -66 23 -59 42 2 7 -2
19 -8 27 -18 21 -2 18 54 -10 56 -28 117 -33 136 -10 7 8 9 15 5 15 -4 0 0 11
9 25 21 32 20 55 -1 71 -15 10 -21 10 -35 -2 -14 -14 -18 -13 -37 7 -16 18
-24 20 -33 11 -17 -17 -23 -15 -36 14 -15 32 -32 22 -32 -19 -1 -31 -1 -31
-16 -12 -26 35 -28 62 -5 92 22 26 22 27 28 5 6 -26 39 -29 47 -4 10 34 18 92
13 92 -3 0 -13 -7 -22 -16 -26 -27 -29 -8 -4 28 61 88 180 218 199 218 7 0 3
-14 -7 -32z m4227 22 c0 -5 -2 -10 -4 -10 -3 0 -8 5 -11 10 -3 6 -1 10 4 10 6
0 11 -4 11 -10z m-4558 -47 c-24 -46 -62 -84 -62 -61 0 17 69 112 77 105 2 -3
-4 -22 -15 -44z m129 -5 c-7 -7 -18 -22 -26 -33 l-15 -20 6 20 c8 24 35 57 42
51 2 -3 -1 -11 -7 -18z m4489 12 c0 -5 -4 -10 -10 -10 -5 0 -10 5 -10 10 0 6
5 10 10 10 6 0 10 -4 10 -10z m-5430 -9 c0 -12 -20 -25 -27 -18 -7 7 6 27 18
27 5 0 9 -4 9 -9z m2290 1 c0 -5 -6 -16 -13 -27 -10 -13 -16 -15 -21 -6 -4 6
-2 18 4 26 13 16 30 20 30 7z m-2430 -17 c0 -9 7 -18 17 -22 14 -5 13 -8 -6
-15 -37 -13 -79 21 -54 45 12 13 43 7 43 -8z m990 -43 c-12 -22 -35 -46 -51
-56 -28 -17 -29 -16 -21 3 9 25 70 91 83 91 6 0 1 -17 -11 -38z m330 32 c0
-15 -42 -62 -60 -67 -28 -7 -25 2 12 40 30 31 48 41 48 27z m1040 -14 c0 -11
-7 -20 -15 -20 -15 0 -21 21 -8 33 12 13 23 7 23 -13z m2840 0 c-8 -5 -22 -10
-30 -10 -13 0 -13 1 0 10 8 5 22 10 30 10 13 0 13 -1 0 -10z m-832 -15 c12 -4
20 -10 17 -14 -7 -12 -53 -1 -67 17 -14 16 -16 16 50 -3z m-1243 -5 c3 -5 1
-10 -4 -10 -6 0 -11 5 -11 10 0 6 2 10 4 10 3 0 8 -4 11 -10z m3010 -40 c3 -5
-1 -10 -9 -10 -17 0 -56 30 -56 42 0 10 56 -18 65 -32z m-5523 3 c-3 -16 -7
-22 -10 -15 -4 13 4 42 11 42 2 0 2 -12 -1 -27z m1789 -6 c-13 -13 -26 -3 -16
12 3 6 11 8 17 5 6 -4 6 -10 -1 -17z m2939 9 c0 -8 -61 -48 -66 -43 -3 2 10
14 28 26 35 22 38 23 38 17z m-4780 -61 c-15 -41 -21 -26 -8 21 6 21 13 32 15
23 2 -8 -1 -28 -7 -44z m1700 25 c11 -7 5 -10 -23 -10 -23 0 -36 4 -32 10 8
13 35 13 55 0z m-1023 -37 c-12 -30 -26 -43 -42 -42 -5 0 -4 3 3 6 6 2 12 12
12 22 0 18 18 41 32 41 4 0 2 -12 -5 -27z m374 -97 c-55 -115 -59 -126 -36
-126 8 0 15 6 15 14 0 18 11 42 54 121 36 65 53 73 122 60 25 -4 32 -10 27
-22 -5 -14 -8 -14 -20 3 -14 18 -15 18 -24 1 -10 -17 -12 -17 -22 -3 -19 26
-52 -5 -66 -59 -6 -25 -27 -67 -46 -94 -19 -27 -35 -55 -35 -62 0 -8 -12 -32
-25 -54 -14 -22 -25 -48 -25 -59 0 -24 -51 -105 -67 -106 -6 0 -13 -6 -16 -12
-2 -7 -7 -10 -11 -6 -4 3 6 30 24 60 68 117 91 178 84 225 -3 24 -2 43 2 43 5
0 15 15 23 33 24 56 83 158 88 153 3 -3 -18 -52 -46 -110z m3624 104 c-3 -5
-12 -10 -18 -10 -7 0 -6 4 3 10 19 12 23 12 15 0z m-4739 -35 c-3 -8 -10 -15
-15 -15 -7 0 -6 10 1 26 12 26 25 16 14 -11z m464 16 c-10 -20 -30 -37 -30
-27 0 6 33 46 38 46 1 0 -2 -9 -8 -19z m354 -3 c-14 -48 -64 -79 -64 -41 0 17
45 63 62 63 5 0 6 -10 2 -22z m-728 -13 c-8 -31 -66 -128 -73 -121 -3 2 11 32
31 66 20 33 36 65 36 71 0 5 3 9 6 9 3 0 3 -11 0 -25z m315 -4 c-12 -16 -21
-36 -21 -45 0 -9 -4 -16 -10 -16 -20 0 -10 59 12 74 34 24 42 19 19 -13z
m1399 19 c0 -5 -17 -21 -37 -34 -21 -13 -57 -41 -79 -62 -97 -91 -174 -141
-219 -143 -14 -1 113 110 173 150 13 9 29 27 36 40 6 13 18 24 26 24 8 0 20 5
25 12 6 6 24 14 40 16 17 2 31 5 33 6 1 0 2 -3 2 -9z m2567 -20 c94 -64 114
-70 225 -69 117 1 265 -28 307 -59 14 -10 47 -22 74 -25 56 -8 126 -38 148
-64 9 -10 30 -43 46 -73 25 -45 29 -59 20 -77 -9 -21 -17 -23 -85 -23 -76 0
-109 -12 -222 -76 -34 -19 -124 -9 -210 23 -61 24 -73 25 -190 19 -69 -3 -154
-9 -190 -12 l-65 -6 7 123 c5 68 12 133 17 144 5 11 15 56 21 100 7 44 14 86
16 93 6 20 33 14 81 -18z m-3846 -7 c-5 -10 -16 -27 -25 -38 -14 -19 -15 -19
-21 -2 -5 12 0 24 15 37 28 25 44 26 31 3z m1254 -67 c-77 -73 -138 -109 -116
-69 10 20 89 93 99 93 4 0 21 11 37 25 17 13 36 24 44 25 8 0 -21 -33 -64 -74z
m3552 52 c-3 -8 -6 -5 -6 6 -1 11 2 17 5 13 3 -3 4 -12 1 -19z m-4470 -31
c-12 -26 -37 -37 -37 -17 0 12 40 53 46 48 2 -3 -2 -16 -9 -31z m483 25 c0
-14 -61 -102 -71 -102 -15 0 -11 10 22 62 28 44 49 61 49 40z m86 -32 c30 0
12 -19 -23 -26 -21 -4 -44 -11 -50 -17 -21 -16 -15 5 9 30 12 13 28 21 36 18
7 -3 20 -5 28 -5z m434 -3 c0 -7 -14 -23 -30 -35 -17 -13 -55 -46 -85 -74 -40
-37 -52 -54 -45 -63 11 -14 -33 -58 -78 -78 -13 -6 -26 -23 -29 -39 -5 -23 -8
-26 -20 -17 -11 10 -17 8 -29 -9 -19 -28 -49 -31 -35 -3 6 10 8 21 5 24 -3 3
17 17 45 32 29 14 49 30 45 36 -3 6 -12 8 -20 5 -11 -4 -10 1 3 18 14 19 20
21 26 10 6 -10 36 14 118 96 109 108 129 123 129 97z m-300 -27 c0 -5 -15 -12
-32 -15 -18 -4 -39 -12 -45 -17 -7 -6 -24 -7 -37 -4 -19 5 -34 -1 -61 -25 -20
-18 -39 -29 -42 -25 -21 21 140 105 187 98 17 -2 30 -8 30 -12z m580 -5 c-7
-9 -15 -13 -18 -10 -3 2 1 11 8 20 7 9 15 13 18 10 3 -2 -1 -11 -8 -20z m60
-5 c0 -20 -25 -38 -36 -27 -8 7 15 47 26 47 6 0 10 -9 10 -20z m1810 6 c-26
-26 -134 -76 -162 -76 -26 0 -58 22 -58 41 0 12 17 12 25 -1 11 -17 57 -10
125 20 75 32 90 36 70 16z m-3110 -6 c0 -5 -5 -10 -11 -10 -5 0 -7 5 -4 10 3
6 8 10 11 10 2 0 4 -4 4 -10z m1135 -44 c53 -28 85 -54 110 -90 68 -98 64 -86
44 -131 -10 -22 -19 -47 -19 -55 0 -8 -12 -28 -27 -45 -16 -16 -37 -41 -48
-55 -33 -44 -124 -120 -143 -119 -14 0 -13 3 6 16 12 8 22 19 22 24 0 15 -27
10 -33 -6 -7 -16 -78 -55 -102 -55 -24 0 -18 15 23 52 45 41 75 85 66 99 -3 6
-35 -19 -71 -55 -56 -55 -76 -68 -139 -89 -65 -22 -74 -23 -74 -8 0 9 14 22
30 30 48 21 130 75 130 86 0 6 16 41 34 79 19 38 33 74 31 80 -2 6 -6 24 -9
39 -9 41 -43 50 -86 24 -34 -21 -140 -40 -140 -25 0 4 20 17 44 28 27 12 66
45 102 85 31 37 71 73 88 81 17 8 42 21 56 29 28 16 45 13 105 -19z m219 7
c-9 -37 -14 -44 -25 -38 -10 7 -12 48 -2 58 17 18 33 6 27 -20z m2994 1 c44
-12 21 -19 -61 -18 -117 2 -127 3 -127 14 0 11 150 14 188 4z m-2933 -24 c3
-5 1 -10 -4 -10 -6 0 -11 5 -11 10 0 6 2 10 4 10 3 0 8 -4 11 -10z m-2082 -28
c-7 -19 -43 -51 -57 -52 -5 0 0 10 12 23 12 13 22 31 22 40 0 10 5 14 14 11 9
-3 12 -13 9 -22z m116 15 c8 -10 7 -17 -1 -25 -19 -19 -28 -14 -28 13 0 27 12
32 29 12z m143 -9 c-3 -13 -11 -27 -19 -31 -7 -4 -13 -13 -13 -18 0 -6 -7 -17
-15 -25 -8 -9 -15 -26 -15 -38 0 -25 -35 -61 -92 -95 -38 -23 -49 -41 -25 -41
6 0 1 -11 -13 -23 -14 -13 -34 -40 -45 -61 -12 -25 -36 -48 -69 -67 -28 -15
-52 -26 -54 -24 -3 2 -2 15 2 29 4 17 21 33 49 47 49 25 63 42 40 50 -12 4 5
27 72 97 48 51 93 92 99 92 6 0 17 15 25 33 8 17 25 43 38 56 12 13 23 28 23
32 0 5 4 9 9 9 5 0 7 -10 3 -22z m983 12 c-3 -5 -20 -19 -37 -32 -31 -21 -31
-11 0 25 16 18 48 24 37 7z m890 -20 c3 -5 -1 -10 -9 -10 -9 0 -16 5 -16 10 0
6 4 10 9 10 6 0 13 -4 16 -10z m-1955 -4 c0 -2 -7 -17 -15 -32 -8 -16 -15 -37
-15 -46 0 -10 -7 -18 -16 -18 -14 0 -14 3 -4 15 7 9 10 18 7 22 -8 8 21 63 33
63 6 0 10 -2 10 -4z m1890 -3 c0 -5 -5 -15 -10 -23 -7 -11 -12 -12 -21 -3 -6
6 -8 16 -5 22 8 12 36 15 36 4z m-1157 -50 c4 -33 2 -43 -9 -43 -7 0 -27 -27
-44 -59 -16 -33 -34 -63 -40 -66 -22 -14 -20 3 4 39 13 20 37 68 51 107 15 38
28 69 30 67 1 -2 5 -22 8 -45z m-463 22 c0 -8 -4 -15 -10 -15 -5 0 -10 7 -10
15 0 8 5 15 10 15 6 0 10 -7 10 -15z m910 9 c0 -12 -106 -104 -120 -103 -8 0
11 24 44 54 54 51 76 65 76 49z m-247 -24 c-6 -23 -31 -46 -40 -37 -7 8 24 57
36 57 5 0 7 -9 4 -20z m-1083 -9 c0 -10 -64 -61 -76 -61 -4 0 7 16 26 35 34
35 50 43 50 26z m2080 -9 c0 -10 -6 -26 -13 -36 -13 -17 -14 -17 -20 -2 -7 17
11 56 25 56 5 0 8 -8 8 -18z m-890 -22 c-32 -24 -42 -14 -11 11 13 11 27 17
30 14 3 -4 -5 -15 -19 -25z m4340 -5 c19 -23 4 -30 -25 -11 -30 20 -36 53 -7
37 10 -5 25 -17 32 -26z m-3420 -25 c-13 -39 -8 -63 9 -44 5 5 14 26 21 47 6
20 15 37 20 37 15 0 22 -20 12 -33 -5 -7 -12 -25 -16 -40 -11 -46 -86 -62 -86
-18 0 22 41 103 48 96 3 -3 -1 -23 -8 -45z m-2045 24 c14 -6 10 -12 -19 -40
-37 -35 -95 -69 -103 -60 -13 12 63 90 104 105 1 1 9 -2 18 -5z m942 -26 c-3
-8 -6 -5 -6 6 -1 11 2 17 5 13 3 -3 4 -12 1 -19z m-79 -18 c-7 -10 -14 -18
-15 -16 -6 6 9 36 18 36 5 0 4 -9 -3 -20z m-1308 0 c0 -5 -4 -10 -10 -10 -5 0
-10 5 -10 10 0 6 5 10 10 10 6 0 10 -4 10 -10z m5970 -41 c0 -14 -12 -10 -26
9 -22 29 -16 51 6 23 11 -13 20 -27 20 -32z m-6030 31 c0 -5 -2 -10 -4 -10 -3
0 -8 5 -11 10 -3 6 -1 10 4 10 6 0 11 -4 11 -10z m726 -18 c-8 -13 -46 -22
-46 -11 0 10 42 30 49 23 1 -1 0 -7 -3 -12z m5219 -27 c27 -24 36 -60 16 -60
-18 0 -63 83 -54 98 4 7 8 6 11 -3 3 -7 15 -23 27 -35z m-5624 -21 c-18 -23
-94 -84 -105 -84 -6 0 31 42 82 92 40 40 57 35 23 -8z m299 29 c0 -12 -63 -53
-69 -47 -4 3 7 17 22 30 28 24 47 31 47 17z m180 -7 c0 -2 -7 -6 -15 -10 -8
-3 -15 -1 -15 4 0 6 7 10 15 10 8 0 15 -2 15 -4z m540 0 c0 -3 -4 -8 -10 -11
-5 -3 -10 -1 -10 4 0 6 5 11 10 11 6 0 10 -2 10 -4z m2788 -8 c-8 -22 -35 -31
-71 -24 -52 10 -46 24 11 29 26 2 51 4 55 5 5 1 7 -3 5 -10z m-3438 -13 c0 -8
-62 -64 -92 -82 -16 -10 -28 -23 -28 -29 0 -16 -129 -189 -141 -189 -15 0 -11
13 23 77 35 67 134 179 183 210 29 17 55 24 55 13z m-939 -29 c-6 -7 -22 -16
-34 -19 -20 -5 -19 -3 7 19 29 26 48 26 27 0z m2064 -3 c-7 -32 -22 -50 -31
-40 -9 9 16 67 28 67 6 0 7 -11 3 -27z m85 14 c0 -22 -31 -57 -51 -57 -22 0
-23 4 -8 33 19 35 59 52 59 24z m630 -2 c-7 -8 -19 -15 -27 -15 -13 0 -13 3
-3 15 7 8 19 15 27 15 13 0 13 -3 3 -15z m-773 -27 c-8 -21 -22 -34 -35 -36
-17 -3 -21 0 -15 15 9 26 34 53 50 53 11 0 11 -5 0 -32z m-1377 15 c0 -13
-140 -153 -153 -153 -15 0 12 36 37 50 14 7 26 21 26 31 0 10 17 31 37 48 37
31 53 38 53 24z m1070 -19 c0 -8 -11 -20 -25 -26 -18 -8 -25 -19 -25 -40 0
-15 -4 -28 -9 -28 -17 0 -21 32 -7 65 21 48 66 69 66 29z m240 3 c0 -21 -30
-57 -47 -57 -14 0 -14 2 3 15 10 8 15 15 11 15 -11 0 12 40 23 40 6 0 10 -6
10 -13z m-482 -22 c-11 -24 -44 -43 -55 -32 -7 7 43 57 56 57 7 0 7 -9 -1 -25z
m52 15 c0 -5 -4 -10 -10 -10 -5 0 -10 5 -10 10 0 6 5 10 10 10 6 0 10 -4 10
-10z m82 -25 c-2 -14 -11 -25 -18 -25 -17 0 -17 2 -3 34 15 31 28 25 21 -9z
m3338 21 c81 -4 306 -40 319 -52 3 -3 -4 -17 -15 -32 -11 -15 -32 -55 -47 -90
-23 -51 -28 -78 -30 -154 l-2 -93 -50 -17 c-27 -9 -61 -19 -75 -22 -14 -3 -41
-19 -60 -35 -32 -27 -33 -30 -16 -37 13 -5 32 0 55 13 39 22 113 42 96 25 -5
-5 -39 -22 -75 -37 -36 -15 -72 -31 -81 -35 -9 -5 -33 -12 -53 -15 -21 -4 -36
-13 -36 -21 0 -8 3 -14 6 -14 29 0 111 31 186 71 99 53 104 54 113 39 4 -6 -7
-15 -24 -21 -17 -6 -31 -15 -31 -20 0 -5 -4 -9 -10 -9 -5 0 -50 -24 -99 -54
-49 -30 -127 -74 -172 -98 -46 -24 -76 -44 -66 -46 9 -2 25 2 36 7 30 17 46
14 30 -5 -10 -12 -10 -17 0 -23 9 -6 5 -14 -15 -30 -46 -36 -1 -24 70 19 36
22 71 40 78 40 35 0 -180 -178 -295 -244 -26 -15 -45 -31 -42 -36 8 -13 30 -3
124 57 46 30 86 52 88 49 3 -3 3 -16 -1 -29 -4 -16 -29 -40 -70 -67 -76 -49
-97 -70 -71 -70 27 0 85 31 96 52 5 10 14 16 20 13 17 -11 9 -21 -39 -53 -63
-41 -110 -87 -117 -114 -6 -21 -104 -98 -125 -98 -5 0 -33 -11 -62 -24 -113
-51 -237 -86 -306 -86 -37 0 -44 3 -54 28 -6 15 -12 53 -14 84 -3 53 0 62 41
129 57 93 62 131 10 72 -21 -24 -24 -25 -25 -9 0 20 89 166 102 166 4 0 8 4 8
10 0 5 20 28 45 51 42 39 63 74 51 86 -3 3 -28 -19 -56 -48 -27 -30 -47 -45
-43 -34 4 11 9 22 12 25 28 24 101 115 101 126 0 42 -73 -15 -113 -88 -17 -32
-36 -58 -40 -58 -10 0 34 78 72 130 15 19 39 53 53 75 15 22 38 54 53 70 15
17 40 49 56 71 25 37 27 44 14 60 -13 18 -16 17 -56 -21 -23 -22 -55 -53 -70
-70 -41 -44 -35 -17 10 48 51 72 36 85 -16 15 -38 -53 -38 -53 -41 -24 -4 31
24 116 38 116 5 0 12 10 16 22 7 24 83 158 124 220 22 33 33 39 83 49 38 8 61
18 68 30 5 10 24 27 42 36 34 19 149 42 182 36 11 -1 63 -5 115 -7z m-4880 0
c0 -3 -4 -8 -10 -11 -5 -3 -10 -1 -10 4 0 6 5 11 10 11 6 0 10 -2 10 -4z m920
-6 c0 -6 -6 -13 -14 -16 -14 -5 -162 -199 -185 -242 -13 -25 -33 -28 -50 -8
-21 25 111 198 187 247 49 31 62 35 62 19z m4410 -20 c0 -5 -4 -10 -10 -10 -5
0 -10 5 -10 10 0 6 5 10 10 10 6 0 10 -4 10 -10z m-3860 -30 c0 -19 -45 -50
-74 -50 -11 0 -12 4 -3 25 20 41 77 60 77 25z m205 -7 c-7 -31 -23 -53 -36
-53 -14 0 -10 34 7 58 21 31 38 28 29 -5z m55 -2 c-6 -12 -16 -19 -21 -15 -6
4 -4 13 7 25 21 24 29 18 14 -10z m338 22 c-13 -27 -27 -61 -32 -76 -6 -19
-33 -34 -43 -24 -9 10 18 71 41 89 22 18 40 24 34 11z m-2178 -13 c0 -14 -78
-52 -98 -48 -12 3 -7 9 18 23 19 11 44 23 55 26 11 4 21 7 23 8 1 1 2 -3 2 -9z
m2040 -13 c0 -7 -5 -18 -12 -25 -7 -7 -18 -12 -25 -12 -16 0 -17 22 -1 38 16
16 38 15 38 -1z m41 -20 c-13 -13 -26 -3 -16 12 3 6 11 8 17 5 6 -4 6 -10 -1
-17z m-121 0 c0 -19 -21 -37 -42 -37 -38 0 -7 45 35 49 4 1 7 -5 7 -12z m-505
-26 c-25 -50 -56 -57 -34 -8 6 14 19 28 28 30 9 3 17 5 19 6 1 0 -4 -12 -13
-28z m-1375 0 c0 -4 -19 -21 -42 -37 -24 -15 -56 -40 -73 -54 -34 -30 -85 -63
-85 -55 0 10 93 90 143 122 57 37 57 37 57 24z m1773 -42 c-5 -5 -19 -6 -31
-2 -30 7 -25 35 8 43 19 5 26 2 28 -13 2 -11 0 -23 -5 -28z m3617 38 c0 -7 -7
-23 -16 -35 -11 -17 -15 -40 -12 -87 3 -77 -7 -95 -17 -27 -5 36 -2 66 11 106
16 51 34 74 34 43z m-3850 -7 c0 -5 -9 -14 -20 -20 -22 -12 -27 -1 -8 18 14
14 28 16 28 2z m-79 -37 c-11 -20 -98 -69 -107 -60 -10 10 36 67 55 67 9 0 26
6 37 14 22 17 30 6 15 -21z m139 -3 c0 -16 -4 -31 -9 -34 -11 -7 -25 49 -16
64 11 17 25 0 25 -30z m386 13 c-10 -10 -19 5 -10 18 6 11 8 11 12 0 2 -7 1
-15 -2 -18z m-55 -6 c-13 -13 -26 -3 -16 12 3 6 11 8 17 5 6 -4 6 -10 -1 -17z
m-1841 -1 c0 -3 -4 -8 -10 -11 -5 -3 -10 -1 -10 4 0 6 5 11 10 11 6 0 10 -2
10 -4z m1780 -6 c0 -5 -14 -10 -31 -10 -17 0 -28 4 -24 10 3 6 17 10 31 10 13
0 24 -4 24 -10z m-2166 -89 c-85 -81 -118 -129 -108 -155 4 -10 1 -16 -9 -16
-8 0 -17 5 -19 12 -2 6 -10 8 -16 4 -7 -4 -10 -16 -7 -27 4 -11 2 -19 -4 -19
-6 0 -11 2 -11 4 0 2 -3 11 -6 19 -7 18 223 257 246 257 8 -1 -22 -36 -66 -79z
m1788 22 c-11 -21 -29 -47 -41 -57 -19 -17 -21 -17 -21 -3 0 10 5 17 10 17 6
0 10 10 10 22 0 23 52 86 58 69 2 -5 -6 -27 -16 -48z m-1462 37 c0 -5 -4 -10
-10 -10 -5 0 -10 5 -10 10 0 6 5 10 10 10 6 0 10 -4 10 -10z m1635 0 c3 -5 -1
-10 -9 -10 -9 0 -16 5 -16 10 0 6 4 10 9 10 6 0 13 -4 16 -10z m-111 -22 c9
-34 8 -35 -19 -40 -29 -6 -30 -2 -12 35 15 33 23 34 31 5z m3921 -34 c7 -61 9
-69 24 -123 16 -58 7 -63 -19 -10 -23 44 -38 145 -26 175 9 25 15 14 21 -42z
m-5065 18 c0 -5 -18 -23 -40 -41 -48 -38 -52 -30 -8 16 31 33 48 41 48 25z
m-153 -32 c1 -11 -2 -20 -8 -20 -10 0 -12 23 -2 33 9 9 9 10 10 -13z m-509
-45 c-26 -25 -55 -45 -65 -45 -14 1 -12 6 12 26 32 28 87 64 95 64 3 0 -16
-21 -42 -45z m112 37 c0 -11 -37 -32 -44 -25 -3 3 2 12 12 19 19 15 32 18 32
6z m1896 -39 c-5 -12 -10 -13 -17 -6 -8 8 -7 18 2 34 12 21 14 22 17 6 2 -10
1 -25 -2 -34z m284 43 c0 -3 -4 -8 -10 -11 -5 -3 -10 -1 -10 4 0 6 5 11 10 11
6 0 10 -2 10 -4z m4335 -5 c3 -5 1 -12 -5 -16 -5 -3 -10 1 -10 9 0 18 6 21 15
7z m-4834 -44 c-9 -24 -87 -75 -97 -64 -11 11 35 74 67 89 38 20 45 14 30 -25z
m73 28 c4 -13 -20 -35 -38 -35 -11 0 -6 26 6 38 16 16 25 15 32 -3z m226 -3
c0 -14 -11 -21 -26 -15 -21 8 -17 23 6 23 11 0 20 -4 20 -8z m53 -12 c-3 -11
-11 -20 -18 -20 -8 0 -11 8 -8 20 3 11 11 20 18 20 8 0 11 -8 8 -20z m591 -13
c-7 -18 -24 -23 -24 -8 0 22 13 42 22 33 5 -5 6 -16 2 -25z m-2044 -2 c-7 -8
-22 -15 -34 -15 -18 0 -17 2 9 19 34 21 44 19 25 -4z m1234 -14 c8 -12 -21
-34 -33 -27 -6 4 -8 13 -4 21 6 17 29 20 37 6z m-244 -10 c0 -16 -41 -81 -51
-81 -13 0 -12 6 11 50 19 37 40 53 40 31z m4970 -40 c-6 -12 -15 -19 -21 -16
-13 8 -11 29 3 43 18 18 32 -2 18 -27z m-3852 -4 c4 -52 -8 -117 -22 -117 -8
0 -16 -14 -20 -31 -10 -50 -8 -62 9 -55 9 3 18 -1 22 -10 8 -22 1 -25 -40 -12
-32 10 -37 15 -37 43 0 50 21 85 48 78 21 -5 22 -3 22 66 0 71 13 99 18 38z
m4682 -56 c0 -93 -16 -136 -64 -174 -23 -17 -34 -22 -25 -12 9 11 31 48 49 83
30 58 32 69 27 129 -3 40 -1 60 4 52 5 -8 9 -43 9 -78z m-5676 10 c-52 -47
-58 -22 -8 30 32 33 40 37 43 23 2 -11 -12 -32 -35 -53z m166 54 c0 -8 -7 -15
-15 -15 -16 0 -20 12 -8 23 11 12 23 8 23 -8z m720 1 c0 -7 -7 -19 -15 -26
-16 -13 -20 -3 -9 24 8 20 24 21 24 2z m46 -24 c-14 -14 -16 -14 -16 -1 0 20
23 44 29 28 2 -6 -4 -18 -13 -27z m3132 -17 c-2 -21 -9 -40 -16 -43 -9 -3 -12
6 -10 30 1 19 -1 39 -5 45 -8 13 14 24 26 13 5 -4 7 -24 5 -45z m-4274 13 c-9
-45 -54 -79 -54 -42 0 20 38 74 51 74 7 0 8 -13 3 -32z m312 -6 c-8 -9 -19
-13 -22 -9 -10 9 16 38 28 31 6 -4 4 -13 -6 -22z m288 9 c-5 -5 -19 -12 -31
-16 -17 -5 -23 -2 -23 10 0 12 6 15 19 10 11 -3 22 -1 26 5 4 6 10 9 13 5 3
-3 1 -9 -4 -14z m-437 2 c-2 -5 -11 -25 -20 -45 -13 -27 -27 -40 -53 -48 -19
-7 -38 -9 -42 -6 -12 13 31 75 62 90 33 17 60 21 53 9z m-256 -69 c-12 -19
-21 -44 -21 -55 0 -32 -28 -77 -52 -85 -21 -6 -21 -7 -2 -21 19 -14 19 -14 0
-29 -21 -15 -39 -18 -48 -8 -3 3 4 33 17 67 53 144 61 159 91 172 37 15 41 4
15 -41z m804 36 c-3 -5 -11 -10 -16 -10 -6 0 -7 5 -4 10 3 6 11 10 16 10 6 0
7 -4 4 -10z m-1715 -10 c0 -5 -4 -10 -10 -10 -5 0 -10 5 -10 10 0 6 5 10 10
10 6 0 10 -4 10 -10z m1433 -15 c-17 -23 -42 -39 -49 -32 -7 7 41 56 54 56 9
1 8 -6 -5 -24z m-63 2 c0 -17 -44 -59 -52 -51 -13 12 14 64 33 64 10 0 19 -6
19 -13z m-2250 -27 c0 -30 -15 -41 -23 -17 -3 9 -7 9 -19 -1 -9 -7 -23 -9 -32
-6 -14 5 -10 11 21 30 49 30 53 30 53 -6z m1902 -17 c-12 -26 -18 -31 -20 -18
-5 21 18 66 29 59 5 -2 1 -21 -9 -41z m588 40 c-1 -10 -68 -53 -81 -53 -17 0
11 41 34 50 28 11 47 12 47 3z m41 -33 c-4 -21 -14 -36 -24 -38 -15 -3 -16 0
-6 24 10 29 30 57 35 52 1 -2 -1 -19 -5 -38z m453 -8 c-8 -48 -24 -65 -24 -26
0 41 11 75 21 68 5 -3 7 -22 3 -42z m3970 32 c9 -25 -122 -209 -138 -193 -3 3
9 28 27 56 40 64 69 112 82 135 12 22 21 23 29 2z m-6024 -4 c0 -5 -4 -10 -10
-10 -5 0 -10 5 -10 10 0 6 5 10 10 10 6 0 10 -4 10 -10z m1990 -13 c0 -13 -7
-32 -15 -43 -15 -18 -16 -17 -9 16 10 54 24 69 24 27z m4270 8 c0 -8 -7 -15
-15 -15 -9 0 -12 6 -9 15 4 8 10 15 15 15 5 0 9 -7 9 -15z m-4823 -22 c-9 -9
-20 -13 -24 -9 -4 4 1 14 11 22 25 18 35 8 13 -13z m-1687 -3 c-6 -11 -13 -20
-16 -20 -2 0 0 9 6 20 6 11 13 20 16 20 2 0 0 -9 -6 -20z m162 -21 c-28 -25
-62 -39 -62 -25 0 9 85 64 90 59 3 -2 -10 -18 -28 -34z m1012 14 c-7 -30 -38
-63 -60 -63 -18 0 -17 4 1 40 14 27 40 49 58 50 4 0 5 -12 1 -27z m236 22 c0
-4 -7 -19 -15 -36 -14 -27 -61 -56 -72 -45 -9 9 29 75 45 79 26 7 42 8 42 2z
m2741 -126 c-89 -121 -115 -136 -66 -40 23 46 142 177 152 167 2 -2 -36 -60
-86 -127z m-4100 88 c-16 -16 -26 0 -10 19 9 11 15 12 17 4 2 -6 -1 -17 -7
-23z m1439 23 c0 -5 -4 -10 -10 -10 -5 0 -10 5 -10 10 0 6 5 10 10 10 6 0 10
-4 10 -10z m636 -7 c-23 -63 -42 -103 -48 -103 -13 0 -9 20 14 71 21 45 48 71
34 32z m-821 -42 c-8 -27 -50 -55 -70 -47 -22 8 -4 47 31 67 33 19 49 11 39
-20z m-2105 4 c0 -9 -9 -14 -24 -13 -32 3 -114 -40 -121 -63 -3 -10 -20 -21
-36 -24 -42 -9 -49 2 -10 16 17 6 36 20 42 30 10 20 128 80 142 72 4 -2 7 -11
7 -18z m771 -34 c-6 -11 -8 -28 -5 -38 6 -17 6 -17 -11 -1 -18 17 -18 18 1 53
12 22 20 30 22 21 2 -8 -2 -24 -7 -35z m1647 37 c-3 -7 -15 -14 -29 -16 -23
-2 -23 -2 -5 13 24 18 39 20 34 3z m167 2 c3 -5 -13 -18 -37 -30 -48 -23 -48
-23 -48 -10 0 10 58 50 72 50 4 0 9 -4 13 -10z m4205 6 c0 -11 -19 -15 -25 -6
-3 5 1 10 9 10 9 0 16 -2 16 -4z m-5736 -21 c-6 -16 -24 -21 -24 -7 0 11 11
22 21 22 5 0 6 -7 3 -15z m1266 -10 c-7 -8 -17 -15 -23 -15 -5 0 -2 9 8 20 21
23 35 19 15 -5z m3450 -5 c-37 -29 -50 -24 -16 5 16 14 32 23 35 19 3 -3 -5
-14 -19 -24z m-4784 -7 c-10 -10 -19 5 -10 18 6 11 8 11 12 0 2 -7 1 -15 -2
-18z m6057 -46 c-58 -77 -114 -137 -128 -137 -6 0 -22 -11 -35 -25 -36 -39 -3
-31 54 13 82 62 86 65 86 54 0 -5 -20 -26 -45 -46 -25 -21 -45 -42 -45 -47 0
-23 28 -3 96 68 54 57 74 72 74 58 0 -41 -101 -145 -178 -185 -24 -13 -59 -37
-77 -54 -19 -17 -40 -32 -47 -34 -7 -2 -20 -9 -28 -16 -8 -7 -28 -18 -45 -26
l-30 -14 29 -4 c16 -2 32 0 35 5 3 5 26 17 51 28 25 11 58 32 75 46 46 39 103
71 115 64 5 -3 30 8 54 24 42 29 66 38 66 26 0 -15 -71 -76 -103 -90 -38 -16
-50 -35 -22 -35 19 0 95 47 95 59 0 12 68 46 77 38 4 -4 -15 -30 -42 -57 -71
-72 -49 -72 30 -1 37 34 71 61 75 61 24 0 18 -24 -10 -48 -18 -15 -47 -41 -64
-57 -17 -17 -53 -44 -80 -62 -28 -18 -44 -33 -37 -37 20 -13 163 97 210 161
26 36 41 42 41 17 0 -35 -34 -85 -86 -125 -38 -29 -53 -47 -49 -59 4 -11 -5
-21 -30 -33 -35 -17 -47 -37 -22 -37 7 0 22 7 33 15 18 14 54 20 54 10 0 -9
-20 -32 -65 -76 -39 -38 -245 -149 -277 -149 -8 0 -23 -9 -33 -20 -10 -11 -14
-20 -8 -20 24 0 144 45 202 76 35 18 68 31 73 28 17 -11 -48 -58 -122 -89 -54
-22 -75 -36 -75 -49 0 -33 -203 -99 -240 -79 -10 6 5 14 50 27 36 10 65 22 65
27 0 10 -58 2 -124 -17 -28 -8 -102 -19 -165 -25 -181 -16 -373 -52 -409 -75
-45 -29 -9 -36 49 -9 59 26 200 48 234 35 23 -9 18 -12 -59 -30 -105 -24 -153
-58 -79 -56 31 1 39 -4 56 -33 28 -47 40 -128 24 -161 -7 -14 -14 -44 -15 -68
-2 -24 -7 -54 -12 -68 -6 -14 -10 -40 -11 -57 -1 -44 -27 -97 -71 -146 -47
-51 -71 -52 -141 -7 -71 47 -185 86 -196 68 -7 -11 -9 -11 -14 1 -3 8 -21 18
-39 22 -18 4 -42 14 -53 21 -11 8 -26 14 -34 14 -8 0 -37 17 -65 38 -83 63
-155 112 -164 112 -4 0 -16 28 -26 63 -17 57 -79 185 -95 197 -40 29 -56 136
-26 176 13 17 14 15 15 -33 0 -29 8 -68 17 -88 18 -39 39 -48 28 -12 -31 101
-23 157 31 216 33 37 43 61 26 61 -4 0 -13 -5 -20 -12 -17 -17 -27 -1 -11 18
38 46 207 154 241 154 18 0 141 60 163 80 11 10 41 27 67 39 26 11 50 26 54
32 10 17 -57 0 -81 -20 -27 -23 -133 -77 -176 -89 -19 -5 -42 -13 -51 -17 -11
-4 -18 -3 -18 4 0 6 10 15 23 20 12 5 47 24 77 43 31 18 89 46 130 61 41 16
100 40 130 54 65 30 181 69 230 77 39 7 134 -23 154 -47 33 -42 189 -49 319
-16 44 11 90 27 101 35 11 8 33 14 48 14 32 0 44 15 28 35 -10 12 -6 23 24 60
21 25 42 45 48 45 12 0 59 49 113 117 57 72 64 55 8 -20z m-6183 54 c0 -12
-20 -25 -27 -18 -7 7 6 27 18 27 5 0 9 -4 9 -9z m1400 2 c0 -10 -52 -63 -62
-63 -15 0 -8 21 17 45 23 24 45 33 45 18z m-258 -35 c3 -33 4 -34 52 -20 17 5
18 1 12 -39 -10 -60 -33 -72 -93 -48 -28 11 -28 11 -5 20 12 4 22 13 22 18 0
6 -7 8 -17 4 -14 -6 -15 -1 -9 37 4 24 9 47 12 52 11 18 23 7 26 -24z m998 6
c0 -8 -7 -14 -15 -14 -15 0 -21 21 -9 33 10 9 24 -2 24 -19z m90 16 c0 -5 -4
-10 -10 -10 -5 0 -10 5 -10 10 0 6 5 10 10 10 6 0 10 -4 10 -10z m-1144 -25
c-14 -55 -26 -75 -51 -81 -37 -9 -43 3 -9 17 23 9 25 13 12 16 -27 7 -22 36
10 55 37 24 45 22 38 -7z m784 22 c0 -2 -18 -18 -40 -36 -29 -23 -40 -28 -40
-16 0 8 6 15 13 15 8 0 22 9 32 20 16 17 35 27 35 17z m-560 -15 c0 -4 -12
-20 -26 -35 -14 -15 -32 -40 -40 -55 -12 -24 -14 -25 -14 -6 0 48 14 86 34 94
27 11 46 12 46 2z m235 -11 c-8 -14 -65 -44 -72 -38 -2 3 12 17 33 31 37 25
52 28 39 7z m4705 5 c0 -19 -46 -73 -55 -64 -6 5 43 78 53 78 1 0 2 -6 2 -14z
m-1424 -19 c-10 -7 -34 -22 -53 -34 -33 -23 -95 -43 -80 -27 8 8 138 73 147
73 3 0 -3 -6 -14 -12z m-3395 -20 c-6 -8 -9 -22 -5 -30 6 -17 -33 -38 -95 -52
-38 -8 -39 2 -6 41 19 22 27 26 37 16 16 -16 38 -15 38 2 0 17 30 50 38 42 2
-3 0 -12 -7 -19z m3627 1 c2 -10 -1 -18 -7 -18 -6 0 -32 -13 -58 -30 -26 -16
-52 -30 -57 -30 -15 1 33 40 49 40 7 0 18 7 25 15 7 8 9 15 6 15 -14 0 -95
-40 -101 -50 -3 -5 -13 -10 -21 -10 -30 0 -12 20 49 55 66 37 110 42 115 13z
m-3308 5 c-1 -10 -50 -46 -50 -37 0 11 32 44 42 44 4 0 8 -3 8 -7z m250 3 c0
-3 -4 -8 -10 -11 -5 -3 -10 -1 -10 4 0 6 5 11 10 11 6 0 10 -2 10 -4z m288 -8
c-5 -15 -48 -24 -48 -10 0 14 12 22 33 22 10 0 17 -5 15 -12z m3472 2 c0 -5
-4 -10 -10 -10 -5 0 -10 5 -10 10 0 6 5 10 10 10 6 0 10 -4 10 -10z m-5695
-10 c4 -6 -6 -10 -22 -9 -25 0 -26 1 -8 9 11 5 21 9 22 9 1 1 5 -3 8 -9z
m6847 -7 c-11 -19 -89 -45 -97 -32 -3 4 11 13 32 19 21 5 45 14 53 20 21 13
22 13 12 -7z m-5390 -15 c-6 -6 -15 -8 -19 -4 -4 4 -1 11 7 16 19 12 27 3 12
-12z m818 -3 c0 -8 -4 -15 -10 -15 -5 0 -10 7 -10 15 0 8 5 15 10 15 6 0 10
-7 10 -15z m3090 -4 c33 -9 32 -9 -15 -6 -27 2 -58 4 -68 4 -11 1 -15 6 -11
12 6 11 30 9 94 -10z m-5361 -5 c-12 -10 -49 -16 -49 -7 0 5 10 11 23 13 22 4
34 1 26 -6z m68 8 c-3 -3 -12 -4 -19 -1 -8 3 -5 6 6 6 11 1 17 -2 13 -5z
m4940 -10 c2 -5 -23 -25 -54 -44 -88 -53 -203 -171 -165 -170 4 0 32 26 62 57
50 51 133 113 152 113 18 0 -6 -29 -34 -41 -17 -7 -63 -44 -102 -83 -39 -39
-93 -86 -121 -105 -27 -18 -60 -45 -72 -60 -32 -40 -38 -19 -11 41 31 66 157
195 253 260 68 46 85 52 92 32z m-4292 -56 c-9 -42 -17 -56 -39 -66 -37 -18
-42 -10 -26 40 7 24 14 49 16 56 4 13 44 32 55 26 3 -2 1 -27 -6 -56z m495 52
c0 -5 -5 -10 -11 -10 -5 0 -7 5 -4 10 3 6 8 10 11 10 2 0 4 -4 4 -10z m304
-27 c-25 -38 -42 -45 -36 -17 4 18 -9 18 -34 0 -15 -12 -17 -17 -6 -27 19 -21
15 -27 -38 -52 -58 -28 -63 -23 -18 15 20 17 27 28 18 28 -8 0 -53 -29 -99
-65 -70 -55 -121 -80 -121 -60 0 5 168 125 175 125 3 0 28 16 56 35 28 19 59
35 70 35 10 0 21 5 24 10 3 6 13 10 20 10 10 0 7 -11 -11 -37z m156 7 c-35
-31 -63 -40 -54 -17 6 16 54 46 73 47 8 0 0 -13 -19 -30z m165 20 c3 -5 -3
-10 -15 -10 -12 0 -18 5 -15 10 3 6 10 10 15 10 5 0 12 -4 15 -10z m-1640 -22
c19 -15 30 -18 32 -11 11 33 188 -40 260 -108 28 -27 56 -49 62 -49 6 0 21
-11 35 -25 14 -14 29 -25 34 -25 23 0 33 -31 30 -97 -3 -71 -8 -70 -28 10 -10
36 -17 47 -32 47 -20 0 -20 -1 -3 -26 17 -26 17 -27 -4 -21 -14 3 -21 0 -21
-9 0 -8 4 -14 8 -14 21 0 48 -96 44 -152 -2 -20 -22 -25 -22 -5 0 17 -41 116
-67 159 -12 20 -47 53 -79 73 -77 49 -84 51 -84 26 0 -16 8 -23 32 -28 20 -4
52 -26 83 -57 43 -42 56 -65 78 -131 30 -88 33 -137 13 -174 -11 -20 -14 -21
-19 -7 -6 15 -11 14 -49 -5 -26 -13 -66 -23 -98 -25 -30 -1 -57 -3 -59 -3 -2
-1 2 -8 9 -16 8 -9 30 -15 57 -15 24 0 42 -4 39 -9 -19 -29 -168 -15 -218 21
-34 24 -57 15 -32 -13 28 -31 118 -52 192 -46 35 3 69 10 75 16 6 6 17 11 25
11 10 0 9 -7 -6 -27 -21 -29 -86 -52 -169 -60 -37 -3 -53 -9 -53 -19 0 -19 66
-19 111 0 50 20 99 29 99 18 0 -5 -25 -20 -55 -32 -58 -23 -71 -40 -32 -40
l22 -1 -22 -18 c-13 -11 -23 -24 -23 -30 0 -9 -45 -54 -115 -115 -48 -42 -51
-45 -99 -68 -25 -12 -46 -26 -46 -30 0 -4 -7 -8 -16 -8 -9 0 -56 -24 -103 -54
-47 -29 -115 -70 -151 -91 -36 -21 -76 -46 -90 -54 -51 -32 -72 -41 -83 -34
-22 13 -72 76 -85 105 -13 30 -13 30 20 28 18 -1 39 -2 46 -1 21 2 3 21 -21
22 -12 1 0 6 26 11 50 11 61 36 13 30 -42 -5 -124 27 -157 61 -41 43 -81 125
-113 228 -23 78 -25 98 -21 190 8 144 48 285 98 345 13 16 26 35 28 41 9 28
163 172 212 198 29 16 56 34 60 42 4 7 15 13 22 13 8 0 15 4 15 8 0 13 97 44
118 38 11 -4 32 -1 48 6 16 6 61 15 99 18 39 4 77 7 86 8 9 1 29 -8 44 -20z
m705 12 c0 -5 -10 -15 -22 -21 l-23 -12 23 -10 c32 -14 28 -22 -25 -46 -27
-12 -66 -31 -88 -43 -80 -43 -85 -45 -85 -23 0 17 79 65 123 75 28 5 32 10 29
35 -2 19 3 34 14 42 21 15 54 17 54 3z m1436 -26 c11 -26 13 -52 9 -85 -8 -58
-21 -63 -28 -11 -3 20 -9 58 -13 85 -8 58 10 64 32 11z m3167 29 c-18 -2 -48
-2 -65 0 -18 2 -4 4 32 4 36 0 50 -2 33 -4z m-5678 -13 c-3 -5 -10 -10 -16
-10 -5 0 -9 5 -9 10 0 6 7 10 16 10 8 0 12 -4 9 -10z m1155 -20 c-21 -13 -63
-13 -55 1 4 6 17 14 29 19 26 10 48 -6 26 -20z m-182 -1 c-4 -27 -46 -45 -55
-24 -7 20 14 45 39 45 14 0 19 -6 16 -21z m3844 9 c-6 -7 -24 -21 -41 -31 -27
-16 -31 -16 -31 -3 0 9 15 22 33 30 41 18 52 19 39 4z m-4002 -12 c0 -3 -4 -8
-10 -11 -5 -3 -10 -1 -10 4 0 6 5 11 10 11 6 0 10 -2 10 -4z m1469 -16 c78
-11 109 -31 138 -91 30 -62 18 -144 -38 -257 -55 -108 -104 -162 -223 -242
-53 -36 -96 -71 -96 -78 0 -31 -112 -208 -164 -257 -65 -63 -118 -83 -137 -53
-18 28 -113 -33 -157 -99 -13 -21 -13 -26 -1 -33 18 -12 53 -4 110 26 26 12
49 20 53 17 3 -3 28 15 55 40 28 26 58 47 67 47 16 0 16 -2 -1 -20 -10 -11
-14 -20 -10 -20 5 0 -4 -10 -21 -22 -42 -33 -106 -100 -100 -106 12 -12 132
87 162 134 22 32 43 32 36 -1 -2 -14 -8 -25 -14 -25 -5 0 -17 -20 -28 -44 -27
-64 -97 -136 -132 -136 -15 0 -30 -5 -34 -11 -5 -9 6 -10 39 -7 46 5 126 59
127 85 0 7 11 23 23 35 13 13 27 37 31 52 7 27 8 27 25 12 31 -28 43 -99 35
-210 -5 -84 -12 -112 -38 -166 -17 -36 -33 -67 -37 -70 -3 -3 -14 -20 -25 -38
-12 -21 -36 -41 -64 -53 -25 -11 -54 -28 -65 -38 -11 -10 -58 -36 -105 -57
-82 -37 -90 -38 -210 -41 -151 -5 -165 -2 -178 37 -6 16 -15 30 -21 30 -12 0
-41 28 -41 40 0 5 10 10 22 12 13 2 24 11 26 21 3 14 -4 17 -33 17 -70 0 -121
20 -165 65 -26 27 -41 50 -38 61 3 17 12 19 82 16 59 -2 77 1 74 10 -3 9 -33
14 -92 15 -48 2 -96 7 -106 13 -21 11 -96 157 -86 167 3 3 20 -4 39 -16 41
-25 97 -28 97 -6 0 10 -10 15 -33 15 -33 0 -128 54 -154 88 -17 23 -26 75 -18
101 8 26 32 27 39 3 8 -23 54 -68 62 -59 3 3 -5 18 -19 33 -37 40 -41 69 -16
120 23 48 17 74 -8 37 -18 -27 -33 -30 -33 -7 0 9 27 44 61 79 77 81 71 111
-7 34 -44 -43 -54 -49 -54 -33 0 20 167 194 186 194 13 0 58 69 51 76 -7 7
-83 -55 -136 -110 -37 -38 -69 -50 -52 -18 20 37 189 200 266 256 11 8 17 17
13 21 -8 8 -118 -71 -118 -85 0 -6 -6 -10 -14 -10 -7 0 -20 -10 -29 -22 -8
-13 -19 -19 -23 -14 -11 10 130 143 211 199 55 38 133 83 212 124 20 10 33 26
37 44 6 32 18 38 191 104 197 76 414 103 604 75z m-1036 -6 c6 -7 -220 -124
-240 -124 -7 0 -16 -8 -21 -17 -9 -16 -11 -16 -27 0 -9 9 -13 21 -10 27 10 16
114 80 129 80 8 0 16 5 18 11 2 6 12 10 23 8 14 -3 1 -13 -42 -34 -35 -16 -65
-35 -67 -42 -8 -19 0 -17 114 41 116 59 114 59 123 50z m3712 -26 c-27 -40
-115 -124 -115 -110 0 12 113 132 125 132 3 0 -2 -10 -10 -22z m-3645 3 c0 -5
-21 -23 -47 -40 -27 -17 -70 -47 -96 -67 -29 -21 -57 -34 -70 -32 -19 3 -17 6
18 27 31 19 36 26 22 29 -10 2 -26 -3 -36 -12 -10 -9 -24 -16 -32 -16 -28 0
91 67 178 100 58 22 63 23 63 11z m143 3 c8 -8 -105 -90 -152 -110 -19 -8 -31
-19 -28 -26 3 -9 -9 -14 -39 -15 -24 -1 -44 2 -44 5 0 4 33 25 72 47 40 22 84
50 99 62 38 32 80 49 92 37z m4841 -50 c-52 -44 -57 -33 -8 17 23 24 40 35 43
27 2 -6 -14 -26 -35 -44z m441 46 c3 -5 -1 -10 -9 -10 -9 0 -16 5 -16 10 0 6
4 10 9 10 6 0 13 -4 16 -10z m-1352 -7 c9 -8 -59 -33 -90 -33 -12 0 -25 -4
-28 -10 -7 -11 -106 -42 -113 -35 -7 7 100 55 124 55 12 0 35 7 50 15 32 16
47 19 57 8z m-4063 -28 c-33 -19 -49 -19 -24 0 10 8 26 14 34 14 9 0 4 -6 -10
-14z m4035 -30 c-16 -7 -34 -10 -40 -7 -5 4 4 10 20 13 47 10 53 9 20 -6z
m-97 -25 c-4 -13 -168 -82 -168 -71 0 9 132 72 168 80 2 1 2 -4 0 -9z m1359
-26 c3 -9 0 -33 -7 -52 -11 -31 -11 -38 2 -46 20 -12 7 -82 -27 -152 -14 -28
-25 -55 -25 -61 0 -26 -105 -148 -119 -138 -19 11 -12 22 38 60 54 41 66 69
76 175 4 36 13 75 21 87 9 14 12 33 8 48 -13 54 16 123 33 79z m-2567 -45 c-7
-16 -16 -29 -21 -29 -5 0 -2 16 6 36 8 20 15 39 16 43 0 3 3 0 6 -7 3 -7 0
-26 -7 -43z m2694 -32 c-4 -39 -17 -93 -29 -121 -12 -28 -26 -71 -30 -96 -4
-25 -14 -58 -22 -75 -27 -53 -144 -189 -181 -212 -35 -20 -217 -63 -268 -63
-36 0 -29 14 14 29 20 8 62 31 92 51 30 20 72 45 92 55 42 19 100 74 159 148
47 59 77 151 85 261 4 44 10 86 15 92 4 5 24 8 44 6 l36 -4 -7 -71z m-5694 69
c0 -3 -4 -8 -10 -11 -5 -3 -10 -1 -10 4 0 6 5 11 10 11 6 0 10 -2 10 -4z
m5731 -62 l-9 -39 -1 41 c-1 22 2 44 6 48 12 12 14 -8 4 -50z m-1774 0 c2 -7
-9 -17 -24 -22 -15 -6 -47 -20 -70 -31 -57 -26 -54 -12 5 33 46 35 82 43 89
20z m-4126 -94 c-3 -18 -12 -35 -19 -38 -15 -5 -16 34 -1 44 7 4 9 21 6 43 -6
35 -6 35 8 11 9 -17 11 -38 6 -60z m427 53 c-2 -10 -43 -45 -92 -78 -49 -33
-119 -88 -154 -123 -36 -34 -66 -61 -68 -59 -2 2 14 31 36 64 30 47 46 62 70
66 19 4 55 29 91 64 79 75 124 100 117 66z m5127 -43 c-3 -5 -11 -10 -16 -10
-6 0 -7 5 -4 10 3 6 11 10 16 10 6 0 7 -4 4 -10z m-5412 -20 c-10 -11 -21 -20
-25 -20 -5 0 -3 9 4 20 7 11 18 20 25 20 9 0 7 -6 -4 -20z m37 -34 c0 -14 -22
-40 -126 -147 -35 -36 -76 -82 -92 -102 -76 -98 -126 -157 -134 -157 -14 0 -9
14 17 42 14 15 25 31 25 35 0 21 283 340 303 342 4 1 7 -5 7 -13z m-100 -25
c0 -5 -7 -11 -15 -15 -15 -5 -20 5 -8 17 9 10 23 9 23 -2z m5440 -111 c0 -5
-4 -10 -10 -10 -5 0 -10 5 -10 10 0 6 5 10 10 10 6 0 10 -4 10 -10z m-5450
-115 c0 -15 -33 -54 -41 -49 -5 3 -1 16 8 29 17 23 33 32 33 20z m3000 -10 c0
-9 -6 -12 -15 -9 -8 4 -15 10 -15 15 0 5 7 9 15 9 8 0 15 -7 15 -15z m423 -52
c-14 -32 -33 -80 -42 -108 -22 -68 -88 -166 -133 -200 -21 -16 -53 -56 -73
-89 -20 -34 -49 -76 -66 -94 -28 -30 -79 -151 -79 -187 0 -9 -4 -14 -9 -10 -5
3 -12 1 -15 -4 -4 -5 -2 -12 4 -16 24 -15 -26 -119 -63 -131 -12 -3 -29 -12
-37 -19 -8 -7 -32 -16 -52 -20 -21 -4 -38 -11 -38 -16 0 -5 -11 -9 -25 -9 -32
0 -32 8 4 39 46 41 48 74 5 117 -41 43 -40 59 5 126 35 52 74 138 107 238 14
41 34 94 45 118 11 24 22 63 26 88 3 25 17 61 29 80 13 19 24 41 24 49 0 17
13 21 128 35 62 8 114 21 155 40 34 16 76 29 94 30 l32 0 -26 -57z m1937 -27
c0 -5 -60 -36 -69 -36 -3 0 8 9 24 20 29 19 45 25 45 16z m-5556 -80 c-5 -14
-34 -31 -34 -20 0 8 24 33 32 34 4 0 5 -6 2 -14z m-54 0 c0 -3 -4 -8 -10 -11
-5 -3 -10 -1 -10 4 0 6 5 11 10 11 6 0 10 -2 10 -4z m100 -16 c0 -5 -3 -10 -7
-10 -18 0 -133 -218 -133 -251 0 -45 -22 -129 -33 -122 -5 3 -13 -1 -18 -8
-16 -27 -20 0 -4 36 17 41 11 62 -8 30 -7 -11 -22 -43 -33 -71 -30 -71 -122
-207 -211 -311 -82 -97 -388 -403 -402 -403 -13 0 -23 -32 -13 -42 14 -14 391
374 510 525 57 72 67 59 16 -20 -79 -123 -100 -151 -183 -239 -47 -49 -117
-124 -156 -165 -38 -41 -108 -108 -154 -149 -46 -41 -101 -92 -123 -113 -21
-20 -47 -37 -58 -37 -10 0 -33 -12 -50 -27 -31 -25 -32 -26 -66 -10 -19 10
-47 17 -63 17 -15 0 -31 3 -35 7 -7 7 62 73 76 73 5 0 8 8 8 19 0 10 11 30 25
45 14 15 25 31 25 37 0 5 34 43 75 84 41 42 75 82 75 90 0 22 -29 18 -38 -5
-4 -11 -45 -59 -92 -108 -90 -93 -120 -128 -120 -140 -1 -11 -80 -96 -80 -86
0 5 9 24 21 43 11 19 27 66 36 105 9 45 23 80 37 96 13 14 26 37 30 51 3 15
20 40 38 55 18 16 43 43 56 59 21 28 129 145 305 328 125 130 94 130 -59 0
-27 -23 -85 -72 -129 -108 -96 -79 -192 -181 -237 -252 -34 -52 -56 -67 -79
-53 -9 6 -10 12 -2 22 186 239 219 273 345 352 113 71 198 134 198 147 0 13
-7 8 -95 -56 -38 -29 -95 -66 -125 -83 -81 -45 -151 -112 -246 -231 -47 -58
-91 -114 -99 -123 -9 -12 -29 -18 -53 -18 -21 0 -54 -8 -74 -19 -44 -22 -52
-18 -33 19 20 39 165 210 206 242 146 116 248 183 354 234 44 21 102 53 128
71 49 34 90 59 160 95 20 11 37 24 37 28 0 5 25 18 56 29 57 22 183 123 252
203 24 27 42 38 61 38 17 0 39 12 59 31 18 17 32 27 32 23 0 -5 -21 -50 -47
-101 -27 -50 -45 -95 -40 -99 9 -9 28 16 58 76 25 51 100 159 112 159 4 1 7
-3 7 -9z m-7 -416 c2 -289 0 -322 -15 -337 -11 -11 -19 -42 -24 -87 -5 -57
-15 -84 -50 -147 -25 -42 -43 -82 -41 -87 4 -13 47 36 63 72 10 22 13 23 13 7
1 -17 -35 -86 -71 -137 -20 -27 -1 -33 22 -7 79 92 136 316 134 532 0 59 3
107 7 107 8 0 19 -52 19 -89 0 -15 4 -31 10 -37 6 -6 5 -36 -1 -82 -12 -84 -7
-112 11 -64 7 17 17 32 22 32 14 0 5 -42 -24 -120 -37 -100 -62 -204 -54 -233
3 -15 14 -27 27 -29 15 -2 26 -17 38 -53 10 -27 30 -72 45 -98 26 -47 27 -49
9 -63 -21 -16 -52 -18 -73 -4 -10 7 -11 10 -2 10 8 0 12 15 10 45 -1 46 -18
65 -18 21 0 -13 -7 -30 -16 -37 -15 -12 -16 -9 -9 38 8 61 -2 124 -16 102 -5
-8 -8 -34 -7 -60 2 -58 -6 -73 -34 -58 -12 6 -38 9 -58 6 -21 -3 -42 -2 -47 2
-18 11 -43 69 -43 98 0 39 -24 70 -60 78 -35 8 -141 -12 -155 -29 -5 -6 -24
-18 -42 -25 -17 -7 -34 -19 -37 -27 -3 -8 -12 -14 -20 -14 -8 0 -28 -11 -44
-25 -31 -26 -133 -92 -193 -124 -31 -17 -79 -19 -79 -4 0 17 37 68 79 109 28
27 51 53 51 58 0 5 30 42 68 81 37 40 87 96 112 126 25 29 69 79 98 110 54 58
63 72 37 63 -11 -5 -8 6 9 36 13 24 22 49 19 56 -2 7 11 37 29 66 75 116 88
138 88 145 1 14 40 58 40 46 0 -27 -44 -140 -72 -186 -17 -26 -28 -51 -24 -54
7 -7 56 36 56 49 0 5 12 25 26 43 30 40 64 144 64 200 0 56 28 185 47 215 41
67 59 90 66 87 4 -1 9 -147 10 -323z m927 172 c0 -11 -19 -15 -25 -6 -3 5 1
10 9 10 9 0 16 -2 16 -4z m3985 -80 c37 -13 103 -49 148 -78 45 -30 129 -86
186 -124 57 -38 112 -72 123 -76 10 -4 18 -12 18 -18 0 -5 7 -10 15 -10 8 0
15 -4 15 -9 0 -22 184 -146 200 -136 5 3 26 -4 47 -15 21 -11 47 -20 59 -20
12 0 35 -17 55 -40 19 -22 40 -38 46 -35 18 6 36 -32 30 -64 -19 -103 -40
-198 -48 -213 -15 -28 -34 -21 -48 17 -14 41 -60 65 -122 65 -30 0 -39 4 -39
17 0 33 -49 82 -98 97 -92 30 -213 74 -225 84 -16 12 -201 87 -252 102 -42 12
-63 22 -130 57 -75 40 -131 63 -152 63 -11 0 -31 9 -44 19 l-24 19 27 29 c31
33 88 197 88 256 0 34 2 37 30 37 16 0 59 -11 95 -24z m-5955 -40 c0 -3 -4 -8
-10 -11 -5 -3 -10 -1 -10 4 0 6 5 11 10 11 6 0 10 -2 10 -4z m1196 -243 c-8
-8 -12 -3 -21 27 l-7 25 17 -23 c9 -13 14 -26 11 -29z m3094 -8 c0 -14 -4 -25
-10 -25 -5 0 -10 11 -10 25 0 14 5 25 10 25 6 0 10 -11 10 -25z m-345 -15 c3
-6 -1 -13 -10 -16 -19 -8 -30 0 -20 15 8 14 22 14 30 1z m-1598 -67 c61 -39
96 -70 135 -123 23 -30 47 -58 53 -62 7 -4 39 -34 71 -66 49 -48 73 -63 134
-85 80 -27 208 -78 277 -108 35 -16 43 -25 49 -54 8 -43 -1 -108 -16 -113 -5
-2 -10 -9 -10 -16 0 -16 -49 -62 -75 -70 -11 -3 -30 -21 -42 -39 -13 -17 -30
-42 -39 -54 -11 -16 -13 -26 -5 -41 9 -17 5 -21 -30 -31 -23 -7 -44 -10 -47
-6 -11 11 -13 55 -2 75 14 27 -4 54 -46 69 -19 7 -34 18 -34 26 0 10 -9 12
-35 8 -28 -4 -35 -2 -35 11 0 18 -15 22 -25 6 -8 -13 -55 -13 -55 -1 0 6 14
18 30 28 32 19 42 40 13 28 -27 -11 -38 -11 -42 0 -3 6 21 25 53 44 36 22 53
38 47 44 -6 6 -26 -2 -54 -22 -27 -18 -48 -27 -52 -21 -11 19 6 50 37 66 39
20 29 29 -16 13 -30 -11 -39 -10 -69 6 -54 28 -62 50 -37 92 11 20 19 38 16
40 -10 11 -35 -7 -48 -34 -9 -20 -21 -29 -43 -30 -27 -3 -28 -2 -12 10 51 34
54 39 20 33 -35 -6 -46 10 -15 21 39 15 82 46 76 55 -3 5 -14 2 -25 -8 -17
-16 -19 -15 -31 11 -10 23 -10 29 0 33 6 2 12 8 12 13 0 20 -25 7 -59 -30 -28
-30 -46 -40 -81 -45 -46 -6 -39 1 23 24 16 5 25 14 22 20 -4 7 -13 6 -26 -1
-42 -22 -115 -39 -147 -33 -39 8 -29 26 15 30 16 1 47 9 70 17 23 9 50 13 60
11 11 -3 28 5 42 20 24 26 24 26 3 26 -30 0 -37 19 -13 36 12 8 21 23 21 32 0
11 -15 1 -44 -31 -29 -32 -62 -55 -95 -68 -78 -29 -92 -23 -31 14 34 21 55 40
55 51 0 10 16 31 34 47 19 16 31 32 27 36 -4 5 -15 -1 -25 -13 -9 -11 -29 -29
-44 -38 -23 -16 -27 -16 -27 -3 0 15 68 87 83 87 12 0 8 28 -4 32 -9 3 -9 10
0 26 14 27 22 27 58 5z m1473 7 c0 -5 -2 -10 -4 -10 -3 0 -8 5 -11 10 -3 6 -1
10 4 10 6 0 11 -4 11 -10z m-3690 -75 c-7 -9 -26 -25 -42 -36 -43 -31 -35 0 9
34 38 28 56 29 33 2z m3690 -22 c-1 -14 -78 -94 -83 -86 -10 15 44 93 64 93
10 0 19 -3 19 -7z m3040 -19 c0 -17 -22 -14 -28 4 -2 7 3 12 12 12 9 0 16 -7
16 -16z m-3003 -11 c-2 -10 -8 -26 -12 -35 -5 -13 0 -19 19 -24 33 -8 33 -18
0 -41 -14 -10 -35 -26 -46 -36 -30 -28 -34 -12 -9 33 37 65 6 45 -40 -26 -41
-62 -82 -95 -100 -77 -5 5 15 33 42 63 28 30 65 79 82 108 20 33 38 52 51 52
13 0 17 -5 13 -17z m-317 -9 c0 -9 11 -14 30 -14 35 0 38 -15 8 -47 -23 -24
-62 -31 -74 -12 -10 17 13 34 29 21 20 -17 29 -3 10 16 -12 12 -19 13 -34 4
-27 -17 -46 -15 -53 6 -3 9 -8 22 -11 27 -3 6 15 11 45 12 37 1 50 -3 50 -13z
m460 7 c0 -14 -23 -19 -47 -10 -17 6 -26 3 -41 -16 -24 -30 -50 -19 -33 14 10
17 21 21 66 21 30 0 55 -4 55 -9z m347 -43 c-3 -8 -6 -5 -6 6 -1 11 2 17 5 13
3 -3 4 -12 1 -19z m-3200 -43 c-9 -20 -22 -67 -29 -106 -8 -51 -14 -66 -20
-55 -6 11 -2 47 13 104 28 113 29 116 42 103 8 -8 6 -21 -6 -46z m-1137 39 c0
-3 -7 -12 -15 -21 -20 -19 -32 -10 -14 11 14 15 29 21 29 10z m3442 -12 c6 -6
8 -15 4 -19 -8 -8 -38 8 -43 24 -5 14 23 11 39 -5z m-1252 5 c0 -7 -89 -67
-99 -67 -19 0 -12 20 7 20 9 1 31 12 47 25 27 22 45 31 45 22z m1196 -9 c44
-38 45 -39 30 -54 -8 -8 -21 -14 -28 -14 -9 1 -7 5 5 14 15 11 15 15 3 25 -10
8 -16 9 -21 1 -3 -5 -11 -10 -17 -10 -7 0 -6 5 2 15 6 8 9 19 5 25 -9 14 3 13
21 -2z m274 7 c0 -10 -81 -58 -87 -51 -11 11 40 56 64 56 13 0 23 -2 23 -5z
m55 -25 c0 -18 -62 -60 -86 -60 -27 0 -23 15 8 29 15 7 33 21 41 32 15 22 37
21 37 -1z m-3242 -102 c-78 -95 -163 -182 -213 -218 -19 -14 -50 -40 -68 -57
-18 -18 -39 -33 -47 -33 -8 0 48 59 125 131 76 72 140 135 142 139 7 17 123
137 126 129 2 -4 -27 -45 -65 -91z m6587 48 c0 -20 -37 -62 -46 -54 -9 10 27
79 38 72 4 -3 8 -11 8 -18z m-4725 -136 c-9 -10 -24 -16 -36 -13 -33 9 -31 21
8 42 32 16 39 17 41 4 2 -8 -4 -23 -13 -33z m4675 40 c0 -5 -4 -10 -10 -10 -5
0 -10 5 -10 10 0 6 5 10 10 10 6 0 10 -4 10 -10z m-4755 -10 c-3 -5 -10 -10
-16 -10 -5 0 -9 5 -9 10 0 6 7 10 16 10 8 0 12 -4 9 -10z m-2527 -42 c7 -7 12
-19 12 -28 0 -14 -10 -16 -62 -12 -35 2 -65 6 -68 9 -3 2 6 13 20 23 28 22 80
26 98 8z m7153 -49 c-6 -16 -10 -18 -10 -7 -1 22 12 55 16 42 2 -6 -1 -22 -6
-35z m-6181 -79 c0 -6 -19 -32 -42 -58 -24 -26 -44 -49 -45 -51 -2 -2 -6 -2
-9 1 -3 4 2 20 11 37 19 37 4 42 -19 6 -16 -24 -36 -34 -36 -16 0 4 11 20 25
35 22 23 28 26 41 15 13 -11 19 -9 37 14 23 28 37 34 37 17z m45 -17 c-27 -43
-57 -73 -66 -67 -12 7 8 42 40 70 35 32 47 30 26 -3z m59 -10 c-3 -21 -16 -48
-27 -61 -18 -20 -23 -21 -36 -8 -12 13 -10 20 20 60 19 25 38 46 42 46 4 0 5
-17 1 -37z m6056 -35 c0 -16 -3 -19 -11 -11 -6 6 -8 16 -5 22 11 17 16 13 16
-11z m-110 -13 c0 -8 -7 -15 -15 -15 -16 0 -20 12 -8 23 11 12 23 8 23 -8z
m-5915 -25 c7 -11 -17 -40 -33 -40 -6 0 -12 6 -15 14 -10 26 34 49 48 26z
m-287 -7 c-10 -2 -26 -2 -35 0 -10 3 -2 5 17 5 19 0 27 -2 18 -5z m335 -9 c8
-8 -31 -64 -44 -64 -15 0 -10 32 8 52 17 19 26 22 36 12z m5827 -32 c0 -33
-35 -112 -50 -112 -15 0 -13 8 11 42 12 17 22 46 23 68 1 43 16 44 16 2z
m-5696 19 c3 -5 -1 -14 -9 -21 -8 -7 -15 -20 -15 -29 0 -16 -75 -59 -85 -49
-6 6 85 108 95 108 5 0 11 -4 14 -9z m5750 -7 c11 -29 -27 -125 -58 -146 -17
-11 -20 0 -8 25 22 45 42 100 42 118 0 23 16 25 24 3z m-5824 -3 c0 -12 -80
-101 -91 -101 -19 0 -7 29 29 68 35 39 62 53 62 33z m-1070 -50 c0 -14 -21
-18 -62 -13 -55 6 -46 22 12 22 28 0 50 -4 50 -9z m6605 -1 c3 -5 1 -10 -4
-10 -6 0 -11 5 -11 10 0 6 2 10 4 10 3 0 8 -4 11 -10z m119 1 c3 -5 -5 -11
-19 -13 -20 -4 -23 -3 -14 8 13 16 25 18 33 5z m-5879 -19 c-3 -3 -11 0 -18 7
-9 10 -8 11 6 5 10 -3 15 -9 12 -12z m5935 6 c-1 -18 -25 -48 -39 -48 -14 0
-14 15 -1 41 12 21 40 26 40 7z m-6127 -5 c-19 -7 -16 -21 7 -28 11 -3 20 -10
20 -14 0 -3 -9 -7 -20 -7 -11 0 -20 6 -20 13 0 7 -9 13 -20 13 -11 0 -20 5
-20 11 0 6 7 9 15 6 8 -4 17 -2 20 3 4 6 12 10 18 9 9 0 9 -2 0 -6z m107 -13
c0 -11 -4 -20 -10 -20 -5 0 -10 9 -10 20 0 11 5 20 10 20 6 0 10 -9 10 -20z
m50 16 c0 -3 -4 -8 -10 -11 -5 -3 -10 -1 -10 4 0 6 5 11 10 11 6 0 10 -2 10
-4z m-100 -16 c0 -5 -7 -10 -15 -10 -8 0 -15 5 -15 10 0 6 7 10 15 10 8 0 15
-4 15 -10z m5960 -17 c0 -5 -9 -32 -20 -61 -11 -29 -20 -61 -20 -73 0 -11 -4
-17 -10 -14 -17 10 -11 54 12 106 20 43 38 63 38 42z m-5803 -9 c-3 -3 -12 -4
-19 -1 -8 3 -5 6 6 6 11 1 17 -2 13 -5z m-371 -21 c17 -23 17 -34 0 -27 -8 3
-16 14 -19 25 -6 24 2 24 19 2z m123 -16 c0 -21 -1 -21 -9 -2 -12 28 -12 37 0
30 6 -3 10 -16 9 -28z m5951 23 c0 -5 -7 -10 -16 -10 -8 0 -12 5 -9 10 3 6 10
10 16 10 5 0 9 -4 9 -10z m129 -54 c-7 -33 -16 -55 -23 -53 -14 5 -9 53 10 90
22 41 26 29 13 -37z m-5859 34 c8 5 24 9 35 9 19 -1 19 -2 1 -6 -26 -7 -49
-30 -41 -42 3 -6 12 -8 20 -4 8 3 15 0 15 -7 0 -8 9 -10 26 -6 18 5 24 3 19
-5 -4 -6 -1 -16 6 -21 10 -7 8 -8 -9 -5 -17 4 -22 2 -18 -8 3 -8 1 -17 -4 -20
-13 -8 -40 6 -40 21 0 19 -16 18 -24 -1 -9 -23 -31 -8 -47 33 -7 20 -15 40
-17 44 -2 4 9 13 25 22 24 12 29 12 33 1 3 -10 10 -11 20 -5z m-176 -6 c3 -8
2 -12 -4 -9 -6 3 -10 10 -10 16 0 14 7 11 14 -7z m316 -14 c0 -5 -5 -10 -11
-10 -5 0 -7 5 -4 10 3 6 8 10 11 10 2 0 4 -4 4 -10z m-550 -10 c0 -5 -7 -10
-15 -10 -8 0 -15 5 -15 10 0 6 7 10 15 10 8 0 15 -4 15 -10z m510 0 c0 -5 -4
-10 -10 -10 -5 0 -10 5 -10 10 0 6 5 10 10 10 6 0 10 -4 10 -10z m5855 -20 c0
-7 -6 -15 -12 -17 -8 -3 -13 4 -13 17 0 13 5 20 13 18 6 -3 12 -11 12 -18z
m-6438 -42 c-1 -24 -5 -42 -10 -41 -4 2 -18 5 -32 9 -14 3 -25 8 -25 11 0 17
37 63 51 63 14 0 17 -9 16 -42z m163 -2 c-13 -14 -29 2 -23 24 5 19 6 19 19 3
7 -10 9 -22 4 -27z m-100 16 c0 -4 -9 -13 -20 -20 -16 -10 -20 -10 -20 1 0 8
3 17 7 20 9 9 33 9 33 -1z m362 -27 c11 -14 24 -22 30 -19 6 4 9 1 6 -6 -2 -8
-14 -14 -26 -15 -16 -1 -21 4 -19 19 1 12 -7 25 -23 33 -20 10 -21 13 -6 13
10 0 27 -11 38 -25z m-286 -29 c22 6 25 4 22 -12 -2 -13 -13 -20 -36 -22 -27
-3 -32 0 -32 17 0 27 -17 27 -25 1 -5 -14 -15 -20 -37 -20 -30 0 -31 0 -13 20
10 11 22 17 26 14 5 -3 9 -1 9 3 0 5 10 13 23 18 18 8 23 7 29 -8 6 -13 14
-16 34 -11z m174 14 c0 -5 -4 -10 -10 -10 -5 0 -10 5 -10 10 0 6 5 10 10 10 6
0 10 -4 10 -10z m1992 -15 c0 -5 -5 -11 -11 -13 -6 -2 -11 4 -11 13 0 9 5 15
11 13 6 -2 11 -8 11 -13z m-2392 -10 c0 -9 10 -15 26 -15 14 0 23 -4 19 -10
-3 -6 4 -14 17 -19 21 -9 21 -10 -9 -10 -17 -1 -35 -6 -38 -11 -4 -6 -16 -8
-28 -4 -31 9 -31 11 -13 30 10 9 14 24 11 35 -4 11 -2 19 4 19 6 0 11 -7 11
-15z m-70 -15 c-24 -15 -37 -11 -16 5 11 8 22 12 25 9 3 -3 -1 -9 -9 -14z
m2441 -28 c-15 -28 -38 -45 -45 -33 -10 15 16 51 37 51 14 0 16 -4 8 -18z
m-2431 -2 c0 -5 -5 -10 -11 -10 -5 0 -7 5 -4 10 3 6 8 10 11 10 2 0 4 -4 4
-10z m2340 -21 c0 -5 -4 -9 -10 -9 -5 0 -10 7 -10 16 0 8 5 12 10 9 6 -3 10
-10 10 -16z m-2110 -4 c0 -8 -6 -15 -12 -15 -7 0 -24 -3 -36 -7 -22 -5 -23 -4
-11 16 16 24 59 29 59 6z m90 5 c0 -5 -2 -10 -4 -10 -2 0 -11 -3 -19 -6 -8 -3
-17 2 -20 10 -5 12 0 16 18 16 14 0 25 -4 25 -10z m2160 1 c0 -13 -29 -35 -37
-28 -7 8 15 37 28 37 5 0 9 -4 9 -9z m60 -1 c0 -5 -4 -10 -10 -10 -5 0 -10 5
-10 10 0 6 5 10 10 10 6 0 10 -4 10 -10z m-360 -20 c0 -5 -5 -10 -11 -10 -5 0
-7 5 -4 10 3 6 8 10 11 10 2 0 4 -4 4 -10z m-2150 -11 c0 -11 -47 -12 -53 -1
-3 4 8 7 24 8 16 1 29 -3 29 -7z m80 7 c0 -2 -7 -6 -15 -10 -8 -3 -15 -1 -15
4 0 6 7 10 15 10 8 0 15 -2 15 -4z m237 -53 c-8 -7 -37 9 -31 19 3 5 12 4 20
-3 8 -6 13 -14 11 -16z m2020 0 c-3 -3 -11 -2 -17 2 -9 6 -9 10 1 16 14 8 27
-7 16 -18z m64 4 c-13 -13 -26 -3 -16 12 3 6 11 8 17 5 6 -4 6 -10 -1 -17z
m69 13 c0 -5 -4 -10 -10 -10 -5 0 -10 5 -10 10 0 6 5 10 10 10 6 0 10 -4 10
-10z m-2340 -10 c0 -5 -9 -10 -21 -10 -11 0 -17 5 -14 10 3 6 13 10 21 10 8 0
14 -4 14 -10z m75 0 c3 -5 2 -10 -4 -10 -5 0 -13 5 -16 10 -3 6 -2 10 4 10 5
0 13 -4 16 -10z m-296 -57 c0 -27 0 -56 2 -65 3 -20 19 -25 19 -5 0 8 3 7 10
-3 5 -8 5 -19 1 -23 -12 -12 -51 15 -51 35 0 11 -8 18 -20 18 -13 0 -18 -5
-14 -15 4 -8 2 -15 -4 -15 -14 0 -22 38 -8 45 8 3 8 7 -1 11 -23 10 -14 25 12
18 26 -6 35 9 13 22 -9 6 -5 10 12 15 14 4 26 7 27 8 2 1 2 -20 2 -46z m156
17 c3 -5 1 -10 -4 -10 -6 0 -11 5 -11 10 0 6 2 10 4 10 3 0 8 -4 11 -10z m83
-21 c-16 -10 -33 5 -23 21 5 8 11 8 21 -1 12 -10 12 -14 2 -20z m-38 7 c0 -2
-7 -7 -16 -10 -8 -3 -12 -2 -9 4 6 10 25 14 25 6z m140 -6 c0 -5 -2 -10 -4
-10 -3 0 -8 5 -11 10 -3 6 -1 10 4 10 6 0 11 -4 11 -10z m-235 -20 c3 -6 -1
-7 -9 -4 -18 7 -21 14 -7 14 6 0 13 -4 16 -10z m145 -16 c0 -8 -5 -12 -10 -9
-6 4 -8 11 -5 16 9 14 15 11 15 -7z m45 -34 c3 -5 -3 -10 -15 -10 -12 0 -18 5
-15 10 3 6 10 10 15 10 5 0 12 -4 15 -10z m-318 -26 c-3 -3 -12 -4 -19 -1 -8
3 -5 6 6 6 11 1 17 -2 13 -5z m143 -4 c0 -5 -4 -10 -10 -10 -5 0 -10 5 -10 10
0 6 5 10 10 10 6 0 10 -4 10 -10z m360 -5 c0 -7 -78 -55 -90 -55 -16 0 9 35
34 47 22 11 56 16 56 8z"/>
<g>
<path d="M3520 6282 c0 -22 33 -102 42 -102 10 0 6 28 -11 74 -10 25 -31 44
-31 28z"/>
</g>
<g>
<path d="M3315 6270 c-10 -16 6 -80 21 -80 8 0 15 -18 20 -45 7 -49 24 -62 24
-18 0 14 -5 55 -11 90 -9 50 -15 63 -29 63 -11 0 -22 -4 -25 -10z"/>
</g>
<g>
<path d="M3215 4570 c-8 -13 4 -32 16 -25 12 8 12 35 0 35 -6 0 -13 -4 -16
-10z"/>
</g>
<g>
<path d="M1664 4678 c8 -49 68 -120 86 -102 7 7 1 19 -19 37 -17 14 -35 44
-42 67 -16 54 -33 52 -25 -2z"/>
</g>
<g>
<path d="M1850 4480 c0 -5 7 -10 16 -10 8 0 12 5 9 10 -3 6 -10 10 -16 10 -5
0 -9 -4 -9 -10z"/>
</g>
<g>
<path d="M2667 4183 c-4 -3 -7 -19 -7 -35 0 -36 25 -38 34 -3 9 36 -7 58 -27
38z"/>
</g>
<g>
<path d="M2741 4172 c-6 -11 -11 -30 -11 -42 0 -34 34 -21 38 14 5 37 -13 55
-27 28z"/>
</g>
<g>
<path d="M2814 4175 c-4 -8 -3 -23 1 -32 6 -17 7 -17 20 0 14 19 10 47 -6 47
-5 0 -12 -7 -15 -15z"/>
</g>
<g>
<path d="M2854 4123 c-15 -43 -60 -127 -111 -205 -18 -28 -33 -54 -33 -60 0
-20 32 -2 48 27 9 17 20 32 23 35 16 14 99 180 99 199 0 25 -18 28 -26 4z"/>
</g>
<g>
<path d="M2765 4089 c-4 -6 -22 -40 -41 -77 -19 -37 -61 -103 -94 -147 -64
-85 -70 -98 -43 -93 18 3 61 59 119 153 20 33 45 69 54 80 20 23 33 82 20 90
-5 3 -12 0 -15 -6z"/>
</g>
<g>
<path d="M2636 4030 c-38 -57 -68 -90 -82 -90 -6 0 -15 -15 -18 -32 -3 -18
-24 -52 -46 -76 -22 -24 -40 -49 -40 -56 0 -7 -9 -21 -21 -32 -19 -17 -32 -43
-59 -111 -14 -35 7 -38 25 -3 11 21 23 30 41 30 23 0 24 3 19 33 -5 27 1 42
37 93 89 126 103 144 116 144 6 0 12 6 12 14 0 7 14 30 30 51 29 36 40 75 21
75 -4 0 -20 -18 -35 -40z"/>
</g>
<g>
<path d="M2052 3464 c-24 -47 -30 -70 -23 -77 7 -7 11 -7 11 -1 0 6 16 36 35
68 38 64 42 76 22 76 -7 0 -27 -30 -45 -66z"/>
</g>
<g>
<path d="M6820 4160 c0 -5 5 -10 11 -10 5 0 7 5 4 10 -3 6 -8 10 -11 10 -2 0
-4 -4 -4 -10z"/>
</g>
<g>
<path d="M6610 3806 c0 -15 27 -29 34 -18 3 5 -4 13 -15 20 -15 10 -19 10 -19
-2z"/>
</g>
<g>
<path d="M6225 3070 c3 -5 8 -10 11 -10 2 0 4 5 4 10 0 6 -5 10 -11 10 -5 0
-7 -4 -4 -10z"/>
</g>
<g>
<path d="M5672 2928 c-15 -15 -16 -51 0 -46 6 2 16 12 22 21 14 22 -4 43 -22
25z"/>
</g>
<g>
<path d="M7370 2590 c-19 -10 -53 -34 -75 -54 -40 -36 -85 -53 -106 -40 -6 3
-15 1 -19 -5 -4 -7 -18 -14 -31 -16 -59 -10 -93 -22 -97 -34 -3 -10 0 -12 13
-7 10 3 56 13 104 20 47 8 106 19 131 24 25 6 98 13 163 17 120 8 144 15 107
35 -15 8 -30 8 -55 0 -19 -6 -38 -9 -42 -7 -5 3 -33 -1 -62 -9 -30 -7 -57 -12
-60 -9 -7 8 49 64 71 71 10 3 18 9 18 14 0 17 -27 17 -60 0z"/>
</g>
<g>
<path d="M6271 2524 c-24 -31 -28 -56 -7 -48 23 9 49 55 38 66 -6 6 -17 0 -31
-18z"/>
</g>
<g>
<path d="M6273 2452 c-17 -11 -26 -53 -25 -114 0 -64 6 -78 29 -78 14 0 15 11
10 76 -4 44 -3 83 3 94 11 20 1 33 -17 22z"/>
</g>
<g>
<path d="M6946 2264 c-7 -19 19 -35 48 -29 14 3 37 7 51 10 14 3 25 11 25 19
0 18 -117 18 -124 0z"/>
</g>
<g>
<path d="M2210 2794 c0 -3 16 -25 35 -48 26 -32 35 -53 35 -80 0 -26 4 -36 13
-34 15 6 23 78 8 78 -6 0 -11 6 -11 14 0 8 -16 28 -35 45 -36 31 -45 36 -45
25z"/>
</g>
<g>
<path d="M2170 2744 c0 -8 67 -74 75 -74 12 0 4 29 -16 54 -18 23 -59 37 -59
20z"/>
</g>
<g>
<path d="M2162 2618 c3 -7 15 -15 28 -16 21 -3 22 -2 11 12 -16 19 -44 21 -39
4z"/>
</g>
<g>
<path d="M1250 2214 c0 -30 35 -71 81 -94 42 -22 59 -25 59 -11 0 5 -12 12
-27 16 -35 8 -83 43 -83 59 0 7 -7 21 -15 32 -14 19 -14 19 -15 -2z"/>
</g>
<g>
<path d="M1330 2191 c0 -12 54 -51 69 -51 6 0 11 -4 11 -10 0 -5 9 -10 20 -10
35 0 22 29 -20 46 -22 9 -40 20 -40 25 0 5 -9 9 -20 9 -11 0 -20 -4 -20 -9z"/>
</g>
<g>
<path d="M1600 2011 c-8 -5 -32 -11 -52 -15 -52 -9 -58 -26 -10 -26 44 0 112
25 112 40 0 12 -29 13 -50 1z"/>
</g>
<g>
<path d="M1390 1940 c0 -12 40 -33 48 -25 4 4 -2 13 -12 21 -23 16 -36 18 -36
4z"/>
</g>
<g>
<path d="M3816 2863 c-36 -71 -148 -179 -223 -217 -74 -38 -119 -78 -108 -95
7 -12 66 -14 103 -5 33 9 27 27 -8 22 -33 -5 -51 9 -30 22 7 4 29 6 49 3 94
-11 273 137 296 244 11 55 -5 58 -35 6 -16 -26 -44 -64 -64 -82 -40 -38 -50
-31 -13 9 28 30 77 102 77 112 0 19 -31 5 -44 -19z"/>
</g>
<g>
<path d="M3372 2274 c-34 -19 -60 -39 -57 -45 7 -11 145 57 145 71 0 18 -23
11 -88 -26z"/>
</g>
<g>
<path d="M2525 2168 c17 -56 102 -117 150 -108 18 3 25 8 18 13 -6 4 -17 5
-25 2 -19 -6 -89 45 -113 83 -23 36 -39 42 -30 10z"/>
</g>
<g>
<path d="M2600 2039 c0 -5 15 -16 34 -24 19 -8 36 -20 38 -27 3 -8 21 -11 51
-9 32 2 47 -1 47 -10 0 -8 7 -5 20 6 32 29 26 45 -15 38 -27 -4 -39 -2 -49 12
-9 13 -15 15 -20 7 -10 -16 -35 -15 -70 3 -34 18 -36 18 -36 4z"/>
</g>
<g>
<path d="M2680 1950 c0 -12 41 -30 53 -23 5 3 -4 11 -18 19 -33 17 -35 17 -35
4z"/>
</g>
<g>
<path d="M2750 1940 c0 -5 5 -10 10 -10 6 0 10 5 10 10 0 6 -4 10 -10 10 -5 0
-10 -4 -10 -10z"/>
</g>
<g>
<path d="M2637 1868 c-37 -13 -25 -28 23 -28 40 0 54 9 42 25 -10 14 -32 15
-65 3z"/>
</g>
<g>
<path d="M2673 1813 c-45 -4 -60 -23 -19 -23 48 0 115 13 110 21 -3 5 -15 8
-27 7 -12 -1 -41 -3 -64 -5z"/>
</g>
<g>
<path d="M2767 1733 c-75 -5 -64 -23 14 -23 46 0 59 3 59 15 0 8 -3 14 -7 13
-5 -1 -34 -3 -66 -5z"/>
</g>
<g>
<path d="M2716 1683 c-10 -10 29 -32 50 -28 10 2 22 4 27 4 4 1 7 6 7 12 0 6
-8 8 -20 4 -10 -3 -28 -2 -38 4 -11 6 -22 7 -26 4z"/>
</g>
<g>
<path d="M2140 2039 c0 -16 -82 -149 -154 -249 -64 -88 -303 -334 -368 -378
-33 -21 -51 -52 -32 -52 10 0 216 185 280 252 177 185 341 438 284 438 -5 0
-10 -5 -10 -11z"/>
</g>
<g>
<path d="M2485 1050 c-3 -5 -1 -10 4 -10 6 0 11 5 11 10 0 6 -2 10 -4 10 -3 0
-8 -4 -11 -10z"/>
</g>
<g>
<path d="M4004 1085 c-10 -8 -14 -15 -7 -15 19 0 43 11 43 21 0 13 -14 11 -36
-6z"/>
</g>
<g>
<path d="M4080 1056 c0 -9 7 -16 16 -16 17 0 14 22 -4 28 -7 2 -12 -3 -12 -12z"/>
</g>
<g>
<path d="M2016 855 c-3 -8 3 -19 12 -25 13 -7 14 -11 4 -18 -10 -7 -10 -11 1
-21 11 -9 17 -8 28 5 11 14 11 18 -4 29 -9 7 -17 20 -17 29 0 20 -16 21 -24 1z"/>
</g>
<g>
<path d="M2080 800 c0 -5 5 -10 10 -10 6 0 10 5 10 10 0 6 -4 10 -10 10 -5 0
-10 -4 -10 -10z"/>
</g>
<g>
<path d="M1542 768 c6 -18 28 -21 28 -4 0 9 -7 16 -16 16 -9 0 -14 -5 -12 -12z"/>
</g>
<g>
<path d="M1340 510 c0 -5 5 -10 10 -10 6 0 10 5 10 10 0 6 -4 10 -10 10 -5 0
-10 -4 -10 -10z"/>
</g>
</g>
<g>
<path d="M2895 6682 c-30 -16 -105 -127 -105 -157 0 -21 -40 -19 -41 3 -3 48
-5 56 -14 59 -17 5 -38 -86 -24 -103 6 -8 8 -14 4 -14 -4 0 -2 -7 5 -15 16
-19 -1 -45 -81 -129 -32 -33 -59 -67 -60 -76 -1 -8 -4 -4 -8 10 -14 52 -70 19
-57 -33 5 -21 12 -27 34 -27 16 0 32 -8 40 -20 11 -18 9 -24 -18 -48 -16 -15
-53 -40 -82 -55 -72 -38 -86 -49 -98 -82 -9 -23 -7 -34 14 -69 13 -22 33 -50
45 -60 13 -12 21 -31 21 -53 0 -42 13 -42 39 2 27 46 59 47 84 3 25 -44 43
-24 20 23 -9 19 -17 45 -17 58 -1 13 -9 28 -18 32 -10 5 -26 14 -35 19 -39 22
-46 23 -59 5 -7 -10 -15 -23 -17 -29 -3 -7 -12 -4 -26 8 -34 31 -24 91 15 85
29 -4 62 10 69 30 6 20 78 81 94 81 6 0 13 12 17 28 11 53 12 54 52 50 20 -3
45 -8 55 -12 25 -12 22 21 -4 35 -21 11 -95 8 -138 -6 -23 -8 -24 -7 -10 9 18
23 50 55 80 82 13 12 40 41 60 65 43 52 109 79 192 79 41 0 56 4 61 16 3 8 10
13 15 10 5 -3 12 1 15 10 5 13 15 15 41 11 28 -5 38 -2 49 15 9 12 13 25 10
30 -9 14 25 46 57 53 16 4 29 11 29 16 0 5 11 9 24 9 32 0 51 23 32 39 -16 14
-83 2 -119 -21 -12 -8 -44 -17 -71 -20 -32 -4 -63 -16 -92 -37 -55 -38 -57
-26 -4 23 40 37 53 63 25 52 -52 -21 -51 -21 -36 -2 13 15 13 19 0 27 -18 11
-27 10 -64 -9z m5 -64 c0 -16 -3 -19 -11 -11 -6 6 -8 16 -5 22 11 17 16 13 16
-11z m88 -85 c-23 -23 -47 -37 -67 -38 -17 -2 -31 1 -31 6 0 11 42 39 60 39 8
0 26 9 40 20 39 30 38 13 -2 -27z"/>
</g>
<g>
<path d="M5820 6620 c-7 -16 -16 -30 -21 -30 -5 0 -9 -10 -9 -21 0 -19 4 -21
40 -16 22 3 43 1 46 -4 3 -5 14 -9 24 -9 28 0 15 26 -20 40 -25 10 -28 15 -19
31 5 11 7 24 4 29 -12 19 -33 10 -45 -20z"/>
</g>
<g>
<path d="M6053 6527 c-13 -5 -23 -16 -23 -23 0 -9 8 -12 23 -10 12 3 25 5 30
5 4 1 7 7 7 15 0 21 -12 25 -37 13z"/>
</g>
<g>
<path d="M5642 6484 c2 -9 10 -20 18 -24 29 -14 84 -30 88 -25 9 8 -20 35 -37
35 -10 0 -26 7 -37 15 -25 19 -36 19 -32 -1z"/>
</g>
<g>
<path d="M3068 6483 c7 -3 16 -2 19 1 4 3 -2 6 -13 5 -11 0 -14 -3 -6 -6z"/>
</g>
<g>
<path d="M2820 6419 c0 -5 5 -7 10 -4 6 3 10 8 10 11 0 2 -4 4 -10 4 -5 0 -10
-5 -10 -11z"/>
</g>
<g>
<path d="M5358 6303 c-25 -6 -22 -18 9 -32 29 -13 47 -3 37 22 -6 17 -14 19
-46 10z"/>
</g>
<g>
<path d="M5420 6270 c0 -5 5 -10 10 -10 6 0 10 5 10 10 0 6 -4 10 -10 10 -5 0
-10 -4 -10 -10z"/>
</g>
<g>
<path d="M5313 6219 c-14 -7 -22 -23 -25 -46 -5 -42 1 -47 38 -28 16 8 47 17
69 20 35 6 44 3 68 -20 28 -29 62 -28 51 0 -19 49 -152 98 -201 74z"/>
</g>
<g>
<path d="M2697 6142 c-10 -10 -17 -23 -17 -28 0 -5 -10 -14 -22 -19 -14 -6
-24 -20 -26 -35 -2 -23 -2 -24 12 -7 7 10 18 17 22 16 5 -2 21 4 37 11 15 7
30 11 33 8 9 -10 -29 -48 -48 -48 -25 0 -31 -18 -9 -29 18 -10 116 1 129 14 2
2 1 20 -2 39 -7 37 -29 56 -66 56 -17 0 -20 4 -15 20 8 25 -7 26 -28 2z"/>
</g>
<g>
<path d="M3033 5688 c-21 -10 -38 -36 -29 -45 6 -6 66 39 66 49 0 10 -10 9
-37 -4z"/>
</g>
<g>
<path d="M3727 5383 c-14 -13 -6 -33 13 -33 13 0 20 7 20 20 0 19 -20 27 -33
13z"/>
</g>
<g>
<path d="M3419 5344 c-13 -21 -28 -46 -34 -55 -5 -9 -23 -38 -39 -63 -15 -26
-29 -54 -30 -63 -2 -28 21 -25 28 3 4 15 20 46 35 68 39 57 73 125 68 139 -2
6 -14 -7 -28 -29z"/>
</g>
<g>
<path d="M3842 5328 c-12 -12 -17 -38 -6 -38 12 0 53 38 47 44 -10 10 -28 7
-41 -6z"/>
</g>
<g>
<path d="M3390 5197 c-12 -28 -24 -58 -27 -64 -3 -7 2 -13 10 -13 8 0 17 10
20 23 2 12 12 39 21 59 9 20 12 39 7 42 -5 3 -18 -18 -31 -47z"/>
</g>
<g>
<path d="M3960 5225 c-19 -23 -1 -39 21 -19 10 9 16 21 13 25 -8 13 -20 11
-34 -6z"/>
</g>
<g>
<path d="M4076 5173 c-11 -11 -6 -23 9 -23 8 0 15 4 15 9 0 13 -16 22 -24 14z"/>
</g>
<g>
<path d="M4640 4726 c0 -7 -7 -19 -15 -26 -16 -14 -20 -40 -6 -40 12 0 51 67
44 74 -11 11 -23 6 -23 -8z"/>
</g>
<g>
<path d="M3860 2570 c0 -5 5 -10 10 -10 6 0 10 5 10 10 0 6 -4 10 -10 10 -5 0
-10 -4 -10 -10z"/>
</g>
<g>
<path d="M7293 942 l-23 -27 -6 23 c-6 20 -24 32 -24 15 0 -13 -50 -67 -55
-61 -3 3 -8 18 -11 34 -7 38 -8 39 -44 24 -41 -17 -77 -88 -52 -103 13 -9 114
12 131 27 18 16 70 24 89 13 17 -12 15 -41 -5 -60 -10 -8 -63 -30 -118 -47
-55 -17 -113 -38 -130 -46 -16 -7 -74 -25 -128 -39 -145 -38 -215 -77 -178
-99 5 -4 62 7 126 24 64 16 124 30 134 30 9 0 26 6 37 14 35 26 4 30 -64 8
-71 -23 -151 -39 -141 -28 3 4 39 15 80 26 41 11 83 24 94 29 27 11 80 27 135
41 25 6 61 17 80 25 19 7 47 16 61 19 14 3 36 15 49 26 21 18 23 24 11 41 -7
12 -11 42 -10 67 4 54 -8 61 -38 24z m-143 -23 c0 -23 -22 -49 -40 -49 -25 0
-25 15 0 40 22 22 40 26 40 9z"/>
</g>
<g>
<path d="M6954 942 c-28 -10 -62 -25 -75 -34 l-24 -17 23 -7 c20 -6 23 -12 20
-42 -2 -22 2 -37 10 -39 6 -3 12 2 12 11 0 17 31 40 68 51 19 6 22 3 22 -24 0
-21 5 -31 15 -31 12 0 15 14 14 68 -1 38 -6 70 -13 74 -13 9 -9 10 -72 -10z
m56 -18 c0 -4 -8 -13 -17 -20 -20 -15 -63 -19 -63 -6 0 5 10 14 23 20 25 12
57 15 57 6z"/>
</g>
<g>
<path d="M6725 907 c-67 -43 -65 -61 5 -67 l55 -5 -52 -33 c-29 -19 -71 -36
-93 -39 -43 -6 -58 -19 -43 -34 13 -13 125 26 175 60 64 44 63 83 -3 79 -21
-1 -42 1 -45 5 -4 4 -1 7 7 7 14 0 69 42 69 54 0 14 -28 4 -75 -27z"/>
</g>
</g>
</svg>
